<svg width="200" height="200" viewBox="0 0 200 200" fill="none" xmlns="http://www.w3.org/2000/svg">
<rect width="200" height="200" fill="#D9D9D9"/>
<path d="M56.8133 66.4248C56.7412 64.9215 57.066 62.3444 56.5607 59.8031C56.3081 58.4072 57.2825 58.085 58.2208 57.6913C63.3095 55.7226 68.5425 54.1835 73.8477 52.9308C82.4371 50.8906 91.1348 49.5304 99.9407 49.0293C103.369 48.8503 106.87 49.5304 110.299 49.9957C118.274 51.0695 126.142 52.5728 133.829 54.9352C136.752 55.83 139.604 56.9396 142.491 57.9418C143.465 58.264 143.718 58.8367 143.682 59.8389C142.635 76.6259 144.728 93.0908 149.636 109.162C150.322 111.453 150.034 113.242 148.806 115.175C143.285 123.945 136.067 131.103 127.694 137.152C119.754 142.915 111.056 147.318 101.817 150.682C100.626 151.112 99.5798 151.112 98.3528 150.646C86.9123 146.387 76.3379 140.588 66.9907 132.75C60.6388 127.417 55.1171 121.332 50.7863 114.209C49.9563 112.849 49.7758 111.596 50.2811 109.985C53.3487 100.428 55.2615 90.6569 56.0915 80.6348C56.5607 76.268 56.9216 71.8654 56.8133 66.4248ZM59.8088 68.6082C59.7366 71.6507 59.7366 74.6573 59.5562 77.6997C58.7983 88.7956 56.7772 99.641 53.5291 110.272C53.1682 111.417 53.3487 112.312 53.9622 113.314C56.4163 117.287 59.3396 120.938 62.5516 124.303C72.765 134.897 85.1078 142.307 98.8219 147.568C99.8325 147.962 100.735 147.926 101.745 147.532C112.644 143.416 122.75 137.868 131.592 130.28C137.33 125.341 142.455 119.864 146.352 113.314C146.894 112.383 147.11 111.524 146.785 110.451C141.985 94.7015 139.892 78.6303 140.47 62.2012C140.506 60.7695 139.964 60.1968 138.773 59.7673C126.828 55.5079 114.485 53.1097 101.89 52.2507C95.2851 51.7854 88.7529 53.2171 82.2567 54.3267C75.0748 55.5437 68.0734 57.4049 61.2524 59.8389C60.1336 60.2326 59.6644 60.8053 59.7366 62.0581C59.9171 64.2057 59.8088 66.4248 59.8088 68.6082Z" fill="#AFAFAF"/>
<path d="M59.8091 68.6081C59.8091 66.3889 59.8813 64.2055 59.773 61.9863C59.7008 60.7335 60.17 60.1609 61.2888 59.7671C68.1458 57.2974 75.1473 55.4719 82.2931 54.255C88.7893 53.1454 95.3215 51.7494 101.926 52.179C114.521 53.038 126.864 55.4004 138.81 59.6955C140.037 60.1251 140.578 60.6978 140.506 62.1295C139.929 78.5586 142.022 94.6298 146.822 110.379C147.147 111.453 146.93 112.312 146.389 113.242C142.491 119.792 137.366 125.269 131.628 130.208C122.786 137.796 112.681 143.344 101.782 147.461C100.735 147.854 99.8689 147.89 98.8583 147.496C85.1442 142.235 72.8014 134.826 62.588 124.231C59.3399 120.866 56.4527 117.215 53.9986 113.242C53.3851 112.276 53.2046 111.345 53.5655 110.2C56.8136 99.5693 58.8346 88.7239 59.5925 77.628C59.773 74.6571 59.7369 71.6505 59.8091 68.6081ZM99.6884 56.9753C97.1621 57.2258 94.1667 57.4406 91.2073 57.7985C82.3292 58.8723 73.5954 60.6262 65.1865 63.776C63.8511 64.2771 63.3459 64.8856 63.382 66.3531C63.5263 72.6527 63.4181 78.9523 62.7324 85.2519C61.8662 93.198 60.4587 101.001 58.0768 108.625C57.7159 109.77 57.788 110.665 58.4016 111.632C61.5053 116.75 65.403 121.26 69.7699 125.412C70.7443 126.307 71.5022 126.307 72.4766 125.269C77.7097 119.613 83.0149 114.03 88.2479 108.374C97.126 98.7818 105.968 89.1534 114.882 79.5966C119.827 74.2634 124.807 68.9302 129.823 63.6328C130.726 62.6664 130.617 62.2011 129.354 61.8431C119.79 59.0871 110.046 57.5122 99.6884 56.9753ZM136.933 65.852C132.927 70.1472 129.318 74.0844 125.673 77.9859C121.27 82.6748 116.903 87.4353 112.536 92.16C105.535 99.7482 98.4974 107.301 91.4599 114.853C86.8404 119.828 82.1848 124.803 77.4931 129.743C76.7713 130.495 76.5909 130.924 77.6375 131.64C84.2058 136.293 91.3516 139.837 98.8583 142.664C100.158 143.165 101.349 142.879 102.539 142.414C111.454 138.942 119.79 134.468 127.189 128.419C132.819 123.801 137.763 118.647 141.589 112.419C142.311 111.274 142.78 110.236 142.347 108.768C140.939 103.936 139.748 99.0324 138.882 94.0571C137.908 88.1512 137.186 82.2095 136.933 76.232C136.825 72.9391 136.933 69.6819 136.933 65.852Z" fill="#F4F4F4"/>
<path d="M99.6883 56.9754C110.082 57.5123 119.79 59.0872 129.318 61.8433C130.581 62.2012 130.69 62.6665 129.787 63.633C124.771 68.9304 119.79 74.2278 114.846 79.5968C105.968 89.1894 97.1259 98.8178 88.2117 108.375C82.9787 114.03 77.6735 119.614 72.4404 125.269C71.466 126.307 70.7081 126.307 69.7337 125.412C65.3668 121.296 61.5052 116.786 58.3654 111.632C57.7519 110.63 57.7158 109.735 58.0406 108.625C60.3864 101.001 61.83 93.1624 62.6962 85.2521C63.3819 78.9525 63.4901 72.6529 63.3458 66.3533C63.3097 64.8857 63.815 64.2772 65.1503 63.7761C73.5592 60.5905 82.293 58.8725 91.1711 57.7987C94.1665 57.4407 97.162 57.226 99.6883 56.9754Z" fill="#AFAFAF"/>
<path d="M136.933 65.8521C136.933 69.6819 136.824 72.9391 136.969 76.2321C137.221 82.2096 137.907 88.1513 138.917 94.0572C139.748 99.0324 140.938 103.936 142.382 108.768C142.815 110.2 142.346 111.238 141.624 112.419C137.835 118.647 132.854 123.837 127.224 128.419C119.826 134.468 111.453 138.942 102.575 142.414C101.384 142.879 100.193 143.166 98.8938 142.664C91.351 139.837 84.2052 136.293 77.6729 131.64C76.6263 130.924 76.8067 130.495 77.5285 129.743C82.1841 124.804 86.8397 119.828 91.4953 114.853C98.5329 107.301 105.534 99.7483 112.572 92.1601C116.939 87.4354 121.306 82.6749 125.709 77.986C129.318 74.0845 132.927 70.1472 136.933 65.8521Z" fill="#CBCBCB"/>
</svg>
