<svg xmlns="http://www.w3.org/2000/svg" width="84" height="40" viewBox="0 0 84 40">
  <g id="بازیگوشی" transform="translate(-284.302 -662.287)">
    <g id="Group_181" data-name="Group 181" transform="translate(284.302 662.287)">
      <path id="Path_175" data-name="Path 175" d="M753.806,732.1a27.4,27.4,0,0,0-.477-2.776c-.079-.318-.155-.654-.24-.974a3.051,3.051,0,0,0-.155-.543.1.1,0,0,1-.016-.063c-.064-.208-1.447.288-1.59.351a8.787,8.787,0,0,0-1.066.431c-.064.032-.429.192-.4.288a23.289,23.289,0,0,1,.589,2.361,16.534,16.534,0,0,1,.381,4.754,6.024,6.024,0,0,1-.636,2.408h0a1.026,1.026,0,0,1-1.161.461.8.8,0,0,1-.207-.08,5.372,5.372,0,0,1-2.5-4.26,36.62,36.62,0,0,1-.24-8.137c.095-1.846.222-3.7.365-5.552a6.136,6.136,0,0,0-1.59.351,8.772,8.772,0,0,0-1.066.431c-.095.048-.4.154-.4.288a88.762,88.762,0,0,0-.413,11.073,16.529,16.529,0,0,0,.6,4.02,4.884,4.884,0,0,0,1.526,2.488,3.79,3.79,0,0,0,2.894.606,11.779,11.779,0,0,0,3.514-1.134,3.88,3.88,0,0,0,1.32-1.006,8.038,8.038,0,0,0,.954-5.792m-4.708,7.354c.016-.015.031-.015.064-.032-.033.015-.048.015-.064.032m.222-.143c-.033.032-.095.063,0,0m1.192-.383h.031c0-.015-.016,0-.031,0" transform="translate(-669.984 -711.422)" fill="gray"/>
      <path id="Path_176" data-name="Path 176" d="M506.254,754.183a4.666,4.666,0,0,0,.556.893,2.822,2.822,0,0,0,2.642,1.006,10.977,10.977,0,0,0,1.988-.5,14.038,14.038,0,0,0,1.554-.575,6.982,6.982,0,0,0,2.927-2.075,7.3,7.3,0,0,0,1.243-4.323,18.5,18.5,0,0,0-1.463-6.973c-.016-.048-.031-.08-.048-.128-.048-.1-.525.032-.525.032a9.67,9.67,0,0,0-1.161.335c-.143.048-1.638.558-1.543.75a18.009,18.009,0,0,1,.843,2.521,16.235,16.235,0,0,1,.636,5.314,7.391,7.391,0,0,1-.8,2.9c-.079.143-.207.318-.311.478a1.66,1.66,0,0,1-2.608.128,4.755,4.755,0,0,1-.97-1.659,8.41,8.41,0,0,1-.3-1.084,6.9,6.9,0,0,0,.311-.686,13.64,13.64,0,0,0,.954-4.921,25.566,25.566,0,0,0-.3-4.675c-.155-1.006-.35-2.01-.6-3-.031-.143-.079-.288-.112-.431-.064-.208-1.526.32-1.686.368a9.743,9.743,0,0,0-1.128.446c-.112.064-.4.154-.429.307-.255,1.564-.429,3.159-.556,4.738a32.073,32.073,0,0,0,.207,8.551c.016.063.031.143.048.223a16.219,16.219,0,0,0,.557-2.09,21.567,21.567,0,0,0,.334-3.031c.048-1.021.048-2.042.016-3.063s-.095-2.042-.155-3.064a22.1,22.1,0,0,1,.493,3.047,25.173,25.173,0,0,1,.079,3.1,16.688,16.688,0,0,1-.429,3.076,9.48,9.48,0,0,1-.842,2.233c-.048.1-.112.191-.155.288-.048.065-.079.143-.127.208a7.633,7.633,0,0,1-1.352,1.595c-.176.143-.35.288-.525.415h-.016l-.143.1c-.095.065-.207.128-.3.191h0a.058.058,0,0,0-.048.015h-.016c-.031,0-.064.015-.095.015.064-.208.112-.431.155-.638a24.763,24.763,0,0,0,.589-5.52,23.863,23.863,0,0,0-.589-5.313,12.264,12.264,0,0,0-1.686-4.152,4.584,4.584,0,0,0-2.736-2.075,6.849,6.849,0,0,0-2.544.128,20.031,20.031,0,0,0-4.93,1.595,9.087,9.087,0,0,0-2.687,1.882,8.079,8.079,0,0,0-1.686,2.728,12.533,12.533,0,0,0-.763,3.892,13.094,13.094,0,0,0,.35,4.085,6.1,6.1,0,0,0,1.5,2.648,6.557,6.557,0,0,0,2.449,1.538,16.605,16.605,0,0,0,6.918.615c.622-.048,1.256-.08,1.876-.154l.222-.974c-.239.015-.466.015-.7.032-.622.015-1.225,0-1.845-.032a11.429,11.429,0,0,1-3.642-.769,5.975,5.975,0,0,1-3.307-3.366,9.372,9.372,0,0,1-.589-2.951,16.483,16.483,0,0,1,.207-3.654,10.4,10.4,0,0,1,1.066-3.127,7.962,7.962,0,0,1,1.3-1.707c.255-.24.525-.461.811-.686.016-.015.048-.032.064-.048a.016.016,0,0,0,.011,0,.016.016,0,0,0,0-.011c.079-.048.143-.1.222-.143.048-.032.311-.154.413-.223a3.06,3.06,0,0,1,.311-.08h.048l.3-.048c.176-.015.334-.048.508-.065.064,0,.128-.015.191-.015h.127a3.283,3.283,0,0,1,1.225.24,5.138,5.138,0,0,1,2.289,2.218,13.6,13.6,0,0,1,1.48,3.925,24.538,24.538,0,0,1,.127,9.924c-.031.191-.079.4-.127.59-.079.335-.155.654-.238.941a14.535,14.535,0,0,1-1.352,3.43,10.006,10.006,0,0,1-1.161,1.66,5.037,5.037,0,0,1-3.848,1.309,8.98,8.98,0,0,1-2.894-.573,4.884,4.884,0,0,1-2.72-2.871,7.1,7.1,0,0,1-.311-2.888c.016-.208.048-.4.079-.606.016-.08-.466.015-.525.032h0a12.659,12.659,0,0,0-1.812.574c-.155.063-.311.143-.477.223-.127.065-.382.143-.413.307a6.114,6.114,0,0,0-.112,1.612,5.762,5.762,0,0,0,1,3.159,6.04,6.04,0,0,0,4.2,2.17,15.78,15.78,0,0,0,3.976-.1,14.963,14.963,0,0,0,4.437-1.384,8.372,8.372,0,0,0,3.483-3.174,14.587,14.587,0,0,0,1.543-3.537,15.8,15.8,0,0,0,3.2-1.356,1.247,1.247,0,0,0,.382-.208M493.185,738.87a.12.12,0,0,1-.064.015.069.069,0,0,1,.048-.015h.016l.016-.015c.016,0,.031-.016.048-.016-.016.032-.031.032-.064.032h0m.079,0h0c.016,0,.031-.015.048-.015-.064.032-.127.065-.048.015m.079-.032h0m.155-.08a.269.269,0,0,1,.079-.032.325.325,0,0,1,.095-.032.787.787,0,0,0-.176.065" transform="translate(-452.25 -725.436)" fill="gray"/>
      <path id="Path_177" data-name="Path 177" d="M616.153,683.832a28.258,28.258,0,0,0,11.18-1.261,30.216,30.216,0,0,0,6.683-3.076,13.383,13.383,0,0,0,1.161-.781,1.964,1.964,0,0,0,.286-.734,12.321,12.321,0,0,0,.3-1.276,5.6,5.6,0,0,0,.127-1.021c0-.1.016-.308-.112-.208-.033.032-.079.048-.112.08a25.716,25.716,0,0,1-4.024,2.3,29.671,29.671,0,0,1-8.523,2.536,26.17,26.17,0,0,1-6.217.128c-.112-.015-.255.446-.255.461a7.912,7.912,0,0,0-.311,1.164c-.031.112-.382,1.675-.175,1.692" transform="translate(-563.31 -673.348)" fill="gray"/>
      <path id="Path_178" data-name="Path 178" d="M398.587,697.99a16.258,16.258,0,0,0,3.164.558,22.013,22.013,0,0,0,7.3-.415,17.623,17.623,0,0,0,4.739-1.882c.128-.08.191-.32.238-.431a8.672,8.672,0,0,0,.3-1.1,8.828,8.828,0,0,0,.191-1.133c0-.048.015-.526-.031-.5a20.448,20.448,0,0,1-14.122,1.978c-.365-.08-.732-.143-1.088-.255-.191-.063-.508,1.384-.541,1.538a8.856,8.856,0,0,0-.191,1.133c0,.1-.079.478.031.511" transform="translate(-380.349 -688.182)" fill="gray"/>
      <path id="Path_179" data-name="Path 179" d="M674.35,667.023a12.707,12.707,0,0,0,2.322-.461,20.17,20.17,0,0,0,5.392-2.393c.207-.128.271-.686.311-.923a4.893,4.893,0,0,0,.112-.67,1.4,1.4,0,0,0-.016-.288,20.176,20.176,0,0,1-5.392,2.393,13.016,13.016,0,0,1-2.322.461c-.176.016-.3.8-.311.923-.016.065-.191.974-.095.957" transform="translate(-612.282 -662.288)" fill="gray"/>
      <path id="Path_180" data-name="Path 180" d="M316.2,747.393c-.048-1.324-.155-2.648-.311-3.957-.064-.461-.127-.941-.191-1.4a5.909,5.909,0,0,0-.128-.769.2.2,0,0,1-.015-.1c-.031-.191-1.463.307-1.59.351a9.939,9.939,0,0,0-1.066.431c-.079.048-.429.175-.4.288.222,1.181.365,2.361.477,3.557a31.785,31.785,0,0,1,.048,6.956,9.253,9.253,0,0,1-.933,3.3h0a.6.6,0,0,1-.891.175,3.749,3.749,0,0,1-1.192-1.723,9.556,9.556,0,0,1-.413-1.644,8.054,8.054,0,0,0,.445-1.006,14.652,14.652,0,0,0,.541-5.872,23.359,23.359,0,0,0-.3-2.361c-.048-.255-.095-.526-.143-.781a1.756,1.756,0,0,0-.095-.415c-.016-.015-.016-.032-.016-.063-.048-.192-1.463.308-1.59.351a9.946,9.946,0,0,0-1.066.431c-.112.065-.382.143-.4.288a46.634,46.634,0,0,0-.622,5.744,24.481,24.481,0,0,0,.031,3.414c.031.318.064.654.112.989.127-.368.238-.734.334-1.117.191-.781.311-1.579.429-2.378s.155-1.612.207-2.425a23.686,23.686,0,0,0,.016-2.441,11.542,11.542,0,0,1,.311,2.441,16.007,16.007,0,0,1-.112,2.473,14.022,14.022,0,0,1-.525,2.425,7.241,7.241,0,0,1-.7,1.564.049.049,0,0,0-.016.032c-.413.7-.842,1.292-1.209,1.164-1.113-.526-1.32-2.042-1.416-3.127a18.571,18.571,0,0,1,0-2.488,12.288,12.288,0,0,0,.016-2.648,5.8,5.8,0,0,0-2.052-3.8,3.975,3.975,0,0,0-1.736-.786,4.783,4.783,0,0,0-1.717.032,21.013,21.013,0,0,0-3.626.974,21.434,21.434,0,0,0-4.4,2.09,12.886,12.886,0,0,0-4.93,5.584,14.421,14.421,0,0,0-.651,8.855,8.1,8.1,0,0,0,3.07,5.281,7.617,7.617,0,0,0,5.152.909,30.519,30.519,0,0,0,7.283-2.027c1.957-.75,3.864-1.612,5.79-2.425.095-.032.191-.08.286-.112h0c.191-.08.382-.143.589-.223h.016a.226.226,0,0,1,.095-.032c.016,0,.031-.016.064-.016a.114.114,0,0,0,.079-.032.055.055,0,0,1,.048-.015.2.2,0,0,1,.095-.015h.031l.365-.048h.238a2.957,2.957,0,0,1,.97.223c2.1.923,2.417,3.829,2.487,5.823,0,.154,1.48-.308,1.59-.351a7.861,7.861,0,0,0,1.066-.431c.095-.048.413-.154.4-.288-.064-2.122-.445-5.217-2.83-5.967a4.012,4.012,0,0,0-2.083,0,19.427,19.427,0,0,0-3.118.923c-1.845.671-3.626,1.484-5.423,2.25-.238.1-.466.192-.684.288l-.239.1c-.016.015-.048.015-.079.032h0c-.016,0-.016,0-.031.015h-.016c.016,0,.031-.015.048-.015s.016-.015.031-.015c-.064.032-.112.048-.143.063h.016c-.016,0-.031.015-.048.015s-.016,0-.016.015h-.016c-.191.08-.382.143-.572.223-.112.048-.222.08-.311.128h0l-.668.24-.079.032c-.112.032-.207.065-.3.1a.374.374,0,0,1-.127.032c-.016,0-.016,0-.031.015a.061.061,0,0,1-.048.015c-.064.015-.127.032-.176.048-.095.032-.191.048-.3.08h-.048c-.016,0-.031.015-.048.015h-.031c-.222.048-.445.1-.684.143-.031,0-.064.015-.095.015h0a2.652,2.652,0,0,0-.35.065c-.222.032-.445.063-.684.08a2.242,2.242,0,0,1-.311.015h-.222a7.883,7.883,0,0,1-2.45-.308,3.47,3.47,0,0,1-.525-.192,6.4,6.4,0,0,1-3.276-3.606,13.944,13.944,0,0,1-.875-3.479,15.48,15.48,0,0,1-.016-4.371,11.82,11.82,0,0,1,1.335-3.989,12.1,12.1,0,0,1,1.781-2.408,12.8,12.8,0,0,1,1.066-1.006l.572-.461c.095-.065.176-.128.27-.192.016-.015.064-.048.079-.065a.689.689,0,0,0,.112-.08c.382-.255.777-.5,1.177-.718.016-.016.031-.016.048-.032h0a.443.443,0,0,0,.095-.048h0c.095-.048.176-.1.27-.143s.191-.1.27-.128h.016a.055.055,0,0,0,.031-.015l.239-.112a.054.054,0,0,0,.031-.015c.016,0,.016-.016.033-.016a.287.287,0,0,0,.095-.032c.031-.017.031-.015.048-.015l.155-.048c.016,0,.031-.015.064-.015l.446-.1c.048-.015.112-.015.155-.032l.311-.048a.2.2,0,0,0,.095-.015h.238a3.849,3.849,0,0,1,.429.032,4.162,4.162,0,0,1,3.314,2.887,7.114,7.114,0,0,1,.508,2.138,17.191,17.191,0,0,1-.079,2.393,10.152,10.152,0,0,0,.382,4.152,2.272,2.272,0,0,0,.842,1.149,2.129,2.129,0,0,0,1.554.24,12.762,12.762,0,0,0,3.387-1.1,4.281,4.281,0,0,0,.445.989,2.537,2.537,0,0,0,2.353,1.4,5.981,5.981,0,0,0,1.4-.24,11.194,11.194,0,0,0,2.577-.989,3.47,3.47,0,0,0,1.13-.973,8.261,8.261,0,0,0,1.289-3.691,42.649,42.649,0,0,0,.079-4.5m-22.2-3.239a.346.346,0,0,0-.079.048.177.177,0,0,1,.064-.032.015.015,0,0,1,.016-.015h0" transform="translate(-284.302 -728.552)" fill="gray"/>
      <path id="Path_181" data-name="Path 181" d="M453.538,675.084a2.092,2.092,0,0,0,.763-2.856,2.077,2.077,0,0,0-2.91-.431,2.092,2.092,0,0,0-.763,2.856,2.077,2.077,0,0,0,2.91.431" transform="translate(-423.909 -669.949)" fill="gray"/>
      <path id="Path_182" data-name="Path 182" d="M694.8,731.073a2.2,2.2,0,0,0-1.526,2.7,2.164,2.164,0,0,0,1.168,1.2,2.388,2.388,0,0,0,3.206-2.68,2.164,2.164,0,0,0-1.168-1.2,2.2,2.2,0,0,0-1.68-.016" transform="translate(-628.135 -719.987)" fill="gray"/>
      <path id="Path_183" data-name="Path 183" d="M634.593,782.178a9.8,9.8,0,0,0-1.13.447c-.095.048-.429.176-.429.308a5.608,5.608,0,0,1-.589,2.841c-.271.448-.636,1.612-3.945,1.021a14.8,14.8,0,0,1-2.7-.861c-.4-.175-.777-.351-1.161-.543a15.229,15.229,0,0,0,1.192-4.658,27.737,27.737,0,0,0,.016-5.264c-.127-1.452-.334-2.9-.6-4.34-.095-.5-.191-.974-.311-1.467-.064-.271-.112-.543-.191-.8a1.019,1.019,0,0,1-.031-.112c-.064-.208-1.542.318-1.686.367a9.754,9.754,0,0,0-1.128.446c-.079.032-.466.192-.429.308a36.317,36.317,0,0,1,.842,4.117,29.866,29.866,0,0,1,.207,8.583,14,14,0,0,1-.311,1.627c-.4-.154-.8-.32-1.192-.446a15.009,15.009,0,0,0-4.739-.814,15.828,15.828,0,0,0-5.566,1.134,8.682,8.682,0,0,0-3.657,2.233,3.142,3.142,0,0,0-.508,3.845,3.5,3.5,0,0,0,1.686,1.133,8.8,8.8,0,0,0,3.149.431,20.49,20.49,0,0,0,9.6-2.281,8.183,8.183,0,0,0,2.131-1.692c-.622-.24-1.243-.543-1.893-.861-.048.112-.112.208-.155.318a8.48,8.48,0,0,1-1.288,1.739c-.763.8-2.083,1.595-5.79,1.595a8.241,8.241,0,0,1-2.91-.526,2.721,2.721,0,0,1-1.781-2.713,3.259,3.259,0,0,1,.429-1.309,3.908,3.908,0,0,1,3.149-1.9,14.044,14.044,0,0,1,2.83.24,16.572,16.572,0,0,1,3.356,1.006c.811.335,1.574.75,2.353,1.133.636.32,1.3.615,2,.894a.555.555,0,0,1,.143.065,12.646,12.646,0,0,0,3.912.781,13.1,13.1,0,0,0,5.152-1.149,5.9,5.9,0,0,0,2.751-1.963,5.41,5.41,0,0,0,.875-3.319,7.231,7.231,0,0,0-1.638.415" transform="translate(-554.874 -751.724)" fill="gray"/>
    </g>
  </g>
</svg>
