<svg width="17" height="17" viewBox="0 0 17 17" fill="none" xmlns="http://www.w3.org/2000/svg">
<path d="M16.2911 8.1V9.1C16.2811 9.151 16.2691 9.2 16.2631 9.251C16.2251 9.529 16.2031 9.80999 16.1491 10.086C15.8174 11.892 14.8618 13.524 13.4491 14.697C12.6364 15.4032 11.6861 15.9332 10.6582 16.2535C9.63026 16.5738 8.54709 16.6775 7.47709 16.558C5.92587 16.4159 4.45449 15.8056 3.25809 14.808C1.74976 13.6013 0.736723 11.883 0.411087 9.979C0.358087 9.688 0.328086 9.393 0.288086 9.1V8.1C0.299488 8.0603 0.308176 8.01987 0.314087 7.979C0.407529 6.63327 0.853461 5.33583 1.60709 4.217C2.20244 3.2964 2.9829 2.50979 3.89881 1.90722C4.81471 1.30465 5.84601 0.899315 6.92709 0.717004C7.21209 0.665004 7.50109 0.634995 7.78909 0.594995H8.78909C9.06109 0.630995 9.33508 0.658004 9.60509 0.704004C11.0785 0.945707 12.4521 1.60354 13.5641 2.6C14.9388 3.79479 15.8575 5.42863 16.1641 7.22399C16.2201 7.51399 16.2511 7.808 16.2911 8.1ZM8.29109 15.663C10.164 15.659 11.959 14.9126 13.2824 13.5872C14.6058 12.2619 15.3498 10.466 15.3511 8.59301C15.3463 6.72251 14.6008 4.93003 13.2777 3.60784C11.9546 2.28566 10.1616 1.54142 8.29109 1.53799C6.41918 1.54142 4.62493 2.28656 3.30129 3.61019C1.97766 4.93383 1.23252 6.7281 1.22909 8.6C1.23199 10.4723 1.97686 12.2672 3.30053 13.5914C4.62419 14.9157 6.41875 15.6613 8.29109 15.665V15.663Z" fill="black"/>
<path d="M8.30306 2.47499C9.92548 2.48527 11.4782 3.13606 12.6231 4.28565C13.768 5.43523 14.4124 6.99054 14.4161 8.61299C14.4055 10.2353 13.7548 11.7877 12.6056 12.9327C11.4563 14.0777 9.90135 14.7226 8.27906 14.727C6.65645 14.7167 5.10357 14.066 3.95834 12.9165C2.81312 11.7669 2.16825 10.2116 2.16406 8.58901C2.17434 6.96632 2.82522 5.41338 3.975 4.26828C5.12477 3.12319 6.68035 2.47865 8.30306 2.47499ZM8.28606 3.413C6.91127 3.41775 5.59431 3.96675 4.62321 4.93991C3.65211 5.91307 3.10591 7.23121 3.10406 8.60601C3.10856 9.98097 3.65743 11.2982 4.63062 12.2695C5.60381 13.2408 6.92209 13.7872 8.29707 13.789C9.67203 13.7842 10.9891 13.2351 11.9603 12.2617C12.9314 11.2884 13.4775 9.96998 13.4791 8.595C13.4743 7.22021 12.9253 5.90325 11.9521 4.93215C10.979 3.96105 9.66086 3.41484 8.28606 3.413Z" fill="black"/>
<path d="M12.3601 7.475C12.2955 7.60004 12.2181 7.718 12.1291 7.82699C11.6511 8.30599 11.1641 8.77599 10.6761 9.24499C10.6425 9.27185 10.6172 9.3078 10.6034 9.34857C10.5896 9.38934 10.5878 9.43322 10.5981 9.475C10.7141 10.12 10.8221 10.766 10.9321 11.412C10.9371 11.443 10.9411 11.474 10.9471 11.504C10.973 11.5977 10.9691 11.6972 10.9362 11.7887C10.9032 11.8802 10.8428 11.9592 10.7631 12.015C10.6835 12.0705 10.589 12.1007 10.4919 12.1016C10.3948 12.1025 10.2997 12.074 10.2191 12.02C9.74711 11.767 9.27211 11.52 8.79711 11.271C8.62711 11.182 8.45512 11.034 8.28312 11.033C8.11112 11.032 7.95012 11.185 7.78312 11.272C7.30912 11.521 6.83311 11.772 6.36111 12.02C6.28093 12.0746 6.18614 12.1039 6.08911 12.1039C5.99208 12.1039 5.8973 12.0746 5.81711 12.02C5.73721 11.9646 5.67637 11.8859 5.6429 11.7946C5.60943 11.7033 5.60496 11.6039 5.63011 11.51C5.74611 10.839 5.85811 10.166 5.97811 9.496C5.99018 9.44946 5.98868 9.40045 5.9738 9.35473C5.95891 9.30902 5.93126 9.26852 5.89411 9.238C5.41311 8.777 4.93911 8.30801 4.45911 7.84601C4.37718 7.78497 4.31592 7.70031 4.28356 7.60341C4.2512 7.5065 4.2493 7.40201 4.27811 7.304C4.31069 7.20722 4.37257 7.12298 4.45518 7.06295C4.53778 7.00293 4.63701 6.9701 4.73911 6.96901C5.40911 6.87701 6.07711 6.769 6.74711 6.679C6.78997 6.6755 6.83092 6.65979 6.86513 6.63374C6.89933 6.60769 6.92535 6.57238 6.94011 6.53199C7.23411 5.93199 7.53411 5.332 7.82711 4.725C7.85997 4.62827 7.92167 4.54393 8.00391 4.48332C8.08615 4.42271 8.18499 4.38874 8.28712 4.386C8.38922 4.38812 8.48823 4.42145 8.57082 4.48152C8.65342 4.54159 8.71563 4.62551 8.74911 4.722C9.04911 5.33 9.34911 5.935 9.64211 6.543C9.65698 6.58055 9.68233 6.61305 9.71512 6.63662C9.74792 6.6602 9.78678 6.67387 9.82711 6.67601C10.5171 6.77601 11.2071 6.876 11.8961 6.976C12.0145 6.98568 12.1246 7.04049 12.2037 7.12909C12.2828 7.21768 12.3248 7.33328 12.3211 7.45199L12.3601 7.475ZM10.8351 7.77501L10.7561 7.759C10.3131 7.695 9.87111 7.626 9.42811 7.569C9.3194 7.56093 9.21508 7.52281 9.12679 7.45889C9.0385 7.39497 8.9697 7.30775 8.92811 7.207C8.75411 6.829 8.56411 6.459 8.37911 6.086C8.35511 6.038 8.32711 5.992 8.29111 5.927C8.25311 5.999 8.22612 6.048 8.20112 6.098C8.01212 6.48 7.82111 6.862 7.63611 7.246C7.60073 7.33037 7.54339 7.40371 7.47005 7.4584C7.39672 7.5131 7.31006 7.54715 7.21911 7.557C6.96611 7.591 6.71911 7.63 6.46211 7.667L5.76211 7.767L5.74412 7.81199C5.79143 7.84435 5.83684 7.87942 5.88011 7.917C6.19111 8.217 6.49911 8.517 6.80911 8.817C6.87196 8.87224 6.91946 8.9428 6.94697 9.02183C6.97448 9.10086 6.98108 9.18567 6.96612 9.268C6.93312 9.463 6.89711 9.657 6.86611 9.852C6.81611 10.152 6.76611 10.444 6.71311 10.763C6.78111 10.731 6.82311 10.713 6.86311 10.692C7.21311 10.509 7.57012 10.337 7.91012 10.137C8.02224 10.0619 8.15416 10.0218 8.28911 10.0218C8.42407 10.0218 8.55598 10.0619 8.66811 10.137C9.04911 10.358 9.44612 10.551 9.85612 10.767C9.85612 10.699 9.85611 10.654 9.84411 10.611C9.77111 10.18 9.70211 9.749 9.62011 9.32C9.59808 9.22871 9.60125 9.13315 9.62925 9.04352C9.65725 8.95388 9.70905 8.87352 9.77912 8.811C10.0941 8.511 10.4061 8.201 10.7191 7.895C10.7551 7.859 10.7841 7.824 10.8361 7.772L10.8351 7.77501Z" fill="black"/>
</svg>
