<svg id="icon_4_" xmlns="http://www.w3.org/2000/svg" xmlns:xlink="http://www.w3.org/1999/xlink" width="24" height="21.438" viewBox="0 0 24 21.438">
  <defs>
    <linearGradient id="linear-gradient" x1="-13.307" y1="-1.509" x2="-13.307" y2="-2.509" gradientUnits="objectBoundingBox">
      <stop offset="0" stop-color="#ea1925"/>
      <stop offset="1" stop-color="#ea5462"/>
    </linearGradient>
  </defs>
  <path id="heart_9_" d="M197.66,595.9a6.318,6.318,0,0,0-5.824,4.207h0a7.161,7.161,0,0,0,2.1,8.125l8.321,6.576,8.335-6.56a7.166,7.166,0,0,0,2.119-8.125,6.333,6.333,0,0,0-5.824-4.222,5.891,5.891,0,0,0-2.4.516,6.212,6.212,0,0,0-2.217,1.67,6.092,6.092,0,0,0-2.217-1.67,5.891,5.891,0,0,0-2.4-.516Z" transform="translate(-190.373 -594.832)" fill="url(#linear-gradient)"/>
  <path id="Path_31350" data-name="Path 31350" d="M210.385,638.145h0a13.447,13.447,0,0,1-16.567-.015h0a6.7,6.7,0,0,1-2.5-4.331,6.8,6.8,0,0,0,2.5,6.4l8.27,6.4,8.284-6.385a6.828,6.828,0,0,0,2.5-6.414A6.515,6.515,0,0,1,210.385,638.145Z" transform="translate(-190.144 -626.624)" opacity="0.1"/>
  <path id="Path_31351" data-name="Path 31351" d="M190.866,589.1a5.951,5.951,0,0,1,2.4.512,5.093,5.093,0,0,1,.489.256,6.131,6.131,0,0,1,1.7,1.4,6.41,6.41,0,0,1,1.467-1.265,4.892,4.892,0,0,1,.726-.391,5.887,5.887,0,0,1,2.389-.512,6.3,6.3,0,0,1,5.783,4.14c0,.015.014.03.014.045a.9.9,0,0,1,.056.181.227.227,0,0,1,.028.09,7.736,7.736,0,0,1,.307,1.25h0a6.557,6.557,0,0,1,.07.9v.045a6.74,6.74,0,0,1-.2,1.761.058.058,0,0,1-.014.045q-.1.406-.251.813l-.042.09a7.354,7.354,0,0,1-.782,1.475c-.028.03-.056.075-.084.105a6.761,6.761,0,0,1-.5.617.819.819,0,0,1-.112.106,7.694,7.694,0,0,1-.615.557h0l-8.3,6.5-6.076-4.772-2.221-1.746a5.576,5.576,0,0,1-.615-.557c-.042-.03-.07-.075-.112-.105a5.192,5.192,0,0,1-.5-.617.455.455,0,0,1-.07-.105,6.378,6.378,0,0,1-.782-1.475l-.042-.09a7.748,7.748,0,0,1-.251-.813c0-.015-.014-.03-.014-.045a7.389,7.389,0,0,1-.2-1.761V595.7a7.191,7.191,0,0,1,.377-2.153,1.1,1.1,0,0,1,.042-.12.663.663,0,0,1,.056-.151,6.519,6.519,0,0,1,1.983-2.77c.126-.105.251-.2.377-.286a6.272,6.272,0,0,1,3.506-1.114m0-1.2a6.959,6.959,0,0,0-4.051,1.31,4.869,4.869,0,0,0-.433.331,7.864,7.864,0,0,0-2.333,3.267c-.014.045-.042.105-.056.151,0,.015,0,.015-.014.03v.03c0,.015-.014.03-.014.06l-.028.06a8.657,8.657,0,0,0-.447,2.529v.06a8.6,8.6,0,0,0,.223,2.078c0,.03.014.045.014.075a6.168,6.168,0,0,0,.293.949.226.226,0,0,1,.028.09l.014.03a7.766,7.766,0,0,0,.922,1.731l.028.03c.028.03.042.06.07.09a7.223,7.223,0,0,0,.6.723l.1.105.028.03a6.721,6.721,0,0,0,.726.647l2.221,1.746,6.076,4.772.656.512.656-.512,8.3-6.5.07-.045h0a7.219,7.219,0,0,0,.656-.6l.028-.03a.664.664,0,0,0,.1-.105,7.231,7.231,0,0,0,.6-.723.65.65,0,0,0,.07-.105l.014-.03a7.768,7.768,0,0,0,.922-1.731l.014-.03.042-.09q.168-.474.293-.949c0-.015.014-.045.014-.06v.015a8.069,8.069,0,0,0,.223-2.093h0V595.7a7.485,7.485,0,0,0-.07-.979v-.407l-.084-.09a7.812,7.812,0,0,0-.293-1.084l-.014-.045c0-.015-.014-.03-.014-.045v-.03a.054.054,0,0,0-.014-.03,1.206,1.206,0,0,0-.056-.166c-.014-.03-.014-.045-.028-.06a7.388,7.388,0,0,0-6.8-4.863,7.106,7.106,0,0,0-2.822.6,6.092,6.092,0,0,0-.866.467,6.892,6.892,0,0,0-.908.662,7.471,7.471,0,0,0-1.187-.828,5.655,5.655,0,0,0-.587-.3,7.314,7.314,0,0,0-2.877-.6Z" transform="translate(-183.489 -587.9)" fill="#dc0000"/>
  <g id="Group_15937" data-name="Group 15937" transform="translate(2.058 1.182)" opacity="0.2">
    <path id="Path_31352" data-name="Path 31352" d="M212.494,595.9a5.939,5.939,0,0,0-2.381.5,6.152,6.152,0,0,0-2.2,1.626,6.08,6.08,0,0,0-4.595-2.128A6.163,6.163,0,0,0,198,599.063a11.407,11.407,0,0,0,19.827,0A6.2,6.2,0,0,0,212.494,595.9Z" transform="translate(-198 -595.9)" fill="#fff"/>
  </g>
  <g id="Group_15938" data-name="Group 15938" transform="translate(15.67 1.788)" opacity="0.4">
    <path id="Path_31353" data-name="Path 31353" d="M297.445,600.857a.823.823,0,1,1-.823-.857A.841.841,0,0,1,297.445,600.857Z" transform="translate(-295.8 -600)" fill="#fff"/>
  </g>
  <g id="Group_15939" data-name="Group 15939" transform="translate(18.016 2.655)" opacity="0.4">
    <path id="Path_31354" data-name="Path 31354" d="M313.631,606.488a.527.527,0,0,1-.6.488.54.54,0,0,1-.468-.621.527.527,0,0,1,.6-.488A.549.549,0,0,1,313.631,606.488Z" transform="translate(-312.562 -605.862)" fill="#fff"/>
  </g>
  <g id="Group_15940" data-name="Group 15940" transform="translate(6.975 1.857)" opacity="0.4">
    <path id="Path_31355" data-name="Path 31355" d="M234.531,601.088a.527.527,0,0,1-.6.488.54.54,0,0,1-.468-.621.527.527,0,0,1,.6-.488A.54.54,0,0,1,234.531,601.088Z" transform="translate(-233.462 -600.462)" fill="#fff"/>
  </g>
</svg>
