<svg xmlns="http://www.w3.org/2000/svg" xmlns:xlink="http://www.w3.org/1999/xlink" width="199" height="45" viewBox="0 0 199 45"><defs><style>.a{stroke:#5c45cf;fill:url(#a);}.b{fill:url(#d);}.c,.n{fill:none;}.c{stroke:#801107;stroke-linecap:round;stroke-linejoin:round;stroke-width:2px;}.d{fill:#c52615;}.e{fill:url(#g);}.f,.k{fill:#fff;}.g{opacity:0.5;}.h{fill:#882017;}.i{fill:url(#i);}.j{fill:rgba(255,255,255,0.6);}.k{opacity:0.6;}.l{fill:#801107;}.m,.o{stroke:none;}.o{fill:#5c45cf;}.p{filter:url(#e);}.q{filter:url(#b);}</style><linearGradient id="a" x1="0.5" x2="0.5" y2="1" gradientUnits="objectBoundingBox"><stop offset="0" stop-color="#5c45cf"/><stop offset="1" stop-color="#4332bc"/></linearGradient><filter id="b" x="0" y="0" width="199" height="45" filterUnits="userSpaceOnUse"><feOffset dy="3" input="SourceAlpha"/><feGaussianBlur stdDeviation="1.5" result="c"/><feFlood flood-color="#2d17b1"/><feComposite operator="in" in2="c"/><feComposite in="SourceGraphic"/></filter><linearGradient id="d" x1="0.5" x2="0.5" y2="1" gradientUnits="objectBoundingBox"><stop offset="0" stop-color="#937dff"/><stop offset="1" stop-color="#3923d6"/></linearGradient><filter id="e" x="139.5" y="0.5" width="55.998" height="42" filterUnits="userSpaceOnUse"><feOffset dx="-2" dy="2" input="SourceAlpha"/><feGaussianBlur stdDeviation="1" result="f"/><feFlood flood-color="#2d17b1"/><feComposite operator="in" in2="f"/><feComposite in="SourceGraphic"/></filter><linearGradient id="g" x1="0.5" y1="1" x2="0.5" gradientUnits="objectBoundingBox"><stop offset="0" stop-color="#ffd6ff" stop-opacity="0"/><stop offset="1" stop-color="#ffd6ff"/></linearGradient><linearGradient id="i" x1="0.5" y1="1" x2="0.5" gradientUnits="objectBoundingBox"><stop offset="0" stop-color="#ffff6e" stop-opacity="0"/><stop offset="1" stop-color="#ffff6e"/></linearGradient></defs><g transform="translate(-80.5 -336.5)"><g class="q" transform="matrix(1, 0, 0, 1, 80.5, 336.5)"><g class="a" transform="translate(4.5 1.5)"><rect class="m" width="190" height="36" rx="10"/><rect class="n" x="0.5" y="0.5" width="189" height="35" rx="9.5"/></g></g><g class="p" transform="matrix(1, 0, 0, 1, 80.5, 336.5)"><g class="b" transform="translate(-19489.09 -7358.5)"><path class="m" d="M 19672.49609375 7395.5 L 19635.28515625 7395.5 C 19634.490234375 7392.74560546875 19634.0859375 7389.8876953125 19634.0859375 7386.99853515625 C 19634.0859375 7381.498046875 19635.56640625 7376.107421875 19638.365234375 7371.4091796875 C 19641.0625 7366.88232421875 19644.90234375 7363.11279296875 19649.4765625 7360.50048828125 L 19672.49609375 7360.50048828125 C 19678.333984375 7360.50048828125 19683.083984375 7364.76171875 19683.083984375 7370 L 19683.083984375 7386.00048828125 C 19683.083984375 7391.23876953125 19678.333984375 7395.5 19672.49609375 7395.5 Z"/><path class="o" d="M 19672.49609375 7395 C 19678.05859375 7395 19682.583984375 7390.962890625 19682.583984375 7386.00048828125 L 19682.583984375 7370 C 19682.583984375 7365.03759765625 19678.05859375 7361.00048828125 19672.49609375 7361.00048828125 L 19649.609375 7361.00048828125 C 19645.162109375 7363.5673828125 19641.42578125 7367.25 19638.794921875 7371.6650390625 C 19636.041015625 7376.28564453125 19634.5859375 7381.587890625 19634.5859375 7386.99853515625 C 19634.5859375 7389.71435546875 19634.94921875 7392.40234375 19635.6640625 7395 L 19672.49609375 7395 M 19672.49609375 7396 L 19634.912109375 7396 C 19634.05078125 7393.1513671875 19633.5859375 7390.12890625 19633.5859375 7386.99853515625 C 19633.5859375 7375.41943359375 19639.93359375 7365.322265625 19649.34375 7360.00048828125 L 19672.49609375 7360.00048828125 C 19678.62109375 7360.00048828125 19683.583984375 7364.478515625 19683.583984375 7370 L 19683.583984375 7386.00048828125 C 19683.583984375 7391.521484375 19678.62109375 7396 19672.49609375 7396 Z"/></g></g><g transform="translate(239.152 343.41)"><g transform="translate(0)"><path class="c" d="M522.494,150.3a10.881,10.881,0,0,1,1.176.062c2.548.249,5.49,2.593,5.85,7.078v1.491c-.332,4.3-3.561,9.591-13,16.239-9.439-6.648-12.668-11.941-13-16.239V157.44c.36-4.491,3.3-6.829,5.85-7.078.416-.04.81-.062,1.176-.062,2.942,0,4.354,1.277,5.974,3.208,1.62-1.932,3.032-3.208,5.974-3.208" transform="translate(-503.52 -149.17)"/><path class="c" d="M522.494,148.3a10.877,10.877,0,0,1,1.176.062c2.548.249,5.49,2.593,5.85,7.078v1.491c-.332,4.3-3.561,9.591-13,16.239-9.439-6.648-12.668-11.941-13-16.239V155.44c.36-4.491,3.3-6.829,5.85-7.078.416-.04.81-.062,1.176-.062,2.942,0,4.354,1.277,5.974,3.208,1.62-1.932,3.032-3.208,5.974-3.208" transform="translate(-503.52 -148.3)"/><path class="d" d="M522.494,148.3a10.877,10.877,0,0,1,1.176.062c2.548.249,5.49,2.593,5.85,7.078v1.491c-.332,4.3-3.561,9.591-13,16.239-9.439-6.648-12.668-11.941-13-16.239V155.44c.36-4.491,3.3-6.829,5.85-7.078.416-.04.81-.062,1.176-.062,2.942,0,4.354,1.277,5.974,3.208,1.62-1.932,3.032-3.208,5.974-3.208" transform="translate(-503.52 -148.3)"/></g><g transform="translate(0 1.44)"><path class="e" d="M504.4,157.159v-1.491a8.461,8.461,0,0,1,1.839-4.818,8.058,8.058,0,0,0-2.723,5.7v1.491c.337,4.3,3.561,9.591,13,16.239.354-.249,0,0,1.029-.74C508.825,167.18,504.724,161.294,504.4,157.159Z" transform="translate(-503.52 -150.85)"/><path class="e" d="M504.4,157.159v-1.491a8.461,8.461,0,0,1,1.839-4.818,8.058,8.058,0,0,0-2.723,5.7v1.491c.337,4.3,3.561,9.591,13,16.239.354-.249,0,0,1.029-.74C508.825,167.18,504.724,161.294,504.4,157.159Z" transform="translate(-503.52 -150.85)"/><path class="f" d="M504.4,157.159v-1.491a8.461,8.461,0,0,1,1.839-4.818,8.058,8.058,0,0,0-2.723,5.7v1.491c.337,4.3,3.561,9.591,13,16.239.354-.249,0,0,1.029-.74C508.825,167.18,504.724,161.294,504.4,157.159Z" transform="translate(-503.52 -150.85)"/></g><g class="g" transform="translate(1.164 7.309)"><path class="h" d="M517.341,171.074a11.3,11.3,0,0,1-11.717-9.834l-.034.254v1.288c.3,3.705,3.246,8.275,11.836,14.008,8.6-5.733,11.532-10.308,11.841-14.008v-1.288c-.006-.085-.022-.169-.034-.254A11.726,11.726,0,0,1,517.341,171.074Z" transform="translate(-505.59 -161.24)"/></g><g transform="translate(1.913 1.767)"><path class="i" d="M518.126,164.093c5.6,0,11.211-3.717,11.211-7.45v-.119a5.713,5.713,0,0,0-5.085-5.084c-.36-.028-3.06-.147-4.264,1.621.208,1.124.321,5.157-.579,6.569a8.521,8.521,0,0,0-1.328-4.988c-.99-1.277-2.79-3.118-5.31-3.118-.315,0-.658.017-1.018.045a5.358,5.358,0,0,0-4.832,4.959v.119C506.914,160.382,512.528,164.093,518.126,164.093Z" transform="translate(-506.92 -151.428)"/></g><path class="j" d="M536.881,154.192a.944.944,0,0,1-1,.876.965.965,0,0,1-1.086-.774,1.07,1.07,0,0,1,2.081-.1Z" transform="translate(-517.204 -150.526)"/><g transform="translate(1.907 0.706)"><path class="k" d="M512.76,151.59c-.315,0-.658.017-1.018.045a5.358,5.358,0,0,0-4.832,4.959v.119a3.951,3.951,0,0,0,.1.847,5.413,5.413,0,0,1,3.038-3.982,1.471,1.471,0,0,0-.017.226,2.276,2.276,0,0,0,2.565,1.836,2.236,2.236,0,0,0,2.351-2.062,8.649,8.649,0,0,1,3.122,2.638,9.5,9.5,0,0,1,1.243,3.321.646.646,0,0,1,.1-.079,8.609,8.609,0,0,0-1.339-4.745C517.08,153.437,515.28,151.59,512.76,151.59Z" transform="translate(-506.91 -150.438)"/><path class="k" d="M534.414,151.44c-.36-.028-3.06-.147-4.264,1.621a10.884,10.884,0,0,1,.124,1.344,3.284,3.284,0,0,1,1.1-.887c-.006.073-.017.147-.017.22a2.282,2.282,0,0,0,2.571,1.841,2.23,2.23,0,0,0,2.352-2.073c0-.017-.006-.028-.006-.045A5.775,5.775,0,0,1,539.4,157.5a4.017,4.017,0,0,0,.1-.853v-.119A5.713,5.713,0,0,0,534.414,151.44Z" transform="translate(-517.077 -150.367)"/><g transform="translate(12.651)"><path class="d" d="M530.643,149.55a7.844,7.844,0,0,1-.821,6.394l-.422-4.971Z" transform="translate(-529.4 -149.55)"/></g><path class="l" d="M528.626,153.384a9.94,9.94,0,0,0-.5-2.05c-.1-.277-.2-.508-.276-.672a2.125,2.125,0,0,0-.107-.2.484.484,0,0,0-.039-.068l-1.2.96a3.963,3.963,0,0,1,.028,1,8.35,8.35,0,0,1,1.029,1.4,8.529,8.529,0,0,1,.765,1.712,5.7,5.7,0,0,1,.169.616c.034.152.056.237.056.237s.017-.09.039-.243.062-.378.084-.65A8.671,8.671,0,0,0,528.626,153.384Z" transform="translate(-515.48 -149.916)"/></g><path class="j" d="M517.031,154.192a.944.944,0,0,1-1,.876.965.965,0,0,1-1.086-.774,1.07,1.07,0,0,1,2.081-.1Z" transform="translate(-508.52 -150.526)"/></g></g></svg>