<svg xmlns="http://www.w3.org/2000/svg" width="32" height="52" viewBox="0 0 32 52">
  <g id="Group_14609" data-name="Group 14609" transform="translate(-233.799 -480.771)">
    <path id="Path_32935" data-name="Path 32935" d="M10.158,0A10.15,10.15,0,1,1,0,10.139,10.187,10.187,0,0,1,10.158,0Z" transform="matrix(0.907, -0.422, 0.422, 0.907, 236.297, 491.82)" fill="#9ea8ba"/>
    <g id="Group_14608" data-name="Group 14608" transform="translate(233.799 480.771)">
      <g id="Group_14602" data-name="Group 14602">
        <rect id="Rectangle_2102" data-name="Rectangle 2102" width="28.08" height="3.425" transform="translate(1.723 14.261)" fill="#6b7282"/>
        <path id="Path_32887" data-name="Path 32887" d="M249.8,480.771a15.96,15.96,0,1,0,16,15.96A15.98,15.98,0,0,0,249.8,480.771Zm0,29.336a13.375,13.375,0,1,1,13.409-13.375A13.407,13.407,0,0,1,249.8,510.107Z" transform="translate(-233.799 -480.771)" fill="#798093"/>
        <g id="Group_14599" data-name="Group 14599" transform="translate(0.676 0.833)">
          <path id="Path_32888" data-name="Path 32888" d="M252.255,484.827a15.127,15.127,0,1,0,15.167,15.127A15.164,15.164,0,0,0,252.255,484.827Zm0,29.638A14.511,14.511,0,1,1,266.8,499.954,14.547,14.547,0,0,1,252.255,514.465Z" transform="translate(-237.088 -484.827)" fill="#9daed1"/>
        </g>
        <path id="Path_32889" data-name="Path 32889" d="M285.65,532.771l-9.775-5.131-9.775,5.131v-52H285.65Z" transform="translate(-259.466 -480.771)" fill="#7c4dff"/>
        <g id="Group_14600" data-name="Group 14600" transform="translate(6.676 0)">
          <path id="Path_32890" data-name="Path 32890" d="M267.608,480.772H266.1v52l1.508-.795Z" transform="translate(-266.1 -480.772)" fill="#512da8"/>
          <path id="Path_32891" data-name="Path 32891" d="M353.982,480.772v51.251l1.422.749v-52Z" transform="translate(-335.933 -480.772)" fill="#512da8"/>
          <path id="Path_32892" data-name="Path 32892" d="M297.645,480.772h-11.2v49.767L292,527.612l5.643,2.973Z" transform="translate(-282.266 -480.772)" fill="#bda6ff"/>
          <path id="Path_32893" data-name="Path 32893" d="M303.429,528.674l2.069-1.089,1.32.695V480.772h-3.389Z" transform="translate(-295.762 -480.772)" fill="#7c4dff"/>
        </g>
        <path id="Path_32894" data-name="Path 32894" d="M266.1,516.459a13.387,13.387,0,0,0,19.551-.879V498.348a13.388,13.388,0,0,0-19.551-.879Z" transform="translate(-259.466 -491.003)" fill="#7c4dff" opacity="0.68" style="mix-blend-mode: multiply;isolation: isolate"/>
        <path id="Path_32895" data-name="Path 32895" d="M264.8,523.815a12.083,12.083,0,1,1,12.123-12.084A12.117,12.117,0,0,1,264.8,523.815Z" transform="translate(-248.799 -495.771)" fill="#b0b9cc"/>
        <path id="Path_32936" data-name="Path 32936" d="M10.158,0A10.15,10.15,0,1,1,0,10.139,10.187,10.187,0,0,1,10.158,0Z" transform="matrix(0.907, -0.422, 0.422, 0.907, 2.498, 11.049)" fill="#9ea8ba"/>
        <g id="Group_14601" data-name="Group 14601" transform="translate(6.328 5.846)" opacity="0.43" style="mix-blend-mode: screen;isolation: isolate">
          <path id="Path_32896" data-name="Path 32896" d="M291.415,518.229,278.83,534.1a10.21,10.21,0,0,0,.89.7L292.3,518.937A10.133,10.133,0,0,0,291.415,518.229Z" transform="translate(-275.874 -516.382)" fill="#b0b9cc"/>
          <path id="Path_32897" data-name="Path 32897" d="M303.05,528.118,290.8,543.563q.266.124.54.232l12.058-15.2Q303.23,528.35,303.05,528.118Z" transform="translate(-285.385 -524.24)" fill="#b0b9cc"/>
          <path id="Path_32898" data-name="Path 32898" d="M282.127,512.06l-11.96,15.08q.162.248.338.485l12.171-15.346Q282.405,512.162,282.127,512.06Z" transform="translate(-268.99 -511.48)" fill="#b0b9cc"/>
          <path id="Path_32899" data-name="Path 32899" d="M274.9,509.236l-10.46,13.189q.152.475.348.93l11.1-13.993Q275.4,509.275,274.9,509.236Z" transform="translate(-264.435 -509.236)" fill="#b0b9cc"/>
        </g>
        <path id="Path_32900" data-name="Path 32900" d="M262.933,519.231a10.157,10.157,0,0,1,9.736-10.136,10.145,10.145,0,1,0,0,20.273A10.157,10.157,0,0,1,262.933,519.231Z" transform="translate(-256.278 -503.271)" fill="#8a99ad"/>
      </g>
      <path id="Path_32901" data-name="Path 32901" d="M295.685,539.013H299.9V541.1h-7.561V538.95c1.323-1.136,4.614-3.881,4.614-5.6a1.4,1.4,0,0,0-1.518-1.465,6.277,6.277,0,0,0-2.746.807l-.074-2.3c5.707-2.259,8.857,1.348,6.165,5.324A18.33,18.33,0,0,1,295.685,539.013Z" transform="translate(-280.274 -519.825)" fill="#bac6d8"/>
      <path id="Path_32902" data-name="Path 32902" d="M295.685,539.013H299.9V541.1h-7.561V538.95c1.323-1.136,4.614-3.881,4.614-5.6a1.4,1.4,0,0,0-1.518-1.465,6.277,6.277,0,0,0-2.746.807l-.074-2.3c5.707-2.259,8.857,1.348,6.165,5.324A18.33,18.33,0,0,1,295.685,539.013Z" transform="translate(-280.274 -519.825)" fill="#bac6d8"/>
      <path id="Path_32903" data-name="Path 32903" d="M290.336,539.918v-2.746l.314-.269c1.176-1.007,4.3-3.682,4.3-5.144a.994.994,0,0,0-1.107-1.055,5.786,5.786,0,0,0-2.559.762l-.577.295-.1-3.232.269-.106a9.406,9.406,0,0,1,3.432-.727,4.149,4.149,0,0,1,3.872,1.976,4.539,4.539,0,0,1-.648,4.687,16.441,16.441,0,0,1-2.366,2.654h3.556v2.906Z" transform="translate(-278.685 -518.231)" fill="#798093"/>
      <path id="Path_32904" data-name="Path 32904" d="M295.685,539.013H299.9V541.1h-7.561V538.95c1.323-1.136,4.614-3.881,4.614-5.6a1.4,1.4,0,0,0-1.518-1.465,6.277,6.277,0,0,0-2.746.807l-.074-2.3c5.707-2.259,8.857,1.348,6.165,5.324A18.33,18.33,0,0,1,295.685,539.013Z" transform="translate(-280.274 -519.825)" fill="#bac6d8"/>
      <path id="Path_32905" data-name="Path 32905" d="M303.766,531.7a4.466,4.466,0,0,1,3.245.32c.715.463,1.558,2.469,0,4.643a25.625,25.625,0,0,1-3.414,3.594,38.072,38.072,0,0,0,3.261-3.7,3.761,3.761,0,0,0,.534-3.791,2.127,2.127,0,0,0-1.984-1.111A7.526,7.526,0,0,0,303.766,531.7Z" transform="translate(-289.219 -521.291)" fill="#ceddf4"/>
      <g id="Group_14603" data-name="Group 14603" transform="translate(4.461 7.91)">
        <path id="Path_32906" data-name="Path 32906" d="M255.633,529.157a11.252,11.252,0,0,1,2.818-9.183.1.1,0,0,1,.152.138,11.048,11.048,0,0,0-2.767,9.016A.1.1,0,0,1,255.633,529.157Z" transform="translate(-255.519 -519.94)" fill="#ceddf4"/>
      </g>
      <g id="Group_14604" data-name="Group 14604" transform="translate(4.763 17.878)">
        <path id="Path_32907" data-name="Path 32907" d="M258.153,572.188a11.192,11.192,0,0,1-1.161-2.947.1.1,0,0,1,.2-.047c.564,2.373,1.356,2.888,1.1,3.033C258.277,572.235,258.181,572.236,258.153,572.188Z" transform="translate(-256.989 -569.114)" fill="#ceddf4"/>
      </g>
      <g id="Group_14605" data-name="Group 14605" transform="translate(6.485 21.6)">
        <path id="Path_32908" data-name="Path 32908" d="M274.524,592.554a11.279,11.279,0,0,1-9.241-4.823.1.1,0,0,1,.169-.117,11.073,11.073,0,0,0,9.072,4.736A.1.1,0,0,1,274.524,592.554Z" transform="translate(-265.263 -587.568)" fill="#ceddf4"/>
      </g>
      <g id="Group_14606" data-name="Group 14606" transform="translate(22.68 6.858)">
        <path id="Path_32909" data-name="Path 32909" d="M344.265,531.314a11.058,11.058,0,0,0-.318-16.965.1.1,0,0,1,.129-.16,11.264,11.264,0,0,1,.324,17.28A.1.1,0,0,1,344.265,531.314Z" transform="translate(-343.908 -514.165)" fill="#ceddf4"/>
      </g>
      <g id="Group_14607" data-name="Group 14607" transform="translate(8.39 5.742)">
        <path id="Path_32910" data-name="Path 32910" d="M274.577,510.084a11.3,11.3,0,0,1,1.951-1.343.1.1,0,0,1,.1.181,11.1,11.1,0,0,0-1.915,1.318A.1.1,0,0,1,274.577,510.084Z" transform="translate(-274.54 -508.727)" fill="#ceddf4"/>
      </g>
    </g>
  </g>
</svg>
