<svg xmlns="http://www.w3.org/2000/svg" width="32" height="52" viewBox="0 0 32 52">
  <g id="Group_14618" data-name="Group 14618" transform="translate(-740.868 -477.334)">
    <g id="Group_14616" data-name="Group 14616" transform="translate(740.868 477.334)">
      <rect id="Rectangle_2103" data-name="Rectangle 2103" width="28.08" height="3.425" transform="translate(1.723 14.261)" fill="#d67205"/>
      <path id="Path_32911" data-name="Path 32911" d="M756.868,477.334a15.96,15.96,0,1,0,16,15.96A15.98,15.98,0,0,0,756.868,477.334Zm0,29.336a13.376,13.376,0,1,1,13.409-13.376A13.407,13.407,0,0,1,756.868,506.67Z" transform="translate(-740.868 -477.334)" fill="#ff8500"/>
      <path id="Path_32912" data-name="Path 32912" d="M760.6,482.026a15,15,0,1,0,15.036,15A15.033,15.033,0,0,0,760.6,482.026Zm0,29.377a14.381,14.381,0,1,1,14.419-14.38A14.416,14.416,0,0,1,760.6,511.4Z" transform="translate(-744.596 -481.062)" fill="#ffaf57"/>
      <path id="Path_32913" data-name="Path 32913" d="M792.719,529.334l-9.775-5.131-9.775,5.131v-52h19.551Z" transform="translate(-766.534 -477.334)" fill="#7c4dff"/>
      <g id="Group_14610" data-name="Group 14610" transform="translate(6.676 0)">
        <path id="Path_32914" data-name="Path 32914" d="M774.676,477.334h-1.508v52l1.508-.795Z" transform="translate(-773.168 -477.334)" fill="#bda6ff"/>
        <path id="Path_32915" data-name="Path 32915" d="M861.051,477.334v51.251l1.422.749v-52Z" transform="translate(-843.001 -477.334)" fill="#bda6ff"/>
        <path id="Path_32916" data-name="Path 32916" d="M804.714,477.334h-11.2V527.1l5.557-2.927,5.643,2.973Z" transform="translate(-789.335 -477.334)" fill="#bda6ff"/>
      </g>
      <path id="Path_32917" data-name="Path 32917" d="M773.168,513.022a13.388,13.388,0,0,0,19.551-.879V494.911a13.388,13.388,0,0,0-19.551-.879Z" transform="translate(-766.534 -487.566)" fill="#7c4dff" opacity="0.68" style="mix-blend-mode: multiply;isolation: isolate"/>
      <path id="Path_32918" data-name="Path 32918" d="M771.868,520.378a12.083,12.083,0,1,1,12.123-12.083A12.117,12.117,0,0,1,771.868,520.378Z" transform="translate(-755.868 -492.334)" fill="#ed8a29"/>
      <path id="Path_32919" data-name="Path 32919" d="M779.368,525.939a10.145,10.145,0,1,1,10.185-10.145A10.176,10.176,0,0,1,779.368,525.939Z" transform="translate(-763.368 -499.834)" fill="#ff952c"/>
      <g id="Group_14611" data-name="Group 14611" transform="translate(5.855 5.815)" opacity="0.31" style="mix-blend-mode: multiply;isolation: isolate">
        <path id="Path_32920" data-name="Path 32920" d="M779.274,559.253,769.3,547.574a10.213,10.213,0,0,0-.115,1.447l8.644,10.122A10.162,10.162,0,0,0,779.274,559.253Z" transform="translate(-769.185 -538.963)" fill="#dd722a"/>
        <path id="Path_32921" data-name="Path 32921" d="M815.447,520.375l-11.613-13.6a10.128,10.128,0,0,0-1.092.3L814.976,521.4A10.059,10.059,0,0,0,815.447,520.375Z" transform="translate(-795.85 -506.545)" fill="#dd722a"/>
        <path id="Path_32922" data-name="Path 32922" d="M828.046,516.723l-9.439-11.052q-.329-.021-.664-.022h-.164l10.158,11.894Q828.008,517.138,828.046,516.723Z" transform="translate(-807.799 -505.649)" fill="#dd722a"/>
        <path id="Path_32923" data-name="Path 32923" d="M794.467,535.151l-13.141-15.387a10.279,10.279,0,0,0-.7.76l12.983,15.2A10.192,10.192,0,0,0,794.467,535.151Z" transform="translate(-778.275 -516.865)" fill="#dd722a"/>
        <path id="Path_32924" data-name="Path 32924" d="M786.505,543.049l-12.621-14.778a10.118,10.118,0,0,0-.827,1.561l11.776,13.789A10.093,10.093,0,0,0,786.505,543.049Z" transform="translate(-772.262 -523.625)" fill="#dd722a"/>
        <path id="Path_32925" data-name="Path 32925" d="M803.172,526.27l-12.836-15.03a10.162,10.162,0,0,0-1.4.887l13.145,15.391A10.214,10.214,0,0,0,803.172,526.27Z" transform="translate(-784.877 -510.092)" fill="#dd722a"/>
      </g>
      <path id="Path_32926" data-name="Path 32926" d="M770,515.795a10.157,10.157,0,0,1,9.736-10.137,10.145,10.145,0,1,0,0,20.273A10.157,10.157,0,0,1,770,515.795Z" transform="translate(-763.347 -499.834)" fill="#dd722a"/>
      <g id="Group_14612" data-name="Group 14612" transform="translate(4.694 10.212)">
        <path id="Path_32927" data-name="Path 32927" d="M766.282,540.668a11.223,11.223,0,0,1-1.147-12.585.205.205,0,0,1,.359.2,10.812,10.812,0,0,0,1.105,12.123A.205.205,0,0,1,766.282,540.668Z" transform="translate(-763.722 -527.977)" fill="#ffaf57"/>
      </g>
      <g id="Group_14613" data-name="Group 14613" transform="translate(9.7 24.599)">
        <path id="Path_32928" data-name="Path 32928" d="M788.015,599.235a.205.205,0,0,1,.225-.343,10.811,10.811,0,0,0,10,.971.205.205,0,0,1,.155.38A11.221,11.221,0,0,1,788.015,599.235Z" transform="translate(-787.92 -598.855)" fill="#ffaf57"/>
      </g>
      <g id="Group_14614" data-name="Group 14614" transform="translate(22.684 12.246)">
        <path id="Path_32929" data-name="Path 32929" d="M851.074,549.94a10.8,10.8,0,0,0,3.52-11.623.205.205,0,0,1,.392-.122,11.207,11.207,0,0,1-3.654,12.065A.205.205,0,0,1,851.074,549.94Z" transform="translate(-850.995 -538.05)" fill="#ffaf57"/>
      </g>
      <g id="Group_14615" data-name="Group 14615" transform="translate(7.709 4.749)">
        <path id="Path_32930" data-name="Path 32930" d="M795.054,505.15a10.8,10.8,0,0,0-16.495-.872.205.205,0,0,1-.3-.281,11.212,11.212,0,0,1,17.121.9A.205.205,0,0,1,795.054,505.15Z" transform="translate(-778.201 -500.454)" fill="#ffaf57"/>
      </g>
    </g>
    <path id="Path_32931" data-name="Path 32931" d="M799.757,536.933l-.323-.089.227-3.312a6.045,6.045,0,0,0,2.974.848c.818,0,1.853-.241,1.869-1.048.022-1.14-1.665-.837-3.173-.9v-2.8h1.656c2.484,0,1.81-2.91-2.482-1.265l-.522.2-.185-2.989a12.6,12.6,0,0,1,2-.48c6.808-1.019,7.311,4.292,4.847,5.81a2.862,2.862,0,0,1,1.533,2.648C808.18,537.228,803.279,537.906,799.757,536.933Z" transform="translate(-46.496 -38.031)" fill="#dd542f"/>
    <path id="Path_32932" data-name="Path 32932" d="M807.261,532.493a2.6,2.6,0,0,1,2.183,2.626c0,3.371-4.716,3.859-7.9,2.978l.161-2.355c1.239.635,3.24.878,4.27.212a1.221,1.221,0,0,0,.146-2.024c-.676-.475-1.721-.282-2.7-.327v-2h1.245c2.447,0,2.5-2.563-.062-2.563a7.191,7.191,0,0,0-2.568.5l-.131-2.108a11.233,11.233,0,0,1,1.634-.371c6.071-.909,6.3,3.136,5.2,4.5A2.918,2.918,0,0,1,807.261,532.493Z" transform="translate(-48.171 -39.595)" fill="#f95e19"/>
    <g id="Group_14617" data-name="Group 14617" transform="translate(754.066 487.759)">
      <path id="Path_32933" data-name="Path 32933" d="M811.429,529.266c1.911-.421,4.084-.621,4.654,1.263a2.143,2.143,0,0,1-1.368,2.589,2.066,2.066,0,0,0,.659-3.364C814.468,528.867,812.623,529.159,811.429,529.266Z" transform="translate(-810.094 -528.984)" fill="#f78e39"/>
      <path id="Path_32934" data-name="Path 32934" d="M810.372,562.854c.854,1.892-.354,4.614-5.443,3.183,2.018.289,4.536.617,5.382-1.24A2.747,2.747,0,0,0,810.372,562.854Z" transform="translate(-804.929 -555.898)" fill="#f78e39"/>
    </g>
  </g>
</svg>
