<svg width="24" height="26" viewBox="0 0 24 26" fill="none" xmlns="http://www.w3.org/2000/svg">
<path d="M23.9998 14.8571C24.0017 13.9273 23.7722 13.0118 23.3323 12.194C22.8923 11.3763 22.2559 10.6823 21.4811 10.1754C20.7062 9.66841 19.8175 9.3646 18.8961 9.29162C17.9746 9.21865 17.0496 9.37883 16.2054 9.75757C15.3613 10.1363 14.6248 10.7216 14.063 11.46C13.5013 12.1984 13.1322 13.0665 12.9894 13.9852C12.8466 14.9038 12.9347 15.8438 13.2455 16.7195C13.5564 17.5952 14.0801 18.3787 14.7691 18.9986V26L18.4614 24.2422L22.1537 26V18.9986C22.734 18.478 23.1985 17.8399 23.5166 17.1263C23.8348 16.4126 23.9994 15.6393 23.9998 14.8571ZM20.3075 23.0657L18.4614 22.1863L16.6152 23.0657V20.1036C17.8083 20.537 19.1145 20.537 20.3075 20.1036V23.0657ZM18.4614 18.5714C17.7311 18.5714 17.0172 18.3536 16.41 17.9454C15.8029 17.5373 15.3296 16.9572 15.0501 16.2785C14.7707 15.5998 14.6976 14.853 14.84 14.1325C14.9825 13.412 15.3342 12.7502 15.8505 12.2307C16.3669 11.7113 17.0248 11.3575 17.741 11.2142C18.4573 11.0709 19.1997 11.1444 19.8744 11.4256C20.549 11.7067 21.1257 12.1828 21.5314 12.7936C21.9371 13.4044 22.1537 14.1225 22.1537 14.8571C22.1525 15.8418 21.7631 16.7859 21.0709 17.4822C20.3787 18.1785 19.4403 18.5702 18.4614 18.5714ZM4.61523 11.1428H11.0768V13H4.61523V11.1428ZM4.61523 5.57141H13.846V7.42855H4.61523V5.57141Z" fill="#212121"/>
<path d="M1.84615 26C1.35667 25.9995 0.887381 25.8037 0.541266 25.4555C0.195151 25.1073 0.000488747 24.6353 0 24.1429V1.85714C0.000488747 1.36475 0.195151 0.892663 0.541266 0.544488C0.887381 0.196312 1.35667 0.000491657 1.84615 0H16.6154C17.1049 0.000491657 17.5742 0.196312 17.9203 0.544488C18.2664 0.892663 18.461 1.36475 18.4615 1.85714V5.57143H16.6154V1.85714H1.84615V24.1429H11.0769V26H1.84615Z" fill="#212121"/>
</svg>
