<svg width="61" height="63" viewBox="0 0 61 63" fill="none" xmlns="http://www.w3.org/2000/svg">
<path d="M31.8218 1.04797H28.7998V9.01997H31.8218V1.04797Z" fill="#BDBDBD"/>
<path d="M33.1946 3.09195H27.4256C27.3447 3.09261 27.2644 3.07724 27.1895 3.04673C27.1145 3.01622 27.0464 2.97117 26.9889 2.91418C26.9315 2.85719 26.8859 2.7894 26.8548 2.7147C26.8236 2.64 26.8076 2.55987 26.8076 2.47895V1.11595C26.8076 1.03503 26.8236 0.954901 26.8548 0.880201C26.8859 0.8055 26.9315 0.737703 26.9889 0.680715C27.0464 0.623727 27.1145 0.57868 27.1895 0.54817C27.2644 0.517659 27.3447 0.50229 27.4256 0.50295H33.1946C33.2755 0.50229 33.3558 0.517659 33.4307 0.54817C33.5057 0.57868 33.5739 0.623727 33.6313 0.680715C33.6888 0.737703 33.7344 0.8055 33.7655 0.880201C33.7966 0.954901 33.8126 1.03503 33.8126 1.11595V2.47895C33.8126 2.55987 33.7966 2.64 33.7655 2.7147C33.7344 2.7894 33.6888 2.85719 33.6313 2.91418C33.5739 2.97117 33.5057 3.01622 33.4307 3.04673C33.3558 3.07724 33.2755 3.09261 33.1946 3.09195Z" fill="#BDBDBD"/>
<g filter="url(#filter0_d_420_1628)">
<path d="M30.31 53.2409C43.736 53.2409 54.62 42.4425 54.62 29.1219C54.62 15.8014 43.736 5.00293 30.31 5.00293C16.884 5.00293 6 15.8014 6 29.1219C6 42.4425 16.884 53.2409 30.31 53.2409Z" fill="#BDBDBD"/>
</g>
<path d="M30.31 49.559C41.6882 49.559 50.912 40.4077 50.912 29.119C50.912 17.8303 41.6882 8.67896 30.31 8.67896C18.9318 8.67896 9.70801 17.8303 9.70801 29.119C9.70801 40.4077 18.9318 49.559 30.31 49.559Z" fill="white"/>
<path d="M40.5416 39.5379C41.9501 38.1918 43.072 36.5749 43.8398 34.7842C44.6076 32.9936 45.0055 31.0662 45.0096 29.1179C44.9897 25.2364 43.4308 21.5212 40.6749 18.7878C37.9189 16.0544 34.1911 14.5259 30.3096 14.5379V29.3909L40.5416 39.5379Z" fill="#8A1538" fill-opacity="0.46"/>
<path d="M30.311 10.7909L31.272 9.15588H29.418L30.311 10.7909Z" fill="#8A1538"/>
<path d="M21.1083 13.1759V11.3359L19.5293 12.2899L21.1083 13.1759Z" fill="#8A1538"/>
<path d="M14.3774 19.8529L13.4164 18.2859L12.5234 19.8529H14.3774Z" fill="#8A1538"/>
<path d="M11.8368 28.9829L10.2578 28.0289V29.8689L11.8368 28.9829Z" fill="#8A1538"/>
<path d="M14.3101 38.1129H12.4561L13.3491 39.6799L14.3101 38.1129Z" fill="#8A1538"/>
<path d="M20.9706 44.7899L19.3916 45.7439L20.9706 46.6299V44.7899Z" fill="#8A1538"/>
<path d="M30.1743 47.3099L29.2812 48.8769H31.1353L30.1743 47.3099Z" fill="#8A1538"/>
<path d="M39.376 44.8579V46.6979L41.024 45.8119L39.376 44.8579Z" fill="#8A1538"/>
<path d="M46.1738 38.2489L47.0668 39.8159L48.0278 38.2489H46.1738Z" fill="#8A1538"/>
<path d="M48.6455 29.1189L50.2245 30.0049V28.1649L48.6455 29.1189Z" fill="#8A1538"/>
<path d="M46.2432 19.9889H48.0972L47.1362 18.3539L46.2432 19.9889Z" fill="#8A1538"/>
<path d="M39.5127 13.2439L41.0917 12.3579L39.5127 11.4039V13.2439Z" fill="#8A1538"/>
<path d="M30.3104 29.3909C30.1748 29.3941 30.04 29.3698 29.914 29.3195C29.788 29.2692 29.6735 29.194 29.5773 29.0984C29.4811 29.0027 29.4052 28.8886 29.3542 28.763C29.3032 28.6373 29.2781 28.5026 29.2804 28.367V13.787C29.2804 13.5138 29.3889 13.2518 29.5821 13.0586C29.7753 12.8655 30.0372 12.757 30.3104 12.757C30.5836 12.757 30.8456 12.8655 31.0387 13.0586C31.2319 13.2518 31.3404 13.5138 31.3404 13.787V28.367C31.3427 28.5026 31.3177 28.6373 31.2666 28.763C31.2156 28.8886 31.1397 29.0027 31.0435 29.0984C30.9474 29.194 30.8328 29.2692 30.7068 29.3195C30.5809 29.3698 30.446 29.3941 30.3104 29.3909Z" fill="#8A1538"/>
<path d="M29.7606 28.6419C29.8539 28.5448 29.9659 28.4676 30.0897 28.4148C30.2136 28.362 30.3469 28.3348 30.4816 28.3348C30.6162 28.3348 30.7495 28.362 30.8734 28.4148C30.9973 28.4676 31.1093 28.5448 31.2026 28.6419L41.5726 38.9299C41.6701 39.0218 41.7479 39.1327 41.801 39.2557C41.8541 39.3788 41.8815 39.5114 41.8815 39.6454C41.8815 39.7794 41.8541 39.912 41.801 40.0351C41.7479 40.1581 41.6701 40.269 41.5726 40.3609C41.4793 40.458 41.3673 40.5352 41.2434 40.588C41.1195 40.6408 40.9862 40.668 40.8516 40.668C40.7169 40.668 40.5836 40.6408 40.4597 40.588C40.3359 40.5352 40.2239 40.458 40.1306 40.3609L29.7606 30.0729C29.6629 29.9811 29.585 29.8702 29.5318 29.7472C29.4786 29.6241 29.4512 29.4915 29.4512 29.3574C29.4512 29.2233 29.4786 29.0907 29.5318 28.9676C29.585 28.8446 29.6629 28.7337 29.7606 28.6419Z" fill="#8A1538"/>
<path d="M30.3101 30.9589C31.334 30.9589 32.1641 30.1351 32.1641 29.1189C32.1641 28.1027 31.334 27.2789 30.3101 27.2789C29.2861 27.2789 28.4561 28.1027 28.4561 29.1189C28.4561 30.1351 29.2861 30.9589 30.3101 30.9589Z" fill="#8A1538"/>
<defs>
<filter id="filter0_d_420_1628" x="0" y="2.00293" width="60.6201" height="60.238" filterUnits="userSpaceOnUse" color-interpolation-filters="sRGB">
<feFlood flood-opacity="0" result="BackgroundImageFix"/>
<feColorMatrix in="SourceAlpha" type="matrix" values="0 0 0 0 0 0 0 0 0 0 0 0 0 0 0 0 0 0 127 0" result="hardAlpha"/>
<feOffset dy="3"/>
<feGaussianBlur stdDeviation="3"/>
<feColorMatrix type="matrix" values="0 0 0 0 0 0 0 0 0 0 0 0 0 0 0 0 0 0 0.161 0"/>
<feBlend mode="normal" in2="BackgroundImageFix" result="effect1_dropShadow_420_1628"/>
<feBlend mode="normal" in="SourceGraphic" in2="effect1_dropShadow_420_1628" result="shape"/>
</filter>
</defs>
</svg>
