<svg id="sports_esports_black_24dp" xmlns="http://www.w3.org/2000/svg" width="24" height="24" viewBox="0 0 24 24">
  <g id="Group_18115" data-name="Group 18115">
    <rect id="Rectangle_3892" data-name="Rectangle 3892" width="24" height="24" fill="none"/>
  </g>
  <g id="Group_18117" data-name="Group 18117">
    <g id="Group_18116" data-name="Group 18116">
      <path id="Path_36750" data-name="Path 36750" d="M21.58,16.09,20.49,8.43A4,4,0,0,0,16.53,5H7.47A4,4,0,0,0,3.51,8.43L2.42,16.09A2.545,2.545,0,0,0,4.94,19h0a2.535,2.535,0,0,0,1.8-.75L9,16h6l2.25,2.25a2.552,2.552,0,0,0,1.8.75h0A2.547,2.547,0,0,0,21.58,16.09Zm-2.1.72a.54.54,0,0,1-.42.19.552.552,0,0,1-.39-.16L15.83,14H8.17L5.33,16.84a.552.552,0,0,1-.39.16.54.54,0,0,1-.42-.19.521.521,0,0,1-.13-.44L5.48,8.71A2.029,2.029,0,0,1,7.47,7h9.06a2.011,2.011,0,0,1,1.98,1.72l1.09,7.66A.543.543,0,0,1,19.48,16.81Z" fill="#fff"/>
      <path id="Path_36751" data-name="Path 36751" d="M9,8H8v2H6v1H8v2H9V11h2V10H9Z" fill="#fff"/>
      <circle id="Ellipse_1330" data-name="Ellipse 1330" cx="1" cy="1" r="1" transform="translate(16 11)" fill="#fff"/>
      <circle id="Ellipse_1331" data-name="Ellipse 1331" cx="1" cy="1" r="1" transform="translate(14 8)" fill="#fff"/>
    </g>
  </g>
</svg>
