<svg xmlns="http://www.w3.org/2000/svg" xmlns:xlink="http://www.w3.org/1999/xlink" width="2105.316" height="887.248" viewBox="0 0 2105.316 887.248">
  <defs>
    <linearGradient id="linear-gradient" x1="0.5" x2="0.5" y2="1" gradientUnits="objectBoundingBox">
      <stop offset="0" stop-color="#326ca7"/>
      <stop offset="1" stop-color="#180c46"/>
    </linearGradient>
    <linearGradient id="linear-gradient-2" x1="-0.001" y1="0.83" x2="1.001" y2="0.221" gradientUnits="objectBoundingBox">
      <stop offset="0" stop-color="#00d3ff"/>
      <stop offset="1" stop-color="#5c45cf"/>
    </linearGradient>
    <linearGradient id="linear-gradient-3" x1="-0.001" y1="0.83" x2="1.001" y2="0.221" gradientUnits="objectBoundingBox">
      <stop offset="0" stop-color="#e93b70"/>
      <stop offset="1" stop-color="#5c45cf"/>
    </linearGradient>
    <linearGradient id="linear-gradient-4" x1="-0.001" y1="0.83" x2="1.001" y2="0.221" gradientUnits="objectBoundingBox">
      <stop offset="0" stop-color="#e93b70"/>
      <stop offset="1" stop-color="#4a37a6"/>
    </linearGradient>
    <filter id="Path_88" x="546.785" y="337.146" width="19" height="19" filterUnits="userSpaceOnUse">
      <feOffset input="SourceAlpha"/>
      <feGaussianBlur stdDeviation="1.5" result="blur"/>
      <feFlood flood-color="#ff81b9"/>
      <feComposite operator="in" in2="blur"/>
      <feComposite in="SourceGraphic"/>
    </filter>
    <filter id="Path_92" x="1882.785" y="686.146" width="19" height="19" filterUnits="userSpaceOnUse">
      <feOffset input="SourceAlpha"/>
      <feGaussianBlur stdDeviation="1.5" result="blur-2"/>
      <feFlood flood-color="#ff81b9"/>
      <feComposite operator="in" in2="blur-2"/>
      <feComposite in="SourceGraphic"/>
    </filter>
    <filter id="Path_89" x="956.785" y="41.146" width="19" height="19" filterUnits="userSpaceOnUse">
      <feOffset input="SourceAlpha"/>
      <feGaussianBlur stdDeviation="1.5" result="blur-3"/>
      <feFlood flood-color="#a1fffa"/>
      <feComposite operator="in" in2="blur-3"/>
      <feComposite in="SourceGraphic"/>
    </filter>
    <filter id="Path_90" x="1051.785" y="354.146" width="19" height="19" filterUnits="userSpaceOnUse">
      <feOffset input="SourceAlpha"/>
      <feGaussianBlur stdDeviation="1.5" result="blur-4"/>
      <feFlood flood-color="#a1fffa"/>
      <feComposite operator="in" in2="blur-4"/>
      <feComposite in="SourceGraphic"/>
    </filter>
    <filter id="Path_91" x="1608.783" y="25.146" width="19" height="19" filterUnits="userSpaceOnUse">
      <feOffset input="SourceAlpha"/>
      <feGaussianBlur stdDeviation="1.5" result="blur-5"/>
      <feFlood flood-color="#ff81b9"/>
      <feComposite operator="in" in2="blur-5"/>
      <feComposite in="SourceGraphic"/>
    </filter>
  </defs>
  <g id="Group_18349" data-name="Group 18349" transform="translate(76.033 -213.354)">
    <path id="Path_85" data-name="Path 85" d="M487.287,20.838c-90.317-78.787-140.28,84.553-217.146,92.239S66.446,24.681,8.8,141.9s94.814,122.393,160.15,210.862,105.037,144.642,181.9,140.8,115.3-74.944,115.3-186.4S577.6,99.625,487.287,20.838Z" transform="translate(1506.688 214.25)" fill="#090743" opacity="0.51"/>
    <g id="Group_54" data-name="Group 54" transform="translate(-76.033 300.633)">
      <g id="Group_2" data-name="Group 2" transform="translate(73.171 0)">
        <path id="Path_32" data-name="Path 32" d="M1393.677,431.83c-66.636-38.733-152.262-34.721-200.606-85.953-67.833-71.884-111.657-185.518-193.994-218.788C858.089,70.119,665.766,240.653,556.24,172.7c-63.2-39.212-102.106-138.1-102.106-138.1V819.668H1534.251s80.731,8.3-75.434-116.983S1553.861,524.939,1393.677,431.83Z" transform="translate(-454.134 -34.6)" opacity="0.2"/>
      </g>
      <path id="Path_78" data-name="Path 78" d="M601.041-144.379C511.1-137.653,544.757,42.463,479.513,37.763s-73.789-140.185-144.85-136.8S267.248,44.152,195.271,51.308,135.956,7.931,87.246,32.948.428,151.375.428,151.375H685.382S690.981-151.106,601.041-144.379Z" transform="translate(164.82 494.081)" opacity="0.48" fill="url(#linear-gradient)"/>
      <g id="Group_4" data-name="Group 4" transform="translate(147.135 112.663)">
        <rect id="Rectangle_15" data-name="Rectangle 15" width="136.265" height="183.541" rx="8" transform="translate(54.371 48.963)" fill="#00d3ff"/>
        <rect id="Rectangle_90" data-name="Rectangle 90" width="136.265" height="183.541" rx="8" transform="translate(41.929 34.965)" fill="#fff"/>
        <rect id="Rectangle_17" data-name="Rectangle 17" width="45.885" height="38.933" transform="translate(121.963 51.089)" fill="#0f0b56" opacity="0.14"/>
        <rect id="Rectangle_18" data-name="Rectangle 18" width="62.988" height="25.028" transform="translate(52.44 51.089)" fill="#0f0b56" opacity="0.14"/>
        <rect id="Rectangle_19" data-name="Rectangle 19" width="62.988" height="8.343" transform="translate(52.44 81.679)" fill="#0f0b56" opacity="0.14"/>
        <rect id="Rectangle_20" data-name="Rectangle 20" width="115.408" height="12.514" transform="translate(52.44 104.467)" fill="#0f0b56" opacity="0.14"/>
        <rect id="Rectangle_21" data-name="Rectangle 21" width="115.408" height="12.514" transform="translate(52.44 131.474)" fill="#0f0b56" opacity="0.14"/>
        <rect id="Rectangle_22" data-name="Rectangle 22" width="115.408" height="12.514" transform="translate(52.44 158.48)" fill="#0f0b56" opacity="0.14"/>
        <rect id="Rectangle_23" data-name="Rectangle 23" width="115.408" height="12.514" transform="translate(52.44 185.486)" fill="#0f0b56" opacity="0.14"/>
        <path id="Path_26" data-name="Path 26" d="M40.185,0H2.977A2.977,2.977,0,0,0,0,2.977v50.6a2.977,2.977,0,0,0,2.977,2.977l18.158-8.632,19.051,8.632a2.977,2.977,0,0,0,2.977-2.977V2.977A2.977,2.977,0,0,0,40.185,0Z" transform="translate(23.119 57.869)" fill="#1ba84a"/>
        <g id="if_Approved_2192712" transform="translate(0)">
          <path id="Path_23" data-name="Path 23" d="M11.157,50.1l3.52-6.1a5.347,5.347,0,0,0,.717-2.675V34.28a5.35,5.35,0,0,1,2.675-4.633l6.1-3.52a5.353,5.353,0,0,0,1.958-1.958l3.52-6.1A5.35,5.35,0,0,1,34.279,15.4h7.042A5.347,5.347,0,0,0,44,14.678l6.1-3.521a5.351,5.351,0,0,1,5.35,0l6.1,3.52a5.347,5.347,0,0,0,2.675.717H71.26a5.35,5.35,0,0,1,4.633,2.675l3.52,6.1a5.353,5.353,0,0,0,1.958,1.958l6.1,3.52a5.35,5.35,0,0,1,2.675,4.633v7.042A5.347,5.347,0,0,0,90.862,44l3.521,6.1a5.351,5.351,0,0,1,0,5.35l-3.52,6.1a5.347,5.347,0,0,0-.717,2.675V71.26a5.35,5.35,0,0,1-2.675,4.633l-6.1,3.52a5.353,5.353,0,0,0-1.958,1.958l-3.52,6.1a5.35,5.35,0,0,1-4.633,2.675H64.219a5.347,5.347,0,0,0-2.675.717l-6.1,3.52a5.351,5.351,0,0,1-5.35,0L44,90.862a5.347,5.347,0,0,0-2.675-.717H34.281a5.35,5.35,0,0,1-4.633-2.675l-3.52-6.1a5.353,5.353,0,0,0-1.958-1.958l-6.1-3.52A5.35,5.35,0,0,1,15.4,71.26V64.218a5.347,5.347,0,0,0-.717-2.675l-3.52-6.1A5.346,5.346,0,0,1,11.157,50.1ZM52.77,84.871a32.1,32.1,0,1,0-32.1-32.1A32.1,32.1,0,0,0,52.77,84.871Z" transform="translate(-10.44 -10.44)" fill="#50d97e"/>
          <path id="Path_24" data-name="Path 24" d="M56.357,24A32.357,32.357,0,1,1,24,56.357,32.394,32.394,0,0,1,56.357,24ZM58.59,72.583Z" transform="translate(-14.027 -14.027)" fill="#50d97e"/>
          <path id="Path_25" data-name="Path 25" d="M52.218,24A28.218,28.218,0,1,1,24,52.218,28.251,28.251,0,0,1,52.218,24Z" transform="translate(-9.889 -9.888)" fill="none" stroke="#fff" stroke-width="2"/>
        </g>
        <g id="Group_5" data-name="Group 5" transform="translate(3.77 203)" opacity="0.49">
          <path id="Path_27" data-name="Path 27" d="M0,8.244,4.37,6.62,8.795,8.464,6.223,5.172,9.133.572,4.417,2.556.331,0,2.546,4.286Z" transform="matrix(-0.616, 0.788, -0.788, -0.616, 25.612, 26.255)" fill="#3474d0"/>
          <path id="Path_29" data-name="Path 29" d="M0,4.8l2.543-.945L5.118,4.925,3.621,3.01,5.314.333,2.57,1.487.193,0,1.482,2.494Z" transform="matrix(-0.616, 0.788, -0.788, -0.616, 21.652, 3.032)" fill="#3474d0"/>
          <path id="Path_28" data-name="Path 28" d="M0,13.055l6.92-2.572,7.007,2.92L9.854,8.19,14.461.906,6.994,4.047.524,0,4.032,6.787Z" transform="matrix(-0.616, 0.788, -0.788, -0.616, 19.465, 13.162)" fill="#3474d0"/>
        </g>
        <g id="Group_6" data-name="Group 6" transform="translate(197.324 4.737)" opacity="0.56">
          <path id="Path_30" data-name="Path 30" d="M0,24.308l12.885-4.789,13.046,5.436-7.582-9.7L26.927,1.687l-13.9,5.849L.976,0,7.507,12.636Z" transform="matrix(-0.616, 0.788, -0.788, -0.616, 37.69, 15.364)" fill="#1658b7"/>
          <path id="Path_31" data-name="Path 31" d="M0,7.716,4.09,6.2,8.231,7.922,5.825,4.841,8.548.535,4.134,2.392.31,0,2.383,4.011Z" transform="matrix(-0.017, 1, -1, -0.017, 8.07, 37.388)" fill="#1658b7"/>
        </g>
      </g>
      <g id="Group_8" data-name="Group 8" transform="translate(0 202.496)" opacity="0.17">
        <rect id="Rectangle_5" data-name="Rectangle 5" width="34.332" height="18.375" rx="5" transform="translate(81.236 0)" fill="#c7dcfb"/>
        <rect id="Rectangle_6" data-name="Rectangle 6" width="34.332" height="18.375" rx="5" transform="translate(81.236 25.144)" fill="#c7dcfb"/>
        <rect id="Rectangle_9" data-name="Rectangle 9" width="34.332" height="18.375" rx="5" transform="translate(81.236 50.289)" fill="#c7dcfb"/>
        <rect id="Rectangle_7" data-name="Rectangle 7" width="34.332" height="18.375" rx="5" transform="translate(40.618 25.144)" fill="#c7dcfb"/>
        <rect id="Rectangle_8" data-name="Rectangle 8" width="34.332" height="18.375" rx="5" transform="translate(40.618 50.289)" fill="#c7dcfb"/>
        <rect id="Rectangle_10" data-name="Rectangle 10" width="34.332" height="18.375" rx="5" transform="translate(0 50.289)" fill="#c7dcfb"/>
        <rect id="Rectangle_11" data-name="Rectangle 11" width="34.332" height="18.375" rx="5" transform="translate(40.618 75.433)" fill="#c7dcfb"/>
      </g>
      <g id="Group_43" data-name="Group 43" transform="translate(70.658 537.568)">
        <path id="Path_75" data-name="Path 75" d="M66.563,22.254C36.412,17.178-4.411,31.8-4.411,31.8V160.9H180.572s19.175-29.2,0-47.894-45.855-6.421-61.95-22.732-1.388-27.852-2.429-42.515S96.714,27.329,66.563,22.254Z" transform="translate(4.602 89.11)" fill="#000229"/>
        <path id="Path_73" data-name="Path 73" d="M57.221,50.593c4.3-20.624-5.8-36.558-20.194-41.821s-35.949,4.44-35.949,4.44l.716,243.623H50.919s10.025-16.614,3.294-25.923-40.246-.573-37.954-16.328,59.295-47.694,57.719-77.341S25.139,119.627,22.7,110.174,52.924,71.218,57.221,50.593Z" transform="translate(-1.078 -7.208)" fill="#22e9de"/>
        <g id="Group_49" data-name="Group 49" transform="translate(72.933 147.714)">
          <path id="Path_74" data-name="Path 74" d="M90.841,3.8c-13.954.3-18.894,25.655-27.388,27.215S52.359,20.791,40.225,28.071,34.158,75.22,31.558,78.687s-8.58-6.284-15.081,0S-.684,101.048,5.556,103.822s68.124,2.947,76.791,0-3.64-13.694,0-18.721,32.025-30.465,35.188-51.136S104.795,3.5,90.841,3.8Z" transform="translate(-3.665 -3.796)" fill="#234d89"/>
          <path id="Path_76" data-name="Path 76" d="M46.263,0A97.224,97.224,0,0,0,17.6,28.774C6.037,47.251,0,73.908,0,73.908" transform="translate(40.849 36.422)" fill="none" stroke="#fff" stroke-width="1" opacity="0.26"/>
          <path id="Path_77" data-name="Path 77" d="M-3.1-4.3S2.6,1.1,2.6,13.98-3.1,47.21-3.1,47.21" transform="translate(43.949 63.12)" fill="none" stroke="#fff" stroke-width="1" opacity="0.26"/>
        </g>
      </g>
      <g id="Group_50" data-name="Group 50" transform="translate(802.961 500.167)">
        <g id="Group_2-2" data-name="Group 2" transform="translate(0 0)">
          <path id="Path_10" data-name="Path 10" d="M91.847,278.748s13.257-3.328,17.87-19.13-4.609-22.413.583-44.077c2.622-10.94,19.685-16.212,26.087-34.917,5.624-16.435-25.411-16.18-25.061-42.7s19.91-19.476,26.293-50.519,12.719-55.736-.758-73.655S30.862.568,30.862.568,11.6.33.212,77.7C-3.009,99.6,31.506,83.149,29.371,113.3c-1.495,21.105-9.022,21.065-14.642,47.52C9.223,186.732,31.237,192.8,42.68,212.032,49.568,223.615,50.5,248.7,62.8,265.38S91.847,278.748,91.847,278.748Z" transform="matrix(-0.996, 0.087, -0.087, -0.996, 168.596, 277.953)" fill="#234d89"/>
        </g>
        <g id="Group_37" data-name="Group 37" transform="translate(50.781 102.429)" opacity="0.1">
          <path id="Path_45" data-name="Path 45" d="M-.889,0S19.7,4.117,26.557,47s0,124.537,0,124.537" transform="translate(14.612)" fill="rgba(0,0,0,0)" stroke="#fff" stroke-width="1"/>
          <path id="Path_46" data-name="Path 46" d="M41.169,20.585s-10.292-9.949-20.585-15.1A55.528,55.528,0,0,0,0,0" transform="translate(0 34.308)" fill="rgba(0,0,0,0)" stroke="#fff" stroke-width="1"/>
          <path id="Path_47" data-name="Path 47" d="M41.169,20.585s-10.292-9.949-20.585-15.1A55.528,55.528,0,0,0,0,0" transform="translate(0 126.938)" fill="rgba(0,0,0,0)" stroke="#fff" stroke-width="1"/>
          <path id="Path_48" data-name="Path 48" d="M0,0C10.292,5.146,26.69,7.315,26.69,7.315" transform="translate(72.103 93.632) rotate(161)" fill="rgba(0,0,0,0)" stroke="#fff" stroke-width="1"/>
        </g>
      </g>
      <g id="Group_51" data-name="Group 51" transform="translate(666.867 607.514)">
        <path id="Path_78-2" data-name="Path 78" d="M13.1,0S1.212,21.87.091,61.684s8.524,97.573,8.524,97.573" transform="translate(81.581 32.951)" fill="none" stroke="#22e9de" stroke-width="3"/>
        <path id="Path_79" data-name="Path 79" d="M26.41,22.431c12.425,0,22.5-5.021,22.5-11.215S38.835,0,26.41,0,.416,11.018.008,13.343,13.985,22.431,26.41,22.431Z" transform="matrix(-0.809, -0.588, 0.588, -0.809, 71.148, 92.825)" fill="#22e9de"/>
        <path id="Path_80" data-name="Path 80" d="M46.585,41.928c21.916,0,39.683-9.386,39.683-20.964S68.5,0,46.585,0,.735,20.595.015,24.941,24.668,41.928,46.585,41.928Z" transform="matrix(-0.809, -0.588, 0.588, -0.809, 69.792, 176.294)" fill="#22e9de"/>
        <path id="Path_81" data-name="Path 81" d="M29.145,29.171c13.711,0,24.827-6.53,24.827-14.585S42.856,0,29.145,0,.46,14.328.009,17.352,15.433,29.171,29.145,29.171Z" transform="translate(76.521 163.248) rotate(-39)" fill="#22e9de"/>
        <path id="Path_82" data-name="Path 82" d="M43.168,43.206c20.309,0,36.772-9.672,36.772-21.6S63.476,0,43.168,0,.681,21.222.014,25.7,22.859,43.206,43.168,43.206Z" transform="translate(70.986 100.916) rotate(-39)" fill="#22e9de"/>
        <path id="Path_83" data-name="Path 83" d="M15.785,15.8c7.426,0,13.446-3.537,13.446-7.9S23.211,0,15.785,0,.249,7.76.005,9.4,8.359,15.8,15.785,15.8Z" transform="translate(82.97 48.519) rotate(-21)" fill="#22e9de"/>
        <path id="Path_84" data-name="Path 84" d="M18.563,13.97c8.733,0,15.812-3.127,15.812-6.985S27.3,0,18.563,0,.293,6.862.006,8.31,9.83,13.97,18.563,13.97Z" transform="translate(87.241 37.08) rotate(-110)" fill="#22e9de"/>
      </g>
      <g id="Group_10" data-name="Group 10" transform="translate(292.308 328.801)">
        <path id="Path_56" data-name="Path 56" d="M147.144,22.007C112.684,4.444,68.22,3.11,29.758,19.562S-1.589,99.708-1.589,99.708H167.375a132.926,132.926,0,0,0,2.755-33.323C169.287,49.673,164.132,30.666,147.144,22.007Z" transform="translate(85.435 112.052)" fill="#fff"/>
        <path id="Path_20" data-name="Path 20" d="M40.926,0H8.467A31.293,31.293,0,0,1,6.585,11.822C4.35,17.347.227,24.476.934,25.908S9.055,31.7,20.228,32.381s23.4-4.088,24.7-6-3.587-8.609-4.939-14.563A22.7,22.7,0,0,1,40.926,0Z" transform="translate(146.468 97.203)" fill="#eea671"/>
        <g id="Group_1" data-name="Group 1" transform="translate(0 176.683)">
          <rect id="Rectangle_4" data-name="Rectangle 4" width="331.121" height="34.051" rx="17.026" transform="translate(0 142.076)" fill="#2e37a5"/>
          <path id="Path_73-2" data-name="Path 73" d="M259.463,0H10A10,10,0,0,0,0,10V149.689a10,10,0,0,0,10,10H259.463a10,10,0,0,0,10-10V10A10,10,0,0,0,259.463,0Z" transform="translate(34.769 0)" fill="#272f95"/>
          <rect id="Rectangle_2" data-name="Rectangle 2" width="269.463" height="159.689" rx="10" transform="translate(27.006 0)" fill="#1c237b"/>
        </g>
        <g id="Group_41" data-name="Group 41" transform="translate(212.164 120.825) rotate(-177)">
          <g id="Group_42" data-name="Group 42" transform="translate(0 0)">
            <path id="Path_69" data-name="Path 69" d="M19.388,83.232s46.67,2.574,51.674-3.859-2.936-29.5-5.617-46.772S63.3,16.3,58.6,9.342,47.982-.3,37.464.026,18.469,10.032,13.159,17.16s-2.553,21.773-4.7,24.63-5.846,5.14-7.353,10.6S-.73,62.082,2.436,63.635s9.4-7.71,11.948-4.391S19.388,83.232,19.388,83.232Z" transform="translate(8.176 0.628)" fill="#fec194"/>
            <path id="Path_70" data-name="Path 70" d="M13.676,40.457S17.046,57.205,38.9,59.452,76.379,46.176,78.728,44.338s-2.577-4.377-.637-4.964,5.233,3.892,8.4,2.616,3.983-6.127,3.37-8.578S84.038,21.463,78.728,18.195,69,14.136,57.078,15.642,37.266,28.2,31.037,24.22,25.216,2.06,21.744,1.447,13.472,7.983,10.51,6.553,9.6-1.26,8.059.221C5.3,2.877-1.208,16.51.2,26.569S13.676,40.457,13.676,40.457Z" transform="translate(0 56.598)" fill="#e70276"/>
            <path id="Path_71" data-name="Path 71" d="M0,39.868s1.966,4.544,5.719,2.145.894-10.11,9.293-11.744,13.659,5.821,24.305,5.208,14.3-4.493,15.829-6.944-3.166-16.135-4.9-17.973S40.394-2.9,24.667.679C13.564,3.2,2.4,16.87,1.125,23.63-.1,27.613,0,39.868,0,39.868Z" transform="translate(17.555 0)" fill="#0b0744"/>
            <path id="Path_72" data-name="Path 72" d="M1.278,9.04C3.4,12.308,8.2,13.248,11.1,13.619s8.085.334,10.779-2.766a7.146,7.146,0,0,0,0-9.635c-2.266-2.218-4.245.93-9.062.763S5.5-1.214,2.614.55-.844,5.773,1.278,9.04Z" transform="translate(41.739 16.073)" fill="#fec194"/>
          </g>
        </g>
      </g>
    </g>
    <rect id="Rectangle_96" data-name="Rectangle 96" width="497" height="7" rx="3.5" transform="translate(732.926 389.916) rotate(-160)" fill="url(#linear-gradient-2)"/>
    <rect id="Rectangle_97" data-name="Rectangle 97" width="497" height="7" rx="3.5" transform="translate(478.926 414.916) rotate(-160)" fill="url(#linear-gradient-3)"/>
    <rect id="Rectangle_98" data-name="Rectangle 98" width="334" height="7" rx="3.5" transform="translate(1166.756 882.166) rotate(-160)" fill="url(#linear-gradient-4)"/>
    <g transform="matrix(1, 0, 0, 1, -76.03, 213.35)" filter="url(#Path_88)">
      <path id="Path_88-2" data-name="Path 88" d="M5,0a5,5,0,1,0,5,5A5,5,0,0,0,5,0Z" transform="translate(551.29 341.65)" fill="#dd0062"/>
    </g>
    <g transform="matrix(1, 0, 0, 1, -76.03, 213.35)" filter="url(#Path_92)">
      <path id="Path_92-2" data-name="Path 92" d="M5,0a5,5,0,1,0,5,5A5,5,0,0,0,5,0Z" transform="translate(1887.29 690.65)" fill="#dd0062"/>
    </g>
    <g transform="matrix(1, 0, 0, 1, -76.03, 213.35)" filter="url(#Path_89)">
      <path id="Path_89-2" data-name="Path 89" d="M5,0a5,5,0,1,0,5,5A5,5,0,0,0,5,0Z" transform="translate(961.29 45.65)" fill="#22e9de"/>
    </g>
    <g transform="matrix(1, 0, 0, 1, -76.03, 213.35)" filter="url(#Path_90)">
      <path id="Path_90-2" data-name="Path 90" d="M5,0a5,5,0,1,0,5,5A5,5,0,0,0,5,0Z" transform="translate(1056.29 358.65)" fill="#22e9de"/>
    </g>
    <g transform="matrix(1, 0, 0, 1, -76.03, 213.35)" filter="url(#Path_91)">
      <path id="Path_91-2" data-name="Path 91" d="M5,0a5,5,0,1,0,5,5A5,5,0,0,0,5,0Z" transform="translate(1613.28 29.65)" fill="#dd0062"/>
    </g>
  </g>
</svg>
