<svg xmlns="http://www.w3.org/2000/svg" width="18.75" height="19.315" viewBox="0 0 18.75 19.315">
  <path id="Vector" d="M18.138,10.167a3.016,3.016,0,0,0,.612-1.821,3.052,3.052,0,0,0-1.535-2.6,1.586,1.586,0,0,0-.8-.218h-5.62l.141-2.88A2.514,2.514,0,0,0,8.414,0a2.725,2.725,0,0,0-2.62,1.995L3.78,9.284H.75a.749.749,0,0,0-.75.75v8.531a.749.749,0,0,0,.75.75H14.843a1.558,1.558,0,0,0,.621-.127,3.019,3.019,0,0,0,1.709-3.642,3.022,3.022,0,0,0,.485-2.688,3.016,3.016,0,0,0,.612-1.821A3.2,3.2,0,0,0,18.138,10.167Z" fill="#52c41a"/>
</svg>
