<svg id="fd" xmlns="http://www.w3.org/2000/svg" width="324.115" height="120.472" viewBox="0 0 324.115 120.472">
  <path id="Path_27801" data-name="Path 27801" d="M206.846,145.239a4.254,4.254,0,0,0,5.374,1.954,347.746,347.746,0,0,1,219.864,0,4.757,4.757,0,0,0,5.375-1.954L483.63,62.423a4.558,4.558,0,0,0-2.2-6.352A450.747,450.747,0,0,0,321.908,27,446.076,446.076,0,0,0,162.873,56.071a4.391,4.391,0,0,0-2.2,6.352Z" transform="translate(-160.041 -27)" fill="#ffb206"/>
  <path id="Path_27802" data-name="Path 27802" d="M310.568,106.044A357.452,357.452,0,0,1,417.08,122.168l36.4-64.983a433.607,433.607,0,0,0-285.579,0l36.4,64.983A353.5,353.5,0,0,1,310.568,106.044Z" transform="translate(-148.7 -18.342)" fill="#f93443"/>
  <path id="Path_27803" data-name="Path 27803" d="M428.581,143.741a4.157,4.157,0,0,1-1.71-.244h-.244a5.176,5.176,0,0,1-3.176-6.6,4.53,4.53,0,0,1,3.42-3.176,5.2,5.2,0,0,1,6.6,7.329l-.244.244A6.294,6.294,0,0,1,428.581,143.741Zm11.482-15.391.244-.489a5.2,5.2,0,1,0-9.039-5.13l-.244.489a5.225,5.225,0,0,0,1.954,7.085,4.713,4.713,0,0,0,2.443.733A5.238,5.238,0,0,0,440.063,128.35Zm7.084-12.948.244-.489a5.2,5.2,0,1,0-9.039-5.13l-.244.489a5.225,5.225,0,0,0,1.954,7.085,4.714,4.714,0,0,0,2.443.733A5.238,5.238,0,0,0,447.148,115.4Zm7.085-12.948.244-.489a5.2,5.2,0,1,0-9.039-5.13l-.244.489a5.225,5.225,0,0,0,1.954,7.085,4.714,4.714,0,0,0,2.443.733A4.973,4.973,0,0,0,454.232,102.455Zm7.329-12.948.244-.489a5.2,5.2,0,1,0-9.039-5.13l-.244.489a5.225,5.225,0,0,0,1.954,7.085,4.714,4.714,0,0,0,2.443.733A5.533,5.533,0,0,0,461.561,89.507Zm7.085-12.948.244-.489a5.2,5.2,0,1,0-9.039-5.13l-.244.489a5.225,5.225,0,0,0,1.954,7.085,4.714,4.714,0,0,0,2.443.733A4.8,4.8,0,0,0,468.646,76.559Zm7.084-12.7.244-.244a5.469,5.469,0,0,0,.244-4.4,5.124,5.124,0,0,0-3.176-3.176,5.053,5.053,0,0,0-6.6,2.932,4.157,4.157,0,0,0-.244,1.71,5.307,5.307,0,0,0,2.687,5.13,4.714,4.714,0,0,0,2.443.733A5.146,5.146,0,0,0,475.73,63.856Zm-18.566-8.062a5.118,5.118,0,0,0-3.42-6.6l-.733-.244a5.254,5.254,0,1,0-3.176,10.016l.733.244a3.623,3.623,0,0,0,1.71.244A5.842,5.842,0,0,0,457.164,55.794Zm-19.788-6.352a5.289,5.289,0,0,0-3.664-6.352l-.733-.244a5.185,5.185,0,1,0-2.687,10.016l.733.244a3.1,3.1,0,0,0,1.466.244A5.368,5.368,0,0,0,437.376,49.442ZM187.708,58.97l.733-.244a5.254,5.254,0,0,0-3.176-10.016l-.733.244a5.529,5.529,0,0,0-3.42,6.6A5.206,5.206,0,0,0,186,59.214,3.622,3.622,0,0,0,187.708,58.97ZM207.5,53.107l.733-.244a5.185,5.185,0,0,0-2.687-10.016l-.733.244a5.289,5.289,0,0,0-3.664,6.352,5.5,5.5,0,0,0,5.13,3.909A2.656,2.656,0,0,0,207.5,53.107Zm209.6-8.795a5.323,5.323,0,0,0-3.909-6.352l-.733-.244a5.263,5.263,0,0,0-6.107,3.909,5.135,5.135,0,0,0,3.909,6.107l.489.244c.489,0,.733.244,1.221.244A5.019,5.019,0,0,0,417.1,44.312ZM227.283,48.221l.733-.244a5.127,5.127,0,0,0-2.2-10.016l-.733.244a5.14,5.14,0,0,0-3.909,6.352,5.229,5.229,0,0,0,5.13,4.153C226.55,48.221,226.795,48.221,227.283,48.221Zm169.54-8.306a5.294,5.294,0,0,0-4.153-6.107h-.733a5.222,5.222,0,0,0-1.954,10.26h1.71A5,5,0,0,0,396.823,39.915ZM376.3,37.228a5.294,5.294,0,0,0-4.153-6.107h-.733a5.222,5.222,0,1,0-1.954,10.26h1.71A5.228,5.228,0,0,0,376.3,37.228Zm-128.987,6.84h.733a5.222,5.222,0,0,0-1.954-10.26h-.733a5.115,5.115,0,0,0-4.153,6.107,5.453,5.453,0,0,0,5.13,4.4C246.827,44.312,247.071,44.312,247.315,44.068Zm20.276-2.932h.733a5.288,5.288,0,0,0-1.222-10.5h-.733a5.048,5.048,0,0,0-4.4,5.863,5.25,5.25,0,0,0,5.13,4.642Zm88.19-6.84a5.223,5.223,0,0,0-4.886-5.619h-.733a5.265,5.265,0,0,0-.733,10.5h1.221A5.105,5.105,0,0,0,355.782,34.3Zm-67.669,4.886h.733a5.265,5.265,0,0,0-.733-10.5h-.733a5.223,5.223,0,0,0-4.886,5.619,5.289,5.289,0,0,0,5.13,4.886Zm20.521-.977h.733a5.254,5.254,0,0,0-.244-10.5h-.733a5.254,5.254,0,0,0,.244,10.5Zm26.384-5.13a5.217,5.217,0,0,0-5.13-5.375h-.733a5.254,5.254,0,1,0-.244,10.5h.977A5.16,5.16,0,0,0,335.017,33.075ZM169.63,65.81a4.865,4.865,0,0,0,2.687-4.4,8.312,8.312,0,0,0-.244-2.443,5.325,5.325,0,0,0-6.84-2.932,4.768,4.768,0,0,0-2.931,3.176,5.529,5.529,0,0,0,.244,4.4l.244.244a5.238,5.238,0,0,0,4.641,2.687A5.625,5.625,0,0,0,169.63,65.81Zm14.169,25.9a5.225,5.225,0,0,0,1.954-7.085l-.244-.489a5.2,5.2,0,0,0-9.039,5.13l.244.244a5.238,5.238,0,0,0,4.642,2.687A4.4,4.4,0,0,0,183.8,91.706Zm-7.085-12.948a5.225,5.225,0,0,0,1.954-7.085l-.244-.489a5.2,5.2,0,0,0-9.039,5.13l.244.489a5.238,5.238,0,0,0,4.642,2.687A4.714,4.714,0,0,0,176.714,78.758ZM205.3,130.3a5.225,5.225,0,0,0,1.954-7.085l-.244-.489a5.2,5.2,0,1,0-9.039,5.13l.244.489a5.238,5.238,0,0,0,4.642,2.687A4.714,4.714,0,0,0,205.3,130.3Zm-7.085-12.7a5.225,5.225,0,0,0,1.954-7.085l-.244-.489a5.2,5.2,0,0,0-9.039,5.13l.244.489a5.238,5.238,0,0,0,4.641,2.687C196.5,118.089,197.479,117.845,198.212,117.6Zm-7.085-12.948a5.225,5.225,0,0,0,1.954-7.085l-.244-.489a5.2,5.2,0,1,0-9.039,5.13l.244.489a5.238,5.238,0,0,0,4.642,2.687C189.418,105.142,190.151,104.9,191.128,104.653ZM211.648,143.5h.244a5.53,5.53,0,0,0,3.42-6.6,5.3,5.3,0,0,0-3.42-3.42,5.2,5.2,0,0,0-6.6,7.329l.244.244a5.238,5.238,0,0,0,4.642,2.687A4.3,4.3,0,0,0,211.648,143.5Zm17.1-5.13.489-.244a5.185,5.185,0,1,0-2.687-10.016l-.488.244A5.289,5.289,0,0,0,222.4,134.7a5.5,5.5,0,0,0,5.13,3.909A10.588,10.588,0,0,1,228.749,138.366Zm17.589-4.4h.489a5.222,5.222,0,0,0-1.954-10.26l-.489.244a4.9,4.9,0,0,0-3.909,6.107,5.229,5.229,0,0,0,5.13,4.153C245.605,133.969,246.094,133.969,246.338,133.969Zm169.784.733a5.289,5.289,0,0,0-3.664-6.352l-.489-.244a5.185,5.185,0,0,0-2.687,10.016l.489.244a3.1,3.1,0,0,0,1.466.244A5.448,5.448,0,0,0,416.122,134.7Zm-18.078-4.642a5.135,5.135,0,0,0-3.909-6.107l-.489-.244a5.127,5.127,0,0,0-2.2,10.016l.489.244h1.221A4.709,4.709,0,0,0,398.045,130.06ZM379.967,126.4a4.932,4.932,0,0,0-4.4-5.863h-.489a5.182,5.182,0,0,0-1.466,10.26h1.222A5.453,5.453,0,0,0,379.967,126.4Zm-115.551,4.153h.489a5.182,5.182,0,0,0-1.466-10.26h-.489a5.154,5.154,0,0,0,.733,10.26C263.683,130.793,264.172,130.793,264.416,130.549Zm97.229-6.84A5.036,5.036,0,0,0,357,118.089h-.733a5.153,5.153,0,0,0-.977,10.26h.977A5.143,5.143,0,0,0,361.645,123.708Zm-79.151,4.642h.489a5.153,5.153,0,0,0-.977-10.26h-.489a5.172,5.172,0,0,0-4.642,5.619,5.074,5.074,0,0,0,5.13,4.642ZM343.323,122a4.879,4.879,0,0,0-4.886-5.374H337.7a5.179,5.179,0,0,0-5.374,4.886,5.022,5.022,0,0,0,4.886,5.374h.733A5.168,5.168,0,0,0,343.323,122Zm-42.751,4.886h.733a5.136,5.136,0,1,0-.489-10.26h-.488A5.149,5.149,0,0,0,295.441,122a5.288,5.288,0,0,0,5.13,4.886Zm24.185-5.619a5.16,5.16,0,0,0-5.13-5.13h-.489a5.13,5.13,0,0,0,0,10.26h.489A5.006,5.006,0,0,0,324.757,121.265Z" transform="translate(-157.271 -25.99)" fill="#c10222"/>
  <path id="Path_27804" data-name="Path 27804" d="M427.321,140.632a1.469,1.469,0,0,1-.977-.244H426.1a3.1,3.1,0,0,1-1.954-3.909,2.981,2.981,0,0,1,2.2-1.954,3.061,3.061,0,0,1,4.153,4.153l-.244.244A4.657,4.657,0,0,1,427.321,140.632Zm9.772-14.413.244-.489a3.061,3.061,0,1,0-5.374-2.932l-.244.489a3.131,3.131,0,0,0,1.221,4.153,3.473,3.473,0,0,0,1.466.489A3.7,3.7,0,0,0,437.092,126.218Zm7.085-12.948.244-.489a3.061,3.061,0,1,0-5.374-2.932l-.244.489a3.131,3.131,0,0,0,1.222,4.153,3.472,3.472,0,0,0,1.466.489A3.7,3.7,0,0,0,444.177,113.271Zm7.085-12.948.244-.489a3.061,3.061,0,1,0-5.375-2.932l-.244.489a3.131,3.131,0,0,0,1.221,4.153,3.472,3.472,0,0,0,1.466.489A3.314,3.314,0,0,0,451.261,100.323Zm7.084-12.948.244-.489a3.061,3.061,0,1,0-5.374-2.932l-.244.489a3.131,3.131,0,0,0,1.221,4.153,3.473,3.473,0,0,0,1.466.489A3.314,3.314,0,0,0,458.346,87.375Zm7.085-12.948.244-.489a3.061,3.061,0,1,0-5.374-2.932l-.244.489a3.131,3.131,0,0,0,1.222,4.153,3.471,3.471,0,0,0,1.466.489A2.642,2.642,0,0,0,465.43,74.428Zm7.329-12.948.244-.244a3.407,3.407,0,0,0,0-2.687,5,5,0,0,0-1.954-1.954c-1.71-.733-3.176.244-3.909,1.954a1.468,1.468,0,0,0-.244.977,3.127,3.127,0,0,0,1.71,3.176,3.473,3.473,0,0,0,1.466.489A3.1,3.1,0,0,0,472.759,61.48ZM453.7,53.907A3,3,0,0,0,451.75,50l-.733-.244a3.09,3.09,0,0,0-1.954,5.863l.733.244c.244,0,.733.244.977.244A2.706,2.706,0,0,0,453.7,53.907ZM433.917,47.8a3.137,3.137,0,0,0-2.2-3.909l-.733-.244a3.171,3.171,0,1,0-1.71,6.107l.733.244h.733C432.451,50,433.672,49.265,433.917,47.8ZM185.958,55.861l.733-.244a3.09,3.09,0,0,0-1.954-5.863L184,50a3,3,0,0,0-1.954,3.909,3.422,3.422,0,0,0,2.932,2.2A1.847,1.847,0,0,0,185.958,55.861ZM205.5,50l.733-.244a3.171,3.171,0,0,0-1.71-6.107l-.733.244a3.137,3.137,0,0,0-2.2,3.909,3.07,3.07,0,0,0,2.932,2.2Zm208.383-7.329A2.942,2.942,0,0,0,411.442,39l-.733-.244a2.942,2.942,0,0,0-3.665,2.443,3.107,3.107,0,0,0,2.443,3.664l.733.244h.733A3.1,3.1,0,0,0,413.884,42.669Zm-188.35,2.2.733-.244a3.114,3.114,0,0,0-1.221-6.107l-.733.244a3.238,3.238,0,0,0-2.443,3.664,3.1,3.1,0,0,0,2.931,2.443A.458.458,0,0,0,225.534,44.868Zm168.074-6.352a3.107,3.107,0,0,0-2.443-3.664h-.733a3.114,3.114,0,0,0-1.222,6.107h1.222A3.164,3.164,0,0,0,393.608,38.516Zm-20.765-2.932A3.107,3.107,0,0,0,370.4,31.92h-.733a3.114,3.114,0,0,0-1.221,6.107h1.221A2.984,2.984,0,0,0,372.843,35.585ZM245.81,40.959h.733a3.114,3.114,0,0,0-1.221-6.107h-.733a2.942,2.942,0,0,0-2.443,3.664,3.381,3.381,0,0,0,3.176,2.687C245.322,40.959,245.566,40.959,245.81,40.959Zm20.276-2.932h.733a3.076,3.076,0,0,0-.733-6.107h-.733a3.04,3.04,0,0,0-2.687,3.42,3.178,3.178,0,0,0,3.176,2.687Zm86.236-4.886a3.23,3.23,0,0,0-2.932-3.42h-.733a3.425,3.425,0,0,0-3.42,2.932,3.425,3.425,0,0,0,2.931,3.42h.977A3.2,3.2,0,0,0,352.322,33.142Zm-65.715,2.932h.733a3.425,3.425,0,0,0,2.932-3.42c0-1.71-1.71-2.932-3.42-2.932h-.733a3.425,3.425,0,0,0-2.932,3.42,3.658,3.658,0,0,0,3.42,2.932Zm20.521-1.221h.733a3.176,3.176,0,0,0,0-6.352h-.733a2.885,2.885,0,0,0-2.931,3.176,2.772,2.772,0,0,0,2.931,3.176ZM331.8,31.92a3.079,3.079,0,0,0-3.176-3.176h-.733a3.176,3.176,0,0,0,0,6.352h.733A3.632,3.632,0,0,0,331.8,31.92ZM167.392,62.7a3.524,3.524,0,0,0,1.71-2.687,3.193,3.193,0,0,0-4.4-3.176,2.793,2.793,0,0,0-1.71,1.954,3.539,3.539,0,0,0,.244,2.687l.244.244a3.314,3.314,0,0,0,2.687,1.71C166.171,63.19,166.9,63.19,167.392,62.7Zm14.169,25.9a3.131,3.131,0,0,0,1.221-4.153l-.244-.489a3.061,3.061,0,1,0-5.374,2.932l.244.489a3.314,3.314,0,0,0,2.687,1.71A3.472,3.472,0,0,0,181.561,88.6Zm-7.084-12.948A3.131,3.131,0,0,0,175.7,71.5l-.244-.489a3.061,3.061,0,0,0-5.375,2.932l.244.489a3.314,3.314,0,0,0,2.687,1.71A3.473,3.473,0,0,0,174.477,75.649Zm28.582,51.791a3.131,3.131,0,0,0,1.221-4.153l-.244-.489a3.061,3.061,0,1,0-5.374,2.932l.244.489a3.314,3.314,0,0,0,2.687,1.71A3.472,3.472,0,0,0,203.059,127.44Zm-7.085-12.948a3.131,3.131,0,0,0,1.221-4.153l-.244-.489a3.061,3.061,0,1,0-5.374,2.932l.244.489a3.314,3.314,0,0,0,2.687,1.71A3.472,3.472,0,0,0,195.974,114.492Zm-7.329-12.948a3.131,3.131,0,0,0,1.221-4.153l-.244-.489a3.061,3.061,0,1,0-5.374,2.932l.244.489a3.314,3.314,0,0,0,2.687,1.71A2.619,2.619,0,0,0,188.646,101.544Zm21.009,38.843h.244a3.039,3.039,0,0,0-.244-5.863,3.061,3.061,0,0,0-4.153,4.153l.244.244a3.314,3.314,0,0,0,2.687,1.71A1.83,1.83,0,0,0,209.655,140.387ZM227,135.257l.489-.244a3.171,3.171,0,1,0-1.71-6.107l-.489.244a3.137,3.137,0,0,0-2.2,3.909,3.07,3.07,0,0,0,2.932,2.2Zm17.833-4.4h.489a3.114,3.114,0,0,0-1.221-6.107l-.489.244a3.107,3.107,0,0,0-2.443,3.664,3.164,3.164,0,0,0,3.176,2.443C244.345,130.86,244.589,130.86,244.833,130.86Zm168.074,2.2a3.137,3.137,0,0,0-2.2-3.909l-.489-.244a3.171,3.171,0,1,0-1.71,6.107l.489.244h.733A3.479,3.479,0,0,0,412.907,133.059Zm-18.078-4.642a3.107,3.107,0,0,0-2.443-3.664l-.489-.244a3.114,3.114,0,0,0-1.221,6.107l.489.244h.733A3.1,3.1,0,0,0,394.829,128.417Zm-18.078-3.664a3.276,3.276,0,0,0-2.687-3.664h-.489a3.213,3.213,0,0,0-.977,6.352h.977A3.145,3.145,0,0,0,376.752,124.753ZM262.667,127.44h.489a3.213,3.213,0,0,0-.977-6.352h-.489A3.276,3.276,0,0,0,259,124.753a3.178,3.178,0,0,0,3.176,2.687Zm95.763-5.13a3.04,3.04,0,0,0-2.687-3.42h-.489a3.185,3.185,0,0,0-.488,6.352h.733A3.351,3.351,0,0,0,358.43,122.31ZM280.989,125h.489a3.076,3.076,0,0,0-.733-6.107h-.489a3.04,3.04,0,0,0-2.687,3.42A2.984,2.984,0,0,0,280.744,125Zm58.875-4.153a3.029,3.029,0,0,0-2.932-3.176H336.2a3.056,3.056,0,0,0-.244,6.107h.733A3.029,3.029,0,0,0,339.863,120.844Zm-40.553,2.932h.733a3.056,3.056,0,0,0-.244-6.107h-.489a2.885,2.885,0,0,0-2.932,3.176c-.244,1.71.977,2.932,2.932,2.932Zm21.986-3.664a3.234,3.234,0,0,0-3.176-3.176h-.489a3.176,3.176,0,1,0,0,6.352h.489A3.079,3.079,0,0,0,321.3,120.111Z" transform="translate(-156.01 -24.836)" fill="#f93443"/>
  <path id="Path_27805" data-name="Path 27805" d="M426.232,138.211h-.977a2.08,2.08,0,0,1-1.221-2.687,2.2,2.2,0,0,1,1.466-1.466,2.676,2.676,0,0,1,1.954,0,2,2,0,0,1,.733,2.932l-.244.244A1.636,1.636,0,0,1,426.232,138.211Zm9.039-13.681.244-.489a2.137,2.137,0,1,0-3.664-2.2l-.244.489a2.331,2.331,0,0,0,.733,2.932,1.469,1.469,0,0,0,.977.244A2.222,2.222,0,0,0,435.271,124.531Zm7.084-12.948.244-.489a2.137,2.137,0,0,0-3.664-2.2l-.244.489a2.331,2.331,0,0,0,.733,2.932,1.469,1.469,0,0,0,.977.244A2.222,2.222,0,0,0,442.355,111.583Zm7.084-12.948.244-.489a2.137,2.137,0,0,0-3.664-2.2l-.244.489a2.331,2.331,0,0,0,.733,2.932,1.468,1.468,0,0,0,.977.244C448.463,99.612,449.2,99.368,449.44,98.635Zm7.085-12.948.244-.489A2.137,2.137,0,1,0,453.1,83l-.244.489a2.331,2.331,0,0,0,.733,2.932,1.469,1.469,0,0,0,.977.244C455.547,86.665,456.28,86.42,456.524,85.687Zm7.084-12.948.244-.489a2.137,2.137,0,1,0-3.665-2.2l-.244.489a2.331,2.331,0,0,0,.733,2.932,1.468,1.468,0,0,0,.977.244C462.632,73.717,463.365,73.473,463.609,72.74Zm7.329-12.948.244-.244a4.155,4.155,0,0,0,.244-1.71,2.944,2.944,0,0,0-1.222-1.221h-.244a1.976,1.976,0,0,0-2.687,1.221,2.086,2.086,0,0,0,0,1.71,2.439,2.439,0,0,0,.977,1.221,1.469,1.469,0,0,0,.977.244A2.528,2.528,0,0,0,470.938,59.792Zm-19.055-7.329a2.456,2.456,0,0,0-1.221-2.687l-.733-.244a2.315,2.315,0,0,0-2.687,1.221,2.456,2.456,0,0,0,1.222,2.687l.733.244h.733A1.934,1.934,0,0,0,451.883,52.463Zm-19.788-6.107a1.867,1.867,0,0,0-1.466-2.443l-.733-.244a2.164,2.164,0,1,0-1.222,4.153l.733.244h.489A2.772,2.772,0,0,0,432.095,46.356ZM184.626,53.685l.733-.244a2.087,2.087,0,0,0-1.466-3.909l-.733.244a1.991,1.991,0,0,0-1.221,2.687,2.047,2.047,0,0,0,1.954,1.466A.9.9,0,0,1,184.626,53.685Zm19.788-6.107.733-.244a2.164,2.164,0,0,0-1.221-4.153l-.733.244a2.107,2.107,0,0,0-1.466,2.687,1.858,1.858,0,0,0,1.954,1.466A.458.458,0,0,0,204.413,47.577Zm207.65-6.352a2.032,2.032,0,0,0-1.466-2.443l-.733-.244a2.109,2.109,0,1,0-.733,4.153l.733.244h.489A2.922,2.922,0,0,0,412.063,41.226ZM224.445,42.691l.733-.244a2.109,2.109,0,0,0-.733-4.153l-.733.244a1.961,1.961,0,0,0-1.466,2.443,2.073,2.073,0,0,0,1.954,1.71Zm167.1-5.619a2.013,2.013,0,0,0-1.71-2.443H389.1a2.109,2.109,0,0,0-.733,4.153h.977A1.974,1.974,0,0,0,391.542,37.073Zm-146.82,1.71h.733a2.109,2.109,0,0,0-.733-4.153h-.733a2.013,2.013,0,0,0-1.71,2.443,2.073,2.073,0,0,0,1.954,1.71Zm20.521-3.176h.733a1.97,1.97,0,1,0-.489-3.909h-.733a2.013,2.013,0,0,0-1.71,2.443A2.073,2.073,0,0,0,265,35.851C265,35.607,265,35.607,265.242,35.607ZM350.5,31.7a2,2,0,0,0-1.954-2.2h-.733a2.08,2.08,0,1,0-.244,4.153h.977A1.927,1.927,0,0,0,350.5,31.7ZM372,33.9a2,2,0,0,0-1.955-2.2h-.733a2.08,2.08,0,1,0-.244,4.153h.977A1.927,1.927,0,0,0,372,33.9Zm-86.236-.244h.733a2.08,2.08,0,1,0-.244-4.153h-.733a2.08,2.08,0,0,0,.244,4.153Zm20.521-.977h.733a2,2,0,0,0,1.954-2.2,1.87,1.87,0,0,0-2.2-1.954h-.733a2,2,0,0,0-1.954,2.2,2.154,2.154,0,0,0,2.2,1.954Zm23.452-1.954a2.154,2.154,0,0,0-1.954-2.2h-.733a2.349,2.349,0,0,0-2.2,1.954,2.154,2.154,0,0,0,1.954,2.2h.733A2.154,2.154,0,0,0,329.736,30.721Zm-163.921,29.8a1.844,1.844,0,0,0,.977-1.71,2.414,2.414,0,0,0-3.176-2.443,2.944,2.944,0,0,0-1.221,1.221,1.5,1.5,0,0,0,.244,1.71l.244.244a1.844,1.844,0,0,0,1.71.977C165.326,61.014,165.571,60.769,165.815,60.525Zm14.413,25.9a2,2,0,0,0,.733-2.932L180.717,83a2.137,2.137,0,1,0-3.664,2.2l.244.489a2.3,2.3,0,0,0,2.931.733Zm-7.085-12.948a2,2,0,0,0,.733-2.932l-.244-.489a2.137,2.137,0,1,0-3.664,2.2l.244.489a1.844,1.844,0,0,0,1.71.977A2.2,2.2,0,0,0,173.144,73.473Zm28.582,51.791a2,2,0,0,0,.733-2.932l-.244-.489a2.137,2.137,0,1,0-3.664,2.2l.244.489a2.3,2.3,0,0,0,2.931.733Zm-7.084-12.948a2,2,0,0,0,.733-2.932l-.244-.489a2.137,2.137,0,1,0-3.664,2.2l.244.489a1.844,1.844,0,0,0,1.71.977A2.2,2.2,0,0,0,194.642,112.316Zm-7.329-12.948a2,2,0,0,0,.733-2.932l-.244-.489a2.137,2.137,0,1,0-3.664,2.2l.244.489a1.844,1.844,0,0,0,1.71.977C186.824,99.612,187.068,99.612,187.313,99.368Zm21.254,38.843h.244a1.991,1.991,0,0,0,1.221-2.687,2.2,2.2,0,0,0-1.466-1.466,2.676,2.676,0,0,0-1.954,0,2,2,0,0,0-.733,2.932l.244.244a1.844,1.844,0,0,0,1.71.977Zm17.1-5.375.489-.244a2.014,2.014,0,1,0-.977-3.909l-.489.244a2.107,2.107,0,0,0-1.466,2.687,1.858,1.858,0,0,0,1.954,1.466A.852.852,0,0,0,225.667,132.837Zm18.078-4.4h.489a2.109,2.109,0,1,0-.733-4.153l-.488.244a2.128,2.128,0,0,0-1.71,2.443,2.073,2.073,0,0,0,1.954,1.71C243.256,128.439,243.5,128.439,243.745,128.439Zm167.1,2.932a2.214,2.214,0,0,0-1.466-2.687l-.489-.244a2.332,2.332,0,0,0-2.687,1.466,2.214,2.214,0,0,0,1.466,2.687l.489.244h.489A1.784,1.784,0,0,0,410.841,131.371Zm-17.833-4.4a2.013,2.013,0,0,0-1.71-2.443l-.489-.244a2.109,2.109,0,0,0-.733,4.153l.488.244h.489A2.735,2.735,0,0,0,393.008,126.974Zm-18.322-3.664a2.013,2.013,0,0,0-1.71-2.443h-.489a2.109,2.109,0,1,0-.733,4.153h.733A1.713,1.713,0,0,0,374.686,123.309Zm-112.864,1.954h.489a2.109,2.109,0,0,0-.733-4.153h-.489a2.013,2.013,0,0,0-1.71,2.443,2.073,2.073,0,0,0,1.954,1.71Zm94.542-4.4a2,2,0,0,0-1.954-2.2h-.489a2.08,2.08,0,0,0-.244,4.153h.733A1.927,1.927,0,0,0,356.364,120.866ZM279.9,122.82h.489a2.08,2.08,0,1,0-.244-4.153h-.489a2.139,2.139,0,0,0-1.954,2.2,2,2,0,0,0,2.2,1.954Zm58.142-3.42a2,2,0,0,0-1.954-2.2H335.6a2.08,2.08,0,0,0-.244,4.153h.489A2.139,2.139,0,0,0,338.042,119.4Zm-39.82,1.954h.489a2.08,2.08,0,0,0-.244-4.153h-.489a2,2,0,0,0-1.954,2.2,2.316,2.316,0,0,0,2.2,1.954Zm21.254-2.443a2.19,2.19,0,0,0-2.2-2.2h-.489a2.2,2.2,0,0,0,0,4.4h.489A2.189,2.189,0,0,0,319.476,118.912Z" transform="translate(-156.876 -24.858)" fill="#ffbe78"/>
</svg>
