<svg xmlns="http://www.w3.org/2000/svg" width="120" height="120" viewBox="0 0 120 120">
  <g id="Group_16393" data-name="Group 16393" transform="translate(-892.872 -1005.518)">
    <path id="Path_34789" data-name="Path 34789" d="M356.334,438.333H280.666a2.179,2.179,0,0,1-2.166-2.166h0A2.179,2.179,0,0,1,280.666,434h75.667a2.179,2.179,0,0,1,2.166,2.166h0A2.146,2.146,0,0,1,356.334,438.333Z" transform="translate(634.575 682.065)" fill="#7a7485" opacity="0.3"/>
    <g id="Group_16363" data-name="Group 16363" transform="translate(916.423 1097.063)">
      <path id="Path_34375" data-name="Path 34375" d="M1086.823,1702s-.864,8.525-5.762,11.916a20.278,20.278,0,0,1-9.062,3.706v5.4h14.81a34.262,34.262,0,0,0,4.937-5.251c2.161-2.933,6.94-11.576,6.94-11.576Z" transform="translate(-1072 -1702)" fill="#d232b1"/>
    </g>
    <g id="Group_16364" data-name="Group 16364" transform="translate(962.765 1097.063)">
      <path id="Path_34376" data-name="Path 34376" d="M1437.764,1702s.864,8.525,5.762,11.916a20.278,20.278,0,0,0,9.062,3.706v5.4h-14.81a34.271,34.271,0,0,1-4.937-5.251c-2.161-2.933-6.94-11.576-6.94-11.576Z" transform="translate(-1425.9 -1702)" fill="#d232b1"/>
    </g>
    <g id="Group_16365" data-name="Group 16365" transform="translate(928.889 1101.436)">
      <path id="Path_34377" data-name="Path 34377" d="M1167.2,1738.883s3.248,1.126,4.583,2.645,3.365,4.347,3.365,4.347l3.392-5.526-10.436-4.95Z" transform="translate(-1167.2 -1735.4)" fill="#a11e86"/>
    </g>
    <g id="Group_16366" data-name="Group 16366" transform="translate(965.685 1100.664)">
      <path id="Path_34378" data-name="Path 34378" d="M1448.2,1735.249l1.794,3.012s3.169-.589,6.207-1.087a31.3,31.3,0,0,1,5.461-.419,12.353,12.353,0,0,1-2-2.737,18.7,18.7,0,0,1-1.034-4.518Z" transform="translate(-1448.2 -1729.5)" fill="#a11e86"/>
    </g>
    <g id="Group_16367" data-name="Group 16367" transform="translate(892.872 1005.518)">
      <circle id="Ellipse_1225" data-name="Ellipse 1225" cx="42.427" cy="42.427" r="42.427" transform="translate(0 60) rotate(-45)" fill="#f28236"/>
    </g>
    <g id="Group_16368" data-name="Group 16368" transform="translate(911.159 1062.729)">
      <path id="Path_34379" data-name="Path 34379" d="M1040.966,1439.8l-9.166,1.99,9.166,4.74Z" transform="translate(-1031.8 -1439.8)" fill="#d232b1"/>
    </g>
    <g id="Group_16369" data-name="Group 16369" transform="translate(923.245 1035.649)">
      <path id="Path_34380" data-name="Path 34380" d="M1129.443,1241.944,1124.1,1233l10.227,4.465Z" transform="translate(-1124.1 -1233)" fill="#d232b1"/>
    </g>
    <g id="Group_16370" data-name="Group 16370" transform="translate(949.67 1023.484)">
      <path id="Path_34381" data-name="Path 34381" d="M1325.9,1150.261c0-.236,2.58-10.161,2.58-10.161l3.824,10.161Z" transform="translate(-1325.9 -1140.1)" fill="#d232b1"/>
    </g>
    <g id="Group_16371" data-name="Group 16371" transform="translate(972.167 1035.937)">
      <path id="Path_34382" data-name="Path 34382" d="M1497.7,1239.377c.223-.078,10.856-4.177,10.856-4.177l-5.081,9.284Z" transform="translate(-1497.7 -1235.2)" fill="#d232b1"/>
    </g>
    <g id="Group_16372" data-name="Group 16372" transform="translate(985.222 1060.594)">
      <path id="Path_34383" data-name="Path 34383" d="M1597.4,1423.5l10.2,3.038-9.769,4.02Z" transform="translate(-1597.4 -1423.5)" fill="#d232b1"/>
    </g>
    <g id="Group_16373" data-name="Group 16373" transform="translate(974.956 1084.217)">
      <path id="Path_34384" data-name="Path 34384" d="M1519,1609.753l10.7,3.365-5.343-9.219Z" transform="translate(-1519 -1603.9)" fill="#d232b1"/>
    </g>
    <g id="Group_16374" data-name="Group 16374" transform="translate(949.094 1098.739)">
      <path id="Path_34385" data-name="Path 34385" d="M1321.5,1714.8s3.811,10.672,3.85,10.135,3.941-10.135,3.941-10.135Z" transform="translate(-1321.5 -1714.8)" fill="#d232b1"/>
    </g>
    <g id="Group_16375" data-name="Group 16375" transform="translate(923.127 1087.019)">
      <path id="Path_34386" data-name="Path 34386" d="M1128.425,1625.3c.262.3-5.225,9.049-5.225,9.049l10.332-3.562Z" transform="translate(-1123.2 -1625.3)" fill="#d232b1"/>
    </g>
    <g id="Group_16376" data-name="Group 16376" transform="translate(909.627 1022.541)">
      <path id="Path_34387" data-name="Path 34387" d="M1063.457,1219.613a43.367,43.367,0,1,1,30.655-12.7A43.035,43.035,0,0,1,1063.457,1219.613Zm0-84.854a41.51,41.51,0,1,0,41.51,41.51A41.556,41.556,0,0,0,1063.457,1134.76Z" transform="translate(-1020.1 -1132.9)" fill="#fcb239"/>
    </g>
    <g id="Group_16387" data-name="Group 16387" transform="translate(906.799 1019.333)">
      <g id="Group_16377" data-name="Group 16377" transform="translate(0 0)">
        <circle id="Ellipse_1226" data-name="Ellipse 1226" cx="32.658" cy="32.658" r="32.658" transform="translate(0 46.185) rotate(-45)" fill="#d232b1"/>
      </g>
      <g id="Group_16378" data-name="Group 16378" transform="translate(37.489 13.527)">
        <path id="Path_34388" data-name="Path 34388" d="M1293.56,1244.358l-8.76-31.467a32.671,32.671,0,0,1,15.923-.393Z" transform="translate(-1284.8 -1211.7)" fill="#fff"/>
      </g>
      <g id="Group_16379" data-name="Group 16379" transform="translate(39.086 46.185)">
        <path id="Path_34389" data-name="Path 34389" d="M1304.163,1461.1l8.76,31.467a32.671,32.671,0,0,1-15.923.393Z" transform="translate(-1297 -1461.1)" fill="#fff"/>
      </g>
      <g id="Group_16380" data-name="Group 16380" transform="translate(46.184 37.425)">
        <path id="Path_34390" data-name="Path 34390" d="M1351.2,1402.96l31.467-8.76a32.67,32.67,0,0,1,.393,15.923Z" transform="translate(-1351.2 -1394.2)" fill="#fff"/>
      </g>
      <g id="Group_16381" data-name="Group 16381" transform="translate(13.526 39.022)">
        <path id="Path_34391" data-name="Path 34391" d="M1134.458,1413.563l-31.467,8.76a32.669,32.669,0,0,1-.393-15.923Z" transform="translate(-1101.8 -1406.4)" fill="#fff"/>
      </g>
      <g id="Group_16382" data-name="Group 16382" transform="translate(17.742 18.542)">
        <path id="Path_34392" data-name="Path 34392" d="M1162.442,1277.591,1134,1261.536a32.493,32.493,0,0,1,5.343-7.032,32.825,32.825,0,0,1,5.631-4.5Z" transform="translate(-1134 -1250)" fill="#fff"/>
      </g>
      <g id="Group_16383" data-name="Group 16383" transform="translate(46.184 46.133)">
        <path id="Path_34393" data-name="Path 34393" d="M1351.2,1460.7l28.442,16.067a32.486,32.486,0,0,1-5.343,7.032,32.814,32.814,0,0,1-5.631,4.5Z" transform="translate(-1351.2 -1460.7)" fill="#fff"/>
      </g>
      <g id="Group_16384" data-name="Group 16384" transform="translate(46.144 17.743)">
        <path id="Path_34394" data-name="Path 34394" d="M1350.9,1272.342l16.067-28.442a32.489,32.489,0,0,1,7.032,5.343,32.817,32.817,0,0,1,4.5,5.63Z" transform="translate(-1350.9 -1243.9)" fill="#fff"/>
      </g>
      <g id="Group_16385" data-name="Group 16385" transform="translate(18.541 46.185)">
        <path id="Path_34395" data-name="Path 34395" d="M1167.7,1461.1l-16.067,28.442a32.485,32.485,0,0,1-7.032-5.343,32.824,32.824,0,0,1-4.5-5.631Z" transform="translate(-1140.1 -1461.1)" fill="#fff"/>
      </g>
      <g id="Group_16386" data-name="Group 16386" transform="translate(12.609 13.409)">
        <path id="Path_34396" data-name="Path 34396" d="M1128.375,1277.95a33.576,33.576,0,1,1,23.741-9.834A33.361,33.361,0,0,1,1128.375,1277.95Zm0-65.33a31.742,31.742,0,1,0,31.742,31.742A31.779,31.779,0,0,0,1128.375,1212.62Z" transform="translate(-1094.8 -1210.8)" fill="#fcb239"/>
      </g>
    </g>
    <g id="Group_16388" data-name="Group 16388" transform="translate(946.868 1059.795)">
      <path id="Path_34397" data-name="Path 34397" d="M1316.731,1423.515a6.115,6.115,0,1,1-6.115-6.115A6.114,6.114,0,0,1,1316.731,1423.515Z" transform="translate(-1304.5 -1417.4)" fill="#fcb239"/>
    </g>
    <g id="Group_16389" data-name="Group 16389" transform="translate(947.916 1060.791)">
      <path id="Path_34398" data-name="Path 34398" d="M1317.659,1425l.982,2.776,2.658-1.27-1.257,2.658,2.776,1-2.776.982,1.257,2.658-2.658-1.257-.982,2.776-1-2.776-2.658,1.257,1.27-2.658-2.776-.982,2.776-1-1.27-2.658,2.658,1.27Z" transform="translate(-1312.5 -1425)" fill="#d232b1"/>
    </g>
    <g id="Group_16390" data-name="Group 16390" transform="translate(917.234 1109.293)" opacity="0.25">
      <path id="Path_34399" data-name="Path 34399" d="M1078.941,1801.289a2.712,2.712,0,0,0,1.3.026,18.432,18.432,0,0,0,3.667-.956c1.99-.746,3.968-2,4.74-3.981.144-.366.118-.956-.288-.982-.236-.013-.419.209-.563.406a7.6,7.6,0,0,1-3.968,2.475c-1.454.445-3.077.576-4.492,1.087C1078.5,1799.665,1077.461,1800.792,1078.941,1801.289Z" transform="translate(-1078.194 -1795.396)" fill="#fff"/>
    </g>
    <g id="Group_16391" data-name="Group 16391" transform="translate(978.228 1109.776)" opacity="0.25">
      <path id="Path_34400" data-name="Path 34400" d="M1544.42,1800.78a7.641,7.641,0,0,0,3.261,1.846,23.586,23.586,0,0,0,3.719.707c.589.079,1.323.092,1.637-.406a.511.511,0,0,0,.079-.366c-.066-.341-.511-.393-.851-.406a9.481,9.481,0,0,1-5.46-1.938c-.5-.38-1.4-1.165-2.082-1.126C1543.673,1799.143,1543.909,1800.256,1544.42,1800.78Z" transform="translate(-1543.986 -1799.089)" fill="#fff"/>
    </g>
    <g id="Group_16392" data-name="Group 16392" transform="translate(970.556 1043.021)">
      <path id="Path_34401" data-name="Path 34401" d="M1492.524,1293.661l-7.124,10.712,12.833.812-1.44-2.894,14.64-7.254-2.842-5.735-14.64,7.254Z" transform="translate(-1485.4 -1289.3)" fill="#231f20"/>
    </g>
  </g>
</svg>
