<svg xmlns="http://www.w3.org/2000/svg" width="300.697" height="295.992" viewBox="0 0 300.697 295.992">
  <g id="Group_12898" data-name="Group 12898" transform="translate(730.796 3573.005)">
    <g id="Group_12016" data-name="Group 12016" transform="translate(-726.616 -3573.005)">
      <path id="Path_27699" data-name="Path 27699" d="M252.381,329.288c-.962-3.366-.841-9.255,3.846-10.457s7.693,3.726,8.534,7.092a6.415,6.415,0,0,1-12.38,3.366Z" transform="translate(-74.901 -41.829)" fill="#e0ccb3"/>
      <path id="Path_27700" data-name="Path 27700" d="M190.04,96.465c.962,3.366,3.846,8.414,8.534,7.092,4.688-1.2,4.808-6.971,3.846-10.457a6.543,6.543,0,0,0-7.813-4.567A6.421,6.421,0,0,0,190.04,96.465Z" transform="translate(-87.443 -88.343)" fill="#e0ccb3"/>
      <path id="Path_27701" data-name="Path 27701" d="M308.185,300.9c-2.524-2.524-5.289-7.572-1.923-10.938s8.414-.6,10.938,1.923a6.312,6.312,0,0,1,0,9.015A6.535,6.535,0,0,1,308.185,300.9Z" transform="translate(-64.237 -47.937)" fill="#e0ccb3"/>
      <path id="Path_27702" data-name="Path 27702" d="M137.718,130.433c2.524,2.524,7.572,5.289,10.938,1.923s.6-8.414-1.923-10.938a6.374,6.374,0,0,0-9.015,9.015Z" transform="translate(-98.345 -82.045)" fill="#e0ccb3"/>
      <path id="Path_27703" data-name="Path 27703" d="M342.328,248.361c-3.366-.962-8.414-3.846-7.092-8.534s6.971-4.808,10.457-3.846a6.543,6.543,0,0,1,4.567,7.813A6.421,6.421,0,0,1,342.328,248.361Z" transform="translate(-58.114 -58.621)" fill="#e0ccb3"/>
      <path id="Path_27704" data-name="Path 27704" d="M109.5,186.02c3.366.962,9.255.841,10.457-3.846s-3.726-7.693-7.092-8.534a6.3,6.3,0,0,0-7.813,4.567A6.189,6.189,0,0,0,109.5,186.02Z" transform="translate(-104.619 -71.163)" fill="#e0ccb3"/>
      <path id="Path_27705" data-name="Path 27705" d="M345.688,186.02c-3.366.962-9.255.841-10.457-3.846s3.726-7.693,7.092-8.534a6.3,6.3,0,0,1,7.813,4.567A6.371,6.371,0,0,1,345.688,186.02Z" transform="translate(-58.108 -71.163)" fill="#e0ccb3"/>
      <path id="Path_27706" data-name="Path 27706" d="M112.765,248.361c3.366-.962,8.414-3.846,7.092-8.534-1.2-4.688-6.971-4.808-10.457-3.846a6.415,6.415,0,1,0,3.366,12.38Z" transform="translate(-104.643 -58.621)" fill="#e0ccb3"/>
      <path id="Path_27707" data-name="Path 27707" d="M317.2,130.433c-2.524,2.524-7.572,5.289-10.938,1.923s-.6-8.414,1.923-10.938a6.374,6.374,0,0,1,9.015,9.015Z" transform="translate(-64.237 -82.045)" fill="#e0ccb3"/>
      <path id="Path_27708" data-name="Path 27708" d="M146.833,300.9c2.524-2.524,5.289-7.572,1.923-10.938s-8.414-.6-10.938,1.923a6.312,6.312,0,0,0,0,9.015A6.535,6.535,0,0,0,146.833,300.9Z" transform="translate(-98.325 -47.937)" fill="#e0ccb3"/>
      <path id="Path_27709" data-name="Path 27709" d="M264.761,96.465c-.962,3.366-3.846,8.414-8.534,7.092-4.688-1.2-4.808-6.971-3.846-10.457a6.415,6.415,0,1,1,12.38,3.366Z" transform="translate(-74.901 -88.343)" fill="#e0ccb3"/>
      <path id="Path_27710" data-name="Path 27710" d="M202.42,329.288c.962-3.366.841-9.255-3.846-10.457s-7.693,3.726-8.534,7.092a6.3,6.3,0,0,0,4.567,7.813A6.371,6.371,0,0,0,202.42,329.288Z" transform="translate(-87.443 -41.829)" fill="#e0ccb3"/>
    </g>
    <g id="Group_12017" data-name="Group 12017" transform="translate(-724.328 -3570.83)">
      <path id="Path_27711" data-name="Path 27711" d="M253.679,328.43c-.6-2.4-1.2-8.774,2.164-9.616s6.01,4.808,6.731,7.212a4.7,4.7,0,0,1-3.245,5.649A4.558,4.558,0,0,1,253.679,328.43Z" transform="translate(-76.924 -43.988)" fill="#fff"/>
      <path id="Path_27712" data-name="Path 27712" d="M191.523,95.979c.6,2.4,3.366,8.173,6.731,7.212,3.366-.841,2.885-7.212,2.164-9.616a4.607,4.607,0,0,0-8.895,2.4Z" transform="translate(-89.41 -90.153)" fill="#fff"/>
      <path id="Path_27713" data-name="Path 27713" d="M309.031,299.213c-1.8-1.8-5.409-6.971-2.885-9.375,2.4-2.4,7.572,1.082,9.375,2.885a4.59,4.59,0,1,1-6.491,6.491Z" transform="translate(-66.408 -49.988)" fill="#fff"/>
      <path id="Path_27714" data-name="Path 27714" d="M138.927,129.118c1.8,1.8,6.971,5.409,9.375,2.885,2.4-2.4-1.082-7.572-2.885-9.375a4.59,4.59,0,0,0-6.491,6.491Z" transform="translate(-100.279 -83.867)" fill="#fff"/>
      <path id="Path_27715" data-name="Path 27715" d="M342.43,246.282c-2.4-.6-8.173-3.366-7.212-6.731.841-3.366,7.212-2.885,9.616-2.164a4.607,4.607,0,1,1-2.4,8.895Z" transform="translate(-60.383 -60.521)" fill="#fff"/>
      <path id="Path_27716" data-name="Path 27716" d="M109.977,184.017c2.4.6,8.774,1.2,9.616-2.164s-4.808-6.01-7.212-6.731a4.7,4.7,0,0,0-5.649,3.245A4.458,4.458,0,0,0,109.977,184.017Z" transform="translate(-106.546 -73.019)" fill="#fff"/>
      <path id="Path_27717" data-name="Path 27717" d="M344.83,184.017c-2.4.6-8.774,1.2-9.616-2.164s4.808-6.01,7.212-6.731a4.7,4.7,0,0,1,5.649,3.245A4.545,4.545,0,0,1,344.83,184.017Z" transform="translate(-60.379 -73.019)" fill="#fff"/>
      <path id="Path_27718" data-name="Path 27718" d="M112.379,246.282c2.4-.6,8.173-3.366,7.212-6.731-.841-3.366-7.212-2.885-9.616-2.164a4.607,4.607,0,0,0,2.4,8.895Z" transform="translate(-106.544 -60.521)" fill="#fff"/>
      <path id="Path_27719" data-name="Path 27719" d="M315.613,129.118c-1.8,1.8-6.971,5.409-9.375,2.885-2.4-2.4,1.082-7.572,2.885-9.375a4.59,4.59,0,1,1,6.491,6.491Z" transform="translate(-66.379 -83.867)" fill="#fff"/>
      <path id="Path_27720" data-name="Path 27720" d="M145.418,299.213c1.8-1.8,5.409-6.971,2.885-9.375-2.4-2.4-7.572,1.082-9.375,2.885a4.59,4.59,0,0,0,6.491,6.491Z" transform="translate(-100.279 -49.988)" fill="#fff"/>
      <path id="Path_27721" data-name="Path 27721" d="M262.682,95.979c-.6,2.4-3.365,8.173-6.731,7.212-3.366-.841-2.885-7.212-2.164-9.616a4.607,4.607,0,0,1,8.895,2.4Z" transform="translate(-76.913 -90.153)" fill="#fff"/>
      <path id="Path_27722" data-name="Path 27722" d="M200.417,328.43c.6-2.4,1.2-8.774-2.164-9.616s-6.01,4.808-6.731,7.212a4.7,4.7,0,0,0,3.245,5.649A4.458,4.458,0,0,0,200.417,328.43Z" transform="translate(-89.41 -43.988)" fill="#fff"/>
    </g>
    <g id="Group_12018" data-name="Group 12018" transform="translate(-723.342 -3572.1)">
      <path id="Path_27723" data-name="Path 27723" d="M254.514,324.627a3.009,3.009,0,0,1,2.043-3.606,2.86,2.86,0,0,1,3.606,2.043,3.009,3.009,0,0,1-2.043,3.606A2.86,2.86,0,0,1,254.514,324.627Z" transform="translate(-77.664 -42.28)" fill="#f9f276"/>
      <path id="Path_27724" data-name="Path 27724" d="M192.313,92.827a2.811,2.811,0,0,0,3.606,2.043,2.778,2.778,0,0,0,2.043-3.606,2.86,2.86,0,0,0-3.606-2.043A3.053,3.053,0,0,0,192.313,92.827Z" transform="translate(-90.225 -89.096)" fill="#f9f276"/>
      <path id="Path_27725" data-name="Path 27725" d="M309.044,294.938a2.865,2.865,0,0,1,0-4.087,2.766,2.766,0,0,1,4.087,0,2.89,2.89,0,0,1-4.087,4.087Z" transform="translate(-66.807 -48.53)" fill="#f9f276"/>
      <path id="Path_27726" data-name="Path 27726" d="M139.351,125.123a2.865,2.865,0,0,0,4.087,0,2.766,2.766,0,0,0,0-4.087,2.979,2.979,0,0,0-4.087,0A2.767,2.767,0,0,0,139.351,125.123Z" transform="translate(-101.088 -82.81)" fill="#f9f276"/>
      <path id="Path_27727" data-name="Path 27727" d="M341.457,241.852a2.825,2.825,0,0,1-2.043-3.486,2.706,2.706,0,0,1,3.486-2.043,2.86,2.86,0,0,1,2.043,3.606A2.953,2.953,0,0,1,341.457,241.852Z" transform="translate(-60.517 -59.389)" fill="#f9f276"/>
      <path id="Path_27728" data-name="Path 27728" d="M109.57,179.743a2.825,2.825,0,0,0,3.486-2.043,2.693,2.693,0,0,0-2.043-3.486,3.009,3.009,0,0,0-3.606,2.043A3.133,3.133,0,0,0,109.57,179.743Z" transform="translate(-107.366 -71.922)" fill="#f9f276"/>
      <path id="Path_27729" data-name="Path 27729" d="M342.907,179.663a2.825,2.825,0,0,1-3.486-2.043,2.86,2.86,0,0,1,2.043-3.606,3.009,3.009,0,0,1,3.606,2.043A2.966,2.966,0,0,1,342.907,179.663Z" transform="translate(-60.524 -71.963)" fill="#f9f276"/>
      <path id="Path_27730" data-name="Path 27730" d="M111.107,241.872a2.9,2.9,0,0,0,2.043-3.606,2.706,2.706,0,0,0-3.486-2.043,2.916,2.916,0,0,0,1.442,5.649Z" transform="translate(-107.34 -59.409)" fill="#f9f276"/>
      <path id="Path_27731" data-name="Path 27731" d="M313.138,125.123a2.865,2.865,0,0,1-4.087,0,2.767,2.767,0,0,1,0-4.087,2.979,2.979,0,0,1,4.087,0A2.767,2.767,0,0,1,313.138,125.123Z" transform="translate(-66.814 -82.81)" fill="#f9f276"/>
      <path id="Path_27732" data-name="Path 27732" d="M143.423,294.838a2.865,2.865,0,0,0,0-4.087,2.767,2.767,0,0,0-4.087,0,2.979,2.979,0,0,0,0,4.087A2.767,2.767,0,0,0,143.423,294.838Z" transform="translate(-101.073 -48.551)" fill="#f9f276"/>
      <path id="Path_27733" data-name="Path 27733" d="M260.172,92.807a2.9,2.9,0,0,1-3.606,2.043,2.706,2.706,0,0,1-2.043-3.486,2.86,2.86,0,0,1,3.606-2.043A2.92,2.92,0,0,1,260.172,92.807Z" transform="translate(-77.673 -89.076)" fill="#f9f276"/>
      <path id="Path_27734" data-name="Path 27734" d="M197.963,324.607a2.825,2.825,0,0,0-2.043-3.486,2.86,2.86,0,0,0-3.606,2.043,3.009,3.009,0,0,0,2.043,3.606A2.966,2.966,0,0,0,197.963,324.607Z" transform="translate(-90.226 -42.26)" fill="#f9f276"/>
    </g>
    <g id="Group_12897" data-name="Group 12897" transform="translate(-730.796 -3562.646)">
      <g id="Group_1374" data-name="Group 1374" transform="translate(28.343 13.499)" opacity="0.3">
        <g id="Group_1002" data-name="Group 1002">
          <path id="Path_1349" data-name="Path 1349" d="M-60.259-265.5A124.25,124.25,0,0,0-184.5-141.259,124.223,124.223,0,0,0-60.259-17.018,124.223,124.223,0,0,0,63.982-141.259,124.25,124.25,0,0,0-60.259-265.5Zm-.211,232.84A108.391,108.391,0,0,1-168.859-141.048,108.391,108.391,0,0,1-60.471-249.436,108.391,108.391,0,0,1,47.918-141.048,108.391,108.391,0,0,1-60.471-32.66Z" transform="translate(184.5 265.5)" fill="#efe8ce" style="mix-blend-mode: multiply;isolation: isolate"/>
        </g>
      </g>
      <g id="Group_1375" data-name="Group 1375" transform="translate(15.62 0)">
        <g id="Group_1018" data-name="Group 1018" transform="translate(0 0)">
          <path id="Path_1489" data-name="Path 1489" d="M-65.015-288.4A135.28,135.28,0,0,0-200.3-153.115,135.28,135.28,0,0,0-65.015-17.83,135.28,135.28,0,0,0,70.227-153.159,135.233,135.233,0,0,0-65.015-288.4Zm-.219,253.523A118.035,118.035,0,0,1-183.252-152.9,118.035,118.035,0,0,1-65.234-270.914,118.035,118.035,0,0,1,52.784-152.9,118.035,118.035,0,0,1-65.234-34.877Z" transform="translate(200.3 288.4)" fill="#efa205"/>
          <path id="Path_1354" data-name="Path 1354" d="M-69.8-288.4A130.492,130.492,0,0,0-200.3-157.9,130.492,130.492,0,0,0-69.8-27.406,130.492,130.492,0,0,0,60.652-157.945,130.447,130.447,0,0,0-69.8-288.4Zm-.211,244.55A113.858,113.858,0,0,1-183.856-157.691,113.858,113.858,0,0,1-70.014-271.533,113.858,113.858,0,0,1,43.827-157.691,113.858,113.858,0,0,1-70.014-43.85Z" transform="translate(205.087 293.188)" fill="#ffb206"/>
        </g>
      </g>
      <g id="Group_1376" data-name="Group 1376" transform="translate(263.773 177.897)">
        <g id="Group_1030" data-name="Group 1030">
          <path id="Path_1360" data-name="Path 1360" d="M375.611,121.1a.148.148,0,0,1-.042.085,2.644,2.644,0,0,1-.169.592c.085-.127.042.93,0,.38v.211a.421.421,0,0,0,.042.169c.042.042.169.127.211.211h0c.127-.465.211-.972.338-1.437A.864.864,0,0,0,375.611,121.1Z" transform="translate(-375.4 -121.1)" fill="#ffea6c"/>
        </g>
      </g>
      <g id="Group_1377" data-name="Group 1377" transform="translate(232.956 44.271)">
        <g id="Group_1032" data-name="Group 1032">
          <circle id="Ellipse_5" data-name="Ellipse 5" cx="3.424" cy="3.424" r="3.424" fill="#ffed10"/>
        </g>
      </g>
      <g id="Group_1378" data-name="Group 1378" transform="translate(193.024 17.588)">
        <g id="Group_1034" data-name="Group 1034" transform="translate(0 0)">
          <circle id="Ellipse_6" data-name="Ellipse 6" cx="3.424" cy="3.424" r="3.424" transform="translate(0 6.683) rotate(-77.397)" fill="#ffed10"/>
        </g>
      </g>
      <g id="Group_1395" data-name="Group 1395" transform="translate(146.26 9.411)">
        <g id="Group_1034-2" data-name="Group 1034" transform="translate(0 0)">
          <circle id="Ellipse_6-2" data-name="Ellipse 6" cx="3.424" cy="3.424" r="3.424" transform="translate(0 6.683) rotate(-77.397)" fill="#ffed10"/>
        </g>
      </g>
      <g id="Group_1379" data-name="Group 1379" transform="translate(257.202 80.573)">
        <g id="Group_1036" data-name="Group 1036" transform="translate(0 0)">
          <circle id="Ellipse_7" data-name="Ellipse 7" cx="3.424" cy="3.424" r="3.424" transform="translate(0 4.842) rotate(-45)" fill="#ffed10"/>
        </g>
      </g>
      <g id="Group_1380" data-name="Group 1380" transform="translate(268.459 128.487)">
        <g id="Group_1038" data-name="Group 1038" transform="translate(0 0)">
          <circle id="Ellipse_8" data-name="Ellipse 8" cx="3.424" cy="3.424" r="3.424" transform="matrix(0.16, -0.987, 0.987, 0.16, 0, 6.761)" fill="#ffed10"/>
        </g>
      </g>
      <g id="Group_1381" data-name="Group 1381" transform="translate(259.682 173.311)">
        <g id="Group_1040" data-name="Group 1040" transform="translate(0 0)">
          <circle id="Ellipse_9" data-name="Ellipse 9" cx="3.424" cy="3.424" r="3.424" transform="translate(0 4.842) rotate(-45)" fill="#ffed10"/>
        </g>
      </g>
      <g id="Group_1382" data-name="Group 1382" transform="translate(234.871 214.469)">
        <g id="Group_1042" data-name="Group 1042" transform="translate(0 0)">
          <circle id="Ellipse_10" data-name="Ellipse 10" cx="3.424" cy="3.424" r="3.424" transform="translate(0 4.842) rotate(-45)" fill="#ffed10"/>
        </g>
      </g>
      <g id="Group_1383" data-name="Group 1383" transform="translate(193.734 243.378)">
        <g id="Group_1044" data-name="Group 1044" transform="translate(0 0)">
          <circle id="Ellipse_11" data-name="Ellipse 11" cx="3.424" cy="3.424" r="3.424" transform="matrix(0.952, -0.306, 0.306, 0.952, 0, 2.096)" fill="#ffed10"/>
        </g>
      </g>
      <g id="Group_1384" data-name="Group 1384" transform="translate(145.507 252.766)">
        <g id="Group_1046" data-name="Group 1046" transform="translate(0 0)">
          <circle id="Ellipse_12" data-name="Ellipse 12" cx="3.424" cy="3.424" r="3.424" transform="translate(0 4.842) rotate(-45)" fill="#ffed10"/>
        </g>
      </g>
      <g id="Group_1385" data-name="Group 1385" transform="translate(100.587 243.54)">
        <g id="Group_1048" data-name="Group 1048" transform="translate(0 0)">
          <circle id="Ellipse_13" data-name="Ellipse 13" cx="3.424" cy="3.424" r="3.424" transform="matrix(0.231, -0.973, 0.973, 0.231, 0, 6.664)" fill="#ffed10"/>
        </g>
      </g>
      <g id="Group_1386" data-name="Group 1386" transform="translate(62.13 219.324)">
        <g id="Group_1050" data-name="Group 1050" transform="translate(0)">
          <circle id="Ellipse_14" data-name="Ellipse 14" cx="3.424" cy="3.424" r="3.424" fill="#ffed10"/>
        </g>
      </g>
      <g id="Group_1387" data-name="Group 1387" transform="translate(34.442 178.742)">
        <g id="Group_1052" data-name="Group 1052">
          <circle id="Ellipse_15" data-name="Ellipse 15" cx="3.424" cy="3.424" r="3.424" fill="#ffed10"/>
        </g>
      </g>
      <g id="Group_1388" data-name="Group 1388" transform="translate(23.501 129.177)">
        <g id="Group_1054" data-name="Group 1054" transform="translate(0 0)">
          <circle id="Ellipse_16" data-name="Ellipse 16" cx="3.424" cy="3.424" r="3.424" transform="translate(0 4.842) rotate(-45)" fill="#ffed10"/>
        </g>
      </g>
      <g id="Group_1389" data-name="Group 1389" transform="translate(33.428 84.559)">
        <g id="Group_1056" data-name="Group 1056" transform="translate(0 0)">
          <circle id="Ellipse_17" data-name="Ellipse 17" cx="3.424" cy="3.424" r="3.424" transform="matrix(0.16, -0.987, 0.987, 0.16, 0, 6.761)" fill="#ffed10"/>
        </g>
      </g>
      <g id="Group_1390" data-name="Group 1390" transform="translate(60.808 43.873)">
        <g id="Group_1058" data-name="Group 1058" transform="translate(0 0)">
          <circle id="Ellipse_18" data-name="Ellipse 18" cx="3.424" cy="3.424" r="3.424" transform="matrix(0.16, -0.987, 0.987, 0.16, 0, 6.761)" fill="#ffed10"/>
        </g>
      </g>
      <g id="Group_1391" data-name="Group 1391" transform="translate(100.103 16.805)">
        <g id="Group_1060" data-name="Group 1060" transform="translate(0 0)">
          <circle id="Ellipse_19" data-name="Ellipse 19" cx="3.424" cy="3.424" r="3.424" transform="translate(0 4.842) rotate(-45)" fill="#ffed10"/>
        </g>
      </g>
      <g id="Group_12013" data-name="Group 12013" transform="translate(0 4.233)">
        <path id="Path_27663" data-name="Path 27663" d="M220.9,331.7c0-3.471,1.556-9.1,6.344-9.1s6.344,5.506,6.344,9.1a6.386,6.386,0,0,1-6.344,6.344A6.309,6.309,0,0,1,220.9,331.7Z" transform="translate(-77.013 -56.642)" fill="#c10222"/>
        <path id="Path_27665" data-name="Path 27665" d="M282.084,318.734c-1.8-3.112-3.112-8.619.958-11.013,4.19-2.394,8.259,1.556,10.055,4.668a6.338,6.338,0,0,1-2.394,8.738A6.468,6.468,0,0,1,282.084,318.734Z" transform="translate(-65.298 -59.719)" fill="#c10222"/>
        <path id="Path_27666" data-name="Path 27666" d="M161.644,109.973c1.8,3.112,5.865,7.062,10.055,4.668s2.753-8.02.958-11.013a6.441,6.441,0,0,0-8.738-2.394A6.376,6.376,0,0,0,161.644,109.973Z" transform="translate(-88.861 -100.418)" fill="#c10222"/>
        <path id="Path_27667" data-name="Path 27667" d="M328.689,276.8c-3.112-1.8-7.062-5.865-4.668-10.055s8.02-2.753,11.013-.958a6.355,6.355,0,1,1-6.344,11.013Z" transform="translate(-56.841 -68.184)" fill="#c10222"/>
        <path id="Path_27668" data-name="Path 27668" d="M119.924,156.356c3.112,1.8,8.619,3.112,11.013-.958,2.394-4.19-1.556-8.26-4.668-10.055a6.338,6.338,0,0,0-8.738,2.394A6.468,6.468,0,0,0,119.924,156.356Z" transform="translate(-97.536 -91.738)" fill="#c10222"/>
        <path id="Path_27669" data-name="Path 27669" d="M348.1,217.289c-3.471,0-9.1-1.556-9.1-6.344s5.506-6.344,9.1-6.344a6.386,6.386,0,0,1,6.344,6.344A6.309,6.309,0,0,1,348.1,217.289Z" transform="translate(-53.744 -79.892)" fill="#c10222"/>
        <path id="Path_27670" data-name="Path 27670" d="M107.045,217.289c3.471,0,9.1-1.556,9.1-6.344s-5.506-6.344-9.1-6.344a6.309,6.309,0,0,0-6.344,6.344A6.235,6.235,0,0,0,107.045,217.289Z" transform="translate(-100.697 -79.892)" fill="#c10222"/>
        <path id="Path_27671" data-name="Path 27671" d="M335.134,156.356c-3.112,1.8-8.619,3.112-11.013-.958-2.394-4.19,1.556-8.26,4.668-10.055a6.338,6.338,0,0,1,8.738,2.394A6.468,6.468,0,0,1,335.134,156.356Z" transform="translate(-56.821 -91.738)" fill="#c10222"/>
        <path id="Path_27672" data-name="Path 27672" d="M126.273,276.8c3.112-1.8,7.062-5.865,4.668-10.055s-8.02-2.753-11.013-.958a6.355,6.355,0,1,0,6.344,11.013Z" transform="translate(-97.54 -68.184)" fill="#c10222"/>
        <path id="Path_27673" data-name="Path 27673" d="M293.2,109.973c-1.8,3.112-5.865,7.062-10.055,4.668s-2.753-8.02-.958-11.013a6.355,6.355,0,1,1,11.013,6.344Z" transform="translate(-65.286 -100.418)" fill="#c10222"/>
        <path id="Path_27674" data-name="Path 27674" d="M172.656,318.734c1.8-3.112,3.112-8.619-.958-11.013-4.19-2.394-8.259,1.556-10.055,4.668a6.338,6.338,0,0,0,2.394,8.738A6.408,6.408,0,0,0,172.656,318.734Z" transform="translate(-88.86 -59.719)" fill="#c10222"/>
      </g>
      <g id="Group_12014" data-name="Group 12014" transform="translate(2.154 6.334)">
        <path id="Path_27675" data-name="Path 27675" d="M222.4,331.338c0-2.514,1.077-8.738,4.549-8.738s4.549,6.1,4.549,8.738a4.547,4.547,0,0,1-4.549,4.549A4.625,4.625,0,0,1,222.4,331.338Z" transform="translate(-78.871 -58.744)" fill="#f93443"/>
        <path id="Path_27677" data-name="Path 27677" d="M283.314,317.374c-1.317-2.155-3.352-8.14-.359-9.816s7.062,2.993,8.379,5.267a4.61,4.61,0,0,1-8.02,4.549Z" transform="translate(-67.245 -61.777)" fill="#f93443"/>
        <path id="Path_27678" data-name="Path 27678" d="M163.107,109.028c1.317,2.155,5.267,6.943,8.379,5.267,2.993-1.676.958-7.661-.359-9.816A4.549,4.549,0,0,0,164.9,102.8,4.345,4.345,0,0,0,163.107,109.028Z" transform="translate(-90.682 -102.174)" fill="#f93443"/>
        <path id="Path_27679" data-name="Path 27679" d="M329.224,274.834c-2.155-1.317-6.943-5.267-5.267-8.379,1.676-2.993,7.661-.958,9.816.359a4.611,4.611,0,0,1-4.549,8.02Z" transform="translate(-58.93 -70.111)" fill="#f93443"/>
        <path id="Path_27680" data-name="Path 27680" d="M120.771,154.624c2.155,1.317,8.14,3.352,9.816.359s-2.993-7.062-5.267-8.379a4.522,4.522,0,0,0-6.225,1.676A4.74,4.74,0,0,0,120.771,154.624Z" transform="translate(-99.339 -93.544)" fill="#f93443"/>
        <path id="Path_27681" data-name="Path 27681" d="M347.738,215.2c-2.514,0-8.738-1.077-8.738-4.549s6.1-4.549,8.738-4.549a4.549,4.549,0,0,1,0,9.1Z" transform="translate(-55.898 -81.697)" fill="#f93443"/>
        <path id="Path_27682" data-name="Path 27682" d="M107.049,215.2c2.514,0,8.738-1.077,8.738-4.549s-6.1-4.549-8.738-4.549a4.547,4.547,0,0,0-4.549,4.549A4.472,4.472,0,0,0,107.049,215.2Z" transform="translate(-102.496 -81.697)" fill="#f93443"/>
        <path id="Path_27683" data-name="Path 27683" d="M333.774,154.624c-2.155,1.317-8.14,3.352-9.816.359s2.993-7.062,5.267-8.379a4.61,4.61,0,0,1,4.549,8.02Z" transform="translate(-58.931 -93.544)" fill="#f93443"/>
        <path id="Path_27684" data-name="Path 27684" d="M125.428,274.834c2.155-1.317,6.943-5.267,5.267-8.379-1.676-2.993-7.661-.958-9.816.359a4.549,4.549,0,0,0-1.676,6.225A4.345,4.345,0,0,0,125.428,274.834Z" transform="translate(-99.328 -70.111)" fill="#f93443"/>
        <path id="Path_27685" data-name="Path 27685" d="M291.234,109.028c-1.317,2.155-5.267,6.943-8.379,5.267-2.993-1.676-.958-7.661.359-9.816a4.549,4.549,0,0,1,6.225-1.676A4.434,4.434,0,0,1,291.234,109.028Z" transform="translate(-67.265 -102.174)" fill="#f93443"/>
        <path id="Path_27686" data-name="Path 27686" d="M171.024,317.374c1.317-2.155,3.352-8.14.359-9.816s-7.062,2.993-8.379,5.267a4.61,4.61,0,0,0,8.02,4.549Z" transform="translate(-90.698 -61.777)" fill="#f93443"/>
      </g>
      <g id="Group_12015" data-name="Group 12015" transform="translate(2.517 5.474)">
        <path id="Path_27687" data-name="Path 27687" d="M222.8,328.273a2.873,2.873,0,1,1,5.746,0,2.913,2.913,0,0,1-2.873,2.873A2.764,2.764,0,0,1,222.8,328.273Z" transform="translate(-79.156 -57.332)" fill="#ffbe78"/>
        <path id="Path_27689" data-name="Path 27689" d="M283.268,313.718a2.9,2.9,0,1,1,3.95,1.077A3,3,0,0,1,283.268,313.718Z" transform="translate(-67.324 -60.493)" fill="#ffbe78"/>
        <path id="Path_27690" data-name="Path 27690" d="M163.268,105.818a2.9,2.9,0,1,0,1.077-3.95A2.817,2.817,0,0,0,163.268,105.818Z" transform="translate(-90.967 -101.456)" fill="#ffbe78"/>
        <path id="Path_27691" data-name="Path 27691" d="M328.231,270.8a2.783,2.783,0,0,1-.958-3.95,2.9,2.9,0,0,1,5.027,2.873A2.98,2.98,0,0,1,328.231,270.8Z" transform="translate(-58.66 -69.163)" fill="#ffbe78"/>
        <path id="Path_27692" data-name="Path 27692" d="M120.326,150.8a2.817,2.817,0,0,0,3.95-1.077,2.883,2.883,0,0,0-.958-3.95,2.817,2.817,0,0,0-3.95,1.077A2.883,2.883,0,0,0,120.326,150.8Z" transform="translate(-99.618 -92.806)" fill="#ffbe78"/>
        <path id="Path_27693" data-name="Path 27693" d="M345.773,211.146a2.836,2.836,0,0,1-2.873-2.873,2.766,2.766,0,0,1,2.873-2.873,2.913,2.913,0,0,1,2.873,2.873A2.836,2.836,0,0,1,345.773,211.146Z" transform="translate(-55.493 -80.975)" fill="#ffbe78"/>
        <path id="Path_27694" data-name="Path 27694" d="M105.673,211.146a2.836,2.836,0,0,0,2.873-2.873,2.766,2.766,0,0,0-2.873-2.873,2.913,2.913,0,0,0-2.873,2.873A2.836,2.836,0,0,0,105.673,211.146Z" transform="translate(-102.8 -80.975)" fill="#ffbe78"/>
        <path id="Path_27695" data-name="Path 27695" d="M331.119,150.8a2.817,2.817,0,0,1-3.95-1.077,2.883,2.883,0,0,1,.958-3.95,2.817,2.817,0,0,1,3.95,1.077A2.694,2.694,0,0,1,331.119,150.8Z" transform="translate(-58.675 -92.806)" fill="#ffbe78"/>
        <path id="Path_27696" data-name="Path 27696" d="M123.238,270.8a2.783,2.783,0,0,0,.958-3.95,2.9,2.9,0,0,0-5.028,2.873A3.006,3.006,0,0,0,123.238,270.8Z" transform="translate(-99.656 -69.163)" fill="#ffbe78"/>
        <path id="Path_27697" data-name="Path 27697" d="M288.3,105.818a2.9,2.9,0,1,1-1.077-3.95A3,3,0,0,1,288.3,105.818Z" transform="translate(-67.324 -101.456)" fill="#ffbe78"/>
        <path id="Path_27698" data-name="Path 27698" d="M168.3,313.718a2.9,2.9,0,1,0-3.95,1.077A3.066,3.066,0,0,0,168.3,313.718Z" transform="translate(-90.967 -60.493)" fill="#ffbe78"/>
      </g>
    </g>
  </g>
</svg>
