<svg xmlns="http://www.w3.org/2000/svg" width="14" height="8" viewBox="0 0 14 8">
  <g id="_22_Icons_Line_Right_arrow" data-name="22) Icons/Line/Right arrow" transform="translate(14 0) rotate(90)">
    <g id="Group_62" data-name="Group 62" transform="translate(-8 -5)">
      <path id="_Icon_Color" data-name="🎨 Icon Color" d="M-2.759,7l-4.906,5.008a1.184,1.184,0,0,0,0,1.65A1.126,1.126,0,0,0-6.857,14a1.126,1.126,0,0,0,.808-.342L-.335,7.825a1.184,1.184,0,0,0,0-1.65L-6.049.342A1.126,1.126,0,0,0-6.857,0a1.126,1.126,0,0,0-.808.342,1.184,1.184,0,0,0,0,1.65Z" transform="translate(16 5)" fill="#8a1538"/>
    </g>
  </g>
</svg>
