<svg id="backward-driving" xmlns="http://www.w3.org/2000/svg" width="28.268" height="32" viewBox="0 0 28.268 32">
  <g id="forward_30_black_24dp" transform="translate(0 8)">
    <path id="Path_10659" data-name="Path 10659" d="M24,0H0V24H24Z" fill="none"/>
    <path id="Path_10660" data-name="Path 10660" d="M6.083,13a6.134,6.134,0,0,0,6.25,6,6.134,6.134,0,0,0,6.25-6,6.134,6.134,0,0,0-6.25-6v4L7.125,6l5.208-5V5a8.17,8.17,0,0,1,8.333,8,8.17,8.17,0,0,1-8.333,8A8.17,8.17,0,0,1,4,13Z" transform="translate(0 1)" fill="#8a1538"/>
  </g>
  <text id="_15" data-name="15" transform="translate(16.268 11)" fill="#8a1538" font-size="10" font-family="IRANSans" letter-spacing="-0.05em"><tspan x="0" y="0">15</tspan></text>
</svg>
