<svg id="comment" xmlns="http://www.w3.org/2000/svg" width="24" height="24" viewBox="0 0 24 24">
  <path id="Path_30594" data-name="Path 30594" d="M8.5,2.25C3.805,2.25,0,5.341,0,9.156A6.13,6.13,0,0,0,1.893,13.5a8.447,8.447,0,0,1-1.82,3.181.264.264,0,0,0-.05.289.26.26,0,0,0,.242.159,7.593,7.593,0,0,0,4.668-1.707,10.126,10.126,0,0,0,3.566.644c4.7,0,8.5-3.091,8.5-6.906S13.195,2.25,8.5,2.25ZM4.25,10.219A1.061,1.061,0,1,1,5,9.908a1.063,1.063,0,0,1-.752.311Zm4.25,0a1.061,1.061,0,1,1,.752-.311A1.063,1.063,0,0,1,8.5,10.219Zm4.25,0a1.061,1.061,0,1,1,.752-.31,1.063,1.063,0,0,1-.752.31Z" transform="translate(4 2.75)" fill="#8a1538"/>
  <rect id="Rectangle_3543" data-name="Rectangle 3543" width="24" height="24" fill="none"/>
</svg>
