<svg id="forward-driving" xmlns="http://www.w3.org/2000/svg" width="28.198" height="32" viewBox="0 0 28.198 32">
  <g id="forward_30_black_24dp" transform="translate(0 8)">
    <path id="Path_10659" data-name="Path 10659" d="M0,0H24V24H0Z" fill="none"/>
    <path id="Path_10660" data-name="Path 10660" d="M18.583,13a6.134,6.134,0,0,1-6.25,6,6.134,6.134,0,0,1-6.25-6,6.134,6.134,0,0,1,6.25-6v4l5.208-5L12.333,1V5A8.17,8.17,0,0,0,4,13a8.17,8.17,0,0,0,8.333,8,8.17,8.17,0,0,0,8.333-8Z" transform="translate(-0.667 1)" fill="#8a1538"/>
  </g>
  <text id="_15" data-name="15" transform="translate(16.198 11)" fill="#8a1538" font-size="10" font-family="IRANSans" letter-spacing="-0.05em"><tspan x="0" y="0">15</tspan></text>
</svg>
