<svg id="lyrics" xmlns="http://www.w3.org/2000/svg" width="24" height="24" viewBox="0 0 24 24">
  <g id="Group_2887" data-name="Group 2887" transform="translate(5 6)">
    <path id="Path_30596" data-name="Path 30596" d="M.941,12A.94.94,0,0,1,0,11.06v-.121A.94.94,0,0,1,.941,10h3.12a.94.94,0,0,1,.94.94v.121a.94.94,0,0,1-.94.94Zm0-5A.941.941,0,0,1,0,6.06V5.94A.941.941,0,0,1,.941,5h3.12A.94.94,0,0,1,5,5.94v.12A.94.94,0,0,1,4.061,7Zm0-5A.94.94,0,0,1,0,1.06V.94A.94.94,0,0,1,.941,0h12.12A.94.94,0,0,1,14,.94v.12a.94.94,0,0,1-.94.94Z" transform="translate(14 12) rotate(180)" fill="#8a1538"/>
  </g>
  <rect id="Rectangle_3545" data-name="Rectangle 3545" width="24" height="24" fill="none"/>
</svg>
