<svg id="repeat-active" xmlns="http://www.w3.org/2000/svg" width="24" height="24" viewBox="0 0 24 24">
  <path id="Path_10666" data-name="Path 10666" d="M0,0H24V24H0Z" fill="none"/>
  <g id="repeat_one_on_black_24dp">
    <g id="Group_2793" data-name="Group 2793">
      <rect id="Rectangle_685" data-name="Rectangle 685" width="24" height="24" fill="none"/>
    </g>
    <g id="Group_2794" data-name="Group 2794">
      <path id="Path_10681" data-name="Path 10681" d="M21,1H3A2.006,2.006,0,0,0,1,3V21a2.006,2.006,0,0,0,2,2H21a2.006,2.006,0,0,0,2-2V3a2.006,2.006,0,0,0-2-2ZM19,19H7v3L3,18l4-4v3H17V13h2Zm-9-8.5V9h3v6H11.5V10.5Zm7-.5V7H7v4H5V5H17V2l4,4Z" fill="#8a1538"/>
    </g>
  </g>
</svg>
