<svg id="share" xmlns="http://www.w3.org/2000/svg" width="24" height="24" viewBox="0 0 24 24">
  <g id="Group_2074" data-name="Group 2074" transform="translate(4 3)">
    <path id="Icon_material-share" data-name="Icon material-share" d="M18.667,15.723a2.819,2.819,0,0,0-1.851.7l-6.734-3.75a2.4,2.4,0,0,0,0-1.265L16.74,7.69a2.891,2.891,0,0,0,1.927.732A2.77,2.77,0,0,0,21.5,5.711a2.836,2.836,0,0,0-5.667,0,2.837,2.837,0,0,0,.085.633L9.26,10.057a2.891,2.891,0,0,0-1.927-.732,2.713,2.713,0,1,0,0,5.422,2.891,2.891,0,0,0,1.927-.732l6.724,3.759a2.445,2.445,0,0,0-.076.587,2.76,2.76,0,1,0,2.758-2.639Z" transform="translate(-4.5 -3)" fill="#8a1538"/>
  </g>
  <rect id="Rectangle_659" data-name="Rectangle 659" width="24" height="24" fill="none"/>
</svg>
