<svg id="speed" xmlns="http://www.w3.org/2000/svg" width="24" height="24" viewBox="0 0 24 24">
  <path id="Path_30598" data-name="Path 30598" d="M0,0H24V24H0Z" fill="none"/>
  <g id="Group_2888" data-name="Group 2888" transform="translate(0.968 0.963)">
    <path id="Path_30599" data-name="Path 30599" d="M18.125,8.013,17.046,9.635a7.017,7.017,0,0,1-.193,6.648H4.7A7.017,7.017,0,0,1,13.915,6.5l1.623-1.079a8.771,8.771,0,0,0-12.35,11.74,1.754,1.754,0,0,0,1.509.877H16.844a1.754,1.754,0,0,0,1.526-.877A8.771,8.771,0,0,0,18.133,8Z" fill="#8a1538"/>
    <path id="Path_30600" data-name="Path 30600" d="M10.59,15.046a2.064,2.064,0,0,0,2.83,0L19.08,6.92l-8.49,5.417a1.857,1.857,0,0,0,0,2.709Z" transform="translate(-1.968 -0.658)" fill="#8a1538"/>
  </g>
</svg>
