<svg width="48" height="48" viewBox="0 0 48 48" fill="none" xmlns="http://www.w3.org/2000/svg">
<path d="M35.9996 21.6H33.5996V14.4C33.5996 9.12005 29.2796 4.80005 23.9996 4.80005C18.7196 4.80005 14.3996 9.12005 14.3996 14.4V21.6H11.9996C10.7996 21.6 9.59961 22.8 9.59961 24V40.8C9.59961 42 10.7996 43.2001 11.9996 43.2001H35.9996C37.1996 43.2001 38.3996 42 38.3996 40.8V24C38.3996 22.8 37.1996 21.6 35.9996 21.6ZM26.3996 38.4001H21.5996L22.5596 33.1201C21.3596 32.6401 20.3996 31.2001 20.3996 30C20.3996 28.08 22.0796 26.4 23.9996 26.4C25.9196 26.4 27.5996 28.08 27.5996 30C27.5996 31.4401 26.8796 32.6401 25.4396 33.1201L26.3996 38.4001ZM28.7996 21.6H19.1996V14.4C19.1996 11.76 21.3596 9.60005 23.9996 9.60005C26.6396 9.60005 28.7996 11.76 28.7996 14.4V21.6Z" fill="white"/>
</svg>
