<svg id="Volume-3" xmlns="http://www.w3.org/2000/svg" width="21" height="18" viewBox="0 0 21 18">
  <path id="Volume" d="M1.458,12V6l5.96-6V18Zm11.077,2.154a7.456,7.456,0,0,0,0-10.306l.795-.8a8.3,8.3,0,0,1,0,11.89ZM-1,12V6H1.458v6Zm10.583-.818a3.125,3.125,0,0,0,0-4.362l.8-.8a4.329,4.329,0,0,1,0,5.944Z" transform="translate(1)" fill="#8a1538"/>
  <path id="Volume-2" data-name="Volume" d="M13.785,17.111a11.366,11.366,0,0,0,0-16.252l.8-.8a12.558,12.558,0,0,1,0,17.834Z" transform="translate(2.699 0.017)" fill="#8a1538"/>
</svg>
