<svg width="24" height="24" viewBox="0 0 24 24" fill="none" xmlns="http://www.w3.org/2000/svg">
<path d="M4.5759 4.57492C4.85719 4.29372 5.23865 4.13574 5.6364 4.13574C6.03414 4.13574 6.41561 4.29372 6.6969 4.57492L12.0009 9.87892L17.3049 4.57492C17.5878 4.30168 17.9667 4.15049 18.36 4.15391C18.7533 4.15733 19.1295 4.31508 19.4076 4.59319C19.6857 4.87131 19.8435 5.24752 19.8469 5.64082C19.8503 6.03412 19.6991 6.41302 19.4259 6.69592L14.1219 11.9999L19.4259 17.3039C19.6991 17.5868 19.8503 17.9657 19.8469 18.359C19.8435 18.7523 19.6857 19.1285 19.4076 19.4066C19.1295 19.6848 18.7533 19.8425 18.36 19.8459C17.9667 19.8493 17.5878 19.6982 17.3049 19.4249L12.0009 14.1209L6.6969 19.4249C6.414 19.6982 6.03509 19.8493 5.6418 19.8459C5.2485 19.8425 4.87228 19.6848 4.59417 19.4066C4.31606 19.1285 4.1583 18.7523 4.15489 18.359C4.15147 17.9657 4.30266 17.5868 4.5759 17.3039L9.8799 11.9999L4.5759 6.69592C4.29469 6.41463 4.13672 6.03317 4.13672 5.63542C4.13672 5.23768 4.29469 4.85621 4.5759 4.57492Z" fill="black"/>
</svg>
