<svg width="24" height="24" viewBox="0 0 24 24" fill="none" xmlns="http://www.w3.org/2000/svg">
<path d="M18 3H6L3 9L12 19L16 8.5H21L18 3Z" fill="#3F98FF"/>
<path d="M17.999 2C18.1168 1.99991 18.2329 2.02757 18.3381 2.08074C18.4432 2.1339 18.5343 2.21107 18.604 2.306L18.659 2.393L21.922 8.421L21.96 8.514L21.972 8.554L21.992 8.656L21.998 8.75C21.9981 8.81758 21.989 8.88485 21.971 8.95L21.924 9.075L21.886 9.144C21.8735 9.16392 21.8602 9.18327 21.846 9.202C21.8349 9.2171 21.8232 9.23178 21.811 9.246L21.83 9.221L20.556 10.667C20.1246 10.3529 19.6268 10.1422 19.101 10.051L19.587 9.5H16.612L12.7 19.523C12.645 19.6638 12.5487 19.7847 12.4238 19.8698C12.2989 19.9549 12.1512 20.0003 12 20H11.997C11.9659 20 11.9348 19.998 11.904 19.994H11.9L11.895 19.993C11.8602 19.9878 11.8257 19.9801 11.792 19.97L11.782 19.968C11.7209 19.9505 11.6624 19.9249 11.608 19.892L11.599 19.885C11.5515 19.8558 11.5079 19.8209 11.469 19.781L2.179 9.235L2.153 9.203L2.113 9.144C2.05634 9.0525 2.02018 8.94981 2.007 8.843L2 8.75L2.003 8.684L2.016 8.595C2.02223 8.56587 2.03025 8.53715 2.04 8.509L2.062 8.45L2.09 8.393L5.34 2.393C5.39603 2.28946 5.47565 2.20056 5.57242 2.1335C5.66918 2.06644 5.78038 2.02311 5.897 2.007L5.999 2H17.999ZM15.002 9.5H8.998L11.998 17.187L12 17.184V17.188L15.002 9.5ZM7.389 9.5H4.409L9.76 15.574L7.389 9.5ZM8.971 3.5H6.445L4.007 8H7.531L8.971 3.5ZM13.451 3.5H10.546L9.105 8H14.89L13.45 3.5H13.451ZM17.551 3.5H15.026L16.466 8H19.988L17.551 3.5ZM21 13.5C21 14.163 20.7366 14.7989 20.2678 15.2678C19.7989 15.7366 19.163 16 18.5 16C17.837 16 17.2011 15.7366 16.7322 15.2678C16.2634 14.7989 16 14.163 16 13.5C16 12.837 16.2634 12.2011 16.7322 11.7322C17.2011 11.2634 17.837 11 18.5 11C19.163 11 19.7989 11.2634 20.2678 11.7322C20.7366 12.2011 21 12.837 21 13.5ZM23 18.875C23 20.431 21.714 22 18.5 22C15.286 22 14 20.437 14 18.875V18.772C14 17.792 14.794 17 15.773 17H21.227C22.207 17 23 17.793 23 18.772V18.875Z" fill="white"/>
</svg>
