<svg xmlns="http://www.w3.org/2000/svg" width="252.759" height="245.878" viewBox="0 0 252.759 245.878">
  <g id="objects" transform="translate(-31.563 -56.091)">
    <g id="Group_2933" data-name="Group 2933" transform="translate(31.563 56.091)">
      <g id="Group_2900" data-name="Group 2900" transform="translate(0 81.068)">
        <path id="Path_10692" data-name="Path 10692" d="M119.981,222.136c11.206-2.276,8.988-17.567,8.521-19.027-1.342-4.085-3.794-7.12-8.113-7.879-3.677-.584-7.762-.233-10.447,2.626-1.809,1.984-2.276,3.969-3.677,5.428-1.517,1.517-3.385.525-5.078.117-1.926-.584-5.778-1.342-9.163.117-3.21,1.4-7.646,5.369-7.062,8.93C85.488,216.007,100.079,227.68,119.981,222.136Z" transform="translate(-53.775 -194.992)" fill="#b8d3e6"/>
        <path id="Path_10693" data-name="Path 10693" d="M85.22,257.079a16.975,16.975,0,0,1-1.809-.233c-3.327-.7-6.362-1.984-9.747-2.276-2.568-.233-4.786.875-7.237,1.576a18.21,18.21,0,0,1-10.155,0,22.383,22.383,0,0,1-3.443-1.4c-1.167-.525-1.751-.233-2.977.175-3.152.992-6.362,1.693-9.63.642-6.537-2.159-12.023-11.206-6.187-16.867a9.04,9.04,0,0,1,4.085-2.218c1.459-.409,3.152-.35,4.552-1.051,2.1-1.051,2.1-3.268,2.451-5.253a38,38,0,0,1,1.342-5.661,16.092,16.092,0,0,1,7.587-8.813c8.7-4.727,16.867-.875,20.252,5.486,9.98-6.187,18.384-2.393,20.6,11.614,5.428-.875,9.28,4.961,9.338,9.805a10.251,10.251,0,0,1-2.451,6.6c-1.517,1.809-3.677,2.685-5.311,4.319C93.8,256.262,89.189,257.371,85.22,257.079Z" transform="translate(-31.563 -202.738)" fill="#99b6ca"/>
        <g id="Group_2858" data-name="Group 2858" transform="translate(23.181 57.551)">
          <g id="Group_2832" data-name="Group 2832" transform="translate(8.941)">
            <path id="Path_10694" data-name="Path 10694" d="M86.892,310.642a.276.276,0,0,1-.292-.292V293.892a.292.292,0,0,1,.584,0V310.35A.276.276,0,0,1,86.892,310.642Z" transform="translate(-86.6 -293.6)" fill="#99b6ca"/>
          </g>
          <g id="Group_2833" data-name="Group 2833" transform="translate(0.828 8.229)">
            <path id="Path_10695" data-name="Path 10695" d="M89.275,308.284H72.992a.292.292,0,1,1,0-.584H89.275a.276.276,0,0,1,.292.292A.313.313,0,0,1,89.275,308.284Z" transform="translate(-72.7 -307.7)" fill="#99b6ca"/>
          </g>
          <g id="Group_2834" data-name="Group 2834" transform="translate(3.017 2.947)">
            <path id="Path_10696" data-name="Path 10696" d="M76.771,310.06a.351.351,0,0,1-.233-.058.282.282,0,0,1,0-.409l10.856-10.856a.289.289,0,0,1,.409.409L77,309.943A.442.442,0,0,1,76.771,310.06Z" transform="translate(-76.45 -298.65)" fill="#99b6ca"/>
          </g>
          <g id="Group_2835" data-name="Group 2835" transform="translate(3.834 2.947)">
            <path id="Path_10697" data-name="Path 10697" d="M88.268,309.3a.351.351,0,0,1-.233-.058l-10.1-10.1a.289.289,0,0,1,.409-.409l10.1,10.1a.282.282,0,0,1,0,.409C88.443,309.3,88.385,309.3,88.268,309.3Z" transform="translate(-77.85 -298.65)" fill="#99b6ca"/>
          </g>
          <g id="Group_2836" data-name="Group 2836" transform="translate(3.09 2.364)">
            <path id="Path_10698" data-name="Path 10698" d="M76.881,301.239h3.327a.276.276,0,0,0,.292-.292c.058-.992.117-1.984.233-3.035a.293.293,0,0,0-.584,0c-.058.992-.117,1.984-.233,3.035l.292-.292H76.881a.292.292,0,1,0,0,.584Z" transform="translate(-76.575 -297.65)" fill="#99b6ca"/>
          </g>
          <g id="Group_2837" data-name="Group 2837" transform="translate(11.334 2.451)">
            <path id="Path_10699" data-name="Path 10699" d="M94.61,301.652H90.992a.442.442,0,0,1-.233-.117c-.058-.058-.058-.117-.058-.233l.175-3.21a.292.292,0,0,1,.584,0l-.117,2.918h3.327a.276.276,0,0,1,.292.292Q94.873,301.652,94.61,301.652Z" transform="translate(-90.7 -297.8)" fill="#99b6ca"/>
          </g>
          <g id="Group_2838" data-name="Group 2838" transform="translate(11.626 10.739)">
            <path id="Path_10700" data-name="Path 10700" d="M91.492,315.735a.276.276,0,0,1-.292-.292v-3.152a.276.276,0,0,1,.292-.292h3.735a.292.292,0,1,1,0,.584H91.784v2.86A.276.276,0,0,1,91.492,315.735Z" transform="translate(-91.2 -312)" fill="#99b6ca"/>
          </g>
          <g id="Group_2839" data-name="Group 2839" transform="translate(3.105 11.089)">
            <path id="Path_10701" data-name="Path 10701" d="M79.285,316.16h0a.276.276,0,0,1-.292-.292l.117-2.451-2.218-.233a.292.292,0,0,1,0-.584l2.51.233a.313.313,0,0,1,.292.292l-.117,2.743A.276.276,0,0,1,79.285,316.16Z" transform="translate(-76.6 -312.6)" fill="#99b6ca"/>
          </g>
          <g id="Group_2840" data-name="Group 2840" transform="translate(1.874 6.047)">
            <path id="Path_10702" data-name="Path 10702" d="M74.788,308.711a.214.214,0,0,1-.175-.058.288.288,0,0,1-.058-.409l1.226-1.809-.934-2.043a.3.3,0,1,1,.525-.292l1.051,2.159a.265.265,0,0,1,0,.292l-1.284,1.926A.422.422,0,0,1,74.788,308.711Z" transform="translate(-74.491 -303.961)" fill="#99b6ca"/>
          </g>
          <g id="Group_2841" data-name="Group 2841" transform="translate(14.806 6.498)">
            <path id="Path_10703" data-name="Path 10703" d="M98.839,309.267a.443.443,0,0,1-.233-.117l-1.868-2.218a.219.219,0,0,1,0-.35l1.4-1.751a.36.36,0,0,1,.409-.058.288.288,0,0,1,.058.409l-1.284,1.576,1.751,2.043a.25.25,0,0,1-.058.409A.214.214,0,0,1,98.839,309.267Z" transform="translate(-96.65 -304.734)" fill="#99b6ca"/>
          </g>
          <g id="Group_2842" data-name="Group 2842" transform="translate(7.394 0.502)">
            <path id="Path_10704" data-name="Path 10704" d="M85.788,296.526a.214.214,0,0,1-.175-.058l-1.576-1.459a.289.289,0,0,1,.409-.409l1.4,1.284,1.634-1.342a.292.292,0,0,1,.35.467l-1.809,1.517Z" transform="translate(-83.95 -294.461)" fill="#99b6ca"/>
          </g>
          <g id="Group_2843" data-name="Group 2843" transform="translate(7.185 14.605)">
            <path id="Path_10705" data-name="Path 10705" d="M87.507,320.653a.214.214,0,0,1-.175-.058L85.7,319.311l-1.634,1.167a.292.292,0,0,1-.35-.467l1.809-1.342a.372.372,0,0,1,.35,0l1.809,1.459a.288.288,0,0,1,.058.409A.3.3,0,0,1,87.507,320.653Z" transform="translate(-83.591 -318.625)" fill="#99b6ca"/>
          </g>
          <g id="Group_2844" data-name="Group 2844" transform="translate(4.607 6.463)">
            <path id="Path_10706" data-name="Path 10706" d="M79.189,305.039l.35.875c.058.175.233.409.292.584.058.35.642.35.584,0a2.158,2.158,0,0,0-.292-.642,5.048,5.048,0,0,1-.409-.992c-.058-.35-.642-.175-.525.175Z" transform="translate(-79.174 -304.673)" fill="#99b6ca"/>
          </g>
          <g id="Group_2845" data-name="Group 2845" transform="translate(4.564 8.107)">
            <path id="Path_10707" data-name="Path 10707" d="M79.917,307.613c-.175.292-.292.642-.467.934a1.591,1.591,0,0,0-.35.7c0,.175.058.35.175.35h0c.35.058.525-.467.175-.584h0l.175.35a2.266,2.266,0,0,1,.35-.642,6.381,6.381,0,0,1,.467-.875c.233-.233-.292-.525-.525-.233Z" transform="translate(-79.1 -307.49)" fill="#99b6ca"/>
          </g>
          <g id="Group_2846" data-name="Group 2846" transform="translate(7.732 3.724)">
            <path id="Path_10708" data-name="Path 10708" d="M84.628,300.459c.409.35.759.759,1.109,1.109.117-.175.233-.292.35-.467l.058.058c-.233-.292-.7,0-.525.292l.175.175a.3.3,0,0,0,.35-.467c-.409-.35-.7-.759-1.109-1.109-.292-.233-.7.175-.409.409Z" transform="translate(-84.528 -299.981)" fill="#99b6ca"/>
          </g>
          <g id="Group_2847" data-name="Group 2847" transform="translate(8.84 3.782)">
            <path id="Path_10709" data-name="Path 10709" d="M86.937,301.726a4.459,4.459,0,0,0,.525-.525,3.06,3.06,0,0,1,.584-.642c.292-.233-.117-.642-.409-.409l-.525.525a3.345,3.345,0,0,1-.642.642c-.175.292.233.7.467.409Z" transform="translate(-86.427 -300.081)" fill="#99b6ca"/>
          </g>
          <g id="Group_2848" data-name="Group 2848" transform="translate(12.081 7.024)">
            <path id="Path_10710" data-name="Path 10710" d="M92.459,307.248a4.088,4.088,0,0,1,.584-.467c.233-.175.467-.409.7-.584.292-.233,0-.7-.292-.525a6.179,6.179,0,0,0-.7.584,6.181,6.181,0,0,1-.7.584c-.233.233.175.642.409.409Z" transform="translate(-91.981 -305.634)" fill="#99b6ca"/>
          </g>
          <g id="Group_2849" data-name="Group 2849" transform="translate(12.113 8.071)">
            <path id="Path_10711" data-name="Path 10711" d="M92.073,307.879a8.268,8.268,0,0,0,.817,1.342c.233.292.7,0,.525-.292-.292-.409-.525-.875-.817-1.342a.3.3,0,1,0-.525.292Z" transform="translate(-92.034 -307.429)" fill="#99b6ca"/>
          </g>
          <g id="Group_2850" data-name="Group 2850" transform="translate(7.323 11.292)">
            <path id="Path_10712" data-name="Path 10712" d="M84.337,314.787a11.3,11.3,0,0,0,1.576-1.342c-.175,0-.292-.058-.467-.058a21.632,21.632,0,0,0,1.576,1.693c.233.292.642-.117.409-.409a18.657,18.657,0,0,1-1.459-1.576c-.117-.117-.35-.233-.467-.058a11.3,11.3,0,0,1-1.576,1.342c-.292.233.117.642.409.409Z" transform="translate(-83.828 -312.947)" fill="#99b6ca"/>
          </g>
          <g id="Group_2851" data-name="Group 2851" transform="translate(12.93 1.889)">
            <path id="Path_10713" data-name="Path 10713" d="M93.589,297.107c-.058.35-.058.759-.117,1.109a1.283,1.283,0,0,0,.058.817.3.3,0,0,0,.409.175c.35-.175.759-.058,1.109-.117a6.788,6.788,0,0,0,1.051-.233c.35-.175.058-.642-.292-.525-.7.292-1.459.058-2.159.409.117.058.292.117.409.175a1.923,1.923,0,0,1,0-.817c.058-.35.058-.7.117-1.051,0-.292-.584-.292-.584.058Z" transform="translate(-93.434 -296.837)" fill="#99b6ca"/>
          </g>
          <g id="Group_2852" data-name="Group 2852" transform="translate(17.083 7.49)">
            <path id="Path_10714" data-name="Path 10714" d="M101.63,306.472a6.37,6.37,0,0,0-.992.759.282.282,0,0,0,0,.409l.7.7c.117.117.292.35.467.409.35.058.525-.525.175-.584.175,0,.117.058,0-.058l-.233-.233c-.233-.233-.467-.409-.7-.642v.409a2.584,2.584,0,0,1,.875-.7c.292-.175,0-.642-.292-.467Z" transform="translate(-100.55 -306.434)" fill="#99b6ca"/>
          </g>
          <g id="Group_2853" data-name="Group 2853" transform="translate(8.199 16.552)">
            <path id="Path_10715" data-name="Path 10715" d="M85.837,323.151c.292-.35.7-.409.992-.759-.175,0-.292.058-.467.058l.875.875c.292.233.7-.175.409-.409l-.875-.875a.309.309,0,0,0-.467.058c-.233.292-.642.35-.875.642a.29.29,0,1,0,.409.409Z" transform="translate(-85.328 -321.961)" fill="#99b6ca"/>
          </g>
          <g id="Group_2854" data-name="Group 2854" transform="translate(0 7.369)">
            <path id="Path_10716" data-name="Path 10716" d="M71.35,306.678c.233.175.35.467.584.642.058.058.175.058.233.117,0-.175-.058-.233-.117-.117l-.117.117c-.175.233-.525.525-.525.817a.293.293,0,0,0,.584,0c0,.175,0,.058.117-.058.058-.058.117-.175.175-.233a2.051,2.051,0,0,0,.409-.525.368.368,0,0,0-.175-.467,1.221,1.221,0,0,1-.35-.233,2.7,2.7,0,0,0-.409-.409c-.233-.292-.642.117-.409.35Z" transform="translate(-71.281 -306.227)" fill="#99b6ca"/>
          </g>
          <g id="Group_2855" data-name="Group 2855" transform="translate(2.11 12.829)">
            <path id="Path_10717" data-name="Path 10717" d="M75.248,316.351c.584-.175,1.226,0,1.809-.175-.117-.117-.233-.175-.35-.292v1.751a.293.293,0,0,0,.584,0v-1.751a.292.292,0,0,0-.35-.292c-.584.175-1.226,0-1.809.175-.409.117-.233.7.117.584Z" transform="translate(-74.895 -315.58)" fill="#99b6ca"/>
          </g>
          <g id="Group_2856" data-name="Group 2856" transform="translate(13.26 12.369)">
            <path id="Path_10718" data-name="Path 10718" d="M94.642,316.665a10.331,10.331,0,0,1,.058-1.342,1.024,1.024,0,0,0-.292.233l1.926-.175c.35-.058.35-.642,0-.584-.642.058-1.284.058-1.926.175a.3.3,0,0,0-.292.233A13.279,13.279,0,0,0,94,316.723c.058.292.642.292.642-.058Z" transform="translate(-94 -314.793)" fill="#99b6ca"/>
          </g>
          <g id="Group_2857" data-name="Group 2857" transform="translate(3.043 2.13)">
            <path id="Path_10719" data-name="Path 10719" d="M76.848,299.38a2.847,2.847,0,0,1,.992.058c.233,0,.525.058.7-.117a1.076,1.076,0,0,0,.233-.759c0-.35.058-.7.058-1.051a.293.293,0,0,0-.584,0c0,.292-.058.525-.058.817v.525h0c-.467.058-.992-.175-1.459,0-.409.058-.233.584.117.525Z" transform="translate(-76.495 -297.25)" fill="#99b6ca"/>
          </g>
        </g>
        <g id="Group_2885" data-name="Group 2885" transform="translate(35.348 84.165)">
          <g id="Group_2859" data-name="Group 2859" transform="translate(7.454)">
            <path id="Path_10720" data-name="Path 10720" d="M105.192,353.441a.276.276,0,0,1-.292-.292V339.492a.292.292,0,0,1,.584,0v13.657A.375.375,0,0,1,105.192,353.441Z" transform="translate(-104.9 -339.2)" fill="#b8d3e6"/>
          </g>
          <g id="Group_2860" data-name="Group 2860" transform="translate(0.684 6.77)">
            <path id="Path_10721" data-name="Path 10721" d="M107.074,351.384H93.592a.292.292,0,1,1,0-.584h13.482a.292.292,0,1,1,0,.584Z" transform="translate(-93.3 -350.8)" fill="#b8d3e6"/>
          </g>
          <g id="Group_2861" data-name="Group 2861" transform="translate(2.464 2.422)">
            <path id="Path_10722" data-name="Path 10722" d="M96.671,352.892a.351.351,0,0,1-.233-.058.282.282,0,0,1,0-.409l8.988-8.988a.289.289,0,1,1,.409.409l-8.988,8.988C96.846,352.892,96.788,352.892,96.671,352.892Z" transform="translate(-96.35 -343.35)" fill="#b8d3e6"/>
          </g>
          <g id="Group_2862" data-name="Group 2862" transform="translate(3.164 2.48)">
            <path id="Path_10723" data-name="Path 10723" d="M106.275,352.35a.351.351,0,0,1-.233-.058l-8.4-8.346a.289.289,0,0,1,.409-.409l8.4,8.346a.282.282,0,0,1,0,.409C106.45,352.35,106.334,352.35,106.275,352.35Z" transform="translate(-97.55 -343.45)" fill="#b8d3e6"/>
          </g>
          <g id="Group_2863" data-name="Group 2863" transform="translate(2.581 1.955)">
            <path id="Path_10724" data-name="Path 10724" d="M96.813,345.614h2.8a.276.276,0,0,0,.292-.292c.058-.817.117-1.693.175-2.51a.293.293,0,0,0-.584,0c-.058.817-.117,1.693-.175,2.51l.292-.292h-2.8a.293.293,0,0,0,0,.584Z" transform="translate(-96.55 -342.55)" fill="#b8d3e6"/>
          </g>
          <g id="Group_2864" data-name="Group 2864" transform="translate(9.439 1.984)">
            <path id="Path_10725" data-name="Path 10725" d="M111.568,345.927h-2.977a.442.442,0,0,1-.233-.117c-.058-.058-.058-.117-.058-.233l.117-2.685a.313.313,0,0,1,.292-.292.276.276,0,0,1,.292.292l-.117,2.393h2.685a.276.276,0,0,1,.292.292C111.86,345.81,111.743,345.927,111.568,345.927Z" transform="translate(-108.3 -342.6)" fill="#b8d3e6"/>
          </g>
          <g id="Group_2865" data-name="Group 2865" transform="translate(9.614 8.93)">
            <path id="Path_10726" data-name="Path 10726" d="M108.892,357.652a.276.276,0,0,1-.292-.292v-2.568a.276.276,0,0,1,.292-.292h3.093a.292.292,0,1,1,0,.584h-2.8v2.276A.276.276,0,0,1,108.892,357.652Z" transform="translate(-108.6 -354.5)" fill="#b8d3e6"/>
          </g>
          <g id="Group_2866" data-name="Group 2866" transform="translate(2.552 9.221)">
            <path id="Path_10727" data-name="Path 10727" d="M98.776,358.035h0a.276.276,0,0,1-.292-.292l.117-1.984-1.809-.175a.292.292,0,1,1,0-.584l2.1.175a.313.313,0,0,1,.292.292l-.117,2.276A.276.276,0,0,1,98.776,358.035Z" transform="translate(-96.5 -355)" fill="#b8d3e6"/>
          </g>
          <g id="Group_2867" data-name="Group 2867" transform="translate(1.554 5.055)">
            <path id="Path_10728" data-name="Path 10728" d="M95.088,351.852a.214.214,0,0,1-.175-.058.288.288,0,0,1-.058-.409l.992-1.459-.759-1.634a.387.387,0,0,1,.117-.409.361.361,0,0,1,.409.117l.875,1.809a.265.265,0,0,1,0,.292l-1.051,1.576C95.263,351.794,95.2,351.852,95.088,351.852Z" transform="translate(-94.791 -347.861)" fill="#b8d3e6"/>
          </g>
          <g id="Group_2868" data-name="Group 2868" transform="translate(12.211 5.331)">
            <path id="Path_10729" data-name="Path 10729" d="M114.947,352.225a.442.442,0,0,1-.233-.117l-1.576-1.868a.219.219,0,0,1,0-.35l1.167-1.459a.359.359,0,0,1,.409-.058.288.288,0,0,1,.058.409l-1.051,1.284,1.4,1.634a.25.25,0,0,1-.058.409C115.122,352.225,115.064,352.225,114.947,352.225Z" transform="translate(-113.05 -348.334)" fill="#b8d3e6"/>
          </g>
          <g id="Group_2869" data-name="Group 2869" transform="translate(6.083 0.444)">
            <path id="Path_10730" data-name="Path 10730" d="M104.155,341.734a.214.214,0,0,1-.175-.058l-1.342-1.167a.289.289,0,0,1,.409-.409l1.167,1.051,1.284-1.109a.292.292,0,1,1,.35.467l-1.517,1.284A.214.214,0,0,0,104.155,341.734Z" transform="translate(-102.55 -339.961)" fill="#b8d3e6"/>
          </g>
          <g id="Group_2870" data-name="Group 2870" transform="translate(5.931 12.096)">
            <path id="Path_10731" data-name="Path 10731" d="M105.623,361.72a.214.214,0,0,1-.175-.058l-1.342-1.051-1.342.934a.292.292,0,0,1-.35-.467l1.517-1.109a.372.372,0,0,1,.35,0l1.517,1.167a.288.288,0,0,1,.058.409A.313.313,0,0,1,105.623,361.72Z" transform="translate(-102.291 -359.925)" fill="#b8d3e6"/>
          </g>
          <g id="Group_2871" data-name="Group 2871" transform="translate(3.82 5.354)">
            <path id="Path_10732" data-name="Path 10732" d="M98.689,348.739c.117.233.175.525.292.759.058.175.233.35.233.525.058.35.642.233.584-.175a.72.72,0,0,0-.233-.467c-.117-.233-.233-.525-.35-.817-.058-.35-.642-.175-.525.175Z" transform="translate(-98.674 -348.373)" fill="#b8d3e6"/>
          </g>
          <g id="Group_2872" data-name="Group 2872" transform="translate(3.754 6.708)">
            <path id="Path_10733" data-name="Path 10733" d="M99.284,350.814a3.921,3.921,0,0,0-.35.7,3.484,3.484,0,0,0-.35.642.281.281,0,0,0,.117.35h0a.3.3,0,1,0,.292-.525h0a.83.83,0,0,1,.117.35,2.365,2.365,0,0,1,.292-.525,7.787,7.787,0,0,0,.35-.7c.233-.292-.233-.584-.467-.292Z" transform="translate(-98.561 -350.693)" fill="#b8d3e6"/>
          </g>
          <g id="Group_2873" data-name="Group 2873" transform="translate(6.369 3.082)">
            <path id="Path_10734" data-name="Path 10734" d="M103.134,344.959c.35.292.642.642.934.934.117-.175.233-.292.35-.467l.058.058c-.233-.292-.7,0-.525.292.058.058.058.117.175.175a.3.3,0,0,0,.35-.467c-.292-.292-.584-.642-.934-.934-.233-.233-.7.175-.409.409Z" transform="translate(-103.041 -344.481)" fill="#b8d3e6"/>
          </g>
          <g id="Group_2874" data-name="Group 2874" transform="translate(7.354 3.14)">
            <path id="Path_10735" data-name="Path 10735" d="M105.237,346.051a3.523,3.523,0,0,0,.467-.467,4.241,4.241,0,0,1,.467-.525c.292-.233-.117-.642-.409-.409a1.574,1.574,0,0,0-.409.467,4.458,4.458,0,0,1-.525.525c-.292.233.117.642.409.409Z" transform="translate(-104.728 -344.581)" fill="#b8d3e6"/>
          </g>
          <g id="Group_2875" data-name="Group 2875" transform="translate(10.011 5.798)">
            <path id="Path_10736" data-name="Path 10736" d="M109.759,350.573a7.6,7.6,0,0,1,1.051-.875c.292-.233,0-.7-.292-.525a9.524,9.524,0,0,0-1.167.992c-.233.233.175.642.409.409Z" transform="translate(-109.281 -349.134)" fill="#b8d3e6"/>
          </g>
          <g id="Group_2876" data-name="Group 2876" transform="translate(10.042 6.67)">
            <path id="Path_10737" data-name="Path 10737" d="M109.373,351.079c.233.35.409.759.642,1.109.233.292.7,0,.525-.292a6.879,6.879,0,0,1-.642-1.109.3.3,0,1,0-.525.292Z" transform="translate(-109.334 -350.629)" fill="#b8d3e6"/>
          </g>
          <g id="Group_2877" data-name="Group 2877" transform="translate(6.043 9.366)">
            <path id="Path_10738" data-name="Path 10738" d="M103.018,356.854a12.312,12.312,0,0,0,1.342-1.109c-.175,0-.292-.058-.467-.058a14.606,14.606,0,0,0,1.284,1.4c.233.292.642-.117.409-.409-.409-.467-.875-.817-1.226-1.284-.117-.117-.35-.233-.467-.058a8.485,8.485,0,0,1-1.342,1.109c-.233.233.175.642.467.409Z" transform="translate(-102.481 -355.247)" fill="#b8d3e6"/>
          </g>
          <g id="Group_2878" data-name="Group 2878" transform="translate(10.684 1.53)">
            <path id="Path_10739" data-name="Path 10739" d="M110.589,342.1a5.109,5.109,0,0,1-.117.934.976.976,0,0,0,.058.7.3.3,0,0,0,.409.175,4.537,4.537,0,0,1,.934-.117,4.863,4.863,0,0,0,.875-.233c.35-.175.058-.642-.292-.525-.584.233-1.226.058-1.751.292.117.058.292.117.409.175a2.365,2.365,0,0,1,0-.642,4.418,4.418,0,0,0,.058-.875c0-.233-.584-.233-.584.117Z" transform="translate(-110.434 -341.821)" fill="#b8d3e6"/>
          </g>
          <g id="Group_2879" data-name="Group 2879" transform="translate(14.137 6.206)">
            <path id="Path_10740" data-name="Path 10740" d="M117.255,349.872a4.406,4.406,0,0,0-.817.642.282.282,0,0,0,0,.409c.175.175.409.35.584.525.117.117.233.35.409.35.35.058.525-.467.175-.584.117.058.117.058.058.058l-.058-.058-.233-.233-.525-.525v.409a6.181,6.181,0,0,1,.7-.584c.35-.117.058-.584-.292-.409Z" transform="translate(-116.35 -349.833)" fill="#b8d3e6"/>
          </g>
          <g id="Group_2880" data-name="Group 2880" transform="translate(6.801 13.692)">
            <path id="Path_10741" data-name="Path 10741" d="M104.259,363.734c.233-.292.584-.35.817-.642-.175,0-.292.058-.467.058a8.981,8.981,0,0,0,.759.7c.292.233.7-.175.409-.409a8.977,8.977,0,0,1-.759-.7.309.309,0,0,0-.467.058c-.058.117-.233.175-.35.233a1.549,1.549,0,0,0-.35.292c-.233.292.175.7.409.409Z" transform="translate(-103.781 -362.661)" fill="#b8d3e6"/>
          </g>
          <g id="Group_2881" data-name="Group 2881" transform="translate(0 6.086)">
            <path id="Path_10742" data-name="Path 10742" d="M92.228,350.137a2.7,2.7,0,0,0,.409.409c.058.117.233.117.292.233,0-.058-.058-.117-.058-.233,0-.058-.117.117-.175.117l-.175.175a2.048,2.048,0,0,0-.292.467.293.293,0,0,0,.584,0c0,.175,0,.058.058,0l.175-.175a1.405,1.405,0,0,0,.35-.467.484.484,0,0,0-.175-.467c-.233-.117-.35-.35-.584-.525-.292-.175-.7.233-.409.467Z" transform="translate(-92.128 -349.627)" fill="#b8d3e6"/>
          </g>
          <g id="Group_2882" data-name="Group 2882" transform="translate(1.732 10.669)">
            <path id="Path_10743" data-name="Path 10743" d="M95.448,358.192c.467-.117.992,0,1.517-.117-.117-.117-.233-.175-.35-.292v1.459a.293.293,0,0,0,.584,0v-1.459a.292.292,0,0,0-.35-.292c-.467.117-.992,0-1.517.117-.409.117-.233.7.117.584Z" transform="translate(-95.095 -357.48)" fill="#b8d3e6"/>
          </g>
          <g id="Group_2883" data-name="Group 2883" transform="translate(11.014 10.268)">
            <path id="Path_10744" data-name="Path 10744" d="M111.584,358.373a7.063,7.063,0,0,1,.058-1.109,1.025,1.025,0,0,0-.292.233,14.314,14.314,0,0,1,1.576-.117c.35-.058.35-.642,0-.584-.525.058-1.051.058-1.576.117a.3.3,0,0,0-.292.233,9.038,9.038,0,0,0-.058,1.284c0,.292.584.292.584-.058Z" transform="translate(-111 -356.793)" fill="#b8d3e6"/>
          </g>
          <g id="Group_2884" data-name="Group 2884" transform="translate(2.506 1.722)">
            <path id="Path_10745" data-name="Path 10745" d="M96.818,344.047c.409-.117.992.175,1.342-.058.233-.117.233-.409.233-.642a5.02,5.02,0,0,1,.058-.934.293.293,0,0,0-.584,0c0,.233-.058.467-.058.759v.292c0,.058,0,.058.058,0h-.117a3.913,3.913,0,0,0-1.167,0c-.292.117-.175.7.233.584Z" transform="translate(-96.422 -342.15)" fill="#b8d3e6"/>
          </g>
        </g>
        <g id="Group_2898" data-name="Group 2898" transform="translate(11.578 75.877)">
          <g id="Group_2886" data-name="Group 2886" transform="translate(5.369)">
            <path id="Path_10746" data-name="Path 10746" d="M60.892,335.505a.276.276,0,0,1-.292-.292v-9.922a.292.292,0,0,1,.584,0v9.922A.313.313,0,0,1,60.892,335.505Z" transform="translate(-60.6 -325)" fill="#b8d3e6"/>
          </g>
          <g id="Group_2887" data-name="Group 2887" transform="translate(0 4.903)">
            <path id="Path_10747" data-name="Path 10747" d="M62.431,333.984H51.692a.292.292,0,0,1,0-.584H62.431a.292.292,0,0,1,0,.584Z" transform="translate(-51.4 -333.4)" fill="#b8d3e6"/>
          </g>
          <g id="Group_2888" data-name="Group 2888" transform="translate(1.78 1.78)">
            <path id="Path_10748" data-name="Path 10748" d="M54.771,335.141a.351.351,0,0,1-.233-.058.282.282,0,0,1,0-.409l6.537-6.537a.289.289,0,0,1,.409.409L55,335.024A.442.442,0,0,1,54.771,335.141Z" transform="translate(-54.45 -328.05)" fill="#b8d3e6"/>
          </g>
          <g id="Group_2889" data-name="Group 2889" transform="translate(2.305 1.78)">
            <path id="Path_10749" data-name="Path 10749" d="M61.741,334.674a.351.351,0,0,1-.233-.058l-6.07-6.07a.289.289,0,0,1,.409-.409l6.07,6.07a.282.282,0,0,1,0,.409C61.916,334.674,61.858,334.674,61.741,334.674Z" transform="translate(-55.35 -328.05)" fill="#b8d3e6"/>
          </g>
          <g id="Group_2890" data-name="Group 2890" transform="translate(1.809 1.342)">
            <path id="Path_10750" data-name="Path 10750" d="M56.835,329.751H54.792a.292.292,0,0,1,0-.584h1.751l.117-1.576a.292.292,0,0,1,.584,0l-.117,1.868A.276.276,0,0,1,56.835,329.751Z" transform="translate(-54.5 -327.3)" fill="#b8d3e6"/>
          </g>
          <g id="Group_2891" data-name="Group 2891" transform="translate(6.887 1.459)">
            <path id="Path_10751" data-name="Path 10751" d="M65.593,330.068h-2.1a.276.276,0,0,1-.292-.292v-1.984a.292.292,0,0,1,.584,0v1.634h1.809a.276.276,0,0,1,.292.292A.327.327,0,0,1,65.593,330.068Z" transform="translate(-63.2 -327.5)" fill="#b8d3e6"/>
          </g>
          <g id="Group_2892" data-name="Group 2892" transform="translate(7.004 6.478)">
            <path id="Path_10752" data-name="Path 10752" d="M63.692,338.551a.276.276,0,0,1-.292-.292v-1.868a.276.276,0,0,1,.292-.292h2.276a.292.292,0,1,1,0,.584H63.984v1.576A.276.276,0,0,1,63.692,338.551Z" transform="translate(-63.4 -336.1)" fill="#b8d3e6"/>
          </g>
          <g id="Group_2893" data-name="Group 2893" transform="translate(1.809 6.712)">
            <path id="Path_10753" data-name="Path 10753" d="M56.251,338.835h0a.276.276,0,0,1-.292-.292l.058-1.342-1.226-.117a.292.292,0,1,1,0-.584l1.517.117a.313.313,0,0,1,.292.292l-.058,1.634A.276.276,0,0,1,56.251,338.835Z" transform="translate(-54.5 -336.5)" fill="#b8d3e6"/>
          </g>
          <g id="Group_2894" data-name="Group 2894" transform="translate(0.695 3.596)">
            <path id="Path_10754" data-name="Path 10754" d="M52.888,334.277a.214.214,0,0,1-.175-.058.288.288,0,0,1-.058-.409l.7-1.051-.584-1.167a.3.3,0,1,1,.525-.292l.642,1.342a.261.261,0,0,1,0,.292l-.817,1.167A.313.313,0,0,1,52.888,334.277Z" transform="translate(-52.591 -331.161)" fill="#b8d3e6"/>
          </g>
          <g id="Group_2895" data-name="Group 2895" transform="translate(9.309 3.814)">
            <path id="Path_10755" data-name="Path 10755" d="M68.838,334.549a.442.442,0,0,1-.233-.117l-1.167-1.342a.282.282,0,0,1,0-.409l.875-1.051a.292.292,0,1,1,.467.35l-.759.875,1.051,1.167a.282.282,0,0,1,0,.409C68.955,334.549,68.9,334.549,68.838,334.549Z" transform="translate(-67.35 -331.534)" fill="#b8d3e6"/>
          </g>
          <g id="Group_2896" data-name="Group 2896" transform="translate(4.406 0.269)">
            <path id="Path_10756" data-name="Path 10756" d="M60.2,326.943a.214.214,0,0,1-.175-.058l-.992-.875a.289.289,0,1,1,.409-.409l.759.7.875-.759a.292.292,0,0,1,.35.467l-1.109.934C60.322,326.884,60.263,326.943,60.2,326.943Z" transform="translate(-58.95 -325.461)" fill="#b8d3e6"/>
          </g>
          <g id="Group_2897" data-name="Group 2897" transform="translate(4.255 8.711)">
            <path id="Path_10757" data-name="Path 10757" d="M61.206,341.428a.214.214,0,0,1-.175-.058l-.934-.759-.934.642a.292.292,0,0,1-.35-.467l1.109-.817a.372.372,0,0,1,.35,0l1.109.875a.288.288,0,0,1,.058.409C61.381,341.428,61.323,341.428,61.206,341.428Z" transform="translate(-58.691 -339.925)" fill="#b8d3e6"/>
          </g>
        </g>
        <g id="Group_2899" data-name="Group 2899" transform="translate(26.689 17.724)">
          <path id="Path_10758" data-name="Path 10758" d="M77.588,235.072a.214.214,0,0,1-.175-.058.288.288,0,0,1-.058-.409c1.751-2.159,3.794-4.2,7.179-4.261a7.869,7.869,0,0,1,2.393.467c.409.175.817.292.992.175.175-.058.409-.525.642-.934a10.343,10.343,0,0,1,4.844-4.669.3.3,0,0,1,.292.525,9.725,9.725,0,0,0-4.552,4.436c-.35.642-.584,1.051-.934,1.167-.35.175-.817,0-1.4-.175a6.983,6.983,0,0,0-2.159-.467c-2.918.058-4.786,1.693-6.712,4.085A.576.576,0,0,1,77.588,235.072Z" transform="translate(-77.291 -225.361)" fill="#31241c"/>
        </g>
      </g>
      <g id="Group_2904" data-name="Group 2904" transform="translate(184.199 166.867)">
        <g id="Group_2902" data-name="Group 2902">
          <path id="Path_10759" data-name="Path 10759" d="M349.476,362.217c7.7-.817,13.073-2.626,20.6-9.1,7.471-6.478,8.988-7.821,14.182-8.579,5.194-.817,7.179-1.693,6.887-1.226-.292.525-7.3,9.863-16.283,13.891-10.039,4.436-24.746,6.77-26.964,7.179" transform="translate(-347.473 -342.49)" fill="#8c7825"/>
          <g id="Group_2901" data-name="Group 2901">
            <path id="Path_10760" data-name="Path 10760" d="M349.171,362.31a38.653,38.653,0,0,0,11.439-2.8c4.844-2.1,8.7-5.72,12.665-9.1,2.8-2.393,5.545-4.669,9.221-5.486,1.984-.467,4.027-.7,6.07-1.109.642-.117,1.284-.292,1.926-.467.467-.117.117-.992-.409-.292a42.873,42.873,0,0,1-20.31,14.941A144.323,144.323,0,0,1,347.6,363.3c-.759.117-.409,1.284.292,1.109,8.871-1.576,17.8-3.385,26.205-6.887a39.4,39.4,0,0,0,12.431-8.755c1.517-1.517,4.319-3.794,5.078-5.953a.592.592,0,0,0-.175-.584c-.292-.35-.817-.233-1.167-.117-2.1.409-4.2.934-6.3,1.284a17.706,17.706,0,0,0-7.821,3.21c-4.261,3.093-7.821,6.887-12.2,9.747a33.133,33.133,0,0,1-14.591,4.727c-.934.117-.934,1.284-.175,1.226Z" transform="translate(-347.169 -342)" fill="#8c7825"/>
          </g>
        </g>
        <g id="Group_2903" data-name="Group 2903" transform="translate(7.765 4.654)">
          <path id="Path_10761" data-name="Path 10761" d="M360.781,364.988a.3.3,0,0,1-.292-.233.283.283,0,0,1,.175-.35,63.572,63.572,0,0,0,14.883-5.778,61.559,61.559,0,0,0,5.194-3.443c2.8-1.984,5.661-4.085,9.046-5.194a.277.277,0,1,1,.175.525c-3.268,1.051-6.128,3.093-8.871,5.078a54.756,54.756,0,0,1-5.253,3.5,67.3,67.3,0,0,1-15,5.836A.057.057,0,0,1,360.781,364.988Z" transform="translate(-360.473 -349.973)" fill="#31241c"/>
        </g>
      </g>
      <g id="Group_2910" data-name="Group 2910" transform="translate(184.027 124.843)">
        <g id="Group_2905" data-name="Group 2905" transform="translate(0 33.357)">
          <path id="Path_10762" data-name="Path 10762" d="M347.181,354.61a.388.388,0,0,1-.292-.233c-.058-.175.058-.292.233-.35,13.482-2.918,21.478-13.949,26.789-21.244a51.154,51.154,0,0,1,4.377-5.545.289.289,0,0,1,.409.409,42.687,42.687,0,0,0-4.319,5.428c-5.311,7.354-13.424,18.5-27.139,21.419C347.239,354.61,347.181,354.61,347.181,354.61Z" transform="translate(-346.874 -327.15)" fill="#31241c"/>
        </g>
        <path id="Path_10763" data-name="Path 10763" d="M419.606,281.187c6.362-8.171,18.968-9.1,9.688,5.194,5.136-.7,4.786,4.377,4.786,4.377,9.4-2.743,14.007,3.152,5.136,6.362,4.844,2.159,2.568,6.537-3.852,6.77-6.478.175-17.626,1.4-19.435-1.868C414.12,298.813,414.7,287.14,419.606,281.187Z" transform="translate(-375.235 -272.197)" fill="#af73bd"/>
        <path id="Path_10764" data-name="Path 10764" d="M404,313c-2.159,1.751-8.054,5.895-5.311,9.455,2.685,3.56,9.338-2.159,10.155-3.619C409.6,317.319,404,313,404,313Z" transform="translate(-368.151 -287.902)" fill="#8c7825"/>
        <g id="Group_2906" data-name="Group 2906" transform="translate(40.146 12.02)">
          <path id="Path_10765" data-name="Path 10765" d="M415.975,302.677a.214.214,0,0,1-.175-.058.335.335,0,0,1-.117-.409,14.664,14.664,0,0,1,1.459-1.868c.175-.175.292-.35.467-.525a39.349,39.349,0,0,0,2.743-3.619c.584-.875,1.226-1.868,1.926-3.152l.117-.35a5.457,5.457,0,0,1,1.226-2.043.292.292,0,0,1,.35.467,5.283,5.283,0,0,0-1.051,1.809l-.175.35a28.612,28.612,0,0,1-1.984,3.21,40.816,40.816,0,0,1-2.8,3.677,3.779,3.779,0,0,1-.467.525,12.265,12.265,0,0,0-1.4,1.751C416.151,302.619,416.092,302.677,415.975,302.677Z" transform="translate(-415.661 -290.591)" fill="#31241c"/>
        </g>
        <g id="Group_2907" data-name="Group 2907" transform="translate(42.445 25.819)">
          <path id="Path_10766" data-name="Path 10766" d="M419.892,318.533c-.117,0-.292-.117-.292-.233a.32.32,0,0,1,.233-.35c.817-.117,1.693-.233,2.51-.35a36.324,36.324,0,0,0,5.6-.992c.7-.175,1.4-.467,2.1-.7s1.4-.525,2.159-.7c.175-.058.292-.058.467-.117a3.423,3.423,0,0,0,1.868-.759.292.292,0,1,1,.467.35,4.281,4.281,0,0,1-2.218.934c-.175.058-.35.058-.467.117-.7.175-1.4.467-2.1.7s-1.4.525-2.159.7a38.363,38.363,0,0,1-5.661.992c-.759.175-1.634.292-2.51.409Z" transform="translate(-419.6 -314.234)" fill="#31241c"/>
        </g>
        <g id="Group_2908" data-name="Group 2908" transform="translate(57.359 25.036)">
          <path id="Path_10767" data-name="Path 10767" d="M446.056,313.248l.175.35c0,.117-.058.175-.058.292,0,.058-.117.117-.175.175h-.058c-.058,0-.117-.058-.175-.117a.2.2,0,0,0,.058.117c-.058-.117,0,0,0-.175a.444.444,0,0,1,.467-.35h.058c-.117-.058.117.058.058,0l-.058-.058c-.117-.058.117.117,0,0l-.058-.058-.058-.058a.74.74,0,0,1,.058.35c-.058.117-.175.175-.233.292-.117.058-.117.058-.058.058-.175.058,0,0,.058,0a.628.628,0,0,0,.584-.584.585.585,0,0,0-.584-.584.756.756,0,0,0-.759,1.167,1.381,1.381,0,0,0,1.226.642.687.687,0,0,0,.525-.7,1.3,1.3,0,0,0-.525-.992,1.082,1.082,0,0,0-1.109.117.664.664,0,0,0,.175,1.109.6.6,0,0,0,.817-.233.781.781,0,0,0-.35-.759Z" transform="translate(-445.153 -312.894)" fill="#31241c"/>
        </g>
        <path id="Path_10768" data-name="Path 10768" d="M405.809,295.62c3.794-10.739-3.268-12.84,4.144-21.711s9.046-.7,7.12,5.253c-1.868,5.953-5.836,14.3-5.078,14.649,1.517.233,12.2-12.081,18.034-11.089s1.4,13.715-14.357,16.809c-2.276.642-.35,1.342,5.078.525s12.9-.233,12.315,3.21-13.015,3.852-22.12-.409C408.26,301.807,404.992,297.955,405.809,295.62Z" transform="translate(-371.359 -269.996)" fill="#d598e3"/>
        <g id="Group_2909" data-name="Group 2909" transform="translate(47.87 11.06)">
          <path id="Path_10769" data-name="Path 10769" d="M429.948,289.5c.175.233.175.409,0,.584s-.467-.058-.467-.233c0-.233.409-.409.525-.175,0,.117.058.175.058.292a.276.276,0,0,1-.292.292.585.585,0,0,0,.584-.584.628.628,0,0,0-.584-.584.831.831,0,0,0-.642,1.4c.467.525,1.284.117,1.459-.467a.869.869,0,0,0-1.051-1.051.828.828,0,0,0-.175,1.517c.642.35,1.226-.642.584-.992Z" transform="translate(-428.895 -288.946)" fill="#31241c"/>
        </g>
      </g>
      <g id="Group_2917" data-name="Group 2917" transform="translate(188.115 70.719)">
        <g id="Group_2911" data-name="Group 2911">
          <path id="Path_10770" data-name="Path 10770" d="M355.369,212.976c-.467-2.276-.584-4.611-.875-6.887-.117-2.977.992-5.6,1.868-8.463a18.179,18.179,0,0,0,1.751-6.6,42.745,42.745,0,0,0-.35-6.712c-.117-1.226-.233-2.393-.467-3.619a11.513,11.513,0,0,1-.35-2.8c2.626,3.21,5.428,6.187,7.179,9.805a44.258,44.258,0,0,1,2.568,11.089c.992,7.879-3.91,14.708-6.3,22.178A115.952,115.952,0,0,0,357,232.645" transform="translate(-354.131 -177.527)" fill="#8c7825"/>
          <path id="Path_10771" data-name="Path 10771" d="M356.809,232.671h-.058a.32.32,0,0,1-.233-.35l.175-.7c.934-3.677,1.926-7.471,3.21-11.031.759-2.276,1.693-4.552,2.685-6.77,2.218-5.078,4.26-9.863,3.619-15.291a44.606,44.606,0,0,0-2.568-11.031,38.348,38.348,0,0,0-5.545-7.821c-.35-.409-.759-.875-1.109-1.342.058.35.117.7.175.992s.117.642.175.934c.233,1.226.35,2.451.467,3.619a42.384,42.384,0,0,1,.35,6.712,17.212,17.212,0,0,1-1.693,6.478l-.117.233c-.175.584-.35,1.109-.525,1.693a20.17,20.17,0,0,0-1.342,6.653c.058.584.117,1.109.175,1.693a38.756,38.756,0,0,0,.7,5.136c.058.175-.058.292-.233.35s-.292-.058-.35-.233c-.35-1.751-.525-3.5-.7-5.194-.058-.584-.117-1.167-.175-1.693a18.548,18.548,0,0,1,1.342-6.887c.175-.584.35-1.109.525-1.693l.117-.292a17.394,17.394,0,0,0,1.634-6.245,41.279,41.279,0,0,0-.35-6.653c-.117-1.167-.233-2.393-.467-3.56l-.175-.875a5.731,5.731,0,0,1-.175-1.984.251.251,0,0,1,.233-.233.213.213,0,0,1,.292.117c.525.642,1.051,1.284,1.634,1.926a37.554,37.554,0,0,1,5.6,7.937,46.061,46.061,0,0,1,2.626,11.206c.7,5.545-1.517,10.681-3.677,15.583a66.655,66.655,0,0,0-2.626,6.712c-1.284,3.56-2.276,7.354-3.21,10.972l-.175.7A.214.214,0,0,1,356.809,232.671Z" transform="translate(-353.878 -177.261)" fill="#8c7825"/>
        </g>
        <g id="Group_2912" data-name="Group 2912" transform="translate(11.715 66.942)">
          <path id="Path_10772" data-name="Path 10772" d="M374.692,316.779c.7-1.4,1.109-3.093,1.693-4.611a33.74,33.74,0,0,1,2.626-5.486A51.511,51.511,0,0,1,385.781,296c1.226-1.284,2.626-2.276,4.027-3.5-.7,3.677-1.109,7.7-2.918,10.972a27.428,27.428,0,0,1-3.5,4.377c-1.226,1.4-2.276,2.8-3.619,4.085-1.926,1.926-3.619,3.91-5.369,5.895" transform="translate(-374.137 -292.184)" fill="#8c7825"/>
          <path id="Path_10773" data-name="Path 10773" d="M374.213,317.954a.214.214,0,0,1-.175-.058.282.282,0,0,1,0-.409c.175-.233.35-.409.525-.642h-.175a.335.335,0,0,1-.117-.409,28.582,28.582,0,0,0,1.051-2.685c.233-.642.409-1.284.642-1.868a38.1,38.1,0,0,1,2.626-5.545c2.1-4.027,4.027-7.646,6.829-10.739a28.645,28.645,0,0,1,2.8-2.51l1.226-1.051a.386.386,0,0,1,.35-.058.213.213,0,0,1,.117.292l-.35,2.1c-.525,3.093-1.051,6.245-2.568,8.988a19.258,19.258,0,0,1-2.685,3.5,11.689,11.689,0,0,0-.817.934c-.292.35-.642.7-.934,1.109-.875.992-1.751,2.043-2.685,3.035-1.4,1.4-2.743,2.918-4.027,4.319l-1.4,1.576C374.329,317.954,374.271,317.954,374.213,317.954Zm14.941-24.921c-.233.175-.409.35-.642.525a21.6,21.6,0,0,0-2.685,2.451c-2.743,3.035-4.669,6.6-6.77,10.622a34.282,34.282,0,0,0-2.568,5.486,17.551,17.551,0,0,0-.642,1.868c-.292.875-.584,1.751-.934,2.568a5.257,5.257,0,0,0,.525-.584c1.284-1.459,2.626-2.977,4.027-4.377.934-.934,1.809-1.926,2.685-2.977.292-.35.584-.7.934-1.109.292-.292.584-.642.875-.992a21.027,21.027,0,0,0,2.626-3.385c1.459-2.626,1.984-5.778,2.51-8.813A3.182,3.182,0,0,1,389.154,293.033Z" transform="translate(-373.95 -291.959)" fill="#8c7825"/>
        </g>
        <g id="Group_2913" data-name="Group 2913" transform="translate(6.52 88.808)">
          <path id="Path_10774" data-name="Path 10774" d="M366.3,341.981c2.626-5.369,8.813-8.579,13.424-12.081a13.722,13.722,0,0,1-1.517,4.085,9.562,9.562,0,0,1-4.611,3.385,29.893,29.893,0,0,0-8,5.194" transform="translate(-365.279 -329.623)" fill="#8c7825"/>
          <path id="Path_10775" data-name="Path 10775" d="M365.371,342.659a.351.351,0,0,1-.233-.058.282.282,0,0,1,0-.409l.7-.7c2.043-4.144,6.128-6.945,10.039-9.63,1.167-.817,2.335-1.576,3.385-2.393a.372.372,0,0,1,.35,0,.26.26,0,0,1,.117.35,3.78,3.78,0,0,1-.233.759,10.842,10.842,0,0,1-1.342,3.443,10.184,10.184,0,0,1-4.727,3.5,34.13,34.13,0,0,0-7.12,4.377v.058c-.058.117-.117.117-.233.175l-.525.525Zm13.6-12.256c-.875.642-1.751,1.226-2.685,1.926-3.443,2.393-6.945,4.786-9.1,8.113a40.5,40.5,0,0,1,6.07-3.56,9.988,9.988,0,0,0,4.494-3.268A10.173,10.173,0,0,0,378.97,330.4Z" transform="translate(-365.05 -329.425)" fill="#8c7825"/>
        </g>
        <g id="Group_2914" data-name="Group 2914" transform="translate(15.091 73.556)">
          <path id="Path_10776" data-name="Path 10776" d="M380.006,315.786a.214.214,0,0,1-.175-.058.36.36,0,0,1-.058-.409c.759-.875,1.459-1.751,2.218-2.626,1.109-1.284,2.218-2.568,3.268-3.969.642-.817,1.226-1.751,1.809-2.626s1.226-1.809,1.868-2.685a.292.292,0,0,1,.467.35c-.642.817-1.226,1.751-1.809,2.626s-1.226,1.809-1.868,2.685c-1.051,1.4-2.218,2.685-3.268,3.969-.759.875-1.517,1.751-2.218,2.626A.443.443,0,0,1,380.006,315.786Z" transform="translate(-379.734 -303.291)" fill="#31241c"/>
        </g>
        <g id="Group_2915" data-name="Group 2915" transform="translate(10.746 49.705)">
          <path id="Path_10777" data-name="Path 10777" d="M372.958,284.411a18.789,18.789,0,0,1,2.393-5.253,54.059,54.059,0,0,1,4.552-6.3,27.45,27.45,0,0,1,11.206-7.471A32.975,32.975,0,0,0,397,262.7c-2.159,5.836-4.261,11.381-8.4,14.357-3.619,2.51-7.646,3.735-11.5,5.953-1.693.875-2.685,2.977-4.2,4.2" transform="translate(-372.545 -262.539)" fill="#8c7825"/>
          <path id="Path_10778" data-name="Path 10778" d="M372.588,287.448a.3.3,0,0,1-.233-.117.288.288,0,0,1,.058-.409,18.321,18.321,0,0,0,1.809-1.868,8.483,8.483,0,0,1,2.451-2.335c1.634-.934,3.327-1.751,4.961-2.51a38.237,38.237,0,0,0,6.478-3.443c3.852-2.8,5.953-7.937,8-13.482a43.293,43.293,0,0,1-5.136,2.276l-.058.058a27.22,27.22,0,0,0-11.089,7.354,45.3,45.3,0,0,0-4.494,6.245l-.058.117A18.231,18.231,0,0,0,373,284.413a.3.3,0,1,1-.584-.117,17.971,17.971,0,0,1,2.335-5.253l.058-.117a46.191,46.191,0,0,1,4.552-6.3,27.424,27.424,0,0,1,11.323-7.529h.058a33.536,33.536,0,0,0,5.778-2.626.372.372,0,0,1,.35,0c.117.058.117.233.117.35-2.218,5.895-4.261,11.5-8.521,14.532a41.811,41.811,0,0,1-6.537,3.5c-1.634.759-3.327,1.517-4.961,2.451a7.939,7.939,0,0,0-2.276,2.159,10.342,10.342,0,0,1-1.926,1.984C372.7,287.39,372.646,287.448,372.588,287.448Z" transform="translate(-372.291 -262.425)" fill="#8c7825"/>
        </g>
        <g id="Group_2916" data-name="Group 2916" transform="translate(15.333 36.32)">
          <path id="Path_10779" data-name="Path 10779" d="M380.413,268.094a.214.214,0,0,1-.175-.058.282.282,0,0,1,0-.409,23.945,23.945,0,0,0,4.436-7,55.181,55.181,0,0,0,2.8-11.089c.058-.409.175-.817.233-1.226a17.877,17.877,0,0,1,1.109-4.2c.058-.233.175-.467.233-.7a7.958,7.958,0,0,1,2.159-3.852.292.292,0,1,1,.35.467,7.226,7.226,0,0,0-1.984,3.56c-.058.233-.175.525-.233.759a17.547,17.547,0,0,0-1.051,4.085c-.058.409-.175.817-.233,1.226a53.609,53.609,0,0,1-2.86,11.206,26,26,0,0,1-4.552,7.179C380.588,268.036,380.471,268.094,380.413,268.094Z" transform="translate(-380.15 -239.491)" fill="#31241c"/>
        </g>
      </g>
      <g id="Group_2923" data-name="Group 2923" transform="translate(18.74)">
        <path id="Path_10780" data-name="Path 10780" d="M156.82,91.815c7.821-3.56,9.747-6.42,12.607-14.124a30.725,30.725,0,0,1,21.3-19.435c11.848-2.977,30.466-3.152,46.049,1.167,15.583,4.261,17.976,15,20.486,21.244,2.451,6.3,10.622,11.381,13.132,12.14s1.167,3.5-1.984,2.743-11.206-4.319-15.992-15-10.214-15.291-24.454-17.976-40.037-4.844-48.734,9.163c-4.786,7.412-5.369,14.416-15.466,20.544C155.769,96.542,155.011,93.974,156.82,91.815Z" transform="translate(-102.117 -56.091)" fill="#bcbcbc"/>
        <path id="Path_10781" data-name="Path 10781" d="M147.247,117.988c-1.517-2.743-4.552-5.486-3.5-8.871a4.458,4.458,0,0,1,4.2-2.918c2.1-.058,3.152,1.226,3.969,2.918.759,1.576,1.576,3.677,2.276,5.253" transform="translate(-96.922 -76.953)" fill="#bcbcbc"/>
        <path id="Path_10782" data-name="Path 10782" d="M117.866,150.709c-3.152-4.961-5.661-18.093,5.136-24.863,10.8-6.829,23.579-13.949,30.874-16.75s17.276-3.794,23.7,7.646c1.167,2.335-1.517,5.136-3.969,6.829-2.51,1.634-43.131,22.878-47.741,25.213C119.851,151.526,118.333,151.993,117.866,150.709Z" transform="translate(-85.108 -77.399)" fill="#db0031"/>
        <path id="Path_10783" data-name="Path 10783" d="M168.4,155.026c1.342,2.626,3.268,5.428,4.611,8.113,1.226,2.568,2.568,5.078,3.969,7.646a40.45,40.45,0,0,1,5.194-3.677h0c-.992-1.576-6.362-9.98-8.93-14.708" transform="translate(-107.277 -96.191)" fill="#bcbcbc"/>
        <g id="Group_2918" data-name="Group 2918" transform="translate(34.019 43.463)">
          <path id="Path_10784" data-name="Path 10784" d="M122.217,160.057c-.117,0-.233-.058-.233-.175a.387.387,0,0,1,.117-.409c1.459-.759,2.977-1.634,4.436-2.451s2.918-1.634,4.436-2.451c2.159-1.109,4.377-2.159,6.478-3.152,1.751-.817,3.56-1.693,5.311-2.568,4.377-2.276,8.813-4.669,13.073-7,3.268-1.751,6.6-3.619,9.922-5.369,1.4-.759,3.035-1.693,4.669-2.626,2.1-1.226,4.319-2.451,5.836-3.268a.3.3,0,1,1,.292.525c-1.517.817-3.735,2.043-5.836,3.268-1.634.934-3.327,1.868-4.727,2.626-3.327,1.751-6.712,3.619-9.922,5.369-4.261,2.335-8.7,4.727-13.073,7-1.809.875-3.619,1.751-5.369,2.568-2.159.992-4.377,2.043-6.478,3.152-1.517.759-2.977,1.634-4.436,2.451s-2.918,1.634-4.436,2.451C122.334,160.057,122.275,160.057,122.217,160.057Z" transform="translate(-121.961 -130.561)" fill="#31241c"/>
        </g>
        <path id="Path_10785" data-name="Path 10785" d="M354.4,120.288c1.517-2.743,4.552-5.486,3.5-8.871a4.457,4.457,0,0,0-4.2-2.918c-2.1-.058-3.152,1.226-3.969,2.918-.759,1.576-1.634,3.56-2.335,5.136" transform="translate(-181.806 -77.911)" fill="#bcbcbc"/>
        <path id="Path_10786" data-name="Path 10786" d="M346.7,152.909c3.152-4.961,5.661-18.093-5.136-24.863-10.8-6.829-23.579-13.949-30.874-16.75s-17.276-3.794-23.7,7.646c-1.167,2.335,1.517,5.136,3.969,6.829,2.51,1.634,43.131,22.878,47.741,25.213C344.721,153.784,346.238,154.251,346.7,152.909Z" transform="translate(-156.54 -78.315)" fill="#db0031"/>
        <path id="Path_10787" data-name="Path 10787" d="M330.882,157.11c-1.342,2.626-3.035,5.6-4.319,8.229-1.226,2.568-2.568,5.078-3.969,7.646a40.45,40.45,0,0,0-5.194-3.677h0c.992-1.576,6.362-9.98,8.93-14.708" transform="translate(-169.316 -97.107)" fill="#bcbcbc"/>
        <g id="Group_2919" data-name="Group 2919" transform="translate(110.032 46.696)">
          <path id="Path_10788" data-name="Path 10788" d="M252.725,154.485a.276.276,0,0,1-.292-.292v-3.327c0-2.451-.058-4.844-.117-7.237s-.117-4.786-.117-7.237a.292.292,0,1,1,.584,0c0,2.451.058,4.844.117,7.237s.117,4.786.117,7.237v3.327A.276.276,0,0,1,252.725,154.485Z" transform="translate(-252.2 -136.1)" fill="#31241c"/>
        </g>
        <path id="Path_10789" data-name="Path 10789" d="M235.669,125.411c-2.043.175-3.619.759-3.385,3.677s3.91,2.977,6.362,2.977c2.51,0,12.782-.117,15.408-.584,2.626-.409,2.626-2.276,2.568-4.027s-.934-2.743-3.852-2.568C249.909,125.119,238.353,125.178,235.669,125.411Z" transform="translate(-133.866 -84.726)" fill="#db0031"/>
        <path id="Path_10790" data-name="Path 10790" d="M162.174,388.8c-3.91,6.829-9.688,12.548-12.9,19.785-1.459,2.743-2.335,8.288,2.451,5.661,4.144-2.159,6.6-6.712,9.1-10.1,2.51-3.443,5.486-6.42,7.12-10.272" transform="translate(-98.834 -194.619)" fill="#bcbcbc"/>
        <path id="Path_10791" data-name="Path 10791" d="M323.7,396.7c4.436,6.829,9.98,14.591,16.809,19.26h0c6.187,1.517-1.868-10.214-2.918-11.789-2.626-4.2-6.011-8.7-8.171-13.073" transform="translate(-171.939 -195.577)" fill="#bcbcbc"/>
        <circle id="Ellipse_9" data-name="Ellipse 9" cx="78.149" cy="78.149" r="78.149" transform="translate(0 135.36) rotate(-45)" fill="#db0031"/>
        <circle id="Ellipse_10" data-name="Ellipse 10" cx="64.375" cy="64.375" r="64.375" transform="translate(43.629 197.094) rotate(-87.699)" fill="#fff4de"/>
        <g id="Group_2920" data-name="Group 2920" transform="translate(42.33 67.123)">
          <path id="Path_10792" data-name="Path 10792" d="M204.369,307.5A68.2,68.2,0,1,1,272.6,239.327,68.249,68.249,0,0,1,204.369,307.5Zm0-135.812a67.585,67.585,0,1,0,67.585,67.585A67.663,67.663,0,0,0,204.369,171.684Z" transform="translate(-136.2 -171.1)" fill="#31241c"/>
        </g>
        <path id="Path_10793" data-name="Path 10793" d="M254.589,284.094a5.194,5.194,0,1,1-5.194-5.194A5.206,5.206,0,0,1,254.589,284.094Z" transform="translate(-138.838 -148.861)" fill="#db0031"/>
        <g id="Group_2921" data-name="Group 2921" transform="translate(107.464 132.14)">
          <path id="Path_10794" data-name="Path 10794" d="M250.893,288.687a3.093,3.093,0,1,1,3.093-3.093A3.114,3.114,0,0,1,250.893,288.687Zm0-5.6a2.51,2.51,0,1,0,2.51,2.51A2.528,2.528,0,0,0,250.893,283.084Z" transform="translate(-247.8 -282.5)" fill="#31241c"/>
        </g>
        <path id="Path_10795" data-name="Path 10795" d="M253.7,188.251a1.751,1.751,0,1,1-1.751-1.751A1.756,1.756,0,0,1,253.7,188.251Z" transform="translate(-141.336 -110.389)" fill="#31241c"/>
        <path id="Path_10796" data-name="Path 10796" d="M204.276,200.483a1.752,1.752,0,1,1-2.393-.642A1.787,1.787,0,0,1,204.276,200.483Z" transform="translate(-120.858 -115.851)" fill="#31241c"/>
        <path id="Path_10797" data-name="Path 10797" d="M167.634,235.841a1.752,1.752,0,1,1-2.393.642A1.787,1.787,0,0,1,167.634,235.841Z" transform="translate(-105.869 -130.84)" fill="#31241c"/>
        <path id="Path_10798" data-name="Path 10798" d="M153.551,284.8a1.751,1.751,0,1,1-1.751,1.751A1.72,1.72,0,0,1,153.551,284.8Z" transform="translate(-100.365 -151.317)" fill="#31241c"/>
        <path id="Path_10799" data-name="Path 10799" d="M165.783,334.141a1.752,1.752,0,1,1-.642,2.393A1.787,1.787,0,0,1,165.783,334.141Z" transform="translate(-105.827 -171.768)" fill="#31241c"/>
        <path id="Path_10800" data-name="Path 10800" d="M201.141,370.783a1.752,1.752,0,1,1,.642,2.393A1.787,1.787,0,0,1,201.141,370.783Z" transform="translate(-120.817 -186.758)" fill="#31241c"/>
        <path id="Path_10801" data-name="Path 10801" d="M250,384.851a1.751,1.751,0,1,1,1.751,1.751A1.756,1.756,0,0,1,250,384.851Z" transform="translate(-141.252 -192.246)" fill="#31241c"/>
        <path id="Path_10802" data-name="Path 10802" d="M299.441,372.634a1.752,1.752,0,1,1,2.393.642A1.787,1.787,0,0,1,299.441,372.634Z" transform="translate(-161.745 -186.799)" fill="#31241c"/>
        <path id="Path_10803" data-name="Path 10803" d="M336.083,337.276a1.752,1.752,0,1,1,2.393-.642A1.676,1.676,0,0,1,336.083,337.276Z" transform="translate(-176.734 -171.81)" fill="#31241c"/>
        <path id="Path_10804" data-name="Path 10804" d="M350.151,288.4a1.751,1.751,0,1,1,1.751-1.751A1.72,1.72,0,0,1,350.151,288.4Z" transform="translate(-182.223 -151.359)" fill="#31241c"/>
        <path id="Path_10805" data-name="Path 10805" d="M337.934,238.976a1.752,1.752,0,1,1,.642-2.393A1.787,1.787,0,0,1,337.934,238.976Z" transform="translate(-176.776 -130.881)" fill="#31241c"/>
        <path id="Path_10806" data-name="Path 10806" d="M302.576,202.334a1.752,1.752,0,1,1-.642-2.393A1.688,1.688,0,0,1,302.576,202.334Z" transform="translate(-161.787 -115.892)" fill="#31241c"/>
        <g id="Group_2922" data-name="Group 2922" transform="translate(134.755 45.681)">
          <path id="Path_10807" data-name="Path 10807" d="M348.453,162.982c-.058,0-.117,0-.117-.058-1.517-.759-2.977-1.634-4.436-2.451s-2.918-1.634-4.436-2.451c-2.159-1.109-4.377-2.159-6.478-3.152-1.751-.817-3.56-1.693-5.311-2.568-4.436-2.276-8.871-4.669-13.132-7.062-3.21-1.751-6.537-3.619-9.863-5.369-1.809-.992-3.677-1.868-5.6-2.8-1.4-.7-2.86-1.4-4.377-2.159a.3.3,0,1,1,.292-.525c1.459.759,2.918,1.459,4.319,2.159,1.926.934,3.794,1.809,5.6,2.86,3.327,1.751,6.653,3.56,9.863,5.369,4.261,2.335,8.7,4.786,13.132,7,1.751.875,3.56,1.751,5.311,2.568,2.159.992,4.377,2.1,6.537,3.152,1.517.759,2.977,1.634,4.436,2.451s2.918,1.634,4.436,2.451a.335.335,0,0,1,.117.409C348.628,162.923,348.57,162.982,348.453,162.982Z" transform="translate(-294.561 -134.361)" fill="#31241c"/>
        </g>
      </g>
      <g id="Group_2932" data-name="Group 2932" transform="translate(188.849 70.718)">
        <path id="Path_10808" data-name="Path 10808" d="M394.549,199.811c-2.8-1.809-4.144-10.505-1.284-14.883,4.494-6.77,5.661-8.171,6.478-7.529.759.7,7.412,14.066-.875,22.937C394.957,201.1,394.549,199.811,394.549,199.811Z" transform="translate(-370.349 -177.259)" fill="#1adbdd"/>
        <path id="Path_10809" data-name="Path 10809" d="M407,208.358c.992-3.794,3.5-9.688,9.98-12.2s7.7-2.393,8-1.809.409,6.6-6.42,11.381c-6.77,4.786-10.622,5.311-10.622,5.311Z" transform="translate(-376.731 -184.231)" fill="#1adbdd"/>
        <path id="Path_10810" data-name="Path 10810" d="M411.025,223.8c3.619-2.743,13.307-6.42,20.544,8.229.35.7-.992,1.167-2.1,1.4-1.167.175-14.883.817-18.968-5.661C410.5,224.44,411.025,223.8,411.025,223.8Z" transform="translate(-378.188 -195.585)" fill="#1adbdd"/>
        <path id="Path_10811" data-name="Path 10811" d="M381.894,204.387c-1.284-5.369-2.743-14.3-16.108-16.05-2.393-.759-.7,3.443,2.1,9.338,3.5,7.3,9.455,9.4,11.848,9.747A22.53,22.53,0,0,0,381.894,204.387Z" transform="translate(-359.095 -181.835)" fill="#1adbdd"/>
        <path id="Path_10812" data-name="Path 10812" d="M376.126,221.67c-3.093-3.21-7.879-7.179-20.894-4.144-.759.058,3.152,5.545,6.478,7.587s10.972-.233,14.708,1.109C376.359,223.655,376.126,221.67,376.126,221.67Z" transform="translate(-355.136 -193.574)" fill="#1adbdd"/>
        <path id="Path_10813" data-name="Path 10813" d="M381.268,232.7c-4.261,1.809-11.381,3.619-12.431,12.665-.058,4.261-.584,6.011,1.809,5.369,2.393-.584,12.9-6.945,14.241-13.949A18.9,18.9,0,0,0,381.268,232.7Z" transform="translate(-360.804 -200.343)" fill="#1adbdd"/>
        <path id="Path_10814" data-name="Path 10814" d="M398.256,241.368c-1.342,3.443-.7,8.521.292,12.315.992,3.735.467,9.221,1.751,9.28s7.7-12.023,3.385-23C399.656,238.742,398.256,241.368,398.256,241.368Z" transform="translate(-372.772 -203.233)" fill="#1adbdd"/>
        <path id="Path_10815" data-name="Path 10815" d="M406.5,239.776c3.385.875,8.755,7.179,14.007,11.089,2.393,1.634,2.043-1.809.467-5.369-1.576-3.619-7.471-7.7-13.19-8A15.172,15.172,0,0,0,406.5,239.776Z" transform="translate(-376.522 -202.342)" fill="#1adbdd"/>
        <g id="Group_2924" data-name="Group 2924" transform="translate(27.92 38.295)">
          <path id="Path_10816" data-name="Path 10816" d="M403.4,253.511h-.058a.32.32,0,0,1-.233-.35,19.683,19.683,0,0,0-.117-9.922c-.058-.175.058-.292.233-.35s.292.058.35.233a20.849,20.849,0,0,1,.117,10.214C403.69,253.395,403.573,253.511,403.4,253.511Z" transform="translate(-402.974 -242.874)" fill="#31241c"/>
        </g>
        <g id="Group_2925" data-name="Group 2925" transform="translate(31.298 35.954)">
          <path id="Path_10817" data-name="Path 10817" d="M414.562,242.911a.214.214,0,0,1-.175-.058,17.15,17.15,0,0,0-5.428-3.443.277.277,0,0,1,.175-.525,17.252,17.252,0,0,1,5.6,3.56.282.282,0,0,1,0,.409A.256.256,0,0,1,414.562,242.911Z" transform="translate(-408.763 -238.862)" fill="#31241c"/>
        </g>
        <g id="Group_2926" data-name="Group 2926" transform="translate(33.231 30.565)">
          <path id="Path_10818" data-name="Path 10818" d="M412.381,230.546a.3.3,0,0,1-.292-.233c-.058-.175.058-.292.233-.35a19.306,19.306,0,0,1,5.194-.292c.7.058,1.342.058,1.984.058a.292.292,0,0,1,0,.584c-.642,0-1.342-.058-1.984-.058a18.027,18.027,0,0,0-5.019.233C412.439,230.546,412.439,230.546,412.381,230.546Z" transform="translate(-412.074 -229.629)" fill="#31241c"/>
        </g>
        <g id="Group_2927" data-name="Group 2927" transform="translate(31.065 20.247)">
          <path id="Path_10819" data-name="Path 10819" d="M408.676,217.582h-.117a.3.3,0,0,1-.175-.409,4.533,4.533,0,0,1,1.226-1.517l.233-.233c1.167-1.109,2.393-2.218,3.5-3.385a.289.289,0,1,1,.409.409,47.53,47.53,0,0,1-3.5,3.385,1.025,1.025,0,0,1-.292.233,3.832,3.832,0,0,0-1.051,1.342C408.91,217.524,408.793,217.582,408.676,217.582Z" transform="translate(-408.362 -211.95)" fill="#31241c"/>
        </g>
        <g id="Group_2928" data-name="Group 2928" transform="translate(25.979 15.642)">
          <path id="Path_10820" data-name="Path 10820" d="M399.97,211.5a.276.276,0,0,1-.292-.292v-1.167c-.058-1.868-.117-4.2.7-5.836a.3.3,0,0,1,.525.292c-.759,1.517-.7,3.735-.642,5.545V211.2A.276.276,0,0,1,399.97,211.5Z" transform="translate(-399.648 -204.061)" fill="#31241c"/>
        </g>
        <g id="Group_2929" data-name="Group 2929" transform="translate(16.291 18.204)">
          <path id="Path_10821" data-name="Path 10821" d="M387.4,214.782a.3.3,0,0,1-.233-.117,31.693,31.693,0,0,0-4.027-5.72.289.289,0,1,1,.409-.409,29.713,29.713,0,0,1,4.085,5.778c.058.117.058.35-.117.409C387.515,214.782,387.456,214.782,387.4,214.782Z" transform="translate(-383.05 -208.45)" fill="#31241c"/>
        </g>
        <g id="Group_2930" data-name="Group 2930" transform="translate(14.686 27.909)">
          <path id="Path_10822" data-name="Path 10822" d="M386.37,227.25h-.117a9.731,9.731,0,0,1-1.167-.467,11.568,11.568,0,0,0-4.494-1.109.292.292,0,0,1,0-.584,12.182,12.182,0,0,1,4.727,1.109c.409.175.759.292,1.167.467a.26.26,0,0,1,.175.35A.3.3,0,0,1,386.37,227.25Z" transform="translate(-380.3 -225.078)" fill="#31241c"/>
        </g>
        <g id="Group_2931" data-name="Group 2931" transform="translate(16.257 34.02)">
          <path id="Path_10823" data-name="Path 10823" d="M383.288,241.357a.214.214,0,0,1-.175-.058.288.288,0,0,1-.058-.409,20.045,20.045,0,0,1,3.443-3.21,27.482,27.482,0,0,0,2.393-2.043.289.289,0,0,1,.409.409c-.759.759-1.634,1.4-2.451,2.1a16.874,16.874,0,0,0-3.327,3.093A.233.233,0,0,1,383.288,241.357Z" transform="translate(-382.991 -235.55)" fill="#31241c"/>
        </g>
        <path id="Path_10824" data-name="Path 10824" d="M392.431,214.653c-6.187,1.809-4.9,14.066,1.576,16.575s10.8-6.6,8.521-11.089C400.252,215.7,395.524,213.777,392.431,214.653Z" transform="translate(-368.99 -192.743)" fill="#ebaf8f"/>
        <path id="Path_10825" data-name="Path 10825" d="M394.023,219.854c-.175-.934,1.167-1.809,1.693-.584,1.051-.992,3.035-.233,2.8.875,1.634-.584,2.743.759,2.218,1.634,2.043-.117,1.809,1.4.934,1.984,2.1.642.7,2.043.117,2.043,1.576,1.109.642,1.984-.175,1.984.525,1.226-.525,1.984-1.051,1.576-.525,1.226-1.984,1.634-2.276,1.051-.817.584-2.043.292-1.984-.35-.817.292-1.634-.467-1.226-1.167-1.926-.117-1.284-1.284-.875-1.634-1.809-.817-1.167-1.868-.525-1.984-1.459-.642-1.109-1.751-.525-2.043-1.284-.292-.7-1.342-.175-1.576C391.805,220.9,392.973,219.62,394.023,219.854Z" transform="translate(-370.641 -194.5)" fill="#fff4de"/>
      </g>
    </g>
  </g>
</svg>
