<svg xmlns="http://www.w3.org/2000/svg" width="6.555" height="53.446" viewBox="0 0 6.555 53.446">
  <g id="Group_2935" data-name="Group 2935" transform="translate(0 53.446) rotate(-90)">
    <g id="Group_2939" data-name="Group 2939">
      <path id="Path_10829" data-name="Path 10829" d="M394.516,468.542c4.2-.117,19.085-.992,23.521-1.634v-.058c-4.436-.7-19.26-1.809-23.521-1.984-2.568-.117-21.128-.058-28.306.525a4.926,4.926,0,0,1-.117,1.109c-.058.292.175.584.058,1.109C373.389,468.308,391.89,468.6,394.516,468.542Z" transform="translate(-365.407 -463.325)" fill="#3f3f46"/>
      <g id="Group_2938" data-name="Group 2938">
        <path id="Path_10830" data-name="Path 10830" d="M394.034,468.762a227.469,227.469,0,0,0,23.521-1.634c.467-.058.817-.525.817-1.284v-.058c0-.759-.35-1.226-.817-1.284a232.812,232.812,0,0,0-51.768-1.459c-.467.058-.759.525-.817,1.284a14.064,14.064,0,0,0,0,2.218c.058.7.35,1.226.817,1.284a253.327,253.327,0,0,0,28.248.934c1.051,0,1.051-2.568,0-2.51a254.8,254.8,0,0,1-28.306-.875c.292.409.525.817.817,1.284a14.058,14.058,0,0,1,0-2.218c-.292.409-.525.817-.817,1.284a232.81,232.81,0,0,1,51.768,1.459c-.292-.409-.525-.817-.817-1.284v.058c.292-.409.525-.817.817-1.284a227.477,227.477,0,0,1-23.521,1.634C392.983,466.253,392.983,468.762,394.034,468.762Z" transform="translate(-364.925 -462.262)" fill="#3f3f46"/>
      </g>
    </g>
    <g id="Group_2940" data-name="Group 2940" transform="translate(2.028 2.765)">
      <path id="Path_10831" data-name="Path 10831" d="M404.76,468.226h0l-36.069-.409c-.175,0-.292-.175-.292-.409s.117-.409.292-.409h0l36.069.409c.175,0,.292.175.292.409S404.936,468.226,404.76,468.226Z" transform="translate(-368.4 -467)" fill="#fff"/>
    </g>
  </g>
</svg>
