<svg xmlns="http://www.w3.org/2000/svg" width="8.455" height="69.438" viewBox="0 0 8.455 69.438">
  <g id="Group_2934" data-name="Group 2934" transform="translate(0 69.438) rotate(-90)">
    <g id="Group_2935" data-name="Group 2935" transform="translate(0 0)">
      <path id="Path_10826" data-name="Path 10826" d="M403.479,446.053c5.486-.175,24.8-1.342,30.524-2.159v-.058c-5.778-.875-25.038-2.335-30.524-2.568-3.385-.117-27.431-.058-36.769.7.058.7-.175,1.051-.117,1.459-.058.35.175.759.117,1.459C376.048,445.761,400.094,446.169,403.479,446.053Z" transform="translate(-365.616 -439.359)" fill="#3f3f46"/>
      <g id="Group_2934-2" data-name="Group 2934">
        <path id="Path_10827" data-name="Path 10827" d="M402.788,446.417a281.344,281.344,0,0,0,30.524-2.159c.584-.058,1.051-.7,1.051-1.634v-.058c0-.934-.467-1.576-1.051-1.634-22.237-3.327-45-3.56-67.293-1.868-.642.058-.992.7-1.051,1.634a24.34,24.34,0,0,0,0,2.918c.058.934.467,1.576,1.051,1.634a351.243,351.243,0,0,0,36.769,1.167c1.342-.058,1.342-3.327,0-3.268a335.414,335.414,0,0,1-36.711-1.167c.35.525.7,1.109,1.051,1.634a24.333,24.333,0,0,1,0-2.918c-.35.525-.7,1.109-1.051,1.634,22.295-1.693,45.057-1.459,67.293,1.868-.35-.525-.7-1.109-1.051-1.634v.058c.35-.525.7-1.109,1.051-1.634a298.051,298.051,0,0,1-30.524,2.159C401.388,443.149,401.388,446.417,402.788,446.417Z" transform="translate(-364.925 -438.031)" fill="#3f3f46"/>
      </g>
    </g>
    <g id="Group_2936" data-name="Group 2936" transform="translate(2.67 3.308)">
      <path id="Path_10828" data-name="Path 10828" d="M416.716,445.334h0l-46.866-.584c-.175,0-.35-.233-.35-.525s.175-.525.35-.525h0l46.866.584c.175,0,.35.233.35.525S416.949,445.334,416.716,445.334Z" transform="translate(-369.5 -443.7)" fill="#fff"/>
    </g>
  </g>
</svg>
