<svg id="Group_2936" data-name="Group 2936" xmlns="http://www.w3.org/2000/svg" width="7.419" height="29.824" viewBox="0 0 7.419 29.824">
  <g id="Group_2942" data-name="Group 2942">
    <path id="Path_10832" data-name="Path 10832" d="M420.5,390.239c-.7-2.218-2.918-11.439-2.918-11.439-.292,1.809-2.218,9.163-2.918,11.439-.817,2.51-.992,4.669,2.918,6.011h0C421.489,394.908,421.256,392.749,420.5,390.239Z" transform="translate(-413.914 -378.508)" fill="#db0031"/>
    <path id="Path_10833" data-name="Path 10833" d="M417.385,396.334a.214.214,0,0,1-.175-.058h0c-4.144-1.459-3.794-3.969-2.977-6.362.7-2.159,2.568-9.572,2.918-11.381a.267.267,0,0,1,.292-.233.388.388,0,0,1,.292.233c0,.117,2.218,9.221,2.918,11.381.759,2.451,1.167,4.9-3.035,6.362a.441.441,0,0,1-.233.058Zm0-16.4c-.642,2.8-2.043,8.288-2.626,10.155-.759,2.335-1.051,4.377,2.626,5.661,3.677-1.284,3.385-3.327,2.626-5.661C419.486,388.339,418.027,382.5,417.385,379.934Z" transform="translate(-413.72 -378.3)" fill="#db0031"/>
  </g>
  <g id="Group_2943" data-name="Group 2943" transform="translate(3.373 11.498)">
    <path id="Path_10834" data-name="Path 10834" d="M419.792,416.326a.276.276,0,0,1-.292-.292V398.292a.292.292,0,0,1,.584,0v17.742A.313.313,0,0,1,419.792,416.326Z" transform="translate(-419.5 -398)" fill="#db0031"/>
  </g>
</svg>
