<svg xmlns="http://www.w3.org/2000/svg" xmlns:xlink="http://www.w3.org/1999/xlink" width="290" height="252" viewBox="0 0 290 252">
  <defs>
    <clipPath id="clip-path">
      <rect id="Rectangle_3531" data-name="Rectangle 3531" width="74.275" height="56.619"/>
    </clipPath>
  </defs>
  <g id="Group_15001" data-name="Group 15001" transform="translate(-35.292 -136)">
    <g id="_3004571" data-name="3004571" transform="translate(3.932 109.303)">
      <path id="Path_30510" data-name="Path 30510" d="M168.3,262.512H61.753c-14.747,0-36.594-21.43-21.043-43.325s35.256-33.981,29.48-60.866S53.349,104.564,71.616,85.4C95.449,60.4,156.388,96.847,183.241,83.8s75.221-34.845,104.1-15.306,9.457,82.728,15.24,98.986,17.368,15.941,21.9,42.292C328.8,234.925,316.8,260.25,296.8,260.25,280.362,260.25,168.3,262.512,168.3,262.512Z" transform="translate(-4 -34)" fill="rgba(220,0,0,0.3)"/>
      <path id="Path_30511" data-name="Path 30511" d="M169.415,264.283H65.275c-9.12,0-32.135-21.943-16.936-43.339S79.17,188.726,73.53,162.455s-14.038-49.078,3.81-67.807c23.292-24.441,82.226,3.673,108.477-9.081s71.721-30.011,99.952-10.911,9.248,80.851,14.889,96.744,16.976,15.583,21.4,41.334c4.229,24.589-7.505,49.341-27.048,49.341C278.939,262.069,169.415,264.283,169.415,264.283Z" transform="translate(-6.569 -35.771)" fill="#dc0000"/>
      <g id="Group_14897" data-name="Group 14897" transform="translate(77.458 115.773)">
        <path id="Path_30515" data-name="Path 30515" d="M200.841,191.727l-.149,33.1-.034,9.459-.149,33.09c0,17.851-7.627,32.4-17.186,33.07-.23.014-.453.02-.682.02H126.62v-.007c4.715-.189,8.971-3.761,12.106-9.446,3.31-6.009,5.364-14.381,5.364-23.637l.034-65.849.007-9.8c0-18.277,11.761-33.09,26.278-33.09,7.161,0,13.646,3.612,18.395,9.459a37.669,37.669,0,0,1,7.883,23.637Z" transform="translate(-108.367 -158.63)" fill="#5c45cf"/>
        <g id="Group_14894" data-name="Group 14894" transform="translate(0 42.9)">
          <path id="Path_30516" data-name="Path 30516" d="M135.369,222.17l-.007,16.643-.007,4.206v9.419l-.007,5.212v9.412l-.007,4.213v9.412l-.007,5.212v2.12c0,.7-.014,1.4-.034,2.086-.061,1.782-.189,3.518-.405,5.206-.169,1.445-.4,2.849-.669,4.213a46.864,46.864,0,0,1-1.344,5.206,39.975,39.975,0,0,1-1.581,4.206c-.412.952-.858,1.863-1.331,2.714-.486.884-1.007,1.722-1.54,2.5a20.106,20.106,0,0,1-3.81,4.206,11.468,11.468,0,0,1-6.755,2.748c-.135.007-.263.007-.4.007-9.87,0-17.868-14.82-17.868-33.09V222.17h35.769Z" transform="translate(-99.6 -222.17)" fill="#dbf1fe"/>
          <g id="Group_14893" data-name="Group 14893" transform="translate(8.762 16.636)">
            <path id="Path_30517" data-name="Path 30517" d="M139.571,246.81l-.014,4.206H112.57V246.81Z" transform="translate(-112.57 -246.81)" fill="#371fb4"/>
            <rect id="Rectangle_3523" data-name="Rectangle 3523" width="26.988" height="4.206" transform="translate(0 9.419)" fill="#371fb4"/>
            <rect id="Rectangle_3524" data-name="Rectangle 3524" width="26.981" height="4.206" transform="translate(0 18.844)" fill="#371fb4"/>
            <path id="Path_30518" data-name="Path 30518" d="M139.551,288.66l-.007,4.206H112.57V288.66Z" transform="translate(-112.57 -260.404)" fill="#371fb4"/>
            <rect id="Rectangle_3525" data-name="Rectangle 3525" width="26.974" height="4.206" transform="translate(0 37.674)" fill="#371fb4"/>
            <path id="Path_30519" data-name="Path 30519" d="M139.537,316.56v2.12c0,.7-.013,1.4-.034,2.086H112.57V316.56Z" transform="translate(-112.57 -269.467)" fill="#371fb4"/>
            <path id="Path_30520" data-name="Path 30520" d="M139.309,330.5c-.169,1.445-.4,2.849-.669,4.213H113.889c-.277-1.364-.507-2.768-.669-4.213Z" transform="translate(-112.781 -273.996)" fill="#371fb4"/>
            <path id="Path_30521" data-name="Path 30521" d="M138.27,344.45a39.975,39.975,0,0,1-1.581,4.206H117.774a38,38,0,0,1-1.574-4.206Z" transform="translate(-113.748 -278.527)" fill="#371fb4"/>
            <path id="Path_30522" data-name="Path 30522" d="M135.953,358.4a20.106,20.106,0,0,1-3.81,4.206H126.61a19.757,19.757,0,0,1-3.81-4.206Z" transform="translate(-115.889 -283.058)" fill="#371fb4"/>
          </g>
        </g>
        <g id="Group_14896" data-name="Group 14896" transform="translate(62.054)">
          <path id="Path_30523" data-name="Path 30523" d="M274.436,191.727h-56.7a37.669,37.669,0,0,0-7.883-23.637c-4.749-5.847-11.234-9.459-18.395-9.459h56.7C262.675,158.637,274.436,173.45,274.436,191.727Z" transform="translate(-191.46 -158.63)" fill="#dbf1fe"/>
          <g id="Group_14895" data-name="Group 14895" transform="translate(12.443 1.769)">
            <path id="Path_30524" data-name="Path 30524" d="M265.24,165.463H216.453a24.637,24.637,0,0,0-6.573-4.213h48.8A24.675,24.675,0,0,1,265.24,165.463Z" transform="translate(-209.88 -161.25)" fill="#371fb4"/>
            <path id="Path_30525" data-name="Path 30525" d="M277.77,179.406H228.976a32.458,32.458,0,0,0-2.506-4.206h48.794A34.056,34.056,0,0,1,277.77,179.406Z" transform="translate(-215.263 -165.781)" fill="#371fb4"/>
          </g>
        </g>
      </g>
      <path id="Path_30526" data-name="Path 30526" d="M274.916,195.956V328.929H193.852a11.961,11.961,0,0,1-1.642-.115c-.453-.061-.892-.149-1.331-.25a12.219,12.219,0,0,1-9.235-11.836v-56.68a39.428,39.428,0,0,1,18.678-72.371c.959-.074,1.919-.108,2.891-.108h63.318A8.386,8.386,0,0,1,274.916,195.956Z" transform="translate(-42.956 -52.257)" fill="#371fb4"/>
      <g id="Group_14898" data-name="Group 14898" transform="translate(154.726 141.186)">
        <path id="Path_30527" data-name="Path 30527" d="M292.065,333.781H216.878a2.9,2.9,0,0,1-2.9-2.9V199.166a2.9,2.9,0,0,1,2.9-2.9h75.187a2.9,2.9,0,0,1,2.9,2.9V330.884A2.9,2.9,0,0,1,292.065,333.781Z" transform="translate(-213.98 -196.27)" fill="#051445"/>
        <rect id="Rectangle_3526" data-name="Rectangle 3526" width="73.478" height="115.98" transform="translate(3.756 7.683)" fill="#eca9a9"/>
        <ellipse id="Ellipse_1180" data-name="Ellipse 1180" cx="4.898" cy="4.895" rx="4.898" ry="4.895" transform="translate(35.222 125.695)" fill="#371fb4"/>
        <path id="Path_30528" data-name="Path 30528" d="M277.708,202.655H261.138a1.087,1.087,0,0,1-1.088-1.087v-.641a1.087,1.087,0,0,1,1.088-1.087h16.571a1.087,1.087,0,0,1,1.088,1.087v.641A1.087,1.087,0,0,1,277.708,202.655Z" transform="translate(-228.928 -197.43)" fill="#05609a"/>
      </g>
      <path id="Path_30529" data-name="Path 30529" d="M313.382,239.69h-.358a2.1,2.1,0,0,0-2.094,2.093v68.536a2.1,2.1,0,0,0,2.094,2.093h.358a2.1,2.1,0,0,0,2.094-2.093V241.783A2.1,2.1,0,0,0,313.382,239.69Z" transform="translate(-90.711 -69.188)" fill="#371fb4"/>
      <g id="Group_14901" data-name="Group 14901" transform="translate(224.758 178.55)">
        <g id="Group_14900" data-name="Group 14900" clip-path="url(#clip-path)">
          <path id="Path_30533" data-name="Path 30533" d="M289.5,256.951V302.9a5.341,5.341,0,0,0,5.343,5.341H375.07a5.341,5.341,0,0,0,5.343-5.341V256.951a5.341,5.341,0,0,0-5.343-5.341H294.843A5.341,5.341,0,0,0,289.5,256.951Z" transform="translate(-308.516 -251.61)" fill="#303449"/>
          <rect id="Rectangle_3527" data-name="Rectangle 3527" width="19.834" height="5.341" transform="translate(48.902 32.759)" fill="#fff"/>
          <rect id="Rectangle_3528" data-name="Rectangle 3528" width="19.834" height="5.341" transform="translate(27.312 32.759)" fill="#fff"/>
          <rect id="Rectangle_3529" data-name="Rectangle 3529" width="19.834" height="5.341" transform="translate(5.722 32.759)" fill="#fff"/>
          <rect id="Rectangle_3530" data-name="Rectangle 3530" width="19.834" height="5.341" transform="translate(-15.868 32.759)" fill="#fff"/>
          <path id="Path_30534" data-name="Path 30534" d="M402.224,273.3h-12.9a2.391,2.391,0,0,1-2.391-2.39v-6.59a2.391,2.391,0,0,1,2.391-2.39h12.9a2.391,2.391,0,0,1,2.391,2.39v6.59A2.4,2.4,0,0,1,402.224,273.3Z" transform="translate(-340.129 -254.962)" fill="#feb313"/>
        </g>
      </g>
      <path id="Path_30535" data-name="Path 30535" d="M213.347,187.73a39.641,39.641,0,0,0-4.857.655,11.086,11.086,0,0,0-4.58,8.98V328.616a12.484,12.484,0,0,0,1.331.25.9.9,0,0,1-.007-.135V197.365A9.783,9.783,0,0,1,213.347,187.73Z" transform="translate(-55.987 -52.309)" fill="#051445"/>
      <g id="Group_14903" data-name="Group 14903" transform="translate(182.416 195.186)">
        <ellipse id="Ellipse_1181" data-name="Ellipse 1181" cx="12.378" cy="12.336" rx="12.378" ry="12.336" fill="#dc0000"/>
      </g>
      <path id="Icon_material-close" data-name="Icon material-close" d="M27.5,9.514,25.486,7.5,17.5,15.486,9.514,7.5,7.5,9.514,15.486,17.5,7.5,25.486,9.514,27.5,17.5,19.514,25.486,27.5,27.5,25.486,19.514,17.5Z" transform="translate(177.546 189.494)" fill="#fff"/>
    </g>
    <g id="Group_14980" data-name="Group 14980" transform="translate(-211.475 -736.966)">
      <path id="Path_30731" data-name="Path 30731" d="M269.921,1440.645s-8.328.3-9.561,0c-.051-.231-1.59-9.944-1.59-9.944l-1.28-8.981a1.367,1.367,0,0,1,2.255-1.225,4.47,4.47,0,0,1,1.178,1.925c1.047,3.164,4.137,8.259,8.721,9.589C274.464,1433.409,269.921,1440.645,269.921,1440.645Z" transform="translate(0 -316.053)" fill="#163560"/>
      <path id="Path_30732" data-name="Path 30732" d="M506.607,1286.787l-.819.29a5.46,5.46,0,0,0-6.527-2.16s-1.752.732-.712,1.69.781.462,2.215,1.841,3.391,2.069,4.74,1.6l1.5-.527Z" transform="translate(-193.255 -207.222)" fill="#e49963"/>
      <path id="Path_30733" data-name="Path 30733" d="M418.112,1353.739s-30.558-23.35-39.251-23.6-36.892,38.339-36.892,38.339h10.559s18.606-9.9,25.151-19.312a1.605,1.605,0,0,1,2.679.073c3.383,5.407,12.23,18.669,17.949,19.239C404.448,1369.088,418.112,1353.739,418.112,1353.739Z" transform="translate(-67.827 -243.8)" fill="#163560"/>
      <path id="Path_30734" data-name="Path 30734" d="M713.14,1104.778s.193,1.531.442,3.418c.331,2.454.771,5.5,1.061,6.451l9.194,2.33.675-6.685a27.127,27.127,0,0,1-2.288-11.151Z" transform="translate(-365.78 -58.372)" fill="#ffb27d"/>
      <g id="Group_14978" data-name="Group 14978" transform="translate(312.249 1059.314)">
        <path id="Path_30735" data-name="Path 30735" d="M578.257,1194.166l-13.065,16-4.569,5.6s-8.182,1.533-12.479,1.906c-3.1.268-13-.994-13-.994l.284-2.975a72.666,72.666,0,0,1,9.058-3.223c2.977-.623,10.494-2.32,10.494-2.32,2.843-1.034,13.646-15,13.646-15Z" transform="translate(-535.15 -1193.16)" fill="#82b378"/>
      </g>
      <path id="Path_30736" data-name="Path 30736" d="M685.257,1215.4l-26.719-2.18s-.075-.535-.2-1.434a7.628,7.628,0,0,1-.067-.872c-.061-2.669.988-6.267,1.44-9.8a14.5,14.5,0,0,0-.377-6.64c-.823-2.3-1.2-6.675-1.369-10.832-.211-5.206-.089-10.07-.091-10.1a24.965,24.965,0,0,1,1.84-10.5c2.606-6.9,7.466-10.81,9.749-13.128,0,0,2.789.688,10.037-1.485.215-.065.836.848,1.115,1.379,0,0,3.136,3.969,4.426,13.648C686.2,1172.115,685.257,1215.4,685.257,1215.4Z" transform="translate(-321.377 -97.934)" fill="#a8d29f"/>
      <path id="Path_30737" data-name="Path 30737" d="M679.154,1234.656c-.053,1.215-10.8,35.438-9.486,37.961,6.375,12.212-9.7,6.711-10.567,3.561.3-2.335,1.533-12.481.819-14.477-.823-2.3-1.2-6.675-1.369-10.832a14.89,14.89,0,0,1,1.75-4.6C664.294,1245.649,679.554,1225.232,679.154,1234.656Z" transform="translate(-321.959 -165.165)" fill="#82b378"/>
      <g id="Group_14979" data-name="Group 14979" transform="translate(303.575 1073.586)">
        <path id="Path_30738" data-name="Path 30738" d="M491.358,1268.088l3.314-2.276a.381.381,0,0,1,.089-.045l0,0,.625-.254,3.05,9.628-2.667,2.158-.479.209h0l-.006,0h0a.5.5,0,0,1-.608-.333l-3.452-8.459A.521.521,0,0,1,491.358,1268.088Z" transform="translate(-491.176 -1265.51)" fill="#373480"/>
        <path id="Path_30739" data-name="Path 30739" d="M501.461,1274.593l-3.162,2.647c-.223.187-.57.049-.7-.276l-3.452-8.459a.517.517,0,0,1,.134-.627l3.314-2.276a.476.476,0,0,1,.677.3l3.3,8.088A.53.53,0,0,1,501.461,1274.593Z" transform="translate(-493.518 -1265.533)" fill="#575b9f"/>
        <path id="Path_30740" data-name="Path 30740" d="M503.425,1276.455l-3.115,2.608-3.13-7.672,3.265-2.241Z" transform="translate(-495.996 -1268.432)" fill="#e2e7f2"/>
        <path id="Path_30741" data-name="Path 30741" d="M522.553,1313.57a.3.3,0,0,1,.138-.367c.12-.049.25.037.294.191a.3.3,0,0,1-.138.367C522.729,1313.811,522.6,1313.726,522.553,1313.57Z" transform="translate(-516.353 -1303.784)" fill="#373480"/>
        <path id="Path_30742" data-name="Path 30742" d="M499.58,1273.62l2.649-1.87,2.748,6.588-2.7,2.1Z" transform="translate(-497.922 -1270.519)" fill="#ced4ea"/>
        <path id="Path_30743" data-name="Path 30743" d="M503.09,1277.91l1.856-1.31,1.925,4.616-1.892,1.474Z" transform="translate(-500.74 -1274.412)" fill="#bcc5dd"/>
      </g>
      <path id="Path_30744" data-name="Path 30744" d="M505.682,1310.018l-1.681-.055a4.085,4.085,0,0,0-5.509-1.827s-1.539.8-.69,1.7.651.418,1.819,1.71,2.819,1.882,4,1.361l1.31-.588Z" transform="translate(-192.715 -225.786)" fill="#e49963"/>
      <path id="Path_30745" data-name="Path 30745" d="M572.85,1156.26s-6.559,2.77-9.966,8.689c-2.271,3.945-6.18,10.656-8.535,14.694a8.911,8.911,0,0,1-5.782,4.211l-7.959,1.752-11.181,2.8a2.337,2.337,0,0,0-.2,1.249,1.386,1.386,0,0,0,.811,1.322s10.439,2.513,14.155,2.791c9.155.688,13.495-.511,14.84-1.006a2.864,2.864,0,0,0,.817-.471c1.4-1.14,6.782-5.646,9.614-9.952,2.756-4.19,10.352-15.075,10.352-15.075Z" transform="translate(-218.138 -104.225)" fill="#a8d29f"/>
      <path id="Path_30746" data-name="Path 30746" d="M403.026,1428.961s2.635,17.544-5.444,17.544H308.661a6.592,6.592,0,0,1-2.627-4.817c-.183-3.351.876-4.537.876-4.537s31.832-1.109,38.294-3.275C377.6,1423.021,403.026,1428.961,403.026,1428.961Z" transform="translate(-38.962 -321.831)" fill="#1c468a"/>
      <path id="Path_30747" data-name="Path 30747" d="M713.14,1104.778s.193,1.531.442,3.418c8.494-2.478,8.642-9.056,8.642-9.056Z" transform="translate(-365.78 -58.372)" fill="#e8945b"/>
      <path id="Path_30748" data-name="Path 30748" d="M692.986,1059.482s10.325.306,10.417-6.127,1.485-10.727-5.1-11.193-7.9,1.969-8.457,4.109S690.3,1059.238,692.986,1059.482Z" transform="translate(-346.962 -12.588)" fill="#ffb27d"/>
      <path id="Path_30749" data-name="Path 30749" d="M693.057,1043.287s-1.091-.182-.915-1.685.174-3.468-1.047-3.1-1.282,1.345-1.785.773-.511-2.979-4.146-3.146-5.113,1.1-6.8.355-1.779-3.3-1.779-3.3a2.92,2.92,0,0,0,1.207,1.205s-2.821-3.859.446-6.5,6.594-.913,8.484-.8c4.164.252,6.853.5,8.214,3.237S695.728,1040.653,693.057,1043.287Z" transform="translate(-336.432)" fill="#2b478b"/>
    </g>
  </g>
</svg>
