<svg width="48" height="24" viewBox="0 0 48 24" fill="none" xmlns="http://www.w3.org/2000/svg">
<path d="M0.0184698 15.6489C0.701812 14.5315 1.40362 13.4326 2.28089 12.4538C2.67796 12.0105 3.11198 11.6319 3.58293 11.2902C4.34015 10.7454 5.1066 10.7362 5.90999 11.2071C7.24897 11.9828 7.68298 11.9182 8.86498 10.9116C9.31746 10.5238 9.77918 10.1359 10.1763 9.68346C10.7488 9.01859 11.4229 8.98165 12.1801 9.26791C13.3621 9.71116 14.5811 10.0436 15.8185 10.2837C20.1863 11.1425 24.4803 10.7823 28.7096 9.508C33.1513 8.16902 37.1683 6.01742 40.8251 3.17324C41.3699 2.74846 41.8778 2.27751 42.4134 1.84349C43.0044 1.36331 43.6139 1.34484 44.2972 1.70498C45.4053 2.29598 45.9317 2.13899 46.6704 1.10474C46.8644 0.836948 46.9752 0.495277 47.2891 0.319824C47.2891 0.412168 47.2891 0.504511 47.2891 0.596855C47.0583 1.09551 46.8274 1.6034 46.5873 2.09282C46.3472 2.58224 46.0517 3.02549 45.6547 3.4041C44.9528 4.08744 44.251 4.12438 43.4661 3.52414C42.5519 2.82233 42.3488 2.83157 41.4438 3.57955C40.9821 3.96739 40.6035 4.42911 40.1879 4.87236C35.4045 9.93279 29.4391 12.6569 22.6426 13.7189C19.3275 14.236 16.0216 14.1621 12.7803 13.1648C11.8107 12.8693 10.8596 12.4907 9.98234 11.9828C9.63143 11.7797 9.39134 11.8258 9.14201 12.1121C8.44943 12.897 7.74762 13.6727 6.92577 14.3283C6.73184 14.4761 6.52869 14.6146 6.32553 14.7624C5.57755 15.3072 4.84804 15.3072 4.05388 14.8178C2.7149 13.9867 1.88381 14.1159 0.738748 15.2241C0.50789 15.4457 0.341671 15.7504 0 15.8335C0.0184687 15.7689 0.0184698 15.7043 0.0184698 15.6489Z" fill="white"/>
<path d="M27.7307 21.1984C27.7399 21.5124 27.6568 21.8079 27.4906 22.0757C27.269 22.4451 27.0104 22.7867 26.6872 23.0822C25.9115 23.7933 25.9023 23.784 25.0435 23.2023C25.0342 23.193 25.0158 23.1838 25.0065 23.1746C23.8984 22.4451 23.8615 22.4451 22.9288 23.3685C22.8272 23.4608 22.7257 23.5624 22.6241 23.6548C22.1162 24.1165 22.0977 24.1072 21.5529 23.6732C21.0819 23.2946 20.5279 23.0545 19.9831 22.8144C19.5306 22.6205 19.5121 22.5189 19.7984 22.1403C20.3801 21.3646 20.9711 20.5982 21.5437 19.8133C21.7561 19.527 21.9777 19.4624 22.2916 19.6009C22.9288 19.8871 23.5475 20.2103 23.8707 20.8752C24.0092 21.1615 24.1108 21.0784 24.2493 20.8937C24.6002 20.4227 24.9604 19.9702 25.302 19.4901C25.496 19.213 25.7176 19.1669 26.0131 19.3054C26.5025 19.5362 26.9735 19.7856 27.3428 20.1919C27.6014 20.4874 27.7214 20.8198 27.7307 21.1984Z" fill="white"/>
<path d="M42.2009 5.98022C42.2378 6.3496 42.284 6.72821 42.3024 7.09758C42.441 9.99717 42.1085 12.8136 40.7234 15.4177C40.631 15.584 40.6033 15.9256 40.3263 15.824C40.0677 15.7225 40.2247 15.4454 40.2709 15.2515C40.6864 13.6355 40.8157 11.9733 40.825 10.3204C40.825 9.29536 41.0928 8.34422 41.4898 7.42078C41.693 6.93136 41.813 6.405 42.2009 5.98022Z" fill="white"/>
<path d="M23.3906 5.50023C22.7812 5.5464 22.1902 5.33401 21.5715 5.28784C20.4079 5.18626 19.2998 5.24167 18.3394 6.01735C18.2286 6.1097 18.0901 6.1651 17.9608 6.05429C17.8131 5.93425 17.8408 5.77726 17.9331 5.63875C19.1336 3.93962 21.1744 1.98194 23.8431 2.5083C26.1517 2.97002 28.017 2.16663 29.3653 0.227414C29.4391 0.125836 29.4945 -0.0680867 29.67 0.0242568C29.8085 0.0981317 29.7254 0.245881 29.67 0.347459C28.4788 2.27744 27.149 4.06891 25.0528 5.12162C24.5357 5.38018 23.9909 5.52793 23.3906 5.50023Z" fill="white"/>
<path d="M9.37293 3.5886C9.25288 4.7706 8.5326 5.59246 7.65534 6.3035C7.48912 6.43279 7.33213 6.32197 7.20285 6.21116C6.56568 5.69404 5.8454 5.31543 5.09742 4.98299C4.73728 4.82601 4.69111 4.63209 4.89426 4.30888C5.47603 3.42238 6.04856 2.52665 6.61185 1.63092C6.79654 1.34466 7.0274 1.25231 7.35983 1.37236C7.98777 1.61245 8.55107 1.92642 8.98509 2.46201C9.25288 2.80368 9.39139 3.16382 9.37293 3.5886Z" fill="white"/>
<path d="M38.1562 3.45953C38.0824 3.2102 38.2301 3.13632 38.3225 3.05321C38.4887 2.87776 38.6272 2.74848 38.4517 2.47145C38.3132 2.26829 38.5349 2.07437 38.6457 1.89892C38.8026 1.64959 38.9966 1.42797 39.2459 1.27098C39.4768 1.13247 39.6984 1.15094 39.8461 1.3818C39.9385 1.52031 39.9015 1.65883 39.6984 1.66806C39.6245 1.66806 39.5506 1.64036 39.4675 1.63112C39.3105 1.62189 39.1259 1.62189 39.0889 1.80658C39.0427 2.03744 39.2644 2.0559 39.4214 2.10207C39.7076 2.18518 39.9939 2.00973 40.3171 2.11131C39.5691 2.48992 38.8396 2.90546 38.1562 3.45953Z" fill="white"/>
</svg>
