<?xml version="1.0" standalone="no"?>
<!DOCTYPE svg PUBLIC "-//W3C//DTD SVG 1.1//EN" "http://www.w3.org/Graphics/SVG/1.1/DTD/svg11.dtd" >
<svg xmlns="http://www.w3.org/2000/svg" xmlns:xlink="http://www.w3.org/1999/xlink" version="1.1">
<metadata>
Created by FontForge 20170731 at Sat Oct 19 07:15:24 2019
 By Aleksey,,,
Copyright (c) 2019 by Reza Bakhtiarifard. All rights reserved.
</metadata>
<defs>
<font id="YekanBakhFaNum-Regular" horiz-adv-x="0" >
  <font-face 
    font-family="Yekan Bakh FaNum"
    font-weight="400"
    font-stretch="normal"
    units-per-em="1000"
    panose-1="1 0 5 4 0 0 0 2 0 4"
    ascent="800"
    descent="-200"
    bbox="-183 -487 1314 928"
    underline-thickness="25"
    underline-position="-154"
    unicode-range="U+000A-FFFC"
  />
<missing-glyph horiz-adv-x="536" 
d="M462 0h-396v610h396v-610zM129 542v-473h271v473h-271z" />
    <glyph glyph-name="allah" unicode="&#x627;&#xfedf;&#xfee0;&#xfeea;" horiz-adv-x="1226" arabic-form="isolated" 
d="M337 464h63v-295q0 -47 16 -73.5t65 -26.5h74q40 0 61 19.5t21 53.5v253h64v-239q0 -46 25 -66.5t63 -20.5h32q38 0 60 19.5t22 53.5v344h64v-349q0 -33 -11 -58.5t-29.5 -43t-44 -26.5t-55.5 -9h-40q-35 0 -66.5 13.5t-51.5 51.5q-23 -38 -53.5 -51.5t-62.5 -13.5h-74
q-47 0 -79.5 19.5t-47.5 70.5q-12 -15 -29.5 -25t-37 -15.5t-40 -7.5t-37.5 -2q-75 0 -113.5 37.5t-38.5 119.5q0 37 10.5 72.5t31.5 63.5t52.5 45t74.5 17h112v69zM226 330q-52 0 -80 -34.5t-28 -91.5q0 -56 26.5 -77t77.5 -21q53 0 84 21t31 53v150h-111zM644 928h43v-173
h-43v173zM687 682v-138h42q26 0 43 13.5t17 50.5v74h42v-61q0 -39 -10 -62.5t-25 -36t-31.5 -16.5t-29.5 -4h-38q-9 0 -16 4t-15 11q-8 -7 -15 -11t-16 -4h-41q-13 0 -29 4t-30.5 16.5t-24 36t-9.5 62.5v61h42v-74q0 -37 17 -50.5t43 -13.5h41v138h43zM1091 620h65v-620h-65
v620z" />
    <glyph glyph-name="la.aa" unicode="&#xfedf;&#xfe82;" horiz-adv-x="487" arabic-form="isolated" 
d="M69 483h65v-414h136q38 0 60.5 19.5t22.5 53.5v478h65v-483q0 -33 -11 -58.5t-30 -43t-45 -26.5t-56 -9h-207v483zM60 592q-19 0 -30.5 -3.5t-19.5 -23.5l-21 -45l-43 19l26 58q9 18 17 29t17.5 17t22 8t29.5 2h184l-3 -61h-179z" />
    <glyph glyph-name="la.aa.fina" unicode="&#xfee0;&#xfe82;" horiz-adv-x="517" arabic-form="final" 
d="M69 0v483h65v-414h132q42 0 64.5 21t22.5 58v472h65v-472q0 -44 26.5 -61.5t59.5 -17.5h13q22 0 22 -34q0 -35 -22 -35h-15q-38 0 -69 13.5t-51 51.5q-22 -38 -52.5 -51.5t-63.5 -13.5h-197zM60 592q-19 0 -30.5 -3.5t-19.5 -23.5l-21 -45l-43 19l26 58q9 18 17 29
t17.5 17t22 8t29.5 2h184l-3 -61h-179z" />
    <glyph glyph-name="la.thmz" unicode="&#xfedf;&#xfe84;" horiz-adv-x="487" arabic-form="isolated" 
d="M69 455h65v-386h136q38 0 60.5 19.5t22.5 53.5v478h65v-483q0 -33 -11 -58.5t-30 -43t-45 -26.5t-56 -9h-207v455zM214 604l-186 -94l-19 38l69 34q-32 8 -46 32.5t-14 50.5q0 42 27 68t69 26h46l-5 -43h-34q-29 0 -44.5 -15.5t-15.5 -38.5q0 -25 17 -39.5t38 -14.5
q14 0 34.5 9.5t46.5 23.5z" />
    <glyph glyph-name="la.thmz.fina" unicode="&#xfee0;&#xfe84;" horiz-adv-x="517" arabic-form="final" 
d="M69 0v455h65v-386h132q42 0 64.5 21t22.5 58v472h65v-472q0 -44 26.5 -61.5t59.5 -17.5h13q22 0 22 -34q0 -35 -22 -35h-15q-38 0 -69 13.5t-51 51.5q-22 -38 -52.5 -51.5t-63.5 -13.5h-197zM214 604l-186 -94l-19 38l69 34q-32 8 -46 32.5t-14 50.5q0 42 27 68t69 26h46
l-5 -43h-34q-29 0 -44.5 -15.5t-15.5 -38.5q0 -25 17 -39.5t38 -14.5q14 0 34.5 9.5t46.5 23.5z" />
    <glyph glyph-name="la.bhmz" unicode="&#xfedf;&#xfe88;" horiz-adv-x="487" arabic-form="isolated" 
d="M69 620h65v-551h136q38 0 60.5 19.5t22.5 53.5v478h65v-483q0 -33 -11 -58.5t-30 -43t-45 -26.5t-56 -9h-207v620zM243 -260l-186 -94l-19 38l69 34q-32 8 -46 32.5t-14 50.5q0 42 27 68t69 26h46l-5 -43h-34q-29 0 -44.5 -15.5t-15.5 -38.5q0 -25 17 -39.5t38 -14.5
q14 0 34.5 9.5t46.5 23.5z" />
    <glyph glyph-name="la.bhmz.fina" unicode="&#xfee0;&#xfe88;" horiz-adv-x="517" arabic-form="final" 
d="M69 0v620h65v-551h132q42 0 64.5 21t22.5 58v472h65v-472q0 -44 26.5 -61.5t59.5 -17.5h13q22 0 22 -34q0 -35 -22 -35h-15q-38 0 -69 13.5t-51 51.5q-22 -38 -52.5 -51.5t-63.5 -13.5h-197zM243 -260l-186 -94l-19 38l69 34q-32 8 -46 32.5t-14 50.5q0 42 27 68t69 26
h46l-5 -43h-34q-29 0 -44.5 -15.5t-15.5 -38.5q0 -25 17 -39.5t38 -14.5q14 0 34.5 9.5t46.5 23.5z" />
    <glyph glyph-name="la" unicode="&#xfedf;&#xfe8e;" horiz-adv-x="487" arabic-form="isolated" 
d="M69 620h65v-551h136q38 0 60.5 19.5t22.5 53.5v478h65v-483q0 -33 -11 -58.5t-30 -43t-45 -26.5t-56 -9h-207v620z" />
    <glyph glyph-name="la.fina" unicode="&#xfee0;&#xfe8e;" horiz-adv-x="517" arabic-form="final" 
d="M69 0v620h65v-551h132q42 0 64.5 21t22.5 58v472h65v-472q0 -44 26.5 -61.5t59.5 -17.5h13q22 0 22 -34q0 -35 -22 -35h-15q-38 0 -69 13.5t-51 51.5q-22 -38 -52.5 -51.5t-63.5 -13.5h-197z" />
    <glyph glyph-name="la.tvasla" unicode="&#xfedf;&#xfb51;" horiz-adv-x="487" 
d="M69 465h65v-396h136q38 0 60.5 19.5t22.5 53.5v478h65v-483q0 -33 -11 -58.5t-30 -43t-45 -26.5t-56 -9h-207v465zM28 586q40 79 75 111.5t71 32.5q16 0 31 -7t26.5 -19t18 -28.5t6.5 -35.5q0 -15 -5 -32.5t-17.5 -32t-33 -24t-50.5 -9.5h-133l-26 22v97l37 5v-80z
M151 582q29 0 48 14t19 43q0 20 -13 35t-35 15q-28 0 -53.5 -29.5t-52.5 -77.5h87z" />
    <glyph glyph-name="la.tvasla.fina" unicode="&#xfee0;&#xfb51;" horiz-adv-x="517" 
d="M69 0v465h65v-396h132q42 0 64.5 21t22.5 58v472h65v-472q0 -44 26.5 -61.5t59.5 -17.5h13q22 0 22 -34q0 -35 -22 -35h-15q-38 0 -69 13.5t-51 51.5q-22 -38 -52.5 -51.5t-63.5 -13.5h-197zM28 586q40 79 75 111.5t71 32.5q16 0 31 -7t26.5 -19t18 -28.5t6.5 -35.5
q0 -15 -5 -32.5t-17.5 -32t-33 -24t-50.5 -9.5h-133l-26 22v97l37 5v-80zM151 582q29 0 48 14t19 43q0 20 -13 35t-35 15q-28 0 -53.5 -29.5t-52.5 -77.5h87z" />
    <glyph glyph-name="lellah" unicode="&#xfedf;&#x650;&#xfee0;&#x654;&#xfeea;" horiz-adv-x="1034" 
d="M337 464h63v-295q0 -47 16 -73.5t65 -26.5h74q40 0 61 19.5t21 53.5v253h64v-239q0 -46 25 -66.5t63 -20.5h32q38 0 60 19.5t22 53.5v344h64v-349q0 -33 -11 -58.5t-29.5 -43t-44 -26.5t-55.5 -9h-40q-35 0 -66.5 13.5t-51.5 51.5q-23 -38 -53.5 -51.5t-62.5 -13.5h-74
q-47 0 -79.5 19.5t-47.5 70.5q-12 -15 -29.5 -25t-37 -15.5t-40 -7.5t-37.5 -2q-75 0 -113.5 37.5t-38.5 119.5q0 37 10.5 72.5t31.5 63.5t52.5 45t74.5 17h112v69zM226 330q-52 0 -80 -34.5t-28 -91.5q0 -56 26.5 -77t77.5 -21q53 0 84 21t31 53v150h-111zM644 928h43v-173
h-43v173zM687 682v-138h42q26 0 43 13.5t17 50.5v74h42v-61q0 -39 -10 -62.5t-25 -36t-31.5 -16.5t-29.5 -4h-38q-9 0 -16 4t-15 11q-8 -7 -15 -11t-16 -4h-41q-13 0 -29 4t-30.5 16.5t-24 36t-9.5 62.5v61h42v-74q0 -37 17 -50.5t43 -13.5h41v138h43z" />
    <glyph glyph-name="hmz" unicode="&#x621;" horiz-adv-x="435" arabic-form="isolated" 
d="M60 54l111 56q-59 14 -86.5 51.5t-27.5 85.5q0 35 12.5 64.5t34 50.5t49.5 33t59 12q25 0 46.5 -6.5t42.5 -17.5l-21 -61q-12 5 -30.5 10.5t-35.5 5.5q-44 0 -70 -26.5t-26 -67.5q0 -38 27 -63.5t75 -25.5q25 0 56 13t85 42l29 -60l-302 -156z" />
    <glyph glyph-name="alef.aa" unicode="&#x622;" horiz-adv-x="204" arabic-form="isolated" 
d="M69 483h65v-483h-65v483zM53 592q-19 0 -30.5 -3.5t-19.5 -23.5l-21 -45l-43 19l26 58q9 18 17 29t17.5 17t22 8t29.5 2h184l-3 -61h-179z" />
    <glyph glyph-name="alef.thmz" unicode="&#x623;" horiz-adv-x="204" arabic-form="isolated" 
d="M69 455h65v-455h-65v455zM203 604l-186 -94l-19 38l69 34q-32 8 -46 32.5t-14 50.5q0 42 27 68t69 26h46l-5 -43h-34q-29 0 -44.5 -15.5t-15.5 -38.5q0 -25 17 -39.5t38 -14.5q14 0 34.5 9.5t46.5 23.5z" />
    <glyph glyph-name="vav.thmz" unicode="&#x624;" horiz-adv-x="449" arabic-form="isolated" 
d="M146 -174q44 0 77.5 14t56.5 38t35 55.5t14 66.5h-100q-51 0 -84 11t-52 32t-26.5 50.5t-7.5 66.5q0 38 11 72t32 60t52.5 41.5t72.5 15.5q33 0 63 -11t53 -34.5t36.5 -61t13.5 -90.5v-136q0 -51 -16.5 -98t-47.5 -82.5t-76 -56.5t-101 -21h-106l-6 68h106zM121 164
q0 -25 5.5 -43t19 -29.5t36.5 -17t58 -5.5h90v75q0 74 -29 106t-80 32q-48 0 -74 -32t-26 -86zM313 506l-186 -94l-19 38l69 34q-32 8 -46 32.5t-14 50.5q0 42 27 68t69 26h46l-5 -43h-34q-29 0 -44.5 -15.5t-15.5 -38.5q0 -25 17 -39.5t38 -14.5q14 0 34.5 9.5t46.5 23.5z
" />
    <glyph glyph-name="alef.bhmz" unicode="&#x625;" horiz-adv-x="204" arabic-form="isolated" 
d="M69 620h65v-620h-65v620zM210 -260l-186 -94l-19 38l69 34q-32 8 -46 32.5t-14 50.5q0 42 27 68t69 26h46l-5 -43h-34q-29 0 -44.5 -15.5t-15.5 -38.5q0 -25 17 -39.5t38 -14.5q14 0 34.5 9.5t46.5 23.5z" />
    <glyph glyph-name="ye.thmz" unicode="&#x626;" horiz-adv-x="676" arabic-form="isolated" 
d="M363 -174q42 0 78 11t62.5 30.5t42 46t15.5 56.5q0 27 -15 45.5t-59 18.5h-174v173q0 76 44 123.5t122 47.5h115l5 -69h-124q-19 0 -36.5 -6.5t-31 -19t-22 -31t-8.5 -43.5v-106h122q37 0 61.5 -9.5t39 -26t20 -38.5t5.5 -47q0 -47 -20 -88t-54 -71t-80.5 -47.5
t-98.5 -17.5h-85q-112 0 -174 69t-62 189v175h64v-173q0 -43 10.5 -78t33 -60.5t56.5 -39.5t82 -14h66zM268 405l-186 -94l-19 38l69 34q-32 8 -46 32.5t-14 50.5q0 42 27 68t69 26h46l-5 -43h-34q-29 0 -44.5 -15.5t-15.5 -38.5q0 -25 17 -39.5t38 -14.5q14 0 34.5 9.5
t46.5 23.5z" />
    <glyph glyph-name="alef" unicode="&#x627;" horiz-adv-x="204" arabic-form="isolated" 
d="M69 620h65v-620h-65v620z" />
    <glyph glyph-name="be" unicode="&#x628;" horiz-adv-x="766" arabic-form="isolated" 
d="M207 0q-41 0 -70.5 12.5t-48 33.5t-27 49t-8.5 59v134h64v-119q0 -45 23 -72.5t81 -27.5h341q41 0 63.5 21t22.5 58v138h65v-147q0 -33 -11.5 -59t-31 -44t-45 -27t-54.5 -9h-364zM420 -189h-84v73h84v-73z" />
    <glyph glyph-name="te.marbuta" unicode="&#x629;" horiz-adv-x="456" arabic-form="isolated" 
d="M51 154q0 30 8 57t25 55t43 58t62 67l-46 47l44 47q62 -62 103.5 -106.5t67 -80.5t36.5 -66.5t11 -64.5q0 -36 -13.5 -66.5t-38 -53t-57.5 -35t-72 -12.5t-71 11.5t-54.5 32t-35 48.5t-12.5 62zM341 168q0 19 -5.5 37.5t-18.5 38.5t-34.5 44.5t-54.5 56.5
q-36 -35 -58.5 -61.5t-34.5 -47.5t-16 -38t-4 -34q0 -40 28.5 -67.5t81.5 -27.5q25 0 46.5 8t37 21.5t24 31.5t8.5 38zM318 566h-80v71h80v-71zM191 566h-80v71h80v-71z" />
    <glyph glyph-name="te" unicode="&#x62a;" horiz-adv-x="766" arabic-form="isolated" 
d="M207 0q-41 0 -70.5 12.5t-48 33.5t-27 49t-8.5 59v134h64v-119q0 -45 23 -72.5t81 -27.5h341q41 0 63.5 21t22.5 58v138h65v-147q0 -33 -11.5 -59t-31 -44t-45 -27t-54.5 -9h-364zM486 374h-80v71h80v-71zM359 374h-80v71h80v-71z" />
    <glyph glyph-name="the" unicode="&#x62b;" horiz-adv-x="766" arabic-form="isolated" 
d="M207 0q-41 0 -70.5 12.5t-48 33.5t-27 49t-8.5 59v134h64v-119q0 -45 23 -72.5t81 -27.5h341q41 0 63.5 21t22.5 58v138h65v-147q0 -33 -11.5 -59t-31 -44t-45 -27t-54.5 -9h-364zM423 494h-80v70h80v-70zM486 374h-80v71h80v-71zM359 374h-80v71h80v-71z" />
    <glyph glyph-name="jim" unicode="&#x62c;" horiz-adv-x="539" arabic-form="isolated" 
d="M415 221q-8 21 -16 37t-21 27.5t-32.5 17t-49.5 5.5h-210l6 69h212q27 0 53.5 -5t51 -23.5t45 -56t34.5 -101.5l-198 -115q-98 -58 -139 -109.5t-41 -110.5q0 -84 45.5 -128.5t145.5 -44.5h185l-5 -68h-184q-69 0 -117 18.5t-78 50.5t-43.5 74t-13.5 90q0 41 11 77.5
t35.5 70t64 66t96.5 65.5zM388 -157h-84v73h84v-73z" />
    <glyph glyph-name="him" unicode="&#x62d;" horiz-adv-x="539" arabic-form="isolated" 
d="M415 221q-8 21 -16 37t-21 27.5t-32.5 17t-49.5 5.5h-210l6 69h212q27 0 53.5 -5t51 -23.5t45 -56t34.5 -101.5l-198 -115q-98 -58 -139 -109.5t-41 -110.5q0 -84 45.5 -128.5t145.5 -44.5h185l-5 -68h-184q-69 0 -117 18.5t-78 50.5t-43.5 74t-13.5 90q0 41 11 77.5
t35.5 70t64 66t96.5 65.5z" />
    <glyph glyph-name="khe" unicode="&#x62e;" horiz-adv-x="539" arabic-form="isolated" 
d="M415 221q-8 21 -16 37t-21 27.5t-32.5 17t-49.5 5.5h-210l6 69h212q27 0 53.5 -5t51 -23.5t45 -56t34.5 -101.5l-198 -115q-98 -58 -139 -109.5t-41 -110.5q0 -84 45.5 -128.5t145.5 -44.5h185l-5 -68h-184q-69 0 -117 18.5t-78 50.5t-43.5 74t-13.5 90q0 41 11 77.5
t35.5 70t64 66t96.5 65.5zM294 490h-84v73h84v-73z" />
    <glyph glyph-name="dal" unicode="&#x62f;" horiz-adv-x="522" arabic-form="isolated" 
d="M423 238q26 -29 37.5 -57.5t11.5 -55.5q0 -54 -38.5 -89.5t-109.5 -35.5h-279l-5 69h276q39 0 60.5 18t21.5 47q0 14 -7 31t-21 32l-186 210l51 48z" />
    <glyph glyph-name="zal" unicode="&#x630;" horiz-adv-x="522" arabic-form="isolated" 
d="M423 238q26 -29 37.5 -57.5t11.5 -55.5q0 -54 -38.5 -89.5t-109.5 -35.5h-279l-5 69h276q39 0 60.5 18t21.5 47q0 14 -7 31t-21 32l-186 210l51 48zM279 569h-84v73h84v-73z" />
    <glyph glyph-name="re" unicode="&#x631;" horiz-adv-x="225" arabic-form="isolated" 
d="M168 16q0 -58 -18.5 -105.5t-50.5 -81.5t-75.5 -52.5t-94.5 -18.5h-59l-5 68h49q50 0 86 16t59 42.5t34 60.5t11 71v270h64v-270v0z" />
    <glyph glyph-name="ze" unicode="&#x632;" horiz-adv-x="225" arabic-form="isolated" 
d="M168 16q0 -58 -18.5 -105.5t-50.5 -81.5t-75.5 -52.5t-94.5 -18.5h-59l-5 68h49q50 0 86 16t59 42.5t34 60.5t11 71v270h64v-270v0zM172 414h-84v73h84v-73z" />
    <glyph glyph-name="sin" unicode="&#x633;" horiz-adv-x="1125" arabic-form="isolated" 
d="M840 148q0 -44 25 -61.5t56 -17.5q38 0 60.5 21t22.5 58v138h65v-138q0 -71 -39.5 -109.5t-106.5 -38.5q-36 0 -67 13.5t-51 51.5q-23 -38 -55.5 -51.5t-67.5 -13.5q-32 0 -55 10.5t-37 28.5v-23q0 -51 -17 -98t-48.5 -82.5t-76.5 -56.5t-102 -21h-59q-112 0 -174 69
t-62 189v175h64v-173q0 -43 10.5 -78t33 -60.5t56.5 -39.5t82 -14h44q47 0 82 15.5t58.5 41.5t35 61t11.5 73v269h64v-141q0 -35 24 -55.5t65 -20.5q46 0 70.5 21t24.5 58v138h64v-138z" />
    <glyph glyph-name="shin" unicode="&#x634;" horiz-adv-x="1125" arabic-form="isolated" 
d="M840 148q0 -44 25 -61.5t56 -17.5q38 0 60.5 21t22.5 58v138h65v-138q0 -71 -39.5 -109.5t-106.5 -38.5q-36 0 -67 13.5t-51 51.5q-23 -38 -55.5 -51.5t-67.5 -13.5q-32 0 -55 10.5t-37 28.5v-23q0 -51 -17 -98t-48.5 -82.5t-76.5 -56.5t-102 -21h-59q-112 0 -174 69
t-62 189v175h64v-173q0 -43 10.5 -78t33 -60.5t56.5 -39.5t82 -14h44q47 0 82 15.5t58.5 41.5t35 61t11.5 73v269h64v-141q0 -35 24 -55.5t65 -20.5q46 0 70.5 21t24.5 58v138h64v-138zM848 534h-80v70h80v-70zM911 414h-80v71h80v-71zM784 414h-80v71h80v-71z" />
    <glyph glyph-name="sad" unicode="&#x635;" horiz-adv-x="1187" arabic-form="isolated" 
d="M1071 184q0 26 -8.5 48.5t-23 39t-35 26t-44.5 9.5q-53 0 -110.5 -56.5t-127.5 -181.5h239q21 0 41 6.5t35 21t24.5 36t9.5 51.5zM658 72q46 82 86 140t77 94.5t72 53t71 16.5q38 0 70 -15t54.5 -41t35 -61t12.5 -75q0 -34 -10.5 -67t-32.5 -59t-55.5 -42t-79.5 -16h-266
q-71 0 -102 42v-26q0 -51 -17 -98t-48.5 -82.5t-76.5 -56.5t-102 -21h-59q-112 0 -174 69t-62 189v175h64v-173q0 -43 10.5 -78t33 -60.5t56.5 -39.5t82 -14h44q47 0 82 15.5t58.5 41.5t35 61t11.5 73v269h64v-131q0 -32 16.5 -55t49.5 -28z" />
    <glyph glyph-name="zad" unicode="&#x636;" horiz-adv-x="1187" arabic-form="isolated" 
d="M1071 184q0 26 -8.5 48.5t-23 39t-35 26t-44.5 9.5q-53 0 -110.5 -56.5t-127.5 -181.5h239q21 0 41 6.5t35 21t24.5 36t9.5 51.5zM658 72q46 82 86 140t77 94.5t72 53t71 16.5q38 0 70 -15t54.5 -41t35 -61t12.5 -75q0 -34 -10.5 -67t-32.5 -59t-55.5 -42t-79.5 -16h-266
q-71 0 -102 42v-26q0 -51 -17 -98t-48.5 -82.5t-76.5 -56.5t-102 -21h-59q-112 0 -174 69t-62 189v175h64v-173q0 -43 10.5 -78t33 -60.5t56.5 -39.5t82 -14h44q47 0 82 15.5t58.5 41.5t35 61t11.5 73v269h64v-131q0 -32 16.5 -55t49.5 -28zM955 481h-84v73h84v-73z" />
    <glyph glyph-name="ta" unicode="&#x637;" horiz-adv-x="673" arabic-form="isolated" 
d="M140 620h65v-305v-74.5t-2 -72.5q69 111 128.5 159.5t118.5 48.5q39 0 70.5 -15t54 -41t35 -61t12.5 -75q0 -34 -10.5 -67t-32.5 -59t-55.5 -42t-79.5 -16h-393l-6 69h95v551zM557 184q0 26 -8.5 48.5t-23 39t-35 26t-44.5 9.5q-53 0 -109.5 -56t-132.5 -182h242
q21 0 41 6.5t35.5 21t25 36t9.5 51.5z" />
    <glyph glyph-name="za" unicode="&#x638;" horiz-adv-x="673" arabic-form="isolated" 
d="M140 620h65v-305v-74.5t-2 -72.5q69 111 128.5 159.5t118.5 48.5q39 0 70.5 -15t54 -41t35 -61t12.5 -75q0 -34 -10.5 -67t-32.5 -59t-55.5 -42t-79.5 -16h-393l-6 69h95v551zM557 184q0 26 -8.5 48.5t-23 39t-35 26t-44.5 9.5q-53 0 -109.5 -56t-132.5 -182h242
q21 0 41 6.5t35.5 21t25 36t9.5 51.5zM494 498h-84v73h84v-73z" />
    <glyph glyph-name="ein" unicode="&#x639;" horiz-adv-x="518" arabic-form="isolated" 
d="M179 38q-21 17 -34 37.5t-21 41t-11 40t-3 34.5q0 37 12.5 69t35 56t54.5 37.5t70 13.5q35 0 67 -11t70 -36l-28 -55q-32 18 -57.5 25t-51.5 7q-24 0 -44 -9t-34.5 -23.5t-22 -34t-7.5 -40.5q0 -23 8 -44.5t21.5 -38.5t32 -27.5t38.5 -10.5h172l-6 -69h-168
q-38 0 -67.5 -13.5t-50 -35.5t-31.5 -50t-11 -57q0 -38 10 -68t32 -50.5t57 -31.5t85 -11h179l-5 -68h-178q-69 0 -115.5 17.5t-75 48t-41 71t-12.5 87.5q0 63 32.5 116.5t98.5 82.5z" />
    <glyph glyph-name="qein" unicode="&#x63a;" horiz-adv-x="518" arabic-form="isolated" 
d="M179 38q-21 17 -34 37.5t-21 41t-11 40t-3 34.5q0 37 12.5 69t35 56t54.5 37.5t70 13.5q35 0 67 -11t70 -36l-28 -55q-32 18 -57.5 25t-51.5 7q-24 0 -44 -9t-34.5 -23.5t-22 -34t-7.5 -40.5q0 -23 8 -44.5t21.5 -38.5t32 -27.5t38.5 -10.5h172l-6 -69h-168
q-38 0 -67.5 -13.5t-50 -35.5t-31.5 -50t-11 -57q0 -38 10 -68t32 -50.5t57 -31.5t85 -11h179l-5 -68h-178q-69 0 -115.5 17.5t-75 48t-41 71t-12.5 87.5q0 63 32.5 116.5t98.5 82.5zM317 491h-84v73h84v-73z" />
    <glyph glyph-name="fe" unicode="&#x641;" horiz-adv-x="855" arabic-form="isolated" 
d="M461 242q0 28 11 57t32 52.5t52.5 38.5t72.5 15q38 0 69.5 -10.5t54 -33.5t34.5 -60t12 -91v-45q0 -77 -46.5 -121t-146.5 -44h-396q-41 0 -70.5 12.5t-48 33.5t-27 49t-8.5 59v134h64v-119q0 -45 23 -72.5t81 -27.5h303q18 0 31 0.5t24.5 0.5h21.5t21 -1q-56 19 -89 38
t-49.5 39t-21 43.5t-4.5 52.5zM522 235q0 -19 4 -35.5t21.5 -33t54 -35t101.5 -41.5q15 13 24 33.5t9 46.5v33q0 62 -25.5 97.5t-85.5 35.5q-24 0 -43.5 -9t-32.5 -23t-20 -32t-7 -37zM670 506h-84v73h84v-73z" />
    <glyph glyph-name="qaf" unicode="&#x642;" horiz-adv-x="708" arabic-form="isolated" 
d="M403 -174q44 0 77.5 14t57 38t36.5 55.5t15 66.5h-100q-51 0 -84.5 11t-52.5 32t-26.5 50.5t-7.5 66.5q0 38 11 72t32.5 60t53 41.5t72.5 15.5q33 0 63 -11t52.5 -34.5t36 -61t13.5 -90.5v-136q0 -51 -17 -98t-48.5 -82.5t-76.5 -56.5t-101 -21h-122q-112 0 -174 69
t-62 189v175h64v-173q0 -43 10.5 -78t33 -60.5t56.5 -39.5t82 -14h106zM381 164q0 -25 5.5 -43t19 -29.5t36.5 -17t58 -5.5h90v75q0 74 -29 106t-80 32q-48 0 -74 -32t-26 -86zM592 462h-80v71h80v-71zM465 462h-80v71h80v-71z" />
    <glyph glyph-name="kaf.arab" unicode="&#x643;" horiz-adv-x="769" arabic-form="isolated" 
d="M415 209v87q0 9 -5.5 15.5t-20.5 6.5h-127v117q0 50 28 78t81 28h49l6 -52h-53q-30 0 -45.5 -13.5t-15.5 -44.5v-61h100q30 0 41.5 -18t11.5 -39v-104h-50zM210 0q-41 0 -70.5 12.5t-48 33.5t-27 49t-8.5 59v134h64v-119q0 -45 23 -72.5t81 -27.5h325q39 0 62.5 21
t23.5 58v472h64v-472q0 -71 -39.5 -109.5t-106.5 -38.5h-343z" />
    <glyph glyph-name="lam" unicode="&#x644;" horiz-adv-x="661" arabic-form="isolated" 
d="M592 20q0 -54 -17 -101.5t-49 -83t-77.5 -56.5t-102.5 -21h-59q-112 0 -174 69t-62 189v175h64v-173q0 -43 10.5 -78t33 -60.5t56.5 -39.5t82 -14h44q47 0 82 15.5t58.5 41.5t35 61t11.5 73v603h64v-600z" />
    <glyph glyph-name="mim" unicode="&#x645;" horiz-adv-x="630" arabic-form="isolated" 
d="M405 0q-69 0 -111 36.5t-42 106.5v61q0 32 8 55t29 42h-42q-63 0 -95 -31.5t-32 -81.5v-430h-64v432q0 35 12.5 67t36.5 57t60 39.5t84 14.5h181q40 0 67.5 -11.5t44.5 -30.5t24.5 -43.5t7.5 -49.5v-88q0 -38 -13 -65.5t-35.5 -45t-53.5 -26t-67 -8.5zM412 69
q46 0 72.5 20.5t26.5 62.5v66q0 33 -19 57t-61 24h-36q-42 0 -61 -24.5t-19 -60.5v-59q0 -42 24.5 -64t72.5 -22z" />
    <glyph glyph-name="nun" unicode="&#x646;" horiz-adv-x="648" arabic-form="isolated" 
d="M592 20q0 -54 -17 -101.5t-49 -83t-77.5 -56.5t-102.5 -21h-59q-112 0 -174 69t-62 189v175h64v-173q0 -43 10.5 -78t33 -60.5t56.5 -39.5t82 -14h44q47 0 82 15.5t58.5 41.5t35 61t11.5 73v269h64v-266zM351 308h-84v73h84v-73z" />
    <glyph glyph-name="he" unicode="&#x647;" horiz-adv-x="456" arabic-form="isolated" 
d="M51 154q0 30 8 57t25 55t43 58t62 67l-46 47l44 47q62 -62 103.5 -106.5t67 -80.5t36.5 -66.5t11 -64.5q0 -36 -13.5 -66.5t-38 -53t-57.5 -35t-72 -12.5t-71 11.5t-54.5 32t-35 48.5t-12.5 62zM341 168q0 19 -5.5 37.5t-18.5 38.5t-34.5 44.5t-54.5 56.5
q-36 -35 -58.5 -61.5t-34.5 -47.5t-16 -38t-4 -34q0 -40 28.5 -67.5t81.5 -27.5q25 0 46.5 8t37 21.5t24 31.5t8.5 38z" />
    <glyph glyph-name="vav" unicode="&#x648;" horiz-adv-x="449" arabic-form="isolated" 
d="M146 -174q44 0 77.5 14t56.5 38t35 55.5t14 66.5h-100q-51 0 -84 11t-52 32t-26.5 50.5t-7.5 66.5q0 38 11 72t32 60t52.5 41.5t72.5 15.5q33 0 63 -11t53 -34.5t36.5 -61t13.5 -90.5v-136q0 -51 -16.5 -98t-47.5 -82.5t-76 -56.5t-101 -21h-106l-6 68h106zM121 164
q0 -25 5.5 -43t19 -29.5t36.5 -17t58 -5.5h90v75q0 74 -29 106t-80 32q-48 0 -74 -32t-26 -86z" />
    <glyph glyph-name="alef.maksura" unicode="&#x649;" horiz-adv-x="676" arabic-form="isolated" 
d="M363 -174q42 0 78 11t62.5 30.5t42 46t15.5 56.5q0 27 -15 45.5t-59 18.5h-174v173q0 76 44 123.5t122 47.5h115l5 -69h-124q-19 0 -36.5 -6.5t-31 -19t-22 -31t-8.5 -43.5v-106h122q37 0 61.5 -9.5t39 -26t20 -38.5t5.5 -47q0 -47 -20 -88t-54 -71t-80.5 -47.5
t-98.5 -17.5h-85q-112 0 -174 69t-62 189v175h64v-173q0 -43 10.5 -78t33 -60.5t56.5 -39.5t82 -14h66z" />
    <glyph glyph-name="ye.arab" unicode="&#x64a;" horiz-adv-x="676" arabic-form="isolated" 
d="M363 -174q42 0 78 11t62.5 30.5t42 46t15.5 56.5q0 27 -15 45.5t-59 18.5h-174v173q0 76 44 123.5t122 47.5h115l5 -69h-124q-19 0 -36.5 -6.5t-31 -19t-22 -31t-8.5 -43.5v-106h122q37 0 61.5 -9.5t39 -26t20 -38.5t5.5 -47q0 -47 -20 -88t-54 -71t-80.5 -47.5
t-98.5 -17.5h-85q-112 0 -174 69t-62 189v175h64v-173q0 -43 10.5 -78t33 -60.5t56.5 -39.5t82 -14h66zM422 -421h-76v71h76v-71zM292 -421h-77v71h77v-71z" />
    <glyph glyph-name="alef.vasla" unicode="&#x671;" horiz-adv-x="204" arabic-form="isolated" 
d="M69 465h65v-465h-65v465zM25 586q40 79 75 111.5t71 32.5q16 0 31 -7t26.5 -19t18 -28.5t6.5 -35.5q0 -15 -5 -32.5t-17.5 -32t-33 -24t-50.5 -9.5h-133l-26 22v97l37 5v-80zM148 582q29 0 48 14t19 43q0 20 -13 35t-35 15q-28 0 -53.5 -29.5t-52.5 -77.5h87z" />
    <glyph glyph-name="pe" unicode="&#x67e;" horiz-adv-x="766" arabic-form="isolated" 
d="M207 0q-41 0 -70.5 12.5t-48 33.5t-27 49t-8.5 59v134h64v-119q0 -45 23 -72.5t81 -27.5h341q41 0 63.5 21t22.5 58v138h65v-147q0 -33 -11.5 -59t-31 -44t-45 -27t-54.5 -9h-364zM425 -307h-80v71h80v-71zM488 -187h-80v71h80v-71zM361 -187h-80v71h80v-71z" />
    <glyph glyph-name="che" unicode="&#x686;" horiz-adv-x="539" arabic-form="isolated" 
d="M415 221q-8 21 -16 37t-21 27.5t-32.5 17t-49.5 5.5h-210l6 69h212q27 0 53.5 -5t51 -23.5t45 -56t34.5 -101.5l-198 -115q-98 -58 -139 -109.5t-41 -110.5q0 -84 45.5 -128.5t145.5 -44.5h185l-5 -68h-184q-69 0 -117 18.5t-78 50.5t-43.5 74t-13.5 90q0 41 11 77.5
t35.5 70t64 66t96.5 65.5zM384.749 -226.252h-75.498v67.0049h75.498v-67.0049zM444.204 -113.005h-75.498v67.0049h75.498v-67.0049zM324.351 -113.005h-75.498v67.0049h75.498v-67.0049z" />
    <glyph glyph-name="re.bv.fina" unicode="&#x695;" horiz-adv-x="264" 
d="M166 16q0 -58 -18 -105.5t-50 -81.5t-75 -52.5t-94 -18.5h-59l-5 68h49q50 0 86 16t59 42.5t34 60.5t11 71v270h64v-141q0 -35 23.5 -55.5t61.5 -20.5h11q22 0 22 -34q0 -35 -22 -35h-11q-24 0 -47.5 9t-39.5 31v-24zM137 -283l34 -21l-93 -183h-36l-93 183l34 21
l77 -154z" />
    <glyph glyph-name="je" unicode="&#x698;" horiz-adv-x="225" arabic-form="isolated" 
d="M168 16q0 -58 -18.5 -105.5t-50.5 -81.5t-75.5 -52.5t-94.5 -18.5h-59l-5 68h49q50 0 86 16t59 42.5t34 60.5t11 71v270h64v-270v0zM161 534h-80v70h80v-70zM224 414h-80v71h80v-71zM97 414h-80v71h80v-71z" />
    <glyph glyph-name="veh" unicode="&#x6a4;" horiz-adv-x="852" arabic-form="isolated" 
d="M458 242q0 28 11 57t32 52.5t52.5 38.5t72.5 15q38 0 69.5 -10.5t54 -33.5t34.5 -60t12 -91v-45q0 -77 -46.5 -121t-146.5 -44h-396q-41 0 -70.5 12.5t-48 33.5t-27 49t-8.5 59v134h64v-119q0 -45 23 -72.5t81 -27.5h303q35 0 55 1t43 -1q-56 19 -89 38t-49.5 39
t-21 43.5t-4.5 52.5zM519 235q0 -19 4 -35.5t21.5 -33t54 -35t101.5 -41.5q15 13 24 33.5t9 46.5v33q0 62 -25.5 97.5t-85.5 35.5q-24 0 -43.5 -9t-32.5 -23t-20 -32t-7 -37zM665 626h-80v70h80v-70zM728 506h-80v71h80v-71zM601 506h-80v71h80v-71z" />
    <glyph glyph-name="kaf" unicode="&#x6a9;" horiz-adv-x="793" arabic-form="isolated" 
d="M585 69q45 0 62 18.5t17 44.5q0 17 -6.5 38t-33.5 48l-216 215v71l332 131l16 -65l-283 -111l180 -181q25 -25 40.5 -45t24.5 -38t12 -35t3 -36q0 -32 -10.5 -55.5t-29.5 -38.5t-45 -22.5t-57 -7.5h-381q-41 0 -70.5 12.5t-48 33.5t-27 49t-8.5 59v134h64v-119
q0 -45 23 -72.5t81 -27.5h361z" />
    <glyph glyph-name="gaf" unicode="&#x6af;" horiz-adv-x="793" arabic-form="isolated" 
d="M404 641l300 122l13 -49l-310 -125zM585 69q45 0 62 18.5t17 44.5q0 17 -6.5 38t-33.5 48l-216 215v71l332 131l16 -65l-283 -111l180 -181q25 -25 40.5 -45t24.5 -38t12 -35t3 -36q0 -32 -10.5 -55.5t-29.5 -38.5t-45 -22.5t-57 -7.5h-381q-41 0 -70.5 12.5t-48 33.5
t-27 49t-8.5 59v134h64v-119q0 -45 23 -72.5t81 -27.5h361z" />
    <glyph glyph-name="lam.tv.init" unicode="&#x6b5;" horiz-adv-x="245" 
d="M26 69q39 0 62 21t23 58v307h65v-307q0 -71 -39.5 -109.5t-106.5 -38.5h-30q-13 0 -17.5 8t-4.5 25q0 18 4.5 27t17.5 9h26zM218 714l34 -21l-93 -183h-36l-93 183l34 21l77 -154z" />
    <glyph glyph-name="lam.tvmedi" unicode="&#x6b5;" horiz-adv-x="275" 
d="M26 69q42 0 63.5 21t21.5 58v307h65v-307q0 -22 7.5 -37t19.5 -24.5t27 -13.5t31 -4h14q13 0 17.5 -8.5t4.5 -25.5q0 -18 -4.5 -26.5t-17.5 -8.5h-16q-36 0 -67 13.5t-51 51.5q-22 -38 -52.5 -51.5t-62.5 -13.5h-26q-13 0 -17.5 8t-4.5 25q0 18 4.5 27t17.5 9h26z
M218 714l34 -21l-93 -183h-36l-93 183l34 21l77 -154z" />
    <glyph glyph-name="lam.tv.fina" unicode="&#x6b5;" horiz-adv-x="688" 
d="M677 0q-24 0 -47.5 9t-39.5 31v-22q0 -53 -17 -100t-48.5 -82.5t-77 -56.5t-101.5 -21h-59q-112 0 -174 69t-62 189v175h64v-173q0 -43 10.5 -78t33 -60.5t56.5 -39.5t82 -14h44q47 0 82 15.5t58.5 41.5t35 61t11.5 73v603h64v-475q0 -35 23.5 -55.5t61.5 -20.5h11
q22 0 22 -34q0 -35 -22 -35h-11zM408 618l34 -21l-93 -183h-36l-93 183l34 21l77 -154z" />
    <glyph glyph-name="he.thmz" unicode="&#x6c0;" horiz-adv-x="456" arabic-form="isolated" 
d="M172 575q-44 0 -63.5 21t-19.5 49q0 10 2.5 21.5t8.5 25t16.5 31.5t26.5 42h119l-5 -50h-93q-15 -23 -21 -36t-6 -24t8.5 -20.5t32.5 -9.5h195l-3 -50h-198zM51 154q0 30 8 57t25 55t43 58t62 67l-46 47l44 47q62 -62 103.5 -106.5t67 -80.5t36.5 -66.5t11 -64.5
q0 -36 -13.5 -66.5t-38 -53t-57.5 -35t-72 -12.5t-71 11.5t-54.5 32t-35 48.5t-12.5 62zM341 168q0 19 -5.5 37.5t-18.5 38.5t-34.5 44.5t-54.5 56.5q-36 -35 -58.5 -61.5t-34.5 -47.5t-16 -38t-4 -34q0 -40 28.5 -67.5t81.5 -27.5q25 0 46.5 8t37 21.5t24 31.5t8.5 38z" />
    <glyph glyph-name="he.thmz.goal.fina" unicode="&#x6c2;" horiz-adv-x="492" 
d="M220 106q52 0 82.5 21t30.5 53v150h-107q-52 0 -80 -34.5t-28 -91.5q0 -56 26 -77t76 -21zM396 166q0 -43 17 -70t62 -27h17q12 0 16.5 -8.5t4.5 -25.5q0 -18 -4.5 -26.5t-16.5 -8.5h-17q-47 0 -80 19.5t-47 70.5q-12 -15 -29.5 -25t-37 -15.5t-39 -7.5t-36.5 -2
q-73 0 -111.5 38t-38.5 119q0 37 10.5 72.5t31.5 63.5t52.5 45t74.5 17h108v69h63v-298zM380 637l-186 -94l-19 38l69 34q-32 8 -46 32.5t-14 50.5q0 42 27 68t69 26h46l-5 -43h-34q-29 0 -44.5 -15.5t-15.5 -38.5q0 -25 17 -39.5t38 -14.5q14 0 34.5 9.5t46.5 23.5z" />
    <glyph glyph-name="vav.tv" unicode="&#x6c6;" horiz-adv-x="449" arabic-form="isolated" 
d="M146 -174q44 0 77.5 14t56.5 38t35 55.5t14 66.5h-100q-51 0 -84 11t-52 32t-26.5 50.5t-7.5 66.5q0 38 11 72t32 60t52.5 41.5t72.5 15.5q33 0 63 -11t53 -34.5t36.5 -61t13.5 -90.5v-136q0 -51 -16.5 -98t-47.5 -82.5t-76 -56.5t-101 -21h-106l-6 68h106zM121 164
q0 -25 5.5 -43t19 -29.5t36.5 -17t58 -5.5h90v75q0 74 -29 106t-80 32q-48 0 -74 -32t-26 -86zM304 622l34 -21l-93 -183h-36l-93 183l34 21l77 -154z" />
    <glyph glyph-name="vav.t2p.fina" unicode="&#x6ca;" horiz-adv-x="489" 
d="M146 -174q44 0 77.5 14t56.5 38t35 55.5t14 66.5h-100q-51 0 -84 11t-52 32t-26.5 50.5t-7.5 66.5q0 38 11 72t32 60t52.5 41.5t72.5 15.5q33 0 63 -11t53 -34.5t36.5 -61t13.5 -90.5v-83h96q12 0 16.5 -8.5t4.5 -25.5q0 -18 -4.5 -26.5t-16.5 -8.5h-98q-2 -49 -19.5 -93
t-48.5 -77t-74 -52.5t-97 -19.5h-106l-6 68h106zM121 164q0 -25 5.5 -43t19 -29.5t36.5 -17t58 -5.5h90v75q0 74 -29 106t-80 32q-48 0 -74 -32t-26 -86zM332 462h-80v71h80v-71zM205 462h-80v71h80v-71z" />
    <glyph glyph-name="ye" unicode="&#x6cc;" horiz-adv-x="676" arabic-form="isolated" 
d="M363 -174q42 0 78 11t62.5 30.5t42 46t15.5 56.5q0 27 -15 45.5t-59 18.5h-174v173q0 76 44 123.5t122 47.5h115l5 -69h-124q-19 0 -36.5 -6.5t-31 -19t-22 -31t-8.5 -43.5v-106h122q37 0 61.5 -9.5t39 -26t20 -38.5t5.5 -47q0 -47 -20 -88t-54 -71t-80.5 -47.5
t-98.5 -17.5h-85q-112 0 -174 69t-62 189v175h64v-173q0 -43 10.5 -78t33 -60.5t56.5 -39.5t82 -14h66z" />
    <glyph glyph-name="ye.tv.init" unicode="&#x6ce;" horiz-adv-x="297" 
d="M90 69q39 0 62.5 21t23.5 58v138h65v-138q0 -71 -39.5 -109.5t-107.5 -38.5h-94q-13 0 -17.5 8t-4.5 25q0 18 4.5 27t17.5 9h90zM214 -187h-76v71h76v-71zM84 -187h-77v71h77v-71zM199 579l34 -21l-93 -183h-36l-93 183l34 21l77 -154z" />
    <glyph glyph-name="ye.tv.medi" unicode="&#x6ce;" horiz-adv-x="342" 
d="M76 69q42 0 64 21t22 58v138h65v-138q0 -22 7.5 -37t19.5 -24.5t27 -13.5t31 -4h30q23 0 23 -34q0 -35 -23 -35h-32q-36 0 -67 13.5t-51 51.5q-23 -38 -52.5 -51.5t-63.5 -13.5h-76q-13 0 -17.5 8t-4.5 25q0 18 4.5 27t17.5 9h76zM270 -187h-76v71h76v-71zM140 -187h-77
v71h77v-71zM269 579l34 -21l-93 -183h-36l-93 183l34 21l77 -154z" />
    <glyph glyph-name="ye.tv.fina" unicode="&#x6ce;" horiz-adv-x="699" 
d="M378 -174q51 0 85.5 10t56.5 26.5t31.5 37t9.5 42.5q0 24 -12.5 41t-42.5 17h-167l5 69h355q22 0 22 -34q0 -35 -22 -35h-98q13 -11 17.5 -27t4.5 -36q0 -27 -11.5 -58t-39 -58t-73 -45t-112.5 -18h-100q-112 0 -174 69t-62 189v175h64v-173q0 -43 10.5 -78t33 -60.5
t56.5 -39.5t82 -14h81zM374 399l34 -21l-93 -183h-36l-93 183l34 21l77 -154z" />
    <glyph glyph-name="ae.fina" unicode="&#x6d5;" horiz-adv-x="492" 
d="M220 106q52 0 82.5 21t30.5 53v150h-107q-52 0 -80 -34.5t-28 -91.5q0 -56 26 -77t76 -21zM396 166q0 -43 17 -70t62 -27h17q12 0 16.5 -8.5t4.5 -25.5q0 -18 -4.5 -26.5t-16.5 -8.5h-17q-47 0 -80 19.5t-47 70.5q-12 -15 -29.5 -25t-37 -15.5t-39 -7.5t-36.5 -2
q-73 0 -111.5 38t-38.5 119q0 37 10.5 72.5t31.5 63.5t52.5 45t74.5 17h108v69h63v-298z" />
    <glyph glyph-name="alef.vasla.fina" unicode="&#x671;" horiz-adv-x="230" arabic-form="final" 
d="M202 0q-26 0 -50 7.5t-42.5 25.5t-29.5 47.5t-11 73.5v311h65v-299q0 -42 18.5 -69.5t60.5 -27.5h17q22 0 22 -34q0 -35 -22 -35h-28zM25 586q40 79 75 111.5t71 32.5q16 0 31 -7t26.5 -19t18 -28.5t6.5 -35.5q0 -15 -5 -32.5t-17.5 -32t-33 -24t-50.5 -9.5h-133l-26 22
v97l37 5v-80zM148 582q29 0 48 14t19 43q0 20 -13 35t-35 15q-28 0 -53.5 -29.5t-52.5 -77.5h87z" />
    <glyph glyph-name="pe.fina" unicode="&#x67e;" horiz-adv-x="815" arabic-form="final" 
d="M562 69q42 0 64 21t22 58v138h65v-138q0 -22 7.5 -37t19.5 -24.5t27.5 -13.5t30.5 -4h17q13 0 17.5 -8.5t4.5 -25.5q0 -18 -4.5 -26.5t-17.5 -8.5h-18q-37 0 -68 13.5t-51 51.5q-23 -38 -53 -51.5t-63 -13.5h-355q-41 0 -70.5 12.5t-48 33.5t-27 49t-8.5 59v134h64v-119
q0 -45 23 -72.5t81 -27.5h341zM425 -307h-80v71h80v-71zM488 -187h-80v71h80v-71zM361 -187h-80v71h80v-71z" />
    <glyph glyph-name="pe.init" unicode="&#x67e;" horiz-adv-x="297" arabic-form="initial" 
d="M90 69q39 0 62.5 21t23.5 58v138h65v-138q0 -71 -39.5 -109.5t-107.5 -38.5h-94q-13 0 -17.5 8t-4.5 25q0 18 4.5 27t17.5 9h90zM155 -307h-80v71h80v-71zM218 -187h-80v71h80v-71zM91 -187h-80v71h80v-71z" />
    <glyph glyph-name="pe.medi" unicode="&#x67e;" horiz-adv-x="342" arabic-form="medial" 
d="M76 69q42 0 64 21t22 58v138h65v-138q0 -22 7.5 -37t19.5 -24.5t27 -13.5t31 -4h30q23 0 23 -34q0 -35 -23 -35h-32q-36 0 -67 13.5t-51 51.5q-23 -38 -52.5 -51.5t-63.5 -13.5h-76q-13 0 -17.5 8t-4.5 25q0 18 4.5 27t17.5 9h76zM197 -307h-80v71h80v-71zM260 -187h-80
v71h80v-71zM133 -187h-80v71h80v-71z" />
    <glyph glyph-name="veh.fina" unicode="&#x6a4;" horiz-adv-x="885" arabic-form="final" 
d="M624 327q-50 0 -79.5 -32t-29.5 -78q0 -26 11 -47t28 -38t37.5 -29.5t40.5 -21.5q16 9 33.5 21.5t32.5 29t25 37.5t10 45q0 51 -29.5 82t-79.5 31zM630 396q42 0 73 -14.5t51.5 -38t31 -53t10.5 -59.5q0 -98 -94 -162h183q22 0 22 -34q0 -35 -22 -35h-111q-46 0 -82 2.5
t-56 12.5q-15 -6 -35.5 -9t-42 -4.5t-42 -1.5h-34.5h-275q-41 0 -70.5 12.5t-48 33.5t-27 49t-8.5 59v134h64v-119q0 -45 23 -72.5t81 -27.5h335q-48 28 -75.5 67.5t-27.5 88.5q0 33 12 64t35 54.5t56 38t74 14.5zM665 613h-80v70h80v-70zM728 493h-80v71h80v-71zM601 493
h-80v71h80v-71z" />
    <glyph glyph-name="veh.init" unicode="&#x6a4;" horiz-adv-x="480" arabic-form="initial" 
d="M169 69q26 0 44.5 0.5t39.5 -0.5q-57 19 -89.5 38t-49.5 39t-21.5 43.5t-4.5 52.5q0 28 11 57t32.5 52.5t53 38.5t72.5 15q38 0 69 -10.5t53.5 -33.5t35 -60t12.5 -91v-45q0 -77 -46.5 -121t-146.5 -44h-234q-13 0 -17.5 8t-4.5 25q0 18 4.5 27t17.5 9h169zM253 336
q-24 0 -43.5 -9t-33 -23t-20.5 -32t-7 -37t4 -35.5t22 -33t54.5 -35t101.5 -41.5q32 27 32 80v33q0 62 -25 97.5t-85 35.5zM297 624h-80v70h80v-70zM360 504h-80v71h80v-71zM233 504h-80v71h80v-71z" />
    <glyph glyph-name="veh.medi" unicode="&#x6a4;" horiz-adv-x="521" arabic-form="medial" 
d="M192 69q-48 28 -76 67.5t-28 88.5q0 33 12.5 64t35.5 54.5t56.5 38t74.5 14.5t72 -14.5t51.5 -38t31 -53t10.5 -59.5q0 -99 -94 -162h183q22 0 22 -34q0 -35 -22 -35h-111q-46 0 -82 2.5t-56 12.5q-14 -6 -34.5 -9t-42 -4.5t-42 -1.5h-34.5h-119q-13 0 -17.5 8t-4.5 25
q0 18 4.5 27t17.5 9h192zM260 327q-50 0 -79 -32t-29 -78q0 -26 11 -47t27.5 -38t37 -29.5t40.5 -21.5q16 9 33.5 21.5t32.5 29t25 37.5t10 45q0 51 -29 82t-80 31zM308 613h-80v70h80v-70zM371 493h-80v71h80v-71zM244 493h-80v71h80v-71z" />
    <glyph glyph-name="che.fina" unicode="&#x686;" horiz-adv-x="566" arabic-form="final" 
d="M415 221q-8 21 -16 37t-21 27.5t-32.5 17t-49.5 5.5h-210l6 69h212q27 0 53.5 -5t51 -23.5t45 -56t34.5 -101.5l-74 -43q18 -45 40 -62t60 -17h52q13 0 17.5 -8.5t4.5 -25.5q0 -18 -4.5 -26.5t-17.5 -8.5h-58q-33 0 -55.5 9t-38 25t-26.5 38.5t-20 48.5l-78 -45
q-98 -58 -139 -109.5t-41 -110.5q0 -84 45.5 -128.5t145.5 -44.5h185l-5 -68h-184q-69 0 -117 18.5t-78 50.5t-43.5 74t-13.5 90q0 41 11 77.5t35.5 70t64 66t96.5 65.5zM352.5 -235.515h-71v63.0127h71v-63.0127zM408.414 -129.014h-71.001v63.0137h71.001v-63.0137z
M295.699 -129.014h-71v63.0137h71v-63.0137z" />
    <glyph glyph-name="che.init" unicode="&#x686;" horiz-adv-x="556" arabic-form="initial" 
d="M289 59q-26 -15 -50 -26.5t-52 -18.5t-61.5 -10.5t-76.5 -3.5h-49q-13 0 -17.5 8t-4.5 25q0 18 4.5 27t17.5 9h50q39 0 69 2.5t55 8t47 14.5t45 23l169 98q-8 21 -17 38.5t-22.5 29.5t-33.5 18.5t-50 6.5h-224l6 69h227q26 0 53.5 -6t52 -25.5t46 -57.5t35.5 -101z
M320 -307h-80v71h80v-71zM383 -187h-80v71h80v-71zM256 -187h-80v71h80v-71z" />
    <glyph glyph-name="che.medi" unicode="&#x686;" horiz-adv-x="596" arabic-form="medial" 
d="M433 143q17 -42 38.5 -58t58.5 -16h66q13 0 17.5 -8.5t4.5 -25.5q0 -18 -4.5 -26.5t-17.5 -8.5h-71q-33 0 -55.5 9t-38 24.5t-26 36.5t-19.5 46l-97 -57q-26 -15 -50 -26.5t-52 -18.5t-61.5 -10.5t-76.5 -3.5h-49q-13 0 -17.5 8t-4.5 25q0 18 4.5 27t17.5 9h50
q39 0 69 2.5t55 8t47 14.5t45 23l169 98q-8 21 -17 38.5t-22.5 29.5t-33.5 18.5t-50 6.5h-224l6 69h227q26 0 53.5 -6t52 -25.5t46 -57.5t35.5 -101zM320 -307h-80v71h80v-71zM383 -187h-80v71h80v-71zM256 -187h-80v71h80v-71z" />
    <glyph glyph-name="je.fina" unicode="&#x698;" horiz-adv-x="264" arabic-form="final" 
d="M166 16q0 -58 -18 -105.5t-50 -81.5t-75 -52.5t-94 -18.5h-59l-5 68h49q50 0 86 16t59 42.5t34 60.5t11 71v270h64v-141q0 -35 23.5 -55.5t61.5 -20.5h11q22 0 22 -34q0 -35 -22 -35h-11q-24 0 -47.5 9t-39.5 31v-24zM161 534h-80v70h80v-70zM224 414h-80v71h80v-71z
M97 414h-80v71h80v-71z" />
    <glyph glyph-name="kaf.fina" unicode="&#x6a9;" horiz-adv-x="939" arabic-form="final" 
d="M408 433v71l332 131l16 -65l-283 -111l180 -181q51 -51 87 -86t62 -58.5t44.5 -36.5t33.5 -19t28.5 -7.5t30.5 -1.5q13 0 17.5 -8.5t4.5 -25.5q0 -18 -4.5 -26.5t-17.5 -8.5q-28 0 -50.5 5t-46 19t-51.5 38t-67 63q3 -33 -6.5 -56.5t-28 -38.5t-44 -22.5t-54.5 -7.5h-381
q-41 0 -70.5 12.5t-48 33.5t-27 49t-8.5 59v134h64v-119q0 -46 23.5 -73t80.5 -27h361q45 0 62 18.5t17 44.5q0 17 -6.5 38t-33.5 48z" />
    <glyph glyph-name="kaf.init" unicode="&#x6a9;" horiz-adv-x="472" arabic-form="initial" 
d="M264 69q45 0 62 18.5t17 44.5q0 17 -6 38t-33 48l-216 215v71l331 131l17 -65l-284 -111l181 -181q24 -25 39.5 -45t24.5 -38t12 -35t3 -36q0 -32 -10.5 -55.5t-29.5 -38.5t-45 -22.5t-57 -7.5h-270q-13 0 -17.5 8t-4.5 25q0 18 4.5 27t17.5 9h264z" />
    <glyph glyph-name="kaf.medi" unicode="&#x6a9;" horiz-adv-x="618" arabic-form="medial" 
d="M264 69q45 0 62 18.5t17 44.5q0 17 -6 38t-33 48l-216 215v71l331 131l17 -65l-284 -111l181 -181q50 -51 86.5 -86t62.5 -58.5t44 -36.5t33 -19t28.5 -7.5t30.5 -1.5q22 0 22 -34q0 -35 -22 -35q-29 0 -51 5t-45.5 19t-51.5 38t-67 63q3 -33 -6.5 -56.5t-27.5 -38.5
t-43.5 -22.5t-55.5 -7.5h-270q-13 0 -17.5 8t-4.5 25q0 18 4.5 27t17.5 9h264z" />
    <glyph glyph-name="gaf.fina" unicode="&#x6af;" horiz-adv-x="939" arabic-form="final" 
d="M404 641l300 122l13 -49l-310 -125zM408 433v71l332 131l16 -65l-283 -111l180 -181q51 -51 87 -86t62 -58.5t44.5 -36.5t33.5 -19t28.5 -7.5t30.5 -1.5q13 0 17.5 -8.5t4.5 -25.5q0 -18 -4.5 -26.5t-17.5 -8.5q-28 0 -50.5 5t-46 19t-51.5 38t-67 63q3 -33 -6.5 -56.5
t-28 -38.5t-44 -22.5t-54.5 -7.5h-381q-41 0 -70.5 12.5t-48 33.5t-27 49t-8.5 59v134h64v-119q0 -46 23.5 -73t80.5 -27h361q45 0 62 18.5t17 44.5q0 17 -6.5 38t-33.5 48z" />
    <glyph glyph-name="gaf.init" unicode="&#x6af;" horiz-adv-x="472" arabic-form="initial" 
d="M86 641l300 122l12 -49l-310 -125zM264 69q45 0 62 18.5t17 44.5q0 17 -6 38t-33 48l-216 215v71l331 131l17 -65l-284 -111l181 -181q24 -25 39.5 -45t24.5 -38t12 -35t3 -36q0 -32 -10.5 -55.5t-29.5 -38.5t-45 -22.5t-57 -7.5h-270q-13 0 -17.5 8t-4.5 25q0 18 4.5 27
t17.5 9h264z" />
    <glyph glyph-name="gaf.medi" unicode="&#x6af;" horiz-adv-x="618" arabic-form="medial" 
d="M86 641l300 122l12 -49l-310 -125zM264 69q45 0 62 18.5t17 44.5q0 17 -6 38t-33 48l-216 215v71l331 131l17 -65l-284 -111l181 -181q50 -51 86.5 -86t62.5 -58.5t44 -36.5t33 -19t28.5 -7.5t30.5 -1.5q22 0 22 -34q0 -35 -22 -35q-29 0 -51 5t-45.5 19t-51.5 38t-67 63
q3 -33 -6.5 -56.5t-27.5 -38.5t-43.5 -22.5t-55.5 -7.5h-270q-13 0 -17.5 8t-4.5 25q0 18 4.5 27t17.5 9h264z" />
    <glyph glyph-name="he.thmz.fina" unicode="&#x6c0;" horiz-adv-x="492" arabic-form="final" 
d="M190 510q-45 0 -64 21t-19 49q0 21 11 46.5t42 73.5h119l-5 -50h-93q-15 -22 -21 -35t-6 -24t8.5 -21t33.5 -10h194l-3 -50h-197zM220 106q52 0 82.5 21t30.5 53v150h-107q-52 0 -80 -34.5t-28 -91.5q0 -56 26 -77t76 -21zM396 166q0 -43 17 -70t62 -27h17
q12 0 16.5 -8.5t4.5 -25.5q0 -18 -4.5 -26.5t-16.5 -8.5h-17q-47 0 -80 19.5t-47 70.5q-12 -15 -29.5 -25t-37 -15.5t-39 -7.5t-36.5 -2q-73 0 -111.5 38t-38.5 119q0 37 10.5 72.5t31.5 63.5t52.5 45t74.5 17h171v-229z" />
    <glyph glyph-name="he.dochashmi.fina" unicode="&#x6be;" horiz-adv-x="631" arabic-form="final" 
d="M444 209q0 45 -22.5 73t-69.5 28q-48 0 -74.5 -35t-26.5 -101v-247q0 -54 19.5 -75t51.5 -26l96 125q33 42 58 65.5t48.5 35.5t48.5 14.5t58 2.5q22 0 22 -34q0 -35 -22 -35q-30 0 -52.5 -2t-43.5 -12.5t-43 -32t-51 -60.5l-100 -135q-32 0 -59 9t-47.5 29t-32 51
t-11.5 76v248q0 36 7.5 72.5t26.5 66t50 48.5t79 19q37 0 65.5 -12t47.5 -33t28.5 -49.5t9.5 -61.5q0 -63 -39 -113.5t-102.5 -93.5t-145.5 -80t-168 -71l-21 62q84 33 159.5 66.5t132.5 68.5t90 72.5t33 76.5z" />
    <glyph glyph-name="he.dochashmi.init" unicode="&#x6be;" horiz-adv-x="714" arabic-form="initial" 
d="M258 320q-50 0 -79.5 -32t-29.5 -78q0 -26 11 -46t28 -36t37.5 -28t40.5 -21q15 9 33 20.5t33 27.5t25 36t10 44q0 51 -29 82t-80 31zM0 0q-13 0 -17.5 8t-4.5 25q0 18 4.5 27t17.5 9h192q-47 26 -75.5 63t-28.5 87q0 33 12 63.5t35 53.5t55.5 37t74.5 14q41 0 71.5 -14
t51 -37.5t30.5 -52.5t10 -59q0 -92 -94 -155h177q39 0 60.5 18t21.5 47q0 14 -6.5 30.5t-22.5 34.5l-181 210l48 45l184 -214q26 -32 37 -60t11 -55q0 -54 -38.5 -89.5t-108.5 -35.5h-110q-46 0 -81.5 2.5t-56.5 12.5q-14 -6 -34.5 -9t-42 -4.5t-42 -1.5h-34.5h-115z" />
    <glyph glyph-name="he.dochashmi.medi" unicode="&#x6be;" horiz-adv-x="536" arabic-form="medial" 
d="M95 69v102q0 36 8 72.5t26.5 66t50 48.5t79.5 19q37 0 65.5 -12t47.5 -33t28.5 -49.5t9.5 -61.5q0 -46 -20 -85t-54.5 -68t-81 -46.5t-98.5 -19.5v-75q0 -54 20 -75.5t52 -25.5l95 125q33 42 58 65.5t48.5 35.5t48.5 14.5t58 2.5q13 0 17.5 -8.5t4.5 -25.5
q0 -18 -4.5 -26.5t-17.5 -8.5q-30 0 -52.5 -2t-43.5 -12.5t-43 -32t-51 -60.5l-100 -135q-32 0 -59.5 9t-47.5 29t-32 51t-12 76v77h-95q-13 0 -17.5 8t-4.5 25q0 18 4.5 27t17.5 9h95zM156 67q48 1 84.5 14t60.5 33t36 45t12 50q0 45 -22.5 73t-69.5 28q-48 0 -74.5 -35
t-26.5 -101v-107z" />
    <glyph glyph-name="vav.tv.fina" unicode="&#x6c6;" horiz-adv-x="489" arabic-form="final" 
d="M146 -174q44 0 77.5 14t56.5 38t35 55.5t14 66.5h-100q-51 0 -84 11t-52 32t-26.5 50.5t-7.5 66.5q0 38 11 72t32 60t52.5 41.5t72.5 15.5q33 0 63 -11t53 -34.5t36.5 -61t13.5 -90.5v-83h96q12 0 16.5 -8.5t4.5 -25.5q0 -18 -4.5 -26.5t-16.5 -8.5h-98q-2 -49 -19.5 -93
t-48.5 -77t-74 -52.5t-97 -19.5h-106l-6 68h106zM121 164q0 -25 5.5 -43t19 -29.5t36.5 -17t58 -5.5h90v75q0 74 -29 106t-80 32q-48 0 -74 -32t-26 -86zM304 622l34 -21l-93 -183h-36l-93 183l34 21l77 -154z" />
    <glyph glyph-name="alef.maksura.init" unicode="&#x649;" horiz-adv-x="297" arabic-form="initial" 
d="M90 69q39 0 62.5 21t23.5 58v138h65v-138q0 -71 -39.5 -109.5t-107.5 -38.5h-94q-13 0 -17.5 8t-4.5 25q0 18 4.5 27t17.5 9h90z" />
    <glyph glyph-name="alef.maksura.medi" unicode="&#x649;" horiz-adv-x="342" arabic-form="medial" 
d="M76 69q42 0 64 21t22 58v138h65v-138q0 -22 7.5 -37t19.5 -24.5t27 -13.5t31 -4h30q23 0 23 -34q0 -35 -23 -35h-32q-36 0 -67 13.5t-51 51.5q-23 -38 -52.5 -51.5t-63.5 -13.5h-76q-13 0 -17.5 8t-4.5 25q0 18 4.5 27t17.5 9h76z" />
    <glyph glyph-name="ye.fina" unicode="&#x6cc;" horiz-adv-x="699" arabic-form="final" 
d="M378 -174q51 0 85.5 10t56.5 26.5t31.5 37t9.5 42.5q0 24 -12.5 41t-42.5 17h-167l5 69h355q22 0 22 -34q0 -35 -22 -35h-98q13 -11 17.5 -27t4.5 -36q0 -27 -11.5 -58t-39 -58t-73 -45t-112.5 -18h-100q-112 0 -174 69t-62 189v175h64v-173q0 -43 10.5 -78t33 -60.5
t56.5 -39.5t82 -14h81z" />
    <glyph glyph-name="ye.init" unicode="&#x6cc;" horiz-adv-x="297" arabic-form="initial" 
d="M90 69q39 0 62.5 21t23.5 58v138h65v-138q0 -71 -39.5 -109.5t-107.5 -38.5h-94q-13 0 -17.5 8t-4.5 25q0 18 4.5 27t17.5 9h90zM214 -187h-76v71h76v-71zM84 -187h-77v71h77v-71z" />
    <glyph glyph-name="ye.medi" unicode="&#x6cc;" horiz-adv-x="342" arabic-form="medial" 
d="M76 69q42 0 64 21t22 58v138h65v-138q0 -22 7.5 -37t19.5 -24.5t27 -13.5t31 -4h30q23 0 23 -34q0 -35 -23 -35h-32q-36 0 -67 13.5t-51 51.5q-23 -38 -52.5 -51.5t-63.5 -13.5h-76q-13 0 -17.5 8t-4.5 25q0 18 4.5 27t17.5 9h76zM270 -187h-76v71h76v-71zM140 -187h-77
v71h77v-71z" />
    <glyph glyph-name=".shdd.on" unicode="&#xfc5e;" arabic-form="isolated" 
d="M12 313q-27 15 -39 37.5t-12 44.5q0 19 7 37t20 31t30.5 21t37.5 8q42 0 68 -27t26 -69q0 -32 -19.5 -59t-68.5 -48l-159 -66l-17 36v81q0 22 -19 22h-41v41h53q19 0 30 -10.5t11 -35.5v-81zM0 394q0 -20 14.5 -37.5t37.5 -28.5q23 9 41 25.5t18 40.5q0 21 -14 39t-41 18
q-29 0 -42.5 -18.5t-13.5 -38.5zM0 15q-8 -7 -15 -11t-16 -4h-30q-13 0 -29 4t-30.5 16.5t-24.5 36t-10 62.5v62h43v-74q0 -38 16.5 -51t42.5 -13h31v138h43v-138h32q26 0 42.5 13t16.5 51v74h42v-62q0 -39 -10 -62.5t-24.5 -36t-31 -16.5t-29.5 -4h-28q-10 0 -16.5 4
t-14.5 11z" />
    <glyph glyph-name=".shdd.en" unicode="&#xfc5f;" arabic-form="isolated" 
d="M0 338q-8 -7 -15 -11t-16 -4h-30q-13 0 -29 4t-30.5 16.5t-24.5 36t-10 62.5v62h43v-74q0 -38 16.5 -51t42.5 -13h31v138h43v-138h32q26 0 42.5 13t16.5 51v74h42v-62q0 -39 -10 -62.5t-24.5 -36t-31 -16.5t-29.5 -4h-28q-10 0 -16.5 4t-14.5 11zM107 136l16 -40
l-230 -96l-16 40zM107 257l16 -40l-230 -96l-16 40z" />
    <glyph glyph-name=".shdd.a" unicode="&#xfc60;" arabic-form="isolated" 
d="M107 361l16 -40l-230 -96l-16 40zM0 15q-8 -7 -15 -11t-16 -4h-30q-13 0 -29 4t-30.5 16.5t-24.5 36t-10 62.5v62h43v-74q0 -38 16.5 -51t42.5 -13h31v138h43v-138h32q26 0 42.5 13t16.5 51v74h42v-62q0 -39 -10 -62.5t-24.5 -36t-31 -16.5t-29.5 -4h-28q-10 0 -16.5 4
t-14.5 11z" />
    <glyph glyph-name=".shdd.o" unicode="&#xfc61;" arabic-form="isolated" 
d="M-133 267l126 50q-27 15 -39 37.5t-12 44.5q0 19 7 37t20 31t30 21t37 8q42 0 68.5 -27t26.5 -69q0 -32 -19.5 -59t-68.5 -48l-159 -66zM-19 398q0 -20 14.5 -37.5t37.5 -28.5q23 9 40.5 25.5t17.5 40.5q0 21 -13.5 39t-41.5 18q-29 0 -42 -18.5t-13 -38.5zM0 15
q-8 -7 -15 -11t-16 -4h-30q-13 0 -29 4t-30.5 16.5t-24.5 36t-10 62.5v62h43v-74q0 -38 16.5 -51t42.5 -13h31v138h43v-138h32q26 0 42.5 13t16.5 51v74h42v-62q0 -39 -10 -62.5t-24.5 -36t-31 -16.5t-29.5 -4h-28q-10 0 -16.5 4t-14.5 11z" />
    <glyph glyph-name=".shdd.e" unicode="&#xfc62;" arabic-form="isolated" 
d="M0 201q-8 -7 -15 -11t-16 -4h-30q-13 0 -29 4t-30.5 16.5t-24.5 36t-10 62.5v62h43v-74q0 -38 16.5 -51t42.5 -13h31v138h43v-138h32q26 0 42.5 13t16.5 51v74h42v-62q0 -39 -10 -62.5t-24.5 -36t-31 -16.5t-29.5 -4h-28q-10 0 -16.5 4t-14.5 11zM107 136l16 -40
l-230 -96l-16 40z" />
    <glyph glyph-name=".shdd.aa" unicode="&#xfc63;" arabic-form="isolated" 
d="M1 15q-8 -7 -15 -11t-16 -4h-30q-13 0 -29 4t-30.5 16.5t-24.5 36t-10 62.5v62h43v-74q0 -38 16.5 -51t42.5 -13h31v138h43v-138h32q26 0 42.5 13t16.5 51v74h42v-62q0 -39 -10 -62.5t-24.5 -36t-31 -16.5t-29.5 -4h-28q-10 0 -16.5 4t-14.5 11zM-22 421h43v-172h-43v172
z" />
    <glyph glyph-name="rial" unicode="&#xfdfc;" horiz-adv-x="1370" arabic-form="isolated" 
d="M1043 -174h20q49 0 84 16t57.5 42.5t33.5 60.5t11 71v270h65v-270q0 -58 -18.5 -105.5t-50.5 -81.5t-75.5 -52.5t-94.5 -18.5h-25zM967 69q39 0 62.5 21t23.5 58v138h65v-138q0 -71 -39.5 -109.5t-107.5 -38.5h-94q-13 0 -17.5 8t-4.5 25q0 18 4.5 27t17.5 9h90z
M931 -239h-76v71h76v-71zM801 -239h-77v71h77v-71zM849 0q-26 0 -50 7.5t-42.5 25.5t-29.5 47.5t-11 73.5v466h65v-454q0 -42 18.5 -69.5t60.5 -27.5h17q22 0 22 -34q0 -35 -22 -35h-28zM593 20q0 -54 -17 -101.5t-49 -83t-77.5 -56.5t-102.5 -21h-59q-112 0 -174 69
t-62 189v175h64v-173q0 -43 10.5 -78t33 -60.5t56.5 -39.5t82 -14h44q47 0 82 15.5t58.5 41.5t35 61t11.5 73v603h64v-600z" />
    <glyph glyph-name="alef.aa.fina" unicode="&#x622;" horiz-adv-x="230" arabic-form="final" 
d="M202 0q-26 0 -50 7.5t-42.5 25.5t-29.5 47.5t-11 73.5v329h65v-317q0 -42 18.5 -69.5t60.5 -27.5h17q22 0 22 -34q0 -35 -22 -35h-28zM53 592q-19 0 -30.5 -3.5t-19.5 -23.5l-21 -45l-43 19l26 58q9 18 17 29t17.5 17t22 8t29.5 2h184l-3 -61h-179z" />
    <glyph glyph-name="alef.thmz.fina" unicode="&#x623;" horiz-adv-x="230" arabic-form="final" 
d="M202 0q-26 0 -50 7.5t-42.5 25.5t-29.5 47.5t-11 73.5v301h65v-289q0 -42 18.5 -69.5t60.5 -27.5h17q22 0 22 -34q0 -35 -22 -35h-28zM203 604l-186 -94l-19 38l69 34q-32 8 -46 32.5t-14 50.5q0 42 27 68t69 26h46l-5 -43h-34q-29 0 -44.5 -15.5t-15.5 -38.5
q0 -25 17 -39.5t38 -14.5q14 0 34.5 9.5t46.5 23.5z" />
    <glyph glyph-name="vav.thmz.fina" unicode="&#x624;" horiz-adv-x="489" arabic-form="final" 
d="M146 -174q44 0 77.5 14t56.5 38t35 55.5t14 66.5h-100q-51 0 -84 11t-52 32t-26.5 50.5t-7.5 66.5q0 38 11 72t32 60t52.5 41.5t72.5 15.5q33 0 63 -11t53 -34.5t36.5 -61t13.5 -90.5v-83h96q12 0 16.5 -8.5t4.5 -25.5q0 -18 -4.5 -26.5t-16.5 -8.5h-98q-2 -49 -19.5 -93
t-48.5 -77t-74 -52.5t-97 -19.5h-106l-6 68h106zM121 164q0 -25 5.5 -43t19 -29.5t36.5 -17t58 -5.5h90v75q0 74 -29 106t-80 32q-48 0 -74 -32t-26 -86zM313 506l-186 -94l-19 38l69 34q-32 8 -46 32.5t-14 50.5q0 42 27 68t69 26h46l-5 -43h-34q-29 0 -44.5 -15.5
t-15.5 -38.5q0 -25 17 -39.5t38 -14.5q14 0 34.5 9.5t46.5 23.5z" />
    <glyph glyph-name="alef.bhmz.fina" unicode="&#x625;" horiz-adv-x="230" arabic-form="final" 
d="M202 0q-26 0 -50 7.5t-42.5 25.5t-29.5 47.5t-11 73.5v466h65v-454q0 -42 18.5 -69.5t60.5 -27.5h17q22 0 22 -34q0 -35 -22 -35h-28zM248 -260l-186 -94l-19 38l69 34q-32 8 -46 32.5t-14 50.5q0 42 27 68t69 26h46l-5 -43h-34q-29 0 -44.5 -15.5t-15.5 -38.5
q0 -25 17 -39.5t38 -14.5q14 0 34.5 9.5t46.5 23.5z" />
    <glyph glyph-name="ye.thmz.fina" unicode="&#x626;" horiz-adv-x="699" arabic-form="final" 
d="M378 -174q51 0 85.5 10t56.5 26.5t31.5 37t9.5 42.5q0 24 -12.5 41t-42.5 17h-167l5 69h355q22 0 22 -34q0 -35 -22 -35h-98q13 -11 17.5 -27t4.5 -36q0 -27 -11.5 -58t-39 -58t-73 -45t-112.5 -18h-100q-112 0 -174 69t-62 189v175h64v-173q0 -43 10.5 -78t33 -60.5
t56.5 -39.5t82 -14h81zM437 267l-186 -94l-19 38l69 34q-32 8 -46 32.5t-14 50.5q0 42 27 68t69 26h46l-5 -43h-34q-29 0 -44.5 -15.5t-15.5 -38.5q0 -25 17 -39.5t38 -14.5q14 0 34.5 9.5t46.5 23.5z" />
    <glyph glyph-name="ye.thmz.init" unicode="&#x626;" horiz-adv-x="297" arabic-form="initial" 
d="M90 69q39 0 62.5 21t23.5 58v138h65v-138q0 -71 -39.5 -109.5t-107.5 -38.5h-94q-13 0 -17.5 8t-4.5 25q0 18 4.5 27t17.5 9h90zM271 450l-186 -94l-19 38l69 34q-32 8 -46 32.5t-14 50.5q0 42 27 68t69 26h46l-5 -43h-34q-29 0 -44.5 -15.5t-15.5 -38.5q0 -25 17 -39.5
t38 -14.5q14 0 34.5 9.5t46.5 23.5z" />
    <glyph glyph-name="ye.thmz.medi" unicode="&#x626;" horiz-adv-x="342" arabic-form="medial" 
d="M76 69q42 0 64 21t22 58v138h65v-138q0 -22 7.5 -37t19.5 -24.5t27 -13.5t31 -4h30q23 0 23 -34q0 -35 -23 -35h-32q-36 0 -67 13.5t-51 51.5q-23 -38 -52.5 -51.5t-63.5 -13.5h-76q-13 0 -17.5 8t-4.5 25q0 18 4.5 27t17.5 9h76zM274 450l-186 -94l-19 38l69 34
q-32 8 -46 32.5t-14 50.5q0 42 27 68t69 26h46l-5 -43h-34q-29 0 -44.5 -15.5t-15.5 -38.5q0 -25 17 -39.5t38 -14.5q14 0 34.5 9.5t46.5 23.5z" />
    <glyph glyph-name="alef.fina" unicode="&#x627;" horiz-adv-x="230" arabic-form="final" 
d="M202 0q-26 0 -50 7.5t-42.5 25.5t-29.5 47.5t-11 73.5v466h65v-454q0 -42 18.5 -69.5t60.5 -27.5h17q22 0 22 -34q0 -35 -22 -35h-28z" />
    <glyph glyph-name="be.fina" unicode="&#x628;" horiz-adv-x="815" arabic-form="final" 
d="M562 69q42 0 64 21t22 58v138h65v-138q0 -22 7.5 -37t19.5 -24.5t27.5 -13.5t30.5 -4h17q13 0 17.5 -8.5t4.5 -25.5q0 -18 -4.5 -26.5t-17.5 -8.5h-18q-37 0 -68 13.5t-51 51.5q-23 -38 -53 -51.5t-63 -13.5h-355q-41 0 -70.5 12.5t-48 33.5t-27 49t-8.5 59v134h64v-119
q0 -45 23 -72.5t81 -27.5h341zM420 -189h-84v73h84v-73z" />
    <glyph glyph-name="be.init" unicode="&#x628;" horiz-adv-x="297" arabic-form="initial" 
d="M90 69q39 0 62.5 21t23.5 58v138h65v-138q0 -71 -39.5 -109.5t-107.5 -38.5h-94q-13 0 -17.5 8t-4.5 25q0 18 4.5 27t17.5 9h90zM130 -189h-84v73h84v-73z" />
    <glyph glyph-name="be.medi" unicode="&#x628;" horiz-adv-x="342" arabic-form="medial" 
d="M76 69q42 0 64 21t22 58v138h65v-138q0 -22 7.5 -37t19.5 -24.5t27 -13.5t31 -4h30q23 0 23 -34q0 -35 -23 -35h-32q-36 0 -67 13.5t-51 51.5q-23 -38 -52.5 -51.5t-63.5 -13.5h-76q-13 0 -17.5 8t-4.5 25q0 18 4.5 27t17.5 9h76zM212 -189h-84v73h84v-73z" />
    <glyph glyph-name="te.marbuta.fina" unicode="&#x629;" horiz-adv-x="492" arabic-form="final" 
d="M220 106q52 0 82.5 21t30.5 53v150h-107q-52 0 -80 -34.5t-28 -91.5q0 -56 26 -77t76 -21zM396 166q0 -43 17 -70t62 -27h17q12 0 16.5 -8.5t4.5 -25.5q0 -18 -4.5 -26.5t-16.5 -8.5h-17q-47 0 -80 19.5t-47 70.5q-12 -15 -29.5 -25t-37 -15.5t-39 -7.5t-36.5 -2
q-73 0 -111.5 38t-38.5 119q0 37 10.5 72.5t31.5 63.5t52.5 45t74.5 17h108v69h63v-298zM380 549h-80v71h80v-71zM253 549h-80v71h80v-71z" />
    <glyph glyph-name="te.fina" unicode="&#x62a;" horiz-adv-x="815" arabic-form="final" 
d="M562 69q42 0 64 21t22 58v138h65v-138q0 -22 7.5 -37t19.5 -24.5t27.5 -13.5t30.5 -4h17q13 0 17.5 -8.5t4.5 -25.5q0 -18 -4.5 -26.5t-17.5 -8.5h-18q-37 0 -68 13.5t-51 51.5q-23 -38 -53 -51.5t-63 -13.5h-355q-41 0 -70.5 12.5t-48 33.5t-27 49t-8.5 59v134h64v-119
q0 -45 23 -72.5t81 -27.5h341zM486 374h-80v71h80v-71zM359 374h-80v71h80v-71z" />
    <glyph glyph-name="te.init" unicode="&#x62a;" horiz-adv-x="297" arabic-form="initial" 
d="M90 69q39 0 62.5 21t23.5 58v138h65v-138q0 -71 -39.5 -109.5t-107.5 -38.5h-94q-13 0 -17.5 8t-4.5 25q0 18 4.5 27t17.5 9h90zM251 414h-80v71h80v-71zM124 414h-80v71h80v-71z" />
    <glyph glyph-name="te.medi" unicode="&#x62a;" horiz-adv-x="342" arabic-form="medial" 
d="M76 69q42 0 64 21t22 58v138h65v-138q0 -22 7.5 -37t19.5 -24.5t27 -13.5t31 -4h30q23 0 23 -34q0 -35 -23 -35h-32q-36 0 -67 13.5t-51 51.5q-23 -38 -52.5 -51.5t-63.5 -13.5h-76q-13 0 -17.5 8t-4.5 25q0 18 4.5 27t17.5 9h76zM287 414h-80v71h80v-71zM160 414h-80v71
h80v-71z" />
    <glyph glyph-name="the.fina" unicode="&#x62b;" horiz-adv-x="815" arabic-form="final" 
d="M562 69q42 0 64 21t22 58v138h65v-138q0 -22 7.5 -37t19.5 -24.5t27.5 -13.5t30.5 -4h17q13 0 17.5 -8.5t4.5 -25.5q0 -18 -4.5 -26.5t-17.5 -8.5h-18q-37 0 -68 13.5t-51 51.5q-23 -38 -53 -51.5t-63 -13.5h-355q-41 0 -70.5 12.5t-48 33.5t-27 49t-8.5 59v134h64v-119
q0 -45 23 -72.5t81 -27.5h341zM423 494h-80v70h80v-70zM486 374h-80v71h80v-71zM359 374h-80v71h80v-71z" />
    <glyph glyph-name="the.init" unicode="&#x62b;" horiz-adv-x="297" arabic-form="initial" 
d="M90 69q39 0 62.5 21t23.5 58v138h65v-138q0 -71 -39.5 -109.5t-107.5 -38.5h-94q-13 0 -17.5 8t-4.5 25q0 18 4.5 27t17.5 9h90zM188 534h-80v70h80v-70zM251 414h-80v71h80v-71zM124 414h-80v71h80v-71z" />
    <glyph glyph-name="the.medi" unicode="&#x62b;" horiz-adv-x="342" arabic-form="medial" 
d="M76 69q42 0 64 21t22 58v138h65v-138q0 -22 7.5 -37t19.5 -24.5t27 -13.5t31 -4h30q23 0 23 -34q0 -35 -23 -35h-32q-36 0 -67 13.5t-51 51.5q-23 -38 -52.5 -51.5t-63.5 -13.5h-76q-13 0 -17.5 8t-4.5 25q0 18 4.5 27t17.5 9h76zM224 534h-80v70h80v-70zM287 414h-80v71
h80v-71zM160 414h-80v71h80v-71z" />
    <glyph glyph-name="jim.fina" unicode="&#x62c;" horiz-adv-x="566" arabic-form="final" 
d="M415 221q-8 21 -16 37t-21 27.5t-32.5 17t-49.5 5.5h-210l6 69h212q27 0 53.5 -5t51 -23.5t45 -56t34.5 -101.5l-74 -43q18 -45 40 -62t60 -17h52q13 0 17.5 -8.5t4.5 -25.5q0 -18 -4.5 -26.5t-17.5 -8.5h-58q-33 0 -55.5 9t-38 25t-26.5 38.5t-20 48.5l-78 -45
q-98 -58 -139 -109.5t-41 -110.5q0 -84 45.5 -128.5t145.5 -44.5h185l-5 -68h-184q-69 0 -117 18.5t-78 50.5t-43.5 74t-13.5 90q0 41 11 77.5t35.5 70t64 66t96.5 65.5zM357 -171h-84v73h84v-73z" />
    <glyph glyph-name="jim.init" unicode="&#x62c;" horiz-adv-x="556" arabic-form="initial" 
d="M289 59q-26 -15 -50 -26.5t-52 -18.5t-61.5 -10.5t-76.5 -3.5h-49q-13 0 -17.5 8t-4.5 25q0 18 4.5 27t17.5 9h50q39 0 69 2.5t55 8t47 14.5t45 23l169 98q-8 21 -17 38.5t-22.5 29.5t-33.5 18.5t-50 6.5h-224l6 69h227q26 0 53.5 -6t52 -25.5t46 -57.5t35.5 -101z
M286 -189h-84v73h84v-73z" />
    <glyph glyph-name="jim.medi" unicode="&#x62c;" horiz-adv-x="596" arabic-form="medial" 
d="M433 143q17 -42 38.5 -58t58.5 -16h66q13 0 17.5 -8.5t4.5 -25.5q0 -18 -4.5 -26.5t-17.5 -8.5h-71q-33 0 -55.5 9t-38 24.5t-26 36.5t-19.5 46l-97 -57q-26 -15 -50 -26.5t-52 -18.5t-61.5 -10.5t-76.5 -3.5h-49q-13 0 -17.5 8t-4.5 25q0 18 4.5 27t17.5 9h50
q39 0 69 2.5t55 8t47 14.5t45 23l169 98q-8 21 -17 38.5t-22.5 29.5t-33.5 18.5t-50 6.5h-224l6 69h227q26 0 53.5 -6t52 -25.5t46 -57.5t35.5 -101zM286 -189h-84v73h84v-73z" />
    <glyph glyph-name="him.fina" unicode="&#x62d;" horiz-adv-x="566" arabic-form="final" 
d="M415 221q-8 21 -16 37t-21 27.5t-32.5 17t-49.5 5.5h-210l6 69h212q27 0 53.5 -5t51 -23.5t45 -56t34.5 -101.5l-74 -43q18 -45 40 -62t60 -17h52q13 0 17.5 -8.5t4.5 -25.5q0 -18 -4.5 -26.5t-17.5 -8.5h-58q-33 0 -55.5 9t-38 25t-26.5 38.5t-20 48.5l-78 -45
q-98 -58 -139 -109.5t-41 -110.5q0 -84 45.5 -128.5t145.5 -44.5h185l-5 -68h-184q-69 0 -117 18.5t-78 50.5t-43.5 74t-13.5 90q0 41 11 77.5t35.5 70t64 66t96.5 65.5z" />
    <glyph glyph-name="him.init" unicode="&#x62d;" horiz-adv-x="556" arabic-form="initial" 
d="M289 59q-26 -15 -50 -26.5t-52 -18.5t-61.5 -10.5t-76.5 -3.5h-49q-13 0 -17.5 8t-4.5 25q0 18 4.5 27t17.5 9h50q39 0 69 2.5t55 8t47 14.5t45 23l169 98q-8 21 -17 38.5t-22.5 29.5t-33.5 18.5t-50 6.5h-224l6 69h227q26 0 53.5 -6t52 -25.5t46 -57.5t35.5 -101z" />
    <glyph glyph-name="him.medi" unicode="&#x62d;" horiz-adv-x="596" arabic-form="medial" 
d="M433 143q17 -42 38.5 -58t58.5 -16h66q13 0 17.5 -8.5t4.5 -25.5q0 -18 -4.5 -26.5t-17.5 -8.5h-71q-33 0 -55.5 9t-38 24.5t-26 36.5t-19.5 46l-97 -57q-26 -15 -50 -26.5t-52 -18.5t-61.5 -10.5t-76.5 -3.5h-49q-13 0 -17.5 8t-4.5 25q0 18 4.5 27t17.5 9h50
q39 0 69 2.5t55 8t47 14.5t45 23l169 98q-8 21 -17 38.5t-22.5 29.5t-33.5 18.5t-50 6.5h-224l6 69h227q26 0 53.5 -6t52 -25.5t46 -57.5t35.5 -101z" />
    <glyph glyph-name="khe.fina" unicode="&#x62e;" horiz-adv-x="566" arabic-form="final" 
d="M415 221q-8 21 -16 37t-21 27.5t-32.5 17t-49.5 5.5h-210l6 69h212q27 0 53.5 -5t51 -23.5t45 -56t34.5 -101.5l-74 -43q18 -45 40 -62t60 -17h52q13 0 17.5 -8.5t4.5 -25.5q0 -18 -4.5 -26.5t-17.5 -8.5h-58q-33 0 -55.5 9t-38 25t-26.5 38.5t-20 48.5l-78 -45
q-98 -58 -139 -109.5t-41 -110.5q0 -84 45.5 -128.5t145.5 -44.5h185l-5 -68h-184q-69 0 -117 18.5t-78 50.5t-43.5 74t-13.5 90q0 41 11 77.5t35.5 70t64 66t96.5 65.5zM294 490h-84v73h84v-73z" />
    <glyph glyph-name="khe.init" unicode="&#x62e;" horiz-adv-x="556" arabic-form="initial" 
d="M289 59q-26 -15 -50 -26.5t-52 -18.5t-61.5 -10.5t-76.5 -3.5h-49q-13 0 -17.5 8t-4.5 25q0 18 4.5 27t17.5 9h50q39 0 69 2.5t55 8t47 14.5t45 23l169 98q-8 21 -17 38.5t-22.5 29.5t-33.5 18.5t-50 6.5h-224l6 69h227q26 0 53.5 -6t52 -25.5t46 -57.5t35.5 -101z
M293 490h-84v73h84v-73z" />
    <glyph glyph-name="khe.medi" unicode="&#x62e;" horiz-adv-x="596" arabic-form="medial" 
d="M433 143q17 -42 38.5 -58t58.5 -16h66q13 0 17.5 -8.5t4.5 -25.5q0 -18 -4.5 -26.5t-17.5 -8.5h-71q-33 0 -55.5 9t-38 24.5t-26 36.5t-19.5 46l-97 -57q-26 -15 -50 -26.5t-52 -18.5t-61.5 -10.5t-76.5 -3.5h-49q-13 0 -17.5 8t-4.5 25q0 18 4.5 27t17.5 9h50
q39 0 69 2.5t55 8t47 14.5t45 23l169 98q-8 21 -17 38.5t-22.5 29.5t-33.5 18.5t-50 6.5h-224l6 69h227q26 0 53.5 -6t52 -25.5t46 -57.5t35.5 -101zM293 490h-84v73h84v-73z" />
    <glyph glyph-name="dal.fina" unicode="&#x62f;" horiz-adv-x="513" arabic-form="final" 
d="M254 69q22 0 37 5.5t24.5 14t14 18.5t4.5 19q0 10 -4 27t-14.5 50t-30 88t-50.5 141l61 25l107 -305q16 -45 37 -64t59 -19h14q22 0 22 -34q0 -35 -22 -35h-14q-33 0 -63 12.5t-55 54.5q-21 -41 -52.5 -54t-68.5 -13h-215l-5 69h214z" />
    <glyph glyph-name="zal.fina" unicode="&#x630;" horiz-adv-x="513" arabic-form="final" 
d="M254 69q22 0 37 5.5t24.5 14t14 18.5t4.5 19q0 10 -4 27t-14.5 50t-30 88t-50.5 141l61 25l107 -305q16 -45 37 -64t59 -19h14q22 0 22 -34q0 -35 -22 -35h-14q-33 0 -63 12.5t-55 54.5q-21 -41 -52.5 -54t-68.5 -13h-215l-5 69h214zM313 575h-84v73h84v-73z" />
    <glyph glyph-name="re.fina" unicode="&#x631;" horiz-adv-x="264" arabic-form="final" 
d="M166 16q0 -58 -18 -105.5t-50 -81.5t-75 -52.5t-94 -18.5h-59l-5 68h49q50 0 86 16t59 42.5t34 60.5t11 71v270h64v-141q0 -35 23.5 -55.5t61.5 -20.5h11q22 0 22 -34q0 -35 -22 -35h-11q-24 0 -47.5 9t-39.5 31v-24z" />
    <glyph glyph-name="ze.fina" unicode="&#x632;" horiz-adv-x="264" arabic-form="final" 
d="M166 16q0 -58 -18 -105.5t-50 -81.5t-75 -52.5t-94 -18.5h-59l-5 68h49q50 0 86 16t59 42.5t34 60.5t11 71v270h64v-141q0 -35 23.5 -55.5t61.5 -20.5h11q22 0 22 -34q0 -35 -22 -35h-11q-24 0 -47.5 9t-39.5 31v-24zM172 414h-84v73h84v-73z" />
    <glyph glyph-name="sin.fina" unicode="&#x633;" horiz-adv-x="1171" arabic-form="final" 
d="M592 145q0 -35 24 -55.5t65 -20.5q46 0 70.5 21t24.5 58v138h64v-138q0 -44 25 -61.5t56 -17.5q40 0 61.5 21t21.5 58v138h65v-138q0 -22 7.5 -37t19 -24.5t26.5 -13.5t30 -4h19q22 0 22 -34q0 -35 -22 -35h-19q-36 0 -67 13.5t-51 51.5q-22 -38 -52.5 -51.5t-60.5 -13.5
q-35 0 -65.5 13.5t-50.5 51.5q-23 -38 -55.5 -51.5t-67.5 -13.5q-32 0 -55 10.5t-37 28.5v-23q0 -51 -17 -98t-48.5 -82.5t-76.5 -56.5t-102 -21h-59q-112 0 -174 69t-62 189v175h64v-173q0 -43 10.5 -78t33 -60.5t56.5 -39.5t82 -14h44q47 0 82 15.5t58.5 41.5t35 61
t11.5 73v269h64v-141z" />
    <glyph glyph-name="sin.init" unicode="&#x633;" horiz-adv-x="722" arabic-form="initial" 
d="M36 69q42 0 65.5 21t23.5 58v138h65v-138q0 -22 7.5 -37t20 -24.5t28 -13.5t31.5 -4q47 0 71.5 21t24.5 58v138h65v-138q0 -44 24.5 -61.5t55.5 -17.5q38 0 60.5 21t22.5 58v138h65v-138q0 -71 -39.5 -109.5t-106.5 -38.5q-36 0 -67 13.5t-51 51.5q-22 -38 -55.5 -51.5
t-69.5 -13.5q-39 0 -71 13.5t-52 51.5q-22 -38 -54 -51.5t-68 -13.5h-32q-13 0 -17.5 8t-4.5 25q0 18 4.5 27t17.5 9h36z" />
    <glyph glyph-name="sin.medi" unicode="&#x633;" horiz-adv-x="768" arabic-form="medial" 
d="M36 69q42 0 65.5 21t23.5 58v138h65v-138q0 -22 7.5 -37t20 -24.5t28 -13.5t31.5 -4q47 0 71.5 21t24.5 58v138h65v-138q0 -44 24.5 -61.5t55.5 -17.5q40 0 61.5 21t21.5 58v138h65v-138q0 -22 7.5 -37t19 -24.5t26.5 -13.5t30 -4h19q13 0 17.5 -8.5t4.5 -25.5
q0 -18 -4.5 -26.5t-17.5 -8.5h-19q-36 0 -67 13.5t-51 51.5q-23 -38 -53.5 -51.5t-59.5 -13.5q-36 0 -66 13.5t-50 51.5q-22 -38 -55.5 -51.5t-69.5 -13.5q-39 0 -71 13.5t-52 51.5q-22 -38 -54 -51.5t-68 -13.5h-32q-13 0 -17.5 8t-4.5 25q0 18 4.5 27t17.5 9h36z" />
    <glyph glyph-name="shin.fina" unicode="&#x634;" horiz-adv-x="1171" arabic-form="final" 
d="M592 145q0 -35 24 -55.5t65 -20.5q46 0 70.5 21t24.5 58v138h64v-138q0 -44 25 -61.5t56 -17.5q40 0 61.5 21t21.5 58v138h65v-138q0 -22 7.5 -37t19 -24.5t26.5 -13.5t30 -4h19q22 0 22 -34q0 -35 -22 -35h-19q-36 0 -67 13.5t-51 51.5q-22 -38 -52.5 -51.5t-60.5 -13.5
q-35 0 -65.5 13.5t-50.5 51.5q-23 -38 -55.5 -51.5t-67.5 -13.5q-32 0 -55 10.5t-37 28.5v-23q0 -51 -17 -98t-48.5 -82.5t-76.5 -56.5t-102 -21h-59q-112 0 -174 69t-62 189v175h64v-173q0 -43 10.5 -78t33 -60.5t56.5 -39.5t82 -14h44q47 0 82 15.5t58.5 41.5t35 61
t11.5 73v269h64v-141zM848 534h-80v70h80v-70zM911 414h-80v71h80v-71zM784 414h-80v71h80v-71z" />
    <glyph glyph-name="shin.init" unicode="&#x634;" horiz-adv-x="722" arabic-form="initial" 
d="M36 69q42 0 65.5 21t23.5 58v138h65v-138q0 -22 7.5 -37t20 -24.5t28 -13.5t31.5 -4q47 0 71.5 21t24.5 58v138h65v-138q0 -44 24.5 -61.5t55.5 -17.5q38 0 60.5 21t22.5 58v138h65v-138q0 -71 -39.5 -109.5t-106.5 -38.5q-36 0 -67 13.5t-51 51.5q-22 -38 -55.5 -51.5
t-69.5 -13.5q-39 0 -71 13.5t-52 51.5q-22 -38 -54 -51.5t-68 -13.5h-32q-13 0 -17.5 8t-4.5 25q0 18 4.5 27t17.5 9h36zM446 534h-80v70h80v-70zM509 414h-80v71h80v-71zM382 414h-80v71h80v-71z" />
    <glyph glyph-name="shin.medi" unicode="&#x634;" horiz-adv-x="768" arabic-form="medial" 
d="M36 69q42 0 65.5 21t23.5 58v138h65v-138q0 -22 7.5 -37t20 -24.5t28 -13.5t31.5 -4q47 0 71.5 21t24.5 58v138h65v-138q0 -44 24.5 -61.5t55.5 -17.5q40 0 61.5 21t21.5 58v138h65v-138q0 -22 7.5 -37t19 -24.5t26.5 -13.5t30 -4h19q13 0 17.5 -8.5t4.5 -25.5
q0 -18 -4.5 -26.5t-17.5 -8.5h-19q-36 0 -67 13.5t-51 51.5q-23 -38 -53.5 -51.5t-59.5 -13.5q-36 0 -66 13.5t-50 51.5q-22 -38 -55.5 -51.5t-69.5 -13.5q-39 0 -71 13.5t-52 51.5q-22 -38 -54 -51.5t-68 -13.5h-32q-13 0 -17.5 8t-4.5 25q0 18 4.5 27t17.5 9h36zM446 534
h-80v70h80v-70zM509 414h-80v71h80v-71zM382 414h-80v71h80v-71z" />
    <glyph glyph-name="sad.fina" unicode="&#x635;" horiz-adv-x="1225" arabic-form="final" 
d="M658 72q46 82 86 140t77 94.5t72 53t71 16.5q38 0 70 -15t54.5 -41t35 -61t12.5 -75q0 -49 -23 -87q18 -20 42 -24t55 -4h15q22 0 22 -34q0 -35 -22 -35h-15q-15 0 -31.5 0.5t-33 5t-32.5 13.5t-32 26q-21 -20 -51.5 -32.5t-71.5 -12.5h-266q-71 0 -102 42v-26
q0 -51 -17 -98t-48.5 -82.5t-76.5 -56.5t-102 -21h-59q-112 0 -174 69t-62 189v175h64v-173q0 -43 10.5 -78t33 -60.5t56.5 -39.5t82 -14h44q47 0 82 15.5t58.5 41.5t35 61t11.5 73v269h64v-131q0 -32 16.5 -55t49.5 -28zM1071 184q0 26 -8.5 48.5t-23 39t-35 26t-44.5 9.5
q-53 0 -110.5 -56.5t-127.5 -181.5h239q21 0 41 6.5t35 21t24.5 36t9.5 51.5z" />
    <glyph glyph-name="sad.init" unicode="&#x635;" horiz-adv-x="781" arabic-form="initial" 
d="M252 72q45 82 85 140t77 94.5t72 53t71 16.5q39 0 70.5 -15t54.5 -41t35.5 -61t12.5 -75q0 -34 -10.5 -67t-32.5 -59t-56 -42t-80 -16h-278q-39 0 -71 13.5t-52 51.5q-22 -38 -54.5 -51.5t-67.5 -13.5h-28q-13 0 -17.5 8t-4.5 25q0 18 4.5 27t17.5 9h32q42 0 65.5 21
t23.5 58v138h65v-138q0 -32 18.5 -51.5t47.5 -24.5zM665 184q0 26 -8.5 48.5t-23.5 39t-35.5 26t-44.5 9.5q-53 0 -110.5 -56.5t-127.5 -181.5h238q21 0 41.5 6.5t36 21t25 36t9.5 51.5z" />
    <glyph glyph-name="sad.medi" unicode="&#x635;" horiz-adv-x="819" arabic-form="medial" 
d="M252 72q45 82 85 140t77 94.5t72 53t71 16.5q39 0 70.5 -15t54.5 -41t35.5 -61t12.5 -75q0 -48 -25 -87q20 -20 43.5 -24t55.5 -4h15q22 0 22 -34q0 -35 -22 -35h-15q-16 0 -32 0.5t-32.5 5t-33 13.5t-31.5 26q-23 -20 -53.5 -32.5t-70.5 -12.5h-278q-39 0 -71 13.5
t-52 51.5q-22 -38 -54.5 -51.5t-67.5 -13.5h-28q-13 0 -17.5 8t-4.5 25q0 18 4.5 27t17.5 9h32q42 0 65.5 21t23.5 58v138h65v-138q0 -32 18.5 -51.5t47.5 -24.5zM665 184q0 26 -8.5 48.5t-23.5 39t-35.5 26t-44.5 9.5q-53 0 -110.5 -56.5t-127.5 -181.5h238q21 0 41.5 6.5
t36 21t25 36t9.5 51.5z" />
    <glyph glyph-name="zad.fina" unicode="&#x636;" horiz-adv-x="1225" arabic-form="final" 
d="M658 72q46 82 86 140t77 94.5t72 53t71 16.5q38 0 70 -15t54.5 -41t35 -61t12.5 -75q0 -49 -23 -87q18 -20 42 -24t55 -4h15q22 0 22 -34q0 -35 -22 -35h-15q-15 0 -31.5 0.5t-33 5t-32.5 13.5t-32 26q-21 -20 -51.5 -32.5t-71.5 -12.5h-266q-71 0 -102 42v-26
q0 -51 -17 -98t-48.5 -82.5t-76.5 -56.5t-102 -21h-59q-112 0 -174 69t-62 189v175h64v-173q0 -43 10.5 -78t33 -60.5t56.5 -39.5t82 -14h44q47 0 82 15.5t58.5 41.5t35 61t11.5 73v269h64v-131q0 -32 16.5 -55t49.5 -28zM1071 184q0 26 -8.5 48.5t-23 39t-35 26t-44.5 9.5
q-53 0 -110.5 -56.5t-127.5 -181.5h239q21 0 41 6.5t35 21t24.5 36t9.5 51.5zM955 481h-84v73h84v-73z" />
    <glyph glyph-name="zad.init" unicode="&#x636;" horiz-adv-x="781" arabic-form="initial" 
d="M252 72q45 82 85 140t77 94.5t72 53t71 16.5q39 0 70.5 -15t54.5 -41t35.5 -61t12.5 -75q0 -34 -10.5 -67t-32.5 -59t-56 -42t-80 -16h-278q-39 0 -71 13.5t-52 51.5q-22 -38 -54.5 -51.5t-67.5 -13.5h-28q-13 0 -17.5 8t-4.5 25q0 18 4.5 27t17.5 9h32q42 0 65.5 21
t23.5 58v138h65v-138q0 -32 18.5 -51.5t47.5 -24.5zM665 184q0 26 -8.5 48.5t-23.5 39t-35.5 26t-44.5 9.5q-53 0 -110.5 -56.5t-127.5 -181.5h238q21 0 41.5 6.5t36 21t25 36t9.5 51.5zM548 481h-84v73h84v-73z" />
    <glyph glyph-name="zad.medi" unicode="&#x636;" horiz-adv-x="819" arabic-form="medial" 
d="M252 72q45 82 85 140t77 94.5t72 53t71 16.5q39 0 70.5 -15t54.5 -41t35.5 -61t12.5 -75q0 -48 -25 -87q20 -20 43.5 -24t55.5 -4h15q22 0 22 -34q0 -35 -22 -35h-15q-16 0 -32 0.5t-32.5 5t-33 13.5t-31.5 26q-23 -20 -53.5 -32.5t-70.5 -12.5h-278q-39 0 -71 13.5
t-52 51.5q-22 -38 -54.5 -51.5t-67.5 -13.5h-28q-13 0 -17.5 8t-4.5 25q0 18 4.5 27t17.5 9h32q42 0 65.5 21t23.5 58v138h65v-138q0 -32 18.5 -51.5t47.5 -24.5zM665 184q0 26 -8.5 48.5t-23.5 39t-35.5 26t-44.5 9.5q-53 0 -110.5 -56.5t-127.5 -181.5h238q21 0 41.5 6.5
t36 21t25 36t9.5 51.5zM548 481h-84v73h84v-73z" />
    <glyph glyph-name="ta.fina" unicode="&#x637;" horiz-adv-x="711" arabic-form="final" 
d="M140 620h65v-305v-74.5t-2 -72.5q69 111 128.5 159.5t118.5 48.5q39 0 70.5 -15t54 -41t35 -61t12.5 -75q0 -23 -6 -45.5t-18 -41.5q19 -20 43 -24t56 -4h14q22 0 22 -34q0 -35 -22 -35h-14q-16 0 -32.5 0.5t-33 5t-33 13.5t-31.5 26q-21 -20 -51.5 -32.5t-71.5 -12.5
h-393l-6 69h95v551zM557 184q0 26 -8.5 48.5t-23 39t-35 26t-44.5 9.5q-53 0 -109.5 -56t-132.5 -182h242q21 0 41 6.5t35.5 21t25 36t9.5 51.5z" />
    <glyph glyph-name="ta.init" unicode="&#x637;" horiz-adv-x="630" arabic-form="initial" 
d="M98 620h64v-305v-74t-2 -73q59 93 110.5 141.5t102.5 60.5q31 6 57 2q33 -3 60.5 -19t47 -41.5t30.5 -58t11 -69.5q0 -34 -10.5 -67t-32.5 -59t-55 -42t-79 -16h-402q-13 0 -17.5 8t-4.5 25q0 18 4.5 27t17.5 9h98v551zM515 184q0 26 -8.5 48.5t-23.5 39t-35.5 26
t-44.5 9.5q-53 0 -109.5 -56t-132.5 -182h243q21 0 41 6.5t35.5 21t25 36t9.5 51.5z" />
    <glyph glyph-name="ta.medi" unicode="&#x637;" horiz-adv-x="668" arabic-form="medial" 
d="M98 620h64v-305v-74.5t-2 -72.5q62 98 116 147t107 59q11 2 21.5 1.5t21.5 -1.5q34 -3 62.5 -19.5t48.5 -42t31 -58.5t11 -70q0 -49 -23 -87q19 -20 42.5 -24t55.5 -4h14q13 0 17.5 -8.5t4.5 -25.5q0 -18 -4.5 -26.5t-17.5 -8.5h-14q-16 0 -32 0.5t-32.5 5t-33 13.5
t-31.5 26q-22 -20 -52.5 -32.5t-70.5 -12.5h-402q-13 0 -17.5 8t-4.5 25q0 18 4.5 27t17.5 9h98v551zM515 184q0 26 -8.5 48.5t-23.5 39t-35.5 26t-44.5 9.5q-53 0 -109.5 -56t-132.5 -182h243q21 0 41 6.5t35.5 21t25 36t9.5 51.5z" />
    <glyph glyph-name="za.fina" unicode="&#x638;" horiz-adv-x="711" arabic-form="final" 
d="M140 620h65v-305v-74.5t-2 -72.5q69 111 128.5 159.5t118.5 48.5q39 0 70.5 -15t54 -41t35 -61t12.5 -75q0 -23 -6 -45.5t-18 -41.5q19 -20 43 -24t56 -4h14q22 0 22 -34q0 -35 -22 -35h-14q-16 0 -32.5 0.5t-33 5t-33 13.5t-31.5 26q-21 -20 -51.5 -32.5t-71.5 -12.5
h-393l-6 69h95v551zM557 184q0 26 -8.5 48.5t-23 39t-35 26t-44.5 9.5q-53 0 -109.5 -56t-132.5 -182h242q21 0 41 6.5t35.5 21t25 36t9.5 51.5zM494 498h-84v73h84v-73z" />
    <glyph glyph-name="za.init" unicode="&#x638;" horiz-adv-x="630" arabic-form="initial" 
d="M98 620h64v-305v-74t-2 -73q59 93 110.5 141.5t102.5 60.5q31 6 57 2q33 -3 60.5 -19t47 -41.5t30.5 -58t11 -69.5q0 -34 -10.5 -67t-32.5 -59t-55 -42t-79 -16h-402q-13 0 -17.5 8t-4.5 25q0 18 4.5 27t17.5 9h98v551zM515 184q0 26 -8.5 48.5t-23.5 39t-35.5 26
t-44.5 9.5q-53 0 -109.5 -56t-132.5 -182h243q21 0 41 6.5t35.5 21t25 36t9.5 51.5zM448 498h-84v73h84v-73z" />
    <glyph glyph-name="za.medi" unicode="&#x638;" horiz-adv-x="668" arabic-form="medial" 
d="M98 620h64v-305v-74.5t-2 -72.5q62 98 116 147t107 59q11 2 21.5 1.5t21.5 -1.5q34 -3 62.5 -19.5t48.5 -42t31 -58.5t11 -70q0 -49 -23 -87q19 -20 42.5 -24t55.5 -4h14q13 0 17.5 -8.5t4.5 -25.5q0 -18 -4.5 -26.5t-17.5 -8.5h-14q-16 0 -32 0.5t-32.5 5t-33 13.5
t-31.5 26q-22 -20 -52.5 -32.5t-70.5 -12.5h-402q-13 0 -17.5 8t-4.5 25q0 18 4.5 27t17.5 9h98v551zM515 184q0 26 -8.5 48.5t-23.5 39t-35.5 26t-44.5 9.5q-53 0 -109.5 -56t-132.5 -182h243q21 0 41 6.5t35.5 21t25 36t9.5 51.5zM448 498h-84v73h84v-73z" />
    <glyph glyph-name="ein.fina" unicode="&#x639;" horiz-adv-x="541" arabic-form="final" 
d="M258 57q-41 -29 -68.5 -55.5t-44 -52t-23.5 -52t-7 -55.5q0 -75 43 -117t143 -42h180l-6 -68h-177q-69 0 -116.5 18t-76.5 48.5t-41.5 71t-12.5 85.5q0 73 36 134t121 124l-155 200l36 68h257q50 0 82 -23.5t32 -66.5q0 -14 -3.5 -29t-17.5 -35t-41 -47.5t-74 -66.5
q15 -10 30 -15.5t32 -8t37 -3t45 -0.5h73q22 0 22 -34q0 -35 -22 -35h-83q-33 0 -60.5 1t-51.5 6.5t-45.5 17t-42.5 32.5zM390 258q0 19 -15 30t-47 11h-200l139 -180q36 30 59.5 51t38 37t20 28t5.5 23z" />
    <glyph glyph-name="ein.init" unicode="&#x639;" horiz-adv-x="476" arabic-form="initial" 
d="M138 69q-30 29 -40 64t-10 58q0 37 12.5 69t35.5 56t55 37.5t71 13.5q35 0 66.5 -11t69.5 -36l-28 -55q-31 18 -56.5 25t-51.5 7q-24 0 -44 -9t-34.5 -23.5t-22 -34t-7.5 -40.5q0 -23 8 -44.5t21.5 -38.5t32 -27.5t38.5 -10.5h171l-5 -69h-420q-13 0 -17.5 8t-4.5 25
q0 18 4.5 27t17.5 9h138z" />
    <glyph glyph-name="ein.medi" unicode="&#x639;" horiz-adv-x="571" arabic-form="medial" 
d="M45 69q43 0 92 5.5t95 28.5l-149 193l37 68h257q45 0 75.5 -19t35.5 -57q1 -6 1 -12v-12q-2 -13 -7.5 -28t-20 -34.5t-40 -45.5t-66.5 -60q15 -10 29.5 -15.5t31.5 -8t37 -3t45 -0.5h73q22 0 22 -34q0 -35 -22 -35h-83q-33 0 -60.5 1t-51.5 6.5t-45.5 17t-42.5 32.5
q-54 -35 -110.5 -46t-128.5 -11h-49q-13 0 -17.5 8t-4.5 25q0 18 4.5 27t17.5 9h45zM421 258q0 19 -15.5 30t-46.5 11h-201l139 -180q36 30 60 51t38.5 37t20 28t5.5 23z" />
    <glyph glyph-name="qein.fina" unicode="&#x63a;" horiz-adv-x="541" arabic-form="final" 
d="M258 57q-41 -29 -68.5 -55.5t-44 -52t-23.5 -52t-7 -55.5q0 -75 43 -117t143 -42h180l-6 -68h-177q-69 0 -116.5 18t-76.5 48.5t-41.5 71t-12.5 85.5q0 73 36 134t121 124l-155 200l36 68h257q50 0 82 -23.5t32 -66.5q0 -14 -3.5 -29t-17.5 -35t-41 -47.5t-74 -66.5
q15 -10 30 -15.5t32 -8t37 -3t45 -0.5h73q22 0 22 -34q0 -35 -22 -35h-83q-33 0 -60.5 1t-51.5 6.5t-45.5 17t-42.5 32.5zM390 258q0 19 -15 30t-47 11h-200l139 -180q36 30 59.5 51t38 37t20 28t5.5 23zM309 504h-84v73h84v-73z" />
    <glyph glyph-name="qein.init" unicode="&#x63a;" horiz-adv-x="476" arabic-form="initial" 
d="M138 69q-30 29 -40 64t-10 58q0 37 12.5 69t35.5 56t55 37.5t71 13.5q35 0 66.5 -11t69.5 -36l-28 -55q-31 18 -56.5 25t-51.5 7q-24 0 -44 -9t-34.5 -23.5t-22 -34t-7.5 -40.5q0 -23 8 -44.5t21.5 -38.5t32 -27.5t38.5 -10.5h171l-5 -69h-420q-13 0 -17.5 8t-4.5 25
q0 18 4.5 27t17.5 9h138zM279 491h-84v73h84v-73z" />
    <glyph glyph-name="qein.medi" unicode="&#x63a;" horiz-adv-x="571" arabic-form="medial" 
d="M45 69q43 0 92 5.5t95 28.5l-149 193l37 68h257q45 0 75.5 -19t35.5 -57q1 -6 1 -12v-12q-2 -13 -7.5 -28t-20 -34.5t-40 -45.5t-66.5 -60q15 -10 29.5 -15.5t31.5 -8t37 -3t45 -0.5h73q22 0 22 -34q0 -35 -22 -35h-83q-33 0 -60.5 1t-51.5 6.5t-45.5 17t-42.5 32.5
q-54 -35 -110.5 -46t-128.5 -11h-49q-13 0 -17.5 8t-4.5 25q0 18 4.5 27t17.5 9h45zM421 258q0 19 -15.5 30t-46.5 11h-201l139 -180q36 30 60 51t38.5 37t20 28t5.5 23zM341 504h-84v73h84v-73z" />
    <glyph glyph-name="fe.fina" unicode="&#x641;" horiz-adv-x="888" arabic-form="final" 
d="M627 327q-50 0 -79.5 -32t-29.5 -78q0 -26 11 -47t28 -38t37.5 -29.5t40.5 -21.5q16 9 33.5 21.5t32.5 29t25 37.5t10 45q0 51 -29.5 82t-79.5 31zM633 396q42 0 73 -14.5t51.5 -38t31 -53t10.5 -59.5q0 -98 -94 -162h183q22 0 22 -34q0 -35 -22 -35h-111q-46 0 -82 2.5
t-56 12.5q-15 -6 -35 -9t-42 -4.5t-42 -1.5h-35h-275q-41 0 -70.5 12.5t-48 33.5t-27 49t-8.5 59v134h64v-119q0 -45 23 -72.5t81 -27.5h335q-48 28 -75.5 67.5t-27.5 88.5q0 33 12.5 64t35.5 54.5t55.5 38t73.5 14.5zM670 493h-84v73h84v-73z" />
    <glyph glyph-name="fe.init" unicode="&#x641;" horiz-adv-x="480" arabic-form="initial" 
d="M169 69q26 0 44.5 0.5t39.5 -0.5q-57 19 -89.5 38t-49.5 39t-21.5 43.5t-4.5 52.5q0 28 11 57t32.5 52.5t53 38.5t72.5 15q38 0 69 -10.5t53.5 -33.5t35 -60t12.5 -91v-45q0 -77 -46.5 -121t-146.5 -44h-234q-13 0 -17.5 8t-4.5 25q0 18 4.5 27t17.5 9h169zM253 336
q-24 0 -43.5 -9t-33 -23t-20.5 -32t-7 -37t4 -35.5t22 -33t54.5 -35t101.5 -41.5q32 27 32 80v33q0 62 -25 97.5t-85 35.5zM299 504h-84v73h84v-73z" />
    <glyph glyph-name="fe.medi" unicode="&#x641;" horiz-adv-x="521" arabic-form="medial" 
d="M192 69q-48 28 -76 67.5t-28 88.5q0 33 12.5 64t35.5 54.5t56.5 38t74.5 14.5t72 -14.5t51.5 -38t31 -53t10.5 -59.5q0 -99 -94 -162h183q22 0 22 -34q0 -35 -22 -35h-111q-46 0 -82 2.5t-56 12.5q-14 -6 -34.5 -9t-42 -4.5t-42 -1.5h-34.5h-119q-13 0 -17.5 8t-4.5 25
q0 18 4.5 27t17.5 9h192zM260 327q-50 0 -79 -32t-29 -78q0 -26 11 -47t27.5 -38t37 -29.5t40.5 -21.5q16 9 33.5 21.5t32.5 29t25 37.5t10 45q0 51 -29 82t-80 31zM310 493h-84v73h84v-73z" />
    <glyph glyph-name="qaf.fina" unicode="&#x642;" horiz-adv-x="748" arabic-form="final" 
d="M651 0q-2 -49 -20 -93t-49.5 -77t-75 -52.5t-97.5 -19.5h-122q-112 0 -174 69t-62 189v175h64v-173q0 -43 10.5 -78t33 -60.5t56.5 -39.5t82 -14h106q44 0 77.5 14t57 38t36.5 55.5t15 66.5h-100q-51 0 -84.5 11t-52.5 32t-26.5 50.5t-7.5 66.5q0 38 11 72t32.5 60
t53 41.5t72.5 15.5q33 0 63 -11t52.5 -34.5t36 -61t13.5 -90.5v-83h96q22 0 22 -34q0 -35 -22 -35h-97zM381 164q0 -25 5.5 -43t19 -29.5t36.5 -17t58 -5.5h90v75q0 74 -29 106t-80 32q-48 0 -74 -32t-26 -86zM592 462h-80v71h80v-71zM465 462h-80v71h80v-71z" />
    <glyph glyph-name="qaf.init" unicode="&#x642;" horiz-adv-x="480" arabic-form="initial" 
d="M169 69q26 0 44.5 0.5t39.5 -0.5q-57 19 -89.5 38t-49.5 39t-21.5 43.5t-4.5 52.5q0 28 11 57t32.5 52.5t53 38.5t72.5 15q38 0 69 -10.5t53.5 -33.5t35 -60t12.5 -91v-45q0 -77 -46.5 -121t-146.5 -44h-234q-13 0 -17.5 8t-4.5 25q0 18 4.5 27t17.5 9h169zM253 336
q-24 0 -43.5 -9t-33 -23t-20.5 -32t-7 -37t4 -35.5t22 -33t54.5 -35t101.5 -41.5q32 27 32 80v33q0 62 -25 97.5t-85 35.5zM358 506h-80v71h80v-71zM231 506h-80v71h80v-71z" />
    <glyph glyph-name="qaf.medi" unicode="&#x642;" horiz-adv-x="521" arabic-form="medial" 
d="M192 69q-48 28 -76 67.5t-28 88.5q0 33 12.5 64t35.5 54.5t56.5 38t74.5 14.5t72 -14.5t51.5 -38t31 -53t10.5 -59.5q0 -99 -94 -162h183q22 0 22 -34q0 -35 -22 -35h-111q-46 0 -82 2.5t-56 12.5q-14 -6 -34.5 -9t-42 -4.5t-42 -1.5h-34.5h-119q-13 0 -17.5 8t-4.5 25
q0 18 4.5 27t17.5 9h192zM260 327q-50 0 -79 -32t-29 -78q0 -26 11 -47t27.5 -38t37 -29.5t40.5 -21.5q16 9 33.5 21.5t32.5 29t25 37.5t10 45q0 51 -29 82t-80 31zM364 492h-80v71h80v-71zM237 492h-80v71h80v-71z" />
    <glyph glyph-name="kaf.arab.fina" unicode="&#x643;" horiz-adv-x="800" arabic-form="final" 
d="M415 209v87q0 9 -5.5 15.5t-20.5 6.5h-127v117q0 50 28 78t81 28h49l6 -52h-53q-30 0 -45.5 -13.5t-15.5 -44.5v-61h100q30 0 41.5 -18t11.5 -39v-104h-50zM210 0q-41 0 -70.5 12.5t-48 33.5t-27 49t-8.5 59v134h64v-119q0 -45 23 -72.5t81 -27.5h325q42 0 64 21t22 58
v472h64v-472q0 -22 7.5 -37t19.5 -24.5t27.5 -13.5t31.5 -4h15q22 0 22 -34q0 -35 -22 -35h-17q-36 0 -67.5 13.5t-51.5 51.5q-22 -38 -52 -51.5t-63 -13.5h-339z" />
    <glyph glyph-name="lam.fina" unicode="&#x644;" horiz-adv-x="688" arabic-form="final" 
d="M677 0q-24 0 -47.5 9t-39.5 31v-22q0 -53 -17 -100t-48.5 -82.5t-77 -56.5t-101.5 -21h-59q-112 0 -174 69t-62 189v175h64v-173q0 -43 10.5 -78t33 -60.5t56.5 -39.5t82 -14h44q47 0 82 15.5t58.5 41.5t35 61t11.5 73v603h64v-475q0 -35 23.5 -55.5t61.5 -20.5h11
q22 0 22 -34q0 -35 -22 -35h-11z" />
    <glyph glyph-name="lam.init" unicode="&#x644;" horiz-adv-x="245" arabic-form="initial" 
d="M26 69q39 0 62 21t23 58v472h65v-472q0 -71 -39.5 -109.5t-106.5 -38.5h-30q-13 0 -17.5 8t-4.5 25q0 18 4.5 27t17.5 9h26z" />
    <glyph glyph-name="lam.medi" unicode="&#x644;" horiz-adv-x="275" arabic-form="medial" 
d="M26 69q42 0 63.5 21t21.5 58v472h65v-472q0 -22 7.5 -37t19.5 -24.5t27 -13.5t31 -4h14q13 0 17.5 -8.5t4.5 -25.5q0 -18 -4.5 -26.5t-17.5 -8.5h-16q-36 0 -67 13.5t-51 51.5q-22 -38 -52.5 -51.5t-62.5 -13.5h-26q-13 0 -17.5 8t-4.5 25q0 18 4.5 27t17.5 9h26z" />
    <glyph glyph-name="mim.fina" unicode="&#x645;" horiz-adv-x="669" arabic-form="final" 
d="M574 161q0 -51 22.5 -71.5t54.5 -20.5h18q13 0 17.5 -8.5t4.5 -25.5q0 -18 -4.5 -26.5t-17.5 -8.5h-18q-32 0 -60 11.5t-48 53.5q-12 -20 -29 -33t-35.5 -20t-37.5 -9.5t-36 -2.5q-69 0 -111 36.5t-42 106.5v61q0 32 8 55t29 42h-42q-63 0 -95 -31.5t-32 -81.5v-430h-64
v432q0 35 12.5 67t36.5 57t60 39.5t84 14.5h181q40 0 67.5 -11.5t44.5 -30.5t24.5 -43.5t7.5 -49.5v-72zM412 69q46 0 72.5 20.5t26.5 62.5v66q0 33 -19 57t-61 24h-36q-42 0 -61 -24.5t-19 -60.5v-59q0 -42 24.5 -64t72.5 -22z" />
    <glyph glyph-name="mim.init" unicode="&#x645;" horiz-adv-x="483" arabic-form="initial" 
d="M16 69q39 0 59 19t20 51v38q0 87 44.5 136t123.5 49q41 0 72 -13t51.5 -37t30.5 -57t10 -73q0 -86 -45 -134t-123 -48q-40 0 -77 15.5t-58 55.5q-9 -23 -22 -37t-27 -21.5t-29.5 -10t-29.5 -2.5h-16q-13 0 -17.5 8t-4.5 25q0 18 4.5 27t17.5 9h16zM363 176q0 52 -23 84.5
t-79 32.5q-104 0 -104 -121q0 -51 28.5 -77t73.5 -26q51 0 77.5 28t26.5 79z" />
    <glyph glyph-name="mim.medi" unicode="&#x645;" horiz-adv-x="521" arabic-form="medial" 
d="M16 69q39 0 59 19t20 51v38q0 87 44.5 136t123.5 49q82 0 123 -50t41 -128v-31q0 -48 22 -66t55 -18h17q13 0 17.5 -8.5t4.5 -25.5q0 -18 -4.5 -26.5t-17.5 -8.5h-17q-16 0 -31.5 3t-30 11t-26.5 22.5t-21 37.5q-27 -45 -63.5 -59.5t-74.5 -14.5q-40 0 -76 15.5t-57 55.5
q-9 -23 -22 -37t-27 -21.5t-29.5 -10t-29.5 -2.5h-16q-13 0 -17.5 8t-4.5 25q0 18 4.5 27t17.5 9h16zM363 176q0 52 -23 84.5t-79 32.5q-104 0 -104 -121q0 -51 28.5 -77t73.5 -26q51 0 77.5 28t26.5 79z" />
    <glyph glyph-name="nun.fina" unicode="&#x646;" horiz-adv-x="688" arabic-form="final" 
d="M677 0q-24 0 -47.5 9t-39.5 31v-22q0 -53 -17 -100t-48.5 -82.5t-76.5 -56.5t-102 -21h-59q-112 0 -174 69t-62 189v175h64v-173q0 -43 10.5 -78t33 -60.5t56.5 -39.5t82 -14h44q47 0 82 15.5t58.5 41.5t35 61t11.5 73v269h64v-141q0 -35 23.5 -55.5t61.5 -20.5h11
q22 0 22 -34q0 -35 -22 -35h-11zM351 308h-84v73h84v-73z" />
    <glyph glyph-name="nun.init" unicode="&#x646;" horiz-adv-x="297" arabic-form="initial" 
d="M90 69q39 0 62.5 21t23.5 58v138h65v-138q0 -71 -39.5 -109.5t-107.5 -38.5h-94q-13 0 -17.5 8t-4.5 25q0 18 4.5 27t17.5 9h90zM214 414h-84v73h84v-73z" />
    <glyph glyph-name="nun.medi" unicode="&#x646;" horiz-adv-x="342" arabic-form="medial" 
d="M76 69q42 0 64 21t22 58v138h65v-138q0 -22 7.5 -37t19.5 -24.5t27 -13.5t31 -4h30q23 0 23 -34q0 -35 -23 -35h-32q-36 0 -67 13.5t-51 51.5q-23 -38 -52.5 -51.5t-63.5 -13.5h-76q-13 0 -17.5 8t-4.5 25q0 18 4.5 27t17.5 9h76zM229 414h-84v73h84v-73z" />
    <glyph glyph-name="he.fina" unicode="&#x647;" horiz-adv-x="492" arabic-form="final" 
d="M220 106q52 0 82.5 21t30.5 53v150h-107q-52 0 -80 -34.5t-28 -91.5q0 -56 26 -77t76 -21zM396 166q0 -43 17 -70t62 -27h17q12 0 16.5 -8.5t4.5 -25.5q0 -18 -4.5 -26.5t-16.5 -8.5h-17q-47 0 -80 19.5t-47 70.5q-12 -15 -29.5 -25t-37 -15.5t-39 -7.5t-36.5 -2
q-73 0 -111.5 38t-38.5 119q0 37 10.5 72.5t31.5 63.5t52.5 45t74.5 17h108v69h63v-298z" />
    <glyph glyph-name="he.init" unicode="&#x647;" horiz-adv-x="714" arabic-form="initial" 
d="M258 320q-50 0 -79.5 -32t-29.5 -78q0 -26 11 -46t28 -36t37.5 -28t40.5 -21q15 9 33 20.5t33 27.5t25 36t10 44q0 51 -29 82t-80 31zM0 0q-13 0 -17.5 8t-4.5 25q0 18 4.5 27t17.5 9h192q-47 26 -75.5 63t-28.5 87q0 33 12 63.5t35 53.5t55.5 37t74.5 14q41 0 71.5 -14
t51 -37.5t30.5 -52.5t10 -59q0 -92 -94 -155h177q39 0 60.5 18t21.5 47q0 14 -6.5 30.5t-22.5 34.5l-181 210l48 45l184 -214q26 -32 37 -60t11 -55q0 -54 -38.5 -89.5t-108.5 -35.5h-110q-46 0 -81.5 2.5t-56.5 12.5q-14 -6 -34.5 -9t-42 -4.5t-42 -1.5h-34.5h-115z" />
    <glyph glyph-name="he.medi" unicode="&#x647;" horiz-adv-x="536" arabic-form="medial" 
d="M95 69v102q0 36 8 72.5t26.5 66t50 48.5t79.5 19q37 0 65.5 -12t47.5 -33t28.5 -49.5t9.5 -61.5q0 -46 -20 -85t-54.5 -68t-81 -46.5t-98.5 -19.5v-75q0 -54 20 -75.5t52 -25.5l95 125q33 42 58 65.5t48.5 35.5t48.5 14.5t58 2.5q13 0 17.5 -8.5t4.5 -25.5
q0 -18 -4.5 -26.5t-17.5 -8.5q-30 0 -52.5 -2t-43.5 -12.5t-43 -32t-51 -60.5l-100 -135q-32 0 -59.5 9t-47.5 29t-32 51t-12 76v77h-95q-13 0 -17.5 8t-4.5 25q0 18 4.5 27t17.5 9h95zM156 67q48 1 84.5 14t60.5 33t36 45t12 50q0 45 -22.5 73t-69.5 28q-48 0 -74.5 -35
t-26.5 -101v-107z" />
    <glyph glyph-name="vav.fina" unicode="&#x648;" horiz-adv-x="489" arabic-form="final" 
d="M146 -174q44 0 77.5 14t56.5 38t35 55.5t14 66.5h-100q-51 0 -84 11t-52 32t-26.5 50.5t-7.5 66.5q0 38 11 72t32 60t52.5 41.5t72.5 15.5q33 0 63 -11t53 -34.5t36.5 -61t13.5 -90.5v-83h96q12 0 16.5 -8.5t4.5 -25.5q0 -18 -4.5 -26.5t-16.5 -8.5h-98q-2 -49 -19.5 -93
t-48.5 -77t-74 -52.5t-97 -19.5h-106l-6 68h106zM121 164q0 -25 5.5 -43t19 -29.5t36.5 -17t58 -5.5h90v75q0 74 -29 106t-80 32q-48 0 -74 -32t-26 -86z" />
    <glyph glyph-name="alef.maksura.fina" unicode="&#x649;" horiz-adv-x="699" arabic-form="final" 
d="M378 -174q51 0 85.5 10t56.5 26.5t31.5 37t9.5 42.5q0 24 -12.5 41t-42.5 17h-167l5 69h355q22 0 22 -34q0 -35 -22 -35h-98q13 -11 17.5 -27t4.5 -36q0 -27 -11.5 -58t-39 -58t-73 -45t-112.5 -18h-100q-112 0 -174 69t-62 189v175h64v-173q0 -43 10.5 -78t33 -60.5
t56.5 -39.5t82 -14h81z" />
    <glyph glyph-name="ye.arab.fina" unicode="&#x64a;" horiz-adv-x="699" arabic-form="final" 
d="M378 -174q51 0 85.5 10t56.5 26.5t31.5 37t9.5 42.5q0 24 -12.5 41t-42.5 17h-167l5 69h355q22 0 22 -34q0 -35 -22 -35h-98q13 -11 17.5 -27t4.5 -36q0 -27 -11.5 -58t-39 -58t-73 -45t-112.5 -18h-100q-112 0 -174 69t-62 189v175h64v-173q0 -43 10.5 -78t33 -60.5
t56.5 -39.5t82 -14h81zM422 -421h-76v71h76v-71zM292 -421h-77v71h77v-71z" />
    <glyph glyph-name=".notdef" horiz-adv-x="536" 
d="M462 0h-396v610h396v-610zM129 542v-473h271v473h-271z" />
    <glyph glyph-name=".null" horiz-adv-x="957" 
 />
    <glyph glyph-name="nonmarkingreturn" horiz-adv-x="957" 
 />
    <glyph glyph-name="line_feed" unicode="&#xa;" 
 />
    <glyph glyph-name="carriage_return" unicode="&#xd;" 
 />
    <glyph glyph-name="space" unicode=" " horiz-adv-x="153" 
 />
    <glyph glyph-name="exclam" unicode="!" horiz-adv-x="212" 
d="M138 474q0 -50 -1 -88t-2.5 -71t-3.5 -63.5t-5 -65.5h-39q-3 35 -5.5 65.5t-4.5 63.5t-3 71t-1 88v126h65v-126zM106 0q-44 0 -44 47q0 26 10.5 37.5t33.5 11.5q22 0 33 -11.5t11 -37.5q0 -47 -44 -47z" />
    <glyph glyph-name="quotedbl" unicode="&#x22;" horiz-adv-x="297" 
d="M58 610h58v-236h-58v236zM182 610h58v-236h-58v236z" />
    <glyph glyph-name="numbersign" unicode="#" horiz-adv-x="692" 
d="M224 386h-151v58h160l27 155l50 -7l-24 -148h168l28 155l50 -7l-26 -148h135v-58h-144l-30 -175h152v-55h-161l-28 -156l-51 7l26 149h-168l-29 -156l-50 7l26 149h-133v55h142zM415 211l29 175h-168l-30 -175h169z" />
    <glyph glyph-name="quotesingle" unicode="'" horiz-adv-x="174" 
d="M58 610h58v-236h-58v236z" />
    <glyph glyph-name="parenleft" unicode="(" horiz-adv-x="296" 
d="M115 213q0 -63 7 -112t23 -90.5t41 -78.5t60 -75l-39 -39q-36 35 -64.5 73.5t-49 85t-31.5 103.5t-11 129t11 129t31.5 103.5t49 84.5t64.5 73l39 -39q-35 -38 -60 -74.5t-41 -77t-23 -88t-7 -107.5z" />
    <glyph glyph-name="parenright" unicode=")" horiz-adv-x="296" 
d="M181.007 205.013q0 62.9961 -6.99902 111.993q-7 48.9971 -22.999 90.4951q-15.999 41.4971 -40.9971 78.4951q-24.999 36.9971 -59.9971 74.9951l38.998 38.998q35.998 -34.998 64.4961 -73.4961q28.498 -38.4971 48.9971 -84.9941q20.499 -46.498 31.498 -103.494
t10.999 -128.992q0 -71.9951 -10.999 -128.992q-10.999 -56.9961 -31.498 -103.493q-20.499 -46.498 -48.9971 -84.4951q-28.498 -37.998 -64.4961 -72.9961l-38.998 38.998q34.998 37.998 59.9971 74.4951q24.998 36.498 40.9971 76.9961q15.999 40.4971 22.999 87.9941
q6.99902 47.4971 6.99902 107.493z" />
    <glyph glyph-name="asterisk" unicode="*" horiz-adv-x="506" 
d="M153 220l-45 37l103 134l-160 56l21 53l155 -60l-2 171h56l-2 -171l155 60l21 -53l-160 -56l103 -134l-44 -37l-100 140z" />
    <glyph glyph-name="plus" unicode="+" horiz-adv-x="504" 
d="M51 165v60h173v168h60v-168h169v-60h-169v-165h-60v165h-173z" />
    <glyph glyph-name="hyphen_minus" unicode="-" horiz-adv-x="504" 
d="M51 165v62h402v-62h-402z" />
    <glyph glyph-name="period" unicode="." horiz-adv-x="220" 
d="M110 0q-48 0 -48 53t48 53t48 -53t-48 -53z" />
    <glyph glyph-name="slash" unicode="/" horiz-adv-x="546" 
d="M445 576l50 -33l-393 -620l-51 33z" />
    <glyph glyph-name="zero" unicode="0" horiz-adv-x="450" 
d="M225 389q33 0 64.5 -14.5t55.5 -38t39 -54.5t15 -64t-15 -63.5t-39 -54.5t-55.5 -38t-64.5 -14t-64.5 14t-55.5 38t-39 54.5t-15 63.5t15 64t39 54.5t55.5 38t64.5 14.5zM225 110q20 0 40 8.5t35.5 23.5t25.5 34.5t10 41.5q0 20 -10 39.5t-25.5 34.5t-35.5 24.5t-40 9.5
q-21 0 -41 -9.5t-35.5 -24.5t-25.5 -34.5t-10 -39.5q0 -22 10 -41.5t25.5 -34.5t35.5 -23.5t41 -8.5z" />
    <glyph glyph-name="one" unicode="1" horiz-adv-x="208" 
d="M85 -61v243q0 60 -3.5 105t-10 82.5t-15 71t-18.5 69.5l62 23q13 -40 22.5 -77t15.5 -77t9 -86.5t3 -105.5v-248h-65z" />
    <glyph glyph-name="two" unicode="2" horiz-adv-x="416" 
d="M229 243q-26 0 -47.5 9t-35.5 30q2 -23 3 -49t1 -52v-242h-65v243q0 60 -3.5 105t-10 82.5t-15 71t-18.5 69.5l62 23q7 -24 11.5 -43t9 -36t8.5 -32.5t9 -33.5q11 -35 30 -56t55 -21q32 0 56.5 19t24.5 54q0 23 -4 58.5t-12 77.5l63 13q8 -37 12 -75t4 -72
q0 -32 -10.5 -58.5t-29 -45.5t-43.5 -29t-55 -10z" />
    <glyph glyph-name="three" unicode="3" horiz-adv-x="622" 
d="M351 533q8 -37 12 -75t4 -72q0 -8 -1 -17t-4 -20q13 -17 32.5 -27.5t38.5 -10.5q33 0 55.5 21.5t22.5 48.5q0 26 -4 61.5t-12 77.5l62 13q17 -76 17 -151q0 -29 -10.5 -54.5t-28.5 -44.5t-42.5 -29.5t-53.5 -10.5q-28 0 -54 11.5t-51 38.5q-17 -23 -43.5 -36.5
t-61.5 -13.5q-26 0 -47.5 9t-35.5 30q2 -23 3 -49t1 -52v-242h-65v243q0 60 -3.5 105t-10 82.5t-15 71t-18.5 69.5l62 23q7 -24 11.5 -43t9 -36t8.5 -32.5t9 -33.5q11 -35 30 -56t55 -21q32 0 56.5 19t24.5 54q0 23 -4 58.5t-12 77.5l63 13v0z" />
    <glyph glyph-name="four" unicode="4" horiz-adv-x="534" 
d="M307 204q-46 0 -89.5 14t-69.5 38q1 -17 1.5 -36t0.5 -39v-242h-65v243q0 60 -3.5 105t-10 82.5t-15 71t-18.5 69.5l62 23q13 -45 22 -83.5t19 -85.5q3 -12 7 -23.5t12.5 -22t23 -19.5t37.5 -17q-24 24 -29.5 52.5t-5.5 49.5q0 31 12.5 59.5t34.5 49.5t52.5 33.5
t65.5 12.5q25 0 51 -5.5t59 -19.5l-21 -62q-30 12 -50 16.5t-39 4.5q-47 0 -76 -29.5t-29 -73.5q0 -21 7 -39t18.5 -31.5t26.5 -21t30 -7.5q38 0 73.5 10.5t67.5 25.5l19 -59q-54 -25 -96.5 -34.5t-84.5 -9.5z" />
    <glyph glyph-name="five" unicode="5" horiz-adv-x="612" 
d="M51 84q0 33 8.5 68.5t31.5 80t64 99.5t106 126l-46 41l40 47q96 -80 156 -144.5t93.5 -117.5t45 -97.5t11.5 -85.5q0 -43 -13 -74.5t-34 -52t-47.5 -30.5t-52.5 -10q-38 0 -65.5 13.5t-45.5 35.5q-20 -25 -50 -37t-59 -12q-66 0 -104.5 40t-38.5 110zM499 100
q0 28 -7.5 61t-29 72t-59.5 84.5t-99 99.5q-99 -100 -145 -179t-46 -140q0 -48 24 -72t62 -24q15 0 30.5 5t28 15.5t20 27t7.5 39.5v69h60v-63q0 -20 -3.5 -34t-7.5 -25q14 -16 34 -25t43 -9q36 0 62 25t26 73z" />
    <glyph glyph-name="six" unicode="6" horiz-adv-x="429" 
d="M297 455q-20 9 -40.5 13.5t-37.5 4.5q-23 0 -42 -8.5t-33 -22.5t-21.5 -32.5t-7.5 -39.5q0 -45 28 -70t74 -25q35 0 71 10t71 28l32 -46q-74 -67 -138 -155.5t-117 -183.5l-54 36q18 31 39.5 65.5t45.5 68t49.5 65.5t49.5 59q-24 -5 -45 -6t-41 1q-33 4 -57.5 17.5
t-40 33t-23.5 44.5t-8 53q0 32 11.5 63.5t33 56t51.5 39.5t66 15q26 0 50 -5.5t56 -21.5z" />
    <glyph glyph-name="seven" unicode="7" horiz-adv-x="533" 
d="M267 73q11 61 27.5 119.5t39 116.5t52.5 116.5t68 118.5l53 -36q-37 -59 -69 -119.5t-59 -128.5t-49.5 -147t-39.5 -174h-47q-17 95 -39.5 174t-49.5 147t-58.5 128.5t-68.5 119.5l53 36q76 -121 120 -235.5t67 -235.5z" />
    <glyph glyph-name="eight" unicode="8" horiz-adv-x="533" 
d="M267 399q-23 -121 -67 -235.5t-120 -235.5l-53 37q37 58 68.5 118.5t58.5 129t49.5 147t39.5 173.5h47q17 -95 39.5 -173.5t49.5 -147t59 -129t69 -118.5l-53 -37q-77 121 -121 235.5t-66 235.5z" />
    <glyph glyph-name="nine" unicode="9" horiz-adv-x="440" 
d="M317 -61v283q-32 -15 -63 -20t-60 -5q-39 0 -67.5 11.5t-46.5 31t-26.5 46t-8.5 56.5q0 37 12 72t34 63t53.5 45t71.5 17q45 0 76 -19.5t50.5 -53t28.5 -78.5t9 -95v-354h-63zM317 296q0 38 -6 70.5t-19 56t-34 37t-50 13.5q-24 0 -42.5 -11t-31 -29t-19.5 -40t-7 -43
q0 -38 24.5 -60t72.5 -22q31 0 58.5 6.5t53.5 21.5z" />
    <glyph glyph-name="colon" unicode=":" horiz-adv-x="220" 
d="M110 242q-48 0 -48 53t48 53t48 -53t-48 -53zM110 0q-48 0 -48 53t48 53t48 -53t-48 -53z" />
    <glyph glyph-name="less" unicode="&#x3c;" horiz-adv-x="455" 
d="M404 48l-27 -60l-326 176v64l326 177l27 -61l-285 -148z" />
    <glyph glyph-name="equal" unicode="=" horiz-adv-x="504" 
d="M51 70v62h402v-62h-402zM51 261v62h402v-62h-402z" />
    <glyph glyph-name="greater" unicode="&#x3e;" horiz-adv-x="455" 
d="M51.0244 48l26.999 -60l325.979 176v64l-325.979 177l-26.999 -61l284.982 -148z" />
    <glyph glyph-name="bracketleft" unicode="[" horiz-adv-x="304" 
d="M254 594v-61h-136v-649h136v-60h-196v770h196z" />
    <glyph glyph-name="backslash" unicode="\" horiz-adv-x="546" 
d="M101.027 576l-49.9971 -33l392.976 -620l50.9971 33z" />
    <glyph glyph-name="bracketright" unicode="]" horiz-adv-x="304" 
d="M50.0156 594v-61h135.991v-649h-135.991v-60h195.988v770h-195.988z" />
    <glyph glyph-name="underscore" unicode="_" horiz-adv-x="485" 
d="M51 48h383v-52h-383v52z" />
    <glyph glyph-name="braceleft" unicode="{" horiz-adv-x="354" 
d="M51 236q30 2 47 15t25.5 36t11 56t2.5 75q0 40 3.5 72.5t16 55.5t37 35.5t66.5 12.5h44v-61h-30q-22 0 -36.5 -5.5t-23 -19t-12 -36.5t-3.5 -58q0 -45 -2 -78.5t-9.5 -58t-21.5 -41.5t-37 -29q23 -12 37 -29t21.5 -42t9.5 -59t2 -79q0 -35 3.5 -57t12 -34.5t23 -17.5
t36.5 -5h30v-60h-44q-42 0 -66.5 12t-37 34t-16 53.5t-3.5 71.5q0 42 -2.5 75.5t-11 56.5t-25.5 35.5t-47 14.5v59z" />
    <glyph glyph-name="bar" unicode="|" horiz-adv-x="180" 
d="M122 -176h-64v770h64v-770z" />
    <glyph glyph-name="braceright" unicode="}" horiz-adv-x="354" 
d="M303.003 236q-29.998 2 -46.9971 15t-25.498 36q-8.5 23 -11 56q-2.49902 33 -2.49902 75q0 40 -3.5 72.5t-15.999 55.5t-36.998 35.5q-24.498 12.5 -66.4961 12.5h-43.9971v-61h29.998q21.999 0 36.498 -5.5t22.998 -19q8.5 -13.5 12 -36.5q3.49902 -23 3.49902 -58
q0 -45 2 -78.5t9.5 -58q7.49902 -24.5 21.498 -41.5q14 -17 36.998 -29q-22.998 -12 -36.998 -29q-13.999 -17 -21.498 -42q-7.5 -25 -9.5 -59t-2 -79q0 -35 -3.49902 -57q-3.5 -22 -12 -34.5q-8.49902 -12.5 -22.998 -17.5t-36.498 -5h-29.998v-60h43.9971
q41.998 0 66.4961 12q24.499 12 36.998 34t15.999 53.5t3.5 71.5q0 42 2.49902 75.5q2.5 33.5 11 56.5q8.49902 23 25.498 35.5t46.9971 14.5v59z" />
    <glyph glyph-name="nonbreakingspace" unicode="&#xa0;" horiz-adv-x="144" 
 />
    <glyph glyph-name="brokenbar" unicode="&#xa6;" horiz-adv-x="180" 
d="M122 280h-64v314h64v-314zM122 -176h-64v313h64v-313z" />
    <glyph glyph-name="guillemotleft" unicode="&#xab;" horiz-adv-x="414" 
d="M113 206q0 -35 3 -65.5t13 -60.5t27.5 -61t46.5 -67l-40 -35q-36 39 -58 76.5t-34 74t-16 71.5t-4 70t4 70t16 71.5t34 74t58 76.5l40 -35q-29 -36 -46.5 -67t-27.5 -61.5t-13 -62.5t-3 -69zM274 206q0 -35 3 -65.5t13 -60.5t27.5 -61t46.5 -67l-40 -35q-36 39 -58 76.5
t-34 74t-16 71.5t-4 70t4 70t16 71.5t34 74t58 76.5l40 -35q-29 -36 -46.5 -67t-27.5 -61.5t-13 -62.5t-3 -69z" />
    <glyph glyph-name="logicalnot" unicode="&#xac;" horiz-adv-x="504" 
d="M394 262h-343v60h402v-262h-59v202z" />
    <glyph glyph-name="softHyphen" unicode="&#xad;" horiz-adv-x="443" 
d="M51 151v63h341v-63h-341z" />
    <glyph glyph-name="degree" unicode="&#xb0;" horiz-adv-x="354" 
d="M51 473q0 26 10 49t27 40t40 27t49 10t49 -10t40 -27t27 -40t10 -49t-10 -49t-27 -40t-40 -27t-49 -10t-49 10t-40 27t-27 40t-10 49zM101 473q0 -32 22 -53.5t54 -21.5t54 21.5t22 53.5t-22 54t-54 22t-54 -22t-22 -54z" />
    <glyph glyph-name="plusminus" unicode="&#xb1;" horiz-adv-x="504" 
d="M51 0v62h402v-62h-402zM51 317v60h173v168h60v-168h169v-60h-169v-165h-60v165h-173z" />
    <glyph glyph-name="paragraph" unicode="&#xb6;" horiz-adv-x="445" 
d="M388 0h-59v548h-91v-548h-57v331q-36 0 -61 4.5t-40.5 18t-22 39t-6.5 68.5t7 69t22.5 40t41 19t62.5 5h204v-594z" />
    <glyph glyph-name="periodcentered" unicode="&#xb7;" horiz-adv-x="286" 
d="M132 198q-48 0 -48 53t48 53t48 -53t-48 -53z" />
    <glyph glyph-name="guillemotright" unicode="&#xbb;" horiz-adv-x="414" 
d="M140.007 206q0 -35 -3 -65.5t-12.999 -60.5t-27.498 -61t-46.4971 -67l39.9971 -35q35.998 39 57.9971 76.5q21.998 37.5 33.9971 74q12 36.5 15.999 71.5q4 35 4 70t-4 70q-3.99902 35 -15.999 71.5q-11.999 36.5 -33.9971 74q-21.999 37.5 -57.9971 76.5l-39.9971 -35
q28.998 -36 46.4971 -67t27.498 -61.5t12.999 -62.5t3 -69zM301.007 206q0 -35 -3 -65.5t-12.999 -60.5t-27.498 -61t-46.4971 -67l39.9971 -35q35.998 39 57.9971 76.5q21.998 37.5 33.9971 74q12 36.5 15.999 71.5q4 35 4 70t-4 70q-3.99902 35 -15.999 71.5
q-11.999 36.5 -33.9971 74q-21.999 37.5 -57.9971 76.5l-39.9971 -35q28.998 -36 46.4971 -67t27.498 -61.5t12.999 -62.5t3 -69z" />
    <glyph glyph-name="multiply" unicode="&#xd7;" horiz-adv-x="471" 
d="M51 344l42 42l143 -141l141 141l42 -42l-142 -142l144 -143l-44 -43l-143 144l-141 -142l-42 42l141 141z" />
    <glyph glyph-name="divide" unicode="&#xf7;" horiz-adv-x="504" 
d="M208 80h86v-80h-86v80zM208 468h86v-79h-86v79zM51 203v62h402v-62h-402z" />
    <glyph glyph-name="darhezar" unicode="&#x609;" horiz-adv-x="1025" 
d="M847 210q25 0 48 -11t40.5 -28.5t28 -40t10.5 -46.5t-10.5 -46.5t-28 -40t-40.5 -28t-48 -10.5t-47.5 10.5t-40 28t-28 40t-10.5 46.5t10.5 46.5t28 40t40 28.5t47.5 11zM847 13q13 0 26.5 6t23.5 16t16.5 22.5t6.5 26.5q0 13 -6.5 26t-16.5 23.5t-23.5 16.5t-26.5 6
q-14 0 -27 -6t-23 -16.5t-16.5 -23.5t-6.5 -26q0 -14 6.5 -26.5t16.5 -22.5t23 -16t27 -6zM531 210q25 0 48 -11t40.5 -28.5t28 -40t10.5 -46.5t-10.5 -46.5t-28 -40t-40.5 -28t-48 -10.5q-24 0 -47 10.5t-40.5 28t-28 40t-10.5 46.5t10.5 46.5t28 40t40.5 28.5t47 11z
M531 13q13 0 26.5 6t23.5 16t16.5 22.5t6.5 26.5q0 13 -6.5 26t-16.5 23.5t-23.5 16.5t-26.5 6q-14 0 -26.5 -6t-23 -16.5t-16.5 -23.5t-6 -26q0 -14 6 -26.5t16.5 -22.5t23 -16t26.5 -6zM177 290q-24 0 -47 10.5t-40.5 28.5t-28 40.5t-10.5 46.5q0 23 10.5 45.5t28 40
t40.5 28t47 10.5q25 0 48 -10.5t40.5 -28t28 -40t10.5 -45.5q0 -24 -10.5 -46.5t-28 -40.5t-40.5 -28.5t-48 -10.5zM177 487q-14 0 -27 -6t-23 -16t-16.5 -23t-6.5 -26q0 -14 6.5 -27t16.5 -23t23 -16t27 -6t27 6t23.5 16t16.5 23t6 27q0 13 -6 26t-16.5 23t-23.5 16t-27 6z
M526 576l50 -33l-393 -620l-51 33z" />
    <glyph glyph-name="darDahezar" unicode="&#x60a;" horiz-adv-x="1340" 
d="M1162 210q25 0 48 -11t40.5 -28.5t28 -40t10.5 -46.5t-10.5 -46.5t-28 -40t-40.5 -28t-48 -10.5q-24 0 -47 10.5t-40.5 28t-28 40t-10.5 46.5t10.5 46.5t28 40t40.5 28.5t47 11zM1162 13q14 0 27 6t23.5 16t16.5 22.5t6 26.5q0 13 -6 26t-16.5 23.5t-23.5 16.5t-27 6
q-13 0 -26 -6t-23.5 -16.5t-17 -23.5t-6.5 -26q0 -14 6.5 -26.5t17 -22.5t23.5 -16t26 -6zM847 210q25 0 48 -11t40.5 -28.5t28 -40t10.5 -46.5t-10.5 -46.5t-28 -40t-40.5 -28t-48 -10.5t-47.5 10.5t-40 28t-28 40t-10.5 46.5t10.5 46.5t28 40t40 28.5t47.5 11zM847 13
q13 0 26.5 6t23.5 16t16.5 22.5t6.5 26.5q0 13 -6.5 26t-16.5 23.5t-23.5 16.5t-26.5 6q-14 0 -27 -6t-23 -16.5t-16.5 -23.5t-6.5 -26q0 -14 6.5 -26.5t16.5 -22.5t23 -16t27 -6zM531 210q25 0 48 -11t40.5 -28.5t28 -40t10.5 -46.5t-10.5 -46.5t-28 -40t-40.5 -28
t-48 -10.5q-24 0 -47 10.5t-40.5 28t-28 40t-10.5 46.5t10.5 46.5t28 40t40.5 28.5t47 11zM531 13q13 0 26.5 6t23.5 16t16.5 22.5t6.5 26.5q0 13 -6.5 26t-16.5 23.5t-23.5 16.5t-26.5 6q-14 0 -26.5 -6t-23 -16.5t-16.5 -23.5t-6 -26q0 -14 6 -26.5t16.5 -22.5t23 -16
t26.5 -6zM177 290q-24 0 -47 10.5t-40.5 28.5t-28 40.5t-10.5 46.5q0 23 10.5 45.5t28 40t40.5 28t47 10.5q25 0 48 -10.5t40.5 -28t28 -40t10.5 -45.5q0 -24 -10.5 -46.5t-28 -40.5t-40.5 -28.5t-48 -10.5zM177 487q-14 0 -27 -6t-23 -16t-16.5 -23t-6.5 -26q0 -14 6.5 -27
t16.5 -23t23 -16t27 -6t27 6t23.5 16t16.5 23t6 27q0 13 -6 26t-16.5 23t-23.5 16t-27 6zM526 576l50 -33l-393 -620l-51 33z" />
    <glyph glyph-name="virgul" unicode="&#x60c;" horiz-adv-x="220" 
d="M110 0q-25 0 -36.5 13.5t-11.5 43.5q0 49 2.5 79t12 47.5t27.5 25.5t50 14v-44q-17 -4 -26.5 -8t-14.5 -11.5t-6 -20t-1 -33.5q28 0 40 -12t12 -41q0 -53 -48 -53z" />
    <glyph glyph-name="tarikh.sep" unicode="&#x60d;" horiz-adv-x="397" 
d="M286 285l54 -35l-230 -360l-52 35z" />
    <glyph glyph-name="noqte_virgul" unicode="&#x61b;" horiz-adv-x="220" 
d="M110 242q-25 0 -36.5 13.5t-11.5 43.5q0 49 2.5 79t12 47.5t27.5 25.5t50 14v-44q-17 -4 -26.5 -8t-14.5 -11.5t-6 -20t-1 -33.5q28 0 40 -12t12 -41q0 -53 -48 -53zM110 0q-48 0 -48 53t48 53t48 -53t-48 -53z" />
    <glyph glyph-name="soal" unicode="&#x61f;" horiz-adv-x="419" 
d="M296 420q0 25 -4.5 46t-15 37t-27.5 25t-42 9q-35 0 -58.5 -24t-23.5 -58q0 -29 14.5 -49.5t39.5 -45.5q21 -21 34 -37t20 -35t9 -44t2 -64h-63q0 32 -1.5 51t-7 33t-16 27t-29.5 33q-26 29 -45.5 59.5t-19.5 73.5q0 33 12 59.5t32 46t46.5 30t55.5 10.5q78 0 113 -50
t35 -133h-60zM209 0q-44 0 -44 47q0 26 10.5 37.5t33.5 11.5q22 0 33 -11.5t11 -37.5q0 -47 -44 -47z" />
    <glyph glyph-name="kashidas" unicode="&#x640;" horiz-adv-x="165" 
d="M165 69q13 0 17.5 -8.5t4.5 -25.5q0 -18 -4.5 -26.5t-17.5 -8.5h-165q-13 0 -17.5 8t-4.5 25q0 18 4.5 27t17.5 9h165z" />
    <glyph glyph-name=".an" unicode="&#x64b;" 
d="M109 136l16 -40l-230 -96l-16 40zM106 261l16 -40l-230 -96l-16 40z" />
    <glyph glyph-name=".on" unicode="&#x64c;" 
d="M3 90q-27 15 -39 37.5t-12 44.5q0 19 7 37t20 31t30.5 21t37.5 8q42 0 68 -27t26 -69q0 -32 -19.5 -59t-68.5 -48l-159 -66l-17 36v81q0 22 -19 22h-41v41h53q19 0 30 -10.5t11 -35.5v-81zM-9 171q0 -20 14.5 -37.5t37.5 -28.5q23 9 41 25.5t18 40.5q0 21 -14 39t-41 18
q-29 0 -42.5 -18.5t-13.5 -38.5z" />
    <glyph glyph-name=".en" unicode="&#x64d;" 
d="M109 -125l16 -40l-230 -96l-16 40zM106 0l16 -40l-230 -96l-16 40z" />
    <glyph glyph-name=".a" unicode="&#x64e;" 
d="M107 136l16 -40l-230 -96l-16 40z" />
    <glyph glyph-name=".o" unicode="&#x64f;" 
d="M-133 40l126 50q-27 15 -39 37.5t-12 44.5q0 19 7 37t20 31t30 21t37 8q42 0 68.5 -27t26.5 -69q0 -32 -19.5 -59t-68.5 -48l-159 -66zM-19 171q0 -20 14.5 -37.5t37.5 -28.5q23 9 40.5 25.5t17.5 40.5q0 21 -13.5 39t-41.5 18q-29 0 -42 -18.5t-13 -38.5z" />
    <glyph glyph-name=".e" unicode="&#x650;" 
d="M107 0l16 -40l-230 -96l-16 40z" />
    <glyph glyph-name=".shdd" unicode="&#x651;" 
d="M0 15q-8 -7 -15 -11t-16 -4h-30q-13 0 -29 4t-30.5 16.5t-24.5 36t-10 62.5v62h43v-74q0 -38 16.5 -51t42.5 -13h31v138h43v-138h32q26 0 42.5 13t16.5 51v74h42v-62q0 -39 -10 -62.5t-24.5 -36t-31 -16.5t-29.5 -4h-28q-10 0 -16.5 4t-14.5 11z" />
    <glyph glyph-name=".skn" unicode="&#x652;" 
d="M-104 104q0 44 30 74t74 30t74 -30t30 -74q0 -45 -30 -74.5t-74 -29.5t-74 29.5t-30 74.5zM-63 104q0 -26 18.5 -44t44.5 -18t44 18t18 44t-18 44t-44 18t-44.5 -18t-18.5 -44z" />
    <glyph glyph-name=".mad" unicode="&#x653;" 
d="M-15 70q-19 0 -30.5 -1.5t-21.5 -8.5t-21 -21t-28 -39l-30 20q20 33 34 51.5t27.5 27.5t30 11.5t41.5 2.5h158l-5 -43h-155z" />
    <glyph glyph-name=".thmz" unicode="&#x654;" 
d="M103 88l-186 -94l-19 38l69 34q-32 8 -46 32.5t-14 50.5q0 42 27 68t69 26h46l-5 -43h-34q-29 0 -44.5 -15.5t-15.5 -38.5q0 -25 17 -39.5t38 -14.5q14 0 34.5 9.5t46.5 23.5z" />
    <glyph glyph-name=".bhmz" unicode="&#x655;" 
d="M103 -154l-186 -94l-19 38l69 34q-32 8 -46 32.5t-14 50.5q0 42 27 68t69 26h46l-5 -43h-34q-29 0 -44.5 -15.5t-15.5 -38.5q0 -25 17 -39.5t38 -14.5q14 0 34.5 9.5t46.5 23.5z" />
    <glyph glyph-name=".i" unicode="&#x656;" 
d="M-22 0h43v-172h-43v172z" />
    <glyph glyph-name="sefr.arab" unicode="&#x660;" horiz-adv-x="450" 
d="M225 389q33 0 64.5 -14.5t55.5 -38t39 -54.5t15 -64t-15 -63.5t-39 -54.5t-55.5 -38t-64.5 -14t-64.5 14t-55.5 38t-39 54.5t-15 63.5t15 64t39 54.5t55.5 38t64.5 14.5zM225 110q20 0 40 8.5t35.5 23.5t25.5 34.5t10 41.5q0 20 -10 39.5t-25.5 34.5t-35.5 24.5t-40 9.5
q-21 0 -41 -9.5t-35.5 -24.5t-25.5 -34.5t-10 -39.5q0 -22 10 -41.5t25.5 -34.5t35.5 -23.5t41 -8.5z" />
    <glyph glyph-name="yek.arab" unicode="&#x661;" horiz-adv-x="214" 
d="M91 -61v243q0 60 -3.5 105t-10 82.5t-15 71t-18.5 69.5l62 23q13 -40 22.5 -77t15.5 -77t9 -86.5t3 -105.5v-248h-65z" />
    <glyph glyph-name="do.arab" unicode="&#x662;" horiz-adv-x="424" 
d="M235 243q-26 0 -47.5 9t-35.5 30q2 -23 3 -49t1 -52v-242h-65v243q0 60 -3.5 105t-10 82.5t-15 71t-18.5 69.5l62 23q7 -24 11.5 -43t9 -36t8.5 -32.5t9 -33.5q11 -35 30 -56t55 -21q32 0 56.5 19t24.5 54q0 23 -4 58.5t-12 77.5l63 13q8 -37 12 -75t4 -72
q0 -32 -10.5 -58.5t-29 -45.5t-43.5 -29t-55 -10z" />
    <glyph glyph-name="se.arab" unicode="&#x663;" horiz-adv-x="631" 
d="M357 533q8 -37 12 -75t4 -72q0 -8 -1 -17t-4 -20q13 -17 32.5 -27.5t38.5 -10.5q33 0 55.5 21.5t22.5 48.5q0 26 -4 61.5t-12 77.5l62 13q17 -76 17 -151q0 -29 -10.5 -54.5t-28.5 -44.5t-42.5 -29.5t-53.5 -10.5q-28 0 -54 11.5t-51 38.5q-17 -23 -43.5 -36.5
t-61.5 -13.5q-26 0 -47.5 9t-35.5 30q2 -23 3 -49t1 -52v-242h-65v243q0 60 -3.5 105t-10 82.5t-15 71t-18.5 69.5l62 23q7 -24 11.5 -43t9 -36t8.5 -32.5t9 -33.5q11 -35 30 -56t55 -21q32 0 56.5 19t24.5 54q0 23 -4 58.5t-12 77.5l63 13v0z" />
    <glyph glyph-name="char.arab" unicode="&#x664;" horiz-adv-x="534" 
d="M307 204q-46 0 -89.5 14t-69.5 38q1 -17 1.5 -36t0.5 -39v-242h-65v243q0 60 -3.5 105t-10 82.5t-15 71t-18.5 69.5l62 23q13 -45 22 -83.5t19 -85.5q3 -12 7 -23.5t12.5 -22t23 -19.5t37.5 -17q-24 24 -29.5 52.5t-5.5 49.5q0 31 12.5 59.5t34.5 49.5t52.5 33.5
t65.5 12.5q25 0 51 -5.5t59 -19.5l-21 -62q-30 12 -50 16.5t-39 4.5q-47 0 -76 -29.5t-29 -73.5q0 -21 7 -39t18.5 -31.5t26.5 -21t30 -7.5q38 0 73.5 10.5t67.5 25.5l19 -59q-54 -25 -96.5 -34.5t-84.5 -9.5z" />
    </font>
</defs>
</svg>
