<svg width="20" height="20" viewBox="0 0 20 20" fill="none" xmlns="http://www.w3.org/2000/svg">
<path d="M4.69359 16.2498C4.38965 16.2503 4.08699 16.2104 3.79359 16.1311C2.9129 15.8799 2.16573 15.2936 1.71238 14.4979C1.25902 13.7022 1.1356 12.7605 1.36859 11.8748L2.82484 6.34981C2.93825 5.90267 3.13987 5.4827 3.41785 5.11456C3.69583 4.74642 4.04457 4.43754 4.44359 4.20606C4.83211 3.98103 5.26141 3.83533 5.70664 3.77739C6.15187 3.71946 6.60417 3.75045 7.03734 3.86856C7.4978 3.99643 7.92668 4.21857 8.29678 4.52089C8.66689 4.82321 8.97015 5.19913 9.18734 5.62481H10.8123C11.0286 5.19845 11.3315 4.82198 11.7018 4.51954C12.072 4.2171 12.5014 3.99537 12.9623 3.86856C13.3955 3.75045 13.8478 3.71946 14.293 3.77739C14.7383 3.83533 15.1676 3.98103 15.5561 4.20606C15.9532 4.43695 16.3006 4.74413 16.5785 5.10992C16.8563 5.4757 17.059 5.89284 17.1748 6.33731L18.6311 11.8748C18.8676 12.7631 18.7451 13.7087 18.2902 14.5074C17.8353 15.3061 17.0844 15.8938 16.1998 16.1436C15.7667 16.2617 15.3144 16.2927 14.8691 16.2347C14.4239 16.1768 13.9946 16.0311 13.6061 15.8061C13.2084 15.576 12.8604 15.2691 12.5825 14.9032C12.3046 14.5373 12.1023 14.1197 11.9873 13.6748L11.8748 13.1248H8.12484L7.98109 13.6623C7.86618 14.1072 7.66387 14.5248 7.38595 14.8907C7.10804 15.2566 6.76007 15.5635 6.36234 15.7936C5.85451 16.0865 5.2798 16.2436 4.69359 16.2498ZM6.14359 4.99981C5.76643 5.00109 5.39604 5.10015 5.06859 5.28731C4.55537 5.58843 4.18233 6.08057 4.03109 6.65606L2.57484 12.1811C2.42246 12.7503 2.49945 13.3566 2.78929 13.8696C3.07912 14.3827 3.55866 14.7615 4.12484 14.9248C4.39828 14.9994 4.6838 15.019 4.96487 14.9825C5.24594 14.9461 5.51699 14.8542 5.76234 14.7123C6.01778 14.5648 6.24115 14.3678 6.41932 14.1327C6.5975 13.8977 6.72687 13.6293 6.79984 13.3436L7.18734 11.8748H12.8123L13.1936 13.3436C13.2678 13.6288 13.3977 13.8966 13.5758 14.1314C13.7538 14.3663 13.9765 14.5637 14.2311 14.7123C14.4776 14.8541 14.7497 14.9458 15.0318 14.9823C15.3139 15.0188 15.6003 14.9992 15.8748 14.9248C16.4417 14.7631 16.9218 14.3841 17.2109 13.8704C17.5 13.3566 17.5746 12.7495 17.4186 12.1811L15.9623 6.65606C15.8898 6.37093 15.7612 6.10309 15.5842 5.8681C15.4072 5.63312 15.1851 5.43569 14.9311 5.28731C14.6845 5.14554 14.4124 5.0538 14.1304 5.01733C13.8483 4.98087 13.5618 5.0004 13.2873 5.07481C12.9479 5.17158 12.6364 5.34795 12.3788 5.58926C12.1211 5.83058 11.9248 6.12988 11.8061 6.46231L11.6561 6.87481H8.34359L8.19359 6.46231C8.07381 6.12944 7.87638 5.82993 7.61768 5.58862C7.35899 5.34732 7.04648 5.17118 6.70609 5.07481C6.52267 5.02535 6.33356 5.00014 6.14359 4.99981Z" fill="white"/>
<path d="M6.25 10C6.00277 10 5.7611 9.92669 5.55554 9.78934C5.34998 9.65199 5.18976 9.45676 5.09515 9.22835C5.00054 8.99995 4.97579 8.74861 5.02402 8.50614C5.07225 8.26366 5.1913 8.04093 5.36612 7.86612C5.54093 7.6913 5.76366 7.57225 6.00614 7.52402C6.24861 7.47579 6.49995 7.50054 6.72835 7.59515C6.95676 7.68976 7.15199 7.84998 7.28934 8.05554C7.42669 8.2611 7.5 8.50277 7.5 8.75C7.5 9.08152 7.3683 9.39946 7.13388 9.63388C6.89946 9.8683 6.58152 10 6.25 10Z" fill="white"/>
<path d="M13.75 8.125C14.0952 8.125 14.375 7.84518 14.375 7.5C14.375 7.15482 14.0952 6.875 13.75 6.875C13.4048 6.875 13.125 7.15482 13.125 7.5C13.125 7.84518 13.4048 8.125 13.75 8.125Z" fill="white"/>
<path d="M13.75 10.625C14.0952 10.625 14.375 10.3452 14.375 10C14.375 9.65482 14.0952 9.375 13.75 9.375C13.4048 9.375 13.125 9.65482 13.125 10C13.125 10.3452 13.4048 10.625 13.75 10.625Z" fill="white"/>
<path d="M12.5 9.375C12.8452 9.375 13.125 9.09518 13.125 8.75C13.125 8.40482 12.8452 8.125 12.5 8.125C12.1548 8.125 11.875 8.40482 11.875 8.75C11.875 9.09518 12.1548 9.375 12.5 9.375Z" fill="white"/>
<path d="M15 9.375C15.3452 9.375 15.625 9.09518 15.625 8.75C15.625 8.40482 15.3452 8.125 15 8.125C14.6548 8.125 14.375 8.40482 14.375 8.75C14.375 9.09518 14.6548 9.375 15 9.375Z" fill="white"/>
</svg>
