<svg width="20" height="20" viewBox="0 0 20 20" fill="none" xmlns="http://www.w3.org/2000/svg">
<path d="M4.69371 16.2498C4.38977 16.2503 4.08711 16.2104 3.79371 16.1311C2.91303 15.8799 2.16586 15.2936 1.7125 14.4979C1.25915 13.7022 1.13572 12.7605 1.36871 11.8748L2.82496 6.34981C2.93837 5.90267 3.13999 5.4827 3.41797 5.11456C3.69595 4.74642 4.04469 4.43754 4.44371 4.20606C4.83223 3.98103 5.26154 3.83533 5.70677 3.77739C6.15199 3.71946 6.60429 3.75045 7.03746 3.86856C7.49793 3.99643 7.9268 4.21857 8.29691 4.52089C8.66701 4.82321 8.97027 5.19913 9.18746 5.62481H10.8125C11.0287 5.19845 11.3317 4.82198 11.7019 4.51954C12.0722 4.2171 12.5015 3.99537 12.9625 3.86856C13.3956 3.75045 13.8479 3.71946 14.2932 3.77739C14.7384 3.83533 15.1677 3.98103 15.5562 4.20606C15.9533 4.43695 16.3008 4.74413 16.5786 5.10992C16.8564 5.4757 17.0591 5.89284 17.175 6.33731L18.6312 11.8748C18.8677 12.7631 18.7452 13.7087 18.2903 14.5074C17.8354 15.3061 17.0846 15.8938 16.2 16.1436C15.7668 16.2617 15.3145 16.2927 14.8693 16.2347C14.424 16.1768 13.9947 16.0311 13.6062 15.8061C13.2085 15.576 12.8605 15.2691 12.5826 14.9032C12.3047 14.5373 12.1024 14.1197 11.9875 13.6748L11.875 13.1248H8.12496L7.98121 13.6623C7.8663 14.1072 7.66399 14.5248 7.38607 14.8907C7.10816 15.2566 6.76019 15.5635 6.36246 15.7936C5.85464 16.0865 5.27992 16.2436 4.69371 16.2498ZM6.14371 4.99981C5.76655 5.00109 5.39616 5.10015 5.06871 5.28731C4.55549 5.58843 4.18245 6.08057 4.03121 6.65606L2.57496 12.1811C2.42258 12.7503 2.49958 13.3566 2.78941 13.8696C3.07924 14.3827 3.55878 14.7615 4.12496 14.9248C4.3984 14.9994 4.68392 15.019 4.96499 14.9825C5.24607 14.9461 5.51712 14.8542 5.76246 14.7123C6.0179 14.5648 6.24127 14.3678 6.41945 14.1327C6.59762 13.8977 6.72699 13.6293 6.79996 13.3436L7.18746 11.8748H12.8125L13.1937 13.3436C13.268 13.6288 13.3979 13.8966 13.5759 14.1314C13.7539 14.3663 13.9766 14.5637 14.2312 14.7123C14.4778 14.8541 14.7499 14.9458 15.0319 14.9823C15.314 15.0188 15.6005 14.9992 15.875 14.9248C16.4418 14.7631 16.922 14.3841 17.211 13.8704C17.5001 13.3566 17.5747 12.7495 17.4187 12.1811L15.9625 6.65606C15.8899 6.37093 15.7614 6.10309 15.5843 5.8681C15.4073 5.63312 15.1853 5.43569 14.9312 5.28731C14.6847 5.14554 14.4126 5.0538 14.1305 5.01733C13.8484 4.98087 13.562 5.0004 13.2875 5.07481C12.948 5.17158 12.6365 5.34795 12.3789 5.58926C12.1213 5.83058 11.9249 6.12988 11.8062 6.46231L11.6562 6.87481H8.34371L8.19371 6.46231C8.07393 6.12944 7.8765 5.82993 7.6178 5.58862C7.35911 5.34732 7.0466 5.17118 6.70621 5.07481C6.52279 5.02535 6.33368 5.00014 6.14371 4.99981Z" fill="black"/>
<path d="M6.25 10C6.00277 10 5.7611 9.92669 5.55554 9.78934C5.34998 9.65199 5.18976 9.45676 5.09515 9.22835C5.00054 8.99995 4.97579 8.74861 5.02402 8.50614C5.07225 8.26366 5.1913 8.04093 5.36612 7.86612C5.54093 7.6913 5.76366 7.57225 6.00614 7.52402C6.24861 7.47579 6.49995 7.50054 6.72835 7.59515C6.95676 7.68976 7.15199 7.84998 7.28934 8.05554C7.42669 8.2611 7.5 8.50277 7.5 8.75C7.5 9.08152 7.3683 9.39946 7.13388 9.63388C6.89946 9.8683 6.58152 10 6.25 10Z" fill="black"/>
<path d="M13.75 8.125C14.0952 8.125 14.375 7.84518 14.375 7.5C14.375 7.15482 14.0952 6.875 13.75 6.875C13.4048 6.875 13.125 7.15482 13.125 7.5C13.125 7.84518 13.4048 8.125 13.75 8.125Z" fill="black"/>
<path d="M13.75 10.625C14.0952 10.625 14.375 10.3452 14.375 10C14.375 9.65482 14.0952 9.375 13.75 9.375C13.4048 9.375 13.125 9.65482 13.125 10C13.125 10.3452 13.4048 10.625 13.75 10.625Z" fill="black"/>
<path d="M12.5 9.375C12.8452 9.375 13.125 9.09518 13.125 8.75C13.125 8.40482 12.8452 8.125 12.5 8.125C12.1548 8.125 11.875 8.40482 11.875 8.75C11.875 9.09518 12.1548 9.375 12.5 9.375Z" fill="black"/>
<path d="M15 9.375C15.3452 9.375 15.625 9.09518 15.625 8.75C15.625 8.40482 15.3452 8.125 15 8.125C14.6548 8.125 14.375 8.40482 14.375 8.75C14.375 9.09518 14.6548 9.375 15 9.375Z" fill="black"/>
</svg>
