<svg width="20" height="20" viewBox="0 0 20 20" fill="none" xmlns="http://www.w3.org/2000/svg">
<path d="M15.625 2.5H6.25C5.91858 2.50033 5.60083 2.63213 5.36648 2.86648C5.13213 3.10083 5.00033 3.41858 5 3.75V12.8475C4.62171 12.6224 4.19018 12.5025 3.75 12.5C3.25555 12.5 2.7722 12.6466 2.36108 12.9213C1.94995 13.196 1.62952 13.5865 1.4403 14.0433C1.25108 14.5001 1.20157 15.0028 1.29804 15.4877C1.3945 15.9727 1.6326 16.4181 1.98223 16.7678C2.33187 17.1174 2.77732 17.3555 3.26228 17.452C3.74723 17.5484 4.24989 17.4989 4.70671 17.3097C5.16352 17.1205 5.55397 16.8 5.82868 16.3889C6.10338 15.9778 6.25 15.4945 6.25 15V7.5H15.625V12.8475C15.2467 12.6224 14.8152 12.5024 14.375 12.5C13.8805 12.5 13.3972 12.6466 12.9861 12.9213C12.575 13.196 12.2545 13.5865 12.0653 14.0433C11.8761 14.5001 11.8266 15.0028 11.923 15.4877C12.0195 15.9727 12.2576 16.4181 12.6072 16.7678C12.9569 17.1174 13.4023 17.3555 13.8873 17.452C14.3722 17.5484 14.8749 17.4989 15.3317 17.3097C15.7885 17.1205 16.179 16.8 16.4537 16.3889C16.7284 15.9778 16.875 15.4945 16.875 15V3.75C16.8747 3.41858 16.7429 3.10083 16.5085 2.86648C16.2742 2.63213 15.9564 2.50033 15.625 2.5ZM3.75 16.25C3.50277 16.25 3.2611 16.1767 3.05554 16.0393C2.84998 15.902 2.68976 15.7068 2.59515 15.4784C2.50054 15.2499 2.47579 14.9986 2.52402 14.7561C2.57225 14.5137 2.6913 14.2909 2.86612 14.1161C3.04093 13.9413 3.26366 13.8222 3.50614 13.774C3.74861 13.7258 3.99995 13.7505 4.22836 13.8451C4.45676 13.9398 4.65199 14.1 4.78934 14.3055C4.92669 14.5111 5 14.7528 5 15C4.99967 15.3314 4.86787 15.6492 4.63352 15.8835C4.39917 16.1179 4.08142 16.2497 3.75 16.25ZM14.375 16.25C14.1278 16.25 13.8861 16.1767 13.6805 16.0393C13.475 15.902 13.3148 15.7068 13.2202 15.4784C13.1255 15.2499 13.1008 14.9986 13.149 14.7561C13.1973 14.5137 13.3163 14.2909 13.4911 14.1161C13.6659 13.9413 13.8887 13.8222 14.1311 13.774C14.3736 13.7258 14.6249 13.7505 14.8534 13.8451C15.0818 13.9398 15.277 14.1 15.4143 14.3055C15.5517 14.5111 15.625 14.7528 15.625 15C15.6245 15.3314 15.4927 15.649 15.2583 15.8833C15.024 16.1176 14.7064 16.2495 14.375 16.25ZM6.25 3.75H15.625V6.25H6.25V3.75Z" fill="white"/>
</svg>
