<svg width="20" height="20" viewBox="0 0 20 20" fill="none" xmlns="http://www.w3.org/2000/svg">
<path d="M3.97347 0.494924C4.29068 0.0997013 4.75258 -0.028328 5.28127 0.00507113C5.74317 0.0329037 6.22177 0.00507011 6.66697 0.0997009C7.81895 0.350194 8.65371 1.4301 8.6704 2.6102C8.67597 3.06665 8.6704 3.52311 8.6704 4.03523C8.78171 3.98513 8.87631 3.96843 8.93196 3.91277C9.34378 3.51754 9.83351 3.33385 10.4011 3.33385C11.069 3.33385 11.7312 3.33941 12.399 3.32828C12.4992 3.32828 12.616 3.28932 12.6995 3.22808C13.1781 2.87183 13.7068 2.67143 14.3023 2.67143C15.3318 2.66587 16.3558 2.6603 17.3853 2.67143C18.5596 2.68257 19.5613 3.46188 19.8952 4.59745C20.218 5.70518 19.7783 6.90198 18.81 7.55883C18.7321 7.6145 18.6542 7.72026 18.6375 7.80933C18.5596 8.31588 18.4093 8.80573 18.1032 9.21766C17.0292 10.6483 16.161 12.2069 15.2205 13.721C14.2856 15.2295 12.8999 15.981 11.1246 16.0032C10.991 16.0032 10.863 16.0032 10.7295 16.0088C10.7184 16.0088 10.7072 16.0199 10.6683 16.0311C10.6683 16.0979 10.6683 16.1702 10.6683 16.2426C10.6683 17.3448 10.6683 18.4525 10.6683 19.5547C10.6683 19.8942 10.5625 20 10.2175 20C6.96192 20 3.70635 20 0.450772 20C0.111302 20 0 19.8942 0 19.5547C0 16.7492 0 13.9436 0 11.1381C0 10.2642 0.378426 9.59061 1.11302 9.11746C1.59161 8.8113 2.07578 8.51628 2.51542 8.23795C2.3596 7.80933 2.19821 7.40297 2.07021 6.99105C2.01456 6.80179 1.99787 6.59583 1.99787 6.39543C1.9923 4.82011 1.9923 3.24478 1.99787 1.66946C1.99787 0.91798 2.5989 0.316796 3.33349 0.339062C3.54496 0.350195 3.73974 0.439259 3.97347 0.494924ZM2.12586 9.28445C1.8643 9.45145 1.62501 9.59061 1.39684 9.74648C1.02398 10.0025 0.767982 10.3477 0.712331 10.7985C0.66781 11.1771 0.673376 11.5612 0.673376 11.9397C0.673376 13.8768 2.13143 15.3408 4.06808 15.3408C4.96406 15.3408 5.86003 15.3408 6.75601 15.3408C8.34206 15.3353 9.55525 14.6561 10.3789 13.2923C10.8519 12.5075 11.3194 11.7226 11.7924 10.9377C11.8258 10.882 11.8592 10.8208 11.8982 10.7429C11.4919 10.42 11.0968 10.0972 10.6905 9.77988C10.6237 9.83554 10.5737 9.88007 10.5236 9.9246C9.75003 10.6204 8.97092 11.3162 8.20294 12.012C7.71321 12.4574 7.14557 12.6745 6.47776 12.6689C5.50387 12.6633 4.53554 12.6689 3.56165 12.6689C3.49487 12.6689 3.42809 12.6689 3.35575 12.6689C3.35575 12.4351 3.35575 12.2236 3.35575 11.9953C3.57835 11.9953 3.78982 11.9953 4.02912 11.9953C3.37801 11.0769 2.75472 10.1862 2.12586 9.28445ZM9.99489 16.0088C9.89472 16.0088 9.81681 16.0088 9.73333 16.0088C7.84121 16.0088 5.94351 16.0144 4.05138 16.0088C2.6935 16.0032 1.59718 15.4466 0.779112 14.3611C0.756852 14.3333 0.729027 14.3055 0.690071 14.2554C0.690071 15.9698 0.690071 17.6454 0.690071 19.332C3.79539 19.332 6.89514 19.332 10.0005 19.332C9.99489 18.2243 9.99489 17.1277 9.99489 16.0088ZM2.67124 3.34498C2.67124 3.41735 2.67124 3.47301 2.67124 3.52868C2.67124 4.46385 2.66568 5.40459 2.67124 6.33977C2.67681 7.5477 3.47818 8.59421 4.63572 8.9115C5.79882 9.22879 7.0287 8.7278 7.64086 7.67573C7.81895 7.36957 7.94694 7.04672 7.9692 6.68489C7.524 6.68489 7.10661 6.68489 6.68367 6.68489C6.56124 7.42524 6.08264 7.77036 5.35361 7.65347C5.35361 7.44194 5.35361 7.23041 5.35361 7.00775C5.47605 7.00775 5.60404 7.04115 5.69308 7.00218C5.80995 6.95208 5.93238 6.85745 5.98803 6.75169C6.04925 6.62923 6.01029 6.50676 5.87673 6.39543C5.71534 6.26184 5.56509 6.08927 5.47604 5.90558C5.05866 5.04277 5.68195 4.03523 6.64471 4.01296C7.09548 4.00183 7.54069 4.01296 7.99703 4.01296C7.99703 3.77917 7.99703 3.56764 7.99703 3.34498C7.27357 3.34498 6.5668 3.32828 5.86004 3.35055C5.15883 3.37281 4.54111 3.22252 4.06808 2.6436C3.71191 3.10005 3.26114 3.32828 2.67124 3.34498ZM9.35491 15.3408C9.93924 15.3408 10.518 15.3464 11.1023 15.3408C12.6828 15.3297 13.8849 14.6506 14.7085 13.2979C15.1816 12.513 15.649 11.7282 16.1221 10.9433C16.1554 10.882 16.1888 10.8264 16.2278 10.7484C15.8327 10.4312 15.4375 10.1194 15.0424 9.80214C14.4525 10.4646 13.8793 11.1103 13.3117 11.7504C12.8776 12.2403 12.3489 12.5576 11.6922 12.6411C11.5531 12.6578 11.4919 12.7357 11.4307 12.8415C10.8797 13.7878 10.3344 14.7341 9.35491 15.3408ZM15.3318 5.33779C15.3318 6.43996 16.2334 7.34174 17.3297 7.34174C18.4316 7.34174 19.3275 6.44553 19.3331 5.34336C19.3387 4.24676 18.4371 3.33941 17.3352 3.33941C16.2334 3.33941 15.3374 4.23562 15.3318 5.33779ZM15.5377 3.34498C15.0703 3.34498 14.6306 3.32828 14.1965 3.35055C13.2115 3.40065 12.3934 4.23006 12.3378 5.20976C12.2821 6.234 12.9833 7.15248 13.9795 7.29721C14.408 7.35844 14.8532 7.33061 15.2873 7.34174C15.3652 7.34174 15.4431 7.34174 15.5544 7.34174C14.4692 6.31193 14.2967 4.58075 15.5377 3.34498ZM12.0206 4.0074C11.4363 4.0074 10.8853 4.00183 10.3399 4.0074C9.58864 4.01296 9.00431 4.60301 9.00431 5.34336C9.00431 6.07814 9.59421 6.66263 10.3455 6.67376C10.8519 6.67932 11.3583 6.67376 11.8648 6.67376C11.9093 6.67376 11.9538 6.66819 12.015 6.66263C11.5531 5.77198 11.5531 4.90361 12.0206 4.0074ZM7.99146 2.66587C8.03598 1.75852 7.31252 0.851181 6.39428 0.723152C5.91012 0.650787 5.41483 0.673052 4.91954 0.684185C4.64685 0.689752 4.40198 0.91798 4.35746 1.19631C4.21277 2.03128 4.73589 2.63247 5.39813 2.6603C6.25516 2.69926 7.11218 2.66587 7.99146 2.66587ZM14.0018 7.98746C13.4619 7.90396 13.0112 7.70356 12.6216 7.38071C12.5938 7.35844 12.5437 7.34174 12.5103 7.34174C11.9872 7.34174 11.4585 7.34174 10.9243 7.34174C10.8074 7.79819 10.7907 8.24352 10.8686 8.6944C10.8964 8.8614 10.9076 9.07849 11.0189 9.17869C11.414 9.54051 11.8481 9.86337 12.2821 10.2085C12.8553 9.45702 13.4174 8.73337 14.0018 7.98746ZM17.9196 7.99302C16.9679 7.99302 16.0274 7.99302 15.0758 7.99302C15.1092 8.17115 15.1537 8.31031 15.1649 8.45504C15.1927 8.95046 15.4042 9.32342 15.8382 9.58505C16.1109 9.75204 16.3447 9.98027 16.6173 10.1974C17.0626 9.44588 17.7248 8.85583 17.9196 7.99302ZM8.72606 6.67376C8.53128 7.21371 8.34206 7.72026 8.15842 8.23795C8.75945 8.62204 9.39386 9.0284 10.0394 9.44588C10.3065 9.26219 10.2954 9.26219 10.2398 8.93933C10.1952 8.6944 10.1674 8.44391 10.1674 8.19898C10.1618 7.92066 10.1952 7.63677 10.2175 7.34731C9.70551 7.29164 9.26587 7.09681 8.90414 6.73499C8.84849 6.67933 8.74832 6.67932 8.72606 6.67376ZM8.4478 4.67538C7.81338 4.67538 7.21235 4.66425 6.61132 4.68095C6.27185 4.69208 6.01029 4.99267 6.00473 5.33223C5.99916 5.67178 6.26072 5.98908 6.59463 6.00021C7.20122 6.01691 7.81338 6.00578 8.44224 6.00578C8.30867 5.56045 8.29754 5.13183 8.4478 4.67538ZM9.53299 9.91904C9.19909 9.69638 8.88188 9.49042 8.55354 9.27889C7.91355 10.1918 7.29026 11.0824 6.64471 12.0065C7.01757 11.9675 7.32922 11.8785 7.57408 11.6614C8.21963 11.0991 8.85405 10.5202 9.53299 9.91904ZM14.4748 8.43834C13.6512 9.60175 12.6773 10.5926 12.0206 11.8618C12.3322 11.7504 12.5548 11.5834 12.744 11.3719C13.3451 10.6983 13.9461 10.0304 14.536 9.35125C14.5861 9.29559 14.6139 9.18983 14.6083 9.11189C14.5861 8.90593 14.5304 8.70554 14.4748 8.43834ZM2.67124 2.66587C3.14427 2.677 3.52826 2.40981 3.62844 1.97005C3.67296 1.76966 3.66739 1.55813 3.66739 1.35217C3.66183 1.11837 3.50044 0.990345 3.26671 1.00704C2.96063 1.03488 2.68794 1.2965 2.67681 1.60823C2.66011 1.95335 2.67124 2.30404 2.67124 2.66587ZM2.69907 8.9449C3.19992 9.65741 3.69522 10.3644 4.20164 11.0936C4.29068 10.8598 4.32407 10.6761 4.25173 10.459C4.14599 10.1361 4.08477 9.79657 3.99573 9.46258C3.9846 9.41249 3.92895 9.37352 3.87887 9.34012C3.66739 9.20096 3.43922 9.07849 3.23331 8.92263C2.97176 8.72224 2.98289 8.71667 2.69907 8.9449ZM7.9859 8.92263C7.82451 8.88923 7.7633 8.661 7.55739 8.8113C7.30139 9.00056 7.03427 9.16756 6.76714 9.34569C6.72819 9.37352 6.68367 9.41805 6.66697 9.45702C6.57237 9.80771 6.50559 10.164 6.39428 10.5147C6.33307 10.7206 6.38872 10.882 6.46663 11.088C6.97862 10.3588 7.47391 9.65741 7.9859 8.92263ZM4.93067 11.0156C4.86945 11.2606 4.80267 11.4999 4.75258 11.7449C4.71919 11.9063 4.80267 12.0065 4.96962 12.012C5.22005 12.0176 5.47048 12.012 5.71534 12.012C5.8823 12.012 5.95464 11.9119 5.92682 11.756C5.87673 11.5055 5.80995 11.2606 5.74873 11.0156C5.46491 11.0156 5.20336 11.0156 4.93067 11.0156ZM4.68024 9.64628C4.74145 9.84111 4.80267 10.0415 4.88058 10.2419C4.89728 10.2864 4.98075 10.331 5.03084 10.3365C5.23118 10.3477 5.43152 10.3477 5.63187 10.3365C5.68195 10.3365 5.75986 10.3031 5.77656 10.2642C5.85447 10.0582 5.91569 9.85224 5.98247 9.65184C5.54839 9.64628 5.11988 9.64628 4.68024 9.64628Z" fill="white"/>
<path d="M4.99188 4.01855V4.65854H3.68408V4.01855H4.99188Z" fill="white"/>
<path d="M4.99188 4.01855V4.65854H3.68408V4.01855H4.99188Z" stroke="white"/>
<path d="M4.33566 5.67152C4.15758 5.67152 4.00732 5.5157 4.00732 5.33762C4.00732 5.15397 4.16315 5.00928 4.34123 5.00928C4.52488 5.00928 4.66957 5.1651 4.66957 5.34318C4.664 5.52127 4.51375 5.67152 4.33566 5.67152Z" fill="white"/>
<path d="M4.33566 5.67152C4.15758 5.67152 4.00732 5.5157 4.00732 5.33762C4.00732 5.15397 4.16315 5.00928 4.34123 5.00928C4.52488 5.00928 4.66957 5.1651 4.66957 5.34318C4.664 5.52127 4.51375 5.67152 4.33566 5.67152Z" stroke="white"/>
<path d="M16.6787 6.32846V5.68848H17.3243V6.32846H16.6787Z" fill="white"/>
<path d="M16.6787 6.32846V5.68848H17.3243V6.32846H16.6787Z" stroke="white"/>
<path d="M18.0088 6.32846V5.68848H18.6543V6.32846H18.0088Z" fill="white"/>
<path d="M18.0088 6.32846V5.68848H18.6543V6.32846H18.0088Z" stroke="white"/>
</svg>
