<svg width="64" height="64" viewBox="0 0 64 64" fill="none" xmlns="http://www.w3.org/2000/svg">
<path d="M53.498 49.8601C56.3703 46.4043 58.3679 42.3076 59.322 37.9165C60.2761 33.5254 60.1586 28.969 58.9794 24.633C57.8001 20.2969 55.5939 16.3086 52.5473 13.0055C49.5007 9.70237 45.7034 7.18163 41.4765 5.65649C37.2497 4.13135 32.7177 3.64668 28.2639 4.24348C23.8102 4.84028 19.5656 6.50099 15.8894 9.08513C12.2132 11.6693 9.2135 15.1008 7.14399 19.0895C5.07448 23.0781 3.99607 27.5065 4.00001 32.0001C4.00152 38.5325 6.3035 44.8557 10.502 49.8601L10.462 49.8941C10.602 50.0621 10.762 50.2061 10.906 50.3721C11.086 50.5781 11.28 50.7721 11.466 50.9721C12.026 51.5801 12.602 52.1641 13.206 52.7121C13.39 52.8801 13.58 53.0361 13.766 53.1961C14.406 53.7481 15.064 54.2721 15.746 54.7601C15.834 54.8201 15.914 54.8981 16.002 54.9601V54.9361C20.6862 58.2325 26.2742 60.0016 32.002 60.0016C37.7298 60.0016 43.3178 58.2325 48.002 54.9361V54.9601C48.09 54.8981 48.168 54.8201 48.258 54.7601C48.938 54.2701 49.598 53.7481 50.238 53.1961C50.424 53.0361 50.614 52.8781 50.798 52.7121C51.402 52.1621 51.978 51.5801 52.538 50.9721C52.724 50.7721 52.916 50.5781 53.098 50.3721C53.24 50.2061 53.402 50.0621 53.542 49.8921L53.498 49.8601ZM32 16.0001C33.78 16.0001 35.5201 16.528 37.0001 17.5169C38.4802 18.5058 39.6337 19.9114 40.3149 21.556C40.9961 23.2005 41.1743 25.0101 40.8271 26.7559C40.4798 28.5018 39.6226 30.1054 38.364 31.3641C37.1053 32.6228 35.5017 33.4799 33.7558 33.8272C32.01 34.1745 30.2004 33.9962 28.5559 33.315C26.9113 32.6338 25.5057 31.4803 24.5168 30.0002C23.5279 28.5202 23 26.7801 23 25.0001C23 22.6132 23.9482 20.324 25.636 18.6362C27.3239 16.9483 29.6131 16.0001 32 16.0001ZM16.014 49.8601C16.0487 47.2341 17.1159 44.7272 18.9847 42.882C20.8535 41.0368 23.3737 40.0015 26 40.0001H38C40.6263 40.0015 43.1465 41.0368 45.0153 42.882C46.8841 44.7272 47.9513 47.2341 47.986 49.8601C43.5997 53.8128 37.9045 56.0003 32 56.0003C26.0955 56.0003 20.4003 53.8128 16.014 49.8601Z" fill="white"/>
<circle cx="32" cy="32" r="29.5" stroke="white" stroke-opacity="0.2" stroke-width="3"/>
</svg>
