<svg width="20" height="20" viewBox="0 0 20 20" fill="none" xmlns="http://www.w3.org/2000/svg">
<g clip-path="url(#clip0_1088_1199)">
<path d="M9.58339 2.5C9.79579 2.50024 10.0001 2.58157 10.1545 2.72737C10.309 2.87318 10.4019 3.07246 10.4144 3.2845C10.4268 3.49653 10.3578 3.70532 10.2215 3.86819C10.0852 4.03107 9.8918 4.13575 9.68089 4.16083L9.58339 4.16667H5.00005V15.8333H13.3334V10.4167C13.3336 10.2043 13.415 9.99997 13.5608 9.84553C13.7066 9.69108 13.9058 9.59814 14.1179 9.58569C14.3299 9.57324 14.5387 9.64223 14.7016 9.77855C14.8645 9.91488 14.9691 10.1083 14.9942 10.3192L15.0001 10.4167V15.8333H16.6667C16.8791 15.8336 17.0834 15.9149 17.2379 16.0607C17.3923 16.2065 17.4852 16.4058 17.4977 16.6178C17.5101 16.8299 17.4412 17.0386 17.3048 17.2015C17.1685 17.3644 16.9751 17.4691 16.7642 17.4942L16.6667 17.5H3.33339C3.12099 17.4998 2.91669 17.4184 2.76225 17.2726C2.6078 17.1268 2.51486 16.9275 2.50241 16.7155C2.48996 16.5035 2.55895 16.2947 2.69527 16.1318C2.8316 15.9689 3.02497 15.8643 3.23589 15.8392L3.33339 15.8333V4.16667C3.33325 3.74619 3.49206 3.34119 3.77797 3.03288C4.06388 2.72456 4.45576 2.5357 4.87505 2.50417L5.00005 2.5H9.58339ZM11.2501 9.16667C11.4142 9.16667 11.5767 9.199 11.7284 9.26182C11.8801 9.32464 12.0179 9.41671 12.1339 9.53278C12.25 9.64886 12.3421 9.78666 12.4049 9.93831C12.4677 10.09 12.5001 10.2525 12.5001 10.4167C12.5001 10.5808 12.4677 10.7434 12.4049 10.895C12.3421 11.0467 12.25 11.1845 12.1339 11.3006C12.0179 11.4166 11.8801 11.5087 11.7284 11.5715C11.5767 11.6343 11.4142 11.6667 11.2501 11.6667C10.9185 11.6667 10.6006 11.535 10.3662 11.3006C10.1317 11.0661 10.0001 10.7482 10.0001 10.4167C10.0001 10.0851 10.1317 9.7672 10.3662 9.53278C10.6006 9.29836 10.9185 9.16667 11.2501 9.16667ZM15.4892 3.47667L17.2559 5.24333C17.4119 5.39957 17.4995 5.61132 17.4995 5.83208C17.4995 6.05285 17.4119 6.26459 17.2559 6.42083L15.4892 8.19C15.3322 8.34191 15.1217 8.42606 14.9032 8.42432C14.6847 8.42257 14.4756 8.33508 14.321 8.18068C14.1664 8.02628 14.0786 7.81733 14.0766 7.59884C14.0745 7.38034 14.1584 7.16978 14.3101 7.0125L14.6567 6.665H11.9834C11.7624 6.665 11.5504 6.5772 11.3941 6.42092C11.2379 6.26464 11.1501 6.05268 11.1501 5.83167C11.1501 5.61065 11.2379 5.39869 11.3941 5.24241C11.5504 5.08613 11.7624 4.99833 11.9834 4.99833H14.6542L14.3109 4.655C14.1591 4.49783 14.0751 4.28733 14.077 4.06883C14.0789 3.85034 14.1665 3.64132 14.321 3.48682C14.4755 3.33231 14.6846 3.24467 14.9031 3.24277C15.1215 3.24087 15.3321 3.32487 15.4892 3.47667Z" fill="black"/>
</g>
<defs>
<clipPath id="clip0_1088_1199">
<rect width="20" height="20" fill="white"/>
</clipPath>
</defs>
</svg>
