<svg width="20" height="20" viewBox="0 0 20 20" fill="none" xmlns="http://www.w3.org/2000/svg">
<g clip-path="url(#clip0_1088_528)">
<path d="M16.6666 2.22217H3.33328C3.03859 2.22217 2.75598 2.33923 2.5476 2.5476C2.33923 2.75598 2.22217 3.03859 2.22217 3.33328V16.6666C2.22217 16.9613 2.33923 17.2439 2.5476 17.4523C2.75598 17.6607 3.03859 17.7777 3.33328 17.7777H16.6666C16.9613 17.7777 17.2439 17.6607 17.4523 17.4523C17.6607 17.2439 17.7777 16.9613 17.7777 16.6666V3.33328C17.7777 3.03859 17.6607 2.75598 17.4523 2.5476C17.2439 2.33923 16.9613 2.22217 16.6666 2.22217ZM16.6666 16.6666H3.33328V3.33328H16.6666V16.6666Z" fill="white"/>
<path d="M8.11108 12.8165C8.2124 12.8822 8.32867 12.9212 8.44911 12.9299C8.56954 12.9387 8.69023 12.9169 8.79997 12.8665L13.65 10.6443C13.7767 10.5871 13.8842 10.4946 13.9597 10.3778C14.0351 10.261 14.0752 10.1249 14.0752 9.98593C14.0752 9.84691 14.0351 9.71084 13.9597 9.59406C13.8842 9.47728 13.7767 9.38476 13.65 9.32759L8.79997 7.10537C8.68877 7.05456 8.56649 7.0328 8.44458 7.04215C8.32268 7.0515 8.20514 7.09165 8.10299 7.15883C8.00083 7.226 7.9174 7.31801 7.86052 7.42624C7.80363 7.53446 7.77516 7.65536 7.77775 7.77759V12.222C7.7796 12.341 7.81104 12.4576 7.86923 12.5614C7.92743 12.6652 8.01054 12.7529 8.11108 12.8165ZM8.66664 8.0387L12.95 9.99981L8.66664 11.9498V8.0387Z" fill="white"/>
<path d="M4.44434 3.88867H5.55545V5.55534H4.44434V3.88867Z" fill="white"/>
<path d="M7.77783 3.88867H8.88894V5.55534H7.77783V3.88867Z" fill="white"/>
<path d="M11.1111 3.88867H12.2222V5.55534H11.1111V3.88867Z" fill="white"/>
<path d="M14.4443 3.88867H15.5554V5.55534H14.4443V3.88867Z" fill="white"/>
<path d="M4.44434 14.4443H5.55545V16.111H4.44434V14.4443Z" fill="white"/>
<path d="M7.77783 14.4443H8.88894V16.111H7.77783V14.4443Z" fill="white"/>
<path d="M11.1111 14.4443H12.2222V16.111H11.1111V14.4443Z" fill="white"/>
<path d="M14.4443 14.4443H15.5554V16.111H14.4443V14.4443Z" fill="white"/>
</g>
<defs>
<clipPath id="clip0_1088_528">
<rect width="20" height="20" fill="white"/>
</clipPath>
</defs>
</svg>
