<svg width="20" height="20" viewBox="0 0 20 20" fill="none" xmlns="http://www.w3.org/2000/svg">
<g clip-path="url(#clip0_1088_432)">
<path d="M16.6666 2.22217H3.33328C3.03859 2.22217 2.75598 2.33923 2.5476 2.5476C2.33923 2.75598 2.22217 3.03859 2.22217 3.33328V16.6666C2.22217 16.9613 2.33923 17.2439 2.5476 17.4523C2.75598 17.6607 3.03859 17.7777 3.33328 17.7777H16.6666C16.9613 17.7777 17.2439 17.6607 17.4523 17.4523C17.6607 17.2439 17.7777 16.9613 17.7777 16.6666V3.33328C17.7777 3.03859 17.6607 2.75598 17.4523 2.5476C17.2439 2.33923 16.9613 2.22217 16.6666 2.22217ZM16.6666 16.6666H3.33328V3.33328H16.6666V16.6666Z" fill="black"/>
<path d="M8.11133 12.8165C8.21264 12.8822 8.32892 12.9212 8.44935 12.9299C8.56979 12.9387 8.69048 12.9169 8.80022 12.8665L13.6502 10.6443C13.7769 10.5871 13.8845 10.4946 13.9599 10.3778C14.0353 10.261 14.0755 10.1249 14.0755 9.98593C14.0755 9.84691 14.0353 9.71084 13.9599 9.59406C13.8845 9.47728 13.7769 9.38476 13.6502 9.32759L8.80022 7.10537C8.68901 7.05456 8.56673 7.0328 8.44482 7.04215C8.32292 7.0515 8.20538 7.09165 8.10323 7.15883C8.00108 7.226 7.91765 7.31801 7.86076 7.42624C7.80388 7.53446 7.7754 7.65536 7.77799 7.77759V12.222C7.77984 12.341 7.81128 12.4576 7.86948 12.5614C7.92767 12.6652 8.01079 12.7529 8.11133 12.8165ZM8.66688 8.0387L12.9502 9.99981L8.66688 11.9498V8.0387Z" fill="black"/>
<path d="M4.44434 3.88867H5.55545V5.55534H4.44434V3.88867Z" fill="black"/>
<path d="M7.77783 3.88867H8.88894V5.55534H7.77783V3.88867Z" fill="black"/>
<path d="M11.1113 3.88867H12.2224V5.55534H11.1113V3.88867Z" fill="black"/>
<path d="M14.4443 3.88867H15.5554V5.55534H14.4443V3.88867Z" fill="black"/>
<path d="M4.44434 14.4443H5.55545V16.111H4.44434V14.4443Z" fill="black"/>
<path d="M7.77783 14.4443H8.88894V16.111H7.77783V14.4443Z" fill="black"/>
<path d="M11.1113 14.4443H12.2224V16.111H11.1113V14.4443Z" fill="black"/>
<path d="M14.4443 14.4443H15.5554V16.111H14.4443V14.4443Z" fill="black"/>
</g>
<defs>
<clipPath id="clip0_1088_432">
<rect width="20" height="20" fill="white"/>
</clipPath>
</defs>
</svg>
