<svg width="116" height="116" viewBox="0 0 116 116" fill="none" xmlns="http://www.w3.org/2000/svg">
<rect width="116" height="116" rx="20" fill="#EC6823"/>
<path d="M45.2652 72.9999C44.5357 73.0012 43.8094 72.9054 43.1052 72.7149C40.9916 72.1122 39.1983 70.705 38.1103 68.7953C37.0222 66.8856 36.726 64.6255 37.2852 62.4999L40.7802 49.2399C41.0524 48.1668 41.5363 47.1589 42.2034 46.2753C42.8706 45.3918 43.7076 44.6505 44.6652 44.0949C45.5976 43.5549 46.628 43.2052 47.6965 43.0661C48.7651 42.9271 49.8506 43.0015 50.8902 43.2849C51.9953 43.5918 53.0246 44.1249 53.9129 44.8505C54.8011 45.5761 55.5289 46.4783 56.0502 47.4999H59.9502C60.4692 46.4767 61.1963 45.5731 62.0849 44.8473C62.9735 44.1214 64.0039 43.5893 65.1102 43.2849C66.1498 43.0015 67.2353 42.9271 68.3039 43.0661C69.3724 43.2052 70.4028 43.5549 71.3352 44.0949C72.2882 44.6491 73.1221 45.3863 73.7889 46.2642C74.4556 47.1421 74.9421 48.1432 75.2202 49.2099L78.7152 62.4999C79.2827 64.6317 78.9889 66.9012 77.8971 68.8181C76.8053 70.7351 75.0033 72.1456 72.8802 72.7449C71.8406 73.0284 70.7551 73.1028 69.6865 72.9637C68.618 72.8247 67.5876 72.475 66.6552 71.9349C65.7006 71.3828 64.8655 70.6461 64.1985 69.768C63.5315 68.8898 63.046 67.8877 62.7702 66.8199L62.5002 65.4999H53.5002L53.1552 66.7899C52.8794 67.8577 52.3939 68.8598 51.7269 69.738C51.0599 70.6161 50.2248 71.3528 49.2702 71.9049C48.0514 72.6079 46.6721 72.985 45.2652 72.9999V72.9999ZM48.7452 45.9999C47.84 46.003 46.9511 46.2407 46.1652 46.6899C44.9335 47.4126 44.0382 48.5938 43.6752 49.9749L40.1802 63.2349C39.8145 64.6011 39.9993 66.0561 40.6949 67.2874C41.3905 68.5188 42.5414 69.4281 43.9002 69.8199C44.5565 69.9989 45.2417 70.046 45.9163 69.9585C46.5908 69.871 47.2414 69.6505 47.8302 69.3099C48.4433 68.956 48.9794 68.4831 49.407 67.9189C49.8346 67.3548 50.1451 66.7108 50.3202 66.0249L51.2502 62.4999H64.7502L65.6652 66.0249C65.8434 66.7095 66.1551 67.3521 66.5825 67.9159C67.0098 68.4796 67.5442 68.9534 68.1552 69.3099C68.7469 69.6502 69.4 69.8704 70.0769 69.9579C70.7538 70.0454 71.4414 69.9985 72.1002 69.8199C73.4607 69.4317 74.613 68.5223 75.3067 67.2893C76.0005 66.0563 76.1796 64.5993 75.8052 63.2349L72.3102 49.9749C72.1361 49.2906 71.8276 48.6478 71.4027 48.0838C70.9778 47.5199 70.4449 47.046 69.8352 46.6899C69.2435 46.3497 68.5904 46.1295 67.9135 46.042C67.2366 45.9545 66.549 46.0014 65.8902 46.1799C65.0755 46.4122 64.3279 46.8355 63.7096 47.4146C63.0913 47.9938 62.6201 48.7121 62.3352 49.5099L61.9752 50.4999H54.0252L53.6652 49.5099C53.3777 48.711 52.9039 47.9922 52.283 47.4131C51.6622 46.834 50.9121 46.4112 50.0952 46.1799C49.655 46.0612 49.2011 46.0007 48.7452 45.9999V45.9999Z" fill="white"/>
<path d="M49 58C48.4067 58 47.8266 57.8241 47.3333 57.4944C46.8399 57.1648 46.4554 56.6962 46.2284 56.1481C46.0013 55.5999 45.9419 54.9967 46.0576 54.4147C46.1734 53.8328 46.4591 53.2982 46.8787 52.8787C47.2982 52.4591 47.8328 52.1734 48.4147 52.0576C48.9967 51.9419 49.5999 52.0013 50.1481 52.2284C50.6962 52.4554 51.1648 52.8399 51.4944 53.3333C51.8241 53.8266 52 54.4067 52 55C52 55.7957 51.6839 56.5587 51.1213 57.1213C50.5587 57.6839 49.7957 58 49 58Z" fill="white"/>
<path d="M67 53.5C67.8284 53.5 68.5 52.8284 68.5 52C68.5 51.1716 67.8284 50.5 67 50.5C66.1716 50.5 65.5 51.1716 65.5 52C65.5 52.8284 66.1716 53.5 67 53.5Z" fill="white"/>
<path d="M67 59.5C67.8284 59.5 68.5 58.8284 68.5 58C68.5 57.1716 67.8284 56.5 67 56.5C66.1716 56.5 65.5 57.1716 65.5 58C65.5 58.8284 66.1716 59.5 67 59.5Z" fill="white"/>
<path d="M64 56.5C64.8284 56.5 65.5 55.8284 65.5 55C65.5 54.1716 64.8284 53.5 64 53.5C63.1716 53.5 62.5 54.1716 62.5 55C62.5 55.8284 63.1716 56.5 64 56.5Z" fill="white"/>
<path d="M70 56.5C70.8284 56.5 71.5 55.8284 71.5 55C71.5 54.1716 70.8284 53.5 70 53.5C69.1716 53.5 68.5 54.1716 68.5 55C68.5 55.8284 69.1716 56.5 70 56.5Z" fill="white"/>
</svg>
