<svg width="116" height="116" viewBox="0 0 116 116" fill="none" xmlns="http://www.w3.org/2000/svg">
<rect width="116" height="116" rx="20" fill="#F3F4F5"/>
<path d="M76.8266 47.3334H39.1733C38.5085 47.3334 37.8709 47.5975 37.4008 48.0676C36.9307 48.5377 36.6666 49.1752 36.6666 49.84V74.16C36.6666 74.8249 36.9307 75.4624 37.4008 75.9325C37.8709 76.4026 38.5085 76.6667 39.1733 76.6667H76.8266C77.4914 76.6667 78.129 76.4026 78.5991 75.9325C79.0692 75.4624 79.3333 74.8249 79.3333 74.16V49.84C79.3333 49.1752 79.0692 48.5377 78.5991 48.0676C78.129 47.5975 77.4914 47.3334 76.8266 47.3334ZM76.6666 74H39.3333V50H76.6666V74Z" fill="black"/>
<path d="M74.1866 38C74.1866 37.6463 74.0462 37.3072 73.7961 37.0572C73.5461 36.8071 73.2069 36.6666 72.8533 36.6666H43.52C43.1664 36.6666 42.8272 36.8071 42.5772 37.0572C42.3271 37.3072 42.1866 37.6463 42.1866 38V39.3333H74.1866V38Z" fill="black"/>
<path d="M76.8266 43.3333C76.8266 42.9797 76.6861 42.6406 76.4361 42.3905C76.1861 42.1405 75.8469 42 75.4933 42H40.8266C40.473 42 40.1339 42.1405 39.8838 42.3905C39.6338 42.6406 39.4933 42.9797 39.4933 43.3333V44.6667H76.8266V43.3333Z" fill="black"/>
<path d="M51.0933 69.72C51.4628 69.9596 51.8929 70.0891 52.3333 70.0933C52.6507 70.0926 52.9643 70.0244 53.2533 69.8933L66.28 64.08C66.6827 63.905 67.0255 63.6162 67.2663 63.2491C67.507 62.8819 67.6353 62.4524 67.6353 62.0133C67.6353 61.5743 67.507 61.1448 67.2663 60.7776C67.0255 60.4105 66.6827 60.1216 66.28 59.9467L53.2533 54.1333C52.9086 53.9802 52.5311 53.9156 52.1551 53.9452C51.7791 53.9749 51.4164 54.0979 51.1 54.3032C50.7835 54.5084 50.5233 54.7894 50.3428 55.1206C50.1624 55.4518 50.0675 55.8228 50.0667 56.2V67.8267C50.0673 68.2027 50.1615 68.5726 50.3407 68.9031C50.52 69.2336 50.7786 69.5143 51.0933 69.72ZM51.9333 56.2C51.9329 56.133 51.9499 56.0671 51.9826 56.0087C52.0153 55.9502 52.0627 55.9013 52.12 55.8667C52.1898 55.8474 52.2635 55.8474 52.3333 55.8667C52.386 55.8547 52.4407 55.8547 52.4933 55.8667L65.52 61.6667C65.5935 61.6967 65.6559 61.7487 65.6989 61.8155C65.7418 61.8823 65.7632 61.9607 65.76 62.04C65.7623 62.1175 65.7405 62.1938 65.6975 62.2583C65.6544 62.3228 65.5924 62.3723 65.52 62.4L52.4933 68.2133C52.4366 68.2461 52.3722 68.2634 52.3066 68.2634C52.2411 68.2634 52.1767 68.2461 52.12 68.2133C52.0643 68.1769 52.0183 68.1276 51.9858 68.0695C51.9533 68.0115 51.9353 67.9465 51.9333 67.88V56.2Z" fill="black"/>
</svg>
