<svg width="116" height="116" viewBox="0 0 116 116" fill="none" xmlns="http://www.w3.org/2000/svg">
<rect width="116" height="116" rx="20" fill="#EC6823"/>
<path d="M76.8265 47.3334H39.1732C38.5084 47.3334 37.8708 47.5975 37.4007 48.0676C36.9306 48.5377 36.6665 49.1752 36.6665 49.84V74.16C36.6665 74.8249 36.9306 75.4624 37.4007 75.9325C37.8708 76.4026 38.5084 76.6667 39.1732 76.6667H76.8265C77.4913 76.6667 78.1289 76.4026 78.599 75.9325C79.0691 75.4624 79.3332 74.8249 79.3332 74.16V49.84C79.3332 49.1752 79.0691 48.5377 78.599 48.0676C78.1289 47.5975 77.4913 47.3334 76.8265 47.3334ZM76.6665 74H39.3332V50H76.6665V74Z" fill="white"/>
<path d="M74.1865 38C74.1865 37.6463 74.046 37.3072 73.796 37.0572C73.546 36.8071 73.2068 36.6666 72.8532 36.6666H43.5199C43.1662 36.6666 42.8271 36.8071 42.577 37.0572C42.327 37.3072 42.1865 37.6463 42.1865 38V39.3333H74.1865V38Z" fill="white"/>
<path d="M76.8265 43.3333C76.8265 42.9797 76.686 42.6406 76.436 42.3905C76.1859 42.1405 75.8468 42 75.4932 42H40.8265C40.4729 42 40.1337 42.1405 39.8837 42.3905C39.6336 42.6406 39.4932 42.9797 39.4932 43.3333V44.6667H76.8265V43.3333Z" fill="white"/>
<path d="M51.0936 69.72C51.4631 69.9596 51.8932 70.0891 52.3336 70.0933C52.6509 70.0926 52.9645 70.0244 53.2536 69.8933L66.2802 64.08C66.6829 63.905 67.0257 63.6162 67.2665 63.2491C67.5073 62.8819 67.6356 62.4524 67.6356 62.0133C67.6356 61.5743 67.5073 61.1448 67.2665 60.7776C67.0257 60.4105 66.6829 60.1216 66.2802 59.9467L53.2536 54.1333C52.9088 53.9802 52.5314 53.9156 52.1554 53.9452C51.7793 53.9749 51.4167 54.0979 51.1002 54.3032C50.7837 54.5084 50.5235 54.7894 50.3431 55.1206C50.1626 55.4518 50.0677 55.8228 50.0669 56.2V67.8267C50.0676 68.2027 50.1618 68.5726 50.341 68.9031C50.5202 69.2336 50.7788 69.5143 51.0936 69.72ZM51.9336 56.2C51.9331 56.133 51.9501 56.0671 51.9829 56.0087C52.0156 55.9502 52.0629 55.9013 52.1202 55.8667C52.19 55.8474 52.2638 55.8474 52.3336 55.8667C52.3862 55.8547 52.4409 55.8547 52.4936 55.8667L65.5202 61.6667C65.5937 61.6967 65.6562 61.7487 65.6991 61.8155C65.7421 61.8823 65.7634 61.9607 65.7602 62.04C65.7626 62.1175 65.7407 62.1938 65.6977 62.2583C65.6547 62.3228 65.5927 62.3723 65.5202 62.4L52.4936 68.2133C52.4368 68.2461 52.3724 68.2634 52.3069 68.2634C52.2414 68.2634 52.177 68.2461 52.1202 68.2133C52.0646 68.1769 52.0186 68.1276 51.9861 68.0695C51.9536 68.0115 51.9356 67.9465 51.9336 67.88V56.2Z" fill="white"/>
</svg>
