<svg width="116" height="116" viewBox="0 0 116 116" fill="none" xmlns="http://www.w3.org/2000/svg">
<rect width="116" height="116" rx="20" fill="#EC6823"/>
<path d="M71.5 43H49C48.2046 43.0008 47.442 43.3171 46.8796 43.8796C46.3171 44.442 46.0008 45.2046 46 46V67.834C45.0921 67.2938 44.0564 67.0059 43 67C41.8133 67 40.6533 67.3519 39.6666 68.0112C38.6799 68.6705 37.9109 69.6075 37.4567 70.7039C37.0026 71.8003 36.8838 73.0067 37.1153 74.1705C37.3468 75.3344 37.9182 76.4035 38.7574 77.2426C39.5965 78.0818 40.6656 78.6532 41.8295 78.8847C42.9933 79.1162 44.1997 78.9974 45.2961 78.5433C46.3925 78.0892 47.3295 77.3201 47.9888 76.3334C48.6481 75.3467 49 74.1867 49 73V55H71.5V67.834C70.5921 67.2938 69.5564 67.0059 68.5 67C67.3133 67 66.1533 67.3519 65.1666 68.0112C64.1799 68.6705 63.4109 69.6075 62.9567 70.7039C62.5026 71.8003 62.3838 73.0067 62.6153 74.1705C62.8468 75.3344 63.4182 76.4035 64.2574 77.2426C65.0965 78.0818 66.1656 78.6532 67.3295 78.8847C68.4933 79.1162 69.6997 78.9974 70.7961 78.5433C71.8925 78.0892 72.8295 77.3201 73.4888 76.3334C74.1481 75.3467 74.5 74.1867 74.5 73V46C74.4992 45.2046 74.1829 44.442 73.6204 43.8796C73.058 43.3171 72.2954 43.0008 71.5 43ZM43 76C42.4067 76 41.8266 75.8241 41.3333 75.4944C40.8399 75.1648 40.4554 74.6962 40.2284 74.1481C40.0013 73.5999 39.9419 72.9967 40.0576 72.4147C40.1734 71.8328 40.4591 71.2982 40.8787 70.8787C41.2982 70.4591 41.8328 70.1734 42.4147 70.0576C42.9967 69.9419 43.5999 70.0013 44.1481 70.2284C44.6962 70.4554 45.1648 70.8399 45.4944 71.3333C45.8241 71.8266 46 72.4067 46 73C45.9992 73.7954 45.6829 74.558 45.1204 75.1204C44.558 75.6829 43.7954 75.9992 43 76ZM68.5 76C67.9067 76 67.3266 75.8241 66.8333 75.4944C66.3399 75.1648 65.9554 74.6962 65.7284 74.1481C65.5013 73.5999 65.4419 72.9967 65.5576 72.4147C65.6734 71.8328 65.9591 71.2982 66.3787 70.8787C66.7982 70.4591 67.3328 70.1734 67.9147 70.0576C68.4967 69.9419 69.0999 70.0013 69.6481 70.2284C70.1962 70.4554 70.6648 70.8399 70.9944 71.3333C71.3241 71.8266 71.5 72.4067 71.5 73C71.4988 73.7953 71.1824 74.5577 70.62 75.12C70.0577 75.6824 69.2953 75.9988 68.5 76ZM49 46H71.5V52H49V46Z" fill="white"/>
</svg>
