<svg width="116" height="116" viewBox="0 0 116 116" fill="none" xmlns="http://www.w3.org/2000/svg">
<rect width="116" height="116" rx="20" fill="#EC6823"/>
<g clip-path="url(#clip0_0_1)">
<path d="M57.9999 50.7273H49.0001V59.4545H57.9999V50.7273ZM60.9998 65.2727V68.1818H46.0002V65.2727H60.9998ZM60.9998 47.8182V62.3636H46.0002V47.8182H60.9998ZM75.9994 65.2727V68.1818H63.9997V65.2727H75.9994ZM75.9994 59.4545V62.3636H63.9997V59.4545H75.9994ZM75.9994 53.6364V56.5455H63.9997V53.6364H75.9994ZM75.9994 47.8182V50.7273H63.9997V47.8182H75.9994ZM40.0003 69.6364V47.8182H37.0004V69.6364C37.0004 70.0303 37.1488 70.3712 37.4457 70.6591C37.7426 70.947 38.0941 71.0909 38.5004 71.0909C38.9066 71.0909 39.2582 70.947 39.555 70.6591C39.8519 70.3712 40.0003 70.0303 40.0003 69.6364ZM78.9993 69.6364V44.9091H43.0003V69.6364C43.0003 70.1364 42.9143 70.6212 42.7424 71.0909H77.4994C77.9056 71.0909 78.2571 70.947 78.554 70.6591C78.8509 70.3712 78.9993 70.0303 78.9993 69.6364ZM81.9992 42V69.6364C81.9992 70.8485 81.5617 71.8788 80.6868 72.7273C79.8118 73.5758 78.7493 74 77.4994 74H38.5004C37.2504 74 36.1879 73.5758 35.313 72.7273C34.438 71.8788 34.0005 70.8485 34.0005 69.6364V44.9091H40.0003V42H81.9992Z" fill="white"/>
</g>
<defs>
<clipPath id="clip0_0_1">
<rect width="48" height="32" fill="white" transform="translate(34 42)"/>
</clipPath>
</defs>
</svg>
