<svg width="116" height="116" viewBox="0 0 116 116" fill="none" xmlns="http://www.w3.org/2000/svg">
<rect width="116" height="116" rx="20" fill="#F3F4F5"/>
<mask id="path-2-outside-1_0_1" maskUnits="userSpaceOnUse" x="33" y="33" width="50" height="50" fill="black">
<rect fill="white" x="33" y="33" width="50" height="50"/>
<path d="M43.5363 35.1878C44.2976 34.2393 45.4062 33.932 46.675 34.0122C47.7836 34.079 48.9322 34.0122 50.0007 34.2393C52.7655 34.8405 54.7689 37.4322 54.809 40.2645C54.8223 41.36 54.809 42.4555 54.809 43.6846C55.0761 43.5643 55.3031 43.5242 55.4367 43.3906C56.4251 42.4421 57.6004 42.0012 58.9627 42.0012C60.5655 42.0012 62.1549 42.0146 63.7576 41.9879C63.998 41.9879 64.2785 41.8944 64.4789 41.7474C65.6275 40.8924 66.8963 40.4114 68.3254 40.4114C70.7963 40.3981 73.2539 40.3847 75.7248 40.4114C78.5429 40.4382 80.9471 42.3085 81.7484 45.0339C82.5231 47.6924 81.468 50.5648 79.144 52.1412C78.957 52.2748 78.77 52.5286 78.7299 52.7424C78.5429 53.9581 78.1823 55.1338 77.4477 56.1224C74.87 59.5558 72.7864 63.2965 70.5292 66.9303C68.2854 70.5508 64.9597 72.3543 60.6991 72.4078C60.3785 72.4078 60.0713 72.4078 59.7508 72.4211C59.7241 72.4211 59.6973 72.4479 59.6038 72.4746C59.6038 72.6349 59.6038 72.8086 59.6038 72.9822C59.6038 75.6275 59.6038 78.286 59.6038 80.9312C59.6038 81.7462 59.3501 82 58.522 82C50.7086 82 42.8952 82 35.0819 82C34.2671 82 34 81.7462 34 80.9312C34 74.198 34 67.4647 34 60.7315C34 58.634 34.9082 57.0175 36.6712 55.8819C37.8199 55.1471 38.9819 54.4391 40.037 53.7711C39.663 52.7424 39.2757 51.7671 38.9685 50.7785C38.8349 50.3243 38.7949 49.83 38.7949 49.349C38.7815 45.5683 38.7815 41.7875 38.7949 38.0067C38.7949 36.2032 40.2373 34.7603 42.0004 34.8137C42.5079 34.8405 42.9754 35.0542 43.5363 35.1878ZM39.1021 56.2827C38.4743 56.6835 37.9 57.0175 37.3524 57.3915C36.4575 58.0061 35.8432 58.8344 35.7096 59.9165C35.6027 60.825 35.6161 61.7468 35.6161 62.6552C35.6161 67.3044 39.1154 70.818 43.7634 70.818C45.9137 70.818 48.0641 70.818 50.2144 70.818C54.021 70.8046 56.9326 69.1747 58.9093 65.9016C60.0446 64.0179 61.1665 62.1342 62.3018 60.2505C62.3819 60.1169 62.4621 59.97 62.5556 59.7829C61.5806 59.0081 60.6323 58.2332 59.6573 57.4717C59.497 57.6053 59.3768 57.7122 59.2566 57.819C57.4001 59.489 55.5302 61.159 53.687 62.8289C52.5117 63.8977 51.1494 64.4187 49.5466 64.4054C47.2093 64.392 44.8853 64.4054 42.548 64.4054C42.3877 64.4054 42.2274 64.4054 42.0538 64.4054C42.0538 63.8442 42.0538 63.3366 42.0538 62.7888C42.588 62.7888 43.0956 62.7888 43.6699 62.7888C42.1072 60.5845 40.6113 58.447 39.1021 56.2827ZM57.9877 72.4211C57.7473 72.4211 57.5603 72.4211 57.36 72.4211C52.8189 72.4211 48.2644 72.4345 43.7233 72.4211C40.4644 72.4078 37.8332 71.0718 35.8699 68.4667C35.8164 68.3999 35.7497 68.3331 35.6562 68.2128C35.6562 72.3276 35.6562 76.3489 35.6562 80.3968C43.1089 80.3968 50.5483 80.3968 58.0011 80.3968C57.9877 77.7383 57.9877 75.1064 57.9877 72.4211ZM40.411 42.028C40.411 42.2016 40.411 42.3352 40.411 42.4688C40.411 44.7132 40.3976 46.971 40.411 49.2154C40.4243 52.1145 42.3476 54.6261 45.1257 55.3876C47.9172 56.1491 50.8689 54.9467 52.3381 52.4218C52.7655 51.687 53.0727 50.9121 53.1261 50.0437C52.0576 50.0437 51.0559 50.0437 50.0408 50.0437C49.747 51.8206 48.5983 52.6489 46.8487 52.3683C46.8487 51.8607 46.8487 51.353 46.8487 50.8186C47.1425 50.8186 47.4497 50.8988 47.6634 50.8052C47.9439 50.685 48.2377 50.4579 48.3713 50.2041C48.5182 49.9101 48.4247 49.6162 48.1042 49.349C47.7168 49.0284 47.3562 48.6143 47.1425 48.1734C46.1408 46.1026 47.6367 43.6846 49.9473 43.6311C51.0292 43.6044 52.0977 43.6311 53.1929 43.6311C53.1929 43.07 53.1929 42.5623 53.1929 42.028C51.4566 42.028 49.7603 41.9879 48.0641 42.0413C46.3812 42.0948 44.8987 41.734 43.7634 40.3446C42.9086 41.4401 41.8267 41.9879 40.411 42.028ZM56.4518 70.818C57.8542 70.818 59.2432 70.8313 60.6456 70.818C64.4388 70.7913 67.3237 69.1614 69.3005 65.915C70.4357 64.0313 71.5577 62.1476 72.6929 60.2639C72.7731 60.1169 72.8532 59.9833 72.9467 59.7963C71.9984 59.0348 71.0501 58.2866 70.1018 57.5251C68.6861 59.1149 67.3104 60.6647 65.948 62.201C64.9063 63.3767 63.6374 64.1382 62.0614 64.3386C61.7275 64.3786 61.5806 64.5657 61.4336 64.8195C60.1114 67.0906 58.8025 69.3618 56.4518 70.818ZM70.7963 46.8107C70.7963 49.4559 72.9601 51.6202 75.5912 51.6202C78.2358 51.6202 80.3861 49.4693 80.3995 46.8241C80.4128 44.1922 78.2491 42.0146 75.6046 42.0146C72.9601 42.0146 70.8097 44.1655 70.7963 46.8107ZM71.2905 42.028C70.1686 42.028 69.1135 41.9879 68.0717 42.0413C65.7076 42.1616 63.7443 44.1521 63.6107 46.5034C63.4771 48.9616 65.16 51.166 67.5508 51.5133C68.5792 51.6603 69.6477 51.5935 70.6895 51.6202C70.8765 51.6202 71.0635 51.6202 71.3306 51.6202C68.7261 49.1486 68.3121 44.9938 71.2905 42.028ZM62.8494 43.6178C61.447 43.6178 60.1247 43.6044 58.8158 43.6178C57.0127 43.6311 55.6103 45.0472 55.6103 46.8241C55.6103 48.5875 57.0261 49.9903 58.8292 50.017C60.0446 50.0304 61.26 50.017 62.4754 50.017C62.5823 50.017 62.6891 50.0037 62.836 49.9903C61.7275 47.8528 61.7275 45.7687 62.8494 43.6178ZM53.1795 40.3981C53.2864 38.2205 51.5501 36.0428 49.3463 35.7356C48.1843 35.5619 46.9956 35.6153 45.8069 35.642C45.1524 35.6554 44.5648 36.2032 44.4579 36.8711C44.1106 38.8751 45.3661 40.3179 46.9555 40.3847C49.0124 40.4782 51.0692 40.3981 53.1795 40.3981ZM67.6042 53.1699C66.3087 52.9695 65.2268 52.4886 64.2919 51.7137C64.2251 51.6603 64.1049 51.6202 64.0248 51.6202C62.7693 51.6202 61.5004 51.6202 60.2182 51.6202C59.9378 52.7157 59.8977 53.7844 60.0847 54.8666C60.1515 55.2674 60.1782 55.7884 60.4453 56.0289C61.3936 56.8972 62.4354 57.6721 63.4771 58.5004C64.8528 56.6968 66.2018 54.9601 67.6042 53.1699ZM77.007 53.1833C74.7231 53.1833 72.4659 53.1833 70.182 53.1833C70.2621 53.6108 70.3689 53.9448 70.3957 54.2921C70.4624 55.4811 70.97 56.3762 72.0118 57.0041C72.6662 57.4049 73.2272 57.9527 73.8816 58.4737C74.9501 56.6701 76.5395 55.254 77.007 53.1833ZM54.9425 50.017C54.4751 51.3129 54.021 52.5286 53.5802 53.7711C55.0227 54.6929 56.5453 55.6681 58.0946 56.6701C58.7357 56.2293 58.709 56.2293 58.5754 55.4544C58.4686 54.8666 58.4018 54.2654 58.4018 53.6776C58.3884 53.0096 58.4686 52.3282 58.522 51.6335C57.2932 51.4999 56.2381 51.0324 55.3699 50.164C55.2364 50.0304 54.996 50.0304 54.9425 50.017ZM54.2747 45.2209C52.7521 45.2209 51.3096 45.1942 49.8672 45.2343C49.0524 45.261 48.4247 45.9824 48.4113 46.7973C48.398 47.6123 49.0257 48.3738 49.8271 48.4005C51.2829 48.4406 52.7521 48.4139 54.2614 48.4139C53.9408 47.3451 53.9141 46.3164 54.2747 45.2209ZM56.8792 57.8057C56.0778 57.2713 55.3165 56.777 54.5285 56.2693C52.9925 58.4603 51.4966 60.5979 49.9473 62.8156C50.8422 62.722 51.5901 62.5083 52.1778 61.9873C53.7271 60.6379 55.2497 59.2485 56.8792 57.8057ZM68.7395 54.252C66.7628 57.0442 64.4254 59.4222 62.8494 62.4682C63.5974 62.201 64.1316 61.8002 64.5857 61.2926C66.0282 59.676 67.4707 58.0729 68.8864 56.443C69.0066 56.3094 69.0734 56.0556 69.06 55.8685C69.0066 55.3742 68.8731 54.8933 68.7395 54.252ZM40.411 40.3981C41.5463 40.4248 42.4678 39.7835 42.7082 38.7281C42.8151 38.2472 42.8017 37.7395 42.8017 37.2452C42.7884 36.6841 42.4011 36.3768 41.8401 36.4169C41.1055 36.4837 40.451 37.1116 40.4243 37.8597C40.3843 38.688 40.411 39.5297 40.411 40.3981ZM40.4778 55.4678C41.6798 57.1778 42.8685 58.8745 44.0839 60.6246C44.2976 60.0635 44.3778 59.6226 44.2041 59.1016C43.9504 58.3267 43.8035 57.5118 43.5898 56.7102C43.563 56.59 43.4295 56.4964 43.3093 56.4163C42.8017 56.0823 42.2541 55.7884 41.76 55.4143C41.1322 54.9334 41.1589 54.92 40.4778 55.4678ZM53.1662 55.4143C52.7788 55.3342 52.6319 54.7864 52.1377 55.1471C51.5233 55.6013 50.8822 56.0021 50.2411 56.4296C50.1477 56.4964 50.0408 56.6033 50.0007 56.6968C49.7737 57.5385 49.6134 58.3935 49.3463 59.2352C49.1994 59.7295 49.3329 60.1169 49.5199 60.6112C50.7487 58.8611 51.9374 57.1778 53.1662 55.4143ZM45.8336 60.4375C45.6867 61.0254 45.5264 61.5998 45.4062 62.1877C45.3261 62.5751 45.5264 62.8156 45.9271 62.8289C46.5281 62.8423 47.1292 62.8289 47.7168 62.8289C48.1175 62.8289 48.2911 62.5884 48.2244 62.2144C48.1042 61.6132 47.9439 61.0254 47.797 60.4375C47.1158 60.4375 46.4881 60.4375 45.8336 60.4375ZM45.2326 57.1511C45.3795 57.6187 45.5264 58.0996 45.7134 58.5806C45.7535 58.6874 45.9538 58.7943 46.074 58.8077C46.5548 58.8344 47.0357 58.8344 47.5165 58.8077C47.6367 58.8077 47.8237 58.7275 47.8637 58.634C48.0507 58.1397 48.1976 57.6454 48.3579 57.1644C47.3161 57.1511 46.2877 57.1511 45.2326 57.1511Z"/>
</mask>
<path d="M43.5363 35.1878C44.2976 34.2393 45.4062 33.932 46.675 34.0122C47.7836 34.079 48.9322 34.0122 50.0007 34.2393C52.7655 34.8405 54.7689 37.4322 54.809 40.2645C54.8223 41.36 54.809 42.4555 54.809 43.6846C55.0761 43.5643 55.3031 43.5242 55.4367 43.3906C56.4251 42.4421 57.6004 42.0012 58.9627 42.0012C60.5655 42.0012 62.1549 42.0146 63.7576 41.9879C63.998 41.9879 64.2785 41.8944 64.4789 41.7474C65.6275 40.8924 66.8963 40.4114 68.3254 40.4114C70.7963 40.3981 73.2539 40.3847 75.7248 40.4114C78.5429 40.4382 80.9471 42.3085 81.7484 45.0339C82.5231 47.6924 81.468 50.5648 79.144 52.1412C78.957 52.2748 78.77 52.5286 78.7299 52.7424C78.5429 53.9581 78.1823 55.1338 77.4477 56.1224C74.87 59.5558 72.7864 63.2965 70.5292 66.9303C68.2854 70.5508 64.9597 72.3543 60.6991 72.4078C60.3785 72.4078 60.0713 72.4078 59.7508 72.4211C59.7241 72.4211 59.6973 72.4479 59.6038 72.4746C59.6038 72.6349 59.6038 72.8086 59.6038 72.9822C59.6038 75.6275 59.6038 78.286 59.6038 80.9312C59.6038 81.7462 59.3501 82 58.522 82C50.7086 82 42.8952 82 35.0819 82C34.2671 82 34 81.7462 34 80.9312C34 74.198 34 67.4647 34 60.7315C34 58.634 34.9082 57.0175 36.6712 55.8819C37.8199 55.1471 38.9819 54.4391 40.037 53.7711C39.663 52.7424 39.2757 51.7671 38.9685 50.7785C38.8349 50.3243 38.7949 49.83 38.7949 49.349C38.7815 45.5683 38.7815 41.7875 38.7949 38.0067C38.7949 36.2032 40.2373 34.7603 42.0004 34.8137C42.5079 34.8405 42.9754 35.0542 43.5363 35.1878ZM39.1021 56.2827C38.4743 56.6835 37.9 57.0175 37.3524 57.3915C36.4575 58.0061 35.8432 58.8344 35.7096 59.9165C35.6027 60.825 35.6161 61.7468 35.6161 62.6552C35.6161 67.3044 39.1154 70.818 43.7634 70.818C45.9137 70.818 48.0641 70.818 50.2144 70.818C54.021 70.8046 56.9326 69.1747 58.9093 65.9016C60.0446 64.0179 61.1665 62.1342 62.3018 60.2505C62.3819 60.1169 62.4621 59.97 62.5556 59.7829C61.5806 59.0081 60.6323 58.2332 59.6573 57.4717C59.497 57.6053 59.3768 57.7122 59.2566 57.819C57.4001 59.489 55.5302 61.159 53.687 62.8289C52.5117 63.8977 51.1494 64.4187 49.5466 64.4054C47.2093 64.392 44.8853 64.4054 42.548 64.4054C42.3877 64.4054 42.2274 64.4054 42.0538 64.4054C42.0538 63.8442 42.0538 63.3366 42.0538 62.7888C42.588 62.7888 43.0956 62.7888 43.6699 62.7888C42.1072 60.5845 40.6113 58.447 39.1021 56.2827ZM57.9877 72.4211C57.7473 72.4211 57.5603 72.4211 57.36 72.4211C52.8189 72.4211 48.2644 72.4345 43.7233 72.4211C40.4644 72.4078 37.8332 71.0718 35.8699 68.4667C35.8164 68.3999 35.7497 68.3331 35.6562 68.2128C35.6562 72.3276 35.6562 76.3489 35.6562 80.3968C43.1089 80.3968 50.5483 80.3968 58.0011 80.3968C57.9877 77.7383 57.9877 75.1064 57.9877 72.4211ZM40.411 42.028C40.411 42.2016 40.411 42.3352 40.411 42.4688C40.411 44.7132 40.3976 46.971 40.411 49.2154C40.4243 52.1145 42.3476 54.6261 45.1257 55.3876C47.9172 56.1491 50.8689 54.9467 52.3381 52.4218C52.7655 51.687 53.0727 50.9121 53.1261 50.0437C52.0576 50.0437 51.0559 50.0437 50.0408 50.0437C49.747 51.8206 48.5983 52.6489 46.8487 52.3683C46.8487 51.8607 46.8487 51.353 46.8487 50.8186C47.1425 50.8186 47.4497 50.8988 47.6634 50.8052C47.9439 50.685 48.2377 50.4579 48.3713 50.2041C48.5182 49.9101 48.4247 49.6162 48.1042 49.349C47.7168 49.0284 47.3562 48.6143 47.1425 48.1734C46.1408 46.1026 47.6367 43.6846 49.9473 43.6311C51.0292 43.6044 52.0977 43.6311 53.1929 43.6311C53.1929 43.07 53.1929 42.5623 53.1929 42.028C51.4566 42.028 49.7603 41.9879 48.0641 42.0413C46.3812 42.0948 44.8987 41.734 43.7634 40.3446C42.9086 41.4401 41.8267 41.9879 40.411 42.028ZM56.4518 70.818C57.8542 70.818 59.2432 70.8313 60.6456 70.818C64.4388 70.7913 67.3237 69.1614 69.3005 65.915C70.4357 64.0313 71.5577 62.1476 72.6929 60.2639C72.7731 60.1169 72.8532 59.9833 72.9467 59.7963C71.9984 59.0348 71.0501 58.2866 70.1018 57.5251C68.6861 59.1149 67.3104 60.6647 65.948 62.201C64.9063 63.3767 63.6374 64.1382 62.0614 64.3386C61.7275 64.3786 61.5806 64.5657 61.4336 64.8195C60.1114 67.0906 58.8025 69.3618 56.4518 70.818ZM70.7963 46.8107C70.7963 49.4559 72.9601 51.6202 75.5912 51.6202C78.2358 51.6202 80.3861 49.4693 80.3995 46.8241C80.4128 44.1922 78.2491 42.0146 75.6046 42.0146C72.9601 42.0146 70.8097 44.1655 70.7963 46.8107ZM71.2905 42.028C70.1686 42.028 69.1135 41.9879 68.0717 42.0413C65.7076 42.1616 63.7443 44.1521 63.6107 46.5034C63.4771 48.9616 65.16 51.166 67.5508 51.5133C68.5792 51.6603 69.6477 51.5935 70.6895 51.6202C70.8765 51.6202 71.0635 51.6202 71.3306 51.6202C68.7261 49.1486 68.3121 44.9938 71.2905 42.028ZM62.8494 43.6178C61.447 43.6178 60.1247 43.6044 58.8158 43.6178C57.0127 43.6311 55.6103 45.0472 55.6103 46.8241C55.6103 48.5875 57.0261 49.9903 58.8292 50.017C60.0446 50.0304 61.26 50.017 62.4754 50.017C62.5823 50.017 62.6891 50.0037 62.836 49.9903C61.7275 47.8528 61.7275 45.7687 62.8494 43.6178ZM53.1795 40.3981C53.2864 38.2205 51.5501 36.0428 49.3463 35.7356C48.1843 35.5619 46.9956 35.6153 45.8069 35.642C45.1524 35.6554 44.5648 36.2032 44.4579 36.8711C44.1106 38.8751 45.3661 40.3179 46.9555 40.3847C49.0124 40.4782 51.0692 40.3981 53.1795 40.3981ZM67.6042 53.1699C66.3087 52.9695 65.2268 52.4886 64.2919 51.7137C64.2251 51.6603 64.1049 51.6202 64.0248 51.6202C62.7693 51.6202 61.5004 51.6202 60.2182 51.6202C59.9378 52.7157 59.8977 53.7844 60.0847 54.8666C60.1515 55.2674 60.1782 55.7884 60.4453 56.0289C61.3936 56.8972 62.4354 57.6721 63.4771 58.5004C64.8528 56.6968 66.2018 54.9601 67.6042 53.1699ZM77.007 53.1833C74.7231 53.1833 72.4659 53.1833 70.182 53.1833C70.2621 53.6108 70.3689 53.9448 70.3957 54.2921C70.4624 55.4811 70.97 56.3762 72.0118 57.0041C72.6662 57.4049 73.2272 57.9527 73.8816 58.4737C74.9501 56.6701 76.5395 55.254 77.007 53.1833ZM54.9425 50.017C54.4751 51.3129 54.021 52.5286 53.5802 53.7711C55.0227 54.6929 56.5453 55.6681 58.0946 56.6701C58.7357 56.2293 58.709 56.2293 58.5754 55.4544C58.4686 54.8666 58.4018 54.2654 58.4018 53.6776C58.3884 53.0096 58.4686 52.3282 58.522 51.6335C57.2932 51.4999 56.2381 51.0324 55.3699 50.164C55.2364 50.0304 54.996 50.0304 54.9425 50.017ZM54.2747 45.2209C52.7521 45.2209 51.3096 45.1942 49.8672 45.2343C49.0524 45.261 48.4247 45.9824 48.4113 46.7973C48.398 47.6123 49.0257 48.3738 49.8271 48.4005C51.2829 48.4406 52.7521 48.4139 54.2614 48.4139C53.9408 47.3451 53.9141 46.3164 54.2747 45.2209ZM56.8792 57.8057C56.0778 57.2713 55.3165 56.777 54.5285 56.2693C52.9925 58.4603 51.4966 60.5979 49.9473 62.8156C50.8422 62.722 51.5901 62.5083 52.1778 61.9873C53.7271 60.6379 55.2497 59.2485 56.8792 57.8057ZM68.7395 54.252C66.7628 57.0442 64.4254 59.4222 62.8494 62.4682C63.5974 62.201 64.1316 61.8002 64.5857 61.2926C66.0282 59.676 67.4707 58.0729 68.8864 56.443C69.0066 56.3094 69.0734 56.0556 69.06 55.8685C69.0066 55.3742 68.8731 54.8933 68.7395 54.252ZM40.411 40.3981C41.5463 40.4248 42.4678 39.7835 42.7082 38.7281C42.8151 38.2472 42.8017 37.7395 42.8017 37.2452C42.7884 36.6841 42.4011 36.3768 41.8401 36.4169C41.1055 36.4837 40.451 37.1116 40.4243 37.8597C40.3843 38.688 40.411 39.5297 40.411 40.3981ZM40.4778 55.4678C41.6798 57.1778 42.8685 58.8745 44.0839 60.6246C44.2976 60.0635 44.3778 59.6226 44.2041 59.1016C43.9504 58.3267 43.8035 57.5118 43.5898 56.7102C43.563 56.59 43.4295 56.4964 43.3093 56.4163C42.8017 56.0823 42.2541 55.7884 41.76 55.4143C41.1322 54.9334 41.1589 54.92 40.4778 55.4678ZM53.1662 55.4143C52.7788 55.3342 52.6319 54.7864 52.1377 55.1471C51.5233 55.6013 50.8822 56.0021 50.2411 56.4296C50.1477 56.4964 50.0408 56.6033 50.0007 56.6968C49.7737 57.5385 49.6134 58.3935 49.3463 59.2352C49.1994 59.7295 49.3329 60.1169 49.5199 60.6112C50.7487 58.8611 51.9374 57.1778 53.1662 55.4143ZM45.8336 60.4375C45.6867 61.0254 45.5264 61.5998 45.4062 62.1877C45.3261 62.5751 45.5264 62.8156 45.9271 62.8289C46.5281 62.8423 47.1292 62.8289 47.7168 62.8289C48.1175 62.8289 48.2911 62.5884 48.2244 62.2144C48.1042 61.6132 47.9439 61.0254 47.797 60.4375C47.1158 60.4375 46.4881 60.4375 45.8336 60.4375ZM45.2326 57.1511C45.3795 57.6187 45.5264 58.0996 45.7134 58.5806C45.7535 58.6874 45.9538 58.7943 46.074 58.8077C46.5548 58.8344 47.0357 58.8344 47.5165 58.8077C47.6367 58.8077 47.8237 58.7275 47.8637 58.634C48.0507 58.1397 48.1976 57.6454 48.3579 57.1644C47.3161 57.1511 46.2877 57.1511 45.2326 57.1511Z" fill="black"/>
<path d="M43.5363 35.1878C44.2976 34.2393 45.4062 33.932 46.675 34.0122C47.7836 34.079 48.9322 34.0122 50.0007 34.2393C52.7655 34.8405 54.7689 37.4322 54.809 40.2645C54.8223 41.36 54.809 42.4555 54.809 43.6846C55.0761 43.5643 55.3031 43.5242 55.4367 43.3906C56.4251 42.4421 57.6004 42.0012 58.9627 42.0012C60.5655 42.0012 62.1549 42.0146 63.7576 41.9879C63.998 41.9879 64.2785 41.8944 64.4789 41.7474C65.6275 40.8924 66.8963 40.4114 68.3254 40.4114C70.7963 40.3981 73.2539 40.3847 75.7248 40.4114C78.5429 40.4382 80.9471 42.3085 81.7484 45.0339C82.5231 47.6924 81.468 50.5648 79.144 52.1412C78.957 52.2748 78.77 52.5286 78.7299 52.7424C78.5429 53.9581 78.1823 55.1338 77.4477 56.1224C74.87 59.5558 72.7864 63.2965 70.5292 66.9303C68.2854 70.5508 64.9597 72.3543 60.6991 72.4078C60.3785 72.4078 60.0713 72.4078 59.7508 72.4211C59.7241 72.4211 59.6973 72.4479 59.6038 72.4746C59.6038 72.6349 59.6038 72.8086 59.6038 72.9822C59.6038 75.6275 59.6038 78.286 59.6038 80.9312C59.6038 81.7462 59.3501 82 58.522 82C50.7086 82 42.8952 82 35.0819 82C34.2671 82 34 81.7462 34 80.9312C34 74.198 34 67.4647 34 60.7315C34 58.634 34.9082 57.0175 36.6712 55.8819C37.8199 55.1471 38.9819 54.4391 40.037 53.7711C39.663 52.7424 39.2757 51.7671 38.9685 50.7785C38.8349 50.3243 38.7949 49.83 38.7949 49.349C38.7815 45.5683 38.7815 41.7875 38.7949 38.0067C38.7949 36.2032 40.2373 34.7603 42.0004 34.8137C42.5079 34.8405 42.9754 35.0542 43.5363 35.1878ZM39.1021 56.2827C38.4743 56.6835 37.9 57.0175 37.3524 57.3915C36.4575 58.0061 35.8432 58.8344 35.7096 59.9165C35.6027 60.825 35.6161 61.7468 35.6161 62.6552C35.6161 67.3044 39.1154 70.818 43.7634 70.818C45.9137 70.818 48.0641 70.818 50.2144 70.818C54.021 70.8046 56.9326 69.1747 58.9093 65.9016C60.0446 64.0179 61.1665 62.1342 62.3018 60.2505C62.3819 60.1169 62.4621 59.97 62.5556 59.7829C61.5806 59.0081 60.6323 58.2332 59.6573 57.4717C59.497 57.6053 59.3768 57.7122 59.2566 57.819C57.4001 59.489 55.5302 61.159 53.687 62.8289C52.5117 63.8977 51.1494 64.4187 49.5466 64.4054C47.2093 64.392 44.8853 64.4054 42.548 64.4054C42.3877 64.4054 42.2274 64.4054 42.0538 64.4054C42.0538 63.8442 42.0538 63.3366 42.0538 62.7888C42.588 62.7888 43.0956 62.7888 43.6699 62.7888C42.1072 60.5845 40.6113 58.447 39.1021 56.2827ZM57.9877 72.4211C57.7473 72.4211 57.5603 72.4211 57.36 72.4211C52.8189 72.4211 48.2644 72.4345 43.7233 72.4211C40.4644 72.4078 37.8332 71.0718 35.8699 68.4667C35.8164 68.3999 35.7497 68.3331 35.6562 68.2128C35.6562 72.3276 35.6562 76.3489 35.6562 80.3968C43.1089 80.3968 50.5483 80.3968 58.0011 80.3968C57.9877 77.7383 57.9877 75.1064 57.9877 72.4211ZM40.411 42.028C40.411 42.2016 40.411 42.3352 40.411 42.4688C40.411 44.7132 40.3976 46.971 40.411 49.2154C40.4243 52.1145 42.3476 54.6261 45.1257 55.3876C47.9172 56.1491 50.8689 54.9467 52.3381 52.4218C52.7655 51.687 53.0727 50.9121 53.1261 50.0437C52.0576 50.0437 51.0559 50.0437 50.0408 50.0437C49.747 51.8206 48.5983 52.6489 46.8487 52.3683C46.8487 51.8607 46.8487 51.353 46.8487 50.8186C47.1425 50.8186 47.4497 50.8988 47.6634 50.8052C47.9439 50.685 48.2377 50.4579 48.3713 50.2041C48.5182 49.9101 48.4247 49.6162 48.1042 49.349C47.7168 49.0284 47.3562 48.6143 47.1425 48.1734C46.1408 46.1026 47.6367 43.6846 49.9473 43.6311C51.0292 43.6044 52.0977 43.6311 53.1929 43.6311C53.1929 43.07 53.1929 42.5623 53.1929 42.028C51.4566 42.028 49.7603 41.9879 48.0641 42.0413C46.3812 42.0948 44.8987 41.734 43.7634 40.3446C42.9086 41.4401 41.8267 41.9879 40.411 42.028ZM56.4518 70.818C57.8542 70.818 59.2432 70.8313 60.6456 70.818C64.4388 70.7913 67.3237 69.1614 69.3005 65.915C70.4357 64.0313 71.5577 62.1476 72.6929 60.2639C72.7731 60.1169 72.8532 59.9833 72.9467 59.7963C71.9984 59.0348 71.0501 58.2866 70.1018 57.5251C68.6861 59.1149 67.3104 60.6647 65.948 62.201C64.9063 63.3767 63.6374 64.1382 62.0614 64.3386C61.7275 64.3786 61.5806 64.5657 61.4336 64.8195C60.1114 67.0906 58.8025 69.3618 56.4518 70.818ZM70.7963 46.8107C70.7963 49.4559 72.9601 51.6202 75.5912 51.6202C78.2358 51.6202 80.3861 49.4693 80.3995 46.8241C80.4128 44.1922 78.2491 42.0146 75.6046 42.0146C72.9601 42.0146 70.8097 44.1655 70.7963 46.8107ZM71.2905 42.028C70.1686 42.028 69.1135 41.9879 68.0717 42.0413C65.7076 42.1616 63.7443 44.1521 63.6107 46.5034C63.4771 48.9616 65.16 51.166 67.5508 51.5133C68.5792 51.6603 69.6477 51.5935 70.6895 51.6202C70.8765 51.6202 71.0635 51.6202 71.3306 51.6202C68.7261 49.1486 68.3121 44.9938 71.2905 42.028ZM62.8494 43.6178C61.447 43.6178 60.1247 43.6044 58.8158 43.6178C57.0127 43.6311 55.6103 45.0472 55.6103 46.8241C55.6103 48.5875 57.0261 49.9903 58.8292 50.017C60.0446 50.0304 61.26 50.017 62.4754 50.017C62.5823 50.017 62.6891 50.0037 62.836 49.9903C61.7275 47.8528 61.7275 45.7687 62.8494 43.6178ZM53.1795 40.3981C53.2864 38.2205 51.5501 36.0428 49.3463 35.7356C48.1843 35.5619 46.9956 35.6153 45.8069 35.642C45.1524 35.6554 44.5648 36.2032 44.4579 36.8711C44.1106 38.8751 45.3661 40.3179 46.9555 40.3847C49.0124 40.4782 51.0692 40.3981 53.1795 40.3981ZM67.6042 53.1699C66.3087 52.9695 65.2268 52.4886 64.2919 51.7137C64.2251 51.6603 64.1049 51.6202 64.0248 51.6202C62.7693 51.6202 61.5004 51.6202 60.2182 51.6202C59.9378 52.7157 59.8977 53.7844 60.0847 54.8666C60.1515 55.2674 60.1782 55.7884 60.4453 56.0289C61.3936 56.8972 62.4354 57.6721 63.4771 58.5004C64.8528 56.6968 66.2018 54.9601 67.6042 53.1699ZM77.007 53.1833C74.7231 53.1833 72.4659 53.1833 70.182 53.1833C70.2621 53.6108 70.3689 53.9448 70.3957 54.2921C70.4624 55.4811 70.97 56.3762 72.0118 57.0041C72.6662 57.4049 73.2272 57.9527 73.8816 58.4737C74.9501 56.6701 76.5395 55.254 77.007 53.1833ZM54.9425 50.017C54.4751 51.3129 54.021 52.5286 53.5802 53.7711C55.0227 54.6929 56.5453 55.6681 58.0946 56.6701C58.7357 56.2293 58.709 56.2293 58.5754 55.4544C58.4686 54.8666 58.4018 54.2654 58.4018 53.6776C58.3884 53.0096 58.4686 52.3282 58.522 51.6335C57.2932 51.4999 56.2381 51.0324 55.3699 50.164C55.2364 50.0304 54.996 50.0304 54.9425 50.017ZM54.2747 45.2209C52.7521 45.2209 51.3096 45.1942 49.8672 45.2343C49.0524 45.261 48.4247 45.9824 48.4113 46.7973C48.398 47.6123 49.0257 48.3738 49.8271 48.4005C51.2829 48.4406 52.7521 48.4139 54.2614 48.4139C53.9408 47.3451 53.9141 46.3164 54.2747 45.2209ZM56.8792 57.8057C56.0778 57.2713 55.3165 56.777 54.5285 56.2693C52.9925 58.4603 51.4966 60.5979 49.9473 62.8156C50.8422 62.722 51.5901 62.5083 52.1778 61.9873C53.7271 60.6379 55.2497 59.2485 56.8792 57.8057ZM68.7395 54.252C66.7628 57.0442 64.4254 59.4222 62.8494 62.4682C63.5974 62.201 64.1316 61.8002 64.5857 61.2926C66.0282 59.676 67.4707 58.0729 68.8864 56.443C69.0066 56.3094 69.0734 56.0556 69.06 55.8685C69.0066 55.3742 68.8731 54.8933 68.7395 54.252ZM40.411 40.3981C41.5463 40.4248 42.4678 39.7835 42.7082 38.7281C42.8151 38.2472 42.8017 37.7395 42.8017 37.2452C42.7884 36.6841 42.4011 36.3768 41.8401 36.4169C41.1055 36.4837 40.451 37.1116 40.4243 37.8597C40.3843 38.688 40.411 39.5297 40.411 40.3981ZM40.4778 55.4678C41.6798 57.1778 42.8685 58.8745 44.0839 60.6246C44.2976 60.0635 44.3778 59.6226 44.2041 59.1016C43.9504 58.3267 43.8035 57.5118 43.5898 56.7102C43.563 56.59 43.4295 56.4964 43.3093 56.4163C42.8017 56.0823 42.2541 55.7884 41.76 55.4143C41.1322 54.9334 41.1589 54.92 40.4778 55.4678ZM53.1662 55.4143C52.7788 55.3342 52.6319 54.7864 52.1377 55.1471C51.5233 55.6013 50.8822 56.0021 50.2411 56.4296C50.1477 56.4964 50.0408 56.6033 50.0007 56.6968C49.7737 57.5385 49.6134 58.3935 49.3463 59.2352C49.1994 59.7295 49.3329 60.1169 49.5199 60.6112C50.7487 58.8611 51.9374 57.1778 53.1662 55.4143ZM45.8336 60.4375C45.6867 61.0254 45.5264 61.5998 45.4062 62.1877C45.3261 62.5751 45.5264 62.8156 45.9271 62.8289C46.5281 62.8423 47.1292 62.8289 47.7168 62.8289C48.1175 62.8289 48.2911 62.5884 48.2244 62.2144C48.1042 61.6132 47.9439 61.0254 47.797 60.4375C47.1158 60.4375 46.4881 60.4375 45.8336 60.4375ZM45.2326 57.1511C45.3795 57.6187 45.5264 58.0996 45.7134 58.5806C45.7535 58.6874 45.9538 58.7943 46.074 58.8077C46.5548 58.8344 47.0357 58.8344 47.5165 58.8077C47.6367 58.8077 47.8237 58.7275 47.8637 58.634C48.0507 58.1397 48.1976 57.6454 48.3579 57.1644C47.3161 57.1511 46.2877 57.1511 45.2326 57.1511Z" stroke="black" stroke-width="0.4" mask="url(#path-2-outside-1_0_1)"/>
</svg>
