<svg width="116" height="116" viewBox="0 0 116 116" fill="none" xmlns="http://www.w3.org/2000/svg">
<rect width="116" height="116" rx="20" fill="#F3F4F5"/>
<path d="M73.9997 39.3334H41.9997C41.2924 39.3334 40.6142 39.6143 40.1141 40.1144C39.614 40.6145 39.333 41.2928 39.333 42V74C39.333 74.7073 39.614 75.3856 40.1141 75.8857C40.6142 76.3858 41.2924 76.6667 41.9997 76.6667H73.9997C74.7069 76.6667 75.3852 76.3858 75.8853 75.8857C76.3854 75.3856 76.6663 74.7073 76.6663 74V42C76.6663 41.2928 76.3854 40.6145 75.8853 40.1144C75.3852 39.6143 74.7069 39.3334 73.9997 39.3334V39.3334ZM73.9997 74H41.9997V42H73.9997V74Z" fill="black"/>
<path d="M53.4664 64.7599C53.7096 64.9176 53.9886 65.0113 54.2777 65.0323C54.5667 65.0532 54.8564 65.0008 55.1197 64.8799L66.7597 59.5466C67.0639 59.4094 67.3219 59.1873 67.503 58.9071C67.684 58.6268 67.7803 58.3003 67.7803 57.9666C67.7803 57.633 67.684 57.3064 67.503 57.0261C67.3219 56.7459 67.0639 56.5238 66.7597 56.3866L55.1197 51.0533C54.8529 50.9313 54.5594 50.8791 54.2668 50.9016C53.9742 50.924 53.6921 51.0203 53.447 51.1816C53.2018 51.3428 53.0016 51.5636 52.8651 51.8234C52.7285 52.0831 52.6602 52.3732 52.6664 52.6666V63.3333C52.6708 63.6188 52.7463 63.8987 52.886 64.1478C53.0256 64.3969 53.2251 64.6072 53.4664 64.7599ZM54.7997 53.2933L65.0797 57.9999L54.7997 62.6799V53.2933Z" fill="black"/>
<path d="M44.667 43.3334H47.3337V47.3334H44.667V43.3334Z" fill="black"/>
<path d="M52.667 43.3334H55.3337V47.3334H52.667V43.3334Z" fill="black"/>
<path d="M60.667 43.3334H63.3337V47.3334H60.667V43.3334Z" fill="black"/>
<path d="M68.667 43.3334H71.3337V47.3334H68.667V43.3334Z" fill="black"/>
<path d="M44.667 68.6666H47.3337V72.6666H44.667V68.6666Z" fill="black"/>
<path d="M52.667 68.6666H55.3337V72.6666H52.667V68.6666Z" fill="black"/>
<path d="M60.667 68.6666H63.3337V72.6666H60.667V68.6666Z" fill="black"/>
<path d="M68.667 68.6666H71.3337V72.6666H68.667V68.6666Z" fill="black"/>
</svg>
