<svg xmlns="http://www.w3.org/2000/svg" width="24" height="24" viewBox="0 0 24 24">
  <g id="Icon_ionic-ios-arrow-dropleft" data-name="Icon ionic-ios-arrow-dropleft" transform="translate(-3.375 -3.375)">
    <path id="Path_32972" data-name="Path 32972" d="M19.566,10.307a1.118,1.118,0,0,0-1.575,0l-5.5,5.521a1.112,1.112,0,0,0-.035,1.535l5.423,5.44a1.112,1.112,0,1,0,1.575-1.569l-4.6-4.673,4.725-4.679A1.113,1.113,0,0,0,19.566,10.307Z" transform="translate(-1.577 -1.186)" fill="#191919"/>
    <path id="Path_32973" data-name="Path 32973" d="M15.375,3.375a12,12,0,1,0,12,12A12,12,0,0,0,15.375,3.375Zm7.177,19.177A10.15,10.15,0,1,1,8.2,8.2,10.15,10.15,0,1,1,22.552,22.552Z" fill="#191919"/>
  </g>
</svg>
