<svg id="Icon_ionic-ios-arrow-dropleft" data-name="Icon ionic-ios-arrow-dropleft" xmlns="http://www.w3.org/2000/svg" width="24" height="24" viewBox="0 0 24 24">
  <path id="Path_32972" data-name="Path 32972" d="M12.492,10.307a1.118,1.118,0,0,1,1.575,0l5.5,5.521a1.112,1.112,0,0,1,.035,1.535L14.182,22.8a1.112,1.112,0,1,1-1.575-1.569l4.6-4.673-4.725-4.679A1.113,1.113,0,0,1,12.492,10.307Z" transform="translate(-3.105 -4.561)" fill="#191919"/>
  <path id="Path_32973" data-name="Path 32973" d="M15.375,3.375a12,12,0,1,1-12,12A12,12,0,0,1,15.375,3.375ZM8.2,22.552A10.15,10.15,0,1,0,22.552,8.2,10.15,10.15,0,1,0,8.2,22.552Z" transform="translate(-3.375 -3.375)" fill="#191919"/>
</svg>
