<svg id="Component_7_3" data-name="Component 7 – 3" xmlns="http://www.w3.org/2000/svg" xmlns:xlink="http://www.w3.org/1999/xlink" width="160" height="160" viewBox="0 0 160 160">
  <defs>
    <clipPath id="clip-path">
      <path id="Path_125" data-name="Path 125" d="M665.454,432.116l-5.969,3.12a1.642,1.642,0,0,1-1.516,0L652,432.116a1.61,1.61,0,0,0-2.351,1.7l1.144,6.642a1.615,1.615,0,0,1-.464,1.421l-4.825,4.7a1.636,1.636,0,0,0,.9,2.78l6.65.958a1.61,1.61,0,0,1,1.237.9l2.969,6.024a1.621,1.621,0,0,0,2.907,0l2.969-6.024a1.63,1.63,0,0,1,1.237-.9l6.65-.958a1.631,1.631,0,0,0,.9-2.78l-4.825-4.7a1.615,1.615,0,0,1-.464-1.421l1.144-6.642a1.634,1.634,0,0,0-1.608-1.915,2.6,2.6,0,0,0-.711.216" transform="translate(-645.015 -431.9)"/>
    </clipPath>
  </defs>
  <g id="Group_120" data-name="Group 120" transform="translate(24 22.4)">
    <path id="Path_108" data-name="Path 108" d="M527.845,275.628a36.373,36.373,0,1,0-36.373,36.328,36.35,36.35,0,0,0,36.373-36.328" transform="translate(-433.691 -220.827)" fill="#1c0030"/>
    <rect id="Rectangle_103" data-name="Rectangle 103" width="29.104" height="29.069" transform="translate(78.968 4.572)" fill="#faa72a"/>
    <rect id="Rectangle_104" data-name="Rectangle 104" width="29.104" height="29.069" transform="translate(78.968 75.931)" fill="#28aae1"/>
    <rect id="Rectangle_105" data-name="Rectangle 105" width="29.104" height="29.069" transform="translate(7.522 75.931)" fill="#8dc63f"/>
    <rect id="Rectangle_106" data-name="Rectangle 106" width="21.155" height="21.13" transform="translate(11.481 79.885)" fill="#1c0030"/>
    <path id="Path_109" data-name="Path 109" d="M622.991,378.03h-29.1L572.7,356.9h29.1Z" transform="translate(-514.919 -302.099)" fill="#f15a22"/>
    <path id="Path_110" data-name="Path 110" d="M622.991,288.4,601.8,309.561H572.7l14.568-14.55,6.619-6.611Z" transform="translate(-514.919 -254.759)" fill="#b34215"/>
    <path id="Path_111" data-name="Path 111" d="M593.886,194.3v29.069l-6.619,6.611L572.7,244.529V215.46Z" transform="translate(-514.919 -189.728)" fill="#f15a22"/>
    <path id="Path_112" data-name="Path 112" d="M525.455,215.46v29.069L504.3,223.369V194.3Z" transform="translate(-467.674 -189.728)" fill="#b34215"/>
    <path id="Path_113" data-name="Path 113" d="M460.46,309.561h-29.1L410.2,288.4h29.1Z" transform="translate(-402.678 -254.759)" fill="#f15a22"/>
    <path id="Path_114" data-name="Path 114" d="M460.46,356.9l-14.537,14.519L439.3,378.03H410.2l21.156-21.13Z" transform="translate(-402.678 -302.099)" fill="#b34215"/>
    <path id="Path_115" data-name="Path 115" d="M525.455,356.9v29.038L504.3,407.1V378.03l6.619-6.611Z" transform="translate(-467.674 -302.099)" fill="#f15a22"/>
    <path id="Path_116" data-name="Path 116" d="M593.886,378.03V407.1L572.7,385.938V356.9Z" transform="translate(-514.919 -302.099)" fill="#b34215"/>
    <path id="Path_117" data-name="Path 117" d="M673.1,211.933a12.248,12.248,0,1,0-12.248,12.233A12.229,12.229,0,0,0,673.1,211.933" transform="translate(-567.344 -193.46)" fill="#1c0030"/>
    <path id="Path_118" data-name="Path 118" d="M693.3,191.733a12.248,12.248,0,1,0-12.248,12.233A12.229,12.229,0,0,0,693.3,191.733" transform="translate(-581.296 -179.5)" fill="#8dc63f"/>
    <path id="Path_119" data-name="Path 119" d="M695.709,189.7a3.8,3.8,0,1,0-3.8,3.8,3.8,3.8,0,0,0,3.8-3.8" transform="translate(-594.626 -183.923)" fill="#fff"/>
    <path id="Path_120" data-name="Path 120" d="M458.867,447.9l3.588,20.821-5.536,7.877L453.3,455.746Z" transform="translate(-432.448 -364.988)" fill="#9c2372"/>
    <path id="Path_121" data-name="Path 121" d="M412.313,447.9l-5.567,7.846L385.9,459.361l5.536-7.846Z" transform="translate(-385.894 -364.988)" fill="#650646"/>
    <rect id="Rectangle_107" data-name="Rectangle 107" width="21.159" height="21.135" transform="matrix(0.985, -0.171, 0.171, 0.985, 0, 94.381)" fill="#ec008c"/>
    <path id="Path_122" data-name="Path 122" d="M439.3,194.3v29.069H410.2V213.7h9.712V204h9.681v-9.7Z" transform="translate(-402.678 -189.728)" fill="#28aae1"/>
    <path id="Path_123" data-name="Path 123" d="M659.654,435.271l5.969-3.12a1.61,1.61,0,0,1,2.351,1.7l-1.144,6.642a1.614,1.614,0,0,0,.464,1.421l4.825,4.7a1.636,1.636,0,0,1-.9,2.78l-6.65.958a1.611,1.611,0,0,0-1.237.9l-2.969,6.024a1.621,1.621,0,0,1-2.907,0l-2.969-6.024a1.63,1.63,0,0,0-1.237-.9l-6.65-.958a1.63,1.63,0,0,1-.9-2.78l4.825-4.7a1.614,1.614,0,0,0,.464-1.421l-1.144-6.642a1.613,1.613,0,0,1,2.351-1.7l5.969,3.12a1.578,1.578,0,0,0,1.484,0" transform="translate(-565.005 -353.966)" fill="#1c0030"/>
    <g id="Group_119" data-name="Group 119" transform="translate(80.148 77.969)">
      <g id="Group_114" data-name="Group 114" clip-path="url(#clip-path)">
        <path id="Path_124" data-name="Path 124" d="M640.763,449.3l-4.33,4.17-.093.093h0a.107.107,0,0,0-.031.062c-.031.031-.031.062-.062.062,0,.031-.031.031-.031.062a.108.108,0,0,1-.031.062c0,.031-.031.031-.031.062a.107.107,0,0,1-.031.062c0,.031,0,.031-.031.062a.107.107,0,0,1-.031.062c0,.031,0,.031-.031.062,0,.031,0,.062-.031.062v.556c0,.031,0,.062.031.062,0,.031,0,.031.031.062a.108.108,0,0,0,.031.062c0,.031,0,.031.031.062,0,.031.031.031.031.062s.031.031.031.062.031.031.031.062l.031.031c.031.031.031.062.062.062l.031.031.093.093,2.289,2.255-.093-.093-.031-.031-.062-.062-.031-.031c0-.031-.031-.031-.031-.062s-.031-.031-.031-.062-.031-.031-.031-.062,0-.031-.031-.062c0-.031-.031-.031-.031-.062v-.062c0-.031,0-.062-.031-.062v-.556c0-.031,0-.062.031-.062,0-.031,0-.031.031-.062a.108.108,0,0,1,.031-.062c0-.031,0-.031.031-.062a.107.107,0,0,1,.031-.062c0-.031.031-.031.031-.062a.107.107,0,0,1,.031-.062c0-.031.031-.031.031-.062.031-.031.031-.062.062-.062a.107.107,0,0,0,.031-.062.425.425,0,0,0,.093-.124h0l4.33-4.17Z" transform="translate(-638.788 -443.925)" fill="#956811"/>
      </g>
      <g id="Group_115" data-name="Group 115" clip-path="url(#clip-path)">
        <path id="Path_126" data-name="Path 126" d="M664.1,420.8l-5.258,2.842h0c-.031.031-.062.031-.093.062-.031,0-.062.031-.093.031a.108.108,0,0,0-.062.031c-.031,0-.062.031-.093.031h-.062a1.335,1.335,0,0,0-.155.031h-.062a1.19,1.19,0,0,1-.649-.154l2.2,2.131-2.2-2.131-5.1-2.626h0a1.256,1.256,0,0,0-.649-.154h-.062a.393.393,0,0,0-.186.031h-.062c-.031,0-.093.031-.124.031h-.031c-.062.031-.093.031-.155.062h-.031c-.031.031-.093.031-.124.062h-.031a.03.03,0,0,0-.031.031l-.093.093a.03.03,0,0,0-.031.031h0c-.062.031-.093.093-.155.154h0c0,.031-.031.031-.031.062s-.031.031-.031.062c-.031.031-.031.031-.031.062s-.031.031-.031.062a.108.108,0,0,1-.031.062c0,.031-.031.031-.031.062s-.031.062-.031.093-.031.031-.031.062-.031.062-.031.093,0,.031-.031.062v.463l.835.834-.835-.834.8,5.746,2.227,2.193-2.227-2.193v.4a.113.113,0,0,1-.031.093c0,.031,0,.031-.031.062,0,.031-.031.062-.031.093s0,.031-.031.062c0,.031-.031.062-.031.093s-.031.031-.031.062-.031.062-.062.093c0,.031-.031.031-.031.062-.031.031-.031.062-.062.093,0,.031-.031.031-.031.062-.031.031-.062.093-.093.124l2.289,2.255.093-.093V431.7c0-.031.031-.031.031-.062.031-.031.031-.062.062-.093,0-.031.031-.031.031-.062.031-.031.031-.062.062-.093,0-.031.031-.031.031-.062s.031-.062.031-.093.031-.031.031-.062.031-.062.031-.093,0-.031.031-.062a.113.113,0,0,1,.031-.093v-.4l-.8-5.746v-.494c0-.031,0-.031.031-.062a.114.114,0,0,1,.031-.093c0-.031.031-.031.031-.062s.031-.062.031-.093.031-.031.031-.062a.108.108,0,0,1,.031-.062c0-.031.031-.031.031-.062s.031-.031.031-.062.031-.031.031-.062l.062-.062.155-.154.031-.031.093-.093.031-.031a.235.235,0,0,1,.124-.062h.031c.062-.031.093-.031.155-.062h.031c.031,0,.093-.031.124-.031h.062c.062,0,.124-.031.186-.031h.031a1.258,1.258,0,0,1,.649.154l5.1,2.626h0a1.664,1.664,0,0,0,.649.154h.062a.232.232,0,0,0,.155-.031h.062c.031,0,.062-.031.093-.031h.062c.031,0,.062-.031.093-.031s.031,0,.062-.031c.031,0,.031-.031.062-.031h0l5.258-2.842Z" transform="translate(-648.735 -424.229)" fill="#956811"/>
      </g>
      <g id="Group_116" data-name="Group 116" clip-path="url(#clip-path)">
        <path id="Path_128" data-name="Path 128" d="M663.367,476.726a.845.845,0,0,0-.278-.371L660.8,474.1a1.452,1.452,0,0,1,.278.371l2.443,5.19a1.177,1.177,0,0,0,.278.4l2.289,2.255a2.25,2.25,0,0,1-.278-.4Z" transform="translate(-655.918 -461.064)" fill="#956811"/>
      </g>
      <g id="Group_117" data-name="Group 117" clip-path="url(#clip-path)">
        <path id="Path_130" data-name="Path 130" d="M698.766,422.926l-2.289-2.255-.062-.062h0l-.031-.031c-.031,0-.031-.031-.062-.031l-.031-.031c-.031,0-.031-.031-.062-.031s-.031-.031-.062-.031-.031-.031-.062-.031-.031,0-.062-.031a.107.107,0,0,1-.062-.031c-.031,0-.031,0-.062-.031-.031,0-.062,0-.062-.031h-.371a.232.232,0,0,0-.155.031h-.062c-.031,0-.062.031-.093.031h-.062c-.031,0-.062.031-.093.031s-.031,0-.062.031c-.031,0-.031.031-.062.031l2.289,2.255c.031-.031.062-.031.124-.062.031,0,.062-.031.093-.031a.108.108,0,0,0,.062-.031c.031,0,.062-.031.093-.031h.062a1.342,1.342,0,0,0,.155-.031h.371c.031,0,.062,0,.062.031.031,0,.031,0,.062.031a.108.108,0,0,1,.062.031c.031,0,.031,0,.062.031.031,0,.031.031.062.031s.031.031.062.031.031.031.062.031l.031.031c.031,0,.031.031.062.031l.031.031c0,.031.031.062.062.093h0" transform="translate(-679.471 -423.883)" fill="#956811"/>
      </g>
      <g id="Group_118" data-name="Group 118" clip-path="url(#clip-path)">
        <path id="Path_132" data-name="Path 132" d="M665.854,442.573l-5.815.958a1.52,1.52,0,0,0-1.083.8l-2.753,5.313a1.455,1.455,0,0,1-1.3.8,1.337,1.337,0,0,1-1.237-.772h0l-2.443-5.19a1.326,1.326,0,0,0-.649-.649,1.53,1.53,0,0,0-.4-.124l-.588-.062h0l-5.2-.649a1.366,1.366,0,0,1-.711-2.379l4.33-4.17a1.5,1.5,0,0,0,.433-1.267l-.8-5.746a1.49,1.49,0,0,1,1.454-1.668,1.257,1.257,0,0,1,.649.154l5.1,2.626a1.664,1.664,0,0,0,.65.154,1.218,1.218,0,0,0,.65-.185l5.258-2.842a1.3,1.3,0,0,1,.649-.185,1.323,1.323,0,0,1,1.33,1.637l-1.175,5.808a1.294,1.294,0,0,0,.371,1.236l4.083,3.985a1.409,1.409,0,0,1-.8,2.41" transform="translate(-643.775 -428.857)" fill="#faa72a"/>
      </g>
    </g>
  </g>
  <rect id="Rectangle_113" data-name="Rectangle 113" width="160" height="160" fill="none"/>
</svg>
