<svg xmlns="http://www.w3.org/2000/svg" width="244.375" height="153.585" viewBox="0 0 244.375 153.585">
  <g id="Group_13767" data-name="Group 13767" transform="translate(26.557 26.557)">
    <path id="Path_32081" data-name="Path 32081" d="M619.1,171.78v-5.37a11.716,11.716,0,0,1-11.716-11.715h-165.3a11.715,11.715,0,0,1-11.716,11.715v5.37a2.6,2.6,0,1,1,0,5.205v4.555a2.6,2.6,0,1,1,0,5.207V191.3a2.6,2.6,0,1,1,0,5.206v4.556a2.6,2.6,0,1,1,0,5.206v4.556a2.6,2.6,0,1,1,0,5.207v4.556a2.6,2.6,0,1,1,0,5.207v4.556a2.6,2.6,0,1,1,0,5.205v5.369a11.715,11.715,0,0,1,11.716,11.715h165.3A11.716,11.716,0,0,1,619.1,240.927v-5.369a2.6,2.6,0,1,1,0-5.205V225.8a2.6,2.6,0,1,1,0-5.207v-4.556a2.6,2.6,0,1,1,0-5.207v-4.556a2.6,2.6,0,1,1,0-5.206v-4.556a2.6,2.6,0,1,1,0-5.206v-4.556a2.6,2.6,0,1,1,0-5.207v-4.555a2.6,2.6,0,1,1,0-5.205Z" transform="translate(-429.099 -153.433)" fill="#898679"/>
    <g id="Group_13766" data-name="Group 13766" transform="translate(0 0)">
      <path id="Path_32082" data-name="Path 32082" d="M617.1,169.78v-5.37a11.716,11.716,0,0,1-11.716-11.715h-165.3a11.715,11.715,0,0,1-11.716,11.715v5.37a2.6,2.6,0,1,1,0,5.205v4.555a2.6,2.6,0,1,1,0,5.207V189.3a2.6,2.6,0,1,1,0,5.206v4.556a2.6,2.6,0,1,1,0,5.206v4.556a2.6,2.6,0,1,1,0,5.207v4.556a2.6,2.6,0,1,1,0,5.207v4.556a2.6,2.6,0,1,1,0,5.205v5.369a11.715,11.715,0,0,1,11.716,11.715h165.3A11.716,11.716,0,0,1,617.1,238.927v-5.369a2.6,2.6,0,1,1,0-5.205V223.8a2.6,2.6,0,1,1,0-5.207v-4.556a2.6,2.6,0,1,1,0-5.207v-4.556a2.6,2.6,0,1,1,0-5.206v-4.556a2.6,2.6,0,1,1,0-5.206v-4.556a2.6,2.6,0,1,1,0-5.207v-4.555a2.6,2.6,0,1,1,0-5.205Z" transform="translate(-428.361 -152.695)" fill="#ff9100"/>
      <g id="Group_13759" data-name="Group 13759" transform="translate(11.89 7.894)">
        <path id="Path_32083" data-name="Path 32083" d="M612.159,247.361H447.2V165.2h164.96ZM448.91,245.649H610.446V166.914H448.91Z" transform="translate(-447.199 -165.202)" fill="#b86900"/>
      </g>
      <rect id="Rectangle_1466" data-name="Rectangle 1466" width="141.24" height="17.799" transform="translate(23.749 66.686)" fill="#b86900"/>
      <g id="Group_13765" data-name="Group 13765" transform="translate(32.927 69.534)">
        <text id="_1_milion" data-name="1 milion" transform="translate(60.083 11)" fill="#c3ead9" font-size="12" font-family="BebasNeue, Bebas Neue"><tspan x="-15" y="0">1 milion</tspan></text>
        <g id="Group_13764" data-name="Group 13764" transform="translate(0 2.558)">
          <g id="Group_13762" data-name="Group 13762">
            <path id="Path_32086" data-name="Path 32086" d="M519.457,266.914l1.135,2.3,2.537.37-1.836,1.789.433,2.528-2.269-1.193-2.27,1.193.433-2.528-1.837-1.789,2.538-.37Z" transform="translate(-493.532 -266.914)" fill="#c3ead9"/>
            <path id="Path_32087" data-name="Path 32087" d="M501.831,266.914l1.134,2.3,2.537.37-1.837,1.789.434,2.528-2.268-1.193L499.56,273.9l.433-2.528-1.837-1.789,2.539-.37Z" transform="translate(-487.031 -266.914)" fill="#c3ead9"/>
            <path id="Path_32088" data-name="Path 32088" d="M484.2,266.914l1.134,2.3,2.537.37-1.837,1.789.434,2.528-2.268-1.193-2.271,1.193.432-2.528-1.836-1.789,2.538-.37Z" transform="translate(-480.529 -266.914)" fill="#c3ead9"/>
          </g>
          <g id="Group_13763" data-name="Group 13763" transform="translate(93.284)">
            <path id="Path_32089" data-name="Path 32089" d="M667.252,266.914l1.137,2.3,2.537.37-1.837,1.789.434,2.528-2.271-1.193-2.268,1.193.433-2.528-1.838-1.789,2.539-.37Z" transform="translate(-641.327 -266.914)" fill="#c3ead9"/>
            <path id="Path_32090" data-name="Path 32090" d="M649.625,266.914l1.137,2.3,2.536.37-1.836,1.789.434,2.528-2.271-1.193-2.268,1.193.431-2.528-1.836-1.789,2.538-.37Z" transform="translate(-634.826 -266.914)" fill="#c3ead9"/>
            <path id="Path_32091" data-name="Path 32091" d="M632,266.914l1.134,2.3,2.537.37-1.837,1.789.435,2.528L632,272.707l-2.271,1.193.433-2.528-1.837-1.789,2.54-.37Z" transform="translate(-628.324 -266.914)" fill="#c3ead9"/>
          </g>
        </g>
      </g>
    </g>
    <text id="_1_میلیون_تومان" data-name="1 میلیون تومان" transform="translate(94.808 40.056)" fill="#e3e9fd" font-size="27" font-family="YekanBakhFaNum-Heavy, Yekan Bakh FaNum" font-weight="800"><tspan x="-70" y="0">1 </tspan><tspan y="0">میلیون تومان</tspan></text>
  </g>
</svg>
