<svg xmlns="http://www.w3.org/2000/svg" width="300.001" height="485.067" viewBox="0 0 300.001 485.067">
  <g id="_4678623" data-name="4678623" transform="translate(330.763 -20.992) rotate(90)">
    <g id="Group_14664" data-name="Group 14664" transform="translate(33.173 39.313)">
      <g id="Group_14655" data-name="Group 14655" transform="translate(250.253 0)">
        <path id="Path_33022" data-name="Path 33022" d="M407.273,45.463c-5.129-1.533-7.429,6.308-2.417,8.136,5.778,1.887,8.431-6.9,2.417-8.136" transform="translate(-402.062 -45.265)" fill="#d642b4"/>
      </g>
      <g id="Group_14656" data-name="Group 14656" transform="translate(4.331 163.111)">
        <path id="Path_33023" data-name="Path 33023" d="M52.413,283.094c-3.95-1.179-5.719,4.835-1.828,6.249,4.363,1.415,6.426-5.306,1.828-6.249" transform="translate(-48.408 -282.942)" fill="#ad5ddd"/>
      </g>
      <g id="Group_14657" data-name="Group 14657" transform="translate(425.143 148.906)">
        <path id="Path_33024" data-name="Path 33024" d="M654.113,262.394c-3.95-1.179-5.719,4.835-1.828,6.249,4.363,1.474,6.426-5.306,1.828-6.249" transform="translate(-650.109 -262.242)" fill="#31b7de"/>
      </g>
      <g id="Group_14658" data-name="Group 14658" transform="translate(441.859 275.867)">
        <path id="Path_33025" data-name="Path 33025" d="M683.673,446.963c-5.129-1.533-7.429,6.308-2.417,8.136,5.778,1.887,8.431-6.9,2.417-8.136" transform="translate(-678.462 -446.765)" fill="#de80d7"/>
      </g>
      <g id="Group_14659" data-name="Group 14659" transform="translate(0 61.288)">
        <path id="Path_33026" data-name="Path 33026" d="M46.273,134.663c-5.129-1.533-7.429,6.308-2.417,8.136,5.778,1.887,8.431-6.839,2.417-8.136" transform="translate(-41.062 -134.465)" fill="#dc911b"/>
      </g>
      <g id="Group_14660" data-name="Group 14660" transform="translate(260.198 262.411)">
        <path id="Path_33027" data-name="Path 33027" d="M420.713,424.094c-3.95-1.179-5.719,4.835-1.828,6.25,4.363,1.415,6.426-5.306,1.828-6.25" transform="translate(-416.708 -423.942)" fill="#dc911b"/>
      </g>
      <g id="Group_14661" data-name="Group 14661" transform="translate(92.336 251.989)">
        <path id="Path_33028" data-name="Path 33028" d="M179.473,406.463c-5.129-1.533-7.429,6.308-2.417,8.136,5.719,1.887,8.431-6.9,2.417-8.136" transform="translate(-174.262 -406.265)" fill="#ad5ddd"/>
      </g>
      <g id="Group_14662" data-name="Group 14662" transform="translate(420.753 55.38)">
        <path id="Path_33029" data-name="Path 33029" d="M647.873,126.063c-5.129-1.533-7.429,6.308-2.417,8.136,5.778,1.887,8.431-6.839,2.417-8.136" transform="translate(-642.662 -125.865)" fill="#31b7de"/>
      </g>
      <g id="Group_14663" data-name="Group 14663" transform="translate(101.993 54.886)">
        <path id="Path_33030" data-name="Path 33030" d="M192.313,125.394c-3.95-1.179-5.719,4.835-1.828,6.249,4.422,1.474,6.426-5.247,1.828-6.249" transform="translate(-188.309 -125.242)" fill="#ecc038"/>
      </g>
    </g>
    <g id="Group_14695" data-name="Group 14695" transform="translate(21.839 30.762)">
      <g id="Group_14665" data-name="Group 14665" transform="translate(402.783 6.639)">
        <path id="Path_33031" data-name="Path 33031" d="M595.814,42.127c-2.83-.825-4.068,3.478-1.3,4.481,3.125,1,4.6-3.773,1.3-4.481" transform="translate(-592.961 -42.023)" fill="#fff"/>
      </g>
      <g id="Group_14666" data-name="Group 14666" transform="translate(451.352 116.85)">
        <path id="Path_33032" data-name="Path 33032" d="M677.615,202.843c-2.24-.649-3.243,2.771-1.061,3.537a1.854,1.854,0,1,0,1.061-3.537" transform="translate(-675.339 -202.762)" fill="#fff"/>
      </g>
      <g id="Group_14667" data-name="Group 14667" transform="translate(0 119.024)">
        <path id="Path_33033" data-name="Path 33033" d="M24.115,206.043c-2.24-.649-3.243,2.771-1.061,3.537a1.851,1.851,0,1,0,1.061-3.537" transform="translate(-21.839 -205.962)" fill="#fff"/>
      </g>
      <g id="Group_14668" data-name="Group 14668" transform="translate(43.405 1.922)">
        <path id="Path_33034" data-name="Path 33034" d="M98.314,34.127c-2.83-.825-4.068,3.478-1.3,4.481,3.125,1,4.6-3.773,1.3-4.481" transform="translate(-95.461 -34.023)" fill="#fff"/>
      </g>
      <g id="Group_14669" data-name="Group 14669" transform="translate(298.41)">
        <path id="Path_33035" data-name="Path 33035" d="M460.415,30.843c-2.24-.649-3.243,2.771-1.061,3.537a1.853,1.853,0,1,0,1.061-3.537" transform="translate(-458.139 -30.762)" fill="#fff"/>
      </g>
      <g id="Group_14670" data-name="Group 14670" transform="translate(195.066 291.078)">
        <path id="Path_33036" data-name="Path 33036" d="M309.315,458.143c-2.24-.648-3.243,2.771-1.061,3.537a1.854,1.854,0,1,0,1.061-3.537" transform="translate(-307.039 -458.062)" fill="#fff"/>
      </g>
      <g id="Group_14671" data-name="Group 14671" transform="translate(477.777 205.72)">
        <path id="Path_33037" data-name="Path 33037" d="M723.014,333.527c-2.83-.825-4.068,3.478-1.3,4.481,3.125,1.061,4.6-3.773,1.3-4.481" transform="translate(-720.161 -333.423)" fill="#fff"/>
      </g>
      <g id="Group_14672" data-name="Group 14672" transform="translate(67.628 146.621)">
        <path id="Path_33038" data-name="Path 33038" d="M138.288,246.751c-1.71-.531-2.476,2.122-.825,2.712,1.946.649,2.83-2.3.825-2.712" transform="translate(-136.546 -246.682)" fill="#fff"/>
      </g>
      <g id="Group_14673" data-name="Group 14673" transform="translate(332.526 291.349)">
        <path id="Path_33039" data-name="Path 33039" d="M510.714,458.627c-2.83-.825-4.068,3.478-1.3,4.481,3.125,1,4.6-3.773,1.3-4.481" transform="translate(-507.861 -458.523)" fill="#fff"/>
      </g>
      <g id="Group_14674" data-name="Group 14674" transform="translate(228.038 2.37)">
        <path id="Path_33040" data-name="Path 33040" d="M357.088,34.851c-1.71-.531-2.476,2.122-.825,2.712,1.946.649,2.83-2.3.825-2.712" transform="translate(-355.346 -34.782)" fill="#fff"/>
      </g>
      <g id="Group_14675" data-name="Group 14675" transform="translate(376.932 105.374)">
        <path id="Path_33041" data-name="Path 33041" d="M575.415,185.931c-2.535-.766-3.655,3.125-1.179,4.009,2.83.943,4.186-3.361,1.179-4.009" transform="translate(-572.85 -185.831)" fill="#fff"/>
      </g>
      <g id="Group_14676" data-name="Group 14676" transform="translate(164.149 221.759)">
        <path id="Path_33042" data-name="Path 33042" d="M264.614,357.127c-2.83-.825-4.068,3.478-1.3,4.481,3.125,1,4.6-3.773,1.3-4.481" transform="translate(-261.761 -357.023)" fill="#fff"/>
      </g>
      <g id="Group_14677" data-name="Group 14677" transform="translate(69.635 195.752)">
        <path id="Path_33043" data-name="Path 33043" d="M142.515,318.931c-2.535-.766-3.655,3.125-1.179,4.009,2.83.943,4.127-3.42,1.179-4.009" transform="translate(-139.95 -318.831)" fill="#fff"/>
      </g>
      <g id="Group_14678" data-name="Group 14678" transform="translate(465.573 18.431)">
        <path id="Path_33044" data-name="Path 33044" d="M702.314,62.127c-2.83-.825-4.068,3.478-1.3,4.481,3.125,1,4.6-3.773,1.3-4.481" transform="translate(-699.461 -62.023)" fill="#fff"/>
      </g>
      <g id="Group_14679" data-name="Group 14679" transform="translate(2.358 30.658)">
        <path id="Path_33045" data-name="Path 33045" d="M28.115,82.843c-2.24-.649-3.243,2.771-1.061,3.537a1.851,1.851,0,1,0,1.061-3.537" transform="translate(-25.839 -82.762)" fill="#fff"/>
      </g>
      <g id="Group_14680" data-name="Group 14680" transform="translate(423.347 291.785)">
        <path id="Path_33046" data-name="Path 33046" d="M630.115,459.343c-2.24-.649-3.243,2.771-1.061,3.537a1.851,1.851,0,1,0,1.061-3.537" transform="translate(-627.839 -459.262)" fill="#fff"/>
      </g>
      <g id="Group_14681" data-name="Group 14681" transform="translate(441.274 39.395)">
        <path id="Path_33047" data-name="Path 33047" d="M659.988,97.651c-1.71-.531-2.476,2.122-.825,2.712,1.946.649,2.83-2.3.825-2.712" transform="translate(-658.246 -97.582)" fill="#fff"/>
      </g>
      <g id="Group_14682" data-name="Group 14682" transform="translate(360.506 233.994)">
        <path id="Path_33048" data-name="Path 33048" d="M551.614,375.127c-2.83-.825-4.068,3.479-1.3,4.481,3.125,1,4.54-3.773,1.3-4.481" transform="translate(-548.761 -375.023)" fill="#fff"/>
      </g>
      <g id="Group_14683" data-name="Group 14683" transform="translate(441.211 228.944)">
        <path id="Path_33049" data-name="Path 33049" d="M660.416,367.843c-2.24-.649-3.243,2.771-1.061,3.537a1.854,1.854,0,1,0,1.061-3.537" transform="translate(-658.139 -367.762)" fill="#fff"/>
      </g>
      <g id="Group_14684" data-name="Group 14684" transform="translate(67.628 259.075)">
        <path id="Path_33050" data-name="Path 33050" d="M138.288,403.851c-1.71-.531-2.476,2.122-.825,2.712,1.946.649,2.83-2.3.825-2.712" transform="translate(-136.546 -403.782)" fill="#fff"/>
      </g>
      <g id="Group_14685" data-name="Group 14685" transform="translate(139.009 4.522)">
        <path id="Path_33051" data-name="Path 33051" d="M227.615,38.531c-2.535-.766-3.655,3.125-1.179,4.009,2.771.943,4.127-3.42,1.179-4.009" transform="translate(-225.05 -38.431)" fill="#fff"/>
      </g>
      <g id="Group_14686" data-name="Group 14686" transform="translate(478.181 251.293)">
        <path id="Path_33052" data-name="Path 33052" d="M722.588,390.651c-1.71-.531-2.476,2.122-.825,2.712,1.946.649,2.83-2.3.825-2.712" transform="translate(-720.846 -390.582)" fill="#fff"/>
      </g>
      <g id="Group_14687" data-name="Group 14687" transform="translate(33.606 296.207)">
        <path id="Path_33053" data-name="Path 33053" d="M81.115,466.843c-2.24-.649-3.243,2.771-1.061,3.6,2.476.825,3.655-3.007,1.061-3.6" transform="translate(-78.839 -466.762)" fill="#fff"/>
      </g>
      <g id="Group_14688" data-name="Group 14688" transform="translate(4.199 248.016)">
        <path id="Path_33054" data-name="Path 33054" d="M31.814,385.127c-2.83-.825-4.068,3.478-1.3,4.481,3.125,1,4.6-3.773,1.3-4.481" transform="translate(-28.961 -385.023)" fill="#fff"/>
      </g>
      <g id="Group_14689" data-name="Group 14689" transform="translate(242.534 221.589)">
        <path id="Path_33055" data-name="Path 33055" d="M378.288,357.151c-1.71-.531-2.476,2.122-.825,2.712,1.946.649,2.83-2.3.825-2.712" transform="translate(-376.546 -357.082)" fill="#fff"/>
      </g>
      <g id="Group_14690" data-name="Group 14690" transform="translate(345.097 61.196)">
        <path id="Path_33056" data-name="Path 33056" d="M528.288,120.951c-1.71-.531-2.476,2.122-.825,2.712a1.422,1.422,0,1,0,.825-2.712" transform="translate(-526.546 -120.882)" fill="#fff"/>
      </g>
      <g id="Group_14691" data-name="Group 14691" transform="translate(201.944 81.319)">
        <path id="Path_33057" data-name="Path 33057" d="M319.615,150.531c-2.535-.766-3.655,3.125-1.179,4.009,2.83.943,4.127-3.42,1.179-4.009" transform="translate(-317.05 -150.431)" fill="#fff"/>
      </g>
      <g id="Group_14692" data-name="Group 14692" transform="translate(251.833 32.025)">
        <path id="Path_33058" data-name="Path 33058" d="M391.888,85.151c-1.71-.531-2.476,2.122-.825,2.712,1.946.649,2.83-2.3.825-2.712" transform="translate(-390.146 -85.082)" fill="#fff"/>
      </g>
      <g id="Group_14693" data-name="Group 14693" transform="translate(290.533 270.749)">
        <path id="Path_33059" data-name="Path 33059" d="M448.488,423.651c-1.71-.531-2.476,2.122-.825,2.712,1.946.649,2.83-2.3.825-2.712" transform="translate(-446.746 -423.582)" fill="#fff"/>
      </g>
      <g id="Group_14694" data-name="Group 14694" transform="translate(76.236 65.338)">
        <path id="Path_33060" data-name="Path 33060" d="M152.888,127.051c-1.71-.531-2.476,2.122-.825,2.712,1.946.649,2.83-2.3.825-2.712" transform="translate(-151.146 -126.982)" fill="#fff"/>
      </g>
    </g>
    <g id="Group_14696" data-name="Group 14696" transform="translate(24.882 35.029)">
      <path id="Path_33061" data-name="Path 33061" d="M57,186a53.157,53.157,0,0,0,5.306,5.9" transform="translate(-39.313 -84.763)" fill="none" stroke="#d660cd" stroke-width="8"/>
      <path id="Path_33062" data-name="Path 33062" d="M422.927,111a24.346,24.346,0,0,0-4.127,6.485" transform="translate(-150.237 -67.961)" fill="none" stroke="#ad5ddd" stroke-width="8"/>
      <path id="Path_33063" data-name="Path 33063" d="M586,224a34.347,34.347,0,0,1,6.485,8.844" transform="translate(-190.363 -96.556)" fill="none" stroke="#de80d7" stroke-width="8"/>
      <path id="Path_33064" data-name="Path 33064" d="M694.485,107A69.464,69.464,0,0,1,688,118.2" transform="translate(-232.227 -59.657)" fill="none" stroke="#ad5ddd" stroke-width="8"/>
      <path id="Path_33065" data-name="Path 33065" d="M692,387c1.769,3.537,4.127,7.075,5.9,10.612" transform="translate(-233.868 -142.086)" fill="none" stroke="#ecc038" stroke-width="8"/>
      <path id="Path_33066" data-name="Path 33066" d="M562.5,427a34.2,34.2,0,0,1-5.9,7.075" transform="translate(-193.359 -158.503)" fill="none" stroke="#d642b4" stroke-width="8"/>
      <path id="Path_33067" data-name="Path 33067" d="M419,365a33.643,33.643,0,0,1,7.664,8.254" transform="translate(-149.97 -141.021)" fill="none" stroke="#31b7de" stroke-width="8"/>
      <path id="Path_33068" data-name="Path 33068" d="M286.717,402A63.892,63.892,0,0,0,282,413.2" transform="translate(-107.172 -148.242)" fill="none" stroke="#d660cd" stroke-width="8"/>
      <path id="Path_33069" data-name="Path 33069" d="M519,38a30.9,30.9,0,0,1,5.9,6.485" transform="translate(-181.548 -38)" fill="none" stroke="#d660cd" stroke-width="8"/>
      <path id="Path_33070" data-name="Path 33070" d="M286.627,129.4a53.906,53.906,0,0,0-4.127,8.254" transform="translate(-107.365 -66.795)" fill="none" stroke="#d642b4" stroke-width="8"/>
      <path id="Path_33071" data-name="Path 33071" d="M158,46a90.678,90.678,0,0,0,7.075,7.664" transform="translate(-68.113 -41.283)" fill="none" stroke="#31b7de" stroke-width="8"/>
      <path id="Path_33072" data-name="Path 33072" d="M143.717,280c-1.769,3.537-3.537,6.485-4.717,10.023" transform="translate(-72.968 -114.072)" fill="none" stroke="#dc911b" stroke-width="8"/>
      <path id="Path_33073" data-name="Path 33073" d="M148.5,447.5l5.306,8.844" transform="translate(-76.867 -166.917)" fill="none" stroke="#dc911b" stroke-width="8"/>
      <path id="Path_33074" data-name="Path 33074" d="M27,329a35.967,35.967,0,0,1,7.075,9.433" transform="translate(-27 -129.543)" fill="none" stroke="#de80d7" stroke-width="8"/>
      <path id="Path_33075" data-name="Path 33075" d="M711,206c2.948,3.537,4.717,7.075,7.075,10.612" transform="translate(-241.666 -90.77)" fill="none" stroke="#31b7de" stroke-width="8"/>
      <path id="Path_33076" data-name="Path 33076" d="M83.433,78c-2.358,4.127-6.485,6.485-9.433,9.433" transform="translate(-46.29 -54.417)" fill="none" stroke="#ecc038" stroke-width="8"/>
      <path id="Path_33077" data-name="Path 33077" d="M623,61a83.966,83.966,0,0,0,9.433,2.948" transform="translate(-205.549 -47.44)" fill="none" stroke="#dc911b" stroke-width="8"/>
      <path id="Path_33079" data-name="Path 33079" d="M153.9,359a34.2,34.2,0,0,1-5.9,7.075" transform="translate(-76.661 -139.279)" fill="none" stroke="#d642b4" stroke-width="8"/>
    </g>
    <g id="Group_14697" data-name="Group 14697" transform="translate(23.113 62.739)">
      <path id="Path_33080" data-name="Path 33080" d="M292,85l2.948,2.948" transform="translate(-108.592 -85)" fill="none" stroke="#de80d7" stroke-width="6"/>
      <path id="Path_33081" data-name="Path 33081" d="M714.179,156c-.59,1.179-.59,1.769-1.179,2.948" transform="translate(-240.719 -114.14)" fill="none" stroke="#dc911b" stroke-width="6"/>
      <path id="Path_33082" data-name="Path 33082" d="M594,399a10.351,10.351,0,0,0,2.948,2.358" transform="translate(-191.878 -174.721)" fill="none" stroke="#de80d7" stroke-width="6"/>
      <path id="Path_33083" data-name="Path 33083" d="M213.358,361c-.59,1.769-1.179,3.537-2.358,4.127" transform="translate(-91.05 -146.384)" fill="none" stroke="#ad5ddd" stroke-width="6"/>
      <path id="Path_33084" data-name="Path 33084" d="M106.948,208c-1.179,2.358-1.769,2.358-2.948,4.127" transform="translate(-56.834 -122.606)" fill="none" stroke="#ecc038" stroke-width="6"/>
      <path id="Path_33085" data-name="Path 33085" d="M532,149a12.862,12.862,0,0,0,2.358,2.948" transform="translate(-184.415 -111.267)" fill="none" stroke="#ad5ddd" stroke-width="6"/>
      <path id="Path_33086" data-name="Path 33086" d="M725.59,423a7.478,7.478,0,0,1-.59,3.537" transform="translate(-245.644 -184.571)" fill="none" stroke="#31b7de" stroke-width="6"/>
      <path id="Path_33087" data-name="Path 33087" d="M440.127,458A33.7,33.7,0,0,1,436,462.717" transform="translate(-153.932 -198.936)" fill="none" stroke="#d642b4" stroke-width="6"/>
      <path id="Path_33089" data-name="Path 33089" d="M72,375c0,1.769,1.179,2.948,2.358,4.127" transform="translate(-43.7 -173.665)" fill="none" stroke="#dc911b" stroke-width="6"/>
      <path id="Path_33090" data-name="Path 33090" d="M25.769,262A5.352,5.352,0,0,1,24,266.127" transform="translate(-24 -139.116)" fill="none" stroke="#31b7de" stroke-width="6"/>
      <path id="Path_33091" data-name="Path 33091" d="M166,93c1.179.59,1.769,1.769,2.948,2.948" transform="translate(-68.821 -88.283)" fill="none" stroke="#d642b4" stroke-width="6"/>
      <path id="Path_33092" data-name="Path 33092" d="M397.09,145a11.493,11.493,0,0,1-.59,4.717" transform="translate(-141.778 -109.626)" fill="none" stroke="#31b7de" stroke-width="6"/>
      <path id="Path_33093" data-name="Path 33093" d="M612,96c.59.59,1.769,1.179,2.358,1.769" transform="translate(-199.266 -89.515)" fill="none" stroke="#d642b4" stroke-width="6"/>
    </g>
    <g id="Group_14698" data-name="Group 14698" transform="translate(27.063 35.442)">
      <path id="Path_33094" data-name="Path 33094" d="M527.466,86c-.413.766-.413,1.592-.766,2.358" transform="translate(-187.055 -58.113)" fill="none" stroke="#d642b4" stroke-width="3"/>
      <path id="Path_33095" data-name="Path 33095" d="M197.3,456.7c.766.766,1.179,1.946,1.946,2.771" transform="translate(-83.172 -171.105)" fill="none" stroke="#d642b4" stroke-width="3"/>
      <path id="Path_33096" data-name="Path 33096" d="M88.892,154.7a27.484,27.484,0,0,1-1.592,5.483" transform="translate(-53.93 -75.323)" fill="none" stroke="#31b7de" stroke-width="3"/>
      <path id="Path_33097" data-name="Path 33097" d="M590.7,454a25.485,25.485,0,0,1,1.179,3.95" transform="translate(-194.474 -169.997)" fill="none" stroke="#31b7de" stroke-width="3"/>
      <path id="Path_33098" data-name="Path 33098" d="M724.892,285.3a17.3,17.3,0,0,1-1.592,4.3" transform="translate(-248.896 -116.668)" fill="none" stroke="#ecc038" stroke-width="3"/>
      <path id="Path_33099" data-name="Path 33099" d="M30.7,443.3a28.516,28.516,0,0,1,1.592,5.129" transform="translate(-30.7 -165.606)" fill="none" stroke="#ecc038" stroke-width="3"/>
      <path id="Path_33100" data-name="Path 33100" d="M53.3,48.7a18.3,18.3,0,0,1,2.771,3.125" transform="translate(-39.976 -42.804)" fill="none" stroke="#dc911b" stroke-width="3"/>
      <path id="Path_33101" data-name="Path 33101" d="M469.3,400.7c.413,1.592.766,3.125,1.179,4.717" transform="translate(-168.918 -148.122)" fill="none" stroke="#dc911b" stroke-width="3"/>
      <path id="Path_33102" data-name="Path 33102" d="M645.658,305.3c-.766,1.592-1.592,2.771-2.358,4.3" transform="translate(-216.062 -122.992)" fill="none" stroke="#de80d7" stroke-width="3"/>
      <path id="Path_33103" data-name="Path 33103" d="M667.3,38.7c.766,1.592,1.592,3.537,2.358,5.483" transform="translate(-225.912 -38.7)" fill="none" stroke="#de80d7" stroke-width="3"/>
      <path id="Path_33104" data-name="Path 33104" d="M300.192,48a11.34,11.34,0,0,1-1.592,3.95" transform="translate(-115.099 -42.517)" fill="none" stroke="#d660cd" stroke-width="3"/>
      <path id="Path_33105" data-name="Path 33105" d="M660.7,169.3a23.684,23.684,0,0,1,5.483,3.125" transform="translate(-223.204 -80.051)" fill="none" stroke="#d660cd" stroke-width="3"/>
      <path id="Path_33106" data-name="Path 33106" d="M396.479,384c-.413,1.946-1.179,3.537-1.179,5.129" transform="translate(-145.598 -141.267)" fill="none" stroke="#d660cd" stroke-width="3"/>
      <path id="Path_33107" data-name="Path 33107" d="M188,178.7c1.179,1.592,1.946,3.125,3.125,4.717" transform="translate(-80.199 -82.942)" fill="none" stroke="#d660cd" stroke-width="3"/>
      <path id="Path_33108" data-name="Path 33108" d="M185.537,267.3A8.813,8.813,0,0,0,182,270.425" transform="translate(-78.296 -111.08)" fill="none" stroke="#31b7de" stroke-width="3"/>
    </g>
    <g id="Group_14729" data-name="Group 14729" transform="translate(39.032 38.424)">
      <g id="Group_14700" data-name="Group 14700" transform="translate(34.362 28.768)">
        <g id="Group_14699" data-name="Group 14699">
          <path id="Path_33109" data-name="Path 33109" d="M123.207,92.7a25.664,25.664,0,0,0-6.249,6.367,47.922,47.922,0,0,0-5.483,9.728,24.409,24.409,0,0,0-2.181,10.2,11.227,11.227,0,0,0,1,4.363,13.038,13.038,0,0,0,3.3,4.6c2.476,2.122,5.719,2.417,8.785,1.71,2.83-.59,5.542-1.828,8.372-2.181a3.894,3.894,0,0,1,1.651,0c.118,0,.295.059.413.059.177.059-.118,0-.118,0,.059,0,.177.059.236.059a1.093,1.093,0,0,0,.413.118c.236.059-.295-.118-.059-.059.118.059.177.118.295.118.236.118.236.177,0,0a1.792,1.792,0,0,0,.413.295c-.413-.295.118.059.236.177.413.354.059.059,0,0a.814.814,0,0,0,.236.177c.059.118.177.177.236.295-.354-.295-.059-.059,0,.059,0,.059.059.059.059.118.118.177-.118-.295-.059-.118a.838.838,0,0,1,.118.354c.118.295,0-.177,0,.059,0,.118.059.236.059.354v.413a4.294,4.294,0,0,1-.413,1.415c-.059.118,0,0,0-.059-.059.059-.059.118-.118.177l-.177.354c-.177.295-.295.531-.472.825a15.092,15.092,0,0,1-1.179,1.533c-1.887,2.24-4.068,4.245-6.073,6.367-1.828,1.946-3.832,4.068-4.658,6.662a6.8,6.8,0,0,0,1.946,7.016,10.7,10.7,0,0,0,7.841,2.417,17.054,17.054,0,0,0,7.311-2.064c1.592-.884,3.537-2.358,3.361-4.363-.118-1.651-1.533-2.712-2.889-3.42a8.72,8.72,0,0,0-4.717-.943,10.425,10.425,0,0,0-7.193,4.6,13.294,13.294,0,0,0-2.24,9.61,15.91,15.91,0,0,0,6.308,10.082c2.594,1.828,5.66,2.653,8.726,3.537.649.177,1.356.413,2,.649.177.059.295.118.472.177s.472.177.118.059a7.039,7.039,0,0,1,.943.472,3.385,3.385,0,0,1,.413.236c.354.236-.177-.177.059.059.118.059.236.177.354.236.118.118.472.472.177.118.118.118.236.177.295.295.118.118.295.354.059.059a1.233,1.233,0,0,1,.236.354c.059.059.354.59.177.236a8.311,8.311,0,0,1,.766,4.186,2.236,2.236,0,0,0,1.356,2c.413.236,1.828.531,1.828-.354a10.54,10.54,0,0,0-1.179-6.014,9.37,9.37,0,0,0-3.832-3.6c-2.948-1.651-6.367-2.122-9.492-3.3-.295-.118-.059,0,0,0-.118-.059-.177-.059-.295-.118-.177-.118-.413-.177-.59-.295a2.39,2.39,0,0,1-.531-.295,1.289,1.289,0,0,1-.295-.177c-.059,0-.413-.236-.177-.118a2.7,2.7,0,0,1-.354-.236c-.177-.118-.354-.295-.531-.413-.059-.059-.295-.236,0,.059-.059-.059-.177-.118-.236-.177l-.707-.707a11.261,11.261,0,0,1-2.83-5.365,11.757,11.757,0,0,1,2.771-10.2,8.92,8.92,0,0,1,4.3-2.712,4.149,4.149,0,0,1,2.24-.059c-.354-.059.295.059.413.118.059,0,.177.059.236.059.413.118-.295-.177.118.059.236.118.413.236.649.354-.413-.236.236.177.354.236a6.724,6.724,0,0,0-.649-.649c.059.059.059.118.118.177,0,0-.177-.354-.118-.177,0,.059.059.118.059.177,0,.177,0-.354-.059-.118a.748.748,0,0,0,.059.354c-.059-.295,0-.118,0,.059a.838.838,0,0,1-.118.354c-.059.295.118-.118-.059.118a6.175,6.175,0,0,1-.472.649c-.118.118-.177.236-.295.295l-.177.177c-.118.118.236-.177,0,0a4.186,4.186,0,0,1-.825.59,13.038,13.038,0,0,1-2,1.061,14.33,14.33,0,0,1-2.24.766,17.5,17.5,0,0,1-2.535.413c-.177,0-.354.059-.59.059h-.354a9.993,9.993,0,0,1-1.3-.059c-.177,0-.354-.059-.531-.059-.118,0-.236-.059-.354-.059.059,0,.354.118.059,0l-.531-.177c-.059,0-.118-.059-.236-.059-.413-.118,0,0-.059,0a1.478,1.478,0,0,1-.413-.236c-.118-.059-.177-.118-.295-.177,0,0,.354.295.177.118a1.792,1.792,0,0,0-.413-.295c.472.295.059,0-.118-.177-.236-.236.177.295-.059-.118-.059-.118-.295-.59-.118-.177-.059-.177-.177-.354-.236-.531,0-.059-.059-.118-.059-.236-.059-.236,0,.177-.059-.177a6.5,6.5,0,0,1-.118-1.061c0-.354-.059.059,0-.295a2.1,2.1,0,0,1,.118-.59,6.389,6.389,0,0,1,.766-1.946c1.887-3.361,5.011-6.014,7.664-8.785,2.064-2.122,5.129-5.07,4.776-8.372a4.393,4.393,0,0,0-.884-2.24,7.027,7.027,0,0,0-.884-1.061c-.177-.177-.884-.766-.413-.354-.295-.236-.59-.531-.884-.766a8.294,8.294,0,0,0-5.837-1.533c-3.832.354-7.311,2.358-11.143,2.594h-.472a2.006,2.006,0,0,1-.59-.059,2.553,2.553,0,0,1-.295-.059c-.413-.059.177.059-.059,0l-.707-.177c-.413-.118.236.118,0,0-.118-.059-.177-.118-.295-.118a.447.447,0,0,0-.236-.118c-.413-.177.295.236-.059-.059-.118-.059-.531-.413-.354-.295.236.177-.118-.118-.118-.118a1.563,1.563,0,0,1-.295-.354c-.354-.354.118.177-.059-.059-.059-.118-.177-.236-.236-.354a3.343,3.343,0,0,1-.472-.766,7.894,7.894,0,0,1-.354-.707c-.295-.59.118.236-.118-.177l-.177-.354a6.985,6.985,0,0,1-.649-2.535c-.472-4.422,1.3-9.138,3.3-13.03a39.744,39.744,0,0,1,8.018-11.2,11.513,11.513,0,0,1,1.828-1.415c1.592-.707-1.12-3.184-2.3-2.417Z" transform="translate(-109.283 -92.553)" fill="#de80d7"/>
        </g>
      </g>
      <g id="Group_14702" data-name="Group 14702" transform="translate(381.841 179.412)">
        <g id="Group_14701" data-name="Group 14701">
          <path id="Path_33110" data-name="Path 33110" d="M600.16,281.918a18.782,18.782,0,0,0-3.6,4.481,58.854,58.854,0,0,0-3.6,6.9,77.2,77.2,0,0,0-5.542,17.216c-.884,4.776-1.533,10.435.648,14.975a9.447,9.447,0,0,0,5.011,4.658,12.788,12.788,0,0,0,7.723.177c-.413.059.236-.059.354-.059.118-.059.236-.059.354-.118.295-.118.531-.177.825-.295a13.965,13.965,0,0,0,2.063-1.12,24.733,24.733,0,0,0,4.127-3.3c2.122-2.122,4.893-5.424,4.068-8.726-.884-3.537-5.011-6.132-8.431-4.422-2.948,1.474-5.129,4.658-6.367,7.605a11.427,11.427,0,0,0-.236,8.49,9.423,9.423,0,0,0,5.07,5.247,39.242,39.242,0,0,0,6.308,2,21.679,21.679,0,0,1,2.771.884c.295.118-.472-.236-.059,0,.059.059.177.059.236.118a5.185,5.185,0,0,1,.59.354c.236.118-.413-.295-.059-.059.059.059.177.118.236.177a.814.814,0,0,0,.236.177c-.118-.059-.236-.295,0,0,.059.059.118.177.177.236.118.177.177.354,0,0a5.488,5.488,0,0,1,.295.59c.059.177.118.295,0,.059.059.118.059.236.118.354l.177.708c0,.118.059.236.059.413-.059-.295,0,.118,0,.177a5.072,5.072,0,0,1-.059.943,13.282,13.282,0,0,1-.354,2.122c-1,4.068-3.537,7.37-5.542,10.966-2.122,3.832-3.773,8.254-1.71,12.5a11.159,11.159,0,0,0,5.483,5.306,20.046,20.046,0,0,0,6.426,1.238c.531.059,1,.118,1.533.177a8.794,8.794,0,0,1,1.12.236c.236.059.472.177.708.236.059,0,.354.118.059,0l.354.177a7.673,7.673,0,0,1,.884.59,2.386,2.386,0,0,0,2.417.825,1.047,1.047,0,0,0,.177-1.769,11.58,11.58,0,0,0-6.308-3.066,56.127,56.127,0,0,1-5.719-.708,4.829,4.829,0,0,1-2.064-1,8.321,8.321,0,0,1-1.887-2.358,7.847,7.847,0,0,1-.531-5.424c.943-4.127,3.714-7.664,5.778-11.32,1.474-2.653,2.771-5.955,2.594-9.021a7.142,7.142,0,0,0-3.42-5.66,18.36,18.36,0,0,0-5.542-2c-.943-.236-1.946-.472-2.889-.766-.472-.177-.943-.295-1.415-.472-.118-.059-.236-.059-.295-.118.413.295.177.118,0,0a6.43,6.43,0,0,1-.648-.354c-.118-.059-.177-.118-.295-.177-.354-.236.295.236.059.059-.177-.177-.413-.295-.59-.472-.118-.059-.177-.177-.295-.236.236.177.177.236.059,0a4.134,4.134,0,0,1-.472-.59c-.236-.295.177.295-.059-.059-.059-.118-.118-.177-.177-.295l-.354-.707c-.118-.236.059.236-.059-.177-.059-.118-.059-.236-.118-.354-.059-.295-.177-.59-.236-.884a9.891,9.891,0,0,1,0-3.95,3.129,3.129,0,0,1,.177-.649,7.191,7.191,0,0,1,.413-1,13.633,13.633,0,0,1,1.061-2.064,16.124,16.124,0,0,1,2.889-3.714c.236-.236.531-.413.766-.649a2.068,2.068,0,0,1,.472-.295c.236-.118.118-.118.295-.177a5.186,5.186,0,0,1,.884-.295h.413c.295-.059-.177-.059,0,0,.236.059.354.118.059,0,.118.059.648.177.118,0a.447.447,0,0,1,.236.118s-.295-.236-.118-.118a.813.813,0,0,0,.236.177c.177.118-.177-.236.059.059a3.11,3.11,0,0,1,.59.825c.059.118.177.295.236.413.059.059.118.236,0,0,.059.118.059.177.118.295a1,1,0,0,1,.059.413h0v.236a5.809,5.809,0,0,1-.118,1,8.507,8.507,0,0,1-.708,1.769,19.815,19.815,0,0,1-6.9,6.9,10.736,10.736,0,0,1-1.592.884c-.236.118-.472.177-.708.295a.531.531,0,0,1-.295.059c.472-.118-.354.059-.472.118a.217.217,0,0,0-.177.059c.236-.059.059,0,0,0a1.465,1.465,0,0,1-.472.059c-.295.059-.649.059-.943.118-.236,0-.531.059-.766.059h-.531c-.236,0-.472-.059-.766-.059-.118,0-.236-.059-.354-.059a.216.216,0,0,1-.177-.059c-.295-.059.295.118.118.059-.236-.059-.413-.118-.649-.177-.118-.059-.177-.059-.295-.118h0a2.39,2.39,0,0,0-.531-.295c-.059,0,.413.295.118.059-.118-.059-.177-.177-.295-.236a.813.813,0,0,0-.236-.177c-.295-.236.177.177,0,.059a1.794,1.794,0,0,0-.472-.472c-.059-.059-.118-.177-.177-.236-.236-.236.177.236,0,0-.118-.177-.236-.413-.354-.59a2.754,2.754,0,0,1-.295-.59c-.059-.118-.059-.177-.118-.295-.118-.236,0,.059.059.118,0-.059-.059-.118-.059-.236a16.528,16.528,0,0,1-.707-2.948c-.059-.295-.059-.531-.118-.825s0,.118,0-.236v-.472c0-.59-.059-1.179,0-1.828a27.265,27.265,0,0,1,.295-3.832,68.358,68.358,0,0,1,4.422-16.331,50.41,50.41,0,0,1,6.78-12.676c.059-.059.118-.177.177-.236l.118-.118-.059.059a2.724,2.724,0,0,1,.413-.413,9.067,9.067,0,0,1,.766-.707c1.061-1.238-1.887-3.361-3.066-2.358Z" transform="translate(-586.6 -281.658)" fill="#dc911b"/>
        </g>
      </g>
      <g id="Group_14704" data-name="Group 14704" transform="translate(17.278 194.088)">
        <g id="Group_14703" data-name="Group 14703">
          <path id="Path_33111" data-name="Path 33111" d="M82.779,307.169c-1.12,6.249-2.948,12.676-2.358,19.1a18.736,18.736,0,0,0,2.712,8.313,12.386,12.386,0,0,0,4.893,4.009c.884.472,1.769.884,2.594,1.415a4.92,4.92,0,0,1,.707.472c.118.059.177.118.295.177-.354-.236,0,0,.059.059a16.8,16.8,0,0,1,1.533,1.356,13.76,13.76,0,0,1,2.476,2.889,4.581,4.581,0,0,1,.707,2.712,7.16,7.16,0,0,1-.59,2.594q-.619,1.592-1.415,3.184a27.251,27.251,0,0,0-2.476,8.608c-.707,7.252,2.712,13.619,6.957,19.279a3.2,3.2,0,0,0,2.889,1.179.975.975,0,0,0,.707-1.651c-3.537-4.776-6.544-10.023-6.426-16.154a22.478,22.478,0,0,1,2.064-8.549,28.179,28.179,0,0,0,2.358-6.073,8.15,8.15,0,0,0-1.828-6.485,22.692,22.692,0,0,0-6.426-5.66c-.825-.472-1.71-.884-2.535-1.356a9.539,9.539,0,0,1-1.061-.59l-.531-.354c.531.354-.177-.118-.295-.236-.059-.059-.472-.472-.354-.295.177.177-.236-.295-.295-.354a6.172,6.172,0,0,1-.472-.649,5.184,5.184,0,0,1-.354-.59,15.812,15.812,0,0,1-1.415-3.95,29.551,29.551,0,0,1,0-10.435c.472-3.478,1.3-6.9,1.887-10.318.177-1-.766-1.71-1.592-2-.413-.236-2.24-.59-2.417.354Z" transform="translate(-80.306 -306.55)" fill="#31b7de"/>
        </g>
      </g>
      <g id="Group_14706" data-name="Group 14706" transform="translate(364.118 29.11)">
        <g id="Group_14705" data-name="Group 14705">
          <path id="Path_33112" data-name="Path 33112" d="M561.351,93.88a22.437,22.437,0,0,0-4.068,8.844,23.7,23.7,0,0,0-.295,10.377A11.074,11.074,0,0,0,563,120.941c3.714,1.71,7.959,1.415,11.909,1.3,1,0,1.946-.059,2.948,0a2.871,2.871,0,0,1,.708.059h.295c-.118,0-.354-.059.059,0a11.811,11.811,0,0,1,1.415.236,10.146,10.146,0,0,1,4.717,2.594,11.707,11.707,0,0,1,2.889,4.776,21.456,21.456,0,0,1,.648,5.129c0,1.946,0,3.95.118,5.9a46.608,46.608,0,0,0,.707,5.011,50.133,50.133,0,0,0,2.122,9.256,21.094,21.094,0,0,0,4.658,7.9,21.9,21.9,0,0,0,9.256,5.542q1.68.531,3.361.884a3.7,3.7,0,0,0,2.948-.649c.708-.766-.295-1.179-.943-1.356a21.415,21.415,0,0,1-9.492-4.481,18.336,18.336,0,0,1-4.952-7.134,41.018,41.018,0,0,1-2.3-8.785q-.442-2.388-.707-4.776a36.793,36.793,0,0,1-.354-5.719c0-3.478-.059-6.957-1.887-10.082a13.343,13.343,0,0,0-10.141-6.308,34.722,34.722,0,0,0-6.073-.118c-.943.059-1.887.059-2.83.059h-1.356a2.871,2.871,0,0,1-.708-.059c-.118,0-.825-.059-.472-.059a13.513,13.513,0,0,1-2.417-.472,10.391,10.391,0,0,1-2.3-1.12,9.091,9.091,0,0,1-2.712-3.42,17.8,17.8,0,0,1-1.061-9.61,24.809,24.809,0,0,1,3.066-9.315,18.652,18.652,0,0,1,1.061-1.592c.59-.766-.236-1.238-.943-1.356a3.653,3.653,0,0,0-2.889.708Z" transform="translate(-556.54 -93.132)" fill="#ecc038"/>
        </g>
      </g>
      <g id="Group_14708" data-name="Group 14708" transform="translate(189.133)">
        <g id="Group_14707" data-name="Group 14707">
          <path id="Path_33113" data-name="Path 33113" d="M332.485,43.783c-2.948.766-5.542,3.125-7.429,5.424-1.946,2.417-3.655,5.542-3.125,8.726a10.393,10.393,0,0,0,2.181,4.422A13.96,13.96,0,0,0,328,65.892a11.2,11.2,0,0,0,7.723,1.651,7.086,7.086,0,0,0,5.188-3.42,5.966,5.966,0,0,0,.648-3.184,6.74,6.74,0,0,0-.413-1.887,4.2,4.2,0,0,0-2.712-2.476,8.141,8.141,0,0,0-9.138,2.417,14.939,14.939,0,0,0-3.243,9.492,12.383,12.383,0,0,0,4.245,9.787,9.688,9.688,0,0,0,5.542,2.3,14.91,14.91,0,0,0,6.6-1.356,16.712,16.712,0,0,0,3.655-1.946,1.9,1.9,0,0,0,.825-1.474,3.715,3.715,0,0,0-1.592-2.594,7.1,7.1,0,0,0-2.653-1.533,7.485,7.485,0,0,0-5.424.295,7.946,7.946,0,0,0-4.009,5.542,13.467,13.467,0,0,0,1.828,10.612c2.064,3.125,5.6,5.6,9.492,5.424a10.757,10.757,0,0,0,5.306-1.946c.707-.472-1.769-3.066-2.771-2.417a8.407,8.407,0,0,1-6.662,1.592,3.532,3.532,0,0,1-1.179-.472,1.289,1.289,0,0,1-.295-.177c.059.059.236.118-.059-.059-.118-.059-.177-.118-.295-.177.295.236-.177-.118-.177-.118a6.933,6.933,0,0,1-1.474-1.946A11.472,11.472,0,0,1,335.9,81.1a9.33,9.33,0,0,1,1.828-4.776,5.914,5.914,0,0,1,3.007-2.064,6.017,6.017,0,0,1,3.066-.118c-.354-.059.059,0,.118.059.118.059.236.059.354.118s.354.236,0,0a1.289,1.289,0,0,1,.295.177c.236.118-.413-.295-.118-.059.177.118-.413-.354-.118-.118.236.177-.354-.354-.177-.177.059.059.177.118-.059-.059l-.059-.059c.177.236-.177-.295-.118-.177.118.236,0-.059,0-.059.059.118,0,.295,0,0a.874.874,0,0,1-.059.413c.059-.177-.118.177-.177.295a1.589,1.589,0,0,1-.472.413,17.693,17.693,0,0,1-4.776,2.24,13.773,13.773,0,0,1-3.891.766,8.419,8.419,0,0,1-1.71-.177c-.059,0-.531-.118-.177-.059-.118-.059-.236-.059-.354-.118s-.236-.059-.354-.118c-.177-.059-.472-.236-.118-.059a6.432,6.432,0,0,0-.649-.354c.118.059.295.236,0,0-.059-.059-.118-.059-.118-.118-.295-.177.177.059.118.118,0,0-.236-.177-.236-.236-.354-.295.059.059.059.059-.059.059-.707-.884-.236-.236-.118-.177-.295-.413-.413-.59-.236-.295.059.177,0,0l-.177-.354c-.118-.177-.177-.413-.295-.59l-.059-.118a1.093,1.093,0,0,1-.118-.413,13.764,13.764,0,0,1-.413-1.474,3.45,3.45,0,0,1-.118-.766,2.644,2.644,0,0,1-.059-.649,16.6,16.6,0,0,1,.884-6.544,11.073,11.073,0,0,1,3.42-4.952,6.7,6.7,0,0,1,5.424-1.356c.118,0,.295.059.413.059.059,0,.236.059,0,0,.059,0,.118.059.177.059.295.118.59.177.884.295-.707-.649-1.415-1.356-2.064-2a5.228,5.228,0,0,1-1.179,5.955,7.829,7.829,0,0,1-6.191,1.769,7.464,7.464,0,0,1-1.651-.354c-.177-.059-.295-.118-.472-.177-.059,0-.118-.059-.177-.059,0,0,.177.118.059,0a.95.95,0,0,1-.413-.236c-.118-.059-.531-.354-.236-.118-.118-.118-.295-.177-.413-.295-.059-.059-.118-.059-.177-.118,0,0,.236.236.118.059a2.564,2.564,0,0,0-.413-.354s-.236-.177-.059-.059l-.177-.177a1.563,1.563,0,0,1-.295-.354h0l-.177-.177c-.236-.354-.413-.59-.59-.825a5.871,5.871,0,0,1-.884-4.068,11.56,11.56,0,0,1,1.887-4.481,19.222,19.222,0,0,1,3.891-4.3,11.575,11.575,0,0,1,4.3-2.417c.707-.177-.177-1.3-.354-1.533-.531-.472-1.415-1.3-2.181-1.12Z" transform="translate(-321.834 -43.759)" fill="#dc911b"/>
        </g>
      </g>
      <g id="Group_14710" data-name="Group 14710" transform="translate(197.534 232.381)">
        <g id="Group_14709" data-name="Group 14709">
          <path id="Path_33114" data-name="Path 33114" d="M343.6,372.443a51.333,51.333,0,0,0-6.544,8.962c-1.828,3.243-3.478,6.957-3.184,10.789a7.6,7.6,0,0,0,5.365,7.016c3.361.884,7.134,0,10.2-1.415,2.122-1,5.07-2.83,5.247-5.424a3.072,3.072,0,0,0-1.356-2.771,5.448,5.448,0,0,0-4.186-.531,15.2,15.2,0,0,0-8.9,5.955c-1.946,2.594-3.479,5.837-2.181,9.079a11.378,11.378,0,0,0,6.957,6.426,10.853,10.853,0,0,0,10.671-2.417,11.357,11.357,0,0,0,1.769-2.3c.118-.236-.177-.354-.295-.472-6.308-2.712-14.268,3.007-13.737,9.787a8.363,8.363,0,0,0,3.537,6.014,47.149,47.149,0,0,0,6.191,3.184,10.549,10.549,0,0,1,5.6,5.778c.354.943,3.714-.118,3.42-.943a10.765,10.765,0,0,0-4.245-5.188c-1.828-1.179-3.832-1.946-5.778-2.948a9.564,9.564,0,0,1-4.481-4.009,8.16,8.16,0,0,1,.354-7.723,7.254,7.254,0,0,1,3.066-2.889,1.409,1.409,0,0,1,.531-.177c.118,0,.354-.059.649-.059a5.129,5.129,0,0,1,2.122.531c-.118-.177-.177-.295-.295-.472a10.046,10.046,0,0,1-1.533,2,3.784,3.784,0,0,1-.766.59c-.177.118-.059.059-.236.118-.059.059-.59.295-.295.177-.118.059-.295.118-.413.177.295-.118,0,0-.118,0,.354-.059-.118,0-.236,0h-1a6.512,6.512,0,0,1-.943-.177,10.311,10.311,0,0,1-6.485-5.011,6.992,6.992,0,0,1-1-3.891,9.616,9.616,0,0,1,1.415-4.009,14.643,14.643,0,0,1,2.83-3.478,11.4,11.4,0,0,1,1.651-1.3,5.161,5.161,0,0,1,.707-.413,3.382,3.382,0,0,0,.413-.236c.118-.059.59-.236.295-.118a2.871,2.871,0,0,1,.413-.177c.295-.118-.295.059.118-.059.354-.118-.059,0,.059,0,.177,0,.472-.059.118,0h.177a.748.748,0,0,1,.354.059h0a.217.217,0,0,1,.177.059c.118.059.236.059.295.118a2.82,2.82,0,0,1,1.474,2.122,3.442,3.442,0,0,1-.884,2.24,8.145,8.145,0,0,1-2.476,1.887,2.874,2.874,0,0,1-.413.177c-.118.059-.413.177-.118.059-.295.118-.649.236-.943.354s.236-.059-.177.059c-.118.059-.295.059-.413.118-.177.059-.354.059-.531.118.354-.059-.059,0-.177.059-.177,0-.354.059-.531.059-.295.059.177,0-.177,0h-.766a5.451,5.451,0,0,1-1.71-.236c-2.712-.766-4.3-3.42-4.658-6.073-.413-3.243.884-6.6,2.358-9.433a44.742,44.742,0,0,1,5.719-8.372c.472-.531.884-1.061,1.356-1.592.531-.59-.472-.708-.825-.708a4.018,4.018,0,0,0-2.594.943Z" transform="translate(-333.842 -371.5)" fill="#de80d7"/>
        </g>
      </g>
      <g id="Group_14712" data-name="Group 14712" transform="translate(119.385 2.31)">
        <g id="Group_14711" data-name="Group 14711">
          <path id="Path_33115" data-name="Path 33115" d="M242.147,48.575a12.155,12.155,0,0,1-2.122,7.193,17.527,17.527,0,0,1-5.247,4.481c-3.95,2.476-8.608,4.54-10.966,8.785-1.592,2.83-1.651,6.249-1.12,9.374a1.819,1.819,0,0,0,1.415,1.533,1.043,1.043,0,0,0,1.061-1.3,11.751,11.751,0,0,1,.766-7.664,10.192,10.192,0,0,1,.766-1.238l1.061-1.238a12.244,12.244,0,0,1,2.476-2c3.891-2.653,8.549-4.481,11.556-8.313a13.9,13.9,0,0,0,2.83-8.667,1.776,1.776,0,0,0-1.061-1.769,1,1,0,0,0-1.415.825Z" transform="translate(-222.391 -47.677)" fill="#ad5ddd"/>
        </g>
      </g>
      <g id="Group_14714" data-name="Group 14714" transform="translate(284.541 16.564)">
        <g id="Group_14713" data-name="Group 14713">
          <path id="Path_33116" data-name="Path 33116" d="M460.2,72.117c-1.3,2.771-2.122,5.955-1.179,8.962a15.908,15.908,0,0,0,6.191,7.841,52.279,52.279,0,0,0,7.606,4.068c1.3.59,2.594,1.179,3.891,1.887.059.059.118.059.236.118.354.177-.177-.118,0,0,.177.059.295.177.472.236.295.177.649.354.943.531s.531.354.766.472c.118.118.295.177.413.295.059.059.59.413.295.236-.236-.177.236.177.295.236a1.058,1.058,0,0,0,.413.295c.118.059.295.354.413.354-.295-.059-.354-.354-.118-.118l.177.177.177.177c.295.295-.059,0-.118-.118.118.118.236.295.354.413.413.472-.354-.472,0,0,.059.059.059.118.118.177.177.236,0,.236-.059-.118a2.069,2.069,0,0,0,.295.472c.059.059.059.118.118.177.177.354-.177-.413,0-.059a3.5,3.5,0,0,0,.236.472c.059.118.236.649.118.236a15.923,15.923,0,0,1,.472,2.3c.059.943,1.179,2.064,1.887,2.653.413.354,1.356,1,1.3,0-.59-6.662-6.721-11.084-12.2-13.8-1.3-.649-2.594-1.238-3.891-1.828-.649-.295-1.3-.59-1.946-.943-.295-.177-.59-.295-.884-.472-.177-.059-.295-.177-.472-.236.354.177-.177-.118-.236-.118a15.363,15.363,0,0,1-1.651-1c-.118-.118-.295-.177-.413-.295-.118-.059-.59-.413-.118-.059-.236-.177-.531-.413-.766-.59-.118-.059-.177-.177-.295-.295.531.295.236.236.059.059a1.563,1.563,0,0,1-.295-.354c.177.177.354.413,0,0s.118.177.059.118a1.835,1.835,0,0,0-.236-.354s.295.531.177.236c-.059-.059-.059-.118-.118-.177-.118-.177-.295-.649-.059-.059-.059-.177-.118-.295-.177-.472-.059-.118-.236-.59-.059-.177a5.52,5.52,0,0,1-.236-.943,7.063,7.063,0,0,1-.118-1.946,15.047,15.047,0,0,1,1.592-5.483c.118-.236-.295-.943-.354-1.12a6.585,6.585,0,0,0-1.12-1.415c-.531-.295-1.651-1.415-1.946-.649Z" transform="translate(-458.611 -71.853)" fill="#31b7de"/>
        </g>
      </g>
      <g id="Group_14716" data-name="Group 14716" transform="translate(428.365 151.695)">
        <g id="Group_14715" data-name="Group 14715">
          <path id="Path_33117" data-name="Path 33117" d="M685.2,262.624a33.2,33.2,0,0,1,.649,6.839,23.03,23.03,0,0,1-.295,2.83,14.809,14.809,0,0,1-.531,2.181,12.79,12.79,0,0,1-.884,2.064l-.531.884c-.236.354.059-.118-.177.236-.118.177-.236.295-.354.472a16.792,16.792,0,0,1-1.356,1.533l-.354.354-.118.118a10.274,10.274,0,0,1-.825.707,34.745,34.745,0,0,1-3.361,2.417c-.295.177-.531.354-.825.531-.236.177.118-.059.118-.059a.447.447,0,0,1-.236.118c-.295.177-.531.354-.825.531a16.212,16.212,0,0,0-1.651,1.12,20.481,20.481,0,0,0-6.073,5.837c-2.063,3.243-2.3,7.016-1.887,10.73.118.825,1.651.649,2.181.472a1.816,1.816,0,0,0,1.474-1.71,17.4,17.4,0,0,1,.059-5.247c.059-.354.177-.766.236-1.12,0-.059.059-.177.059-.236-.059.236,0,.059,0,0a2.873,2.873,0,0,1,.236-.649,10.448,10.448,0,0,1,.884-1.828c.059-.118.177-.295.236-.413.118-.177-.236.295,0,0,.059-.059.059-.118.118-.177a7.934,7.934,0,0,1,.648-.825c.177-.236.413-.472.59-.707l.354-.354.118-.118h0A29.6,29.6,0,0,1,676,286.738c.59-.413,1.12-.766,1.71-1.12.236-.177-.354.236.059-.059.236-.177.531-.295.766-.472.295-.177.59-.413.884-.59,1.12-.766,2.24-1.533,3.3-2.358a18.177,18.177,0,0,0,5.542-7.134c1.71-4.363,1.415-9.2.531-13.737-.177-.825-1.651-.649-2.181-.472-.648.413-1.592,1-1.415,1.828Z" transform="translate(-665.512 -260.648)" fill="#d642b4"/>
        </g>
      </g>
      <g id="Group_14718" data-name="Group 14718" transform="translate(300.364 241.388)">
        <g id="Group_14717" data-name="Group 14717">
          <path id="Path_33118" data-name="Path 33118" d="M500.187,386.909c.648,5.66-2,10.553-5.306,14.975-3.42,4.6-7.488,8.785-10.082,13.973a20.96,20.96,0,0,0-2.3,9.374c0,.236.354.649.472.766.295.354.708.708,1.061,1.061.118.118,1.3,1,1.3.59,0-6.014,3.007-11.2,6.544-15.8,3.361-4.422,7.429-8.549,9.728-13.737a16.7,16.7,0,0,0,1.415-8.785c-.059-.649-1.061-1.415-1.533-1.828-.118-.118-1.356-1.061-1.3-.59Z" transform="translate(-482.5 -386.778)" fill="#ad5ddd"/>
        </g>
      </g>
      <g id="Group_14720" data-name="Group 14720" transform="translate(0 130.252)">
        <g id="Group_14719" data-name="Group 14719">
          <path id="Path_33119" data-name="Path 33119" d="M51,234.1c0,2.712.943,5.306,3.6,6.367,2.476,1,5.306.825,7.9.707,1.3-.059,2.476-.118,3.714-.059a10.719,10.719,0,0,1,4.186,1.238c2.712,1.474,4.363,4.009,6.073,6.485a23.2,23.2,0,0,0,3.125,3.714,11.032,11.032,0,0,0,4.776,2.358,4.018,4.018,0,0,0,2.535-.766c.354-.236,1.12-.884.295-1.061-6.249-1.415-7.723-8.431-12.558-11.791a11.2,11.2,0,0,0-4.422-1.828,20.988,20.988,0,0,0-3.832-.118c-2.535.059-5.07.413-7.606-.236a5.514,5.514,0,0,1-3.007-1.828,7.434,7.434,0,0,1-1.238-4.6c0-.531-3.537.295-3.537,1.415Z" transform="translate(-51 -232.521)" fill="#d642b4"/>
        </g>
      </g>
      <g id="Group_14722" data-name="Group 14722" transform="translate(115.516 246.255)">
        <g id="Group_14721" data-name="Group 14721">
          <path id="Path_33120" data-name="Path 33120" d="M217.241,395.78a15.122,15.122,0,0,0,.531,9.551,13.849,13.849,0,0,0,5.483,5.719c2.122,1.356,4.422,2.417,6.544,3.714a8.729,8.729,0,0,0,.766.472c.059.059.531.354.236.177s.236.118.295.177a15.1,15.1,0,0,1,1.533,1.179l.354.354c.177.118-.236-.295-.118-.118l.177.177.707.707a3.784,3.784,0,0,1,.59.766c.236.295-.118-.236.118.177a3.272,3.272,0,0,0,.354.472,9.544,9.544,0,0,1,.59,1.061,5.478,5.478,0,0,1,.295.59c0,.059.118.236,0,0l.177.354a14.987,14.987,0,0,1,.766,2.653,23.314,23.314,0,0,1,.295,6.721c-.118,1.474,3.42,2.948,3.537,1.238a22.1,22.1,0,0,0-1.769-11.379,17.508,17.508,0,0,0-5.778-6.485c-2.24-1.533-4.658-2.712-6.957-4.068-.531-.295-1-.59-1.533-.943-.354-.236.413.295-.059,0-.118-.059-.236-.177-.354-.236l-.707-.531a5.874,5.874,0,0,1-.649-.59c.295.236.177.177,0,0l-.354-.354a6.26,6.26,0,0,1-.531-.649c-.236-.295.177.295-.059-.059-.118-.118-.177-.295-.295-.413a6.445,6.445,0,0,1-.472-.884c-.177-.354.059.177-.118-.236-.059-.177-.118-.295-.177-.472a7.129,7.129,0,0,1-.295-1.061c-.059-.177-.059-.354-.118-.531,0-.118-.059-.59-.059-.354a19.02,19.02,0,0,1,.472-5.778c.413-1.238-3.066-2.83-3.42-1.12Z" transform="translate(-216.724 -395.033)" fill="#ecc038"/>
        </g>
      </g>
      <g id="Group_14724" data-name="Group 14724" transform="translate(350.195 139.37)">
        <g id="Group_14723" data-name="Group 14723">
          <path id="Path_33121" data-name="Path 33121" d="M555.048,246.84c-.413,2.122-.648,4.54.295,6.544a6.1,6.1,0,0,0,3.184,3.007,39.539,39.539,0,0,0,4.422,1.592,7.98,7.98,0,0,1,3.655,2c1.474,1.533,1.592,3.773,1.415,5.719-.059.531,2,.354,2.24.354.413-.059,2.122-.118,2.122-.766a6.734,6.734,0,0,0-4.835-7.959c-2.653-1-5.955-1.3-7.547-3.891-1.238-2.064-1-4.776-.531-7.016.059-.472-4.245-.708-4.422.413Z" transform="translate(-554.687 -246.034)" fill="#ad5ddd"/>
        </g>
      </g>
      <g id="Group_14726" data-name="Group 14726" transform="translate(118.2 38.176)">
        <g id="Group_14725" data-name="Group 14725">
          <path id="Path_33122" data-name="Path 33122" d="M231.095,129.894a7.114,7.114,0,0,0-3.891,1.415,10.194,10.194,0,0,0-2.535,2.948c-1.356,2.122-2.24,4.54-4.3,6.073a7.53,7.53,0,0,1-4.6,1.356c-.943,0-.236,1.592-.059,1.946a2.919,2.919,0,0,0,2.24,1.71,9.189,9.189,0,0,0,4.481-1.12,9.757,9.757,0,0,0,2.83-2.771c1.415-2.064,2.3-4.481,4.068-6.191a6.665,6.665,0,0,1,3.95-1.71c.943-.059.236-1.592.059-1.946-.413-.707-1.3-1.828-2.24-1.71Z" transform="translate(-215.286 -129.885)" fill="#31b7de"/>
        </g>
      </g>
      <g id="Group_14728" data-name="Group 14728" transform="translate(169.357 214.001)">
        <g id="Group_14727" data-name="Group 14727">
          <path id="Path_33123" data-name="Path 33123" d="M298.373,358.564c-.177.118.236-.059.295-.118.177-.059.59-.177.177-.059.059,0,.472-.059.472-.059,0,.059-.472,0-.177,0h-.118c.531,0-.354-.059-.059,0s-.472-.177,0,0c.413.177-.177-.118.059,0a1.478,1.478,0,0,1,.413.236c.177.118-.236-.177-.059-.059.059.059.118.059.177.118.118.059.236.177.354.236.236.177.472.413.708.59a6.723,6.723,0,0,1,.649.649c.177.236.059.059.177.177s.236.295.354.413a18.82,18.82,0,0,0,2.594,2.712,7.2,7.2,0,0,0,4.835,1.533,8.167,8.167,0,0,0,5.424-2.476c.649-.59-1.179-1.179-1.474-1.179a3.263,3.263,0,0,0-2.771.413,8.862,8.862,0,0,1-1.946,1.356c-.177.118.236-.059,0,0-.059,0-.118.059-.236.059a.354.354,0,0,0-.236.059c-.177.118.354-.059.177-.059-.472.059.472,0,.059,0h.295c-.354,0,.177,0,.236.059-.472-.059.354.118.059,0-.413-.118.177.118,0,0l-.354-.177c-.177-.059.236.177-.118-.059a7.589,7.589,0,0,1-1.238-1.12c-.354-.354-.648-.708-1.061-1.179-.472-.531-.884-1-1.356-1.533a8.486,8.486,0,0,0-3.419-2.181,9.137,9.137,0,0,0-6.6.472c-.943.413.295,1.12.708,1.3a4.4,4.4,0,0,0,3.007-.118Z" transform="translate(-294.313 -356.502)" fill="#d642b4"/>
        </g>
      </g>
    </g>
  </g>
</svg>
