<svg xmlns="http://www.w3.org/2000/svg" xmlns:xlink="http://www.w3.org/1999/xlink" width="45.123" height="46" viewBox="0 0 45.123 46">
  <defs>
    <filter id="Path_28027" x="0" y="0" width="45.123" height="46" filterUnits="userSpaceOnUse">
      <feOffset dy="3" input="SourceAlpha"/>
      <feGaussianBlur stdDeviation="1.5" result="blur"/>
      <feFlood flood-opacity="0.388"/>
      <feComposite operator="in" in2="blur"/>
      <feComposite in="SourceGraphic"/>
    </filter>
  </defs>
  <g id="Group_12898" data-name="Group 12898" transform="translate(-133.5 -1395.5)">
    <g id="Group_12288" data-name="Group 12288" transform="translate(138 1397)">
      <g transform="matrix(1, 0, 0, 1, -4.5, -1.5)" filter="url(#Path_28027)">
        <path id="Path_28027-2" data-name="Path 28027" d="M296.014,247.788l-3.686,5.955-1.4,2.286a.509.509,0,0,0-.035.425l1.241,2.818,2.658,6.043a2.474,2.474,0,0,1-2.853,3.4l-9.393-2.286a.432.432,0,0,0-.408.106l-7.213,6.415a2.462,2.462,0,0,1-2.286.549,2.434,2.434,0,0,1-1.825-2.2l-.585-7.727-.142-1.932a.35.35,0,0,0-.106-.248c-.035-.035-.071-.089-.124-.106l-1.453-.851-6.912-4.023a2.437,2.437,0,0,1-1.223-2,2.573,2.573,0,0,1,.035-.638,2.4,2.4,0,0,1,1.489-1.79l8.95-3.669a.406.406,0,0,0,.266-.319l2.056-9.464a2.413,2.413,0,0,1,1.595-1.808,2.452,2.452,0,0,1,2.711.727l6.256,7.39a.464.464,0,0,0,.39.159l9.623-.975a2.379,2.379,0,0,1,1.967.691A2.431,2.431,0,0,1,296.014,247.788Z" transform="translate(-255.76 -235.08)" fill="#f18e16"/>
      </g>
      <path id="Path_28028" data-name="Path 28028" d="M307.589,261.909l-4.271,6.912a.36.36,0,0,0-.018.354l3.279,7.443a2.078,2.078,0,0,1-2.393,2.853L296.3,277.54a.38.38,0,0,0-.354.089l-6.079,5.405a2,2,0,0,1-1.914.461,2.052,2.052,0,0,1-1.542-1.843l-.6-8.1a.368.368,0,0,0-.089-.213.469.469,0,0,0-.106-.089l-7.018-4.094a2.061,2.061,0,0,1-1.028-1.666,1.794,1.794,0,0,1,.035-.532,2.037,2.037,0,0,1,1.241-1.506l7.514-3.084a.385.385,0,0,0,.23-.266l1.719-7.94a2.072,2.072,0,0,1,3.615-.9l5.263,6.2a.484.484,0,0,0,.337.142l8.081-.815a2.077,2.077,0,0,1,1.985,3.119Z" transform="translate(-274.495 -249.696)" fill="#b4381e"/>
      <path id="Path_28029" data-name="Path 28029" d="M310.909,265.678l-4.041,6.557a.329.329,0,0,0-.018.337l3.1,7.053a1.964,1.964,0,0,1-2.268,2.694l-7.479-1.825a.307.307,0,0,0-.319.089l-5.76,5.122a1.887,1.887,0,0,1-1.808.425,1.94,1.94,0,0,1-1.453-1.755L290.3,276.7a.371.371,0,0,0-.071-.195.469.469,0,0,0-.106-.089l-6.646-3.881a1.94,1.94,0,0,1-.975-1.577,2.341,2.341,0,0,1,.035-.5,1.961,1.961,0,0,1,1.187-1.435l7.124-2.924a.333.333,0,0,0,.213-.266l1.63-7.514a1.931,1.931,0,0,1,1.258-1.436,1.977,1.977,0,0,1,2.162.585l4.98,5.866a.352.352,0,0,0,.319.124l7.656-.78a1.894,1.894,0,0,1,1.577.549A1.989,1.989,0,0,1,310.909,265.678Z" transform="translate(-278.559 -253.198)" fill="#fcf62e"/>
      <path id="Path_28030" data-name="Path 28030" d="M293.659,268.164c-4.714,3.208-8.542,3.314-11.059,2.711a1.961,1.961,0,0,1,1.187-1.435l7.124-2.924a.333.333,0,0,0,.213-.266l1.63-7.514a1.932,1.932,0,0,1,1.258-1.435C295.892,262.12,297.168,265.771,293.659,268.164Z" transform="translate(-278.641 -253.629)" fill="#feff7d"/>
      <path id="Path_28031" data-name="Path 28031" d="M356.491,295.646,352.45,302.2h0c0,.018-.018.018-.018.035a.3.3,0,0,0,0,.3l3.1,7.053a1.912,1.912,0,0,1-.213,1.932,1.937,1.937,0,0,1-2.056.762l-7.479-1.825a.3.3,0,0,0-.248.035.017.017,0,0,0-.018.018c-.018.018-.035.018-.053.035l-5.76,5.122a1.887,1.887,0,0,1-1.808.425c.992-5.3,4.377-17.7,18.289-22.9l.035.035h0A1.941,1.941,0,0,1,356.491,295.646Z" transform="translate(-324.141 -283.166)" fill="#fce30d"/>
      <path id="Path_28032" data-name="Path 28032" d="M388.972,372.45a1.937,1.937,0,0,1-2.056.762l-7.479-1.825a.3.3,0,0,0-.248.035.017.017,0,0,0-.018.018,38.115,38.115,0,0,1-.372-3.97C378.782,366.389,386.172,369.455,388.972,372.45Z" transform="translate(-357.792 -344.092)" fill="#ffd804"/>
      <path id="Path_28033" data-name="Path 28033" d="M408.232,295.81l-4.041,6.557h0s-3.261-.248-3.4-1.4c-.124-1.046,4.714-6.575,7.178-7.567h0A1.941,1.941,0,0,1,408.232,295.81Z" transform="translate(-375.882 -283.331)" fill="#ffd804"/>
      <path id="Path_28034" data-name="Path 28034" d="M292.963,341.319a9.407,9.407,0,0,1-2.836,1.028.471.471,0,0,0-.106-.089l-6.646-3.881a1.94,1.94,0,0,1-.975-1.577C285.714,338.749,294.345,340.557,292.963,341.319Z" transform="translate(-278.476 -319.04)" fill="#fce30d"/>
      <path id="Path_28035" data-name="Path 28035" d="M396.335,298.67c-3.509-1.1-7.018,1.471-4.2,3.137S398.32,299.291,396.335,298.67Z" transform="translate(-367.92 -287.449)" fill="#fdffff" opacity="0.43"/>
      <path id="Path_28036" data-name="Path 28036" d="M428.484,303.52c.372-1.613,1.294-2.375,1.754-1.506C430.7,302.864,428.059,305.434,428.484,303.52Z" transform="translate(-398.633 -290.119)" fill="#fdffff" opacity="0.43"/>
      <path id="Path_28037" data-name="Path 28037" d="M288.76,335.941c-.851-.567.868-1.861,2.676-.78C293.226,336.224,290,336.774,288.76,335.941Z" transform="translate(-283.525 -317.347)" fill="#fdffff" opacity="0.43"/>
      <path id="Path_28038" data-name="Path 28038" d="M343.93,258.181a2.02,2.02,0,0,0-2.233,1.258C341.236,260.573,344.586,258.394,343.93,258.181Z" transform="translate(-327.229 -254.315)" fill="#fdffff" opacity="0.43"/>
      <path id="Path_28039" data-name="Path 28039" d="M339.382,271.008c.089-.957.408-1.311.886-1.063C340.746,270.21,339.293,272.036,339.382,271.008Z" transform="translate(-325.357 -263.969)" fill="#fdffff" opacity="0.43"/>
      <path id="Path_28040" data-name="Path 28040" d="M263.764,314.361a2,2,0,0,1,.248-3.261,60.285,60.285,0,0,1,7.461-3.172c1.1-.319.425.071-3.279,1.755-3.491,1.577-3.013,2.676-2.924,3.651C265.341,314.307,264.047,314.68,263.764,314.361Z" transform="translate(-262.552 -295.2)" fill="#fdffff" opacity="0.43"/>
      <path id="Path_28041" data-name="Path 28041" d="M330.235,239.556a2.127,2.127,0,0,0-2.765.567c-.514.815-1.755,6.54-2.038,7.6-.284,1.081,1.17-3.456,1.861-5.388a2.377,2.377,0,0,1,4.112-.922C331.812,242.126,331.156,240.265,330.235,239.556Z" transform="translate(-313.852 -238.792)" fill="#fdffff" opacity="0.43"/>
      <path id="Path_28042" data-name="Path 28042" d="M325.591,406.42c-.762-.62.585,2.056,2.392.922,1.134-.727,7.124-6.256,7.8-6.646,0,0,7.319,1.719,9,2.056,1.684.354,2.96-.124,3.279-1.524a3.638,3.638,0,0,1-3.651.868c-2.393-.6-8.294-1.879-8.737-1.9s-5.352,4.75-7.036,5.972C326.991,407.413,326.548,407.218,325.591,406.42Z" transform="translate(-313.834 -371.203)" fill="#fdffff" opacity="0.43"/>
      <path id="Path_28043" data-name="Path 28043" d="M403.114,281.242s7.426-.709,8.666-.656a2.129,2.129,0,0,1,1.755,2.41,14.218,14.218,0,0,1-1.719,3.208s-1.028.23.159-1.347c1.382-1.843.6-3.7-1.241-3.686C408.874,281.207,402.511,281.491,403.114,281.242Z" transform="translate(-377.764 -272.786)" fill="#fdffff" opacity="0.43"/>
      <path id="Path_28044" data-name="Path 28044" d="M307.884,372.146a.35.35,0,0,0-.106-.248c-.035-.035-.071-.089-.124-.106l-1.453-.851a24.635,24.635,0,0,0,2.623-.053c.443-.089-.337,2.02-.8,3.19Z" transform="translate(-298.059 -347.084)" opacity="0.13"/>
      <path id="Path_28045" data-name="Path 28045" d="M425.945,336.112l1.241,2.818c-.851-.868-2.711-2.8-2.8-3.279-.106-.567,2.552-2,3-2.251l-1.4,2.286A.409.409,0,0,0,425.945,336.112Z" transform="translate(-395.296 -316.242)" opacity="0.13"/>
    </g>
    <text id="_2x" data-name="2x" transform="translate(166.352 1417.761) rotate(-20)" fill="#b63a1e" font-size="16" font-family="Arial-BoldMT, Arial" font-weight="700" letter-spacing="-0.025em"><tspan x="-17" y="0">2x</tspan></text>
  </g>
</svg>
