<svg id="Component_47_2" data-name="Component 47 – 2" xmlns="http://www.w3.org/2000/svg" xmlns:xlink="http://www.w3.org/1999/xlink" width="26" height="26" viewBox="0 0 26 26">
  <defs>
    <linearGradient id="linear-gradient" x1="800.641" y1="-578.778" x2="800.641" y2="-576.62" gradientUnits="objectBoundingBox">
      <stop offset="0" stop-color="#ffd01c"/>
      <stop offset="1" stop-color="#ffd01c" stop-opacity="0"/>
    </linearGradient>
  </defs>
  <g id="Group_8179" data-name="Group 8179" transform="translate(1.491 5.211)">
    <g id="Group_8178" data-name="Group 8178">
      <g id="Group_8135" data-name="Group 8135" transform="translate(8.735)">
        <g id="Group_8116" data-name="Group 8116" transform="translate(0 0.725)">
          <g id="Group_8108" data-name="Group 8108" transform="translate(0 0.232)">
            <path id="Path_22874" data-name="Path 22874" d="M51.381-96.157a1.148,1.148,0,0,0,1.349.136c3.46-2.19,6.773-4.47,9.159-6.192a2.255,2.255,0,0,0,.712-1.059c.019-.068.038-.132.057-.2a2.474,2.474,0,0,0-.041-1.327.618.618,0,0,0-.848-.351c-3.275,1.56-7.617,3.607-12.264,5.978a.6.6,0,0,0-.158,1.01C50.024-97.491,50.706-96.817,51.381-96.157Z" transform="translate(-49.132 105.21)" fill="none" stroke="#31484b" stroke-linecap="round" stroke-linejoin="round" stroke-width="2"/>
            <path id="Path_22875" data-name="Path 22875" d="M51.381-96.157a1.148,1.148,0,0,0,1.349.136c3.46-2.19,6.773-4.47,9.159-6.192a2.255,2.255,0,0,0,.712-1.059c.019-.068.038-.132.057-.2a2.474,2.474,0,0,0-.041-1.327.618.618,0,0,0-.848-.351c-3.275,1.56-7.617,3.607-12.264,5.978a.6.6,0,0,0-.158,1.01C50.024-97.491,50.706-96.817,51.381-96.157Z" transform="translate(-49.132 105.21)" fill="none" stroke="#31484b" stroke-linecap="round" stroke-linejoin="round" stroke-width="2"/>
          </g>
          <g id="Group_8109" data-name="Group 8109" transform="translate(0.483)">
            <path id="Path_22876" data-name="Path 22876" d="M52.47-97.8a.547.547,0,0,0,.667.083c3.754-2.4,7.161-4.7,9.709-6.43a1.068,1.068,0,0,0,.362-.516c.083-.29.17-.577.256-.867.057-.185-.049-.317-.234-.294-1.1.136-2.239.271-3.43.418a2.708,2.708,0,0,0-.678.2c-.384.185-.78.373-1.183.569-.181.087-.177.26.015.384.177.113.354.23.528.343.188.124.2.305.015.4-.237.124-.475.249-.72.373a1.253,1.253,0,0,1-.746.087l-.818-.181a1.293,1.293,0,0,0-.765.1c-1.545.837-3.2,1.76-4.851,2.706a.332.332,0,0,0-.083.535C51.158-99.2,51.814-98.5,52.47-97.8Z" transform="translate(-50.413 105.827)" fill="none" stroke="#31484b" stroke-linecap="round" stroke-linejoin="round" stroke-width="2"/>
            <path id="Path_22877" data-name="Path 22877" d="M52.47-97.8a.547.547,0,0,0,.667.083c3.754-2.4,7.161-4.7,9.709-6.43a1.068,1.068,0,0,0,.362-.516c.083-.29.17-.577.256-.867.057-.185-.049-.317-.234-.294-1.1.136-2.239.271-3.43.418a2.708,2.708,0,0,0-.678.2c-.384.185-.78.373-1.183.569-.181.087-.177.26.015.384.177.113.354.23.528.343.188.124.2.305.015.4-.237.124-.475.249-.72.373a1.253,1.253,0,0,1-.746.087l-.818-.181a1.293,1.293,0,0,0-.765.1c-1.545.837-3.2,1.76-4.851,2.706a.332.332,0,0,0-.083.535C51.158-99.2,51.814-98.5,52.47-97.8Z" transform="translate(-50.413 105.827)" fill="none" stroke="#31484b" stroke-linecap="round" stroke-linejoin="round" stroke-width="2"/>
          </g>
          <g id="Group_8113" data-name="Group 8113" transform="translate(2.212 0.292)">
            <g id="Group_8110" data-name="Group 8110" transform="translate(1.557 1.22)">
              <path id="Path_22878" data-name="Path 22878" d="M59.414-99.828c-.407.222-.369.513.09.641.9.249,1.8.505,2.672.761a2.054,2.054,0,0,0,1.485-.2q1.459-.939,2.725-1.764c.32-.207.26-.486-.136-.618-.776-.26-1.6-.513-2.435-.754-.43-.124-.505-.045-.17.173s.313.554-.057.746l-.045.023a2.554,2.554,0,0,1-1.493.173h0a2.566,2.566,0,0,0-1.53.207C60.157-100.239,59.788-100.035,59.414-99.828Z" transform="translate(-59.133 101.816)" fill="none" stroke="#31484b" stroke-linecap="round" stroke-linejoin="round" stroke-width="2"/>
              <path id="Path_22879" data-name="Path 22879" d="M59.414-99.828c-.407.222-.369.513.09.641.9.249,1.8.505,2.672.761a2.054,2.054,0,0,0,1.485-.2q1.459-.939,2.725-1.764c.32-.207.26-.486-.136-.618-.776-.26-1.6-.513-2.435-.754-.43-.124-.505-.045-.17.173s.313.554-.057.746l-.045.023a2.554,2.554,0,0,1-1.493.173h0a2.566,2.566,0,0,0-1.53.207C60.157-100.239,59.788-100.035,59.414-99.828Z" transform="translate(-59.133 101.816)" fill="none" stroke="#31484b" stroke-linecap="round" stroke-linejoin="round" stroke-width="2"/>
            </g>
            <g id="Group_8111" data-name="Group 8111" transform="translate(1.493 1.216)">
              <path id="Path_22880" data-name="Path 22880" d="M59.241-99.834c-.407.226-.362.343.1.26,2.423-.43,4.741-.8,6.765-1.1.384-.057.381-.211-.015-.343-.78-.26-1.6-.513-2.439-.754-.43-.124-.505-.045-.17.173s.313.554-.057.746l-.045.023a2.563,2.563,0,0,1-1.5.173h0a2.578,2.578,0,0,0-1.534.207C59.987-100.245,59.614-100.041,59.241-99.834Z" transform="translate(-58.963 101.826)" fill="none" stroke="#31484b" stroke-linecap="round" stroke-linejoin="round" stroke-width="2"/>
              <path id="Path_22881" data-name="Path 22881" d="M59.241-99.834c-.407.226-.362.343.1.26,2.423-.43,4.741-.8,6.765-1.1.384-.057.381-.211-.015-.343-.78-.26-1.6-.513-2.439-.754-.43-.124-.505-.045-.17.173s.313.554-.057.746l-.045.023a2.563,2.563,0,0,1-1.5.173h0a2.578,2.578,0,0,0-1.534.207C59.987-100.245,59.614-100.041,59.241-99.834Z" transform="translate(-58.963 101.826)" fill="none" stroke="#31484b" stroke-linecap="round" stroke-linejoin="round" stroke-width="2"/>
            </g>
            <g id="Group_8112" data-name="Group 8112">
              <path id="Path_22882" data-name="Path 22882" d="M64.909-103.962a5.521,5.521,0,0,0,.954-.874c.011-.015.023-.026.034-.041.23-.283.328-.215.219.155-.019.064-.038.128-.057.2a2.159,2.159,0,0,1-.727,1.033c-2.427,1.643-5.616,3.78-9.106,6.023a2.032,2.032,0,0,1-1.127.384c-.215-.049-.064-.3.343-.569C59.033-100.012,62.373-102.255,64.909-103.962Z" transform="translate(-55.001 105.053)" fill="none" stroke="#31484b" stroke-linecap="round" stroke-linejoin="round" stroke-width="2"/>
              <path id="Path_22883" data-name="Path 22883" d="M64.909-103.962a5.521,5.521,0,0,0,.954-.874c.011-.015.023-.026.034-.041.23-.283.328-.215.219.155-.019.064-.038.128-.057.2a2.159,2.159,0,0,1-.727,1.033c-2.427,1.643-5.616,3.78-9.106,6.023a2.032,2.032,0,0,1-1.127.384c-.215-.049-.064-.3.343-.569C59.033-100.012,62.373-102.255,64.909-103.962Z" transform="translate(-55.001 105.053)" fill="none" stroke="#31484b" stroke-linecap="round" stroke-linejoin="round" stroke-width="2"/>
            </g>
          </g>
          <g id="Group_8115" data-name="Group 8115" transform="translate(1.711 0.266)">
            <g id="Group_8114" data-name="Group 8114">
              <path id="Path_22884" data-name="Path 22884" d="M63.636-104.48a9.209,9.209,0,0,1,1.059-.588c.279-.124.373-.023.215.23a3.4,3.4,0,0,1-.837.818c-2.476,1.628-5.684,3.728-9.174,5.978a2.084,2.084,0,0,1-1.131.388c-.215-.049-.064-.305.343-.569C57.707-100.594,61.062-102.791,63.636-104.48Z" transform="translate(-53.671 105.121)" fill="none" stroke="#31484b" stroke-linecap="round" stroke-linejoin="round" stroke-width="2"/>
              <path id="Path_22885" data-name="Path 22885" d="M63.636-104.48a9.209,9.209,0,0,1,1.059-.588c.279-.124.373-.023.215.23a3.4,3.4,0,0,1-.837.818c-2.476,1.628-5.684,3.728-9.174,5.978a2.084,2.084,0,0,1-1.131.388c-.215-.049-.064-.305.343-.569C57.707-100.594,61.062-102.791,63.636-104.48Z" transform="translate(-53.671 105.121)" fill="none" stroke="#31484b" stroke-linecap="round" stroke-linejoin="round" stroke-width="2"/>
            </g>
          </g>
        </g>
        <g id="Group_8125" data-name="Group 8125" transform="translate(0.005)">
          <g id="Group_8117" data-name="Group 8117" transform="translate(0 0.242)">
            <path id="Path_22886" data-name="Path 22886" d="M51.389-98.206a1.148,1.148,0,0,0,1.357.139c3.479-2.224,6.709-4.429,9.11-6.1a2.231,2.231,0,0,0,.72-1.044c.019-.064.038-.132.057-.2a2.3,2.3,0,0,0-.049-1.308.639.639,0,0,0-.878-.328c-3.332,1.564-7.519,3.449-12.185,5.823a.594.594,0,0,0-.166,1.006C50.028-99.547,50.71-98.873,51.389-98.206Z" transform="translate(-49.144 107.107)" fill="none" stroke="#31484b" stroke-linecap="round" stroke-linejoin="round" stroke-width="2"/>
            <path id="Path_22887" data-name="Path 22887" d="M51.389-98.206a1.148,1.148,0,0,0,1.357.139c3.479-2.224,6.709-4.429,9.11-6.1a2.231,2.231,0,0,0,.72-1.044c.019-.064.038-.132.057-.2a2.3,2.3,0,0,0-.049-1.308.639.639,0,0,0-.878-.328c-3.332,1.564-7.519,3.449-12.185,5.823a.594.594,0,0,0-.166,1.006C50.028-99.547,50.71-98.873,51.389-98.206Z" transform="translate(-49.144 107.107)" fill="none" stroke="#31484b" stroke-linecap="round" stroke-linejoin="round" stroke-width="2"/>
          </g>
          <g id="Group_8118" data-name="Group 8118" transform="translate(0.476)">
            <path id="Path_22888" data-name="Path 22888" d="M52.466-99.876a.543.543,0,0,0,.667.083c3.765-2.423,7.067-4.6,9.652-6.3a1.064,1.064,0,0,0,.366-.513q.124-.43.26-.859c.057-.185-.053-.309-.245-.283-1.142.158-2.288.3-3.475.452a2.674,2.674,0,0,0-.675.192l-1.165.543c-.181.083-.17.249.023.366.177.109.354.219.528.332.188.121.2.294.019.384-.234.117-.467.237-.709.358a1.3,1.3,0,0,1-.742.083c-.271-.06-.539-.121-.814-.177a1.3,1.3,0,0,0-.758.1c-1.519.8-3.162,1.7-4.805,2.631a.325.325,0,0,0-.087.528C51.154-101.274,51.81-100.573,52.466-99.876Z" transform="translate(-50.407 107.749)" fill="none" stroke="#31484b" stroke-linecap="round" stroke-linejoin="round" stroke-width="2"/>
            <path id="Path_22889" data-name="Path 22889" d="M52.466-99.876a.543.543,0,0,0,.667.083c3.765-2.423,7.067-4.6,9.652-6.3a1.064,1.064,0,0,0,.366-.513q.124-.43.26-.859c.057-.185-.053-.309-.245-.283-1.142.158-2.288.3-3.475.452a2.674,2.674,0,0,0-.675.192l-1.165.543c-.181.083-.17.249.023.366.177.109.354.219.528.332.188.121.2.294.019.384-.234.117-.467.237-.709.358a1.3,1.3,0,0,1-.742.083c-.271-.06-.539-.121-.814-.177a1.3,1.3,0,0,0-.758.1c-1.519.8-3.162,1.7-4.805,2.631a.325.325,0,0,0-.087.528C51.154-101.274,51.81-100.573,52.466-99.876Z" transform="translate(-50.407 107.749)" fill="none" stroke="#31484b" stroke-linecap="round" stroke-linejoin="round" stroke-width="2"/>
          </g>
          <g id="Group_8122" data-name="Group 8122" transform="translate(2.208 0.294)">
            <g id="Group_8119" data-name="Group 8119" transform="translate(1.546 1.207)">
              <path id="Path_22890" data-name="Path 22890" d="M59.382-101.862c-.4.215-.362.5.094.622.893.245,1.786.5,2.661.754a2.07,2.07,0,0,0,1.477-.185c.961-.607,1.858-1.176,2.7-1.707.317-.2.256-.471-.143-.6-.784-.256-1.606-.5-2.442-.731-.426-.117-.5-.045-.166.166s.317.535-.045.72l-.045.023a2.6,2.6,0,0,1-1.481.162h0a2.571,2.571,0,0,0-1.515.2C60.117-102.258,59.751-102.062,59.382-101.862Z" transform="translate(-59.105 103.768)" fill="none" stroke="#31484b" stroke-linecap="round" stroke-linejoin="round" stroke-width="2"/>
              <path id="Path_22891" data-name="Path 22891" d="M59.382-101.862c-.4.215-.362.5.094.622.893.245,1.786.5,2.661.754a2.07,2.07,0,0,0,1.477-.185c.961-.607,1.858-1.176,2.7-1.707.317-.2.256-.471-.143-.6-.784-.256-1.606-.5-2.442-.731-.426-.117-.5-.045-.166.166s.317.535-.045.72l-.045.023a2.6,2.6,0,0,1-1.481.162h0a2.571,2.571,0,0,0-1.515.2C60.117-102.258,59.751-102.062,59.382-101.862Z" transform="translate(-59.105 103.768)" fill="none" stroke="#31484b" stroke-linecap="round" stroke-linejoin="round" stroke-width="2"/>
            </g>
            <g id="Group_8120" data-name="Group 8120" transform="translate(1.48 1.203)">
              <path id="Path_22892" data-name="Path 22892" d="M59.205-101.868c-.4.219-.358.332.1.253,2.4-.415,4.689-.761,6.713-1.04.388-.053.377-.2-.023-.335-.788-.256-1.609-.5-2.446-.731-.426-.117-.505-.045-.166.166s.317.531-.045.72l-.045.023a2.638,2.638,0,0,1-1.481.166h0a2.571,2.571,0,0,0-1.515.2C59.94-102.264,59.575-102.068,59.205-101.868Z" transform="translate(-58.93 103.778)" fill="none" stroke="#31484b" stroke-linecap="round" stroke-linejoin="round" stroke-width="2"/>
              <path id="Path_22893" data-name="Path 22893" d="M59.205-101.868c-.4.219-.358.332.1.253,2.4-.415,4.689-.761,6.713-1.04.388-.053.377-.2-.023-.335-.788-.256-1.609-.5-2.446-.731-.426-.117-.505-.045-.166.166s.317.531-.045.72l-.045.023a2.638,2.638,0,0,1-1.481.166h0a2.571,2.571,0,0,0-1.515.2C59.94-102.264,59.575-102.068,59.205-101.868Z" transform="translate(-58.93 103.778)" fill="none" stroke="#31484b" stroke-linecap="round" stroke-linejoin="round" stroke-width="2"/>
            </g>
            <g id="Group_8121" data-name="Group 8121">
              <path id="Path_22894" data-name="Path 22894" d="M64.839-105.892a5.26,5.26,0,0,0,.965-.867c.011-.011.023-.026.034-.038.234-.279.339-.215.226.147l-.057.192a2.141,2.141,0,0,1-.735,1.021c-2.45,1.606-5.548,3.641-9.042,5.895a2.053,2.053,0,0,1-1.131.388c-.215-.049-.06-.305.343-.569C59.046-102.1,62.291-104.222,64.839-105.892Z" transform="translate(-55.003 106.97)" fill="none" stroke="#31484b" stroke-linecap="round" stroke-linejoin="round" stroke-width="2"/>
              <path id="Path_22895" data-name="Path 22895" d="M64.839-105.892a5.26,5.26,0,0,0,.965-.867c.011-.011.023-.026.034-.038.234-.279.339-.215.226.147l-.057.192a2.141,2.141,0,0,1-.735,1.021c-2.45,1.606-5.548,3.641-9.042,5.895a2.053,2.053,0,0,1-1.131.388c-.215-.049-.06-.305.343-.569C59.046-102.1,62.291-104.222,64.839-105.892Z" transform="translate(-55.003 106.97)" fill="none" stroke="#31484b" stroke-linecap="round" stroke-linejoin="round" stroke-width="2"/>
            </g>
          </g>
          <g id="Group_8124" data-name="Group 8124" transform="translate(1.707 0.271)">
            <g id="Group_8123" data-name="Group 8123">
              <path id="Path_22896" data-name="Path 22896" d="M63.55-106.389a9.849,9.849,0,0,1,1.074-.584c.286-.128.384-.03.222.222a3.465,3.465,0,0,1-.844.807c-2.488,1.591-5.6,3.584-9.1,5.834a2.053,2.053,0,0,1-1.131.388c-.215-.049-.06-.305.343-.569C57.716-102.665,60.972-104.742,63.55-106.389Z" transform="translate(-53.673 107.029)" fill="none" stroke="#31484b" stroke-linecap="round" stroke-linejoin="round" stroke-width="2"/>
              <path id="Path_22897" data-name="Path 22897" d="M63.55-106.389a9.849,9.849,0,0,1,1.074-.584c.286-.128.384-.03.222.222a3.465,3.465,0,0,1-.844.807c-2.488,1.591-5.6,3.584-9.1,5.834a2.053,2.053,0,0,1-1.131.388c-.215-.049-.06-.305.343-.569C57.716-102.665,60.972-104.742,63.55-106.389Z" transform="translate(-53.673 107.029)" fill="none" stroke="#31484b" stroke-linecap="round" stroke-linejoin="round" stroke-width="2"/>
            </g>
          </g>
        </g>
        <g id="Group_8134" data-name="Group 8134" transform="translate(0.005)">
          <g id="Group_8126" data-name="Group 8126" transform="translate(0 0.242)">
            <path id="Path_22898" data-name="Path 22898" d="M51.389-98.206a1.148,1.148,0,0,0,1.357.139c3.479-2.224,6.709-4.429,9.11-6.1a2.231,2.231,0,0,0,.72-1.044c.019-.064.038-.132.057-.2a2.3,2.3,0,0,0-.049-1.308.639.639,0,0,0-.878-.328c-3.332,1.564-7.519,3.449-12.185,5.823a.594.594,0,0,0-.166,1.006C50.028-99.547,50.71-98.873,51.389-98.206Z" transform="translate(-49.144 107.107)" fill="#738589"/>
          </g>
          <g id="Group_8127" data-name="Group 8127" transform="translate(0.476)">
            <path id="Path_22899" data-name="Path 22899" d="M52.466-99.876a.543.543,0,0,0,.667.083c3.765-2.423,7.067-4.6,9.652-6.3a1.064,1.064,0,0,0,.366-.513q.124-.43.26-.859c.057-.185-.053-.309-.245-.283-1.142.158-2.288.3-3.475.452a2.674,2.674,0,0,0-.675.192l-1.165.543c-.181.083-.17.249.023.366.177.109.354.219.528.332.188.121.2.294.019.384-.234.117-.467.237-.709.358a1.3,1.3,0,0,1-.742.083c-.271-.06-.539-.121-.814-.177a1.3,1.3,0,0,0-.758.1c-1.519.8-3.162,1.7-4.805,2.631a.325.325,0,0,0-.087.528C51.154-101.274,51.81-100.573,52.466-99.876Z" transform="translate(-50.407 107.749)" fill="#95a9ac"/>
          </g>
          <g id="Group_8131" data-name="Group 8131" transform="translate(2.208 0.294)">
            <g id="Group_8128" data-name="Group 8128" transform="translate(1.546 1.207)">
              <path id="Path_22900" data-name="Path 22900" d="M59.382-101.862c-.4.215-.362.5.094.622.893.245,1.786.5,2.661.754a2.07,2.07,0,0,0,1.477-.185c.961-.607,1.858-1.176,2.7-1.707.317-.2.256-.471-.143-.6-.784-.256-1.606-.5-2.442-.731-.426-.117-.5-.045-.166.166s.317.535-.045.72l-.045.023a2.6,2.6,0,0,1-1.481.162h0a2.571,2.571,0,0,0-1.515.2C60.117-102.258,59.751-102.062,59.382-101.862Z" transform="translate(-59.105 103.768)" fill="#c5d7d9"/>
            </g>
            <g id="Group_8129" data-name="Group 8129" transform="translate(1.48 1.203)">
              <path id="Path_22901" data-name="Path 22901" d="M59.205-101.868c-.4.219-.358.332.1.253,2.4-.415,4.689-.761,6.713-1.04.388-.053.377-.2-.023-.335-.788-.256-1.609-.5-2.446-.731-.426-.117-.505-.045-.166.166s.317.531-.045.72l-.045.023a2.638,2.638,0,0,1-1.481.166h0a2.571,2.571,0,0,0-1.515.2C59.94-102.264,59.575-102.068,59.205-101.868Z" transform="translate(-58.93 103.778)" fill="#fff"/>
            </g>
            <g id="Group_8130" data-name="Group 8130">
              <path id="Path_22902" data-name="Path 22902" d="M64.839-105.892a5.26,5.26,0,0,0,.965-.867c.011-.011.023-.026.034-.038.234-.279.339-.215.226.147l-.057.192a2.141,2.141,0,0,1-.735,1.021c-2.45,1.606-5.548,3.641-9.042,5.895a2.053,2.053,0,0,1-1.131.388c-.215-.049-.06-.305.343-.569C59.046-102.1,62.291-104.222,64.839-105.892Z" transform="translate(-55.003 106.97)" fill="#c5d7d9"/>
            </g>
          </g>
          <g id="Group_8133" data-name="Group 8133" transform="translate(1.707 0.271)">
            <g id="Group_8132" data-name="Group 8132">
              <path id="Path_22903" data-name="Path 22903" d="M63.55-106.389a9.849,9.849,0,0,1,1.074-.584c.286-.128.384-.03.222.222a3.465,3.465,0,0,1-.844.807c-2.488,1.591-5.6,3.584-9.1,5.834a2.053,2.053,0,0,1-1.131.388c-.215-.049-.06-.305.343-.569C57.716-102.665,60.972-104.742,63.55-106.389Z" transform="translate(-53.673 107.029)" fill="#738589"/>
            </g>
          </g>
        </g>
      </g>
      <g id="Group_8172" data-name="Group 8172" transform="translate(0 3.979)">
        <g id="Group_8149" data-name="Group 8149" transform="translate(0.008 0.829)">
          <g id="Group_8139" data-name="Group 8139" transform="translate(0 1.802)">
            <g id="Group_8136" data-name="Group 8136">
              <path id="Path_22904" data-name="Path 22904" d="M39.764-88.345c-1.854-.562-3.78-1.142-5.623-1.7A5.361,5.361,0,0,0,31.71-90.1c-1.779.46-3.426.912-4.8,1.315a1.56,1.56,0,0,0-.935,1.41,2.453,2.453,0,0,0,.4,1.372c-.109.072-.211.139-.3.2.026.554.057,1.1.09,1.647v.026c.008.1.015.207.019.309l.034.023a2.583,2.583,0,0,0,1.3,1.568,7.743,7.743,0,0,0,5.6.482c.075.038.151.072.226.106a2.286,2.286,0,0,0,1.945-.064c1.425-.889,3.03-1.96,4.662-3.143a2.717,2.717,0,0,0,1.04-1.93A1.781,1.781,0,0,0,39.764-88.345Z" transform="translate(-25.976 90.21)" fill="none" stroke="#8f3815" stroke-linecap="round" stroke-linejoin="round" stroke-width="2"/>
            </g>
            <g id="Group_8137" data-name="Group 8137">
              <path id="Path_22905" data-name="Path 22905" d="M39.764-88.345c-1.854-.562-3.78-1.142-5.623-1.7A5.361,5.361,0,0,0,31.71-90.1c-1.779.46-3.426.912-4.8,1.315a1.56,1.56,0,0,0-.935,1.41,2.453,2.453,0,0,0,.4,1.372c-.109.072-.211.139-.3.2.026.554.057,1.1.09,1.647v.026c.008.1.015.207.019.309l.034.023a2.583,2.583,0,0,0,1.3,1.568,7.743,7.743,0,0,0,5.6.482c.075.038.151.072.226.106a2.286,2.286,0,0,0,1.945-.064c1.425-.889,3.03-1.96,4.662-3.143a2.717,2.717,0,0,0,1.04-1.93A1.781,1.781,0,0,0,39.764-88.345Z" transform="translate(-25.976 90.21)" fill="none" stroke="#8f3815" stroke-linecap="round" stroke-linejoin="round" stroke-width="2"/>
            </g>
            <g id="Group_8138" data-name="Group 8138">
              <path id="Path_22906" data-name="Path 22906" d="M39.764-88.345c-1.854-.562-3.78-1.142-5.623-1.7A5.361,5.361,0,0,0,31.71-90.1c-1.779.46-3.426.912-4.8,1.315a1.56,1.56,0,0,0-.935,1.41,2.453,2.453,0,0,0,.4,1.372c-.109.072-.211.139-.3.2.026.554.057,1.1.09,1.647v.026c.008.1.015.207.019.309l.034.023a2.583,2.583,0,0,0,1.3,1.568,7.743,7.743,0,0,0,5.6.482c.075.038.151.072.226.106a2.286,2.286,0,0,0,1.945-.064c1.425-.889,3.03-1.96,4.662-3.143a2.717,2.717,0,0,0,1.04-1.93A1.781,1.781,0,0,0,39.764-88.345Z" transform="translate(-25.976 90.21)" fill="none" stroke="#8f3815" stroke-linecap="round" stroke-linejoin="round" stroke-width="2"/>
            </g>
          </g>
          <path id="Path_22907" data-name="Path 22907" d="M30.659-70.439c-1.579-.562-1.579-1.379.136-.693a7.383,7.383,0,0,0,1.734.313c.023.26.045.516.072.761A5.809,5.809,0,0,1,30.659-70.439Z" transform="translate(-28.166 80.288)" fill="none" stroke="#8f3815" stroke-linecap="round" stroke-linejoin="round" stroke-width="2"/>
          <path id="Path_22908" data-name="Path 22908" d="M41.248-71.63c.06.535.124,1.04.2,1.508a9.028,9.028,0,0,1-2.024.275.733.733,0,0,0,.644-.867.771.771,0,0,0-.874-.712Q40.2-71.523,41.248-71.63Z" transform="translate(-34.21 80.435)" fill="none" stroke="#8f3815" stroke-linecap="round" stroke-linejoin="round" stroke-width="2"/>
          <g id="Group_8143" data-name="Group 8143" transform="translate(0.067)">
            <g id="Group_8140" data-name="Group 8140">
              <path id="Path_22909" data-name="Path 22909" d="M40.456-90.959c-2.035-1.24-4.2-2.552-6.208-3.746a2.547,2.547,0,0,0-2.2-.072c-2.107,1.059-4.044,2.133-5.555,3.068a.643.643,0,0,0-.03,1.116c.09.075.185.151.279.226-.893,1.04-.773,2.454.69,3.471a6.955,6.955,0,0,0,5.506.611c.064.034.128.072.192.106a2.275,2.275,0,0,0,2.058-.008c1.655-1,3.483-2.167,5.28-3.381A.764.764,0,0,0,40.456-90.959ZM28.934-88.241c-1.036-.678-1.093-1.707-.139-2.359,1.229.81,2.6,1.647,4.022,2.45A4.066,4.066,0,0,1,28.934-88.241Z" transform="translate(-26.154 94.993)" fill="none" stroke="#8f3815" stroke-linecap="round" stroke-linejoin="round" stroke-width="2"/>
            </g>
            <g id="Group_8141" data-name="Group 8141">
              <path id="Path_22910" data-name="Path 22910" d="M40.456-90.959c-2.035-1.24-4.2-2.552-6.208-3.746a2.547,2.547,0,0,0-2.2-.072c-2.107,1.059-4.044,2.133-5.555,3.068a.643.643,0,0,0-.03,1.116c.09.075.185.151.279.226-.893,1.04-.773,2.454.69,3.471a6.955,6.955,0,0,0,5.506.611c.064.034.128.072.192.106a2.275,2.275,0,0,0,2.058-.008c1.655-1,3.483-2.167,5.28-3.381A.764.764,0,0,0,40.456-90.959ZM28.934-88.241c-1.036-.678-1.093-1.707-.139-2.359,1.229.81,2.6,1.647,4.022,2.45A4.066,4.066,0,0,1,28.934-88.241Z" transform="translate(-26.154 94.993)" fill="none" stroke="#8f3815" stroke-linecap="round" stroke-linejoin="round" stroke-width="2"/>
            </g>
            <g id="Group_8142" data-name="Group 8142">
              <path id="Path_22911" data-name="Path 22911" d="M40.456-90.959c-2.035-1.24-4.2-2.552-6.208-3.746a2.547,2.547,0,0,0-2.2-.072c-2.107,1.059-4.044,2.133-5.555,3.068a.643.643,0,0,0-.03,1.116c.09.075.185.151.279.226-.893,1.04-.773,2.454.69,3.471a6.955,6.955,0,0,0,5.506.611c.064.034.128.072.192.106a2.275,2.275,0,0,0,2.058-.008c1.655-1,3.483-2.167,5.28-3.381A.764.764,0,0,0,40.456-90.959ZM28.934-88.241c-1.036-.678-1.093-1.707-.139-2.359,1.229.81,2.6,1.647,4.022,2.45A4.066,4.066,0,0,1,28.934-88.241Z" transform="translate(-26.154 94.993)" fill="none" stroke="#8f3815" stroke-linecap="round" stroke-linejoin="round" stroke-width="2"/>
            </g>
          </g>
          <g id="Group_8147" data-name="Group 8147" transform="translate(6.754 0)">
            <g id="Group_8144" data-name="Group 8144">
              <path id="Path_22912" data-name="Path 22912" d="M51.511-90.958c-2.035-1.24-4.2-2.552-6.208-3.746a2.482,2.482,0,0,0-1.4-.279,76.1,76.1,0,0,0,.369,8.842,2.269,2.269,0,0,0,1.971-.045c1.655-1,3.483-2.167,5.28-3.381A.765.765,0,0,0,51.511-90.958Z" transform="translate(-43.897 94.991)" fill="none" stroke="#8f3815" stroke-linecap="round" stroke-linejoin="round" stroke-width="2"/>
            </g>
            <g id="Group_8145" data-name="Group 8145">
              <path id="Path_22913" data-name="Path 22913" d="M51.511-90.958c-2.035-1.24-4.2-2.552-6.208-3.746a2.482,2.482,0,0,0-1.4-.279,76.1,76.1,0,0,0,.369,8.842,2.269,2.269,0,0,0,1.971-.045c1.655-1,3.483-2.167,5.28-3.381A.765.765,0,0,0,51.511-90.958Z" transform="translate(-43.897 94.991)" fill="none" stroke="#8f3815" stroke-linecap="round" stroke-linejoin="round" stroke-width="2"/>
            </g>
            <g id="Group_8146" data-name="Group 8146">
              <path id="Path_22914" data-name="Path 22914" d="M51.511-90.958c-2.035-1.24-4.2-2.552-6.208-3.746a2.482,2.482,0,0,0-1.4-.279,76.1,76.1,0,0,0,.369,8.842,2.269,2.269,0,0,0,1.971-.045c1.655-1,3.483-2.167,5.28-3.381A.765.765,0,0,0,51.511-90.958Z" transform="translate(-43.897 94.991)" fill="none" stroke="#8f3815" stroke-linecap="round" stroke-linejoin="round" stroke-width="2"/>
            </g>
          </g>
          <g id="Group_8148" data-name="Group 8148" transform="translate(8.381 5.367)">
            <path id="Path_22915" data-name="Path 22915" d="M48.932-75.623c-.324.2-.622.1-.675-.249-.011-.09-.026-.185-.038-.279a1.21,1.21,0,0,1,.569-1.07c1.67-1,3.524-2.163,5.348-3.385.4-.264.716-.166.712.215a1.775,1.775,0,0,1-.693,1.2C52.324-77.835,50.508-76.61,48.932-75.623Z" transform="translate(-48.214 80.754)" fill="none" stroke="#8f3815" stroke-linecap="round" stroke-linejoin="round" stroke-width="2"/>
            <path id="Path_22916" data-name="Path 22916" d="M48.932-75.623c-.324.2-.622.1-.675-.249-.011-.09-.026-.185-.038-.279a1.21,1.21,0,0,1,.569-1.07c1.67-1,3.524-2.163,5.348-3.385.4-.264.716-.166.712.215a1.775,1.775,0,0,1-.693,1.2C52.324-77.835,50.508-76.61,48.932-75.623Z" transform="translate(-48.214 80.754)" fill="none" stroke="#8f3815" stroke-linecap="round" stroke-linejoin="round" stroke-width="2"/>
          </g>
        </g>
        <g id="Group_8163" data-name="Group 8163">
          <g id="Group_8153" data-name="Group 8153" transform="translate(0 1.773)">
            <g id="Group_8150" data-name="Group 8150">
              <path id="Path_22917" data-name="Path 22917" d="M39.752-90.638c-1.862-.569-3.784-1.146-5.616-1.689a5.323,5.323,0,0,0-2.423-.041C29.93-91.9,28.275-91.43,26.9-91a1.6,1.6,0,0,0-.942,1.432,2.5,2.5,0,0,0,.388,1.372c-.109.072-.207.143-.3.207.023.558.049,1.108.079,1.658v.026c.008.106.011.207.019.309l.034.023a2.623,2.623,0,0,0,1.259,1.6,7.369,7.369,0,0,0,5.6.543c.075.038.151.075.226.117a2.2,2.2,0,0,0,1.979-.064c1.462-.957,3.094-2.088,4.726-3.305A2.773,2.773,0,0,0,41-89.048,1.822,1.822,0,0,0,39.752-90.638Z" transform="translate(-25.956 92.488)" fill="none" stroke="#8f3815" stroke-linecap="round" stroke-linejoin="round" stroke-width="2"/>
            </g>
            <g id="Group_8151" data-name="Group 8151">
              <path id="Path_22918" data-name="Path 22918" d="M39.752-90.638c-1.862-.569-3.784-1.146-5.616-1.689a5.323,5.323,0,0,0-2.423-.041C29.93-91.9,28.275-91.43,26.9-91a1.6,1.6,0,0,0-.942,1.432,2.5,2.5,0,0,0,.388,1.372c-.109.072-.207.143-.3.207.023.558.049,1.108.079,1.658v.026c.008.106.011.207.019.309l.034.023a2.623,2.623,0,0,0,1.259,1.6,7.369,7.369,0,0,0,5.6.543c.075.038.151.075.226.117a2.2,2.2,0,0,0,1.979-.064c1.462-.957,3.094-2.088,4.726-3.305A2.773,2.773,0,0,0,41-89.048,1.822,1.822,0,0,0,39.752-90.638Z" transform="translate(-25.956 92.488)" fill="none" stroke="#8f3815" stroke-linecap="round" stroke-linejoin="round" stroke-width="2"/>
            </g>
            <g id="Group_8152" data-name="Group 8152">
              <path id="Path_22919" data-name="Path 22919" d="M39.752-90.638c-1.862-.569-3.784-1.146-5.616-1.689a5.323,5.323,0,0,0-2.423-.041C29.93-91.9,28.275-91.43,26.9-91a1.6,1.6,0,0,0-.942,1.432,2.5,2.5,0,0,0,.388,1.372c-.109.072-.207.143-.3.207.023.558.049,1.108.079,1.658v.026c.008.106.011.207.019.309l.034.023a2.623,2.623,0,0,0,1.259,1.6,7.369,7.369,0,0,0,5.6.543c.075.038.151.075.226.117a2.2,2.2,0,0,0,1.979-.064c1.462-.957,3.094-2.088,4.726-3.305A2.773,2.773,0,0,0,41-89.048,1.822,1.822,0,0,0,39.752-90.638Z" transform="translate(-25.956 92.488)" fill="none" stroke="#8f3815" stroke-linecap="round" stroke-linejoin="round" stroke-width="2"/>
            </g>
          </g>
          <path id="Path_22920" data-name="Path 22920" d="M30.453-72.381c-1.549-.592-1.542-1.421.147-.716a7.054,7.054,0,0,0,1.726.328c.015.271.034.539.057.8A5.6,5.6,0,0,1,30.453-72.381Z" transform="translate(-28.047 82.347)" fill="none" stroke="#8f3815" stroke-linecap="round" stroke-linejoin="round" stroke-width="2"/>
          <path id="Path_22921" data-name="Path 22921" d="M41.05-73.62c.053.562.113,1.1.177,1.594a8.367,8.367,0,0,1-2.054.279.77.77,0,0,0,.663-.912.767.767,0,0,0-.867-.75C39.648-73.473,40.342-73.541,41.05-73.62Z" transform="translate(-34.065 82.505)" fill="none" stroke="#8f3815" stroke-linecap="round" stroke-linejoin="round" stroke-width="2"/>
          <g id="Group_8157" data-name="Group 8157" transform="translate(0.079 0)">
            <g id="Group_8154" data-name="Group 8154">
              <path id="Path_22922" data-name="Path 22922" d="M40.47-93.2c-2.047-1.255-4.21-2.552-6.189-3.716a2.565,2.565,0,0,0-2.186-.06,61.266,61.266,0,0,0-5.589,3.109.647.647,0,0,0-.038,1.119c.09.072.181.147.275.219-.9,1.063-.78,2.472.648,3.5a6.746,6.746,0,0,0,5.5.614c.064.038.128.075.192.109a2.239,2.239,0,0,0,2.084-.008C36.859-89.37,38.7-90.573,40.5-91.8A.775.775,0,0,0,40.47-93.2ZM28.891-90.411a1.331,1.331,0,0,1-.109-2.386c1.217.8,2.582,1.636,4,2.454A4.008,4.008,0,0,1,28.891-90.411Z" transform="translate(-26.164 97.192)" fill="none" stroke="#8f3815" stroke-linecap="round" stroke-linejoin="round" stroke-width="2"/>
            </g>
            <g id="Group_8155" data-name="Group 8155">
              <path id="Path_22923" data-name="Path 22923" d="M40.47-93.2c-2.047-1.255-4.21-2.552-6.189-3.716a2.565,2.565,0,0,0-2.186-.06,61.266,61.266,0,0,0-5.589,3.109.647.647,0,0,0-.038,1.119c.09.072.181.147.275.219-.9,1.063-.78,2.472.648,3.5a6.746,6.746,0,0,0,5.5.614c.064.038.128.075.192.109a2.239,2.239,0,0,0,2.084-.008C36.859-89.37,38.7-90.573,40.5-91.8A.775.775,0,0,0,40.47-93.2ZM28.891-90.411a1.331,1.331,0,0,1-.109-2.386c1.217.8,2.582,1.636,4,2.454A4.008,4.008,0,0,1,28.891-90.411Z" transform="translate(-26.164 97.192)" fill="none" stroke="#8f3815" stroke-linecap="round" stroke-linejoin="round" stroke-width="2"/>
            </g>
            <g id="Group_8156" data-name="Group 8156">
              <path id="Path_22924" data-name="Path 22924" d="M40.47-93.2c-2.047-1.255-4.21-2.552-6.189-3.716a2.565,2.565,0,0,0-2.186-.06,61.266,61.266,0,0,0-5.589,3.109.647.647,0,0,0-.038,1.119c.09.072.181.147.275.219-.9,1.063-.78,2.472.648,3.5a6.746,6.746,0,0,0,5.5.614c.064.038.128.075.192.109a2.239,2.239,0,0,0,2.084-.008C36.859-89.37,38.7-90.573,40.5-91.8A.775.775,0,0,0,40.47-93.2ZM28.891-90.411a1.331,1.331,0,0,1-.109-2.386c1.217.8,2.582,1.636,4,2.454A4.008,4.008,0,0,1,28.891-90.411Z" transform="translate(-26.164 97.192)" fill="none" stroke="#8f3815" stroke-linecap="round" stroke-linejoin="round" stroke-width="2"/>
            </g>
          </g>
          <g id="Group_8161" data-name="Group 8161" transform="translate(6.784)">
            <g id="Group_8158" data-name="Group 8158">
              <path id="Path_22925" data-name="Path 22925" d="M51.555-93.2c-2.047-1.255-4.21-2.552-6.189-3.716a2.471,2.471,0,0,0-1.387-.268,79.769,79.769,0,0,0,.275,8.921,2.239,2.239,0,0,0,2-.049c1.689-1.055,3.532-2.258,5.326-3.483A.776.776,0,0,0,51.555-93.2Z" transform="translate(-43.954 97.193)" fill="none" stroke="#8f3815" stroke-linecap="round" stroke-linejoin="round" stroke-width="2"/>
            </g>
            <g id="Group_8159" data-name="Group 8159">
              <path id="Path_22926" data-name="Path 22926" d="M51.555-93.2c-2.047-1.255-4.21-2.552-6.189-3.716a2.471,2.471,0,0,0-1.387-.268,79.769,79.769,0,0,0,.275,8.921,2.239,2.239,0,0,0,2-.049c1.689-1.055,3.532-2.258,5.326-3.483A.776.776,0,0,0,51.555-93.2Z" transform="translate(-43.954 97.193)" fill="none" stroke="#8f3815" stroke-linecap="round" stroke-linejoin="round" stroke-width="2"/>
            </g>
            <g id="Group_8160" data-name="Group 8160">
              <path id="Path_22927" data-name="Path 22927" d="M51.555-93.2c-2.047-1.255-4.21-2.552-6.189-3.716a2.471,2.471,0,0,0-1.387-.268,79.769,79.769,0,0,0,.275,8.921,2.239,2.239,0,0,0,2-.049c1.689-1.055,3.532-2.258,5.326-3.483A.776.776,0,0,0,51.555-93.2Z" transform="translate(-43.954 97.193)" fill="none" stroke="#8f3815" stroke-linecap="round" stroke-linejoin="round" stroke-width="2"/>
            </g>
          </g>
          <g id="Group_8162" data-name="Group 8162" transform="translate(8.341 5.335)">
            <path id="Path_22928" data-name="Path 22928" d="M48.808-77.69c-.332.219-.637.106-.682-.271-.011-.1-.023-.2-.034-.3a1.312,1.312,0,0,1,.588-1.134c1.7-1.055,3.577-2.261,5.4-3.494.4-.268.716-.166.716.222a1.8,1.8,0,0,1-.686,1.225C52.271-80.049,50.425-78.753,48.808-77.69Z" transform="translate(-48.086 83.037)" fill="none" stroke="#8f3815" stroke-linecap="round" stroke-linejoin="round" stroke-width="2"/>
            <path id="Path_22929" data-name="Path 22929" d="M48.808-77.69c-.332.219-.637.106-.682-.271-.011-.1-.023-.2-.034-.3a1.312,1.312,0,0,1,.588-1.134c1.7-1.055,3.577-2.261,5.4-3.494.4-.268.716-.166.716.222a1.8,1.8,0,0,1-.686,1.225C52.271-80.049,50.425-78.753,48.808-77.69Z" transform="translate(-48.086 83.037)" fill="none" stroke="#8f3815" stroke-linecap="round" stroke-linejoin="round" stroke-width="2"/>
          </g>
        </g>
        <g id="Group_8171" data-name="Group 8171">
          <g id="Group_8165" data-name="Group 8165" transform="translate(0 1.773)">
            <g id="Group_8164" data-name="Group 8164">
              <path id="Path_22930" data-name="Path 22930" d="M39.752-90.638c-1.862-.569-3.784-1.146-5.616-1.689a5.323,5.323,0,0,0-2.423-.041C29.93-91.9,28.275-91.43,26.9-91a1.6,1.6,0,0,0-.942,1.432,2.5,2.5,0,0,0,.388,1.372c-.109.072-.207.143-.3.207.023.558.049,1.108.079,1.658v.026c.008.106.011.207.019.309l.034.023a2.623,2.623,0,0,0,1.259,1.6,7.369,7.369,0,0,0,5.6.543c.075.038.151.075.226.117a2.2,2.2,0,0,0,1.979-.064c1.462-.957,3.094-2.088,4.726-3.305A2.773,2.773,0,0,0,41-89.048,1.822,1.822,0,0,0,39.752-90.638Z" transform="translate(-25.956 92.488)" fill="#ff7e00"/>
            </g>
          </g>
          <path id="Path_22931" data-name="Path 22931" d="M30.453-72.381c-1.549-.592-1.542-1.421.147-.716a7.054,7.054,0,0,0,1.726.328c.015.271.034.539.057.8A5.6,5.6,0,0,1,30.453-72.381Z" transform="translate(-28.047 82.347)" fill="url(#linear-gradient)"/>
          <path id="Path_22932" data-name="Path 22932" d="M41.05-73.62c.053.562.113,1.1.177,1.594a8.367,8.367,0,0,1-2.054.279.77.77,0,0,0,.663-.912.767.767,0,0,0-.867-.75C39.648-73.473,40.342-73.541,41.05-73.62Z" transform="translate(-34.065 82.505)" fill="#8f3815" opacity="0.25"/>
          <g id="Group_8167" data-name="Group 8167" transform="translate(0.079 0)">
            <g id="Group_8166" data-name="Group 8166">
              <path id="Path_22933" data-name="Path 22933" d="M40.47-93.2c-2.047-1.255-4.21-2.552-6.189-3.716a2.565,2.565,0,0,0-2.186-.06,61.266,61.266,0,0,0-5.589,3.109.647.647,0,0,0-.038,1.119c.09.072.181.147.275.219-.9,1.063-.78,2.472.648,3.5a6.746,6.746,0,0,0,5.5.614c.064.038.128.075.192.109a2.239,2.239,0,0,0,2.084-.008C36.859-89.37,38.7-90.573,40.5-91.8A.775.775,0,0,0,40.47-93.2ZM28.891-90.411a1.331,1.331,0,0,1-.109-2.386c1.217.8,2.582,1.636,4,2.454A4.008,4.008,0,0,1,28.891-90.411Z" transform="translate(-26.164 97.192)" fill="#ffd01c"/>
            </g>
          </g>
          <g id="Group_8169" data-name="Group 8169" transform="translate(6.784)">
            <g id="Group_8168" data-name="Group 8168">
              <path id="Path_22934" data-name="Path 22934" d="M51.555-93.2c-2.047-1.255-4.21-2.552-6.189-3.716a2.471,2.471,0,0,0-1.387-.268,79.769,79.769,0,0,0,.275,8.921,2.239,2.239,0,0,0,2-.049c1.689-1.055,3.532-2.258,5.326-3.483A.776.776,0,0,0,51.555-93.2Z" transform="translate(-43.954 97.193)" fill="#ffff6e"/>
            </g>
          </g>
          <g id="Group_8170" data-name="Group 8170" transform="translate(8.341 5.335)" opacity="0.25">
            <path id="Path_22935" data-name="Path 22935" d="M48.808-77.69c-.332.219-.637.106-.682-.271-.011-.1-.023-.2-.034-.3a1.312,1.312,0,0,1,.588-1.134c1.7-1.055,3.577-2.261,5.4-3.494.4-.268.716-.166.716.222a1.8,1.8,0,0,1-.686,1.225C52.271-80.049,50.425-78.753,48.808-77.69Z" transform="translate(-48.086 83.037)" fill="#8f3815"/>
          </g>
        </g>
      </g>
      <g id="Group_8173" data-name="Group 8173" transform="translate(0.085 8.175)">
        <path id="Path_22936" data-name="Path 22936" d="M26.215-84.515A2.411,2.411,0,0,0,27.4-82.091a6.762,6.762,0,0,0,5.5.618c.06.034.121.068.181.106a2.239,2.239,0,0,0,2.084,0c1.692-1.059,3.547-2.265,5.344-3.5a.747.747,0,0,0,.2-1.2,1.2,1.2,0,0,1-.215.192c-1.794,1.232-3.66,2.476-5.386,3.588a2.187,2.187,0,0,1-2.111,0c-.06-.038-.121-.072-.181-.109a6.554,6.554,0,0,1-5.5-.6A2.706,2.706,0,0,1,26.215-84.515Z" transform="translate(-26.181 86.06)" fill="#ffff6e"/>
      </g>
      <path id="Path_22937" data-name="Path 22937" d="M49.21-87.52c.023,1.1.057,2.2.106,3.253.874-.543,1.775-1.108,2.684-1.685-.931-.52-1.869-1.048-2.789-1.568" transform="translate(-40.446 95.144)" fill="#ffb000"/>
      <g id="Group_8175" data-name="Group 8175" transform="translate(3.169 5.476)">
        <g id="Group_8174" data-name="Group 8174">
          <path id="Path_22938" data-name="Path 22938" d="M34.758-90.642l.305.192c.648-.339,1.33-.69,2.031-1.04a2.661,2.661,0,0,1,2.239.068c1.21.686,2.457,1.391,3.686,2.073.049-.034.1-.064.143-.1a.746.746,0,0,0-.057-1.379l-3.8-2.126A2.66,2.66,0,0,0,37.083-93c-.8.4-1.564.8-2.292,1.195A.615.615,0,0,0,34.758-90.642Z" transform="translate(-34.363 93.22)" fill="#ff7e00"/>
        </g>
      </g>
      <path id="Path_22939" data-name="Path 22939" d="M40.358-92.849c0,.5,0,1,.008,1.5.094-.045.185-.094.279-.139a2.654,2.654,0,0,1,2.235.075c.079.045.158.09.241.136-.011-.513-.015-1.025-.019-1.53-.079-.045-.158-.09-.237-.132a2.653,2.653,0,0,0-2.224-.053C40.546-92.947,40.452-92.9,40.358-92.849Z" transform="translate(-34.929 98.69)" fill="#8f3815" opacity="0.25"/>
      <g id="Group_8176" data-name="Group 8176" transform="translate(3.333 7.591)">
        <path id="Path_22940" data-name="Path 22940" d="M34.8-87.61c1.606,1.059,3.445,2.2,5.311,3.283,1.142-.652,2.329-1.342,3.516-2.039" transform="translate(-34.8 87.61)" fill="none" stroke="#ff7e00" stroke-linecap="round" stroke-linejoin="round" stroke-width="2"/>
      </g>
      <g id="Group_8177" data-name="Group 8177" transform="translate(21.739 0.458)">
        <path id="Path_22941" data-name="Path 22941" d="M83.941-104.581c-.132.275-.264.2-.3-.173a4.329,4.329,0,0,1,.128-1.334l.057-.192c.109-.362.234-.335.268.064.011.128.023.26.034.392A2.943,2.943,0,0,1,83.941-104.581Z" transform="translate(-83.634 106.535)" fill="#95a9ac"/>
      </g>
    </g>
  </g>
  <rect id="Rectangle_566" data-name="Rectangle 566" width="26" height="26" fill="none"/>
</svg>
