<svg id="add_x5F_button_14_" xmlns="http://www.w3.org/2000/svg" width="24" height="24" viewBox="0 0 24 24">
  <circle id="Ellipse_1190" data-name="Ellipse 1190" cx="10.128" cy="10.128" r="10.128" transform="translate(1.873 1.873)" fill="#5c45cf"/>
  <path id="Path_31363" data-name="Path 31363" d="M1698.527,309.375a10.1,10.1,0,0,1-9.811-7.675,10.769,10.769,0,0,0-.317,2.453,10.128,10.128,0,0,0,20.255,0,9.475,9.475,0,0,0-.317-2.453A10.125,10.125,0,0,1,1698.527,309.375Z" transform="translate(-1686.527 -292.153)" opacity="0.05"/>
  <path id="Path_31364" data-name="Path 31364" d="M1693.3,267.373a10.127,10.127,0,1,1-10.128,10.127,10.13,10.13,0,0,1,10.128-10.127m0-1.873a12,12,0,1,0,12,12,12.01,12.01,0,0,0-12-12Z" transform="translate(-1681.3 -265.5)" fill="#8063f2"/>
  <path id="Path_31365" data-name="Path 31365" d="M1714.774,293.5h-2.136v-2.136a1.767,1.767,0,0,0-1.767-1.767h0a1.767,1.767,0,0,0-1.767,1.767V293.5h-2.136a1.767,1.767,0,0,0-1.767,1.767h0a1.767,1.767,0,0,0,1.767,1.767h2.136v2.136a1.767,1.767,0,0,0,1.767,1.767h0a1.767,1.767,0,0,0,1.767-1.767v-2.136h2.136a1.767,1.767,0,0,0,1.767-1.767h0A1.75,1.75,0,0,0,1714.774,293.5Z" transform="translate(-1698.897 -283.244)" fill="#fff"/>
</svg>
