<svg id="Component_8_2" data-name="Component 8 – 2" xmlns="http://www.w3.org/2000/svg" xmlns:xlink="http://www.w3.org/1999/xlink" width="117.481" height="57.354" viewBox="0 0 117.481 57.354">
  <defs>
    <linearGradient id="linear-gradient" y1="0.111" x2="0.97" y2="0.971" gradientUnits="objectBoundingBox">
      <stop offset="0" stop-color="#d9e5e2"/>
      <stop offset="1" stop-color="#adaa9c"/>
    </linearGradient>
  </defs>
  <g id="Group_1447" data-name="Group 1447">
    <path id="Path_1466" data-name="Path 1466" d="M220.02,347.733c-2.328,0-3.462,35.72,0,35.72H212.2l.478-37.752Z" transform="translate(-102.539 -336.915)" fill="#9c9395"/>
    <path id="Path_1467" data-name="Path 1467" d="M28.5,347.733c2.328,0,3.462,35.72,0,35.72h7.82L35.843,345.7Z" transform="translate(-28.5 -336.915)" fill="#9c9395"/>
    <g id="Group_1446" data-name="Group 1446">
      <g id="Group_1443" data-name="Group 1443">
        <g id="Group_1441" data-name="Group 1441">
          <path id="Path_1468" data-name="Path 1468" d="M141.624,362.277c0-9.874,1.91-17.86,4.3-17.86V337.23c-1.612,0-2.985-1.6-2.985-3.63H31.485c0,1.96-1.313,3.63-2.985,3.63v7.187c2.388,0,4.3,7.986,4.3,17.86s-1.91,17.86-4.3,17.86v7.188c1.612,0,2.985,1.6,2.985,3.63H143c0-1.96,1.313-3.63,2.985-3.63v-7.187C143.594,380.137,141.624,372.151,141.624,362.277Z" transform="translate(-28.5 -333.6)" fill="url(#linear-gradient)"/>
        </g>
        <g id="Group_1442" data-name="Group 1442" transform="translate(1.552 49.586)">
          <line id="Line_17" data-name="Line 17" x2="114.437" transform="translate(0 0.871)" fill="none" stroke="#9c9395" stroke-width="1.165"/>
          <line id="Line_18" data-name="Line 18" x2="114.437" fill="none" stroke="#c4c4c4" stroke-width="1.165"/>
        </g>
        <line id="Line_19" data-name="Line 19" x2="114.437" transform="translate(1.552 7.405)" fill="none" stroke="#c4c4c4" stroke-width="1.165"/>
        <line id="Line_20" data-name="Line 20" x2="114.437" transform="translate(1.552 6.534)" fill="none" stroke="#9c9395" stroke-width="1.165"/>
      </g>
    </g>
  </g>
  <g id="Group_1448" data-name="Group 1448" transform="translate(8.477 20.4)" opacity="0.08">
    <path id="Path_1469" data-name="Path 1469" d="M178.8,386.166h19.759V361.7Z" transform="translate(-97.554 -361.7)"/>
    <path id="Path_1470" data-name="Path 1470" d="M62.459,386.166H42.7V361.7Z" transform="translate(-42.7 -361.7)"/>
  </g>
</svg>
