<svg id="Component_7_2" data-name="Component 7 – 2" xmlns="http://www.w3.org/2000/svg" width="117.482" height="57.355" viewBox="0 0 117.482 57.355">
  <g id="Group_1457" data-name="Group 1457">
    <g id="Group_1424" data-name="Group 1424">
      <g id="Group_1419" data-name="Group 1419">
        <rect id="Rectangle_90" data-name="Rectangle 90" width="87.133" height="57.292" transform="translate(15.547)" fill="#fe9700"/>
        <path id="Path_1422" data-name="Path 1422" d="M264.14,192.4l-4.54,3.931v49.492l4.54,3.931h10.945V192.4Z" transform="translate(-259.6 -192.4)" fill="#feb64d"/>
        <path id="Path_1423" data-name="Path 1423" d="M458.761,192.4H448.5v57.292h10.261l4.54-3.931V196.277C461.5,194.769,460.5,193.908,458.761,192.4Z" transform="translate(-345.819 -192.4)" fill="#f47c00"/>
      </g>
      <g id="Group_1423" data-name="Group 1423" transform="translate(10.696 1.306)">
        <g id="Group_1422" data-name="Group 1422">
          <g id="Group_1420" data-name="Group 1420" transform="translate(87.133)">
            <path id="Path_1424" data-name="Path 1424" d="M440.7,195.744h0a1.247,1.247,0,0,1,1.244-1.244h7.214a1.247,1.247,0,0,1,1.244,1.244h0a1.247,1.247,0,0,1-1.244,1.244h-7.214A1.336,1.336,0,0,1,440.7,195.744Z" transform="translate(-440.7 -194.5)" fill="#fff"/>
            <path id="Path_1425" data-name="Path 1425" d="M440.7,203.244h0A1.247,1.247,0,0,1,441.944,202h7.214a1.247,1.247,0,0,1,1.244,1.244h0a1.247,1.247,0,0,1-1.244,1.244h-7.214A1.247,1.247,0,0,1,440.7,203.244Z" transform="translate(-440.7 -197.336)" fill="#fff"/>
            <path id="Path_1426" data-name="Path 1426" d="M440.7,210.844h0a1.247,1.247,0,0,1,1.244-1.244h7.214a1.247,1.247,0,0,1,1.244,1.244h0a1.247,1.247,0,0,1-1.244,1.244h-7.214A1.247,1.247,0,0,1,440.7,210.844Z" transform="translate(-440.7 -200.209)" fill="#fff"/>
            <path id="Path_1427" data-name="Path 1427" d="M440.7,218.344h0a1.247,1.247,0,0,1,1.244-1.244h7.214a1.247,1.247,0,0,1,1.244,1.244h0a1.247,1.247,0,0,1-1.244,1.244h-7.214A1.247,1.247,0,0,1,440.7,218.344Z" transform="translate(-440.7 -205.086)" fill="#fff"/>
            <path id="Path_1428" data-name="Path 1428" d="M440.7,225.944h0a1.247,1.247,0,0,1,1.244-1.244h7.214a1.247,1.247,0,0,1,1.244,1.244h0a1.247,1.247,0,0,1-1.244,1.244h-7.214A1.247,1.247,0,0,1,440.7,225.944Z" transform="translate(-440.7 -208.646)" fill="#fff"/>
            <path id="Path_1429" data-name="Path 1429" d="M440.7,233.544h0a1.247,1.247,0,0,1,1.244-1.244h7.214a1.247,1.247,0,0,1,1.244,1.244h0a1.247,1.247,0,0,1-1.244,1.244h-7.214A1.336,1.336,0,0,1,440.7,233.544Z" transform="translate(-440.7 -212.206)" fill="#fff"/>
            <path id="Path_1430" data-name="Path 1430" d="M440.7,241.044h0a1.247,1.247,0,0,1,1.244-1.244h7.214a1.247,1.247,0,0,1,1.244,1.244h0a1.247,1.247,0,0,1-1.244,1.244h-7.214A1.247,1.247,0,0,1,440.7,241.044Z" transform="translate(-440.7 -215.719)" fill="#fff"/>
            <path id="Path_1431" data-name="Path 1431" d="M440.7,248.644h0a1.247,1.247,0,0,1,1.244-1.244h7.214a1.247,1.247,0,0,1,1.244,1.244h0a1.247,1.247,0,0,1-1.244,1.244h-7.214A1.247,1.247,0,0,1,440.7,248.644Z" transform="translate(-440.7 -219.279)" fill="#fff"/>
            <path id="Path_1432" data-name="Path 1432" d="M440.7,256.244h0A1.247,1.247,0,0,1,441.944,255h7.214a1.247,1.247,0,0,1,1.244,1.244h0a1.247,1.247,0,0,1-1.244,1.244h-7.214A1.336,1.336,0,0,1,440.7,256.244Z" transform="translate(-440.7 -222.839)" fill="#fff"/>
            <path id="Path_1433" data-name="Path 1433" d="M440.7,263.744h0a1.247,1.247,0,0,1,1.244-1.244h7.214a1.247,1.247,0,0,1,1.244,1.244h0a1.247,1.247,0,0,1-1.244,1.244h-7.214A1.247,1.247,0,0,1,440.7,263.744Z" transform="translate(-440.7 -226.352)" fill="#fff"/>
            <path id="Path_1434" data-name="Path 1434" d="M440.7,271.344h0a1.247,1.247,0,0,1,1.244-1.244h7.214a1.247,1.247,0,0,1,1.244,1.244h0a1.247,1.247,0,0,1-1.244,1.244h-7.214A1.29,1.29,0,0,1,440.7,271.344Z" transform="translate(-440.7 -229.912)" fill="#fff"/>
            <path id="Path_1435" data-name="Path 1435" d="M440.7,278.844h0a1.247,1.247,0,0,1,1.244-1.244h7.214a1.247,1.247,0,0,1,1.244,1.244h0a1.247,1.247,0,0,1-1.244,1.244h-7.214A1.247,1.247,0,0,1,440.7,278.844Z" transform="translate(-440.7 -234.798)" fill="#fff"/>
            <path id="Path_1436" data-name="Path 1436" d="M440.7,286.444h0a1.247,1.247,0,0,1,1.244-1.244h7.214a1.247,1.247,0,0,1,1.244,1.244h0a1.247,1.247,0,0,1-1.244,1.244h-7.214A1.247,1.247,0,0,1,440.7,286.444Z" transform="translate(-440.7 -237.671)" fill="#fff"/>
            <path id="Path_1437" data-name="Path 1437" d="M440.7,294.044h0a1.247,1.247,0,0,1,1.244-1.244h7.214a1.247,1.247,0,0,1,1.244,1.244h0a1.247,1.247,0,0,1-1.244,1.244h-7.214A1.336,1.336,0,0,1,440.7,294.044Z" transform="translate(-440.7 -240.545)" fill="#fff"/>
          </g>
          <g id="Group_1421" data-name="Group 1421">
            <path id="Path_1438" data-name="Path 1438" d="M276.8,195.744h0a1.247,1.247,0,0,1,1.244-1.244h7.214a1.247,1.247,0,0,1,1.244,1.244h0a1.247,1.247,0,0,1-1.244,1.244h-7.214A1.336,1.336,0,0,1,276.8,195.744Z" transform="translate(-276.8 -194.5)" fill="#fff"/>
            <path id="Path_1439" data-name="Path 1439" d="M276.8,203.244h0A1.247,1.247,0,0,1,278.044,202h7.214a1.247,1.247,0,0,1,1.244,1.244h0a1.247,1.247,0,0,1-1.244,1.244h-7.214A1.247,1.247,0,0,1,276.8,203.244Z" transform="translate(-276.8 -197.336)" fill="#fff"/>
            <path id="Path_1440" data-name="Path 1440" d="M276.8,210.844h0a1.247,1.247,0,0,1,1.244-1.244h7.214a1.247,1.247,0,0,1,1.244,1.244h0a1.247,1.247,0,0,1-1.244,1.244h-7.214A1.247,1.247,0,0,1,276.8,210.844Z" transform="translate(-276.8 -200.209)" fill="#fff"/>
            <path id="Path_1441" data-name="Path 1441" d="M276.8,218.344h0a1.247,1.247,0,0,1,1.244-1.244h7.214a1.247,1.247,0,0,1,1.244,1.244h0a1.247,1.247,0,0,1-1.244,1.244h-7.214A1.247,1.247,0,0,1,276.8,218.344Z" transform="translate(-276.8 -205.086)" fill="#fff"/>
            <path id="Path_1442" data-name="Path 1442" d="M276.8,225.944h0a1.247,1.247,0,0,1,1.244-1.244h7.214a1.247,1.247,0,0,1,1.244,1.244h0a1.247,1.247,0,0,1-1.244,1.244h-7.214A1.247,1.247,0,0,1,276.8,225.944Z" transform="translate(-276.8 -208.646)" fill="#fff"/>
            <path id="Path_1443" data-name="Path 1443" d="M276.8,233.544h0a1.247,1.247,0,0,1,1.244-1.244h7.214a1.247,1.247,0,0,1,1.244,1.244h0a1.247,1.247,0,0,1-1.244,1.244h-7.214A1.336,1.336,0,0,1,276.8,233.544Z" transform="translate(-276.8 -212.206)" fill="#fff"/>
            <path id="Path_1444" data-name="Path 1444" d="M276.8,241.044h0a1.247,1.247,0,0,1,1.244-1.244h7.214a1.247,1.247,0,0,1,1.244,1.244h0a1.247,1.247,0,0,1-1.244,1.244h-7.214A1.247,1.247,0,0,1,276.8,241.044Z" transform="translate(-276.8 -215.719)" fill="#fff"/>
            <path id="Path_1445" data-name="Path 1445" d="M276.8,248.644h0a1.247,1.247,0,0,1,1.244-1.244h7.214a1.247,1.247,0,0,1,1.244,1.244h0a1.247,1.247,0,0,1-1.244,1.244h-7.214A1.247,1.247,0,0,1,276.8,248.644Z" transform="translate(-276.8 -219.279)" fill="#fff"/>
            <path id="Path_1446" data-name="Path 1446" d="M276.8,256.244h0A1.247,1.247,0,0,1,278.044,255h7.214a1.247,1.247,0,0,1,1.244,1.244h0a1.247,1.247,0,0,1-1.244,1.244h-7.214A1.336,1.336,0,0,1,276.8,256.244Z" transform="translate(-276.8 -222.839)" fill="#fff"/>
            <path id="Path_1447" data-name="Path 1447" d="M276.8,263.744h0a1.247,1.247,0,0,1,1.244-1.244h7.214a1.247,1.247,0,0,1,1.244,1.244h0a1.247,1.247,0,0,1-1.244,1.244h-7.214A1.247,1.247,0,0,1,276.8,263.744Z" transform="translate(-276.8 -226.352)" fill="#fff"/>
            <path id="Path_1448" data-name="Path 1448" d="M276.8,271.344h0a1.247,1.247,0,0,1,1.244-1.244h7.214a1.247,1.247,0,0,1,1.244,1.244h0a1.247,1.247,0,0,1-1.244,1.244h-7.214A1.29,1.29,0,0,1,276.8,271.344Z" transform="translate(-276.8 -229.912)" fill="#fff"/>
            <path id="Path_1449" data-name="Path 1449" d="M276.8,278.844h0a1.247,1.247,0,0,1,1.244-1.244h7.214a1.247,1.247,0,0,1,1.244,1.244h0a1.247,1.247,0,0,1-1.244,1.244h-7.214A1.247,1.247,0,0,1,276.8,278.844Z" transform="translate(-276.8 -234.798)" fill="#fff"/>
            <path id="Path_1450" data-name="Path 1450" d="M276.8,286.444h0a1.247,1.247,0,0,1,1.244-1.244h7.214a1.247,1.247,0,0,1,1.244,1.244h0a1.247,1.247,0,0,1-1.244,1.244h-7.214A1.247,1.247,0,0,1,276.8,286.444Z" transform="translate(-276.8 -237.671)" fill="#fff"/>
            <path id="Path_1451" data-name="Path 1451" d="M276.8,294.044h0a1.247,1.247,0,0,1,1.244-1.244h7.214a1.247,1.247,0,0,1,1.244,1.244h0a1.247,1.247,0,0,1-1.244,1.244h-7.214A1.336,1.336,0,0,1,276.8,294.044Z" transform="translate(-276.8 -240.545)" fill="#fff"/>
          </g>
        </g>
      </g>
      <path id="Path_1452" data-name="Path 1452" d="M466.684,245.879h0a.635.635,0,0,1-.684-.553V208.853a.635.635,0,0,1,.684-.553h0a.635.635,0,0,1,.684.553v36.472A.635.635,0,0,1,466.684,245.879Z" transform="translate(-352.436 -198.412)" fill="#ee6c00"/>
      <path id="Path_1453" data-name="Path 1453" d="M265.484,245.879h0a.635.635,0,0,1-.684-.553V208.853a.635.635,0,0,1,.684-.553h0a.635.635,0,0,1,.684.553v36.472A.635.635,0,0,1,265.484,245.879Z" transform="translate(-261.566 -198.412)" fill="#fecb80"/>
    </g>
  </g>
</svg>
