<svg id="Component_9_13" data-name="Component 9 – 13" xmlns="http://www.w3.org/2000/svg" width="117.481" height="45.64" viewBox="0 0 117.481 45.64">
  <g id="Group_1411" data-name="Group 1411" transform="translate(15.288)">
    <g id="Group_1408" data-name="Group 1408" transform="translate(87.164 1.283)">
      <path id="Path_1367" data-name="Path 1367" d="M448.872,340.1a.678.678,0,0,0-.672.672v3.116a.672.672,0,1,0,1.344,0v-3.116A.61.61,0,0,0,448.872,340.1Z" transform="translate(-448.2 -340.1)" fill="#fff"/>
      <path id="Path_1368" data-name="Path 1368" d="M448.872,349a.678.678,0,0,0-.672.672v3.116a.672.672,0,1,0,1.344,0v-3.116A.61.61,0,0,0,448.872,349Z" transform="translate(-448.2 -343.562)" fill="#fff"/>
      <path id="Path_1369" data-name="Path 1369" d="M448.872,358a.678.678,0,0,0-.672.672v3.116a.672.672,0,1,0,1.344,0v-3.116A.61.61,0,0,0,448.872,358Z" transform="translate(-448.2 -347.064)" fill="#fff"/>
      <path id="Path_1370" data-name="Path 1370" d="M448.872,366.9a.678.678,0,0,0-.672.672v3.116a.672.672,0,1,0,1.344,0v-3.116A.61.61,0,0,0,448.872,366.9Z" transform="translate(-448.2 -350.526)" fill="#fff"/>
      <path id="Path_1371" data-name="Path 1371" d="M448.872,375.9a.678.678,0,0,0-.672.672v3.116a.672.672,0,1,0,1.344,0v-3.116A.61.61,0,0,0,448.872,375.9Z" transform="translate(-448.2 -354.027)" fill="#fff"/>
      <path id="Path_1372" data-name="Path 1372" d="M448.872,384.8a.678.678,0,0,0-.672.672v3.116a.672.672,0,1,0,1.344,0v-3.055A.63.63,0,0,0,448.872,384.8Z" transform="translate(-448.2 -357.49)" fill="#fff"/>
      <path id="Path_1373" data-name="Path 1373" d="M448.872,393.8a.678.678,0,0,0-.672.672v3.116a.672.672,0,0,0,1.344,0v-3.116A.61.61,0,0,0,448.872,393.8Z" transform="translate(-448.2 -360.991)" fill="#fff"/>
      <path id="Path_1374" data-name="Path 1374" d="M448.872,402.7a.678.678,0,0,0-.672.672v3.116a.672.672,0,1,0,1.344,0v-3.116A.61.61,0,0,0,448.872,402.7Z" transform="translate(-448.2 -364.453)" fill="#fff"/>
    </g>
    <g id="Group_1410" data-name="Group 1410" transform="translate(0)">
      <path id="Path_1375" data-name="Path 1375" d="M450.072,352.788v-3.116A.678.678,0,0,0,449.4,349v4.521A.693.693,0,0,0,450.072,352.788Z" transform="translate(-361.503 -342.279)" fill="#fe9f00"/>
      <path id="Path_1376" data-name="Path 1376" d="M450.072,343.888v-3.116a.678.678,0,0,0-.672-.672v4.521A.781.781,0,0,0,450.072,343.888Z" transform="translate(-361.503 -338.817)" fill="#fe9f00"/>
      <path id="Path_1377" data-name="Path 1377" d="M450.072,379.688v-3.116a.678.678,0,0,0-.672-.672v4.521A.781.781,0,0,0,450.072,379.688Z" transform="translate(-361.503 -352.744)" fill="#fe9f00"/>
      <path id="Path_1378" data-name="Path 1378" d="M450.072,361.788v-3.116A.678.678,0,0,0,449.4,358v4.521A.781.781,0,0,0,450.072,361.788Z" transform="translate(-361.503 -345.781)" fill="#fe9f00"/>
      <path id="Path_1379" data-name="Path 1379" d="M450.072,370.688v-3.116a.678.678,0,0,0-.672-.672v4.521A.693.693,0,0,0,450.072,370.688Z" transform="translate(-361.503 -349.243)" fill="#fe9f00"/>
      <path id="Path_1380" data-name="Path 1380" d="M450.072,388.688v-3.116a.678.678,0,0,0-.672-.672v4.521A.781.781,0,0,0,450.072,388.688Z" transform="translate(-361.503 -356.245)" fill="#fe9f00"/>
      <path id="Path_1381" data-name="Path 1381" d="M450.072,397.588v-3.116a.678.678,0,0,0-.672-.672v4.521A.781.781,0,0,0,450.072,397.588Z" transform="translate(-361.503 -359.708)" fill="#fe9f00"/>
      <path id="Path_1382" data-name="Path 1382" d="M448.2,358.672v3.116a.678.678,0,0,0,.672.672V358A.678.678,0,0,0,448.2,358.672Z" transform="translate(-361.036 -345.781)" fill="#fec007"/>
      <path id="Path_1383" data-name="Path 1383" d="M448.2,367.533v3.116a.678.678,0,0,0,.672.672V366.8A.781.781,0,0,0,448.2,367.533Z" transform="translate(-361.036 -349.204)" fill="#fec007"/>
      <path id="Path_1384" data-name="Path 1384" d="M448.2,340.733v3.116a.678.678,0,0,0,.672.672V340A.781.781,0,0,0,448.2,340.733Z" transform="translate(-361.036 -338.778)" fill="#fec007"/>
      <path id="Path_1385" data-name="Path 1385" d="M448.2,349.672v3.116a.678.678,0,0,0,.672.672V349A.678.678,0,0,0,448.2,349.672Z" transform="translate(-361.036 -342.279)" fill="#fec007"/>
      <path id="Path_1386" data-name="Path 1386" d="M448.2,403.433v3.116a.678.678,0,0,0,.672.672V402.7A.693.693,0,0,0,448.2,403.433Z" transform="translate(-361.036 -363.17)" fill="#fec007"/>
      <path id="Path_1387" data-name="Path 1387" d="M448.2,394.433v3.116a.678.678,0,0,0,.672.672V393.7A.781.781,0,0,0,448.2,394.433Z" transform="translate(-361.036 -359.669)" fill="#fec007"/>
      <path id="Path_1388" data-name="Path 1388" d="M448.2,376.533v3.116a.678.678,0,0,0,.672.672V375.8A.781.781,0,0,0,448.2,376.533Z" transform="translate(-361.036 -352.705)" fill="#fec007"/>
      <path id="Path_1389" data-name="Path 1389" d="M448.2,385.533v3.116a.678.678,0,0,0,.672.672V384.8A.693.693,0,0,0,448.2,385.533Z" transform="translate(-361.036 -356.207)" fill="#fec007"/>
      <path id="Path_1390" data-name="Path 1390" d="M450.072,406.588v-3.116a.678.678,0,0,0-.672-.672v4.521A.781.781,0,0,0,450.072,406.588Z" transform="translate(-361.503 -363.209)" fill="#fe9f00"/>
      <g id="Group_1409" data-name="Group 1409">
        <rect id="Rectangle_87" data-name="Rectangle 87" width="85.698" height="45.517" fill="#f6c274"/>
      </g>
      <path id="Path_1391" data-name="Path 1391" d="M463.565,363.355l2.5-2.566-2.5-2.5,2.5-2.566-2.5-2.505,2.5-2.566-2.5-2.505,2.5-2.5-2.5-2.566,2.5-2.5-2.5-2.566H455.5v45.578h8.065l2.5-2.566-2.5-2.505,2.5-2.505-2.5-2.566,2.5-2.505-2.5-2.566,2.5-2.505Z" transform="translate(-363.876 -338)" fill="#ca5818"/>
      <path id="Path_1392" data-name="Path 1392" d="M461.265,363.355l2.505-2.566-2.505-2.5,2.505-2.566-2.505-2.505,2.505-2.566-2.505-2.505,2.505-2.5-2.505-2.566,2.505-2.5L461.265,338H453.2v45.578h8.065l2.505-2.566-2.505-2.505L463.77,376l-2.505-2.566,2.505-2.505-2.505-2.566,2.505-2.505Z" transform="translate(-362.981 -338)" fill="#eb8c57"/>
      <path id="Path_1393" data-name="Path 1393" d="M449.3,338v1.222a.678.678,0,0,1,.672.672v3.116a.678.678,0,0,1-.672.672v.978a.678.678,0,0,1,.672.672v3.116a.678.678,0,0,1-.672.672v.978a.678.678,0,0,1,.672.672v3.116a.678.678,0,0,1-.672.672v.978a.678.678,0,0,1,.672.672v3.116a.678.678,0,0,1-.672.672v.978a.678.678,0,0,1,.672.672v3.116a.678.678,0,0,1-.672.672v.978a.678.678,0,0,1,.672.672V370.2a.678.678,0,0,1-.672.672v.978a.678.678,0,0,1,.672.672v3.116a.678.678,0,0,1-.672.672v.978a.678.678,0,0,1,.672.672v3.116a.678.678,0,0,1-.672.672v1.527h2.322V338Z" transform="translate(-361.464 -338)" fill="#ca5818"/>
      <path id="Path_1394" data-name="Path 1394" d="M447.266,381.457v-3.116a.678.678,0,0,1,.672-.672v-.978a.678.678,0,0,1-.672-.672V372.9a.678.678,0,0,1,.672-.672v-.978a.678.678,0,0,1-.672-.672V367.4a.678.678,0,0,1,.672-.672v-.978a.678.678,0,0,1-.672-.672v-3.177a.678.678,0,0,1,.672-.672v-.978a.678.678,0,0,1-.672-.672v-3.177a.678.678,0,0,1,.672-.672v-.978a.678.678,0,0,1-.672-.672v-3.116a.678.678,0,0,1,.672-.672v-.978a.678.678,0,0,1-.672-.672v-3.116a.678.678,0,0,1,.672-.672v-.978a.678.678,0,0,1-.672-.672v-3.116a.678.678,0,0,1,.672-.672V338.2H445.8v45.517h2.138V382.19A.781.781,0,0,1,447.266,381.457Z" transform="translate(-360.102 -338.078)" fill="#f6c274"/>
    </g>
  </g>
  <g id="Group_1415" data-name="Group 1415">
    <g id="Group_1412" data-name="Group 1412" transform="translate(12.219 1.283)">
      <path id="Path_1395" data-name="Path 1395" d="M276.972,340.1a.678.678,0,0,1,.672.672v3.116a.672.672,0,0,1-1.344,0v-3.116A.678.678,0,0,1,276.972,340.1Z" transform="translate(-276.3 -340.1)" fill="#fff"/>
      <path id="Path_1396" data-name="Path 1396" d="M276.972,349a.678.678,0,0,1,.672.672v3.116a.672.672,0,0,1-1.344,0v-3.116A.678.678,0,0,1,276.972,349Z" transform="translate(-276.3 -343.562)" fill="#fff"/>
      <path id="Path_1397" data-name="Path 1397" d="M276.972,358a.678.678,0,0,1,.672.672v3.116a.672.672,0,0,1-1.344,0v-3.116A.678.678,0,0,1,276.972,358Z" transform="translate(-276.3 -347.064)" fill="#fff"/>
      <path id="Path_1398" data-name="Path 1398" d="M276.972,366.9a.678.678,0,0,1,.672.672v3.116a.672.672,0,1,1-1.344,0v-3.116A.678.678,0,0,1,276.972,366.9Z" transform="translate(-276.3 -350.526)" fill="#fff"/>
      <path id="Path_1399" data-name="Path 1399" d="M276.972,375.9a.678.678,0,0,1,.672.672v3.116a.672.672,0,0,1-1.344,0v-3.116A.678.678,0,0,1,276.972,375.9Z" transform="translate(-276.3 -354.027)" fill="#fff"/>
      <path id="Path_1400" data-name="Path 1400" d="M276.972,384.8a.678.678,0,0,1,.672.672v3.116a.672.672,0,1,1-1.344,0v-3.055A.693.693,0,0,1,276.972,384.8Z" transform="translate(-276.3 -357.49)" fill="#fff"/>
      <path id="Path_1401" data-name="Path 1401" d="M276.972,393.8a.678.678,0,0,1,.672.672v3.116a.672.672,0,0,1-1.344,0v-3.116A.678.678,0,0,1,276.972,393.8Z" transform="translate(-276.3 -360.991)" fill="#fff"/>
      <path id="Path_1402" data-name="Path 1402" d="M276.972,402.7a.678.678,0,0,1,.672.672v3.116a.672.672,0,1,1-1.344,0v-3.116A.678.678,0,0,1,276.972,402.7Z" transform="translate(-276.3 -364.453)" fill="#fff"/>
    </g>
    <g id="Group_1414" data-name="Group 1414">
      <path id="Path_1403" data-name="Path 1403" d="M276.3,352.788v-3.116a.678.678,0,0,1,.672-.672v4.521A.693.693,0,0,1,276.3,352.788Z" transform="translate(-264.081 -342.279)" fill="#fe9f00"/>
      <path id="Path_1404" data-name="Path 1404" d="M276.3,343.888v-3.116a.678.678,0,0,1,.672-.672v4.521A.781.781,0,0,1,276.3,343.888Z" transform="translate(-264.081 -338.817)" fill="#fe9f00"/>
      <path id="Path_1405" data-name="Path 1405" d="M276.3,379.688v-3.116a.678.678,0,0,1,.672-.672v4.521A.781.781,0,0,1,276.3,379.688Z" transform="translate(-264.081 -352.744)" fill="#fe9f00"/>
      <path id="Path_1406" data-name="Path 1406" d="M276.3,361.788v-3.116a.678.678,0,0,1,.672-.672v4.521A.781.781,0,0,1,276.3,361.788Z" transform="translate(-264.081 -345.781)" fill="#fe9f00"/>
      <path id="Path_1407" data-name="Path 1407" d="M276.3,370.688v-3.116a.678.678,0,0,1,.672-.672v4.521A.693.693,0,0,1,276.3,370.688Z" transform="translate(-264.081 -349.243)" fill="#fe9f00"/>
      <path id="Path_1408" data-name="Path 1408" d="M276.3,388.688v-3.116a.678.678,0,0,1,.672-.672v4.521A.781.781,0,0,1,276.3,388.688Z" transform="translate(-264.081 -356.245)" fill="#fe9f00"/>
      <path id="Path_1409" data-name="Path 1409" d="M276.3,397.588v-3.116a.678.678,0,0,1,.672-.672v4.521A.781.781,0,0,1,276.3,397.588Z" transform="translate(-264.081 -359.708)" fill="#fe9f00"/>
      <path id="Path_1410" data-name="Path 1410" d="M278.172,358.672v3.116a.678.678,0,0,1-.672.672V358A.722.722,0,0,1,278.172,358.672Z" transform="translate(-264.547 -345.781)" fill="#fec007"/>
      <path id="Path_1411" data-name="Path 1411" d="M278.172,367.533v3.116a.678.678,0,0,1-.672.672V366.8A.845.845,0,0,1,278.172,367.533Z" transform="translate(-264.547 -349.204)" fill="#fec007"/>
      <path id="Path_1412" data-name="Path 1412" d="M278.172,340.733v3.116a.678.678,0,0,1-.672.672V340A.845.845,0,0,1,278.172,340.733Z" transform="translate(-264.547 -338.778)" fill="#fec007"/>
      <path id="Path_1413" data-name="Path 1413" d="M278.172,349.672v3.116a.678.678,0,0,1-.672.672V349A.722.722,0,0,1,278.172,349.672Z" transform="translate(-264.547 -342.279)" fill="#fec007"/>
      <path id="Path_1414" data-name="Path 1414" d="M278.172,403.433v3.116a.678.678,0,0,1-.672.672V402.7A.735.735,0,0,1,278.172,403.433Z" transform="translate(-264.547 -363.17)" fill="#fec007"/>
      <path id="Path_1415" data-name="Path 1415" d="M278.172,394.433v3.116a.678.678,0,0,1-.672.672V393.7A.845.845,0,0,1,278.172,394.433Z" transform="translate(-264.547 -359.669)" fill="#fec007"/>
      <path id="Path_1416" data-name="Path 1416" d="M278.172,376.533v3.116a.678.678,0,0,1-.672.672V375.8A.845.845,0,0,1,278.172,376.533Z" transform="translate(-264.547 -352.705)" fill="#fec007"/>
      <path id="Path_1417" data-name="Path 1417" d="M278.172,385.533v3.116a.678.678,0,0,1-.672.672V384.8A.735.735,0,0,1,278.172,385.533Z" transform="translate(-264.547 -356.207)" fill="#fec007"/>
      <path id="Path_1418" data-name="Path 1418" d="M276.3,406.588v-3.116a.678.678,0,0,1,.672-.672v4.521A.781.781,0,0,1,276.3,406.588Z" transform="translate(-264.081 -363.209)" fill="#fe9f00"/>
      <path id="Path_1419" data-name="Path 1419" d="M258.805,363.355l-2.505-2.566,2.505-2.5-2.505-2.566,2.505-2.505-2.505-2.566,2.505-2.505-2.505-2.5,2.505-2.566-2.505-2.5L258.805,338h8.065v45.578h-8.065l-2.505-2.566,2.505-2.505L256.3,376l2.505-2.566-2.505-2.505,2.505-2.566L256.3,365.86Z" transform="translate(-256.3 -338)" fill="#eb8c57"/>
      <path id="Path_1420" data-name="Path 1420" d="M275.922,338v1.222a.678.678,0,0,0-.672.672v3.116a.678.678,0,0,0,.672.672v.978a.678.678,0,0,0-.672.672v3.116a.678.678,0,0,0,.672.672v.978a.678.678,0,0,0-.672.672v3.116a.678.678,0,0,0,.672.672v.978a.678.678,0,0,0-.672.672v3.116a.678.678,0,0,0,.672.672v.978a.678.678,0,0,0-.672.672v3.116a.678.678,0,0,0,.672.672v.978a.678.678,0,0,0-.672.672V370.2a.678.678,0,0,0,.672.672v.978a.678.678,0,0,0-.672.672v3.116a.678.678,0,0,0,.672.672v.978a.678.678,0,0,0-.672.672v3.116a.678.678,0,0,0,.672.672v1.527H273.6V338Z" transform="translate(-263.03 -338)" fill="#ca5818"/>
      <path id="Path_1421" data-name="Path 1421" d="M278.172,381.457v-3.116a.678.678,0,0,0-.672-.672v-.978a.678.678,0,0,0,.672-.672V372.9a.678.678,0,0,0-.672-.672v-.978a.678.678,0,0,0,.672-.672V367.4a.678.678,0,0,0-.672-.672v-.978a.678.678,0,0,0,.672-.672v-3.177a.678.678,0,0,0-.672-.672v-.978a.678.678,0,0,0,.672-.672v-3.177a.678.678,0,0,0-.672-.672v-.978a.678.678,0,0,0,.672-.672v-3.116a.678.678,0,0,0-.672-.672v-.978a.678.678,0,0,0,.672-.672v-3.116a.678.678,0,0,0-.672-.672v-.978a.678.678,0,0,0,.672-.672v-3.116a.678.678,0,0,0-.672-.672V338.2h2.138v45.517H277.5V382.19A.845.845,0,0,0,278.172,381.457Z" transform="translate(-264.547 -338.078)" fill="#f6c274"/>
    </g>
  </g>
  <rect id="Rectangle_89" data-name="Rectangle 89" width="78.44" height="35.375" transform="translate(19.429 4.949)" opacity="0.22"/>
</svg>
