<svg id="Component_51_19" data-name="Component 51 – 19" xmlns="http://www.w3.org/2000/svg" width="14.742" height="14.742" viewBox="0 0 14.742 14.742">
  <g id="Group_9301" data-name="Group 9301" transform="translate(0.614 0.614)">
    <path id="Path_24474" data-name="Path 24474" d="M43.514-288.665v.845c-.008.043-.018.085-.024.128-.032.235-.051.473-.1.7a6.615,6.615,0,0,1-2.278,3.894,6.577,6.577,0,0,1-5.044,1.572A6.489,6.489,0,0,1,32.509-283a6.662,6.662,0,0,1-2.4-4.078c-.044-.246-.07-.495-.1-.743v-.845a.767.767,0,0,0,.022-.1,6.492,6.492,0,0,1,1.092-3.177,6.673,6.673,0,0,1,4.493-2.953c.241-.044.485-.069.728-.1h.845c.23.03.461.054.69.092a6.615,6.615,0,0,1,3.342,1.6,6.659,6.659,0,0,1,2.2,3.906C43.454-289.161,43.479-288.912,43.514-288.665Zm-6.755,6.388a5.975,5.975,0,0,0,5.963-5.972,5.974,5.974,0,0,0-5.961-5.96,5.975,5.975,0,0,0-5.969,5.965A5.976,5.976,0,0,0,36.759-282.276Z" transform="translate(-30 295)" fill="#ff9100"/>
    <path id="Path_24479" data-name="Path 24479" d="M80.186-250.085a5.2,5.2,0,0,1,5.163,5.184,5.2,5.2,0,0,1-5.183,5.164A5.2,5.2,0,0,1,75-244.921,5.2,5.2,0,0,1,80.186-250.085Zm-.015.792a4.389,4.389,0,0,0-4.377,4.386,4.39,4.39,0,0,0,4.386,4.377,4.389,4.389,0,0,0,4.377-4.387A4.388,4.388,0,0,0,80.171-249.293Z" transform="translate(-73.419 251.669)" fill="#ff9100"/>
    <path id="Path_24481" data-name="Path 24481" d="M132.017-201.764a1.713,1.713,0,0,1-.195.3c-.4.4-.815.8-1.227,1.2a.19.19,0,0,0-.066.194c.1.545.189,1.091.282,1.636,0,.026.008.052.013.078a.4.4,0,0,1-.156.432.407.407,0,0,1-.459,0c-.4-.213-.8-.423-1.2-.632-.143-.075-.289-.2-.434-.2s-.281.128-.421.2c-.4.21-.8.419-1.2.632a.408.408,0,0,1-.459,0,.4.4,0,0,1-.157-.431c.1-.567.193-1.135.294-1.7a.213.213,0,0,0-.071-.218c-.407-.389-.807-.785-1.212-1.176a.421.421,0,0,1-.153-.458.416.416,0,0,1,.389-.283c.566-.078,1.13-.167,1.7-.245a.19.19,0,0,0,.163-.124c.248-.509.5-1.016.749-1.526a.422.422,0,0,1,.389-.286.421.421,0,0,1,.39.284c.25.513.505,1.024.754,1.538a.178.178,0,0,0,.156.112c.583.081,1.165.168,1.747.255a.391.391,0,0,1,.359.4Zm-1.288.251-.066-.013c-.374-.054-.747-.112-1.122-.16a.5.5,0,0,1-.424-.306c-.147-.319-.308-.632-.463-.947-.02-.041-.044-.08-.075-.134-.032.06-.055.1-.076.144-.16.323-.321.645-.477.969a.433.433,0,0,1-.352.262c-.213.029-.426.061-.639.093l-.588.088-.015.038a1.251,1.251,0,0,1,.115.089c.262.254.523.51.785.764a.41.41,0,0,1,.133.381c-.028.165-.058.329-.086.493-.043.25-.084.5-.129.77.057-.027.093-.042.127-.06.3-.155.6-.3.884-.469a.575.575,0,0,1,.64,0c.322.186.657.35,1,.532,0-.057,0-.1-.01-.132-.062-.364-.12-.728-.189-1.091a.438.438,0,0,1,.134-.43c.266-.256.53-.515.794-.773C130.661-201.437,130.688-201.469,130.729-201.513Z" transform="translate(-121.823 207.571)" fill="#ff9100"/>
  </g>
  <rect id="Rectangle_750" data-name="Rectangle 750" width="14.742" height="14.742" fill="none"/>
</svg>
