<svg id="icon_5_" xmlns="http://www.w3.org/2000/svg" xmlns:xlink="http://www.w3.org/1999/xlink" width="24" height="24" viewBox="0 0 24 24">
  <defs>
    <linearGradient id="linear-gradient" x1="10.506" y1="14.636" x2="10.506" y2="13.636" gradientUnits="objectBoundingBox">
      <stop offset="0" stop-color="#f39c12"/>
      <stop offset="0.076" stop-color="#f3a012"/>
      <stop offset="0.655" stop-color="#f1ba10"/>
      <stop offset="1" stop-color="#f1c40f"/>
    </linearGradient>
  </defs>
  <path id="Path_31340" data-name="Path 31340" d="M765.566,250.2l1.957,4.136a1.836,1.836,0,0,0,1.4,1.043l4.391.654a1.933,1.933,0,0,1,1.021,3.27l-3.182,3.217a1.946,1.946,0,0,0-.528,1.7l.749,4.542a1.854,1.854,0,0,1-2.672,2.015l-3.931-2.139a1.751,1.751,0,0,0-1.719,0l-3.931,2.139a1.853,1.853,0,0,1-2.672-2.015l.749-4.542a2,2,0,0,0-.528-1.7l-3.182-3.217a1.938,1.938,0,0,1,1.021-3.27l4.391-.654a1.864,1.864,0,0,0,1.4-1.043l1.957-4.136A1.819,1.819,0,0,1,765.566,250.2Z" transform="translate(-751.919 -248.052)" fill="url(#linear-gradient)"/>
  <g id="Group_15933" data-name="Group 15933" transform="translate(2.006 1.073)" opacity="0.2">
    <path id="Path_31342" data-name="Path 31342" d="M773.794,255.377a1.865,1.865,0,0,1-1.4-1.043l-1.957-4.136a1.819,1.819,0,0,0-3.319,0l-1.957,4.136a1.836,1.836,0,0,1-1.4,1.043l-4.391.654a1.878,1.878,0,0,0-.579.194,12.34,12.34,0,0,0,19.946,0,2.046,2.046,0,0,0-.579-.194Z" transform="translate(-758.8 -249.125)" fill="#fff"/>
  </g>
  <g id="Group_15934" data-name="Group 15934" transform="translate(11.128 1.988)" opacity="0.4">
    <ellipse id="Ellipse_1186" data-name="Ellipse 1186" cx="0.868" cy="0.901" rx="0.868" ry="0.901" transform="translate(0 0)" fill="#fff"/>
  </g>
  <g id="Group_15935" data-name="Group 15935" transform="translate(12.864 4.462)" opacity="0.4">
    <ellipse id="Ellipse_1187" data-name="Ellipse 1187" cx="0.579" cy="0.601" rx="0.579" ry="0.601" transform="translate(0 0)" fill="#fff"/>
  </g>
  <g id="Group_15936" data-name="Group 15936" transform="translate(18.055 8.032)" opacity="0.4">
    <ellipse id="Ellipse_1188" data-name="Ellipse 1188" cx="0.579" cy="0.601" rx="0.579" ry="0.601" fill="#fff"/>
  </g>
  <path id="Path_31343" data-name="Path 31343" d="M787.726,327.173a1.884,1.884,0,0,1,.443-1.573,12.926,12.926,0,0,1-14.3,0,2,2,0,0,1,.443,1.573l-.749,4.542a1.854,1.854,0,0,0,2.672,2.015l3.931-2.139a1.751,1.751,0,0,1,1.719,0l3.932,2.139a1.853,1.853,0,0,0,2.672-2.015Z" transform="translate(-769.025 -311.011)" fill="#ffb300"/>
  <path id="Path_31341" data-name="Path 31341" d="M757.913,243.236a1.782,1.782,0,0,1,1.626,1.044l1.927,4.073a1.808,1.808,0,0,0,1.374,1.027l4.324.644a1.9,1.9,0,0,1,1.005,3.22l-3.134,3.185a1.916,1.916,0,0,0-.52,1.671l.737,4.473a1.874,1.874,0,0,1-1.793,2.21,1.746,1.746,0,0,1-.855-.226l-3.871-2.106a1.812,1.812,0,0,0-.838-.209,1.762,1.762,0,0,0-.838.209l-3.871,2.106a1.747,1.747,0,0,1-.855.226,1.874,1.874,0,0,1-1.793-2.21l.738-4.473a1.966,1.966,0,0,0-.52-1.671l-3.134-3.168a1.908,1.908,0,0,1,1.005-3.22l4.324-.644a1.836,1.836,0,0,0,1.374-1.027l1.927-4.073a1.833,1.833,0,0,1,1.659-1.062m0-1.236a2.979,2.979,0,0,0-2.7,1.74l-1.927,4.073a.671.671,0,0,1-.469.365l-4.324.644a3.056,3.056,0,0,0-2.43,2.123,3.209,3.209,0,0,0,.754,3.2l3.134,3.168a.67.67,0,0,1,.184.574l-.737,4.473a3.161,3.161,0,0,0,.654,2.524,2.95,2.95,0,0,0,2.3,1.114,2.821,2.821,0,0,0,1.391-.366l3.871-2.106a.558.558,0,0,1,.3-.07.947.947,0,0,1,.3.07l3.871,2.106a2.821,2.821,0,0,0,1.391.366,2.926,2.926,0,0,0,2.3-1.114,3.161,3.161,0,0,0,.654-2.524l-.737-4.473a.652.652,0,0,1,.184-.574l3.134-3.168a3.164,3.164,0,0,0,.754-3.2,3.033,3.033,0,0,0-2.43-2.123l-4.324-.644a.64.64,0,0,1-.469-.366l-1.944-4.073a2.985,2.985,0,0,0-2.681-1.74Z" transform="translate(-745.917 -242)" fill="#fa0"/>
</svg>
