<svg xmlns="http://www.w3.org/2000/svg" xmlns:xlink="http://www.w3.org/1999/xlink" width="58.443" height="58.125" viewBox="0 0 58.443 58.125">
  <defs>
    <filter id="Ellipse_20" x="0" y="0" width="58.443" height="58.125" filterUnits="userSpaceOnUse">
      <feOffset dy="3" input="SourceAlpha"/>
      <feGaussianBlur stdDeviation="3" result="blur"/>
      <feFlood flood-opacity="0.161"/>
      <feComposite operator="in" in2="blur"/>
      <feComposite in="SourceGraphic"/>
    </filter>
  </defs>
  <g id="Group_1464" data-name="Group 1464" transform="translate(9 2.26)">
    <g id="Group_1462" data-name="Group 1462" transform="translate(17.308)">
      <rect id="Rectangle_94" data-name="Rectangle 94" width="2.513" height="6.631" transform="translate(1.657 0.453)" fill="#999"/>
      <g id="Group_1461" data-name="Group 1461">
        <path id="Path_25256" data-name="Path 25256" d="M61.212,115.654h-4.8a.51.51,0,0,1-.514-.51V114.01a.51.51,0,0,1,.514-.51h4.8a.51.51,0,0,1,.514.51v1.133A.51.51,0,0,1,61.212,115.654Z" transform="translate(-55.9 -113.5)" fill="#999"/>
      </g>
    </g>
    <g transform="matrix(1, 0, 0, 1, -9, -2.26)" filter="url(#Ellipse_20)">
      <ellipse id="Ellipse_20-2" data-name="Ellipse 20" cx="20.222" cy="20.062" rx="20.222" ry="20.062" transform="translate(9 6)" fill="#999"/>
    </g>
    <ellipse id="Ellipse_21" data-name="Ellipse 21" cx="17.137" cy="17.002" rx="17.137" ry="17.002" transform="translate(3.085 6.801)" fill="#fff"/>
    <path id="Path_25257" data-name="Path 25257" d="M69.511,154.9a12.024,12.024,0,0,0,3.713-8.671A12.19,12.19,0,0,0,61,134.1v12.355Z" transform="translate(-40.778 -122.425)" fill="#ff9100"/>
    <g id="Group_1463" data-name="Group 1463" transform="translate(3.542 7.198)">
      <path id="Path_25258" data-name="Path 25258" d="M60.443,127.56l.8-1.36H59.7Z" transform="translate(-43.763 -126.2)" fill="#7c4dff"/>
      <path id="Path_25259" data-name="Path 25259" d="M46.614,130.93V129.4l-1.314.793Z" transform="translate(-37.588 -127.586)" fill="#7c4dff"/>
      <path id="Path_25260" data-name="Path 25260" d="M36.642,140.9l-.8-1.3-.743,1.3Z" transform="translate(-33.215 -132.006)" fill="#7c4dff"/>
      <path id="Path_25261" data-name="Path 25261" d="M33.114,154.693,31.8,153.9v1.53Z" transform="translate(-31.8 -138.201)" fill="#7c4dff"/>
      <path id="Path_25262" data-name="Path 25262" d="M36.542,168.7H35l.743,1.3Z" transform="translate(-33.172 -144.614)" fill="#7c4dff"/>
      <path id="Path_25263" data-name="Path 25263" d="M46.414,178.5l-1.314.793,1.314.737Z" transform="translate(-37.503 -148.86)" fill="#7c4dff"/>
      <path id="Path_25264" data-name="Path 25264" d="M60.243,182.2l-.743,1.3h1.542Z" transform="translate(-43.677 -150.463)" fill="#7c4dff"/>
      <path id="Path_25265" data-name="Path 25265" d="M74.2,178.6v1.53l1.371-.737Z" transform="translate(-49.98 -148.903)" fill="#7c4dff"/>
      <path id="Path_25266" data-name="Path 25266" d="M84.1,168.9l.743,1.3.8-1.3Z" transform="translate(-54.225 -144.7)" fill="#7c4dff"/>
      <path id="Path_25267" data-name="Path 25267" d="M87.7,154.893l1.314.737V154.1Z" transform="translate(-55.768 -138.288)" fill="#7c4dff"/>
      <path id="Path_25268" data-name="Path 25268" d="M84.2,141.06h1.542l-.8-1.36Z" transform="translate(-54.267 -132.049)" fill="#7c4dff"/>
      <path id="Path_25269" data-name="Path 25269" d="M74.4,131.03l1.314-.737L74.4,129.5Z" transform="translate(-50.066 -127.63)" fill="#7c4dff"/>
    </g>
    <path id="Path_25270" data-name="Path 25270" d="M60.357,145.328h0a.838.838,0,0,1-.857-.85V132.35a.857.857,0,0,1,1.714,0v12.128A.838.838,0,0,1,60.357,145.328Z" transform="translate(-40.135 -121.299)" fill="#fff"/>
    <path id="Path_25271" data-name="Path 25271" d="M60.007,154.605h0a.833.833,0,0,1,1.2,0l8.626,8.558a.817.817,0,0,1,0,1.19.833.833,0,0,1-1.2,0L60.007,155.8A.817.817,0,0,1,60.007,154.605Z" transform="translate(-40.242 -131.199)" fill="#fff"/>
    <ellipse id="Ellipse_22" data-name="Ellipse 22" cx="1.542" cy="1.53" rx="1.542" ry="1.53" transform="translate(18.679 22.273)" fill="#7c4dff"/>
  </g>
</svg>
