<svg xmlns="http://www.w3.org/2000/svg" width="24" height="24" viewBox="0 0 24 24">
  <path id="Icon_simple-whatsapp" data-name="Icon simple-whatsapp" d="M17.5,14.382c-.3-.15-1.767-.867-2.04-.966s-.473-.15-.673.15-.771.964-.944,1.162-.349.21-.646.075a8.116,8.116,0,0,1-2.4-1.485,9.073,9.073,0,0,1-1.66-2.07c-.174-.3-.019-.465.13-.615s.3-.345.451-.523a2.535,2.535,0,0,0,.3-.5.55.55,0,0,0-.025-.524c-.075-.15-.672-1.62-.922-2.206s-.487-.51-.672-.51-.371-.015-.571-.015a1.127,1.127,0,0,0-.8.359A3.339,3.339,0,0,0,5.978,9.193,5.851,5.851,0,0,0,7.2,12.268a13.334,13.334,0,0,0,5.1,4.485c.714.3,1.27.48,1.7.629a4.137,4.137,0,0,0,1.88.121A3.077,3.077,0,0,0,17.9,16.077a2.475,2.475,0,0,0,.18-1.425c-.074-.135-.27-.21-.57-.345M12.061,21.75h-.016A10,10,0,0,1,6.99,20.37l-.36-.214-3.75.975,1.005-3.645-.239-.375A9.918,9.918,0,0,1,19.093,4.876,9.788,9.788,0,0,1,22,11.866a9.93,9.93,0,0,1-9.935,9.885m8.453-18.3A12.142,12.142,0,0,0,12.045,0,11.89,11.89,0,0,0,1.7,17.838L0,24l6.335-1.652a12.062,12.062,0,0,0,5.71,1.447h.006A11.94,11.94,0,0,0,24,11.9a11.794,11.794,0,0,0-3.495-8.411" fill="#212121"/>
</svg>
