<svg id="fd" xmlns="http://www.w3.org/2000/svg" width="147.413" height="423.495" viewBox="0 0 147.413 423.495">
  <rect id="Rectangle_104" data-name="Rectangle 104" width="93.998" height="387.941" transform="translate(26.621 35.555)" fill="#442cbc"/>
  <path id="Path_27801" data-name="Path 27801" d="M181.328,80.777a1.935,1.935,0,0,0,2.444.889,158.162,158.162,0,0,1,100,0,2.164,2.164,0,0,0,2.444-.889l21-37.666a2.073,2.073,0,0,0-1-2.889A205.009,205.009,0,0,0,233.661,27a202.885,202.885,0,0,0-72.332,13.222,2,2,0,0,0-1,2.889Z" transform="translate(-160.041 -27)" fill="#fff"/>
  <path id="Path_27802" data-name="Path 27802" d="M232.788,66.222a162.576,162.576,0,0,1,48.443,7.333L297.786,44A197.213,197.213,0,0,0,167.9,44l16.555,29.555A160.78,160.78,0,0,1,232.788,66.222Z" transform="translate(-159.168 -26.333)" fill="#f93443"/>
  <path id="Path_27803" data-name="Path 27803" d="M283.224,80.477a1.891,1.891,0,0,1-.778-.111h-.111a2.354,2.354,0,0,1-1.444-3,2.06,2.06,0,0,1,1.556-1.444,2.363,2.363,0,0,1,3,3.333l-.111.111A2.863,2.863,0,0,1,283.224,80.477Zm5.222-7,.111-.222a2.363,2.363,0,1,0-4.111-2.333l-.111.222a2.376,2.376,0,0,0,.889,3.222,2.144,2.144,0,0,0,1.111.333A2.382,2.382,0,0,0,288.446,73.477Zm3.222-5.889.111-.222a2.364,2.364,0,1,0-4.111-2.333l-.111.222a2.376,2.376,0,0,0,.889,3.222,2.144,2.144,0,0,0,1.111.333A2.382,2.382,0,0,0,291.668,67.588Zm3.222-5.889.111-.222a2.363,2.363,0,1,0-4.111-2.333l-.111.222a2.376,2.376,0,0,0,.889,3.222,2.144,2.144,0,0,0,1.111.333A2.262,2.262,0,0,0,294.891,61.7Zm3.333-5.889.111-.222a2.363,2.363,0,1,0-4.111-2.333l-.111.222A2.376,2.376,0,0,0,295,56.7a2.144,2.144,0,0,0,1.111.333A2.516,2.516,0,0,0,298.224,55.811Zm3.222-5.889.111-.222a2.363,2.363,0,0,0-4.111-2.333l-.111.222a2.376,2.376,0,0,0,.889,3.222,2.144,2.144,0,0,0,1.111.333A2.185,2.185,0,0,0,301.446,49.922Zm3.222-5.778.111-.111a2.488,2.488,0,0,0,.111-2,2.331,2.331,0,0,0-1.444-1.444,2.3,2.3,0,0,0-3,1.333,1.89,1.89,0,0,0-.111.778,2.414,2.414,0,0,0,1.222,2.333,2.144,2.144,0,0,0,1.111.333A2.341,2.341,0,0,0,304.668,44.144Zm-8.444-3.667a2.328,2.328,0,0,0-1.555-3l-.333-.111a2.389,2.389,0,1,0-1.444,4.555l.333.111a1.648,1.648,0,0,0,.778.111A2.657,2.657,0,0,0,296.224,40.478Zm-9-2.889a2.4,2.4,0,0,0-1.667-2.889l-.333-.111A2.358,2.358,0,1,0,284,39.144l.333.111a1.409,1.409,0,0,0,.667.111A2.442,2.442,0,0,0,287.224,37.589ZM173.671,41.922l.333-.111a2.389,2.389,0,1,0-1.444-4.555l-.333.111a2.515,2.515,0,0,0-1.556,3,2.368,2.368,0,0,0,2.222,1.667A1.647,1.647,0,0,0,173.671,41.922Zm9-2.667.333-.111a2.358,2.358,0,1,0-1.222-4.555l-.333.111a2.4,2.4,0,0,0-1.667,2.889,2.5,2.5,0,0,0,2.333,1.778A1.208,1.208,0,0,0,182.671,39.255Zm95.331-4a2.421,2.421,0,0,0-1.778-2.889l-.333-.111a2.394,2.394,0,0,0-2.778,1.778,2.335,2.335,0,0,0,1.778,2.778l.222.111c.222,0,.333.111.556.111A2.283,2.283,0,0,0,278,35.255ZM191.67,37.033l.333-.111a2.332,2.332,0,1,0-1-4.555l-.333.111a2.338,2.338,0,0,0-1.778,2.889,2.378,2.378,0,0,0,2.333,1.889C191.337,37.033,191.448,37.033,191.67,37.033Zm77.109-3.778a2.408,2.408,0,0,0-1.889-2.778h-.333a2.375,2.375,0,0,0-.889,4.667h.778A2.273,2.273,0,0,0,268.78,33.255Zm-9.333-1.222a2.408,2.408,0,0,0-1.889-2.778h-.333a2.375,2.375,0,1,0-.889,4.667h.778A2.378,2.378,0,0,0,259.447,32.033Zm-58.665,3.111h.333a2.375,2.375,0,0,0-.889-4.667h-.333A2.326,2.326,0,0,0,198,33.255a2.48,2.48,0,0,0,2.333,2C200.559,35.255,200.67,35.255,200.781,35.144ZM210,33.811h.333a2.4,2.4,0,1,0-.556-4.778h-.333a2.3,2.3,0,0,0-2,2.667,2.388,2.388,0,0,0,2.333,2.111Zm40.11-3.111a2.375,2.375,0,0,0-2.222-2.556h-.333a2.395,2.395,0,0,0-.333,4.778h.556A2.322,2.322,0,0,0,250.114,30.7Zm-30.777,2.222h.333a2.395,2.395,0,0,0-.333-4.778H219a2.375,2.375,0,0,0-2.222,2.556,2.4,2.4,0,0,0,2.333,2.222Zm9.333-.444H229a2.389,2.389,0,0,0-.111-4.778h-.333a2.389,2.389,0,0,0,.111,4.778Zm12-2.333a2.373,2.373,0,0,0-2.333-2.444H238a2.389,2.389,0,1,0-.111,4.778h.444A2.347,2.347,0,0,0,240.669,30.144ZM165.449,45.033a2.213,2.213,0,0,0,1.222-2,3.781,3.781,0,0,0-.111-1.111,2.422,2.422,0,0,0-3.111-1.333,2.168,2.168,0,0,0-1.333,1.444,2.515,2.515,0,0,0,.111,2l.111.111a2.382,2.382,0,0,0,2.111,1.222A2.558,2.558,0,0,0,165.449,45.033Zm6.444,11.778a2.376,2.376,0,0,0,.889-3.222l-.111-.222A2.364,2.364,0,1,0,168.56,55.7l.111.111a2.382,2.382,0,0,0,2.111,1.222A2,2,0,0,0,171.893,56.81Zm-3.222-5.889a2.376,2.376,0,0,0,.889-3.222l-.111-.222a2.364,2.364,0,0,0-4.111,2.333l.111.222a2.382,2.382,0,0,0,2.111,1.222A2.144,2.144,0,0,0,168.671,50.922Zm13,23.444a2.376,2.376,0,0,0,.889-3.222l-.111-.222a2.364,2.364,0,1,0-4.111,2.333l.111.222A2.382,2.382,0,0,0,180.56,74.7,2.144,2.144,0,0,0,181.671,74.366Zm-3.222-5.778a2.376,2.376,0,0,0,.889-3.222l-.111-.222a2.364,2.364,0,0,0-4.111,2.333l.111.222a2.382,2.382,0,0,0,2.111,1.222C177.671,68.81,178.115,68.7,178.448,68.588ZM175.226,62.7a2.376,2.376,0,0,0,.889-3.222L176,59.255a2.364,2.364,0,0,0-4.111,2.333l.111.222a2.382,2.382,0,0,0,2.111,1.222C174.449,62.921,174.782,62.81,175.226,62.7Zm9.333,17.666h.111a2.515,2.515,0,0,0,1.555-3,2.412,2.412,0,0,0-1.555-1.556,2.364,2.364,0,0,0-3,3.333l.111.111a2.382,2.382,0,0,0,2.111,1.222A1.955,1.955,0,0,0,184.559,80.366Zm7.778-2.333.222-.111a2.358,2.358,0,1,0-1.222-4.555l-.222.111a2.4,2.4,0,0,0-1.667,2.889,2.5,2.5,0,0,0,2.333,1.778A4.815,4.815,0,0,1,192.337,78.032Zm8-2h.222a2.375,2.375,0,0,0-.889-4.667l-.222.111a2.23,2.23,0,0,0-1.778,2.778A2.378,2.378,0,0,0,200,76.143C200,76.032,200.226,76.032,200.337,76.032Zm77.221.333a2.4,2.4,0,0,0-1.667-2.889l-.222-.111a2.358,2.358,0,1,0-1.222,4.555l.222.111a1.409,1.409,0,0,0,.667.111A2.478,2.478,0,0,0,277.558,76.366Zm-8.222-2.111a2.335,2.335,0,0,0-1.778-2.778l-.222-.111a2.332,2.332,0,0,0-1,4.555l.222.111h.556A2.142,2.142,0,0,0,269.335,74.255Zm-8.222-1.667a2.243,2.243,0,0,0-2-2.667h-.222a2.357,2.357,0,0,0-.667,4.667h.556A2.48,2.48,0,0,0,261.113,72.588Zm-52.554,1.889h.222a2.357,2.357,0,0,0-.667-4.667h-.222a2.344,2.344,0,0,0,.333,4.667C208.226,74.588,208.448,74.588,208.559,74.477Zm44.221-3.111a2.29,2.29,0,0,0-2.111-2.556h-.333a2.344,2.344,0,1,0-.444,4.667h.444A2.339,2.339,0,0,0,252.78,71.366Zm-36,2.111H217a2.344,2.344,0,1,0-.444-4.667h-.222a2.352,2.352,0,0,0-2.111,2.556,2.308,2.308,0,0,0,2.333,2.111Zm27.666-2.889a2.219,2.219,0,0,0-2.222-2.444h-.333a2.355,2.355,0,0,0-2.444,2.222,2.284,2.284,0,0,0,2.222,2.444H242A2.35,2.35,0,0,0,244.447,70.588ZM225,72.81h.333a2.336,2.336,0,1,0-.222-4.667h-.222a2.342,2.342,0,0,0-2.222,2.444A2.4,2.4,0,0,0,225,72.81Zm11-2.555a2.347,2.347,0,0,0-2.333-2.333h-.222a2.333,2.333,0,0,0,0,4.667h.222A2.277,2.277,0,0,0,236,70.255Z" transform="translate(-159.828 -26.922)" fill="#248cb5"/>
  <path id="Path_27804" data-name="Path 27804" d="M283.127,79.5a.668.668,0,0,1-.444-.111h-.111a1.409,1.409,0,0,1-.889-1.778,1.356,1.356,0,0,1,1-.889,1.392,1.392,0,0,1,1.889,1.889l-.111.111A2.118,2.118,0,0,1,283.127,79.5Zm4.444-6.555.111-.222a1.392,1.392,0,0,0-2.444-1.333l-.111.222a1.424,1.424,0,0,0,.556,1.889,1.579,1.579,0,0,0,.667.222A1.683,1.683,0,0,0,287.571,72.944Zm3.222-5.889.111-.222A1.392,1.392,0,1,0,288.46,65.5l-.111.222a1.424,1.424,0,0,0,.556,1.889,1.579,1.579,0,0,0,.667.222A1.683,1.683,0,0,0,290.793,67.055Zm3.222-5.889.111-.222a1.392,1.392,0,1,0-2.444-1.333l-.111.222a1.424,1.424,0,0,0,.556,1.889,1.579,1.579,0,0,0,.667.222A1.507,1.507,0,0,0,294.016,61.166Zm3.222-5.889.111-.222a1.392,1.392,0,1,0-2.444-1.333l-.111.222a1.424,1.424,0,0,0,.556,1.889,1.58,1.58,0,0,0,.667.222A1.507,1.507,0,0,0,297.238,55.277Zm3.222-5.889.111-.222a1.392,1.392,0,1,0-2.444-1.333l-.111.222a1.424,1.424,0,0,0,.556,1.889,1.579,1.579,0,0,0,.667.222A1.2,1.2,0,0,0,300.46,49.388Zm3.333-5.889.111-.111a1.549,1.549,0,0,0,0-1.222,2.274,2.274,0,0,0-.889-.889,1.327,1.327,0,0,0-1.778.889.668.668,0,0,0-.111.444,1.422,1.422,0,0,0,.778,1.444,1.58,1.58,0,0,0,.667.222A1.41,1.41,0,0,0,303.793,43.5Zm-8.666-3.444a1.366,1.366,0,0,0-.889-1.778l-.333-.111a1.405,1.405,0,0,0-.889,2.667l.333.111c.111,0,.333.111.444.111A1.231,1.231,0,0,0,295.127,40.055Zm-9-2.778a1.427,1.427,0,0,0-1-1.778l-.333-.111a1.442,1.442,0,1,0-.778,2.778l.333.111h.333C285.46,38.278,286.016,37.944,286.127,37.278ZM173.352,40.944l.333-.111a1.405,1.405,0,0,0-.889-2.667l-.333.111a1.366,1.366,0,0,0-.889,1.778,1.557,1.557,0,0,0,1.333,1A.84.84,0,0,0,173.352,40.944Zm8.889-2.667.333-.111a1.442,1.442,0,0,0-.778-2.778l-.333.111a1.427,1.427,0,0,0-1,1.778,1.4,1.4,0,0,0,1.333,1Zm94.776-3.333a1.338,1.338,0,0,0-1.111-1.667l-.333-.111a1.338,1.338,0,0,0-1.667,1.111,1.413,1.413,0,0,0,1.111,1.667l.333.111h.333A1.408,1.408,0,0,0,277.016,34.944Zm-85.665,1,.333-.111a1.416,1.416,0,0,0-.556-2.778l-.333.111a1.473,1.473,0,0,0-1.111,1.667,1.408,1.408,0,0,0,1.333,1.111A.208.208,0,0,0,191.351,35.944Zm76.443-2.889a1.413,1.413,0,0,0-1.111-1.667h-.333a1.416,1.416,0,0,0-.556,2.778h.556A1.439,1.439,0,0,0,267.794,33.055Zm-9.444-1.333a1.413,1.413,0,0,0-1.111-1.667h-.333a1.416,1.416,0,0,0-.556,2.778h.556A1.357,1.357,0,0,0,258.35,31.722Zm-57.777,2.444h.333a1.416,1.416,0,0,0-.556-2.778h-.333a1.338,1.338,0,0,0-1.111,1.667,1.538,1.538,0,0,0,1.444,1.222C200.351,34.167,200.462,34.167,200.573,34.167Zm9.222-1.333h.333a1.4,1.4,0,0,0-.333-2.778h-.333a1.383,1.383,0,0,0-1.222,1.556,1.445,1.445,0,0,0,1.444,1.222Zm39.221-2.222a1.469,1.469,0,0,0-1.333-1.556h-.333a1.449,1.449,0,0,0-.222,2.889h.444A1.455,1.455,0,0,0,249.017,30.611Zm-29.888,1.333h.333a1.558,1.558,0,0,0,1.333-1.556,1.481,1.481,0,0,0-1.556-1.333h-.333a1.558,1.558,0,0,0-1.333,1.556,1.664,1.664,0,0,0,1.556,1.333Zm9.333-.556h.333a1.444,1.444,0,0,0,0-2.889h-.333a1.312,1.312,0,0,0-1.333,1.444,1.261,1.261,0,0,0,1.333,1.444Zm11.222-1.333a1.4,1.4,0,0,0-1.444-1.444h-.333a1.444,1.444,0,1,0,0,2.889h.333A1.652,1.652,0,0,0,239.683,30.056Zm-74.776,14a1.6,1.6,0,0,0,.778-1.222,1.452,1.452,0,0,0-2-1.444,1.27,1.27,0,0,0-.778.889,1.609,1.609,0,0,0,.111,1.222l.111.111a1.507,1.507,0,0,0,1.222.778C164.352,44.277,164.685,44.277,164.907,44.055Zm6.444,11.778a1.424,1.424,0,0,0,.556-1.889l-.111-.222a1.392,1.392,0,1,0-2.444,1.333l.111.222a1.507,1.507,0,0,0,1.222.778A1.579,1.579,0,0,0,171.352,55.833Zm-3.222-5.889a1.424,1.424,0,0,0,.556-1.889l-.111-.222a1.392,1.392,0,0,0-2.444,1.333l.111.222a1.507,1.507,0,0,0,1.222.778A1.579,1.579,0,0,0,168.129,49.944Zm13,23.555a1.424,1.424,0,0,0,.556-1.889l-.111-.222a1.392,1.392,0,0,0-2.444,1.333l.111.222a1.507,1.507,0,0,0,1.222.778A1.579,1.579,0,0,0,181.129,73.5Zm-3.222-5.889a1.424,1.424,0,0,0,.556-1.889l-.111-.222a1.392,1.392,0,0,0-2.444,1.333l.111.222a1.507,1.507,0,0,0,1.222.778A1.579,1.579,0,0,0,177.907,67.61Zm-3.333-5.889a1.424,1.424,0,0,0,.556-1.889l-.111-.222a1.392,1.392,0,1,0-2.444,1.333l.111.222a1.507,1.507,0,0,0,1.222.778A1.191,1.191,0,0,0,174.574,61.722Zm9.555,17.666h.111a1.382,1.382,0,0,0-.111-2.667,1.392,1.392,0,0,0-1.889,1.889l.111.111a1.507,1.507,0,0,0,1.222.778A.833.833,0,0,0,184.129,79.388Zm7.889-2.333.222-.111a1.442,1.442,0,1,0-.778-2.778l-.222.111a1.427,1.427,0,0,0-1,1.778,1.4,1.4,0,0,0,1.333,1Zm8.111-2h.222a1.416,1.416,0,1,0-.556-2.778l-.222.111a1.413,1.413,0,0,0-1.111,1.667,1.439,1.439,0,0,0,1.444,1.111C199.907,75.055,200.018,75.055,200.129,75.055Zm76.443,1a1.427,1.427,0,0,0-1-1.778l-.222-.111a1.442,1.442,0,1,0-.778,2.778l.222.111h.333A1.582,1.582,0,0,0,276.572,76.055Zm-8.222-2.111a1.413,1.413,0,0,0-1.111-1.667l-.222-.111a1.416,1.416,0,0,0-.556,2.778l.222.111h.333A1.408,1.408,0,0,0,268.35,73.943Zm-8.222-1.667a1.49,1.49,0,0,0-1.222-1.667h-.222a1.461,1.461,0,1,0-.444,2.889h.444A1.43,1.43,0,0,0,260.127,72.277ZM208.24,73.5h.222a1.461,1.461,0,1,0-.444-2.889H207.8a1.49,1.49,0,0,0-1.222,1.667,1.445,1.445,0,0,0,1.444,1.222Zm43.555-2.333a1.383,1.383,0,0,0-1.222-1.556h-.222a1.449,1.449,0,0,0-.222,2.889h.333A1.524,1.524,0,0,0,251.794,71.166Zm-35.221,1.222h.222a1.4,1.4,0,0,0-.333-2.778h-.222a1.383,1.383,0,0,0-1.222,1.556,1.357,1.357,0,0,0,1.444,1.222ZM243.35,70.5a1.378,1.378,0,0,0-1.333-1.444h-.333a1.39,1.39,0,1,0-.111,2.778h.333A1.378,1.378,0,0,0,243.35,70.5Zm-18.444,1.333h.333a1.39,1.39,0,0,0-.111-2.778h-.222a1.312,1.312,0,0,0-1.333,1.444c-.111.778.444,1.333,1.333,1.333Zm10-1.667a1.471,1.471,0,0,0-1.444-1.444h-.222a1.444,1.444,0,1,0,0,2.889h.222A1.4,1.4,0,0,0,234.906,70.166Z" transform="translate(-159.73 -26.833)" fill="#35c4db"/>
  <path id="Path_27805" data-name="Path 27805" d="M282.3,78.39h-.444a.946.946,0,0,1-.556-1.222,1,1,0,0,1,.667-.667,1.217,1.217,0,0,1,.889,0,.908.908,0,0,1,.333,1.333l-.111.111A.744.744,0,0,1,282.3,78.39Zm4.111-6.222.111-.222a.972.972,0,1,0-1.667-1l-.111.222a1.06,1.06,0,0,0,.333,1.333.668.668,0,0,0,.444.111A1.011,1.011,0,0,0,286.416,72.167Zm3.222-5.889.111-.222a.972.972,0,0,0-1.667-1l-.111.222a1.06,1.06,0,0,0,.333,1.333.668.668,0,0,0,.444.111A1.011,1.011,0,0,0,289.638,66.279Zm3.222-5.889.111-.222a.972.972,0,0,0-1.667-1l-.111.222a1.06,1.06,0,0,0,.333,1.333.668.668,0,0,0,.444.111C292.416,60.834,292.749,60.723,292.86,60.39Zm3.222-5.889.111-.222a.972.972,0,1,0-1.667-1l-.111.222a1.06,1.06,0,0,0,.333,1.333.668.668,0,0,0,.444.111C295.638,54.946,295.971,54.834,296.082,54.5Zm3.222-5.889.111-.222a.972.972,0,1,0-1.667-1l-.111.222a1.06,1.06,0,0,0,.333,1.333.668.668,0,0,0,.444.111C298.86,49.057,299.193,48.946,299.3,48.612Zm3.333-5.889.111-.111a1.89,1.89,0,0,0,.111-.778,1.339,1.339,0,0,0-.556-.556h-.111a.9.9,0,0,0-1.222.556.949.949,0,0,0,0,.778,1.109,1.109,0,0,0,.444.556.668.668,0,0,0,.444.111A1.15,1.15,0,0,0,302.638,42.724Zm-8.666-3.333a1.117,1.117,0,0,0-.556-1.222l-.333-.111a1.053,1.053,0,0,0-1.222.556,1.117,1.117,0,0,0,.556,1.222l.333.111h.333A.88.88,0,0,0,293.971,39.39Zm-9-2.778A.849.849,0,0,0,284.3,35.5l-.333-.111a.984.984,0,1,0-.556,1.889l.333.111h.222A1.261,1.261,0,0,0,284.971,36.613ZM172.418,39.946l.333-.111a.949.949,0,0,0-.667-1.778l-.333.111a.905.905,0,0,0-.556,1.222.931.931,0,0,0,.889.667A.408.408,0,0,1,172.418,39.946Zm9-2.778.333-.111a.984.984,0,0,0-.556-1.889l-.333.111A.958.958,0,0,0,180.2,36.5a.845.845,0,0,0,.889.667A.208.208,0,0,0,181.418,37.168Zm94.442-2.889a.924.924,0,0,0-.667-1.111l-.333-.111a.959.959,0,1,0-.333,1.889l.333.111h.222A1.329,1.329,0,0,0,275.86,34.279Zm-85.332.667.333-.111a.959.959,0,1,0-.333-1.889l-.333.111a.892.892,0,0,0-.667,1.111.943.943,0,0,0,.889.778Zm76-2.556a.916.916,0,0,0-.778-1.111h-.333a.959.959,0,0,0-.333,1.889h.444A.9.9,0,0,0,266.527,32.391Zm-66.776.778h.333a.959.959,0,1,0-.333-1.889h-.333a.916.916,0,0,0-.778,1.111.943.943,0,0,0,.889.778Zm9.333-1.444h.333a.9.9,0,1,0-.222-1.778h-.333a.916.916,0,0,0-.778,1.111.943.943,0,0,0,.889.778C208.973,31.724,208.973,31.724,209.084,31.724Zm38.777-1.778a.907.907,0,0,0-.889-1h-.333a.946.946,0,1,0-.111,1.889h.444A.876.876,0,0,0,247.861,29.946Zm9.778,1a.908.908,0,0,0-.889-1h-.333a.946.946,0,0,0-.111,1.889h.444A.876.876,0,0,0,257.639,30.946Zm-39.221-.111h.333a.946.946,0,1,0-.111-1.889h-.333a.946.946,0,0,0,.111,1.889Zm9.333-.444h.333a.907.907,0,0,0,.889-1,.85.85,0,0,0-1-.889h-.333a.907.907,0,0,0-.889,1,.98.98,0,0,0,1,.889Zm10.666-.889a.98.98,0,0,0-.889-1h-.333a1.068,1.068,0,0,0-1,.889.98.98,0,0,0,.889,1h.333A.98.98,0,0,0,238.417,29.5ZM163.863,43.057a.839.839,0,0,0,.444-.778,1.1,1.1,0,0,0-1.444-1.111,1.339,1.339,0,0,0-.556.556.684.684,0,0,0,.111.778l.111.111a.839.839,0,0,0,.778.444C163.641,43.279,163.752,43.168,163.863,43.057Zm6.555,11.778a.908.908,0,0,0,.333-1.333l-.111-.222a.972.972,0,1,0-1.667,1l.111.222a1.046,1.046,0,0,0,1.333.333ZM167.2,48.946a.908.908,0,0,0,.333-1.333l-.111-.222a.972.972,0,1,0-1.667,1l.111.222a.839.839,0,0,0,.778.444A1,1,0,0,0,167.2,48.946Zm13,23.555a.908.908,0,0,0,.333-1.333l-.111-.222a.972.972,0,1,0-1.667,1l.111.222a1.046,1.046,0,0,0,1.333.333Zm-3.222-5.889a.908.908,0,0,0,.333-1.333l-.111-.222a.972.972,0,1,0-1.667,1l.111.222a.839.839,0,0,0,.778.444A1,1,0,0,0,176.974,66.612Zm-3.333-5.889a.908.908,0,0,0,.333-1.333l-.111-.222a.972.972,0,1,0-1.667,1l.111.222a.839.839,0,0,0,.778.444C173.418,60.834,173.529,60.834,173.64,60.723Zm9.666,17.666h.111a.905.905,0,0,0,.556-1.222,1,1,0,0,0-.667-.667,1.217,1.217,0,0,0-.889,0,.908.908,0,0,0-.333,1.333l.111.111a.839.839,0,0,0,.778.444Zm7.778-2.444.222-.111a.916.916,0,1,0-.444-1.778l-.222.111a.958.958,0,0,0-.667,1.222.845.845,0,0,0,.889.667A.388.388,0,0,0,191.084,75.945Zm8.222-2h.222a.959.959,0,1,0-.333-1.889l-.222.111a.968.968,0,0,0-.778,1.111.943.943,0,0,0,.889.778C199.084,73.945,199.2,73.945,199.307,73.945Zm76,1.333a1.007,1.007,0,0,0-.667-1.222l-.222-.111a1.061,1.061,0,0,0-1.222.667,1.007,1.007,0,0,0,.667,1.222l.222.111h.222A.812.812,0,0,0,275.3,75.278Zm-8.111-2a.916.916,0,0,0-.778-1.111l-.222-.111a.959.959,0,0,0-.333,1.889l.222.111h.222A1.244,1.244,0,0,0,267.194,73.279Zm-8.333-1.667a.916.916,0,0,0-.778-1.111h-.222a.959.959,0,1,0-.333,1.889h.333A.779.779,0,0,0,258.861,71.612Zm-51.332.889h.222a.959.959,0,1,0-.333-1.889H207.2a.916.916,0,0,0-.778,1.111.943.943,0,0,0,.889.778Zm43-2a.907.907,0,0,0-.889-1h-.222a.946.946,0,0,0-.111,1.889h.333A.876.876,0,0,0,250.528,70.5Zm-34.777.889h.222a.946.946,0,1,0-.111-1.889h-.222a.973.973,0,0,0-.889,1,.907.907,0,0,0,1,.889Zm26.444-1.556a.907.907,0,0,0-.889-1h-.222a.946.946,0,0,0-.111,1.889h.222A.973.973,0,0,0,242.195,69.834Zm-18.111.889h.222a.946.946,0,0,0-.111-1.889h-.222a.907.907,0,0,0-.889,1,1.053,1.053,0,0,0,1,.889Zm9.666-1.111a1,1,0,0,0-1-1h-.222a1,1,0,0,0,0,2h.222A1,1,0,0,0,233.75,69.612Z" transform="translate(-159.797 -26.835)" fill="#a5e8ef"/>
</svg>
