<?xml version="1.0" encoding="UTF-8" standalone="no" ?>
<!DOCTYPE svg PUBLIC "-//W3C//DTD SVG 1.1//EN" "http://www.w3.org/Graphics/SVG/1.1/DTD/svg11.dtd">
<svg xmlns="http://www.w3.org/2000/svg" xmlns:xlink="http://www.w3.org/1999/xlink" version="1.1" width="1080" height="1080" viewBox="0 0 1080 1080" xml:space="preserve">
<desc>Created with Fabric.js 5.2.4</desc>
<defs>
</defs>
<g transform="matrix(1 0 0 1 540 540)" id="9103fec6-0818-415f-9168-4a5025e1ca81"  >
<rect style="stroke: none; stroke-width: 1; stroke-dasharray: none; stroke-linecap: butt; stroke-dashoffset: 0; stroke-linejoin: miter; stroke-miterlimit: 4; fill: rgb(255,255,255); fill-rule: nonzero; opacity: 1; visibility: hidden;" vector-effect="non-scaling-stroke"  x="-540" y="-540" rx="0" ry="0" width="1080" height="1080" />
</g>
<g transform="matrix(1 0 0 1 540 540)" id="0192fa3b-aac8-4e0b-b050-870acb74bebb"  >
</g>
<g transform="matrix(1 0 0 1 540 540)"  >
<g style="" vector-effect="non-scaling-stroke"   >
		<g transform="matrix(1 0 0 1 -0.92 0.01)" id="Path_32972"  >
<path style="stroke: none; stroke-width: 1; stroke-dasharray: none; stroke-linecap: butt; stroke-dashoffset: 0; stroke-linejoin: miter; stroke-miterlimit: 4; fill: rgb(255,255,255); fill-rule: nonzero; opacity: 1;" vector-effect="non-scaling-stroke"  transform=" translate(-16.03, -16.57)" d="M 19.566 10.307 C 19.130099628252978 9.8744387681134 18.42690037174702 9.8744387681134 17.991 10.307 L 12.491 15.828 C 12.071279840033672 16.248216098832586 12.055869029289639 16.92409022717804 12.456 17.363 L 17.878999999999998 22.803 C 18.156519214474127 23.09745052953239 18.57207569757984 23.21791994510369 18.964051430508224 23.11755534208301 C 19.35602716343661 23.017190739062325 19.662551691185918 22.711833923799684 19.764411648292715 22.320244115604368 C 19.86627160539951 21.928654307409047 19.747389154989627 21.512641045933144 19.453999999999997 21.234 L 14.853999999999997 16.561 L 19.578999999999997 11.882 C 19.78631418494124 11.671511844706348 19.901434812563945 11.38723443893838 19.898996348257523 11.091805109506446 C 19.8965578839511 10.796375780074513 19.77676042746068 10.514037380715097 19.566 10.307 Z" stroke-linecap="round" />
</g>
		<g transform="matrix(1 0 0 1 0 0)" id="Path_32973"  >
<path style="stroke: none; stroke-width: 1; stroke-dasharray: none; stroke-linecap: butt; stroke-dashoffset: 0; stroke-linejoin: miter; stroke-miterlimit: 4; fill: rgb(255,255,255); fill-rule: nonzero; opacity: 1;" vector-effect="non-scaling-stroke"  transform=" translate(-15.38, -15.38)" d="M 15.375 3.375 C 8.747583002030478 3.375 3.375 8.747583002030478 3.375 15.375 C 3.375 22.002416997969522 8.747583002030478 27.375 15.375 27.375 C 22.002416997969522 27.375 27.375 22.002416997969522 27.375 15.375 C 27.375 8.747583002030478 22.002416997969522 3.375 15.375 3.375 Z M 22.552 22.552 C 20.003973697277953 25.192259792694408 16.22934359911157 26.2517656761018 12.679553702214541 25.3231099270915 C 9.129763805317513 24.3944541780812 6.357545821918798 21.622236194682486 5.428890072908498 18.07244629778546 C 4.500234323898198 14.522656400888431 5.559740207305595 10.748026302722044 8.200000000000001 8.2 C 10.748026302722044 5.559740207305591 14.52265640088843 4.5002343238982 18.072446297785458 5.428890072908498 C 21.622236194682486 6.357545821918796 24.3944541780812 9.12976380531751 25.3231099270915 12.679553702214537 C 26.2517656761018 16.229343599111566 25.192259792694408 20.003973697277953 22.552 22.552 Z" stroke-linecap="round" />
</g>
</g>
</g>
</svg>