<?xml version="1.0" encoding="UTF-8" standalone="no" ?>
<!DOCTYPE svg PUBLIC "-//W3C//DTD SVG 1.1//EN" "http://www.w3.org/Graphics/SVG/1.1/DTD/svg11.dtd">
<svg xmlns="http://www.w3.org/2000/svg" xmlns:xlink="http://www.w3.org/1999/xlink" version="1.1" width="1080" height="1080" viewBox="0 0 1080 1080" xml:space="preserve">
<desc>Created with Fabric.js 5.2.4</desc>
<defs>
</defs>
<g transform="matrix(1 0 0 1 540 540)" id="2d1633fe-7c03-4998-b5bc-e95a5186cc3d"  >
<rect style="stroke: none; stroke-width: 1; stroke-dasharray: none; stroke-linecap: butt; stroke-dashoffset: 0; stroke-linejoin: miter; stroke-miterlimit: 4; fill: rgb(255,255,255); fill-rule: nonzero; opacity: 1; visibility: hidden;" vector-effect="non-scaling-stroke"  x="-540" y="-540" rx="0" ry="0" width="1080" height="1080" />
</g>
<g transform="matrix(1 0 0 1 540 540)" id="b85bdb5b-4bf5-4dd9-920c-9f9b7a3c1112"  >
</g>
<g transform="matrix(1 0 0 1 540 540)"  >
<g style="" vector-effect="non-scaling-stroke"   >
		<g transform="matrix(1 0 0 1 0.92 0)" id="Path_32972"  >
<path style="stroke: none; stroke-width: 1; stroke-dasharray: none; stroke-linecap: butt; stroke-dashoffset: 0; stroke-linejoin: miter; stroke-miterlimit: 4; fill: rgb(254,254,254); fill-rule: nonzero; opacity: 1;" vector-effect="non-scaling-stroke"  transform=" translate(-16.03, -16.57)" d="M 12.492 10.307 C 12.927900371747024 9.8744387681134 13.63109962825298 9.8744387681134 14.067 10.307 L 19.567 15.828 C 19.98672015996633 16.248216098832586 20.00213097071036 16.92409022717804 19.602 17.363 L 14.182 22.8 C 13.90448078552587 23.09445052953239 13.488924302420157 23.21491994510369 13.096948569491772 23.11455534208301 C 12.704972836563389 23.014190739062325 12.398448308814082 22.708833923799684 12.296588351707285 22.317244115604367 C 12.194728394600489 21.92565430740905 12.313610845010373 21.509641045933144 12.607000000000001 21.231 L 17.207 16.558 L 12.482000000000001 11.879 C 12.051442281188875 11.44182711397101 12.055915355107944 10.738659893893473 12.492 10.307 Z" stroke-linecap="round" />
</g>
		<g transform="matrix(1 0 0 1 0 0)" id="Path_32973"  >
<path style="stroke: none; stroke-width: 1; stroke-dasharray: none; stroke-linecap: butt; stroke-dashoffset: 0; stroke-linejoin: miter; stroke-miterlimit: 4; fill: rgb(254,254,254); fill-rule: nonzero; opacity: 1;" vector-effect="non-scaling-stroke"  transform=" translate(-15.38, -15.38)" d="M 15.375 3.375 C 22.002416997969522 3.375 27.375 8.747583002030474 27.375 15.374999999999996 C 27.375 22.00241699796952 22.002416997969526 27.374999999999996 15.375000000000004 27.375 C 8.747583002030481 27.375000000000004 3.3750000000000018 22.002416997969526 3.375 15.375000000000004 C 3.375 8.747583002030478 8.747583002030478 3.375 15.375 3.375 Z M 8.2 22.552 C 10.748026302722044 25.192259792694408 14.52265640088843 26.251765676101797 18.072446297785458 25.3231099270915 C 21.622236194682486 24.394454178081205 24.3944541780812 21.62223619468249 25.3231099270915 18.07244629778546 C 26.2517656761018 14.522656400888435 25.192259792694408 10.74802630272205 22.552 8.200000000000003 C 20.003973697277953 5.559740207305593 16.229343599111566 4.500234323898198 12.679553702214537 5.428890072908498 C 9.12976380531751 6.357545821918798 6.357545821918798 9.129763805317513 5.428890072908498 12.679553702214541 C 4.500234323898198 16.22934359911157 5.559740207305595 20.003973697277956 8.200000000000003 22.552000000000003 Z" stroke-linecap="round" />
</g>
</g>
</g>
</svg>