<svg width="24" height="24" viewBox="0 0 24 24" fill="none" xmlns="http://www.w3.org/2000/svg">
<path d="M9.5751 13.0001L12.0001 17.2501C12.1334 17.4834 12.1084 17.6878 11.9251 17.8631C11.7418 18.0378 11.5334 18.0584 11.3001 17.9251L3.3251 12.8501C3.00843 12.6501 2.8501 12.3668 2.8501 12.0001C2.8501 11.6334 3.00843 11.3501 3.3251 11.1501L11.3001 6.07511C11.5334 5.94177 11.7418 5.96244 11.9251 6.13711C12.1084 6.31244 12.1334 6.51677 12.0001 6.75011L9.5751 11.0001H21.0001C21.2834 11.0001 21.5208 11.0958 21.7121 11.2871C21.9041 11.4791 22.0001 11.7168 22.0001 12.0001C22.0001 12.2834 21.9041 12.5208 21.7121 12.7121C21.5208 12.9041 21.2834 13.0001 21.0001 13.0001H9.5751Z" fill="white"/>
</svg>
