<svg width="181" height="117" viewBox="0 0 181 117" fill="none" xmlns="http://www.w3.org/2000/svg">
<g clip-path="url(#clip0_358_666)">
<path d="M36.1232 68.8868C37.3643 58.5298 48.1588 48.8659 58.5536 50.1073C68.9483 51.351 76.1007 63.1117 74.8596 73.4687C73.6185 83.8236 64.0431 90.0856 53.6484 88.8441C43.2536 87.6005 34.8799 79.2416 36.1232 68.8868Z" fill="#038652"/>
<path d="M69.8358 59.7803C68.1004 56.964 65.6511 54.5075 62.7471 52.8976C64.0936 53.0599 65.4028 53.3538 66.6791 53.8758C66.9449 53.9833 67.2063 54.1039 67.4655 54.2267C66.0816 53.0116 64.5417 52.0092 62.8745 51.2854C62.367 51.4894 61.8772 51.7263 61.4203 52.0027C61.3917 51.6473 61.2028 51.2679 61.0446 51.0069C60.9392 50.8336 60.814 50.6735 60.6822 50.52C59.9902 50.3357 59.2829 50.1953 58.5558 50.1076C57.4135 49.9716 56.2646 49.9672 55.1245 50.0791C55.5375 50.1493 55.9483 50.2304 56.3547 50.3291C57.196 50.5331 58.0176 50.8073 58.8062 51.167C59.2104 51.3512 59.6036 51.5596 59.9792 51.7943C60.1154 51.8798 60.2472 51.972 60.3812 52.0641C59.7266 52.029 59.061 52.0531 58.4196 52.075C57.4069 52.1101 56.3964 52.1913 55.3903 52.3185C53.3562 52.5729 51.3506 53.0182 49.3978 53.6389C46.7398 54.4855 44.0994 55.6546 41.7599 57.2272C38.7373 60.5326 36.6306 64.6517 36.1232 68.8871C35.9716 70.157 35.965 71.3963 36.0858 72.5982C36.9997 70.3062 38.1705 68.1194 39.5786 66.0928C42.7901 61.467 47.2275 57.7624 52.326 55.3717C53.7538 54.7027 55.23 54.1324 56.7391 53.6784C57.1147 53.5665 57.4926 53.4591 57.8726 53.3582C56.1965 54.1851 54.5995 55.1874 53.1124 56.2994C50.8212 58.0103 48.7563 60.0259 46.9968 62.2785C45.1867 64.5947 43.704 67.1653 42.6232 69.8982C41.4546 72.8571 40.7428 75.9979 40.499 79.1695C40.4221 80.1631 40.3979 81.1655 40.4133 82.1656C41.6391 83.5299 43.0801 84.7297 44.6837 85.7255C47.4383 82.7579 49.9052 79.5292 52.0492 76.0923C54.9268 71.4752 57.229 66.5007 58.8611 61.3113C59.318 59.8636 59.72 58.4007 60.0715 56.9245C60.4054 55.5142 60.7173 54.0864 60.9106 52.6475C60.9721 52.63 61.0336 52.6146 61.0951 52.5971C61.7476 53.8429 62.3956 55.0777 62.9008 56.3916C63.417 57.7361 63.8124 59.1267 64.0826 60.5414C64.6208 63.3533 64.6494 66.2551 64.1771 69.0779C63.1666 75.1184 59.6036 80.2816 56.0603 85.1245C55.118 86.412 54.1272 87.6907 52.9213 88.7457C53.1607 88.783 53.4023 88.8159 53.644 88.8444C57.1389 89.2633 60.5416 88.8291 63.5664 87.6775C66.4353 85.7342 68.7967 83.111 70.4091 80.0403C72.0962 76.8292 72.9419 73.1597 72.8145 69.5363C72.6937 66.084 71.6414 62.7172 69.8314 59.7781L69.8358 59.7803Z" fill="#02563F"/>
<path d="M71.4899 69.2247C71.3647 68.9878 71.2329 68.7619 71.2571 68.4834C71.2834 68.1741 71.4394 67.8868 71.4899 67.5797C71.5712 67.1037 71.4833 66.5927 71.2022 66.1913C71.0726 66.0049 70.8924 65.8908 70.7299 65.7395C70.5278 65.5509 70.4685 65.2767 70.4487 65.0113C70.4048 64.4322 70.4619 63.8576 70.2949 63.2917C70.1434 62.7763 69.8117 62.3091 69.3152 62.0744C69.0714 61.9603 68.7507 61.9143 68.5727 61.6971C68.4695 61.5721 68.3641 61.3133 68.3509 61.1773C68.3179 60.833 68.2806 60.4886 68.107 60.1793C67.9049 59.8196 67.5667 59.5476 67.1691 59.5082C67.1954 59.0607 67.0526 58.6155 66.7956 58.247C66.4903 57.8105 66.0531 57.5539 65.5457 57.4223C65.4007 57.385 65.2755 57.3433 65.2382 57.1832C65.203 57.0385 65.2382 56.8827 65.2294 56.7358C65.214 56.477 65.1129 56.2401 64.968 56.0273C64.6494 55.5623 64.1618 55.2465 63.8147 54.8056C63.4303 54.3187 63.193 53.7331 63.103 53.1233C63.1359 53.1343 63.1689 53.1453 63.1996 53.1584C63.0481 53.0685 62.8965 52.9786 62.7427 52.893C64.0893 53.0553 65.3985 53.3492 66.6748 53.8713C66.9406 53.9787 67.202 54.0994 67.4612 54.2222L67.3997 54.1608C67.2899 54.0511 67.068 53.8822 66.9472 53.7857C66.9406 53.7813 66.9362 53.7769 66.9296 53.7704C66.5803 53.4852 66.2223 53.2132 65.8554 52.9566C65.8466 52.95 65.8357 52.9435 65.8269 52.9369C65.46 52.6803 65.0822 52.439 64.6978 52.2109C64.6912 52.2065 64.6868 52.2043 64.6802 52.1999C64.6209 52.1648 64.5594 52.1319 64.5001 52.099C64.4913 52.1034 64.4825 52.1056 64.4737 52.11C64.399 52.1473 64.3771 52.1758 64.2914 52.1582C64.2453 52.1495 64.1947 52.1078 64.1508 52.0903C63.9355 52.0069 63.7027 51.9828 63.4764 52.0266C63.36 52.0486 63.2589 52.0946 63.1535 52.1429C63.0349 52.1977 63.0173 52.1495 62.9053 52.099C62.7142 52.0113 62.4879 51.9937 62.2858 52.0508C62.1936 52.0771 62.1233 52.1319 62.0376 52.167C61.9453 52.2043 61.9959 52.1846 61.9168 52.1539C61.8641 52.1341 61.8179 52.099 61.763 52.0793C61.7037 52.0573 61.6444 52.0464 61.5851 52.0398C61.5961 51.9894 61.6026 51.9367 61.607 51.8841C61.5433 51.9214 61.4774 51.9565 61.4137 51.9959C61.3852 51.6406 61.1963 51.2612 61.0381 51.0002C60.9327 50.8269 60.8074 50.6668 60.6756 50.5132C60.5065 50.4672 60.3374 50.4255 60.166 50.386C60.1594 50.386 60.1528 50.3838 60.1462 50.3816C59.9881 50.3443 59.8277 50.3114 59.6674 50.2807C59.6476 50.2763 59.6278 50.272 59.6081 50.2698C59.6015 50.2698 59.5949 50.2676 59.5883 50.2654C59.6124 50.3443 59.6564 50.4189 59.7157 50.4803C59.7464 50.5132 59.8058 50.5461 59.8299 50.5812C59.8585 50.6229 59.8343 50.6448 59.808 50.6931C59.7574 50.7896 59.7157 50.8839 59.7596 50.9936C59.8036 51.1032 59.9178 51.1756 60.0188 51.2261C60.0847 51.259 60.1572 51.2853 60.2231 51.316C60.2407 51.3248 60.2956 51.3445 60.3132 51.3621C60.3659 51.3708 60.3725 51.3862 60.3308 51.4081C60.3264 51.4213 60.3242 51.4366 60.3198 51.4498C60.2341 51.7305 60.59 51.7854 60.7415 51.9214C60.7174 51.9959 60.691 52.0771 60.6712 52.1582C60.5768 52.1166 60.4692 52.1034 60.3527 52.1166C60.2495 52.1275 60.1484 52.1604 60.0562 52.2065C59.9485 52.2635 59.8277 52.3995 59.7069 52.4193C59.5993 52.4368 59.5158 52.2986 59.4257 52.2416C59.3357 52.1846 59.2324 52.1517 59.1248 52.1429C58.9051 52.1275 58.7074 52.2175 58.5207 52.3227C58.3362 52.4258 58.1516 52.5618 57.932 52.5092C57.664 52.4456 57.4421 52.3776 57.1719 52.4719C56.9413 52.553 56.7546 52.7154 56.5283 52.8053C56.2603 52.9128 55.9813 52.7614 55.7111 52.7263C55.4585 52.6934 55.2301 52.7461 55.0148 52.8821C54.8281 53.0005 54.6809 53.176 54.4876 53.2812C54.2613 53.4041 54.0197 53.2374 53.7758 53.2681C53.5628 53.2966 53.398 53.4238 53.2662 53.5839C53.1322 53.7462 53.029 53.97 52.8488 54.0862C52.6643 54.2068 52.4095 54.1739 52.2008 54.1695C51.9702 54.1652 51.7263 54.1652 51.5089 54.2551C51.2562 54.3604 51.1684 54.5644 50.9992 54.7596C50.8235 54.9635 50.4962 54.821 50.2655 54.8056C50.0195 54.7881 49.7911 54.8495 49.5912 54.9921C49.4022 55.1259 49.2638 55.3145 49.0947 55.468C48.9058 55.6369 48.7213 55.6698 48.4752 55.6676C47.9678 55.6588 47.5109 55.7005 47.311 56.2335C47.2297 56.4506 47.188 56.659 46.9178 56.6612C46.6871 56.6612 46.4587 56.6108 46.2302 56.67C45.9908 56.7314 45.8414 56.8959 45.747 57.1174C45.703 57.2161 45.6745 57.3433 45.5888 57.4179C45.5097 57.4859 45.3955 57.4881 45.2966 57.4903C44.809 57.51 44.3586 57.5254 44.1675 58.0518C44.0863 58.2733 44.0467 58.4861 43.8205 58.6023C43.6271 58.7032 43.4053 58.7383 43.201 58.8085C43.0055 58.8765 42.8166 58.9708 42.676 59.1265C42.4959 59.3261 42.4629 59.5959 42.3245 59.8174C42.107 60.1618 41.6282 60.2495 41.3052 60.4689C41.1471 60.5763 41.0065 60.7255 40.945 60.9097C40.8725 61.1247 40.967 61.4603 40.7056 61.548C40.4859 61.6226 40.2794 61.6511 40.1037 61.8156C39.9499 61.9581 39.8554 62.1468 39.7698 62.3354C39.6863 62.5174 39.6094 62.7324 39.4534 62.8662C39.2579 63.0351 38.9614 63.011 38.7593 63.1842C38.7175 63.2193 38.6846 63.2588 38.656 63.2983C38.5396 63.4672 38.3793 63.5988 38.1816 63.6448C37.9267 63.7041 37.6741 63.7764 37.4566 63.9036C37.4193 63.9958 37.3776 64.0857 37.3402 64.1778C37.3336 64.1954 37.327 64.2151 37.3183 64.2326C37.2304 64.4608 37.1447 64.6889 37.0612 64.9192C37.0525 64.9433 37.0437 64.9652 37.0349 64.9894C36.9558 65.2153 36.8811 65.4434 36.8108 65.6737C36.7976 65.7175 36.7845 65.7636 36.7691 65.8075C36.6988 66.0378 36.6329 66.2681 36.5736 66.5006C36.5692 66.5203 36.5648 66.5379 36.5604 66.5576C36.5033 66.7769 36.4528 66.9985 36.4044 67.22C36.3956 67.2617 36.3869 67.3012 36.3781 67.3428C36.3297 67.5709 36.2858 67.799 36.2485 68.0293C36.2397 68.0754 36.2331 68.1237 36.2265 68.1697C36.1892 68.4066 36.1518 68.6435 36.1255 68.8804C36.1057 69.0405 36.0903 69.2006 36.0749 69.3585C36.0661 69.4484 36.0618 69.5362 36.053 69.6261C36.0486 69.6941 36.042 69.7621 36.0376 69.8301C36.0288 69.9529 36.0244 70.0757 36.02 70.1986C36.02 70.2315 36.0156 70.2644 36.0156 70.2995C36.0112 70.442 36.0068 70.5824 36.0068 70.7228C36.0068 70.7359 36.0068 70.7491 36.0068 70.7623C36.0068 70.9158 36.0068 71.0693 36.009 71.2229H36.0046C36.0134 71.6835 36.042 72.1397 36.0881 72.5893C37.0019 70.2973 38.1728 68.1105 39.5808 66.0838C42.7924 61.4581 47.2297 57.7535 52.3282 55.3627C53.7561 54.6938 55.2323 54.1235 56.7414 53.6695C57.117 53.5576 57.4948 53.4501 57.8749 53.3492C57.4926 53.5379 57.1126 53.7375 56.7392 53.9436C57.3345 53.7769 57.9254 53.5927 58.5273 53.4479C58.4504 53.5883 58.2659 53.7155 58.1824 53.8142C58.1187 53.891 58.0616 53.9787 58.0374 54.0774C57.9979 54.2353 58.0748 54.3472 58.1033 54.4942C58.1714 54.8429 57.6288 55.0074 57.4333 55.2092C57.1917 55.4614 57.2181 55.7882 57.262 56.1085C57.2818 56.262 57.3059 56.4243 57.262 56.5757C57.2115 56.7599 57.0863 56.7906 56.9303 56.863C56.6447 56.9968 56.4294 57.2315 56.2889 57.5122C56.1263 57.839 56.0912 58.2163 56.0824 58.576C56.078 58.7515 56.1153 58.973 56.0582 59.1419C55.9945 59.3283 55.7089 59.381 55.5464 59.4446C55.274 59.5498 54.8852 59.6463 54.8742 60.0039C54.8698 60.1749 54.9599 60.3329 54.8544 60.4908C54.7731 60.6136 54.6282 60.6992 54.5073 60.7781C54.4832 60.7935 54.459 60.8132 54.4349 60.8308C54.4283 60.8351 54.4217 60.8395 54.4129 60.8439C54.0944 61.0435 53.7539 61.2321 53.4529 61.4581C53.1718 61.6664 53.1915 61.9187 53.1124 62.2279C53.0443 62.4955 52.8313 62.6578 52.5984 62.7828C52.3546 62.9123 52.0954 63.011 51.8559 63.1535C51.6011 63.3027 51.3727 63.4847 51.1684 63.6997C50.7664 64.1208 50.5072 64.6735 50.5116 65.2591C50.5138 65.5706 50.5445 65.8601 50.3534 66.1255C50.215 66.3185 50.0283 66.4677 49.8482 66.619C49.4747 66.9327 49.1013 67.2704 49.0639 67.7859C49.0398 68.1171 49.1606 68.4395 49.1386 68.7685C49.1167 69.0997 48.8904 69.3125 48.6773 69.5406C48.4621 69.7687 48.2907 70.0297 48.216 70.3389C48.1348 70.6701 48.1897 70.9706 48.2358 71.3018C48.26 71.4817 48.2797 71.6769 48.1809 71.837C48.0952 71.9752 47.9656 72.0739 47.8887 72.2186C47.7262 72.5213 47.7613 72.8701 47.8184 73.1947C47.8558 73.4009 47.8953 73.6048 47.9261 73.811C47.97 74.1225 47.7965 74.4252 47.5065 74.5502H47.5021C47.2077 74.6796 46.9266 74.8222 46.6849 75.0349C46.4499 75.2411 46.2566 75.4824 46.1094 75.7587C45.9468 76.0592 45.8853 76.3794 45.8041 76.7084C45.7228 77.044 45.5998 77.3116 45.312 77.5134C45.0814 77.6735 44.8243 77.7985 44.6332 78.0091C44.418 78.2482 44.3784 78.5574 44.374 78.8689C44.3696 79.2067 44.3872 79.551 44.0863 79.7726C43.8358 79.959 43.5217 80.0401 43.2647 80.2222C43.0143 80.3998 42.8078 80.6411 42.6716 80.9153C42.5925 81.0732 42.5442 81.2443 42.5222 81.4198C42.5002 81.6018 42.5332 81.7817 42.5266 81.9637C42.5112 82.3629 42.1532 82.4243 41.8786 82.6195C41.6282 82.795 41.5667 83.0341 41.5425 83.2995C41.8215 83.5627 42.107 83.8193 42.4036 84.0649C42.4058 84.0649 42.408 84.0693 42.4102 84.0715C42.5837 84.2163 42.7595 84.3567 42.9374 84.497C42.9901 84.5387 43.045 84.576 43.0824 84.6352C43.1658 84.7734 43.2998 84.8567 43.4558 84.8962C43.48 84.9028 43.4975 84.916 43.5151 84.9291C43.6952 85.0585 43.8776 85.1857 44.0599 85.3086C44.0819 85.3239 44.106 85.3393 44.128 85.3546C44.3103 85.4753 44.4926 85.5959 44.6794 85.71C47.434 82.7424 49.9009 79.5137 52.0449 76.0768C54.9225 71.4597 57.2246 66.4852 58.8568 61.2958C59.3137 59.8481 59.7157 58.3852 60.0672 56.909C60.4033 55.4921 60.7152 54.0599 60.9085 52.6145C61.0029 52.5969 60.9964 52.5991 61.0908 52.5816C61.7432 53.8274 62.3913 55.0622 62.8965 56.3761C63.4127 57.7206 63.8081 59.1112 64.0783 60.5259C64.6165 63.3378 64.6451 66.2396 64.1728 69.0624C63.1623 75.1029 59.5993 80.2661 56.056 85.109C55.1136 86.3965 54.1229 87.6752 52.9169 88.7302C53.1564 88.7675 53.398 88.8004 53.6397 88.8289C53.9274 88.864 54.2152 88.8903 54.5008 88.9123C54.5754 88.9188 54.6523 88.9232 54.727 88.9298C54.9884 88.9473 55.2498 88.9627 55.5112 88.9715C55.5376 88.9715 55.5661 88.9737 55.5925 88.9759C55.7045 88.9802 55.8144 88.9759 55.9242 88.9781C55.9659 88.9254 56.0121 88.8794 56.0692 88.8596C56.1856 88.8201 56.3372 88.8728 56.4514 88.8947C56.6052 88.9254 56.7611 88.9561 56.9193 88.9452C57.0555 88.9364 57.1917 88.8947 57.3037 88.8114C57.396 88.7412 57.508 88.5109 57.6179 88.4955C57.7255 88.4824 57.9254 88.6666 58.022 88.7127C58.1714 88.785 58.3362 88.8179 58.5031 88.8004C58.8963 88.7609 59.1951 88.4758 59.4565 88.206C59.6256 88.0305 60.0825 87.5787 60.3264 87.866C60.4186 87.9735 60.6998 87.9954 60.7459 87.8243C60.9239 87.1576 61.7081 86.7299 62.3495 87.0457C62.4725 87.1071 62.6966 87.0545 62.7032 86.8944C62.7317 86.2583 63.3732 85.7187 64.008 85.892C64.1201 85.9227 64.298 85.8591 64.3002 85.7253C64.309 85.3283 64.4386 84.9554 64.6868 84.644C64.946 84.3172 65.2667 84.1834 65.6445 84.0408C66.0158 83.9026 66.2179 83.6372 66.2948 83.2534C66.3607 82.9178 66.3651 82.5691 66.6045 82.2993C67.0043 81.8453 67.6677 81.7246 68.1048 81.3123C68.3465 81.0842 68.4563 80.8122 68.5068 80.4898C68.5354 80.3099 68.542 80.1235 68.5991 79.9502C68.6716 79.7265 68.8188 79.6497 69.0275 79.5686C69.3394 79.4479 69.5744 79.2527 69.693 78.9347C69.7985 78.6496 69.8117 78.3315 69.8402 78.031C69.8688 77.7349 69.8995 77.4015 70.0884 77.1559C70.1917 77.0221 70.3411 76.9344 70.4597 76.8159C70.6069 76.669 70.6881 76.4935 70.6881 76.2829C70.6881 76.0768 70.6135 75.875 70.5673 75.6776C70.5124 75.4319 70.5014 75.1775 70.5212 74.9252C70.5585 74.4317 70.7101 73.9536 70.8485 73.4798C70.8595 73.4447 70.8683 73.4096 70.8793 73.3745C70.9408 73.153 71.0242 72.9381 71.1319 72.7363C71.1692 72.6661 71.2066 72.5959 71.2439 72.5235C71.7579 71.4992 72.0457 70.2753 71.4833 69.2072L71.4899 69.2247Z" fill="#044732"/>
<path d="M61.42 53.0641C76.9923 72.4182 67.0963 88.3135 50.6431 88.274C60.0625 76.1996 62.336 64.2787 61.42 53.0641Z" fill="#FF7F6C"/>
<path d="M62.727 58.2996C63.1685 58.1571 63.6101 58.0123 64.0538 57.8675C64.2603 57.7995 64.4778 57.7359 64.6952 57.6636C64.6096 57.5232 64.5195 57.385 64.4294 57.2446C64.2317 57.3082 64.0362 57.374 63.8451 57.4376C63.4036 57.5824 62.962 57.7272 62.5227 57.8719C62.2174 57.9728 61.9098 58.0737 61.6045 58.1746C61.6045 58.3391 61.6001 58.5036 61.5957 58.6681C61.9735 58.5453 62.3514 58.4225 62.7292 58.3018L62.727 58.2996Z" fill="#FF5653"/>
<path d="M64.7721 66.8866C65.686 67.0358 66.5954 67.2266 67.4916 67.4591C67.9486 67.5775 68.4033 67.7047 68.8514 67.8473C68.8184 67.674 68.7855 67.4986 68.7482 67.3231C68.4011 67.2222 68.054 67.1235 67.7025 67.0336C66.7536 66.7901 65.7936 66.5949 64.8271 66.4436C63.8847 66.2988 62.9357 66.1979 61.9845 66.1409C61.6221 66.1189 61.2465 66.0948 60.8708 66.0795C60.8445 66.222 60.8181 66.3646 60.7917 66.5094C61.1718 66.5203 61.554 66.5357 61.934 66.5598C62.8852 66.6212 63.832 66.7309 64.7721 66.8844V66.8866Z" fill="#FF5653"/>
<path d="M63.0894 59.5257C63.5222 59.4182 63.9571 59.3108 64.3899 59.2011C64.6996 59.1221 65.1192 59.0651 65.4289 58.9028C65.3542 58.7712 65.2795 58.6396 65.2027 58.5058C64.8688 58.5299 64.5239 58.6484 64.2163 58.7273C63.7682 58.8414 63.3179 58.9576 62.8698 59.0739L61.5759 59.4095C61.5693 59.5762 61.5605 59.7428 61.554 59.9095C61.633 59.8898 61.7121 59.8679 61.7912 59.8481L63.0916 59.5257H63.0894Z" fill="#FF5653"/>
<path d="M63.6562 57.2468C63.8693 57.1942 64.0824 57.1481 64.2998 57.113C64.313 57.113 64.3262 57.1086 64.3394 57.1086C64.2383 56.9507 64.1373 56.7906 64.0318 56.6327C63.8825 56.6656 63.7375 56.7007 63.6057 56.7336C63.1663 56.8367 62.7314 56.9683 62.3074 57.1174C62.0702 57.2008 61.8373 57.2929 61.6067 57.3894C61.6067 57.5758 61.6067 57.7645 61.6045 57.9509C61.8659 57.839 62.1273 57.7316 62.3953 57.6351C62.8105 57.4859 63.23 57.3565 63.6584 57.2512L63.6562 57.2468Z" fill="#FF5653"/>
<path d="M55.5483 87.7805C55.3396 87.5765 55.1331 87.3659 54.9376 87.1488C54.4455 86.6026 53.9974 86.0148 53.5954 85.4007C53.4548 85.1879 53.3252 84.9686 53.1978 84.7471C52.4114 85.9205 51.5635 87.0983 50.6431 88.2762C52.3565 88.2806 53.9974 88.1095 55.5483 87.7805Z" fill="#FF5653"/>
<path d="M58.0634 86.1618C56.7762 85.1353 55.5592 84.0233 54.4213 82.8323C54.3334 82.9748 54.2434 83.1174 54.1555 83.26C54.6146 83.7447 55.0825 84.2207 55.5702 84.6791C56.4225 85.484 57.3166 86.2912 58.2611 87.0128C58.4632 86.9404 58.6631 86.8637 58.8608 86.7847C58.5928 86.5807 58.327 86.3702 58.0634 86.1618Z" fill="#FF5653"/>
<path d="M61.6045 57.1657C61.8373 57.0648 62.0702 56.9705 62.3096 56.8827C62.6259 56.7665 62.9467 56.6634 63.2696 56.5713C63.4453 56.5208 63.6826 56.4857 63.8868 56.4134C63.7902 56.2708 63.6935 56.1282 63.5947 55.9835C63.4233 56.0186 63.2542 56.0734 63.1026 56.1173C62.7402 56.2203 62.3843 56.341 62.0328 56.4748C61.8857 56.5318 61.7407 56.591 61.5979 56.6524C61.6001 56.8235 61.6045 56.9946 61.6067 57.1657H61.6045Z" fill="#FF5653"/>
<path d="M67.362 64.509C67.5773 64.5397 67.7926 64.5726 68.0079 64.6034C67.6125 63.4146 67.1204 62.1972 66.5163 60.9558C66.0814 60.9602 65.6464 60.9799 65.2181 60.9975C64.1285 61.0414 63.0389 61.1335 61.9582 61.2717C61.7956 61.2914 61.6331 61.3133 61.4683 61.3331C61.4046 62.1907 61.3167 63.0527 61.2047 63.9168C62.2547 63.9761 63.3025 64.0462 64.3504 64.1493C65.3565 64.248 66.3603 64.3687 67.362 64.509Z" fill="#FF5653"/>
<path d="M62.3449 64.5858C61.9429 64.5244 61.5387 64.463 61.1367 64.4037C61.1125 64.577 61.0906 64.7481 61.0642 64.9214C61.4289 64.9806 61.7935 65.0376 62.1582 65.0925C63.0544 65.2306 63.9507 65.371 64.8469 65.5092C66.0463 65.6956 67.2479 65.8799 68.4473 66.0663C68.3968 65.8755 68.3396 65.6803 68.2825 65.4873C67.1996 65.3228 66.1188 65.1561 65.0358 64.9916C64.1396 64.8556 63.2411 64.7196 62.3449 64.5814V64.5858Z" fill="#FF5653"/>
<path d="M65.899 79.9108C65.4223 79.7309 64.9435 79.5511 64.4646 79.3712C63.5266 79.0181 62.5864 78.6649 61.6484 78.3118C60.7104 77.9587 59.7703 77.6056 58.8301 77.2546C58.4193 77.1011 58.0063 76.9475 57.5955 76.7962C57.5384 76.9278 57.4791 77.0594 57.4198 77.1888C57.7932 77.3358 58.1667 77.4805 58.5401 77.6253C59.4891 77.9938 60.4402 78.3601 61.3892 78.7264C62.3404 79.0926 63.2893 79.4589 64.2405 79.8252C64.715 80.0095 65.1917 80.1937 65.6662 80.3736C65.9627 80.4876 66.2615 80.6104 66.5602 80.7223C66.6613 80.571 66.7601 80.4174 66.8568 80.2617C66.5383 80.1367 66.2109 80.027 65.8946 79.9086L65.899 79.9108Z" fill="#FF5653"/>
<path d="M67.1731 78.6584C66.6876 78.496 66.2022 78.3359 65.7167 78.1736C64.7106 77.838 63.7045 77.5046 62.6962 77.1735C61.688 76.8423 60.6797 76.5089 59.6714 76.1777C59.1837 76.0176 58.6939 75.8618 58.2062 75.7039C58.1645 75.6907 58.1205 75.6776 58.0788 75.6622C58.0173 75.8136 57.9536 75.9649 57.8899 76.1163C58.371 76.2808 58.852 76.4475 59.3331 76.6098C60.3546 76.9519 61.376 77.2963 62.3975 77.6384C63.4014 77.9762 64.4075 78.3096 65.4135 78.6452C65.9166 78.8119 66.4196 78.9808 66.9227 79.1475C67.0786 79.2001 67.239 79.2593 67.4016 79.3164C67.4894 79.1475 67.5751 78.9764 67.6586 78.8053C67.4916 78.7549 67.3291 78.7088 67.1753 78.6584H67.1731Z" fill="#FF5653"/>
<path d="M65.7849 68.9462C64.7656 68.5953 63.7376 68.2728 62.6963 67.9921C62.1713 67.8495 61.6463 67.7157 61.1169 67.5907C60.9522 67.5512 60.7786 67.503 60.6029 67.4591C60.5721 67.6083 60.5414 67.7574 60.5084 67.9066C60.6666 67.9373 60.8225 67.968 60.9653 68.0031C61.4925 68.1347 62.0154 68.275 62.5382 68.422C63.5574 68.7115 64.5679 69.0274 65.5696 69.3805C66.5603 69.7292 67.5422 70.1087 68.5088 70.5188C68.7416 70.6175 68.9723 70.7206 69.2007 70.8259C69.1919 70.6351 69.1809 70.4421 69.1678 70.2469C69.0557 70.2008 68.9437 70.1525 68.8317 70.1065C67.83 69.6876 66.8129 69.3015 65.7871 68.9484L65.7849 68.9462Z" fill="#FF5653"/>
<path d="M67.0918 71.7668C65.4751 70.8961 63.7814 70.1701 62.0394 69.591C61.4463 69.3936 60.8466 69.2204 60.2426 69.0668C59.8669 70.589 59.41 72.12 58.8586 73.6575C60.4798 74.015 62.1075 74.3418 63.7309 74.6774C64.8051 74.899 65.8793 75.1227 66.9512 75.3442C67.4872 75.4561 68.0254 75.5679 68.5614 75.6776C68.6251 75.6908 68.6888 75.7039 68.7503 75.7149C68.9612 74.8419 69.1018 73.9339 69.1699 72.9907C68.4911 72.5587 67.7992 72.1485 67.0896 71.769L67.0918 71.7668Z" fill="#FF5653"/>
<path d="M62.3558 67.5424C63.2893 67.7245 64.2185 67.9306 65.139 68.1609C66.044 68.3891 66.9446 68.6413 67.8343 68.9198C68.2517 69.0492 68.6646 69.1874 69.0776 69.33C69.06 69.1721 69.0381 69.0142 69.0161 68.854C68.6888 68.7444 68.3615 68.6369 68.0298 68.5338C67.1226 68.2509 66.2044 67.9964 65.2817 67.7661C64.3591 67.5358 63.4299 67.3319 62.4941 67.1586C62.0175 67.0708 61.5408 66.9853 61.0619 66.9151C60.9565 66.8998 60.8422 66.8778 60.7258 66.8559C60.7016 66.9831 60.6753 67.1125 60.6489 67.2397C60.7741 67.2617 60.9015 67.2836 61.0268 67.3033C61.4705 67.3801 61.912 67.4569 62.3536 67.5446L62.3558 67.5424Z" fill="#FF5653"/>
<path d="M56.4291 84.0211C57.3693 84.9269 58.3644 85.7714 59.4056 86.5566C59.5967 86.4732 59.7857 86.3877 59.9724 86.3C59.6583 86.0675 59.3463 85.8328 59.041 85.5893C57.7384 84.5584 56.5258 83.4311 55.3769 82.2335C55.2539 82.1063 55.1331 81.9747 55.0145 81.8431C54.9288 81.9922 54.8409 82.1392 54.7509 82.2883C55.2868 82.8871 55.8536 83.464 56.4313 84.0189L56.4291 84.0211Z" fill="#FF5653"/>
<path d="M57.5715 83.045C58.7093 83.986 59.889 84.8743 61.1015 85.7143C62.8523 84.7251 64.3746 83.4705 65.6135 81.9856C64.8776 81.6566 64.0846 81.422 63.3312 81.15C62.3492 80.7968 61.3673 80.4437 60.3854 80.0928C59.1487 79.6519 57.9119 79.2001 56.6708 78.7636C56.2776 79.5598 55.8558 80.356 55.4055 81.1544C55.4846 81.2267 55.5615 81.2969 55.6384 81.3671C56.2644 81.944 56.9124 82.5011 57.5671 83.045H57.5715Z" fill="#FF5653"/>
<path d="M63.6738 65.3819C63.3136 65.3271 62.9401 65.61 62.7336 65.8798C62.4854 66.2023 62.358 66.6892 62.5096 67.0796C62.5228 67.1147 62.5623 67.1344 62.6062 67.1432C62.6458 67.2046 62.7051 67.2573 62.7666 67.2836C62.9533 67.3669 63.1752 67.3055 63.3268 67.1805C63.6123 66.948 63.8276 66.5927 63.9682 66.2571C64.0407 66.0838 64.0934 65.8952 64.0429 65.7109C63.9945 65.5399 63.8518 65.4083 63.676 65.3819H63.6738Z" fill="#201F3F"/>
<path d="M60.9653 73.1354C60.8533 73.1442 60.7171 73.21 60.6556 73.3065C60.5435 73.4205 60.4666 73.585 60.4205 73.7276C60.359 73.9119 60.3436 74.1136 60.3744 74.3045C60.4315 74.6598 60.6446 75.0721 61.0114 75.1884C61.1872 75.2454 61.3761 75.2103 61.5057 75.0765C61.6287 74.9493 61.6748 74.7651 61.699 74.5962C61.7561 74.197 61.666 73.7715 61.4552 73.4249C61.3497 73.2539 61.1762 73.1157 60.9653 73.1332V73.1354Z" fill="#201F3F"/>
<path d="M61.0861 79.0026C60.9016 78.8557 60.6489 78.8754 60.4381 78.9434C60.0009 79.086 59.5176 79.29 59.2211 79.6519C59.0717 79.8339 58.9509 80.0861 58.9773 80.3274C58.997 80.5117 59.1091 80.6564 59.2694 80.6959C59.3924 80.7924 59.6033 80.8078 59.7417 80.7902C59.968 80.7617 60.1854 80.6564 60.3788 80.5402C60.7346 80.323 61.0641 79.9699 61.1959 79.5685C61.2618 79.3733 61.2618 79.1408 61.0861 79.0004V79.0026Z" fill="#201F3F"/>
<path d="M62.9488 61.9318C63.1092 61.9055 63.2278 61.7914 63.3223 61.6686C63.4189 61.5414 63.498 61.401 63.5595 61.254C63.6188 61.1115 63.665 60.9536 63.6781 60.8C63.6935 60.6509 63.6364 60.5061 63.4936 60.4447C63.2432 60.335 62.9686 60.4995 62.8851 60.7364C62.727 60.9207 62.615 61.1444 62.5578 61.3813C62.5293 61.4997 62.5117 61.6357 62.5644 61.7497C62.6303 61.8989 62.7929 61.9625 62.951 61.9362L62.9488 61.9318Z" fill="#201F3F"/>
<path d="M64.6799 63.4496C64.9193 63.4693 65.1851 63.3465 65.3104 63.1359C65.4268 62.9385 65.4004 62.6907 65.2291 62.5328C65.1258 62.4385 64.983 62.4121 64.849 62.4275C64.7502 62.4407 64.6228 62.4999 64.5723 62.5964C64.4119 62.6666 64.2713 62.7872 64.2362 62.9583C64.212 63.0745 64.2428 63.193 64.324 63.2807C64.4163 63.3838 64.5437 63.4386 64.6799 63.4496Z" fill="#201F3F"/>
<path d="M63.1795 71.089C63.0499 70.9881 62.8983 70.9158 62.7314 70.9092C62.5798 70.9026 62.4062 70.9618 62.3184 71.0912C62.2415 71.2031 62.2327 71.3413 62.2701 71.4685C62.314 71.6132 62.4194 71.7207 62.5468 71.7953C62.6655 71.9313 62.8456 72.0146 63.0279 72.0124C63.1729 72.0124 63.3179 71.962 63.4189 71.8567C63.5244 71.7449 63.5353 71.5738 63.4782 71.4378C63.4189 71.2952 63.3003 71.1834 63.1795 71.0912V71.089Z" fill="#201F3F"/>
<path d="M65.4618 68.321C65.3344 68.275 65.2004 68.275 65.0862 68.3342C64.8028 68.3539 64.5238 68.4153 64.313 68.6215C64.1043 68.8255 64.0252 69.183 64.2449 69.4133C64.5107 69.6897 64.9214 69.5778 65.218 69.4221C65.4904 69.2795 65.7847 69.0361 65.7474 68.6939C65.7298 68.525 65.6244 68.3824 65.4618 68.321Z" fill="#201F3F"/>
<path d="M57.9975 82.6151C57.8481 82.6392 57.7207 82.7467 57.7405 82.8959C57.5691 83.1415 57.4637 83.431 57.4483 83.7315C57.4329 84.0013 57.49 84.361 57.8151 84.4115C58.171 84.4663 58.3753 84.0934 58.4763 83.8127C58.5796 83.521 58.6499 83.1042 58.4676 82.8301C58.3665 82.6787 58.1776 82.5888 57.9975 82.6173V82.6151Z" fill="#201F3F"/>
<path d="M55.8426 84.543C55.836 84.5167 55.8096 84.497 55.7855 84.4904C55.7415 84.4772 55.6976 84.4882 55.6668 84.5189C55.6493 84.5365 55.6339 84.5584 55.6185 84.5781C55.5548 84.6088 55.4977 84.6571 55.4757 84.7251C55.4691 84.7448 55.4691 84.7668 55.4713 84.7865C55.4054 84.9049 55.3527 85.03 55.3154 85.1572C55.2583 85.348 55.2253 85.5915 55.3879 85.7406C55.568 85.9073 55.8579 85.8393 56.0095 85.6704C56.0842 85.5871 56.1216 85.4774 56.1413 85.3699C56.1633 85.2537 56.1765 85.1309 56.1743 85.0124C56.1743 84.8962 56.1479 84.7733 56.071 84.6812C56.0117 84.611 55.9304 84.5606 55.8404 84.543H55.8426Z" fill="#201F3F"/>
<path d="M56.3632 81.525C56.1655 81.525 55.9678 81.5755 55.8338 81.7312C55.6756 81.9155 55.6624 82.2137 55.8645 82.3695C55.9788 82.4594 56.1325 82.4813 56.2731 82.4835C56.4181 82.4835 56.5697 82.4791 56.7103 82.4353C56.8531 82.3914 56.9827 82.3103 57.0551 82.1765C57.1167 82.0668 57.1145 81.933 57.0551 81.8211C56.9299 81.5733 56.6268 81.4768 56.3588 81.525H56.3632Z" fill="#201F3F"/>
<path d="M61.42 53.0641C61.4727 53.7177 61.5145 54.3713 61.5452 55.0293C74.5342 72.9315 65.7211 87.4251 50.6716 88.2367C50.6628 88.2498 50.6519 88.2608 50.6431 88.274C67.0963 88.3135 76.9923 72.4182 61.42 53.0641Z" fill="#CDD7A3"/>
</g>
<g clip-path="url(#clip1_358_666)">
<path d="M16.3289 77.5944L16.4099 76.3829C16.4154 76.3126 16.4688 76.2571 16.5387 76.2479C17.3483 76.148 18.2351 75.8391 19.1624 75.4247C19.3004 75.3637 19.2673 75.1565 19.1183 75.1399C18.2075 75.0455 17.3464 75.0067 16.5718 75.0622C16.4798 75.0696 16.4062 74.9901 16.4173 74.8976C16.4872 74.3131 16.4577 73.723 16.386 73.1292C16.3694 72.9961 16.1983 72.9517 16.1192 73.0608C15.7015 73.6398 15.3409 74.1799 15.1514 74.6035C15.1072 74.7033 14.9766 74.7255 14.9085 74.6405C14.5148 74.1614 13.9646 73.6916 13.3243 73.2254C13.2066 73.1403 13.0484 73.2606 13.098 73.3975C13.4274 74.3001 13.777 75.0973 14.1762 75.6282C14.2094 75.6707 14.2149 75.7262 14.1946 75.7762L13.7751 76.7325C13.7071 76.886 13.5433 76.9711 13.3795 76.9415C8.01432 75.9519 2.40623 78.0846 0.658296 82.9216C-1.10251 87.7938 0.643577 93.637 6.13208 96.0342C12.0254 98.609 19.1496 95.7827 21.2618 90.4832C23.1919 85.6425 21.2305 80.234 16.5332 77.944C16.4007 77.8793 16.3179 77.7424 16.3271 77.5944H16.3289Z" fill="#C70134"/>
<path d="M8.45074 80.9057C9.62462 81.0647 10.9806 80.8631 11.9576 80.151C12.4912 79.7607 12.7782 79.2317 12.7543 78.5658C12.7341 78.0164 12.4507 77.4486 11.8748 77.3209C11.8288 77.3098 11.781 77.3172 11.7387 77.3339C11.6357 77.2987 11.5326 77.271 11.4388 77.2488C10.8629 77.1082 10.2631 77.086 9.67797 77.1618C8.64945 77.295 7.38726 77.7926 6.91256 78.7951C6.69913 79.2446 6.70833 79.8143 6.99352 80.2305C7.31367 80.6966 7.93004 80.8354 8.45258 80.9057H8.45074Z" fill="#AB064A"/>
<path d="M13.9429 80.5339C14.414 80.4451 14.8905 80.0622 15.0469 79.5998C15.2106 79.1096 15.0211 78.5695 14.5446 78.3457C14.2833 78.2236 13.9632 78.2255 13.7111 78.3679C13.5878 78.4382 13.4664 78.5344 13.4057 78.6657C13.3818 78.7156 13.3744 78.7637 13.3744 78.81C13.3413 78.8581 13.3118 78.908 13.2824 78.9598C13.1573 79.1781 13.0524 79.413 13.0009 79.659C12.9475 79.9198 12.9807 80.1806 13.1922 80.3637C13.3965 80.5394 13.6872 80.5801 13.9448 80.532L13.9429 80.5339Z" fill="#AB064A"/>
<path d="M8.82247 81.3181C8.71391 81.2627 8.59064 81.2201 8.46368 81.1924C8.4324 81.1683 8.39008 81.1517 8.34225 81.1498C7.40756 81.1332 6.44712 81.5642 5.80499 82.2411C5.23461 82.8442 4.9531 83.8559 5.58972 84.5255C6.27601 85.2469 7.41492 84.8696 8.16745 84.4719C8.93838 84.065 9.67067 83.3158 9.55476 82.3651C9.49772 81.9008 9.23461 81.5272 8.82247 81.3144V81.3181Z" fill="#AB064A"/>
<path d="M15.954 91.5544C15.31 91.4249 14.6807 91.5544 14.0736 91.7579C13.3045 91.843 12.5575 92.1112 11.8932 92.5403C10.988 93.1248 9.65406 94.5306 10.7691 95.5572C11.2934 96.04 12.0441 96.0825 12.7175 96.0215C13.4277 95.9567 14.1232 95.7921 14.7875 95.5276C15.4351 95.2686 16.0533 94.9153 16.6016 94.4807C17.0929 94.0904 17.5381 93.5669 17.4167 92.8955C17.2861 92.1685 16.6458 91.695 15.9558 91.5563L15.954 91.5544Z" fill="#AB064A"/>
<path d="M18.8795 88.4451C18.7267 87.6515 17.6099 87.3611 17.0929 87.9253C16.6605 88.0677 16.2612 88.3119 15.93 88.6245C15.4553 89.074 14.7488 90.0192 15.3891 90.6129C16.0276 91.2067 17.0634 90.7683 17.678 90.3558C17.9889 90.1487 18.2686 89.8841 18.4967 89.5882C18.7451 89.2663 18.9604 88.865 18.8776 88.4451H18.8795Z" fill="#AB064A"/>
<path d="M11.8878 87.9068C11.8823 87.9161 11.8804 87.9253 11.8767 87.9346C11.7608 88.0474 11.6541 88.1695 11.5695 88.3045C11.4333 88.5172 11.3211 88.7651 11.3781 89.0222C11.4352 89.283 11.6872 89.4328 11.9319 89.4772C12.1877 89.5253 12.4673 89.4957 12.7194 89.4402C12.9807 89.3829 13.242 89.2793 13.4536 89.111C13.8252 88.8169 14.0534 88.3138 13.8528 87.8495C13.6228 87.3205 12.9899 87.1854 12.4894 87.3926C12.2539 87.4906 12.0055 87.6719 11.8878 87.905V87.9068Z" fill="#AB064A"/>
<path d="M3.38728 87.6238C3.05977 87.3186 2.58875 87.1429 2.16189 87.2687C2.09197 87.2298 1.98893 87.2206 1.92086 87.2668C1.13705 87.7847 1.04505 88.9464 1.23272 89.7861C1.4296 90.6703 2.02941 91.5471 2.86842 91.9244C3.3284 92.1316 3.87118 92.1223 4.2594 91.7709C4.60531 91.4564 4.7525 90.981 4.76354 90.5223C4.77642 89.9545 4.57219 89.4069 4.30356 88.9149C4.05701 88.4636 3.76446 87.9771 3.38728 87.6238Z" fill="#AB064A"/>
<path d="M1.69642 86.0904C2.07729 85.9017 2.1472 85.3875 2.15824 85.0083C2.16376 84.7715 2.14352 84.4941 2.01105 84.2906C1.95033 84.1963 1.85649 84.1241 1.75346 84.0798C1.65778 83.9614 1.46275 83.9244 1.32476 83.9373C1.11684 83.9577 0.934691 84.0761 0.826136 84.2555C0.71574 84.4404 0.667902 84.655 0.640303 84.8659C0.612704 85.0841 0.618224 85.3117 0.667902 85.5262C0.71574 85.7297 0.829816 85.9221 1.00829 86.0349C1.21252 86.1625 1.47379 86.1995 1.69458 86.0904H1.69642Z" fill="#AB064A"/>
<path d="M18.771 85.1711C18.5116 83.6581 17.9467 82.2134 17.0451 80.9686C16.8023 80.6319 16.5355 80.3101 16.2411 80.0197C15.9375 79.72 15.621 79.4074 15.2291 79.228C15.0709 79.1559 14.7103 79.2816 14.8722 79.4981C15.0764 79.77 15.3542 79.9864 15.5861 80.2342C15.8253 80.4914 16.0534 80.7596 16.2613 81.0426C16.6827 81.6104 17.0267 82.2301 17.3009 82.8812C17.9191 84.3517 18.1491 85.9258 18.1325 87.5147C18.127 87.9808 18.0994 88.4451 18.0516 88.9094C18.0258 89.1536 18.0093 89.3996 17.9853 89.6456C17.9743 89.7584 17.9522 89.8768 17.9504 89.9896C17.9504 90.1173 17.978 90.2467 17.9817 90.3744C17.989 90.5945 18.3496 90.5889 18.4269 90.4206C18.5226 90.2097 18.6128 90.0303 18.6661 89.801C18.7139 89.5919 18.7618 89.3811 18.7967 89.1684C18.8722 88.7244 18.9053 88.2694 18.9274 87.8199C18.9715 86.9358 18.9182 86.046 18.7691 85.173L18.771 85.1711Z" fill="#D33961"/>
<path d="M20.2999 87.5092C20.2428 87.1873 20.1803 86.8322 19.9797 86.5658C19.8749 86.4271 19.5878 86.4641 19.5658 86.6509C19.5308 86.9487 19.6265 87.2724 19.6522 87.572C19.6762 87.8643 19.689 88.1566 19.6762 88.4507C19.6633 88.7392 19.6302 89.0296 19.5731 89.3126C19.5437 89.4569 19.5161 89.6012 19.4848 89.7436C19.4443 89.9267 19.3836 90.0655 19.494 90.2338C19.5694 90.3503 19.7939 90.3818 19.9061 90.3152C19.9945 90.2634 20.0662 90.2264 20.1141 90.1302C20.1509 90.0544 20.1729 89.9711 20.1968 89.8916C20.2465 89.7251 20.2833 89.5586 20.3109 89.3885C20.3588 89.0796 20.3827 88.7651 20.3808 88.4507C20.3808 88.1362 20.3551 87.8199 20.2999 87.511V87.5092Z" fill="#D33961"/>
<path d="M6.86842 93.7519C6.76723 93.5873 6.61267 93.4726 6.4802 93.3339C6.33852 93.1822 6.19501 93.0305 6.05334 92.8789C5.77551 92.5792 5.51608 92.2611 5.27689 91.93C4.80587 91.2733 4.4066 90.5704 4.10485 89.8194C3.42224 88.1177 3.20881 86.2643 3.48848 84.4516C3.62463 83.5711 3.84174 82.5575 4.46732 81.886C4.61819 81.7233 4.27413 81.6234 4.16005 81.7066C3.44616 82.2227 3.10945 83.0514 2.90338 83.8819C2.66419 84.8419 2.563 85.8315 2.62003 86.8192C2.72491 88.6634 3.33944 90.4483 4.41028 91.9503C4.69363 92.348 5.00826 92.7235 5.34864 93.0731C5.68167 93.4171 6.07357 93.8278 6.51884 94.0164C6.68811 94.0867 7.00642 93.9739 6.87026 93.7519H6.86842Z" fill="#D33961"/>
<path d="M5.81235 78.2735C5.68355 78.2643 5.56028 78.2476 5.437 78.2957C5.32293 78.3401 5.20885 78.4048 5.10214 78.464C4.89422 78.5787 4.69551 78.71 4.50416 78.8506C4.12146 79.1281 3.77003 79.4518 3.45356 79.8032C3.14629 80.1454 2.87767 80.5172 2.64951 80.9168C2.42872 81.3033 2.17849 81.7769 2.17297 82.2337C2.17297 82.4002 2.44712 82.4132 2.52624 82.3059C2.78567 81.9526 2.95678 81.5272 3.18861 81.1554C3.4278 80.7725 3.70563 80.4118 4.01106 80.0807C4.30729 79.7607 4.64031 79.4758 4.99542 79.2224C5.17573 79.0948 5.36157 78.9801 5.54924 78.8654C5.64307 78.8081 5.75715 78.7618 5.84179 78.6953C5.91906 78.6342 5.94666 78.538 5.99082 78.4548C6.04786 78.3457 5.8841 78.2828 5.81235 78.2772V78.2735Z" fill="#D33961"/>
</g>
<g clip-path="url(#clip2_358_666)">
<path d="M42.5 107C43.8807 107 45 105.881 45 104.5C45 103.119 43.8807 102 42.5 102C41.1193 102 40 103.119 40 104.5C40 105.881 41.1193 107 42.5 107Z" fill="#038652"/>
<path d="M40.9272 103.897C40.9272 103.251 41.4515 102.727 42.0969 102.727C42.7423 102.727 43.2666 103.251 43.2666 103.897C43.2666 104.542 42.7423 105.066 42.0969 105.066C41.4515 105.066 40.9272 104.542 40.9272 103.897Z" fill="#42A47D"/>
</g>
<g clip-path="url(#clip3_358_666)">
<path d="M59 100C59.5523 100 60 99.3284 60 98.5C60 97.6716 59.5523 97 59 97C58.4477 97 58 97.6716 58 98.5C58 99.3284 58.4477 100 59 100Z" fill="#D8772A"/>
</g>
<g clip-path="url(#clip4_358_666)">
<path d="M146.522 92C156.469 100.48 167.892 106.395 181 108.903C181 108.903 174.371 116.876 165.57 116.996C156.768 117.116 149.406 113.079 146.322 104.789C143.235 96.5015 146.522 92 146.522 92Z" fill="#FF7F6C"/>
<path d="M157.956 108.438C157.268 110.674 156.591 112.912 155.911 115.15C156.185 115.272 156.462 115.387 156.745 115.497C156.992 114.672 157.24 113.85 157.487 113.025C158.288 110.357 159.102 107.693 159.87 105.016C160.087 104.262 160.306 103.508 160.517 102.753C160.608 102.423 160.699 102.095 160.777 101.763C160.43 101.579 160.087 101.393 159.742 101.202C159.681 101.348 159.621 101.493 159.558 101.639C159.297 102.245 159.037 102.853 158.776 103.459C158.262 104.656 157.747 105.853 157.233 107.051C156.206 109.443 155.199 111.843 154.181 114.24C154.177 114.248 154.175 114.257 154.17 114.263C154.394 114.392 154.62 114.516 154.848 114.636C155.321 113.522 155.792 112.406 156.265 111.293C157.281 108.897 158.29 106.5 159.293 104.1C159.297 104.089 159.301 104.076 159.308 104.065C159.269 104.192 159.23 104.318 159.191 104.442C158.77 105.772 158.362 107.104 157.951 108.436L157.956 108.438Z" fill="#FF5653"/>
<path d="M156.986 102.116C157.396 101.626 157.804 101.131 158.212 100.641C158.268 100.572 158.327 100.504 158.383 100.435C158.208 100.333 158.034 100.23 157.858 100.127C157.841 100.146 157.823 100.168 157.806 100.187C157.433 100.62 157.062 101.054 156.688 101.487C155.933 102.365 155.186 103.251 154.437 104.136C152.944 105.896 151.451 107.657 149.962 109.417C149.756 109.659 149.549 109.901 149.339 110.141C149.48 110.314 149.623 110.483 149.771 110.65C149.944 110.458 150.116 110.263 150.285 110.066C151.025 109.207 151.75 108.335 152.482 107.466C153.984 105.682 155.49 103.9 156.988 102.114L156.986 102.116Z" fill="#FF5653"/>
<path d="M145.085 96.4543C146.09 95.9361 147.088 95.405 148.082 94.8632C148.469 94.6512 148.855 94.437 149.241 94.225C149.068 94.088 148.894 93.9509 148.72 93.8117C148.349 94.0173 147.976 94.2229 147.607 94.4327C146.789 94.8953 145.975 95.36 145.167 95.8354C145.137 96.0346 145.109 96.2402 145.085 96.4543Z" fill="#FF5653"/>
<path d="M163.814 103.29C163.621 104.007 163.441 104.731 163.256 105.451C162.928 106.74 162.581 108.023 162.23 109.306C161.565 111.715 160.845 114.109 160.072 116.486C161.112 116.704 162.184 116.852 163.287 116.931C163.423 116.261 163.56 115.591 163.697 114.918C164.259 112.164 164.81 109.406 165.34 106.646C165.496 105.83 165.655 105.016 165.804 104.198C165.136 103.905 164.472 103.603 163.814 103.29Z" fill="#FF5653"/>
<path d="M169.548 116.101C169.436 115.026 169.331 113.948 169.24 112.871C169.058 110.734 168.915 108.592 168.804 106.451C168.787 106.106 168.774 105.757 168.763 105.41C168.539 105.324 168.318 105.239 168.094 105.151C168.105 105.444 168.116 105.738 168.125 106.027C168.159 107.106 168.201 108.188 168.264 109.265C168.392 111.423 168.563 113.578 168.778 115.73C168.806 116.015 168.841 116.3 168.871 116.585C169.11 116.529 169.347 116.471 169.579 116.405C169.568 116.302 169.557 116.201 169.546 116.098L169.548 116.101Z" fill="#FF5653"/>
<path d="M176.281 110.252C176.672 110.922 177.039 111.603 177.393 112.293C177.595 112.134 177.792 111.976 177.981 111.82C177.64 111.216 177.291 110.616 176.928 110.025C176.416 109.192 175.878 108.374 175.315 107.573C175.022 107.492 174.729 107.408 174.439 107.323C175.083 108.28 175.702 109.254 176.284 110.25L176.281 110.252Z" fill="#FF5653"/>
<path d="M156.074 99.5831C155.651 99.9857 155.234 100.393 154.815 100.799C153.953 101.637 153.092 102.472 152.228 103.309C150.711 104.781 149.206 106.262 147.698 107.742C147.804 107.929 147.913 108.111 148.026 108.29C148.666 107.674 149.306 107.057 149.947 106.438C151.653 104.796 153.357 103.149 155.054 101.498C155.542 101.022 156.033 100.551 156.517 100.074C156.675 99.9172 156.831 99.7608 156.99 99.6045C156.797 99.4867 156.601 99.3689 156.408 99.249C156.295 99.3625 156.185 99.4739 156.072 99.581L156.074 99.5831Z" fill="#FF5653"/>
<path d="M170.779 113.357C170.414 111.205 170.08 109.049 169.787 106.886C169.735 106.502 169.681 106.119 169.624 105.736C169.423 105.661 169.221 105.586 169.019 105.511C169.047 105.83 169.08 106.149 169.114 106.468C169.238 107.567 169.368 108.665 169.512 109.762C169.787 111.893 170.1 114.019 170.454 116.141C170.71 116.056 170.964 115.966 171.213 115.869C171.063 115.034 170.92 114.197 170.777 113.359L170.779 113.357Z" fill="#FF5653"/>
<path d="M175.135 112.032C174.38 110.301 173.666 108.543 172.841 106.843C172.105 106.609 171.376 106.365 170.653 106.11C170.673 106.194 170.692 106.275 170.712 106.359C170.933 107.312 171.163 108.263 171.391 109.216C171.853 111.154 172.309 113.096 172.778 115.032C172.791 115.081 172.802 115.13 172.815 115.18C173.883 114.664 174.873 114.081 175.765 113.479C175.556 112.998 175.348 112.514 175.137 112.032H175.135Z" fill="#FF5653"/>
<path d="M153.007 104.048C151.479 105.669 149.953 107.288 148.425 108.909C148.549 109.091 148.675 109.271 148.805 109.447C149.406 108.811 150.007 108.173 150.609 107.537C152.371 105.669 154.131 103.802 155.887 101.93C156.378 101.408 156.868 100.883 157.359 100.36C157.463 100.249 157.572 100.136 157.682 100.024C157.502 99.9172 157.32 99.8079 157.14 99.6987C157.098 99.7416 157.059 99.7844 157.018 99.8272C156.567 100.292 156.126 100.765 155.679 101.234C154.789 102.172 153.897 103.11 153.009 104.052L153.007 104.048Z" fill="#FF5653"/>
<path d="M148.277 103.022C149.934 101.797 151.581 100.562 153.231 99.3325C153.741 98.9535 154.248 98.5723 154.754 98.189C153.914 97.6364 153.083 97.0711 152.26 96.4843C150.984 97.1696 149.74 97.9341 148.486 98.6537C147.388 99.2833 146.291 99.9172 145.195 100.551C145.38 101.759 145.71 103.089 146.228 104.536C146.91 104.033 147.594 103.528 148.275 103.024L148.277 103.022Z" fill="#FF5653"/>
<path d="M150.35 95.0795C150.172 94.9446 149.999 94.8097 149.821 94.6726C149.152 95.0474 148.484 95.4221 147.82 95.8012C146.878 96.3387 145.942 96.8826 145.013 97.4373C145.007 97.6258 145.002 97.8185 145.002 98.0176C146.107 97.4394 147.203 96.842 148.295 96.2359C148.981 95.8547 149.665 95.4671 150.35 95.0816V95.0795Z" fill="#FF5653"/>
<path d="M163.412 105.254C163.323 105.177 163.202 105.14 163.085 105.168C162.967 105.149 162.839 105.196 162.763 105.299C162.644 105.457 162.638 105.701 162.642 105.89C162.648 106.318 162.796 106.742 163.052 107.087C163.176 107.254 163.336 107.436 163.567 107.432C163.784 107.425 163.903 107.245 163.944 107.055C164.035 106.642 163.983 106.2 163.805 105.817C163.712 105.616 163.584 105.402 163.415 105.254H163.412Z" fill="#201F3F"/>
<path d="M156.46 105.53C156.306 105.479 156.122 105.498 155.972 105.569C155.798 105.601 155.627 105.68 155.497 105.77C155.377 105.851 155.271 105.954 155.193 106.076C155.108 106.207 155.041 106.376 155.136 106.522C155.221 106.65 155.397 106.682 155.54 106.672C155.705 106.659 155.868 106.609 156.02 106.547C156.169 106.485 156.315 106.402 156.443 106.301C156.571 106.2 156.703 106.076 156.729 105.909C156.758 105.729 156.625 105.586 156.46 105.532V105.53Z" fill="#201F3F"/>
<path d="M153.027 99.8679C152.912 99.8401 152.797 99.8208 152.671 99.8122C152.423 99.7951 152.176 99.8101 151.933 99.8529C151.59 99.915 150.917 100.069 150.98 100.538C151.043 101.018 151.707 101.048 152.078 101.02C152.506 100.988 153.009 100.857 153.341 100.57C153.502 100.431 153.615 100.211 153.456 100.026C153.352 99.9022 153.187 99.8615 153.027 99.8679Z" fill="#201F3F"/>
<path d="M165.216 109.633C165.079 109.464 164.908 109.265 164.695 109.188C164.437 109.094 164.209 109.25 164.203 109.515C164.2 109.657 164.226 109.805 164.248 109.946C164.239 110.284 164.305 110.618 164.461 110.935C164.565 111.149 164.7 111.379 164.899 111.52C165.09 111.653 165.353 111.68 165.535 111.516C165.859 111.222 165.709 110.614 165.579 110.267C165.492 110.04 165.37 109.824 165.216 109.633Z" fill="#201F3F"/>
<path d="M160.102 108.245C159.951 108.267 159.805 108.348 159.684 108.443C159.612 108.475 159.542 108.513 159.475 108.565C159.338 108.67 159.217 108.804 159.147 108.963C159.076 109.126 159.089 109.314 159.234 109.434C159.367 109.541 159.558 109.556 159.72 109.528C160.044 109.475 160.32 109.241 160.463 108.956C160.532 108.817 160.58 108.64 160.545 108.483C160.502 108.282 160.285 108.218 160.1 108.241L160.102 108.245Z" fill="#201F3F"/>
<path d="M150.209 97.9984C150.483 97.9213 150.498 97.6236 150.498 97.3902C150.498 97.2638 150.481 97.1375 150.411 97.0283C150.348 96.9298 150.242 96.8548 150.125 96.8334C150.02 96.8163 149.912 96.8398 149.832 96.9062C149.812 96.9105 149.795 96.9212 149.784 96.9362C149.645 97.1311 149.643 97.418 149.706 97.6386C149.766 97.8549 149.957 98.069 150.209 97.9984Z" fill="#201F3F"/>
<path d="M151.7 102.266C151.622 102.213 151.533 102.179 151.442 102.155C151.342 102.127 151.247 102.125 151.145 102.119C151.114 102.119 151.091 102.125 151.071 102.138C150.928 102.104 150.78 102.08 150.63 102.078C150.474 102.076 150.3 102.106 150.188 102.221C150.077 102.337 150.083 102.508 150.164 102.639C150.251 102.78 150.411 102.862 150.563 102.92C150.739 102.986 150.923 103.027 151.112 103.042C151.388 103.063 151.852 103.037 151.909 102.693C151.935 102.528 151.837 102.361 151.7 102.266Z" fill="#201F3F"/>
<path d="M158.998 102.241C158.889 102.052 158.713 101.896 158.481 101.907C158.318 101.913 158.153 102.024 158.142 102.181C157.969 102.444 157.962 102.836 158.021 103.127C158.086 103.446 158.273 103.868 158.609 103.984C158.776 104.042 158.967 103.997 159.074 103.851C159.176 103.71 159.204 103.517 159.223 103.35C159.267 102.971 159.189 102.575 158.998 102.241Z" fill="#201F3F"/>
<path d="M168.448 111.663C168.344 111.678 168.237 111.713 168.148 111.77C168.096 111.803 168.057 111.845 168.023 111.89C167.89 111.955 167.769 112.04 167.664 112.149C167.441 112.383 167.228 112.854 167.545 113.102C167.886 113.368 168.353 113.004 168.613 112.788C168.854 112.586 169.331 112.173 169.043 111.835C168.904 111.67 168.652 111.636 168.448 111.663Z" fill="#201F3F"/>
<path d="M167.951 107.547C167.988 107.594 168.02 107.646 168.053 107.695C168.118 107.789 168.19 107.884 168.285 107.95C168.478 108.085 168.791 108.123 168.945 107.907C169.086 107.708 169.008 107.462 168.863 107.29C168.693 107.093 168.448 106.886 168.168 106.922C168.025 106.941 167.895 107.033 167.84 107.164C167.79 107.282 167.819 107.451 167.934 107.522C167.94 107.53 167.947 107.539 167.953 107.545L167.951 107.547Z" fill="#201F3F"/>
<path d="M172.778 109.252C172.778 109.252 172.761 109.248 172.752 109.248C172.78 109.205 172.756 109.141 172.672 109.143C172.279 109.147 172.047 109.595 171.886 109.888C171.788 110.068 171.704 110.256 171.639 110.451C171.58 110.629 171.539 110.839 171.662 111C171.784 111.156 172.005 111.182 172.183 111.124C172.372 111.062 172.531 110.912 172.661 110.768C172.791 110.627 172.9 110.464 172.984 110.291C173.069 110.115 173.143 109.909 173.125 109.712C173.108 109.505 172.982 109.312 172.774 109.25L172.778 109.252Z" fill="#201F3F"/>
<path d="M174.439 108.325C174.406 108.228 174.354 108.141 174.276 108.072C174.2 108.004 174.087 107.969 173.985 107.969C173.859 107.969 173.737 108.023 173.675 108.132C173.646 108.181 173.633 108.239 173.633 108.297C173.633 108.329 173.64 108.359 173.648 108.387C173.651 108.398 173.657 108.406 173.662 108.415C173.662 108.423 173.662 108.432 173.662 108.438C173.668 108.528 173.703 108.612 173.755 108.687C173.881 108.871 174.143 108.967 174.345 108.841C174.519 108.732 174.493 108.49 174.439 108.325Z" fill="#201F3F"/>
<path d="M166.546 115.272C157.745 115.392 150.383 111.355 147.298 103.065C145.356 97.8506 145.938 94.1351 146.634 92.0964C146.595 92.0642 146.558 92.0321 146.519 92C146.519 92 143.235 96.5015 146.32 104.791C149.404 113.079 156.768 117.118 165.568 116.998C174.369 116.878 180.998 108.905 180.998 108.905C180.807 108.869 180.616 108.828 180.427 108.792C177.97 111.128 172.811 115.188 166.546 115.274V115.272Z" fill="#02563F"/>
<path d="M150.68 108.852C149.795 107.828 149.009 106.68 148.343 105.408C148.306 105.444 148.267 105.481 148.23 105.517C147.843 105.886 147.481 106.273 147.138 106.678C147.809 108.042 148.61 109.271 149.523 110.363C149.552 110.323 149.58 110.28 149.608 110.237C149.949 109.764 150.309 109.301 150.68 108.849V108.852Z" fill="#038652"/>
<path d="M145.966 94.3664C146.014 94.3685 146.059 94.3728 146.105 94.3749C146.137 94.1308 146.177 93.8952 146.22 93.6725C146.185 93.6725 146.146 93.6704 146.114 93.6682C145.981 93.6639 145.847 93.6639 145.714 93.6661C145.638 93.8759 145.564 94.1051 145.493 94.3535C145.651 94.3535 145.81 94.3578 145.968 94.3685L145.966 94.3664Z" fill="#038652"/>
<path d="M145.942 100.412C146.098 100.313 146.259 100.223 146.422 100.138C146.094 98.6729 145.97 97.3645 145.977 96.2145C145.844 96.2509 145.712 96.2937 145.577 96.3365C145.41 96.3901 145.243 96.4522 145.078 96.51C144.95 97.735 144.963 99.204 145.256 100.902C145.478 100.729 145.703 100.562 145.942 100.412Z" fill="#038652"/>
<path d="M147.003 102.228C146.65 102.397 146.307 102.592 145.983 102.808C145.899 102.866 145.816 102.93 145.734 102.99C145.812 103.269 145.899 103.551 145.992 103.838C146.207 103.663 146.426 103.493 146.658 103.339C146.856 103.207 147.06 103.091 147.268 102.982C147.175 102.727 147.086 102.474 147.003 102.226V102.228Z" fill="#038652"/>
<path d="M177.614 111.199C177.605 111.186 177.597 111.173 177.588 111.16C176.581 111.897 175.426 112.633 174.15 113.278C174.267 113.516 174.384 113.753 174.497 113.993C174.532 114.066 174.564 114.141 174.597 114.216C175.919 113.428 177.08 112.569 178.033 111.775C177.89 111.584 177.749 111.394 177.614 111.199Z" fill="#038652"/>
<path d="M171.508 115.334C171.45 115.041 171.389 114.745 171.322 114.452C169.831 114.938 168.229 115.248 166.547 115.272C166.215 115.276 165.885 115.272 165.557 115.265C165.637 115.617 165.72 115.966 165.791 116.319C165.837 116.54 165.876 116.76 165.913 116.983C167.942 116.908 169.85 116.426 171.584 115.726C171.561 115.595 171.537 115.465 171.511 115.336L171.508 115.334Z" fill="#038652"/>
<path d="M163.658 115.949C163.673 116.283 163.675 116.619 163.669 116.953C164.001 116.972 164.333 116.985 164.669 116.991C164.669 116.972 164.669 116.953 164.669 116.934C164.669 116.55 164.656 116.167 164.624 115.784C164.606 115.595 164.584 115.409 164.561 115.223C164.239 115.203 163.92 115.178 163.603 115.148C163.627 115.413 163.645 115.681 163.658 115.949Z" fill="#038652"/>
<path d="M160.589 116.158C160.758 115.698 160.91 115.231 161.038 114.76C159.113 114.355 157.305 113.706 155.655 112.82C155.64 112.869 155.627 112.92 155.612 112.97C155.46 113.466 155.273 113.95 155.054 114.424C155.015 114.509 154.973 114.595 154.932 114.681C156.619 115.552 158.466 116.178 160.43 116.557C160.482 116.424 160.541 116.293 160.589 116.161V116.158Z" fill="#038652"/>
<path d="M163.132 116.921C163.148 116.452 163.13 115.981 163.106 115.524C163.1 115.381 163.089 115.238 163.076 115.092C162.722 115.049 162.373 115 162.025 114.942C162.038 115.15 162.049 115.357 162.054 115.567C162.065 115.983 162.043 116.394 162.019 116.805C162.386 116.85 162.757 116.891 163.13 116.919L163.132 116.921Z" fill="#038652"/>
<path d="M173.369 114.355C173.312 114.147 173.249 113.942 173.177 113.738C172.928 113.85 172.674 113.955 172.416 114.058C172.45 114.186 172.487 114.312 172.518 114.441C172.581 114.706 172.628 114.976 172.67 115.246C172.947 115.115 173.219 114.981 173.484 114.841C173.447 114.679 173.41 114.518 173.366 114.357L173.369 114.355Z" fill="#038652"/>
<path d="M179.205 110.211C179.157 110.143 179.107 110.076 179.06 110.01C178.897 110.145 178.728 110.284 178.554 110.423C178.556 110.428 178.56 110.434 178.563 110.438C178.676 110.638 178.778 110.841 178.88 111.044C179.073 110.871 179.253 110.704 179.42 110.543C179.351 110.43 179.279 110.318 179.205 110.211Z" fill="#038652"/>
<path d="M151.57 110.886C151.698 110.653 151.835 110.423 151.976 110.196C151.787 110.021 151.603 109.843 151.423 109.657C151.197 109.974 150.982 110.301 150.784 110.64C150.65 110.869 150.524 111.102 150.402 111.338C150.611 111.552 150.824 111.755 151.043 111.957C151.206 111.593 151.381 111.235 151.572 110.884L151.57 110.886Z" fill="#038652"/>
<path d="M152.903 111.751C152.985 111.567 153.07 111.381 153.152 111.196C152.927 111.021 152.705 110.841 152.486 110.655C152.343 110.946 152.2 111.239 152.059 111.531C151.909 111.841 151.759 112.152 151.609 112.462C151.841 112.659 152.08 112.85 152.323 113.034C152.517 112.606 152.71 112.179 152.901 111.751H152.903Z" fill="#038652"/>
<path d="M153.999 113.229C154.134 112.852 154.29 112.479 154.44 112.104C154.192 111.946 153.949 111.783 153.712 111.612C153.493 112.081 153.311 112.573 153.131 113.051C153.074 113.199 153.02 113.349 152.966 113.496C153.22 113.672 153.476 113.841 153.739 114.004C153.823 113.745 153.91 113.486 154.001 113.229H153.999Z" fill="#038652"/>
</g>
<g clip-path="url(#clip5_358_666)">
<path d="M13 61C13 60.4475 13.6712 60 14.5 60C15.3288 60 16 60.4475 16 61C16 61.5525 15.3288 62 14.5 62C13.6712 62 13 61.5525 13 61Z" fill="#C70134"/>
</g>
<g clip-path="url(#clip6_358_666)">
<path d="M119.5 110C120.881 110 122 108.881 122 107.5C122 106.119 120.881 105 119.5 105C118.119 105 117 106.119 117 107.5C117 108.881 118.119 110 119.5 110Z" fill="#AB064A"/>
<path d="M118.842 107.853C119.391 107.853 119.836 107.408 119.836 106.859C119.836 106.311 119.391 105.866 118.842 105.866C118.293 105.866 117.849 106.311 117.849 106.859C117.849 107.408 118.293 107.853 118.842 107.853Z" fill="#C45180"/>
</g>
<g clip-path="url(#clip7_358_666)">
<path d="M135 91C135 90.4467 135.447 90 136 90C136.553 90 137 90.4467 137 91C137 91.5533 136.553 92 136 92C135.447 92 135 91.5533 135 91Z" fill="#C70134"/>
</g>
<g clip-path="url(#clip8_358_666)">
<path d="M72.5 86C73.3284 86 74 85.1046 74 84C74 82.8954 73.3284 82 72.5 82C71.6716 82 71 82.8954 71 84C71 85.1046 71.6716 86 72.5 86Z" fill="#C70134"/>
<path d="M71.4581 83.1968C71.4581 82.7534 71.7279 82.3937 72.0605 82.3937C72.3931 82.3937 72.6629 82.7534 72.6629 83.1968C72.6629 83.6403 72.3931 84 72.0605 84C71.7279 84 71.4581 83.6403 71.4581 83.1968Z" fill="#D54067"/>
</g>
<g clip-path="url(#clip9_358_666)">
<path d="M79.5 76C80.3284 76 81 75.3284 81 74.5C81 73.6716 80.3284 73 79.5 73C78.6716 73 78 73.6716 78 74.5C78 75.3284 78.6716 76 79.5 76Z" fill="#9D571B"/>
<path d="M79.1244 74.5C79.3996 74.5 79.6228 74.2769 79.6228 74.0016C79.6228 73.7264 79.3996 73.5032 79.1244 73.5032C78.8491 73.5032 78.626 73.7264 78.626 74.0016C78.626 74.2769 78.8491 74.5 79.1244 74.5Z" fill="#B58154"/>
</g>
<g clip-path="url(#clip10_358_666)">
<path d="M33 65C34.1046 65 35 64.3284 35 63.5C35 62.6716 34.1046 62 33 62C31.8954 62 31 62.6716 31 63.5C31 64.3284 31.8954 65 33 65Z" fill="#9D571B"/>
</g>
<g clip-path="url(#clip11_358_666)">
<path d="M130 102C131.105 102 132 100.881 132 99.5C132 98.1193 131.105 97 130 97C128.895 97 128 98.1193 128 99.5C128 100.881 128.895 102 130 102Z" fill="#C70134"/>
<path d="M129.615 99.6644C130.05 99.6644 130.402 99.2239 130.402 98.6804C130.402 98.1369 130.05 97.6964 129.615 97.6964C129.18 97.6964 128.828 98.1369 128.828 98.6804C128.828 99.2239 129.18 99.6644 129.615 99.6644Z" fill="#D54067"/>
</g>
<g clip-path="url(#clip12_358_666)">
<path d="M24.9988 59C26.1027 59 26.9976 58.3284 26.9976 57.5C26.9976 56.6716 26.1027 56 24.9988 56C23.8949 56 23 56.6716 23 57.5C23 58.3284 23.8949 59 24.9988 59Z" fill="#038652"/>
<path d="M23.7972 57.2838C23.6339 57.0026 23.8042 56.6507 24.1804 56.4994C24.5565 56.348 24.9941 56.4541 25.1597 56.7353C25.3229 57.0164 25.1526 57.3683 24.7765 57.5197C24.4003 57.671 23.9627 57.5649 23.7995 57.2838H23.7972Z" fill="#42A47D"/>
</g>
<g clip-path="url(#clip13_358_666)">
<path d="M9.60424 51.1723C8.16193 48.2686 9.28608 43.703 13.0997 41.8257C16.9133 39.9483 21.9741 41.473 23.4143 44.3767C24.8566 47.2803 23.6731 52.2535 19.3992 53.4361C15.3014 54.5701 11.0465 54.0781 9.60424 51.1744V51.1723Z" fill="#D7752A"/>
<path d="M22.4071 48.577C21.8535 47.5464 20.0443 47.4345 18.3666 48.3278C16.6888 49.2211 15.7768 50.7817 16.3325 51.8122C16.8882 52.8427 18.6953 52.9547 20.3731 52.0614C22.0508 51.1681 22.9628 49.6075 22.4071 48.577Z" fill="#BF650F"/>
<path d="M12.3089 50.6613C11.9759 49.9771 12.6482 48.9677 13.8084 48.4081C14.9708 47.8485 16.1819 47.9498 16.5149 48.634C16.8479 49.3182 16.1755 50.3277 15.0153 50.8873C13.853 51.4469 12.6419 51.3455 12.3089 50.6613Z" fill="#BF650F"/>
<path d="M20.5215 46.1506C20.5215 45.3397 21.1811 44.6829 21.9956 44.6829C22.8101 44.6829 23.4697 45.3397 23.4697 46.1506C23.4697 46.9615 22.8101 47.6183 21.9956 47.6183C21.1811 47.6183 20.5215 46.9615 20.5215 46.1506Z" fill="#BF650F"/>
<path d="M10.4657 46.1231C9.97147 45.3418 10.5187 44.1148 11.6853 43.3842C12.854 42.6535 14.2008 42.6936 14.6929 43.475C15.1871 44.2563 14.6399 45.4833 13.4733 46.2139C12.3046 46.9446 10.9578 46.9045 10.4657 46.1231Z" fill="#BF650F"/>
<path d="M9.1888 48.4587C8.91306 47.9836 9.17607 47.3226 9.77208 46.9784C10.3702 46.6342 11.0765 46.7419 11.3523 47.2149C11.628 47.69 11.365 48.3531 10.769 48.6952C10.1708 49.0395 9.46453 48.9318 9.1888 48.4587Z" fill="#BF650F"/>
<path d="M19.8957 46.2013C19.5076 45.7895 19.0367 45.4263 18.4874 45.1116C18.6655 44.8814 18.8564 44.6914 19.0664 44.5267C19.251 44.3831 19.2828 44.117 19.1385 43.9332C18.9943 43.7495 18.7271 43.7178 18.5425 43.8614C18.2222 44.1106 17.9571 44.4084 17.7238 44.7294C17.3484 44.5626 16.9496 44.4126 16.5191 44.2838C16.2942 44.2162 16.0588 44.3429 15.9909 44.5668C15.923 44.7906 16.0503 45.025 16.2751 45.0926C16.6315 45.2003 16.9645 45.3207 17.2763 45.4537C17.0239 45.9352 16.8266 46.4378 16.659 46.9172C16.5827 47.1368 16.6993 47.3775 16.9199 47.4536C16.9666 47.4704 17.0133 47.4768 17.0578 47.4768C17.2338 47.4768 17.3972 47.367 17.4587 47.1917C17.6474 46.649 17.8341 46.2013 18.0314 45.8254C18.5192 46.1041 18.9349 46.4209 19.2743 46.7799C19.357 46.8686 19.4694 46.9129 19.584 46.9129C19.6879 46.9129 19.7918 46.8749 19.8745 46.7989C20.0442 46.6384 20.0527 46.3723 19.8936 46.2013H19.8957Z" fill="#201F3F"/>
<path d="M21.6202 44.193C21.4972 43.9733 21.3466 43.7685 21.1833 43.5784C20.863 43.2025 20.4833 42.871 20.0633 42.6155C19.6052 42.3367 19.1068 42.1277 18.5829 42.0157C18.3156 41.9587 18.0378 41.9207 17.7641 41.9123C17.5648 41.9059 17.2105 41.8764 17.0833 42.0664C17.0557 42.1086 17.0451 42.1636 17.0833 42.2058C17.2254 42.3621 17.4566 42.3346 17.6517 42.3494C17.885 42.3684 18.1141 42.398 18.3432 42.4508C18.8119 42.5563 19.2658 42.7337 19.6688 42.9935C20.0358 43.2279 20.3624 43.5172 20.6403 43.853C20.7781 44.0219 20.9012 44.1993 21.0199 44.383C21.143 44.571 21.2426 44.8033 21.3996 44.9637C21.5163 45.0841 21.8514 45.0989 21.8599 44.8708C21.8662 44.6406 21.7305 44.3915 21.6202 44.1951V44.193Z" fill="#E39D68"/>
<path d="M23.2024 46.254C23.1749 45.9394 23.124 45.629 23.0434 45.3249C22.967 45.0334 22.8694 44.7462 22.7464 44.4717C22.651 44.2627 22.4261 43.7305 22.1059 43.8994C22.1037 43.8994 22.0995 43.9015 22.0974 43.9037C22.0338 43.9374 21.9744 43.986 21.9744 44.0642C21.9744 44.3176 22.1377 44.59 22.2183 44.8286C22.3031 45.0778 22.371 45.3354 22.4177 45.5931C22.4643 45.8486 22.5025 46.1041 22.5195 46.3639C22.528 46.4969 22.5364 46.6257 22.5555 46.7588C22.5746 46.9066 22.5534 47.0481 22.651 47.1706C22.7592 47.3036 22.9755 47.2867 23.0879 47.1706C23.2003 47.0523 23.1855 46.8791 23.2088 46.7271C23.2321 46.5708 23.2173 46.4145 23.2046 46.2583L23.2024 46.254Z" fill="#E39D68"/>
<path d="M18.5934 52.1015C18.4874 51.9579 18.2859 51.9368 18.1225 51.9579C17.7938 52.0023 17.4693 52.1586 17.1448 52.2346C16.8224 52.3106 16.4936 52.3697 16.1648 52.3993C15.5052 52.4627 14.8349 52.4268 14.1838 52.2979C13.5962 52.1818 13.0278 51.9875 12.4891 51.7256C12.2112 51.5905 11.944 51.4384 11.6852 51.2716C11.4158 51.0985 11.1698 50.8725 10.8559 50.7922C10.6947 50.7521 10.4465 50.8577 10.5038 51.0541C10.5907 51.3519 10.9662 51.5652 11.208 51.732C11.4858 51.9242 11.7828 52.0931 12.0839 52.2451C12.7033 52.5556 13.3693 52.7836 14.048 52.9209C14.7734 53.0666 15.5243 53.111 16.2624 53.0476C16.6548 53.0138 17.0451 52.9589 17.429 52.866C17.7874 52.7794 18.2244 52.6928 18.5277 52.4774C18.6528 52.3887 18.6846 52.224 18.5934 52.1015Z" fill="#E39D68"/>
<path d="M19.3486 50.1946C19.0792 50.2221 18.8226 50.4417 18.5871 50.5726C18.358 50.6993 18.1226 50.8134 17.8808 50.9126C17.6539 51.0056 17.4227 51.0837 17.1872 51.1513C16.9263 51.2252 16.6315 51.2505 16.3897 51.3751C16.1649 51.4913 16.2222 51.7468 16.464 51.7953C16.7694 51.8587 17.0981 51.7848 17.3972 51.7172C17.6942 51.6518 17.9869 51.5588 18.2711 51.449C18.532 51.3498 18.7865 51.2315 19.0283 51.0964C19.1662 51.0203 19.2998 50.9359 19.4292 50.8472C19.5649 50.7543 19.7155 50.6698 19.7537 50.4987C19.811 50.2517 19.5416 50.1735 19.3465 50.1946H19.3486Z" fill="#E39D68"/>
<path d="M17.2848 41.2703C17.0621 41.2091 16.8076 41.2196 16.5785 41.2365C16.3537 41.2534 16.1289 41.2851 15.9083 41.3316C15.6898 41.378 15.4883 41.4519 15.2847 41.5427C15.0896 41.6293 14.8859 41.7307 14.7332 41.8806C14.6378 41.9756 14.8223 42.0517 14.8944 42.0369C15.0896 42.001 15.2805 41.9271 15.4735 41.8764C15.6729 41.8236 15.8807 41.7835 16.0822 41.7412C16.2667 41.7032 16.4534 41.6779 16.6422 41.661C16.8564 41.642 17.0727 41.6504 17.2848 41.6167C17.3676 41.604 17.4609 41.5343 17.4609 41.4435C17.4609 41.3463 17.3654 41.2914 17.2848 41.2703Z" fill="#E39D68"/>
</g>
<g clip-path="url(#clip14_358_666)">
<path d="M14 54.0018C15.1046 54.0018 16 53.3298 16 52.5009C16 51.672 15.1046 51 14 51C12.8954 51 12 51.672 12 52.5009C12 53.3298 12.8954 54.0018 14 54.0018Z" fill="#AB064A"/>
<path d="M12.7199 52.2337C12.6078 51.9271 12.8485 51.59 13.2551 51.4788C13.6618 51.3676 14.0829 51.5254 14.195 51.8303C14.307 52.1369 14.0663 52.474 13.6597 52.5852C13.2531 52.6964 12.8319 52.5386 12.7199 52.2337Z" fill="#C45180"/>
</g>
<g clip-path="url(#clip15_358_666)">
<path d="M84 51C85.1046 51 86 50.1046 86 49C86 47.8954 85.1046 47 84 47C82.8954 47 82 47.8954 82 49C82 50.1046 82.8954 51 84 51Z" fill="#FC3647"/>
<path d="M82.7646 48.2919C82.7646 47.8552 83.1199 47.5 83.5565 47.5C83.9932 47.5 84.3484 47.8552 84.3484 48.2919C84.3484 48.7285 83.9932 49.0837 83.5565 49.0837C83.1199 49.0837 82.7646 48.7285 82.7646 48.2919Z" fill="#FD6875"/>
</g>
<g clip-path="url(#clip16_358_666)">
<path d="M96.1978 103.4C95.3689 99.3653 97.1956 95.266 100.82 94.2201C104.447 93.1743 107.962 96.0057 109.442 99.8592C111.029 103.993 109.089 107.674 105.464 108.72C101.84 109.766 97.1156 107.864 96.1978 103.4Z" fill="#D7752A"/>
<path d="M106.211 99.8244C106.398 98.9705 107.02 98.3753 107.6 98.4961C108.18 98.6169 108.498 99.4039 108.309 100.258C108.12 101.112 107.5 101.707 106.92 101.586C106.34 101.465 106.022 100.678 106.211 99.8244Z" fill="#BF650F"/>
<path d="M108.54 105.382C109.389 103.954 109.46 102.449 108.696 102.02C107.931 101.591 106.624 102.404 105.773 103.831C104.924 105.259 104.853 106.764 105.618 107.193C106.382 107.622 107.689 106.809 108.54 105.382Z" fill="#BF650F"/>
<path d="M97.5422 99.9302C97.5422 99.0482 98.0111 98.3344 98.5911 98.3344C99.1711 98.3344 99.64 99.0482 99.64 99.9302C99.64 100.812 99.1711 101.526 98.5911 101.526C98.0111 101.526 97.5422 100.812 97.5422 99.9302Z" fill="#BF650F"/>
<path d="M97.92 105.569C97.1755 104.318 97.18 102.964 97.9266 102.544C98.6755 102.125 99.8866 102.798 100.631 104.049C101.376 105.3 101.371 106.654 100.624 107.074C99.8755 107.493 98.6644 106.82 97.92 105.569Z" fill="#BF650F"/>
<path d="M105.184 101.832C104.856 101.731 104.538 101.612 104.229 101.476C104.493 101.017 104.738 100.512 104.956 99.9603C105.044 99.7382 104.929 99.4881 104.7 99.404C104.471 99.3177 104.213 99.4299 104.127 99.652C103.918 100.178 103.687 100.655 103.436 101.084C103.031 100.855 102.647 100.599 102.289 100.31C102.1 100.159 101.82 100.182 101.662 100.366C101.504 100.549 101.531 100.821 101.72 100.974C102.107 101.287 102.522 101.567 102.958 101.815C102.742 102.104 102.518 102.367 102.28 102.591C102.104 102.757 102.102 103.031 102.273 103.201C102.36 103.288 102.476 103.331 102.591 103.331C102.707 103.331 102.816 103.29 102.902 103.208C103.204 102.921 103.487 102.591 103.753 102.218C104.127 102.386 104.513 102.533 104.913 102.656C104.958 102.669 105.002 102.675 105.047 102.675C105.236 102.675 105.411 102.559 105.471 102.373C105.544 102.147 105.416 101.903 105.182 101.832H105.184Z" fill="#201F3F"/>
<path d="M99.6245 96.0055C99.3667 96.0615 99.1823 96.2664 99.0023 96.4454C98.8134 96.633 98.6378 96.8335 98.48 97.047C98.1534 97.4891 97.88 97.9764 97.6823 98.4853C97.2867 99.5118 97.0378 100.935 97.62 101.933C97.7089 102.084 98.0134 102.018 98.0334 101.852C98.0978 101.304 98.0134 100.75 98.0489 100.2C98.0845 99.6455 98.2 99.1064 98.3911 98.5845C98.5578 98.1295 98.78 97.6939 99.06 97.2929C99.2023 97.0902 99.3534 96.8939 99.5134 96.7063C99.6578 96.5381 99.8778 96.3828 99.9089 96.1607C99.9267 96.0292 99.7178 95.9839 99.6267 96.0033L99.6245 96.0055Z" fill="#E39D68"/>
<path d="M99.4889 103.605C99.4378 103.443 99.3801 103.283 99.3289 103.122C99.2223 102.785 99.1356 102.442 99.0645 102.097C98.9934 101.75 98.9512 101.399 98.9223 101.047C98.8934 100.694 98.9156 100.327 98.8223 99.984C98.7734 99.8029 98.4401 99.8331 98.3734 99.984C98.2312 100.314 98.2401 100.696 98.2489 101.047C98.2578 101.422 98.3023 101.798 98.3689 102.166C98.4334 102.524 98.5267 102.876 98.6467 103.221C98.7067 103.393 98.7734 103.566 98.8556 103.732C98.9334 103.889 99.0445 104.081 99.1956 104.18C99.2889 104.243 99.5245 104.256 99.5578 104.111C99.5956 103.948 99.5378 103.764 99.4889 103.605Z" fill="#E39D68"/>
<path d="M108.884 101.041C108.798 100.857 108.444 100.873 108.416 101.086C108.318 101.808 108.422 102.55 108.347 103.279C108.276 103.986 108.107 104.692 107.807 105.343C107.558 105.88 107.211 106.378 106.784 106.798C106.576 107.005 106.342 107.189 106.096 107.348C105.822 107.525 105.502 107.618 105.236 107.797C105.111 107.879 105.084 108.038 105.171 108.155C105.273 108.288 105.473 108.312 105.629 108.291C105.971 108.241 106.311 108.032 106.6 107.857C106.896 107.678 107.162 107.465 107.411 107.227C107.9 106.764 108.289 106.216 108.58 105.617C108.913 104.931 109.098 104.178 109.158 103.424C109.22 102.652 109.218 101.752 108.882 101.039L108.884 101.041Z" fill="#E39D68"/>
<path d="M106.738 105.099C106.389 105.276 106.122 105.623 105.824 105.869C105.52 106.119 105.198 106.348 104.856 106.546C104.191 106.932 103.453 107.197 102.693 107.331C102.564 107.355 102.353 107.478 102.376 107.633C102.38 107.657 102.38 107.695 102.391 107.717C102.487 107.907 102.716 107.978 102.922 107.937C103.782 107.762 104.596 107.454 105.349 107.016C105.709 106.807 106.051 106.57 106.364 106.3C106.527 106.162 106.68 106.016 106.829 105.865C106.967 105.724 107.149 105.548 107.193 105.354C107.244 105.121 106.927 105.004 106.74 105.101L106.738 105.099Z" fill="#E39D68"/>
<path d="M101.993 94.6922C101.86 94.621 101.667 94.6232 101.515 94.6232C101.358 94.6232 101.198 94.6361 101.04 94.6534C100.727 94.6879 100.422 94.759 100.122 94.8561C99.8333 94.9488 99.5577 95.076 99.2977 95.227C99.0711 95.3585 98.7155 95.5483 98.6199 95.8006C98.5444 95.9947 98.8444 96.0399 98.9711 95.9968C99.2199 95.9106 99.4288 95.6949 99.6599 95.5677C99.8955 95.4383 100.147 95.3262 100.404 95.2421C100.647 95.1644 100.9 95.1127 101.151 95.0825C101.424 95.0523 101.733 95.1041 101.991 95.0156C102.175 94.9531 102.131 94.7655 101.991 94.69L101.993 94.6922Z" fill="#E39D68"/>
<path d="M106.53 98.233C106.75 97.6203 106.55 96.9949 106.082 96.836C105.614 96.6772 105.056 97.045 104.835 97.6577C104.614 98.2704 104.814 98.8958 105.282 99.0547C105.75 99.2135 106.309 98.8457 106.53 98.233Z" fill="#BF650F"/>
</g>
<g clip-path="url(#clip17_358_666)">
<path d="M35 41.6718L63.2657 19C63.2657 19 69.663 33.7973 57.8904 41.7428C46.9695 49.1124 35 41.6718 35 41.6718Z" fill="#FF7F6C"/>
<path d="M48.4759 43.1565C47.976 42.4324 47.496 41.6955 47.0337 40.9478C46.1311 39.4824 45.3083 37.9677 44.5539 36.425C44.3394 35.9867 44.1314 35.5441 43.9257 35.1015C43.8594 34.9618 43.7974 34.8157 43.7311 34.6696L41.7092 36.2918C41.9083 36.7151 42.1096 37.1362 42.3198 37.553C42.7887 38.4876 43.2842 39.4072 43.8063 40.3139C44.7287 41.9168 45.7219 43.4767 46.7793 44.9979C47.7128 45.015 48.675 44.9699 49.6572 44.8475C49.5156 44.624 49.3497 44.4134 49.1993 44.1986C48.9582 43.8505 48.7126 43.5067 48.4715 43.1587L48.4759 43.1565Z" fill="#FF5653"/>
<path d="M50.7388 41.5494C49.4359 39.6887 48.1994 37.7829 47.0027 35.8556C46.6642 35.3121 46.3302 34.7685 45.9984 34.2227C45.8126 33.9176 45.6378 33.5996 45.452 33.2881L45.0361 33.6211C45.1379 33.8037 45.2419 33.9864 45.3392 34.1669C45.6113 34.6632 45.8834 35.1595 46.1665 35.6515C46.7284 36.6291 47.3079 37.596 47.9096 38.5521C49.1307 40.4966 50.407 42.4131 51.763 44.2716C51.8028 44.3254 51.8427 44.3769 51.8803 44.4306C52.1413 44.3662 52.4023 44.2953 52.6655 44.2179C52.013 43.3349 51.3671 42.4475 50.7388 41.5472V41.5494Z" fill="#FF5653"/>
<path d="M43.9699 44.0267C43.481 43.1802 43.0209 42.3164 42.5785 41.4463C41.8618 40.0389 41.2402 38.5972 40.6496 37.1405L40.1099 37.5745C40.6142 38.9582 41.2115 40.3183 41.8508 41.6418C42.2666 42.5034 42.7179 43.3499 43.1913 44.1836C43.2864 44.3533 43.3881 44.5187 43.4877 44.6863C43.804 44.7379 44.1248 44.7873 44.4499 44.8281C44.2885 44.5617 44.127 44.2974 43.9721 44.0289L43.9699 44.0267Z" fill="#FF5653"/>
<path d="M40.8266 42.0242C40.4926 41.225 40.1851 40.4149 39.8998 39.5985C39.7582 39.1902 39.6144 38.7799 39.4795 38.3695C39.4551 38.2943 39.4308 38.2148 39.4065 38.1396L38.9154 38.5349C39.0149 38.9023 39.1167 39.2697 39.2295 39.6329C39.4972 40.4858 39.7914 41.3324 40.1121 42.1682C40.3643 42.8278 40.6408 43.4788 40.9306 44.1234C41.2359 44.2072 41.5478 44.2888 41.8707 44.364C41.5057 43.5927 41.154 42.8128 40.8266 42.0264V42.0242Z" fill="#FF5653"/>
<path d="M54.0615 37.4993C52.5727 35.9136 51.1172 34.3001 49.7081 32.6478C49.2392 32.0999 48.768 31.5542 48.2968 31.0084L47.9761 31.2663C48.9538 32.5597 49.9868 33.8123 51.042 35.0499C52.4511 36.7065 53.8933 38.3351 55.4042 39.9036C56.0899 40.6147 56.7845 41.3195 57.5034 41.9984C57.6339 41.9146 57.7622 41.8308 57.8928 41.7449C57.9436 41.7105 57.9945 41.674 58.0454 41.6375C56.727 40.2516 55.3732 38.8959 54.0637 37.4993H54.0615Z" fill="#FF5653"/>
<path d="M60.9586 39.0184C60.5295 38.6574 60.0981 38.2986 59.669 37.9376C58.793 37.205 57.906 36.4852 57.0234 35.759C55.2714 34.3194 53.5172 32.8799 51.7564 31.4489C51.0928 30.9096 50.4314 30.3639 49.7567 29.8375L48.5865 30.7764C49.8364 32.0827 51.1194 33.359 52.3979 34.6395C54.015 36.2574 55.6253 37.8818 57.2534 39.4889C57.7821 40.0089 58.3041 40.5417 58.8527 41.0488C59.669 40.4192 60.3813 39.751 61.0073 39.0592C60.9918 39.0463 60.9741 39.0334 60.9586 39.0205V39.0184Z" fill="#FF5653"/>
<path d="M61.9054 23.2521C62.4806 23.5679 63.0535 23.8859 63.6308 24.1996C63.9184 24.3564 64.206 24.5197 64.5024 24.6637C64.5931 24.7088 64.686 24.7561 64.7767 24.8033C64.7413 24.5434 64.7015 24.2898 64.6594 24.0427C64.5002 23.9546 64.3387 23.8665 64.1772 23.7806C63.5822 23.4605 62.9827 23.1468 62.3854 22.8309C61.6024 22.4163 60.8193 22.0016 60.0296 21.5998L59.585 21.9565C60.3525 22.3991 61.1312 22.8266 61.9098 23.2542L61.9054 23.2521Z" fill="#FF5653"/>
<path d="M61.9496 25.9743C62.684 26.6683 63.4228 27.358 64.1594 28.0456C64.4337 28.3012 64.708 28.5569 64.9823 28.8104C64.9956 28.4624 65.0022 28.1165 64.9978 27.777C64.969 27.749 64.9403 27.7233 64.9115 27.6953C64.1528 26.9906 63.3963 26.2859 62.6353 25.5876C61.4563 24.5047 60.2861 23.4111 59.0827 22.3518L58.574 22.76C59.68 23.8494 60.8236 24.9065 61.9518 25.9722L61.9496 25.9743Z" fill="#FF5653"/>
<path d="M64.7988 30.25C64.0268 29.6849 63.2415 29.137 62.4474 28.602C60.8724 27.5449 59.2554 26.5415 57.603 25.6047C57.0964 25.3168 56.5832 25.0418 56.0634 24.7754L55.674 25.0869C56.873 25.7788 58.0697 26.4771 59.2399 27.2162C60.5804 28.0627 61.8833 28.963 63.1574 29.9041C62.8455 29.7537 62.5336 29.6011 62.2195 29.4507C60.3238 28.5419 58.4281 27.6352 56.5301 26.7306C56.0014 26.4792 55.4705 26.23 54.9396 25.9829C54.86 25.9464 54.7804 25.9077 54.6985 25.869L54.1278 26.3267C54.172 26.3503 54.2163 26.3761 54.2627 26.3997C54.7273 26.6468 55.2007 26.881 55.674 27.1152C56.6031 27.5771 57.5322 28.0412 58.4635 28.501C60.3105 29.4142 62.1576 30.3273 64.0069 31.2319C64.2303 31.3415 64.4537 31.451 64.6749 31.5585C64.7546 31.1352 64.8187 30.7141 64.8674 30.2972C64.8453 30.2801 64.8231 30.2629 64.7988 30.2457V30.25Z" fill="#FF5653"/>
<path d="M52.4444 28.1745C52.8691 28.4817 53.2916 28.7911 53.7185 29.0941C54.5635 29.6914 55.4107 30.2844 56.258 30.8752C57.9701 32.0699 59.6822 33.2666 61.3966 34.4612C62.0182 34.8931 62.6309 35.3507 63.2613 35.7762C63.3675 35.5656 63.4671 35.355 63.56 35.1423C63.1264 34.8501 62.6862 34.5687 62.2593 34.2786C61.3988 33.6942 60.5383 33.1098 59.6756 32.5275C57.9369 31.3501 56.2027 30.1662 54.4573 28.9995C53.9685 28.6729 53.4774 28.3528 52.9863 28.0305C52.8093 27.9145 52.6324 27.792 52.451 27.6696L52.1125 27.9403C52.2232 28.0176 52.3338 28.095 52.4399 28.1723L52.4444 28.1745Z" fill="#FF5653"/>
<path d="M62.2372 36.483C61.2506 35.7955 60.264 35.1058 59.2841 34.4053C57.3552 33.026 55.4506 31.61 53.5681 30.1726C52.847 29.6204 52.1258 29.0683 51.4069 28.5118L51.1061 28.7524C54.4463 31.4639 57.8728 34.0723 61.4165 36.5281C61.7527 36.7602 62.0912 36.9879 62.4296 37.2114C62.5181 37.076 62.6022 36.9407 62.6862 36.8053C62.5358 36.6979 62.3854 36.5883 62.2328 36.483H62.2372Z" fill="#FF5653"/>
<path d="M47.5601 35.1466C47.0735 34.3495 46.6178 33.5352 46.1511 32.7273L45.7595 33.041C46.0803 33.6684 46.4254 34.2872 46.7726 34.8995C47.381 35.9781 48.0269 37.0374 48.6994 38.0773C50.0443 40.1571 51.4976 42.1768 53.0859 44.0869C53.3226 44.0117 53.5593 43.93 53.7959 43.8441C53.0991 43.0061 52.4134 42.1574 51.752 41.2915C50.2456 39.3127 48.852 37.2608 47.5579 35.1466H47.5601Z" fill="#FF5653"/>
<path d="M46.3567 35.123C46.2704 35.1122 46.1576 35.1251 46.0735 35.1681C46.0359 35.1681 45.9961 35.1767 45.9762 35.196C45.8236 35.3486 45.724 35.5806 45.6577 35.7826C45.5891 35.9867 45.5493 36.2016 45.536 36.4143C45.5227 36.6291 45.5382 36.844 45.5802 37.0567C45.6201 37.2587 45.7107 37.4585 45.9165 37.5466C46.4009 37.7528 46.6221 37.1856 46.7194 36.8397C46.8345 36.425 46.8964 35.9287 46.777 35.5076C46.7194 35.3078 46.5735 35.1488 46.3567 35.1208V35.123Z" fill="#201F3F"/>
<path d="M51.4091 34.6438C51.1436 34.3903 50.8162 34.169 50.4623 34.053C50.2699 33.9885 50 33.9971 49.9292 34.2206C49.896 34.3259 49.9204 34.4225 49.9734 34.5042C49.9535 34.5171 49.9447 34.5386 49.958 34.5665C50.1084 34.8802 50.4136 35.1423 50.7078 35.3292C50.9578 35.4861 51.3825 35.7332 51.6767 35.542C51.8426 35.4324 51.8448 35.2283 51.7586 35.0693C51.6723 34.9103 51.5396 34.7706 51.4069 34.6438H51.4091Z" fill="#201F3F"/>
<path d="M55.674 29.1757C55.8686 29.1972 56.0743 29.137 56.2579 29.0812C56.4659 29.0167 56.6672 28.9329 56.8552 28.8255C57.1317 28.6686 57.6228 28.3292 57.3087 27.9811C57.0322 27.6717 56.5013 27.8049 56.1783 27.9704C55.9903 28.067 55.82 28.1938 55.6784 28.3464C55.612 28.4194 55.5501 28.4968 55.4992 28.5805C55.4638 28.6364 55.4284 28.6966 55.4174 28.761C55.3997 28.7911 55.3864 28.8233 55.3798 28.862C55.3488 29.0446 55.5014 29.1585 55.6717 29.1779L55.674 29.1757Z" fill="#201F3F"/>
<path d="M50.2057 38.1374C49.8805 37.9333 49.3695 38.1589 49.4735 38.565C49.4757 38.5757 49.4823 38.5822 49.4867 38.5908C49.4513 38.7197 49.4314 38.8572 49.4204 38.984C49.4027 39.173 49.4049 39.3664 49.4403 39.5533C49.4713 39.7166 49.5465 39.8692 49.7035 39.9508C49.8539 40.0303 50.0398 40.0131 50.1747 39.9122C50.4446 39.7102 50.5375 39.2912 50.5419 38.9775C50.5463 38.6853 50.48 38.3093 50.2079 38.1374H50.2057Z" fill="#201F3F"/>
<path d="M44.0119 38.9947C43.8637 38.9045 43.6624 38.8851 43.512 38.9883C43.4965 38.999 43.4854 39.014 43.4722 39.0269C43.45 39.0355 43.4323 39.0506 43.4191 39.072C43.2532 39.36 43.1581 39.6973 43.1271 40.026C43.116 40.1506 43.1249 40.2881 43.2001 40.3956C43.293 40.5288 43.4722 40.5675 43.627 40.5331C43.9323 40.4643 44.1269 40.1163 44.2066 39.8455C44.2884 39.5619 44.3039 39.173 44.0119 38.9968V38.9947Z" fill="#201F3F"/>
<path d="M57.7068 31.9366C57.3728 31.7518 56.9238 31.5477 56.5411 31.7132C56.3486 31.7969 56.2115 31.9839 56.2181 32.1923C56.2203 32.2761 56.2469 32.3534 56.2889 32.42C56.3708 32.6994 56.6893 32.8669 56.9769 32.9271C57.1671 32.9658 57.3706 32.9916 57.5653 32.9851C57.7422 32.9808 57.9303 32.9357 58.0475 32.7982C58.1581 32.6693 58.1625 32.4823 58.1028 32.3319C58.0298 32.1515 57.8727 32.0311 57.7046 31.9388L57.7068 31.9366Z" fill="#201F3F"/>
<path d="M51.4466 31.1975C51.1768 31.1309 50.8626 31.1331 50.6016 31.2362C50.4689 31.2878 50.3384 31.3887 50.3207 31.5349C50.314 31.5886 50.3273 31.6401 50.3494 31.6853C50.345 31.6874 50.3406 31.6896 50.3384 31.6917C50.3185 31.7175 50.3229 31.7562 50.3539 31.7755C50.3716 31.7862 50.3893 31.797 50.407 31.8077C50.5109 31.8679 50.6414 31.898 50.7542 31.9173C50.8914 31.9388 51.033 31.9452 51.1723 31.9345C51.325 31.9237 51.471 31.8937 51.6147 31.8464C51.7276 31.8099 51.8758 31.7605 51.9532 31.6659C52.1567 31.4081 51.6192 31.2383 51.4466 31.1975Z" fill="#201F3F"/>
<path d="M55.4881 34.5772C55.3111 34.4805 55.0899 34.4977 54.9417 34.6331C54.778 34.7814 54.7559 34.9984 54.7758 35.2046C54.7758 35.2111 54.7802 35.2154 54.7802 35.2197C54.7028 35.4367 54.7028 35.6752 54.7736 35.9051C54.8621 36.1951 55.1231 36.5905 55.4925 36.4744C55.6496 36.425 55.7447 36.2854 55.7934 36.1393C55.8531 35.9609 55.8796 35.7633 55.8796 35.5742C55.8796 35.3808 55.8509 35.1853 55.7934 35.0005C55.7403 34.8308 55.654 34.6675 55.4881 34.5794V34.5772Z" fill="#201F3F"/>
<path d="M59.4566 25.2782C59.5008 25.1514 59.4831 25.0053 59.3924 24.9C59.2973 24.7947 59.1579 24.7453 59.0208 24.7238C58.8416 24.6937 58.6514 24.6787 58.47 24.698C58.3859 24.7066 58.3019 24.7281 58.2244 24.7646C58.1758 24.7883 58.1028 24.8248 58.0718 24.8742C58.0696 24.8742 58.0652 24.8742 58.063 24.8764C57.9325 24.9387 57.8794 25.0719 57.9148 25.2073C57.9546 25.3469 58.0785 25.4436 58.2112 25.4995C58.355 25.5596 58.5209 25.6004 58.6757 25.6198C58.9677 25.6563 59.3482 25.5854 59.4566 25.2782Z" fill="#201F3F"/>
<path d="M59.9122 28.8985C59.89 28.7975 59.8613 28.688 59.7861 28.6128C59.6821 28.5075 59.5051 28.4774 59.3746 28.5612C59.3238 28.5934 59.2817 28.645 59.264 28.7009C59.2574 28.7223 59.2552 28.7503 59.2552 28.7739C59.2485 28.7868 59.2419 28.804 59.2375 28.8212C59.222 28.8727 59.2132 28.9265 59.2065 28.9802C59.1932 29.0833 59.2065 29.1907 59.2264 29.2917C59.2685 29.4894 59.3835 29.758 59.6268 29.7666C59.7551 29.7708 59.8613 29.6978 59.9011 29.5796C59.9365 29.4743 59.9498 29.3562 59.9498 29.2466C59.9498 29.1306 59.9387 29.0124 59.9122 28.8985Z" fill="#201F3F"/>
<path d="M63.2659 19L62.6686 19.4791C63.9339 23.6216 65.9933 34.1948 56.6805 40.4794C48.226 46.186 39.1455 43.0147 35.4735 41.2915L35.0023 41.6697C35.0023 41.6697 46.9718 49.1102 57.8927 41.7406C69.6631 33.7973 63.2659 19 63.2659 19Z" fill="#02563F"/>
<path d="M50.2456 44.7637C50.0996 44.4779 49.9647 44.1835 49.8585 43.8742C49.8032 43.713 49.7545 43.5497 49.7103 43.3843C48.0977 43.6958 46.5227 43.7839 45.0295 43.7195C45.0893 44.1148 45.1446 44.5123 45.2087 44.9098C46.797 45.0537 48.4958 45.0387 50.2478 44.7658L50.2456 44.7637Z" fill="#038652"/>
<path d="M51.5396 43.5497C51.4577 43.3692 51.3803 43.1866 51.3073 43.0018C51.0043 43.0878 50.7034 43.1673 50.4026 43.2382C50.4645 43.4187 50.5309 43.5991 50.6039 43.7753C50.7255 44.0654 50.8627 44.349 51.0065 44.6283C51.3272 44.5639 51.6502 44.4908 51.9754 44.4092C51.8183 44.1298 51.6701 43.8441 51.5396 43.5497Z" fill="#038652"/>
<path d="M52.9597 42.9416C52.8912 42.802 52.827 42.6602 52.7629 42.5184C52.4731 42.6279 52.1855 42.7289 51.8979 42.8235C51.9533 42.9481 52.0063 43.0749 52.0616 43.1995C52.2231 43.554 52.3957 43.9021 52.5771 44.2458C52.8823 44.1577 53.1876 44.0589 53.4951 43.9536C53.307 43.6227 53.1279 43.2854 52.9597 42.9438V42.9416Z" fill="#038652"/>
<path d="M59.8083 39.4782C59.5097 39.2182 59.2089 38.9604 58.9102 38.7004C58.251 39.3235 57.5122 39.9186 56.6783 40.4816C56.2226 40.7888 55.7625 41.0703 55.3046 41.3281C55.5014 41.601 55.7005 41.8738 55.9018 42.1467C56.039 42.3315 56.1761 42.5184 56.3133 42.7032C56.8397 42.4153 57.3662 42.0973 57.8905 41.7428C58.7709 41.1476 59.5473 40.5159 60.2353 39.852C60.0937 39.7274 59.9499 39.6028 59.8083 39.4782Z" fill="#038652"/>
<path d="M42.541 43.8462C42.541 43.7216 42.5476 43.597 42.552 43.4723C42.2268 43.4229 41.9061 43.3649 41.5942 43.3047C41.5765 43.4723 41.5654 43.6399 41.5566 43.8097C41.55 43.9687 41.5455 44.1255 41.5455 44.2845C41.8729 44.3661 42.2114 44.4435 42.5564 44.5144C42.5454 44.2909 42.5387 44.0696 42.541 43.8462Z" fill="#038652"/>
<path d="M54.0923 42.426C54.0281 42.2992 53.9684 42.1682 53.9087 42.0392C53.6278 42.1682 53.349 42.2863 53.0703 42.3981C53.1057 42.4797 53.1411 42.5635 53.1809 42.6451C53.3712 43.0426 53.5924 43.4272 53.8401 43.7925C53.8467 43.8011 53.8534 43.8118 53.86 43.8226C54.1498 43.7151 54.4396 43.5991 54.7294 43.4745C54.4905 43.1415 54.2759 42.7934 54.0923 42.4281V42.426Z" fill="#038652"/>
<path d="M35.4712 41.2937L35 41.6719C35 41.6719 36.648 42.6967 39.2781 43.6077C39.3224 43.4638 39.3688 43.3198 39.4131 43.1759C39.4507 43.0534 39.4883 42.9309 39.5237 42.8063C37.8558 42.3315 36.4666 41.7599 35.4712 41.2937Z" fill="#038652"/>
<path d="M61.1112 37.9741C60.8303 37.7657 60.5538 37.5509 60.2817 37.3317C60.2662 37.3188 60.2485 37.3038 60.233 37.2909C60.0715 37.4864 59.9012 37.6798 59.7264 37.871C59.9476 38.0708 60.1733 38.2642 60.4055 38.4511C60.6268 38.6295 60.8546 38.8013 61.0846 38.9711C61.2727 38.7605 61.4496 38.5478 61.6222 38.333C61.4518 38.2148 61.2815 38.0966 61.1156 37.9741H61.1112Z" fill="#038652"/>
<path d="M61.1842 37.6325C61.3745 37.8087 61.5691 37.9806 61.7638 38.1503C61.9275 37.9376 62.0845 37.7228 62.235 37.5057C62.1022 37.4005 61.9695 37.2952 61.839 37.1878C61.5912 36.9836 61.3479 36.7774 61.1068 36.5668C61.0427 36.511 60.9785 36.4551 60.9144 36.3992C60.7772 36.5926 60.6356 36.7838 60.4874 36.9751C60.7175 37.1964 60.9497 37.4155 61.1842 37.6304V37.6325Z" fill="#038652"/>
<path d="M64.0576 33.1226C63.7037 32.8411 63.3343 32.5683 62.9516 32.319C62.6596 33.2214 62.2813 34.1174 61.7969 34.994C62.0491 35.211 62.2636 35.4151 62.4937 35.6622C62.6729 35.8534 62.8432 36.0554 63.0069 36.2595C63.5444 35.2862 63.9514 34.2871 64.2545 33.2859C64.1881 33.2322 64.124 33.1763 64.0576 33.1226Z" fill="#038652"/>
<path d="M63.7722 27.5234C64.197 27.7297 64.6018 27.9617 64.9977 28.2131C65.0132 26.6941 64.865 25.2588 64.6504 23.9933C64.5155 23.9868 64.3806 23.9825 64.2456 23.9825C64.0399 23.9825 63.8298 23.9847 63.6218 23.9911C63.7545 25.0912 63.8209 26.2837 63.7722 27.5234Z" fill="#038652"/>
<path d="M63.1065 21.1056C63.2968 21.0369 63.487 20.9702 63.6794 20.9101C63.7569 20.8865 63.8343 20.8671 63.9095 20.8456C63.8343 20.5942 63.7613 20.3643 63.6927 20.1581C63.6573 20.1688 63.6219 20.1774 63.5865 20.1882C63.3653 20.2548 63.1463 20.3321 62.9318 20.4116C62.9893 20.6329 63.049 20.8628 63.1065 21.1056Z" fill="#038652"/>
<path d="M63.2657 21.8168C63.31 22.0295 63.352 22.2487 63.394 22.4743C63.4339 22.4678 63.4737 22.4614 63.5135 22.4549C63.7612 22.4163 64.009 22.3711 64.2568 22.3303C64.2744 22.3282 64.2921 22.3239 64.3121 22.3217C64.2545 22.0854 64.197 21.8576 64.1395 21.6428C64.0953 21.6514 64.051 21.6599 64.0068 21.6685C63.7613 21.718 63.5179 21.7652 63.2724 21.8168C63.2724 21.8168 63.2702 21.8168 63.268 21.8168H63.2657Z" fill="#038652"/>
<path d="M64.3563 29.8331C64.1085 29.6935 63.8586 29.556 63.6086 29.4185C63.5688 29.7064 63.5223 29.9964 63.467 30.2886C63.5002 30.308 63.5356 30.3273 63.5688 30.3488L64.5642 30.9225C64.6306 30.9611 64.6992 30.9977 64.7677 31.0363C64.8164 30.7334 64.8562 30.4347 64.8872 30.1339C64.7102 30.0351 64.5333 29.9341 64.3563 29.8353V29.8331Z" fill="#038652"/>
<g clip-path="url(#clip18_358_666)">
<path d="M40.4198 26.6268C41.6594 25.4227 41.6594 23.4706 40.4198 22.2665C39.1801 21.0624 37.1703 21.0624 35.9306 22.2665C34.691 23.4706 34.691 25.4227 35.9306 26.6268C37.1703 27.8309 39.1801 27.8309 40.4198 26.6268Z" fill="#FC3647"/>
<path d="M37.6766 24.9172C38.494 24.9172 39.1565 24.2737 39.1565 23.4798C39.1565 22.686 38.494 22.0424 37.6766 22.0424C36.8593 22.0424 36.1968 22.686 36.1968 23.4798C36.1968 24.2737 36.8593 24.9172 37.6766 24.9172Z" fill="#FD6875"/>
</g>
<g clip-path="url(#clip19_358_666)">
<path d="M47.768 26.3997C48.8333 26.3997 49.6969 25.5609 49.6969 24.5262C49.6969 23.4914 48.8333 22.6526 47.768 22.6526C46.7027 22.6526 45.8391 23.4914 45.8391 24.5262C45.8391 25.5609 46.7027 26.3997 47.768 26.3997Z" fill="#9D571B"/>
<path d="M46.6089 24.0986C46.6089 23.6302 47.0004 23.2477 47.4849 23.2477C47.9693 23.2477 48.3608 23.628 48.3608 24.0986C48.3608 24.5691 47.9693 24.9494 47.4849 24.9494C47.0004 24.9494 46.6089 24.5691 46.6089 24.0986Z" fill="#D8772A"/>
</g>
</g>
<g clip-path="url(#clip20_358_666)">
<path d="M30 38.5016C30 37.6709 30.6704 37 31.4987 37C32.327 37 32.9974 37.6709 32.9974 38.5016C32.9974 39.3323 32.327 40.0032 31.4987 40.0032C30.6704 40.0032 30 39.3291 30 38.5016Z" fill="#9D571B"/>
</g>
<g clip-path="url(#clip21_358_666)">
<path d="M24.2702 13.8993C24.2702 13.8993 24.1796 8.04374 25.7984 8.00021C27.4148 7.95667 26.5726 11.0673 26.5726 11.0673C26.5726 11.0673 28.0352 8.4791 29.2735 8.85787C30.5119 9.23663 29.1739 11.9184 29.1739 11.9184C29.1739 11.9184 31.0621 10.7038 31.7752 11.5353C32.4861 12.3669 28.3227 14.9855 28.3227 14.9855L25.178 15.4535L24.2702 13.8993Z" fill="#038652"/>
<path d="M25.9591 15.338C26.0202 15.2574 26.0813 15.1791 26.1402 15.1051C26.3824 14.809 26.6201 14.5108 26.8533 14.2082C27.331 13.59 27.7883 12.9609 28.2275 12.3188C28.6577 11.6897 29.0743 11.0519 29.4614 10.3966C29.5746 10.2073 29.6878 10.0157 29.7987 9.82415C29.8078 9.57817 29.7738 9.35396 29.6787 9.17982C29.4704 9.52811 29.269 9.88075 29.0561 10.2247C28.6464 10.8864 28.2275 11.5416 27.7838 12.1816C27.3491 12.8085 26.8986 13.4246 26.4277 14.0275C26.4209 14.0362 26.4118 14.0471 26.4051 14.0558C26.722 13.5247 27.0344 12.9914 27.331 12.4494C27.7249 11.7267 28.0849 10.9844 28.4064 10.229C28.5671 9.85245 28.7166 9.47151 28.8456 9.08404C28.875 8.99697 28.8999 8.9099 28.9271 8.82283C28.6713 8.84677 28.4132 8.97085 28.1664 9.14935C28.0419 9.45192 27.9151 9.75449 27.7815 10.0549C27.4465 10.8081 27.0661 11.5416 26.6699 12.2687C26.3485 12.8564 26.0089 13.4333 25.6625 14.0079C25.6625 14.0036 25.6625 13.9992 25.6625 13.9971C25.753 13.2787 25.8459 12.5582 25.9749 11.8442C26.0972 11.1629 26.2488 10.4859 26.4481 9.82198C26.5364 9.52593 26.6405 9.23642 26.7492 8.9469C26.713 8.73358 26.6518 8.53984 26.5522 8.38312C26.353 8.79018 26.19 9.219 26.0519 9.6413C25.83 10.3161 25.6557 11.004 25.5221 11.7005C25.3908 12.3928 25.2867 13.0872 25.221 13.7881C25.212 13.8882 25.2006 13.9905 25.1916 14.0907C25.1916 14.0297 25.1916 13.9688 25.1916 13.9056C25.2052 13.1372 25.255 12.3688 25.3319 11.6048C25.4089 10.8451 25.5153 10.0832 25.6602 9.3322C25.7327 8.96214 25.8074 8.59426 25.8798 8.22421C25.8934 8.15237 25.9115 8.07836 25.9296 8.00435C25.8866 8 25.8391 7.99782 25.7915 8C25.6444 8.00435 25.5108 8.0566 25.3885 8.1502C25.2776 8.50502 25.1757 8.85766 25.092 9.219C24.9176 9.97435 24.775 10.7341 24.6754 11.5025C24.5735 12.2839 24.5215 13.0676 24.5056 13.8556C24.5033 14.0079 24.5033 14.1603 24.5056 14.3127L25.1735 15.4555L25.9545 15.338H25.9591Z" fill="#02563F"/>
<path d="M31.7752 11.5351C31.7005 11.448 31.6099 11.3871 31.5103 11.3414C31.4492 11.4306 31.3903 11.522 31.3292 11.6091C31.1798 11.8224 31.0304 12.0336 30.8787 12.2447C30.5572 12.6888 30.2176 13.1176 29.8667 13.5399C29.5633 13.9035 29.2464 14.2517 28.9181 14.5935C29.4773 14.2147 30.3195 13.6118 30.9602 13.024C31.087 12.8608 31.2137 12.6975 31.336 12.5299C31.4967 12.3079 31.6552 12.0858 31.8024 11.8551C31.8182 11.829 31.8363 11.805 31.8544 11.7767C31.8567 11.6853 31.8341 11.6048 31.7752 11.5351Z" fill="#02563F"/>
<path d="M28.2955 14.8722C28.6758 14.4368 29.0562 14.0014 29.4161 13.553C29.7648 13.1198 30.0931 12.6736 30.4327 12.2339C30.6839 11.9074 30.9443 11.5874 31.1888 11.2565C31.0779 11.2456 30.9624 11.2456 30.8424 11.2587C30.6409 11.5395 30.444 11.8225 30.238 12.0989C29.9051 12.543 29.5565 12.9783 29.2124 13.4137C28.8818 13.8338 28.5604 14.2648 28.2321 14.6871C28.1393 14.8069 28.0464 14.9244 27.9491 15.0398L28.1845 15.0049C28.223 14.9614 28.257 14.9157 28.2955 14.8722Z" fill="#02563F"/>
<path d="M27.8631 14.3105C28.2298 13.9339 28.5785 13.5399 28.9068 13.1329C29.226 12.7345 29.5271 12.3209 29.8033 11.8943C29.8938 11.755 29.9776 11.6135 30.0636 11.472C29.5678 11.6679 29.1716 11.9204 29.1716 11.9204C29.1716 11.9204 29.226 11.8094 29.3029 11.6331C29.2939 11.6461 29.2848 11.6592 29.278 11.6723C28.986 12.0924 28.6736 12.5016 28.3453 12.8956C28.0238 13.2787 27.6865 13.651 27.331 14.0058C26.9665 14.3693 26.5545 14.6871 26.1991 15.055C26.1244 15.1312 26.147 15.2291 26.2081 15.301L26.9349 15.1921C27.2677 14.9266 27.571 14.6087 27.8631 14.3105Z" fill="#02563F"/>
<path d="M25.2732 14.0232C25.2732 14.0842 25.3479 14.1125 25.3909 14.0711C25.9637 13.516 28.4223 11.4285 31.1346 13.5661C34.2339 16.0084 32.7669 20.1335 31.7164 21.6115C30.6659 23.0896 23.1179 32.2974 19.0224 30.8455C15.1058 29.4567 15.9955 21.2415 16.3215 17.7303C16.6498 14.2191 18.0127 11.2282 20.7657 10.7014C25.0559 9.88077 25.28 13.2113 25.2732 14.0232Z" fill="#D8772A"/>
<path d="M18.9681 25.6473C20.3697 25.6473 21.506 23.4096 21.506 20.6493C21.506 17.8891 20.3697 15.6514 18.9681 15.6514C17.5664 15.6514 16.4302 17.8891 16.4302 20.6493C16.4302 23.4096 17.5664 25.6473 18.9681 25.6473Z" fill="#9D571B"/>
<path d="M30.2141 20.4756C31.6798 20.0239 32.4872 18.5153 32.0175 17.106C31.5477 15.6967 29.9787 14.9203 28.513 15.372C27.0472 15.8237 26.2398 17.3323 26.7096 18.7416C27.1793 20.1509 28.7483 20.9272 30.2141 20.4756Z" fill="#9D571B"/>
<path d="M24.3404 24.9202C23.8808 24.4326 24.1819 23.4487 25.015 22.7195C25.8482 21.9925 26.8964 21.7987 27.3582 22.2863C27.8178 22.7739 27.5167 23.7578 26.6836 24.4871C25.8504 25.2141 24.8022 25.4078 24.3404 24.9202Z" fill="#9D571B"/>
<path d="M21.6373 12.0096C22.1965 12.3906 22.1195 13.4159 21.4675 14.2975C20.8155 15.1791 19.8352 15.5839 19.276 15.203C18.7168 14.8221 18.7938 13.7968 19.4458 12.9152C20.0978 12.0336 21.0781 11.6287 21.6373 12.0096Z" fill="#9D571B"/>
<path d="M22.8371 11.1498C22.1466 10.7885 21.1957 11.0911 20.5958 11.4829C20.0026 11.8682 19.5453 12.4537 19.1582 13.0241C18.7688 13.6031 18.4382 14.2235 18.1915 14.8722C18.076 15.1769 17.9809 15.4838 17.9107 15.7995C17.8247 16.1826 17.7183 16.5613 17.9515 16.9096C18.1077 17.1426 18.6103 17.1752 18.8118 16.9902C18.9521 16.8617 19.045 16.7594 19.1061 16.5766C19.1536 16.4373 19.1831 16.2914 19.2193 16.1499C19.294 15.8648 19.3778 15.584 19.4729 15.3053C19.654 14.7807 19.8826 14.2648 20.1702 13.7838C20.4599 13.2983 20.8041 12.7955 21.2274 12.408C21.4131 12.2382 21.6281 12.0902 21.8681 11.9988C22.0945 11.9117 22.3073 11.927 22.5473 11.9161C23.0341 11.8943 23.351 11.4198 22.8348 11.1498H22.8371Z" fill="#E39D68"/>
<path d="M30.4983 19.1212C30.3806 18.7534 29.7354 18.7686 29.5203 19.0298C29.2464 19.3607 29.1694 19.8635 29.0245 20.2575C28.8774 20.6624 28.6985 21.0564 28.497 21.4373C28.1053 22.1796 27.6005 22.8719 27.116 23.5575C26.5976 24.2889 25.9546 24.8941 25.2731 25.484C24.5419 26.1175 23.8106 26.7444 23.0364 27.3299C22.5881 27.6695 22.1308 27.9938 21.6599 28.3051C21.4312 28.4575 21.2026 28.6055 20.9716 28.7514C20.709 28.9168 20.4668 29.0452 20.3196 29.3239C20.1181 29.7026 20.7611 29.8637 21.0101 29.8224C21.5286 29.7375 21.9949 29.3173 22.4093 29.0235C22.8236 28.7296 23.2288 28.427 23.6295 28.1201C24.4242 27.5106 25.2052 26.8706 25.9229 26.1762C26.5976 25.5254 27.2111 24.8223 27.8767 24.1627C28.5423 23.5031 29.0811 22.7978 29.5497 21.9946C29.8056 21.5549 30.0342 21.0999 30.2199 20.6298C30.3919 20.1944 30.6478 19.5849 30.5006 19.1234L30.4983 19.1212Z" fill="#E39D68"/>
<path d="M22.5971 25.8802C22.2009 25.9216 21.8749 26.1937 21.5489 26.3961C21.2637 26.5746 20.9875 26.7662 20.7045 26.9468C20.4328 27.121 20.1611 27.2973 19.8894 27.4714C19.5997 27.6565 19.2804 27.8241 19.0473 28.0722C18.925 28.2028 18.9703 28.4009 19.0903 28.5141C19.2329 28.6469 19.4751 28.7057 19.6698 28.6556C20.0321 28.5642 20.3536 28.3792 20.6773 28.205C21.0033 28.0287 21.3271 27.848 21.644 27.6565C21.9247 27.4867 22.2077 27.3191 22.4771 27.134C22.6175 27.0361 22.7556 26.9359 22.896 26.8336C23.0703 26.7052 23.231 26.5877 23.2854 26.3722C23.385 25.9694 22.9254 25.8454 22.5994 25.878L22.5971 25.8802Z" fill="#E39D68"/>
<path d="M31.9586 16.3349C31.8364 15.9975 31.6643 15.6732 31.456 15.3793C31.3496 15.2291 31.2251 15.1029 31.0915 14.9744C30.9376 14.8286 30.7678 14.735 30.5776 14.6392C30.4373 14.5674 30.0139 14.6653 30.1361 14.883C30.2109 15.018 30.2697 15.1551 30.358 15.2835C30.4373 15.3989 30.5052 15.5252 30.5754 15.6471C30.7293 15.9192 30.8402 16.2152 30.9127 16.5178C30.9806 16.7964 31.01 17.075 31.0146 17.3667C31.0168 17.5256 30.9806 17.7063 31.0146 17.863C31.0146 17.9 31.0281 17.9349 31.053 17.9653C31.0915 18.0285 31.0915 18.0285 31.0485 17.9653C31.0463 17.998 31.0508 18.035 31.053 18.0676C31.053 18.1525 31.0485 18.2374 31.0621 18.3223C31.1074 18.6358 31.6236 18.7185 31.8115 18.4682C31.9156 18.331 31.9722 18.1504 32.0469 18.0111C32.1488 17.8173 32.1579 17.6062 32.1556 17.3907C32.1511 17.0402 32.0786 16.6658 31.9609 16.3327L31.9586 16.3349Z" fill="#E39D68"/>
<path d="M17.7999 18.4181C17.7863 18.2004 17.7772 17.9588 17.6731 17.7629C17.6142 17.6519 17.5101 17.5909 17.3788 17.5801C17.2656 17.5692 17.0935 17.5975 17.0256 17.702C16.8943 17.9088 16.8558 18.133 16.8218 18.3702C16.7901 18.5901 16.772 18.8099 16.7562 19.032C16.7403 19.2388 16.7335 19.4652 16.7607 19.6698C16.7924 19.8983 16.8196 20.1334 16.9215 20.3446C17.0369 20.584 17.4218 20.5601 17.544 20.3446C17.7591 19.9702 17.8044 19.4804 17.8112 19.0581C17.8135 18.8448 17.8112 18.6336 17.8021 18.4203L17.7999 18.4181Z" fill="#E39D68"/>
</g>
<g clip-path="url(#clip22_358_666)">
<path d="M13.5 4C14.8807 4 16 3.10457 16 2C16 0.89543 14.8807 0 13.5 0C12.1193 0 11 0.89543 11 2C11 3.10457 12.1193 4 13.5 4Z" fill="#FC3647"/>
<path d="M12.4169 2.17542C12.9087 2.17542 13.3075 1.85645 13.3075 1.46298C13.3075 1.06952 12.9087 0.750549 12.4169 0.750549C11.9251 0.750549 11.5264 1.06952 11.5264 1.46298C11.5264 1.85645 11.9251 2.17542 12.4169 2.17542Z" fill="#FD6875"/>
</g>
<g clip-path="url(#clip23_358_666)">
<path d="M21 4.00096C21 3.44699 21.447 3 22.001 3C22.5549 3 23.0019 3.44699 23.0019 4.00096C23.0019 4.55492 22.5549 5.00191 22.001 5.00191C21.447 5.00191 21 4.55301 21 4.00096Z" fill="#038652"/>
</g>
<g clip-path="url(#clip24_358_666)">
<path d="M37 13C37 12.4491 37.2246 12 37.5 12C37.7754 12 38 12.4491 38 13C38 13.5509 37.7754 14 37.5 14C37.2246 14 37 13.5539 37 13Z" fill="#038652"/>
</g>
<g clip-path="url(#clip25_358_666)">
<path d="M66.672 102.898C68.7282 98.5469 74.9622 96.861 79.0516 98.795C83.141 100.729 85.2603 105.572 83.204 109.924C81.1478 114.275 74.7269 116.772 67.9343 113.508C63.8575 111.549 64.6178 107.252 66.672 102.898Z" fill="#C70134"/>
<path d="M71.2759 111.552C71.6117 110.653 70.5996 109.443 69.0153 108.851C67.431 108.258 65.8745 108.507 65.5387 109.406C65.2029 110.306 66.215 111.515 67.7993 112.108C69.3836 112.7 70.9401 112.452 71.2759 111.552Z" fill="#AB064A"/>
<path d="M71.6539 109.791C71.6539 109.234 72.5886 108.784 73.7417 108.784C74.8948 108.784 75.8295 109.236 75.8295 109.791C75.8295 110.346 74.8948 110.798 73.7417 110.798C72.5886 110.798 71.6539 110.346 71.6539 109.791Z" fill="#AB064A"/>
<path d="M71.7087 113.512C71.6015 112.7 72.6958 111.889 74.1493 111.698C75.6049 111.506 76.8693 112.009 76.9764 112.82C77.0835 113.632 75.9892 114.443 74.5358 114.634C73.0802 114.826 71.8158 114.323 71.7087 113.512Z" fill="#AB064A"/>
<path d="M74.5778 112.677C74.227 112.463 73.7733 112.616 73.3826 112.644C73.0235 112.671 72.6622 112.675 72.3031 112.654C71.591 112.612 70.8769 112.459 70.2069 112.213C69.5117 111.956 68.8584 111.609 68.2577 111.174C67.9658 110.962 67.6843 110.733 67.4239 110.483C67.1445 110.213 66.8925 109.907 66.5942 109.661C66.4241 109.52 65.9137 109.606 66.0313 109.907C66.1742 110.274 66.4661 110.6 66.7413 110.878C67.0332 111.174 67.3441 111.452 67.678 111.702C68.3207 112.185 69.0496 112.572 69.8036 112.85C70.587 113.138 71.3957 113.312 72.2274 113.377C72.637 113.409 73.0508 113.411 73.4604 113.373C73.8426 113.339 74.4811 113.344 74.6786 112.961C74.7269 112.866 74.6618 112.725 74.5778 112.675V112.677Z" fill="#D02A54"/>
<path d="M79.4716 110.165C79.1482 110.119 78.852 110.26 78.5643 110.396C78.2912 110.527 78.0119 110.642 77.7283 110.745C77.1864 110.943 76.6214 111.088 76.0522 111.187C75.483 111.286 74.9075 111.328 74.3299 111.321C74.0275 111.317 73.725 111.302 73.4246 111.275C73.1306 111.248 72.8239 111.166 72.5299 111.187C72.2001 111.208 71.9628 111.548 72.3304 111.742C72.6181 111.893 72.9836 111.92 73.3028 111.962C73.6284 112.004 73.956 112.032 74.2858 112.04C74.9474 112.057 75.6132 112.009 76.2665 111.904C76.905 111.803 77.5309 111.637 78.14 111.418C78.4529 111.307 78.7596 111.178 79.06 111.035C79.3288 110.907 79.6838 110.745 79.7342 110.426C79.7552 110.295 79.5787 110.182 79.4695 110.165H79.4716Z" fill="#D02A54"/>
<path d="M78.4781 112.431C78.266 112.463 78.079 112.551 77.8816 112.631C77.6905 112.707 77.4972 112.774 77.304 112.85C76.9616 112.986 76.613 113.106 76.258 113.205C75.8925 113.306 75.525 113.394 75.1532 113.463C74.7604 113.535 74.3572 113.571 73.9686 113.669C73.6892 113.741 73.6409 114.105 73.9686 114.147C74.8087 114.256 75.7245 114.065 76.5331 113.84C76.9469 113.724 77.3565 113.589 77.7556 113.43C77.9572 113.35 78.142 113.253 78.3332 113.148C78.5201 113.045 78.7028 112.957 78.8415 112.789C79.0326 112.553 78.6566 112.406 78.4781 112.433V112.431Z" fill="#D02A54"/>
</g>
<defs>
<clipPath id="clip0_358_666">
<rect width="39" height="39" fill="white" transform="translate(36 50)"/>
</clipPath>
<clipPath id="clip1_358_666">
<rect width="22" height="24" fill="white" transform="translate(0 73)"/>
</clipPath>
<clipPath id="clip2_358_666">
<rect width="5" height="5" fill="white" transform="translate(40 102)"/>
</clipPath>
<clipPath id="clip3_358_666">
<rect width="2" height="3" fill="white" transform="translate(58 97)"/>
</clipPath>
<clipPath id="clip4_358_666">
<rect width="36" height="25" fill="white" transform="translate(145 92)"/>
</clipPath>
<clipPath id="clip5_358_666">
<rect width="3" height="2" fill="white" transform="translate(13 60)"/>
</clipPath>
<clipPath id="clip6_358_666">
<rect width="5" height="5" fill="white" transform="translate(117 105)"/>
</clipPath>
<clipPath id="clip7_358_666">
<rect width="2" height="2" fill="white" transform="translate(135 90)"/>
</clipPath>
<clipPath id="clip8_358_666">
<rect width="3" height="4" fill="white" transform="translate(71 82)"/>
</clipPath>
<clipPath id="clip9_358_666">
<rect width="3" height="3" fill="white" transform="translate(78 73)"/>
</clipPath>
<clipPath id="clip10_358_666">
<rect width="4" height="3" fill="white" transform="translate(31 62)"/>
</clipPath>
<clipPath id="clip11_358_666">
<rect width="4" height="5" fill="white" transform="translate(128 97)"/>
</clipPath>
<clipPath id="clip12_358_666">
<rect width="4" height="3" fill="white" transform="translate(23 56)"/>
</clipPath>
<clipPath id="clip13_358_666">
<rect width="15" height="13" fill="white" transform="translate(9 41)"/>
</clipPath>
<clipPath id="clip14_358_666">
<rect width="4" height="3" fill="white" transform="translate(12 51)"/>
</clipPath>
<clipPath id="clip15_358_666">
<rect width="4" height="4" fill="white" transform="translate(82 47)"/>
</clipPath>
<clipPath id="clip16_358_666">
<rect width="14" height="15" fill="white" transform="translate(96 94)"/>
</clipPath>
<clipPath id="clip17_358_666">
<rect width="30" height="26" fill="white" transform="translate(35 19)"/>
</clipPath>
<clipPath id="clip18_358_666">
<rect width="6.34641" height="6.16428" fill="white" transform="translate(35 21.3635)"/>
</clipPath>
<clipPath id="clip19_358_666">
<rect width="3.85784" height="3.74713" fill="white" transform="translate(45.8391 22.6526)"/>
</clipPath>
<clipPath id="clip20_358_666">
<rect width="3" height="3" fill="white" transform="translate(30 37)"/>
</clipPath>
<clipPath id="clip21_358_666">
<rect width="17" height="23" fill="white" transform="translate(16 8)"/>
</clipPath>
<clipPath id="clip22_358_666">
<rect width="5" height="4" fill="white" transform="translate(11)"/>
</clipPath>
<clipPath id="clip23_358_666">
<rect width="2" height="2" fill="white" transform="translate(21 3)"/>
</clipPath>
<clipPath id="clip24_358_666">
<rect width="1" height="2" fill="white" transform="translate(37 12)"/>
</clipPath>
<clipPath id="clip25_358_666">
<rect width="19" height="17" fill="white" transform="translate(65 98)"/>
</clipPath>
</defs>
</svg>
