<svg width="123" height="140" viewBox="0 0 123 140" fill="none" xmlns="http://www.w3.org/2000/svg">
<g clip-path="url(#clip0_93_1162)">
<path d="M0.378301 58.114C4.19716 26.2462 37.4111 -3.48886 69.3949 0.330946C101.379 4.1575 123.386 40.3444 119.567 72.2122C115.748 104.073 86.2857 123.341 54.3019 119.521C22.3181 115.695 -3.44732 89.9749 0.378301 58.114Z" fill="#038652"/>
<path d="M104.11 30.0927C98.77 21.4273 91.2337 13.8687 82.2982 8.91506C86.4415 9.41447 90.4699 10.3188 94.3969 11.925C95.2148 12.2557 96.0191 12.6269 96.8167 13.0048C92.5585 9.266 87.8204 6.18181 82.6903 3.95471C81.1289 4.58235 79.6217 5.31122 78.2158 6.16156C78.1279 5.06826 77.5466 3.90072 77.06 3.09762C76.7356 2.56447 76.3503 2.0718 75.9447 1.59939C73.8157 1.03249 71.6392 0.600571 69.402 0.33062C65.8873 -0.0878045 62.3523 -0.101302 58.8444 0.242886C60.1151 0.458846 61.379 0.708551 62.6294 1.01225C65.2182 1.63988 67.746 2.48348 70.1725 3.59028C71.4162 4.15718 72.6261 4.79831 73.7819 5.52043C74.2009 5.78363 74.6065 6.06708 75.0188 6.35053C73.0046 6.24255 70.9566 6.31678 68.9829 6.38427C65.867 6.49225 62.7579 6.74196 59.6622 7.13339C53.4033 7.91624 47.2323 9.28625 41.2236 11.1962C33.0451 13.8012 24.9208 17.3983 17.7224 22.2372C8.42193 32.4076 1.94002 45.0818 0.378678 58.1136C-0.0876961 62.0212 -0.107973 65.8343 0.263774 69.5326C3.07553 62.4801 6.6781 55.7516 11.0106 49.5157C20.8924 35.2825 34.5456 23.8839 50.2334 16.5277C54.6267 14.4693 59.1688 12.7146 63.8123 11.3176C64.9681 10.9734 66.1306 10.6428 67.2999 10.3323C62.1428 12.8766 57.229 15.9608 52.6531 19.3824C45.6034 24.6465 39.2499 30.8486 33.8359 37.7796C28.2665 44.9063 23.7041 52.8159 20.3787 61.2248C16.7829 70.3289 14.5929 79.9932 13.8427 89.7519C13.6061 92.8091 13.5318 95.8933 13.5791 98.9707C17.3506 103.168 21.7846 106.86 26.7187 109.924C35.1945 100.793 42.7849 90.8587 49.3817 80.2834C58.2361 66.0772 65.3195 50.771 70.3415 34.8034C71.7474 30.3492 72.9843 25.8477 74.0657 21.3058C75.0931 16.9664 76.0529 12.5729 76.6477 8.1457C76.8369 8.09171 77.0262 8.04447 77.2154 7.99048C79.2229 11.8238 81.2168 15.6233 82.7714 19.6659C84.3597 23.8029 85.5764 28.0816 86.4077 32.4346C88.0637 41.0865 88.1516 50.0151 86.6984 58.7008C83.5892 77.2869 72.6261 93.1735 61.7237 108.075C58.8241 112.036 55.7758 115.971 52.0651 119.217C52.8018 119.332 53.5453 119.433 54.2888 119.521C65.0424 120.81 75.5122 119.474 84.8194 115.93C93.6467 109.951 100.913 101.879 105.874 92.4312C111.065 82.551 113.667 71.2603 113.275 60.1113C112.903 49.4887 109.666 39.1293 104.096 30.086L104.11 30.0927Z" fill="#02563F"/>
<path d="M109.199 59.1531C108.814 58.4242 108.408 57.7291 108.483 56.872C108.564 55.9204 109.044 55.0363 109.199 54.0915C109.449 52.627 109.179 51.0545 108.314 49.8195C107.915 49.2459 107.361 48.8949 106.86 48.4293C106.239 47.8489 106.056 47.0053 105.995 46.1887C105.86 44.407 106.036 42.6388 105.522 40.8976C105.056 39.3117 104.035 37.8742 102.508 37.1521C101.757 36.8011 100.771 36.6594 100.223 35.9913C99.9053 35.6066 99.5809 34.8102 99.5404 34.3918C99.439 33.3323 99.3241 32.2727 98.7901 31.3211C98.1683 30.2143 97.1274 29.3775 95.904 29.256C95.9851 27.8792 95.5458 26.5092 94.755 25.3754C93.8155 24.0324 92.4704 23.2428 90.9091 22.8379C90.463 22.7232 90.0777 22.595 89.9628 22.1023C89.8547 21.6569 89.9628 21.1777 89.9358 20.7255C89.8885 19.9292 89.5775 19.2003 89.1314 18.5457C88.1514 17.1149 86.6509 16.1431 85.583 14.7866C84.4001 13.2884 83.6701 11.4865 83.393 9.61031C83.4944 9.64405 83.5958 9.67779 83.6904 9.71829C83.224 9.44159 82.7577 9.16489 82.2845 8.90168C86.4278 9.40109 90.4562 10.3054 94.3832 11.9116C95.2011 12.2423 96.0054 12.6135 96.803 12.9914L96.6137 12.8025C96.2757 12.465 95.5931 11.9454 95.2213 11.6484C95.2011 11.6349 95.1875 11.6214 95.1673 11.6012C94.0926 10.7239 92.9909 9.88701 91.8621 9.0974C91.8351 9.07715 91.8013 9.05691 91.7742 9.03666C90.6455 8.24705 89.4829 7.50469 88.3001 6.80281C88.2798 6.78932 88.2663 6.78257 88.246 6.76907C88.0635 6.66109 87.8743 6.55986 87.6918 6.45863C87.6647 6.47212 87.6377 6.47887 87.6107 6.49237C87.3808 6.6071 87.3133 6.69483 87.0497 6.64084C86.9077 6.61385 86.7523 6.48562 86.6171 6.43163C85.9547 6.17518 85.2382 6.10094 84.5421 6.23592C84.1838 6.30341 83.8729 6.44513 83.5485 6.5936C83.1835 6.76232 83.1294 6.61385 82.7847 6.45863C82.1967 6.18868 81.5005 6.13469 80.8787 6.31015C80.5948 6.39114 80.3785 6.55986 80.1149 6.66784C79.831 6.78257 79.9865 6.72183 79.7431 6.62735C79.5809 6.56661 79.439 6.45863 79.27 6.39789C79.0875 6.3304 78.905 6.29666 78.7225 6.27641C78.7563 6.12119 78.7766 5.95922 78.7901 5.79725C78.5941 5.91198 78.3913 6.01996 78.1953 6.14144C78.1075 5.04813 77.5262 3.88059 77.0395 3.07749C76.7151 2.54434 76.3298 2.05168 75.9243 1.57926C75.4038 1.43754 74.8834 1.30931 74.3562 1.18783C74.3359 1.18783 74.3156 1.18108 74.2953 1.17434C73.8087 1.05961 73.3153 0.958375 72.8219 0.863892C72.761 0.850394 72.7002 0.836897 72.6394 0.830148C72.6191 0.830148 72.5988 0.823399 72.5786 0.81665C72.6529 1.05961 72.7881 1.28906 72.9706 1.47803C73.0652 1.57926 73.2477 1.68049 73.3221 1.78847C73.4099 1.9167 73.3356 1.98419 73.2545 2.13266C73.099 2.42961 72.9706 2.71981 73.1058 3.05724C73.2409 3.39468 73.5924 3.61739 73.9033 3.77261C74.1061 3.87385 74.3291 3.95483 74.5319 4.04931C74.586 4.07631 74.755 4.13705 74.809 4.19104C74.9713 4.21803 74.9915 4.26528 74.8631 4.33276C74.8496 4.37326 74.8428 4.4205 74.8293 4.46099C74.5657 5.32483 75.6607 5.49355 76.1271 5.91198C76.0527 6.14144 75.9716 6.39114 75.9108 6.64084C75.6201 6.51262 75.2889 6.47212 74.9307 6.51262C74.613 6.54636 74.3021 6.64759 74.0182 6.78932C73.687 6.96479 73.3153 7.38321 72.9435 7.44395C72.6124 7.49794 72.3555 7.07277 72.0784 6.8973C71.8013 6.72183 71.4836 6.6206 71.1524 6.5936C70.4765 6.54636 69.8682 6.82306 69.2937 7.147C68.7259 7.4642 68.1581 7.88262 67.4822 7.72065C66.6576 7.52493 65.975 7.31572 65.1436 7.60592C64.4339 7.85562 63.8594 8.35503 63.1632 8.63173C62.3386 8.96242 61.4802 8.49676 60.6488 8.38878C59.8716 8.28755 59.1686 8.44952 58.5062 8.86794C57.9317 9.23238 57.4789 9.77228 56.8841 10.0962C56.1879 10.4741 55.4444 9.96124 54.6941 10.0557C54.0385 10.1435 53.5316 10.5349 53.126 11.0275C52.7137 11.527 52.3961 12.2153 51.8418 12.573C51.2741 12.9442 50.49 12.843 49.8479 12.8295C49.1382 12.816 48.3879 12.816 47.7188 13.0927C46.9415 13.4166 46.6712 14.0443 46.1507 14.6449C45.61 15.2725 44.6029 14.8339 43.8932 14.7866C43.1362 14.7326 42.4332 14.9216 41.8182 15.3603C41.2369 15.7719 40.8111 16.3523 40.2906 16.8247C39.7093 17.3444 39.1416 17.4456 38.3846 17.4389C36.8232 17.4119 35.4173 17.5401 34.8023 19.1801C34.5522 19.8482 34.4238 20.4893 33.5924 20.4961C32.8827 20.4961 32.1798 20.3409 31.4768 20.5231C30.7401 20.712 30.2805 21.2182 29.9898 21.8998C29.8547 22.2035 29.7668 22.595 29.5032 22.8244C29.2599 23.0336 28.9084 23.0404 28.6042 23.0471C27.1037 23.1079 25.7181 23.1551 25.1301 24.7748C24.88 25.4564 24.7583 26.1111 24.0622 26.4688C23.4674 26.7792 22.7847 26.8872 22.1561 27.1031C21.5546 27.3123 20.9733 27.6025 20.5407 28.0817C19.9865 28.6958 19.8851 29.5259 19.4592 30.2076C18.7901 31.2671 17.3166 31.5371 16.3231 32.212C15.8364 32.5426 15.4038 33.0016 15.2146 33.5685C14.9915 34.2298 15.2822 35.2624 14.4778 35.5324C13.8019 35.7618 13.1666 35.8495 12.6259 36.3557C12.1527 36.7944 11.8621 37.3748 11.5985 37.9552C11.3416 38.5153 11.1051 39.1767 10.6252 39.5884C10.0236 40.108 9.11116 40.0338 8.48933 40.5669C8.3609 40.6749 8.25952 40.7964 8.17165 40.9179C7.81342 41.4375 7.32001 41.8425 6.7117 41.9842C5.92765 42.1664 5.15036 42.3891 4.48122 42.7805C4.36631 43.064 4.23789 43.3407 4.12299 43.6241C4.10271 43.6781 4.08243 43.7389 4.0554 43.7929C3.78503 44.4947 3.52143 45.1966 3.26459 45.9052C3.23755 45.9795 3.21052 46.0469 3.18348 46.1212C2.94015 46.8163 2.71035 47.5182 2.49406 48.2268C2.4535 48.3618 2.41295 48.5035 2.36563 48.6385C2.14935 49.3471 1.94657 50.0557 1.76408 50.7711C1.75056 50.8318 1.73704 50.8858 1.72353 50.9466C1.54779 51.6214 1.39233 52.3031 1.24363 52.9847C1.2166 53.1129 1.18956 53.2344 1.16253 53.3626C1.01383 54.0645 0.878646 54.7664 0.763742 55.475C0.736706 55.6167 0.716429 55.7652 0.696152 55.9069C0.581248 56.6358 0.466345 57.3647 0.385236 58.0935C0.324405 58.5862 0.277091 59.0788 0.229778 59.5648C0.202742 59.8414 0.189224 60.1114 0.162188 60.3881C0.14867 60.5973 0.128392 60.8065 0.114874 61.0157C0.0878382 61.3937 0.0743201 61.7716 0.0608021 62.1495C0.0608021 62.2508 0.047284 62.352 0.047284 62.46C0.0337659 62.8986 0.0202478 63.3306 0.0202478 63.7625C0.0202478 63.803 0.0202478 63.8435 0.0202478 63.884C0.0202478 64.3564 0.0202478 64.8288 0.0270069 65.3012H0.0134888C0.0405249 66.7185 0.128392 68.1222 0.270332 69.5057C3.08209 62.4532 6.68466 55.7247 11.0172 49.4888C20.8989 35.2557 34.5522 23.857 50.2399 16.5008C54.6333 14.4424 59.1754 12.6877 63.8188 11.2908C64.9746 10.9466 66.1372 10.6159 67.3065 10.3054C66.1304 10.8858 64.9611 11.5 63.8121 12.1343C65.6438 11.6214 67.462 11.0545 69.3139 10.6091C69.0774 11.041 68.5096 11.4325 68.2528 11.7362C68.0568 11.9724 67.881 12.2423 67.8067 12.546C67.685 13.0319 67.9216 13.3761 68.0094 13.8283C68.219 14.9013 66.5495 15.4075 65.9479 16.0284C65.2044 16.8045 65.2856 17.8101 65.4207 18.7954C65.4816 19.2678 65.5559 19.7672 65.4207 20.2329C65.2653 20.7998 64.88 20.8943 64.4001 21.117C63.5214 21.5286 62.8591 22.2508 62.4265 23.1146C61.9263 24.1202 61.8182 25.281 61.7911 26.3878C61.7776 26.9277 61.8925 27.6093 61.7168 28.129C61.5208 28.7026 60.6421 28.8646 60.1419 29.0603C59.3038 29.3842 58.1074 29.6812 58.0737 30.7812C58.0601 31.3076 58.3373 31.7935 58.0128 32.2794C57.7627 32.6574 57.3166 32.9206 56.9449 33.1635C56.8705 33.2108 56.7962 33.2715 56.7218 33.3255C56.7016 33.339 56.6813 33.3525 56.6543 33.366C55.6742 33.9801 54.6265 34.5605 53.7006 35.2557C52.8354 35.8968 52.8962 36.6729 52.6529 37.6245C52.4434 38.4478 51.7877 38.9472 51.0713 39.3319C50.321 39.7301 49.5235 40.0338 48.7867 40.4725C48.0027 40.9314 47.2997 41.4915 46.6712 42.1529C45.4342 43.4487 44.6367 45.1494 44.6502 46.9513C44.657 47.9096 44.7516 48.8004 44.1635 49.6171C43.7377 50.2109 43.1632 50.6699 42.609 51.1355C41.4599 52.1006 40.3109 53.1399 40.196 54.7259C40.1216 55.7449 40.4934 56.737 40.4258 57.7493C40.3582 58.7684 39.662 59.423 39.0064 60.1249C38.344 60.8268 37.8168 61.6299 37.587 62.5815C37.3369 63.6005 37.5059 64.5251 37.6478 65.5442C37.7222 66.0976 37.783 66.6982 37.4789 67.1909C37.2153 67.616 36.8165 67.9197 36.5799 68.3652C36.0797 69.2965 36.1879 70.3695 36.3636 71.3684C36.4785 72.0027 36.6002 72.6304 36.6948 73.2648C36.83 74.2231 36.296 75.1544 35.4038 75.5391H35.3903C34.4846 75.9373 33.6194 76.376 32.8759 77.0306C32.1527 77.665 31.5579 78.4073 31.1051 79.2577C30.6049 80.1823 30.4157 81.1676 30.1656 82.1799C29.9155 83.2125 29.537 84.0358 28.6515 84.6567C27.9418 85.1494 27.151 85.534 26.563 86.1819C25.9006 86.9175 25.779 87.8691 25.7654 88.8274C25.7519 89.8667 25.806 90.9263 24.88 91.6079C24.1095 92.1816 23.1429 92.4313 22.3521 92.9914C21.5816 93.5381 20.9462 94.2804 20.5272 95.124C20.2839 95.61 20.1352 96.1364 20.0676 96.6763C20 97.2364 20.1014 97.7898 20.0811 98.35C20.0338 99.5782 18.932 99.7672 18.0872 100.368C17.3166 100.908 17.1274 101.643 17.053 102.46C17.9114 103.27 18.7901 104.059 19.7026 104.815C19.7093 104.815 19.7161 104.829 19.7229 104.836C20.2568 105.281 20.7975 105.713 21.345 106.145C21.5072 106.273 21.6762 106.388 21.7911 106.57C22.048 106.995 22.4603 107.252 22.9402 107.373C23.0145 107.393 23.0686 107.434 23.1226 107.474C23.6769 107.872 24.2379 108.264 24.7989 108.642C24.8665 108.689 24.9408 108.736 25.0084 108.784C25.5694 109.155 26.1304 109.526 26.7049 109.877C35.1808 100.746 42.7712 90.8116 49.368 80.2363C58.2224 66.0301 65.3058 50.7239 70.3278 34.7562C71.7337 30.3021 72.9706 25.8006 74.052 21.2587C75.0862 16.899 76.0459 12.492 76.6407 8.04459C76.9314 7.9906 76.9111 7.99735 77.2017 7.94336C79.2092 11.7767 81.2031 15.5762 82.7577 19.6187C84.346 23.7557 85.5627 28.0345 86.394 32.3874C88.05 41.0394 88.1379 49.968 86.6847 58.6537C83.5755 77.2398 72.6124 93.1264 61.71 108.028C58.8104 111.989 55.7621 115.924 52.0513 119.17C52.7881 119.285 53.5316 119.386 54.2751 119.474C55.1605 119.582 56.0459 119.663 56.9246 119.73C57.1544 119.75 57.391 119.764 57.6208 119.784C58.4251 119.838 59.2295 119.885 60.0338 119.912C60.1149 119.912 60.2028 119.919 60.2839 119.926C60.6286 119.939 60.9665 119.926 61.3045 119.933C61.4329 119.771 61.5748 119.629 61.7506 119.568C62.1088 119.447 62.5752 119.609 62.9266 119.676C63.3998 119.771 63.8797 119.865 64.3663 119.831C64.7854 119.804 65.2044 119.676 65.5492 119.42C65.833 119.204 66.1777 118.495 66.5157 118.448C66.8469 118.407 67.462 118.974 67.7594 119.116C68.219 119.339 68.7259 119.44 69.2396 119.386C70.4495 119.264 71.3687 118.387 72.173 117.557C72.6935 117.017 74.0993 115.627 74.8496 116.511C75.1335 116.842 75.9986 116.909 76.1406 116.383C76.688 114.331 79.101 113.015 81.0747 113.987C81.4532 114.176 82.1426 114.014 82.1629 113.521C82.2507 111.564 84.2244 109.904 86.1777 110.437C86.5225 110.532 87.0699 110.336 87.0767 109.924C87.1037 108.703 87.5025 107.555 88.2663 106.597C89.0639 105.591 90.0507 105.18 91.2132 104.741C92.3555 104.316 92.9773 103.499 93.2139 102.318C93.4167 101.286 93.4302 100.213 94.1669 99.3825C95.3971 97.9855 97.4383 97.6143 98.7833 96.3456C99.5268 95.6437 99.8648 94.8069 100.02 93.8148C100.108 93.2614 100.128 92.6877 100.304 92.1546C100.527 91.4662 100.98 91.23 101.622 90.9803C102.582 90.6091 103.305 90.0085 103.67 89.0299C103.995 88.1526 104.035 87.174 104.123 86.2494C104.211 85.3383 104.305 84.3125 104.887 83.5566C105.204 83.145 105.664 82.875 106.029 82.5106C106.482 82.0584 106.732 81.5185 106.732 80.8706C106.732 80.2363 106.502 79.6154 106.36 79.008C106.191 78.2521 106.157 77.4693 106.218 76.6931C106.333 75.1747 106.8 73.7034 107.225 72.2457C107.259 72.1377 107.286 72.0297 107.32 71.9218C107.509 71.2401 107.766 70.5788 108.097 69.9579C108.212 69.7419 108.327 69.5259 108.442 69.3032C110.024 66.1516 110.909 62.3857 109.179 59.0991L109.199 59.1531Z" fill="#044732"/>
<path d="M78.2156 9.42798C126.13 68.9792 95.681 117.888 45.0558 117.766C74.0386 80.6141 81.0342 43.9345 78.2156 9.42798Z" fill="#FF7F6C"/>
<path d="M82.2373 25.5374C83.5958 25.0988 84.9544 24.6533 86.3197 24.2079C86.9551 23.9987 87.6242 23.803 88.2934 23.5803C88.0298 23.1484 87.7526 22.7232 87.4755 22.2913C86.8672 22.487 86.2656 22.6894 85.6776 22.8852C84.319 23.3306 82.9605 23.776 81.6087 24.2214C80.6692 24.5319 79.7229 24.8423 78.7834 25.1527C78.7834 25.6589 78.7699 26.1651 78.7563 26.6712C79.9189 26.2933 81.0815 25.9154 82.244 25.5442L82.2373 25.5374Z" fill="#FF5653"/>
<path d="M88.5299 51.9589C91.3417 52.4178 94.1399 53.005 96.8976 53.7203C98.3035 54.0848 99.7026 54.4762 101.081 54.9149C100.98 54.3817 100.879 53.8418 100.764 53.3019C99.6958 52.9915 98.6279 52.6878 97.5465 52.4111C94.6266 51.6619 91.6729 51.0613 88.6989 50.5956C85.7993 50.1502 82.8794 49.8398 79.9527 49.6643C78.8374 49.5968 77.6817 49.5226 76.5259 49.4753C76.4447 49.914 76.3636 50.3527 76.2825 50.7981C77.4518 50.8318 78.6279 50.8791 79.7972 50.9533C82.7239 51.1423 85.637 51.4797 88.5299 51.9521V51.9589Z" fill="#FF5653"/>
<path d="M83.3525 29.3098C84.684 28.9791 86.0223 28.6484 87.3539 28.311C88.3069 28.068 89.5979 27.8926 90.5509 27.3932C90.3211 26.9882 90.0913 26.5833 89.8547 26.1716C88.8273 26.2459 87.7661 26.6103 86.8199 26.8533C85.441 27.2042 84.0554 27.5619 82.6766 27.9196L78.6955 28.9521C78.6752 29.465 78.6482 29.9779 78.6279 30.4908C78.8713 30.4301 79.1146 30.3626 79.3579 30.3019L83.3593 29.3098H83.3525Z" fill="#FF5653"/>
<path d="M85.0963 22.2979C85.752 22.1359 86.4076 21.9942 87.0767 21.8862C87.1173 21.8862 87.1578 21.8727 87.1984 21.8727C86.8875 21.3868 86.5766 20.8941 86.2521 20.4082C85.7925 20.5094 85.3464 20.6174 84.9409 20.7186C83.5891 21.0358 82.2508 21.4408 80.9463 21.8997C80.2163 22.1561 79.4998 22.4396 78.7901 22.7365C78.7901 23.3102 78.7901 23.8906 78.7834 24.4642C79.5877 24.12 80.392 23.7893 81.2166 23.4924C82.4941 23.0335 83.7851 22.6353 85.1031 22.3114L85.0963 22.2979Z" fill="#FF5653"/>
<path d="M60.1487 116.248C59.5066 115.62 58.8713 114.972 58.2697 114.304C56.7557 112.624 55.3768 110.815 54.1399 108.925C53.7074 108.271 53.3086 107.596 52.9165 106.914C50.4968 110.525 47.8878 114.149 45.0558 117.773C50.3278 117.786 55.3768 117.26 60.1487 116.248Z" fill="#FF5653"/>
<path d="M67.8878 111.267C63.927 108.109 60.1825 104.687 56.6813 101.022C56.4109 101.461 56.1338 101.9 55.8635 102.338C57.2761 103.83 58.7158 105.294 60.2163 106.705C62.8388 109.182 65.5897 111.665 68.4961 113.886C69.1179 113.663 69.733 113.427 70.3413 113.184C69.5167 112.556 68.6989 111.908 67.8878 111.267Z" fill="#FF5653"/>
<path d="M78.7834 22.0482C79.4999 21.7378 80.2163 21.4476 80.953 21.1776C81.9264 20.82 82.9132 20.5028 83.9068 20.2193C84.4475 20.0641 85.1775 19.9561 85.806 19.7334C85.5086 19.2947 85.2112 18.8561 84.9071 18.4106C84.3799 18.5186 83.8594 18.6873 83.3931 18.8223C82.2778 19.1395 81.1829 19.5107 80.1014 19.9224C79.6486 20.0978 79.2025 20.2801 78.7631 20.469C78.7699 20.9954 78.7834 21.5218 78.7902 22.0482H78.7834Z" fill="#FF5653"/>
<path d="M96.4988 44.6432C97.1612 44.7377 97.8236 44.8389 98.486 44.9334C97.2694 41.2756 95.7553 37.53 93.8966 33.7102C92.5583 33.7237 91.22 33.7844 89.902 33.8384C86.5495 33.9734 83.197 34.2569 79.8716 34.682C79.3714 34.7428 78.8712 34.8103 78.3643 34.871C78.1683 37.5098 77.8979 40.162 77.5532 42.8211C80.784 43.0033 84.0081 43.2192 87.2322 43.5364C90.3278 43.8401 93.4167 44.2113 96.4988 44.6432Z" fill="#FF5653"/>
<path d="M81.0612 44.8792C79.8243 44.6903 78.5806 44.5013 77.3437 44.3191C77.2694 44.8522 77.2018 45.3786 77.1207 45.9118C78.2427 46.094 79.3647 46.2695 80.4867 46.4382C83.2444 46.8634 86.0021 47.2953 88.7597 47.7205C92.4502 48.2941 96.1474 48.861 99.8378 49.4347C99.6823 48.8475 99.5066 48.2469 99.3309 47.653C95.9987 47.1468 92.6732 46.6339 89.341 46.1278C86.5833 45.7093 83.8189 45.2909 81.0612 44.8657V44.8792Z" fill="#FF5653"/>
<path d="M91.9973 92.033C90.5306 91.4796 89.0571 90.9262 87.5837 90.3728C84.6975 89.2862 81.8047 88.1997 78.9186 87.1131C76.0325 86.0266 73.1396 84.94 70.2467 83.8602C68.9828 83.3878 67.7121 82.9154 66.4481 82.4497C66.2724 82.8546 66.0899 83.2596 65.9074 83.6577C67.0564 84.1099 68.2055 84.5553 69.3545 85.0007C72.2744 86.1345 75.2011 87.2616 78.121 88.3886C81.0477 89.5157 83.9676 90.6427 86.8942 91.7698C88.3542 92.3367 89.8209 92.9036 91.2808 93.457C92.1933 93.8079 93.1125 94.1858 94.0318 94.53C94.3427 94.0644 94.6469 93.5919 94.9442 93.1128C93.9642 92.7281 92.9571 92.3907 91.9838 92.0262L91.9973 92.033Z" fill="#FF5653"/>
<path d="M95.9176 88.1795C94.4238 87.6801 92.9301 87.1874 91.4363 86.688C88.3407 85.6555 85.2451 84.6297 82.1427 83.6106C79.0403 82.5915 75.9379 81.5657 72.8355 80.5467C71.335 80.054 69.8277 79.5748 68.3272 79.0889C68.1988 79.0484 68.0636 79.0079 67.9352 78.9607C67.7459 79.4264 67.5499 79.892 67.3539 80.3577C68.8341 80.8638 70.3143 81.3768 71.7946 81.8762C74.9375 82.929 78.0805 83.9885 81.2234 85.0413C84.3123 86.0807 87.4079 87.1065 90.5036 88.139C92.0514 88.6519 93.5992 89.1716 95.1471 89.6845C95.6269 89.8465 96.1204 90.0287 96.6205 90.2042C96.8909 89.6845 97.1545 89.1581 97.4113 88.6317C96.8976 88.4765 96.3975 88.3347 95.9243 88.1795H95.9176Z" fill="#FF5653"/>
<path d="M91.6459 58.2959C88.5097 57.2161 85.3464 56.224 82.1426 55.3602C80.5272 54.9215 78.9118 54.5098 77.2829 54.1251C76.776 54.0037 76.242 53.8552 75.7013 53.7202C75.6067 54.1791 75.512 54.638 75.4106 55.097C75.8973 55.1914 76.3772 55.2859 76.8165 55.3939C78.4387 55.7988 80.0473 56.2308 81.656 56.6829C84.7922 57.5738 87.9014 58.5456 90.9835 59.6321C94.0318 60.7052 97.0531 61.8727 100.027 63.1348C100.744 63.4385 101.453 63.7556 102.156 64.0796C102.129 63.4924 102.095 62.8986 102.055 62.2979C101.71 62.1562 101.365 62.0077 101.021 61.866C97.9385 60.577 94.8091 59.3892 91.6526 58.3026L91.6459 58.2959Z" fill="#FF5653"/>
<path d="M95.6675 66.9747C90.6928 64.2955 85.4816 62.0616 80.1217 60.2799C78.2967 59.6726 76.4515 59.1394 74.5928 58.667C73.437 63.3506 72.0311 68.0613 70.3346 72.7922C75.3228 73.8922 80.3312 74.8978 85.3261 75.9304C88.6313 76.612 91.9365 77.3004 95.2349 77.982C96.8841 78.3262 98.5401 78.6704 100.189 79.0078C100.385 79.0483 100.581 79.0888 100.771 79.1225C101.419 76.4365 101.852 73.6425 102.062 70.7406C99.973 69.411 97.8439 68.149 95.6607 66.9815L95.6675 66.9747Z" fill="#FF5653"/>
<path d="M81.095 53.9766C83.9676 54.5368 86.8266 55.1712 89.6587 55.8798C92.4434 56.5817 95.2146 57.3578 97.952 58.2149C99.2362 58.613 100.507 59.0382 101.778 59.4769C101.724 58.991 101.656 58.5051 101.588 58.0124C100.581 57.675 99.5742 57.3443 98.5536 57.0271C95.7621 56.1565 92.9368 55.3736 90.098 54.665C87.2592 53.9564 84.4001 53.3287 81.5208 52.7956C80.0541 52.5256 78.5874 52.2624 77.1139 52.0465C76.7895 51.9992 76.438 51.9317 76.0798 51.8643C76.0054 52.2557 75.9243 52.6539 75.8432 53.0453C76.2285 53.1128 76.6205 53.1803 77.0058 53.241C78.3711 53.4772 79.7297 53.7134 81.0882 53.9834L81.095 53.9766Z" fill="#FF5653"/>
<path d="M62.8591 104.68C65.752 107.468 68.8138 110.066 72.0176 112.482C72.6056 112.225 73.1869 111.962 73.7614 111.692C72.7949 110.977 71.8351 110.255 70.8956 109.506C66.8875 106.334 63.1565 102.865 59.6215 99.1801C59.243 98.7886 58.8713 98.3837 58.5063 97.9788C58.2427 98.4377 57.9723 98.8899 57.6952 99.3488C59.3444 101.191 61.0882 102.966 62.8659 104.674L62.8591 104.68Z" fill="#FF5653"/>
<path d="M66.3738 101.677C69.8749 104.572 73.5046 107.306 77.2355 109.89C82.6225 106.847 87.3065 102.986 91.1186 98.4174C88.8543 97.4051 86.4143 96.6829 84.096 95.8461C81.0747 94.7595 78.0534 93.673 75.0321 92.5932C71.2268 91.2367 67.4214 89.8464 63.6026 88.5034C62.3927 90.9532 61.095 93.403 59.7094 95.8596C59.9527 96.0823 60.1892 96.2983 60.4258 96.5142C62.3521 98.2891 64.3461 100.003 66.3602 101.677H66.3738Z" fill="#FF5653"/>
<path d="M85.1504 47.329C84.0419 47.1603 82.8928 48.0309 82.2575 48.861C81.4937 49.8531 81.1017 51.3513 81.5681 52.5526C81.6086 52.6606 81.7303 52.7213 81.8655 52.7483C81.9871 52.9373 82.1696 53.0992 82.3589 53.1802C82.9334 53.4367 83.6161 53.2477 84.0824 52.863C84.9611 52.1477 85.6235 51.0543 86.0561 50.0218C86.2791 49.4886 86.4413 48.9082 86.2859 48.3413C86.1372 47.8149 85.6978 47.41 85.1571 47.329H85.1504Z" fill="#201F3F"/>
<path d="M76.8165 71.1859C76.4718 71.2129 76.0527 71.4154 75.8635 71.7123C75.5187 72.0633 75.2822 72.5694 75.1402 73.0081C74.951 73.575 74.9037 74.1959 74.9983 74.783C75.174 75.8763 75.8297 77.1451 76.9584 77.5028C77.4991 77.6783 78.0804 77.5703 78.4792 77.1586C78.8577 76.7672 78.9997 76.2003 79.074 75.6806C79.2497 74.4523 78.9726 73.1431 78.3237 72.0768C77.9993 71.5504 77.4654 71.1252 76.8165 71.1792V71.1859Z" fill="#201F3F"/>
<path d="M77.1883 89.239C76.6205 88.7868 75.8432 88.8475 75.1944 89.0567C73.8493 89.4954 72.3623 90.123 71.4498 91.2366C70.9902 91.7967 70.6185 92.5729 70.6996 93.3152C70.7604 93.8821 71.1051 94.3275 71.5985 94.449C71.977 94.746 72.6259 94.7932 73.0517 94.7392C73.7479 94.6515 74.4171 94.3275 75.0119 93.9699C76.1068 93.3017 77.1207 92.2152 77.5262 90.9801C77.729 90.3795 77.729 89.6641 77.1883 89.2322V89.239Z" fill="#201F3F"/>
<path d="M82.9199 36.7133C83.4133 36.6323 83.7783 36.2814 84.069 35.9034C84.3664 35.512 84.6097 35.0801 84.7989 34.6279C84.9814 34.1892 85.1234 33.7033 85.1639 33.2309C85.2112 32.772 85.0355 32.3266 84.5962 32.1376C83.8256 31.8002 82.9808 32.3063 82.7239 33.0352C82.2373 33.6021 81.8926 34.2905 81.7168 35.0193C81.6289 35.3838 81.5749 35.8022 81.7371 36.1531C81.9399 36.612 82.44 36.8078 82.9267 36.7268L82.9199 36.7133Z" fill="#201F3F"/>
<path d="M88.246 41.3833C88.9828 41.4441 89.8006 41.0662 90.1859 40.4183C90.5441 39.8109 90.463 39.0483 89.9358 38.5624C89.6181 38.2722 89.1788 38.1912 88.7665 38.2384C88.4623 38.2789 88.0703 38.4611 87.9148 38.7581C87.4214 38.974 86.9888 39.3452 86.8807 39.8716C86.8063 40.2293 86.901 40.5937 87.1511 40.8637C87.4349 41.1809 87.827 41.3496 88.246 41.3833Z" fill="#201F3F"/>
<path d="M83.6296 64.8894C83.2309 64.5789 82.7645 64.3562 82.2508 64.336C81.7844 64.3157 81.2505 64.498 80.9801 64.8961C80.7435 65.2403 80.7165 65.6655 80.8314 66.0569C80.9666 66.5023 81.291 66.833 81.683 67.0625C82.048 67.4809 82.6023 67.7374 83.1633 67.7306C83.6094 67.7306 84.0555 67.5754 84.3664 67.2515C84.6908 66.9073 84.7246 66.3809 84.5489 65.9624C84.3664 65.5238 84.0014 65.1796 83.6296 64.8961V64.8894Z" fill="#201F3F"/>
<path d="M90.6522 56.3725C90.2602 56.2307 89.8479 56.2307 89.4964 56.413C88.6245 56.4737 87.7661 56.6627 87.1173 57.297C86.4752 57.9247 86.2318 59.0247 86.9077 59.7334C87.7256 60.5837 88.9895 60.2395 89.902 59.7603C90.7401 59.3217 91.6458 58.5726 91.5309 57.5198C91.4768 57.0001 91.1524 56.5614 90.6522 56.3725Z" fill="#201F3F"/>
<path d="M67.685 100.354C67.2254 100.428 66.8334 100.759 66.8942 101.218C66.367 101.974 66.0426 102.865 65.9953 103.789C65.948 104.619 66.1237 105.726 67.124 105.881C68.219 106.05 68.8476 104.903 69.1585 104.039C69.4762 103.141 69.6925 101.859 69.1315 101.016C68.8206 100.55 68.2393 100.273 67.685 100.361V100.354Z" fill="#201F3F"/>
<path d="M61.0544 106.286C61.0341 106.206 60.953 106.145 60.8787 106.125C60.7435 106.084 60.6083 106.118 60.5137 106.212C60.4596 106.266 60.4123 106.334 60.365 106.394C60.169 106.489 59.9933 106.637 59.9257 106.847C59.9054 106.907 59.9054 106.975 59.9121 107.036C59.7094 107.4 59.5472 107.785 59.4323 108.176C59.2565 108.763 59.1551 109.512 59.6553 109.971C60.2095 110.484 61.1017 110.275 61.5681 109.755C61.7979 109.499 61.9128 109.161 61.9737 108.831C62.0412 108.473 62.0818 108.095 62.075 107.731C62.075 107.373 61.9939 106.995 61.7574 106.712C61.5749 106.496 61.3248 106.34 61.0477 106.286H61.0544Z" fill="#201F3F"/>
<path d="M62.6563 97.0002C62.048 97.0002 61.4397 97.1554 61.0274 97.6345C60.5407 98.2014 60.5002 99.1193 61.122 99.5984C61.4735 99.8751 61.9466 99.9426 62.3792 99.9494C62.8253 99.9494 63.2916 99.9359 63.7242 99.8009C64.1636 99.6659 64.5623 99.4162 64.7854 99.0045C64.9746 98.6671 64.9679 98.2554 64.7854 97.9112C64.4001 97.1486 63.4674 96.8517 62.6428 97.0002H62.6563Z" fill="#201F3F"/>
<path d="M78.2156 9.42798C78.3779 11.4391 78.5063 13.4503 78.6009 15.4749C118.567 70.5584 91.4498 115.154 45.1437 117.651C45.1166 117.692 45.0828 117.726 45.0558 117.766C95.681 117.888 126.13 68.9792 78.2156 9.42798Z" fill="#CDD7A3"/>
</g>
<g clip-path="url(#clip1_93_1162)">
<path d="M62.7921 83.061L63.0093 79.8806C63.0241 79.6961 63.1672 79.5504 63.3547 79.5262C65.5258 79.264 67.9041 78.4531 70.391 77.3655C70.7611 77.2052 70.6723 76.6614 70.2726 76.6177C67.8301 76.3701 65.5208 76.2681 63.4435 76.4138C63.1968 76.4332 62.9994 76.2244 63.029 75.9817C63.2165 74.4473 63.1376 72.8984 62.9451 71.3398C62.9007 70.9902 62.4418 70.8737 62.2296 71.1602C61.1095 72.6799 60.1424 74.0977 59.6342 75.2096C59.5157 75.4718 59.1654 75.5301 58.9828 75.3067C57.9269 74.0492 56.4515 72.8159 54.7344 71.5923C54.4186 71.3689 53.9942 71.6845 54.1274 72.0439C55.0107 74.4133 55.9482 76.506 57.019 77.8996C57.1078 78.0113 57.1226 78.1569 57.0683 78.288L55.9433 80.7983C55.7607 81.2013 55.3215 81.4247 54.8824 81.347C40.4938 78.7493 25.4539 84.3477 20.7663 97.0448C16.0441 109.834 20.7268 125.173 35.446 131.465C51.2507 138.224 70.3565 130.805 76.0211 116.894C81.1973 104.187 75.9373 89.9897 63.3399 83.9787C62.9846 83.8087 62.7625 83.4494 62.7872 83.061H62.7921Z" fill="#C70134"/>
<path d="M41.6635 91.7524C44.8116 92.1699 48.4482 91.6407 51.0683 89.7713C52.4993 88.7468 53.2691 87.3581 53.2049 85.6102C53.1506 84.1681 52.3908 82.6774 50.8463 82.3424C50.7229 82.3133 50.5947 82.3327 50.4812 82.3764C50.2048 82.2841 49.9285 82.2113 49.6769 82.153C48.1324 81.784 46.5238 81.7258 44.9547 81.9248C42.1964 82.2744 38.8114 83.5806 37.5384 86.2122C36.966 87.3921 36.9907 88.8876 37.7555 89.9801C38.6141 91.2037 40.2671 91.5678 41.6684 91.7524H41.6635Z" fill="#AB064A"/>
<path d="M56.3925 90.7764C57.6557 90.5433 58.9337 89.5382 59.3531 88.3243C59.7923 87.0376 59.284 85.6198 58.006 85.0323C57.3054 84.7119 56.4468 84.7167 55.7708 85.0906C55.4402 85.2751 55.1145 85.5276 54.9517 85.8723C54.8875 86.0034 54.8678 86.1297 54.8678 86.251C54.779 86.3773 54.7 86.5084 54.6211 86.6443C54.2855 87.2173 54.0043 87.8339 53.8661 88.4797C53.723 89.1643 53.8118 89.849 54.3793 90.3297C54.927 90.7909 55.7066 90.8978 56.3974 90.7715L56.3925 90.7764Z" fill="#AB064A"/>
<path d="M42.6602 92.8352C42.3691 92.6895 42.0385 92.5778 41.698 92.505C41.6141 92.4419 41.5007 92.3982 41.3724 92.3933C38.8657 92.3496 36.29 93.4809 34.5679 95.2581C33.0382 96.8409 32.2833 99.4969 33.9906 101.255C35.8311 103.148 38.8855 102.158 40.9036 101.114C42.9711 100.046 44.935 98.0791 44.6241 95.5834C44.4711 94.3646 43.7655 93.3838 42.6602 92.8255V92.8352Z" fill="#AB064A"/>
<path d="M61.7857 119.705C60.0587 119.365 58.3712 119.705 56.7428 120.239C54.6803 120.463 52.6769 121.167 50.8956 122.293C48.4679 123.828 44.8905 127.518 47.8807 130.213C49.287 131.48 51.3003 131.592 53.1062 131.431C55.0109 131.261 56.8761 130.829 58.6574 130.135C60.3943 129.455 62.0522 128.528 63.5226 127.387C64.8401 126.362 66.0342 124.988 65.7085 123.226C65.3582 121.317 63.6411 120.074 61.7907 119.71L61.7857 119.705Z" fill="#AB064A"/>
<path d="M69.6313 111.543C69.2218 109.46 66.2266 108.698 64.8401 110.179C63.6805 110.553 62.6098 111.194 61.7216 112.014C60.4485 113.194 58.5537 115.675 60.2709 117.234C61.9831 118.793 64.7611 117.642 66.4092 116.559C67.2431 116.015 67.9931 115.321 68.605 114.544C69.2711 113.699 69.8484 112.646 69.6264 111.543H69.6313Z" fill="#AB064A"/>
<path d="M50.8808 110.13C50.866 110.155 50.8611 110.179 50.8512 110.203C50.5404 110.499 50.2542 110.82 50.0272 111.174C49.6621 111.733 49.3611 112.383 49.514 113.058C49.667 113.743 50.343 114.136 50.9993 114.253C51.6851 114.379 52.4352 114.301 53.1112 114.156C53.8118 114.005 54.5125 113.733 55.08 113.291C56.0767 112.519 56.6886 111.199 56.1507 109.98C55.5339 108.591 53.8365 108.237 52.4944 108.781C51.8628 109.038 51.1966 109.514 50.8808 110.126V110.13Z" fill="#AB064A"/>
<path d="M28.0842 109.387C27.2058 108.586 25.9427 108.125 24.7979 108.455C24.6104 108.353 24.3341 108.329 24.1515 108.45C22.0495 109.81 21.8027 112.859 22.306 115.064C22.834 117.384 24.4426 119.686 26.6927 120.677C27.9263 121.22 29.3819 121.196 30.423 120.274C31.3507 119.448 31.7454 118.2 31.7751 116.996C31.8096 115.505 31.2619 114.068 30.5415 112.777C29.8803 111.592 29.0957 110.315 28.0842 109.387Z" fill="#AB064A"/>
<path d="M23.5495 105.362C24.5709 104.867 24.7584 103.517 24.788 102.522C24.8028 101.9 24.7485 101.172 24.3933 100.638C24.2304 100.39 23.9788 100.201 23.7024 100.084C23.4459 99.7737 22.9228 99.6766 22.5527 99.7105C21.9952 99.764 21.5067 100.075 21.2155 100.546C20.9195 101.031 20.7912 101.594 20.7172 102.148C20.6432 102.721 20.658 103.318 20.7912 103.881C20.9195 104.416 21.2254 104.92 21.704 105.217C22.2517 105.552 22.9524 105.649 23.5445 105.362H23.5495Z" fill="#AB064A"/>
<path d="M69.3402 102.949C68.6445 98.9774 67.1297 95.1853 64.7118 91.9176C64.0605 91.0339 63.345 90.189 62.5555 89.4267C61.7413 88.6401 60.8926 87.8195 59.8416 87.3485C59.4173 87.1592 58.4501 87.4893 58.8844 88.0574C59.4321 88.7712 60.1772 89.3393 60.7989 89.9899C61.4404 90.6648 62.0522 91.3689 62.6098 92.1118C63.7398 93.6024 64.6625 95.229 65.3977 96.9381C67.0556 100.798 67.6724 104.93 67.628 109.101C67.6132 110.325 67.5392 111.543 67.4109 112.762C67.3418 113.403 67.2974 114.049 67.2333 114.695C67.2037 114.991 67.1445 115.302 67.1395 115.598C67.1395 115.933 67.2135 116.273 67.2234 116.608C67.2431 117.186 68.2103 117.171 68.4175 116.729C68.6741 116.176 68.9159 115.705 69.059 115.103C69.1873 114.554 69.3156 114 69.4093 113.442C69.6116 112.277 69.7005 111.082 69.7597 109.902C69.8781 107.581 69.735 105.246 69.3353 102.954L69.3402 102.949Z" fill="#D33961"/>
<path d="M73.4407 109.086C73.2877 108.242 73.1199 107.309 72.5821 106.61C72.3008 106.246 71.5311 106.343 71.4719 106.833C71.3781 107.615 71.6347 108.465 71.7038 109.252C71.7679 110.019 71.8025 110.786 71.7679 111.558C71.7334 112.315 71.6446 113.078 71.4916 113.821C71.4126 114.199 71.3386 114.578 71.2547 114.952C71.1462 115.433 70.9834 115.797 71.2794 116.239C71.4817 116.544 72.0837 116.627 72.3847 116.452C72.6216 116.316 72.814 116.219 72.9423 115.967C73.041 115.768 73.1002 115.549 73.1643 115.34C73.2976 114.903 73.3963 114.466 73.4703 114.02C73.5986 113.209 73.6627 112.383 73.6578 111.558C73.6578 110.732 73.5887 109.902 73.4407 109.091V109.086Z" fill="#D33961"/>
<path d="M37.42 125.474C37.1486 125.042 36.7341 124.741 36.3788 124.376C35.9989 123.978 35.614 123.58 35.234 123.182C34.4889 122.395 33.7932 121.56 33.1517 120.691C31.8885 118.967 30.8178 117.122 30.0086 115.151C28.1779 110.684 27.6055 105.819 28.3556 101.06C28.7207 98.7491 29.3029 96.0883 30.9806 94.3258C31.3852 93.8985 30.4625 93.6363 30.1566 93.8548C28.2421 95.2095 27.3391 97.3847 26.7864 99.5649C26.145 102.085 25.8736 104.683 26.0265 107.275C26.3078 112.116 27.9559 116.802 30.8277 120.745C31.5876 121.788 32.4313 122.774 33.3442 123.692C34.2373 124.595 35.2883 125.673 36.4824 126.168C36.9364 126.353 37.79 126.056 37.4249 125.474H37.42Z" fill="#D33961"/>
<path d="M34.5876 84.8431C34.2422 84.8188 33.9116 84.7751 33.581 84.9014C33.2751 85.0179 32.9691 85.1879 32.6829 85.3432C32.1254 85.6443 31.5924 85.989 31.0793 86.358C30.0529 87.0864 29.1105 87.9361 28.2618 88.8586C27.4377 89.7569 26.7173 90.7328 26.1054 91.7816C25.5133 92.7964 24.8423 94.0394 24.8275 95.2387C24.8275 95.6757 25.5627 95.7097 25.7748 95.4281C26.4706 94.5007 26.9295 93.3839 27.5512 92.408C28.1927 91.4029 28.9378 90.4561 29.7569 89.5869C30.5513 88.7469 31.4444 87.9992 32.3967 87.334C32.8803 86.999 33.3787 86.6979 33.882 86.3969C34.1336 86.2464 34.4396 86.125 34.6665 85.9502C34.8738 85.7899 34.9478 85.5375 35.0662 85.319C35.2192 85.0325 34.78 84.8674 34.5876 84.8528V84.8431Z" fill="#D33961"/>
</g>
<g clip-path="url(#clip2_93_1162)">
<path d="M113.631 96.442C106.517 92.7175 96.63 94.2225 91.0296 99.3165C90.7623 99.5593 90.3683 99.6017 90.0531 99.421C88.812 98.7122 87.3064 97.9837 85.6628 97.2467C85.4912 97.1705 85.3927 96.9841 85.4321 96.8006C85.6825 95.7078 85.5981 94.4936 85.4377 93.2483C85.4067 93.0055 85.0972 92.9123 84.9424 93.1015C83.9827 94.2649 83.3523 95.592 83.3298 97.2269C83.3298 97.4048 83.1582 97.5347 82.9893 97.4924C81.6441 97.162 80.3692 97.275 79.1478 97.7663C78.993 97.8284 78.9311 98.0176 79.0099 98.1644C79.4067 98.9071 80.0991 99.452 81.039 99.8304C81.2867 99.9292 81.267 100.294 81.0081 100.361C79.8204 100.678 78.8495 101.307 78.07 102.208C77.9152 102.389 78.0446 102.668 78.281 102.677C79.6431 102.711 81.0306 102.538 82.449 102.075C82.5981 102.027 82.7613 102.067 82.8655 102.183C83.9208 103.343 85.1422 104.492 86.479 105.633C86.7323 105.851 86.8336 106.195 86.7463 106.517C84.7144 113.932 87.8326 121.666 95.6394 125.512C105.948 130.586 116.907 127.571 121.111 119.447C125.437 111.091 122.079 100.867 113.631 96.442Z" fill="#FC3647"/>
<path d="M90.9118 105.805C90.4109 105.8 89.9127 105.992 89.5891 106.333C89.5582 106.353 89.5244 106.37 89.4962 106.39C88.8518 106.853 88.6885 107.689 88.576 108.423C88.3339 110.007 88.4437 111.908 89.8565 112.935C90.4615 113.376 91.2636 113.557 91.9953 113.396C92.7664 113.226 93.3293 112.684 93.6332 111.964C94.2692 110.45 93.9765 108.559 93.121 107.195C92.6369 106.427 91.8518 105.808 90.9118 105.8V105.805Z" fill="#C70134"/>
<path d="M92.8396 116.457C92.4765 115.928 91.9334 115.347 91.2439 115.35C90.878 115.35 90.4981 115.513 90.3208 115.847C90.2279 116.022 90.2223 116.228 90.2758 116.417C90.3096 116.536 90.3658 116.64 90.4587 116.725C90.4812 116.745 90.5094 116.761 90.5347 116.781C90.5347 116.781 90.5347 116.784 90.5347 116.787C90.6726 117.047 90.8415 117.27 91.0553 117.47C91.2551 117.659 91.4915 117.815 91.742 117.928C92.0094 118.046 92.3386 118.137 92.6313 118.114C93.0253 118.083 93.3461 117.798 93.2814 117.38C93.2308 117.049 93.0197 116.73 92.8339 116.459L92.8396 116.457Z" fill="#C70134"/>
<path d="M97.8293 113.653C97.0835 113.489 96.197 113.486 95.6116 114.051C95.5919 114.07 95.5751 114.09 95.5582 114.11C95.454 114.172 95.3612 114.245 95.288 114.342C94.8687 114.886 95.136 115.601 95.5131 116.081C95.9522 116.643 96.5122 117.134 97.1004 117.535C97.6858 117.936 98.3387 118.261 99.0591 118.292C99.6726 118.32 100.311 118.083 100.72 117.611C101.15 117.114 101.128 116.44 100.838 115.878C100.255 114.737 99.0647 113.926 97.8349 113.655L97.8293 113.653Z" fill="#C70134"/>
<path d="M119.223 103.803C118.801 103.199 118.176 102.702 117.405 102.722C116.871 102.733 116.361 103.03 116.198 103.493C115.748 104.19 115.874 105.594 115.964 106.209C116.074 106.943 116.285 107.658 116.606 108.327C116.882 108.897 117.205 109.541 117.76 109.886C118.317 110.23 119.001 110.157 119.485 109.719C119.994 109.256 120.155 108.519 120.236 107.861C120.414 106.449 120.031 104.97 119.218 103.806L119.223 103.803Z" fill="#C70134"/>
<path d="M115.297 109.736C114.943 109.468 114.481 109.445 114.099 109.629C113.271 109.643 112.976 111.207 112.897 111.823C112.784 112.698 112.846 114 113.98 114.093C115.008 114.178 115.734 113.144 115.931 112.241C116.111 111.416 116.026 110.284 115.297 109.736Z" fill="#C70134"/>
<path d="M113.986 100.661C113.688 100.124 112.953 99.8672 112.427 99.5961C111.847 99.2968 111.256 99.0201 110.654 98.7688C109.43 98.2577 108.158 97.8426 106.857 97.58C104.465 97.0943 101.983 97.1338 99.6529 97.8962C98.4034 98.3057 97.1707 98.9325 96.197 99.8277C95.7608 100.229 96.4981 100.584 96.8555 100.322C98.6201 99.0286 100.629 98.2718 102.819 98.1334C105.138 97.9894 107.429 98.5033 109.568 99.3759C110.209 99.6385 110.837 99.9321 111.456 100.243C111.757 100.392 112.055 100.551 112.351 100.709C112.674 100.884 112.981 101.098 113.356 101.135C113.569 101.158 114.191 101.028 113.989 100.658L113.986 100.661Z" fill="#FD6875"/>
<path d="M115.185 104.267C115.002 103.987 114.791 103.724 114.571 103.476C114.132 102.973 113.648 102.507 113.13 102.087C112.61 101.663 112.047 101.299 111.459 100.974C111.177 100.819 110.89 100.672 110.595 100.551C110.268 100.415 109.891 100.248 109.531 100.251C109.342 100.251 108.965 100.474 109.19 100.7C109.41 100.92 109.728 101.036 110.004 101.175C110.277 101.313 110.55 101.451 110.814 101.607C111.349 101.92 111.856 102.29 112.334 102.688C112.807 103.081 113.24 103.513 113.634 103.981C113.842 104.227 114.028 104.487 114.234 104.735C114.447 104.992 114.664 105.317 115.002 105.396C115.199 105.441 115.401 105.362 115.497 105.184C115.632 104.936 115.326 104.484 115.185 104.272V104.267Z" fill="#FD6875"/>
<path d="M98.6229 96.9194C98.5413 96.6935 98.2655 96.6539 98.0629 96.6793C97.0751 96.8064 96.1689 97.1763 95.3274 97.7072C94.9391 97.9528 94.5816 98.2409 94.2496 98.5599C94.0666 98.735 93.8922 98.9157 93.7289 99.1106C93.577 99.2885 93.3546 99.5144 93.4475 99.7657C93.5122 99.9407 93.743 99.9944 93.9062 99.9605C94.1736 99.9097 94.3199 99.7092 94.4944 99.52C94.6351 99.3675 94.7815 99.2179 94.9362 99.0767C95.2627 98.783 95.6173 98.5204 95.9888 98.286C96.6895 97.8399 97.5 97.5349 98.3049 97.3429C98.4907 97.2977 98.6989 97.1396 98.6229 96.9222V96.9194Z" fill="#FD6875"/>
<path d="M113.854 119.077C113.502 119.207 113.243 119.43 112.931 119.633C112.604 119.848 112.283 120.068 111.957 120.28C111.346 120.672 110.71 121.022 110.052 121.33C108.763 121.929 107.403 122.369 106.005 122.626C103.095 123.16 100.055 122.878 97.2805 121.847C95.6679 121.248 94.227 120.365 92.758 119.486C92.4709 119.317 91.9672 119.608 92.2739 119.918C93.3799 121.031 94.849 121.827 96.2814 122.429C97.7786 123.058 99.3518 123.485 100.962 123.697C104.091 124.103 107.333 123.623 110.229 122.381C111.023 122.039 111.794 121.641 112.534 121.192C112.897 120.972 113.265 120.746 113.6 120.483C113.952 120.209 114.352 119.933 114.557 119.532C114.76 119.139 114.096 118.987 113.851 119.08L113.854 119.077Z" fill="#FD6875"/>
<path d="M117.501 117.575C117.152 117.877 116.862 118.219 116.561 118.569C116.401 118.752 116.22 118.888 116.052 119.06C115.908 119.207 115.787 119.385 115.652 119.54C115.078 120.206 114.459 120.833 113.8 121.418C112.472 122.593 110.983 123.505 109.469 124.417C109.303 124.515 109.292 124.727 109.413 124.86C109.553 125.015 109.801 125.041 109.993 124.973C111.726 124.36 113.327 123.296 114.72 122.104C115.418 121.508 116.074 120.862 116.682 120.173C116.831 120.003 116.989 119.834 117.124 119.653C117.256 119.478 117.338 119.261 117.459 119.074C117.709 118.69 117.957 118.306 118.084 117.863C118.168 117.561 117.706 117.397 117.501 117.575Z" fill="#FD6875"/>
<path d="M122.164 113.661C121.959 113.48 121.649 113.503 121.469 113.706C121.286 113.918 121.098 114.096 120.901 114.246C120.746 113.805 120.56 113.359 120.338 112.896C120.22 112.65 119.924 112.546 119.679 112.664C119.434 112.783 119.33 113.08 119.448 113.325C119.676 113.802 119.868 114.263 120.02 114.712C119.705 114.813 119.367 114.861 118.993 114.861C118.973 114.861 118.956 114.861 118.936 114.861C118.666 114.861 118.447 115.079 118.444 115.35C118.441 115.624 118.658 115.847 118.931 115.85C118.95 115.85 118.973 115.85 118.993 115.85C119.457 115.85 119.885 115.785 120.287 115.66C120.374 116.044 120.436 116.423 120.464 116.793C120.484 117.052 120.701 117.247 120.954 117.247C120.968 117.247 120.982 117.247 120.993 117.247C121.264 117.225 121.466 116.988 121.444 116.714C121.404 116.228 121.32 115.737 121.196 115.234C121.554 115.005 121.888 114.714 122.204 114.353C122.384 114.147 122.361 113.836 122.159 113.656L122.164 113.661Z" fill="#201F3F"/>
</g>
<g clip-path="url(#clip3_93_1162)">
<path d="M81.1075 117.747C81.1075 117.747 80.4063 112.629 81.5874 112.138C82.7672 111.649 82.8274 113.506 82.8274 113.506C82.8274 113.506 84.0401 111.456 85.089 112.028C86.1379 112.599 84.9534 114.387 84.9534 114.387C84.9534 114.387 86.3083 113.345 87.1985 114.195C88.0887 115.045 86.2672 117.147 85.238 117.779C84.2088 118.412 82.7112 118.966 82.7112 118.966L81.1037 117.745L81.1075 117.747Z" fill="#038652"/>
<path d="M87.3507 114.398C86.7494 115.127 86.135 115.846 85.4892 116.533C84.9787 117.077 84.4608 117.615 83.9368 118.145C83.7457 118.338 83.549 118.527 83.3518 118.713C83.668 118.58 84.0676 118.404 84.4657 118.206C84.9322 117.771 85.3762 117.318 85.7997 116.839C86.3788 116.185 86.9267 115.511 87.4358 114.81C87.4387 114.659 87.4117 114.52 87.3489 114.397L87.3507 114.398Z" fill="#02563F"/>
<path d="M86.4184 114.829C86.6075 114.577 86.8082 114.313 86.9977 114.04C86.8426 113.945 86.6788 113.893 86.5132 113.874C86.3488 114.091 86.1829 114.309 86.011 114.52C85.5063 115.137 84.9736 115.733 84.4077 116.296C84.1161 116.586 83.8171 116.871 83.5139 117.15C83.7723 116.86 84.0312 116.574 84.286 116.281C84.7006 115.809 85.1091 115.33 85.5064 114.842C85.7034 114.599 85.9 114.352 86.0877 114.101C86.1462 114.024 86.2113 113.946 86.2791 113.864C86.1043 113.873 85.937 113.911 85.7786 113.964C85.6118 114.164 85.4449 114.364 85.2795 114.563C84.8645 115.055 84.4382 115.538 84.0115 116.018C83.6634 116.41 83.3096 116.798 82.9577 117.187C83.2357 116.736 83.5105 116.285 83.7811 115.828C84.2169 115.092 84.6377 114.344 84.996 113.566C85.16 113.211 85.3264 112.848 85.4774 112.483C85.4191 112.299 85.2993 112.139 85.0919 112.028C85.0774 112.019 85.0616 112.013 85.0457 112.007C84.8519 112.398 84.6725 112.797 84.4764 113.183C84.0725 113.978 83.6429 114.757 83.1806 115.516C82.8752 116.019 82.5641 116.518 82.2531 117.016C82.2589 116.908 82.2665 116.801 82.2723 116.692C82.5896 116.135 82.9019 115.577 83.2067 115.013C83.5114 114.449 83.7985 113.877 84.0678 113.298C84.2768 112.852 84.4439 112.391 84.6146 111.934C84.5377 111.942 84.4604 111.958 84.3844 111.985C84.1864 112.381 83.9679 112.773 83.7638 113.162C83.4596 113.741 83.1422 114.31 82.8216 114.879C82.6583 115.172 82.4912 115.461 82.3228 115.753C82.3286 115.656 82.333 115.561 82.3388 115.464C82.3804 114.839 82.415 114.211 82.4566 113.586C82.4772 113.272 82.4977 112.958 82.5169 112.645C82.5223 112.569 82.5291 112.49 82.5358 112.411C82.4665 112.301 82.3814 112.207 82.2744 112.146C82.2677 112.248 82.2592 112.348 82.2506 112.449C82.2217 112.774 82.1913 113.101 82.1624 113.426C82.1059 114.063 82.0424 114.698 81.9859 115.335C81.9511 115.722 81.9195 116.109 81.895 116.498C81.8838 116.513 81.8764 116.53 81.8671 116.546C81.8244 116.618 81.7836 116.691 81.7409 116.763C81.7468 116.359 81.7559 115.955 81.7664 115.55C81.7886 114.826 81.8141 114.102 81.8531 113.379C81.8717 113.017 81.8986 112.656 81.9121 112.293C81.9142 112.216 81.9196 112.139 81.9245 112.059C81.8238 112.064 81.7143 112.088 81.5922 112.139C81.5624 112.152 81.5368 112.17 81.5094 112.186C81.5085 112.192 81.5075 112.197 81.5066 112.202C81.4591 112.536 81.4236 112.873 81.3915 113.211C81.3227 113.945 81.2674 114.682 81.2354 115.418C81.2043 116.138 81.1951 116.86 81.1962 117.584C81.1964 117.631 81.1951 117.679 81.1938 117.727C81.1836 117.748 81.1734 117.769 81.1614 117.789L82.5333 118.832C82.7249 118.653 82.9184 118.476 83.11 118.298C83.6984 117.753 84.2904 117.21 84.853 116.637C85.4128 116.067 85.9423 115.472 86.4189 114.833L86.4184 114.829ZM81.7334 117.77C81.7324 117.728 81.7346 117.687 81.7336 117.645C81.7763 117.574 81.8185 117.499 81.8593 117.426C81.8586 117.5 81.8565 117.577 81.8558 117.651C81.8353 117.682 81.8168 117.714 81.7963 117.745C81.775 117.781 81.7532 117.814 81.7318 117.849C81.7313 117.823 81.7321 117.795 81.7316 117.768L81.7334 117.77Z" fill="#02563F"/>
<path d="M81.8348 117.656C81.8332 117.747 81.9373 117.8 82.0113 117.749C82.909 117.115 86.8852 114.658 90.3369 118.085C94.2554 121.977 88.5426 127.733 83.0347 130.875C77.5268 134.017 73.9306 135.765 71.7713 134.657C69.6121 133.548 68.4415 128.993 70.0363 124.019C71.6348 119.049 73.7905 113.57 78.0065 113.823C81.592 114.037 81.8418 116.828 81.8348 117.656Z" fill="#D8772A"/>
<path d="M86.8199 125.415C88.6889 123.755 89.3659 121.478 88.3319 120.331C87.2979 119.184 84.9445 119.6 83.0754 121.261C81.2063 122.921 80.5294 125.197 81.5634 126.345C82.5974 127.492 84.9508 127.076 86.8199 125.415Z" fill="#9D571B"/>
<path d="M71.0282 124.053C71.3822 122.256 72.4996 120.976 73.52 121.193C74.5422 121.412 75.0831 123.044 74.7276 124.842C74.3736 126.639 73.2563 127.919 72.2359 127.702C71.2136 127.483 70.6728 125.851 71.0282 124.053Z" fill="#9D571B"/>
<path d="M80.9019 127.9C81.8154 127.397 82.8757 127.546 83.267 128.234C83.6583 128.922 83.2362 129.888 82.3213 130.394C81.4079 130.897 80.3476 130.748 79.9563 130.06C79.565 129.372 79.9871 128.405 80.9019 127.9Z" fill="#9D571B"/>
<path d="M74.3474 119.111C74.5575 118.047 75.4387 117.334 76.3168 117.521C77.1948 117.708 77.7353 118.724 77.5252 119.788C77.3151 120.852 76.4339 121.565 75.5559 121.378C74.6778 121.191 74.1373 120.175 74.3474 119.111Z" fill="#9D571B"/>
<path d="M72.7351 128.993C72.8085 128.38 73.2824 127.939 73.7927 128.008C74.3044 128.076 74.6613 128.631 74.5879 129.244C74.5146 129.856 74.0407 130.297 73.5303 130.228C73.0186 130.16 72.6618 129.605 72.7351 128.993Z" fill="#9D571B"/>
<path d="M69.3223 127.811C69.2397 129.258 69.3898 130.581 69.7151 131.682C69.7781 131.704 69.842 131.721 69.9087 131.734C70.9874 131.963 72.0494 131.214 72.2761 130.058C72.5046 128.904 71.8136 127.78 70.7349 127.55C70.2324 127.443 69.7347 127.551 69.3223 127.811Z" fill="#9D571B"/>
<path d="M80.3177 116.905C80.3494 116.735 80.3536 116.594 80.3089 116.424C80.2655 116.263 80.2059 116.105 80.1294 115.957C79.985 115.674 79.7935 115.398 79.5621 115.179C79.2998 114.931 79.0152 114.711 78.6921 114.547C78.5249 114.46 78.3349 114.377 78.1488 114.354C78.0844 114.345 78.0262 114.356 77.9661 114.365C77.9661 114.365 77.9427 114.365 77.918 114.366C77.8299 114.366 77.7488 114.38 77.6668 114.41C77.4171 114.498 77.4847 114.801 77.6734 114.933C77.7547 114.989 77.8369 115.04 77.9205 115.089C78.0229 115.175 78.135 115.237 78.2634 115.297C78.3684 115.345 78.4712 115.4 78.5744 115.458C78.5931 115.473 78.615 115.486 78.6351 115.499C78.6832 115.532 78.7313 115.566 78.7785 115.605C78.8215 115.638 78.8818 115.675 78.915 115.72C78.8303 115.607 78.9225 115.726 78.9501 115.755C79.0296 115.833 79.1077 115.913 79.1816 115.998C79.212 116.036 79.2424 116.073 79.2728 116.111C79.2635 116.104 79.3356 116.199 79.3445 116.214C79.4091 116.316 79.4756 116.418 79.5309 116.524C79.5904 116.636 79.6724 116.753 79.7276 116.835C79.804 116.948 79.9124 117.042 80.0523 117.056C80.1521 117.068 80.2966 117.033 80.3191 116.915L80.3177 116.905Z" fill="#E39D68"/>
<path d="M88.9043 123.679C89.0889 123.316 89.2273 122.944 89.3292 122.55C89.3804 122.355 89.4162 122.156 89.4385 121.956C89.4608 121.744 89.4062 121.553 89.3986 121.341C89.388 121.064 88.9224 120.8 88.7792 121.117C88.7129 121.266 88.5957 121.373 88.5243 121.522C88.4557 121.666 88.396 121.815 88.3274 121.959C88.1897 122.257 88.0198 122.539 87.857 122.823C87.5312 123.391 87.1345 123.917 86.7069 124.414C85.8461 125.414 84.8363 126.305 83.8151 127.14C81.7658 128.82 79.4826 130.241 77.0746 131.365C76.3947 131.681 75.7045 131.972 75.0002 132.236C74.6569 132.365 74.307 132.473 73.9632 132.599C73.585 132.74 73.2553 132.906 72.9099 133.112C72.5263 133.341 73.0286 133.879 73.3391 133.866C73.6977 133.853 74.045 133.842 74.3926 133.753C74.7514 133.661 75.0999 133.544 75.4497 133.425C76.115 133.202 76.7736 132.956 77.4205 132.687C78.7302 132.143 80.0145 131.528 81.2291 130.799C83.5803 129.389 85.8771 127.663 87.6417 125.558C88.1302 124.977 88.5579 124.356 88.9043 123.679Z" fill="#E39D68"/>
<path d="M79.5553 128.714C79.679 128.446 79.2875 128.166 79.0609 128.162C78.5806 128.149 78.1044 128.45 77.6703 128.618C77.2129 128.797 76.7456 128.954 76.2718 129.088C75.8105 129.218 75.3427 129.325 74.8673 129.404C74.384 129.485 73.893 129.514 73.4116 129.596C73.131 129.644 73.0755 129.969 73.1708 130.189C73.2886 130.461 73.5731 130.668 73.8734 130.676C74.8858 130.702 75.9534 130.435 76.9065 130.135C77.3897 129.984 77.8578 129.799 78.3174 129.59C78.7473 129.393 79.3453 129.165 79.5534 128.712L79.5553 128.714Z" fill="#E39D68"/>
<path d="M74.3777 119.944C74.436 119.786 74.5186 119.646 74.583 119.496C74.7192 119.177 74.8139 118.847 74.9659 118.534C75.1083 118.234 75.2739 117.935 75.4522 117.654C75.5413 117.513 75.6486 117.383 75.734 117.24C75.8301 117.079 75.9532 116.921 75.9872 116.732C76.0244 116.52 75.7916 116.303 75.5781 116.355C75.2105 116.443 74.9252 116.799 74.6928 117.074C74.4535 117.358 74.2454 117.651 74.0654 117.977C73.8896 118.297 73.6807 118.654 73.5885 119.012C73.5405 119.195 73.521 119.403 73.4922 119.592C73.4578 119.812 73.4462 119.994 73.4902 120.216C73.537 120.457 73.9648 120.689 74.1418 120.456C74.2617 120.299 74.3134 120.13 74.381 119.944L74.3777 119.944Z" fill="#E39D68"/>
<path d="M91.0403 120.989C91.0758 120.834 91.0879 120.667 91.0912 120.507C91.0964 120.213 91.0279 119.903 90.9246 119.628C90.6563 118.918 90.0956 118.174 89.3261 117.968C89.1759 117.929 88.9937 117.967 88.9218 118.112C88.8476 118.264 88.9115 118.44 89.021 118.563C89.2006 118.769 89.3979 118.96 89.5729 119.168C89.594 119.198 89.6132 119.227 89.6329 119.26C89.6614 119.308 89.6881 119.354 89.7153 119.403C89.7444 119.455 89.7702 119.506 89.7946 119.559C89.7997 119.572 89.8204 119.622 89.8227 119.627C89.8613 119.731 89.8919 119.839 89.9178 119.948C89.9249 119.974 89.9287 120 89.9339 120.024C89.9424 120.082 89.9505 120.138 89.9591 120.196C89.9657 120.23 89.9676 120.232 89.9662 120.222C89.986 120.324 89.985 120.442 89.9843 120.539C89.9866 120.703 90.0131 120.851 90.0895 120.987C90.098 121.011 90.106 121.031 90.1144 121.055C90.1582 121.184 90.2536 121.291 90.3769 121.35C90.4735 121.397 90.6307 121.427 90.7233 121.356C90.747 121.336 90.7759 121.318 90.7959 121.295C90.7801 121.3 90.7656 121.304 90.7498 121.309C90.7842 121.295 90.8154 121.281 90.8499 121.267C90.9579 121.21 91.0117 121.1 91.038 120.984L91.0403 120.989Z" fill="#E39D68"/>
</g>
<defs>
<clipPath id="clip0_93_1162">
<rect width="120" height="120" fill="white"/>
</clipPath>
<clipPath id="clip1_93_1162">
<rect width="59" height="63" fill="white" transform="translate(19 71)"/>
</clipPath>
<clipPath id="clip2_93_1162">
<rect width="45" height="35" fill="white" transform="translate(78 93)"/>
</clipPath>
<clipPath id="clip3_93_1162">
<rect width="18.4411" height="26.125" fill="white" transform="translate(79.8078 108) rotate(37.2348)"/>
</clipPath>
</defs>
</svg>
