<svg width="497" height="554" viewBox="0 0 497 554" fill="none" xmlns="http://www.w3.org/2000/svg">
<g clip-path="url(#clip0_173_116)">
<path d="M33.6465 378.936C41.1138 371.252 50.6018 366.98 60.0457 367.169C69.6435 367.357 78.9337 372.194 84.4024 379.69C96.7236 377.052 107.99 379.921 116.358 387.899C121.146 392.463 125.143 399.75 122.025 406.597C120.07 410.89 115.699 413.989 109.045 415.79C99.0516 418.491 87.9384 417.905 78.2968 414.219C72.7622 417.067 66.6565 418.491 60.6387 418.491C53.7205 418.491 46.9559 416.606 41.4652 412.879C30.7694 414.617 20.8203 414.031 11.8594 411.141C5.9295 409.236 2.17387 406.283 0.680397 402.409C-0.922882 398.222 0.285072 393.217 4.01874 388.673C10.8052 380.402 22.9506 376.487 33.6465 378.936ZM6.98371 400.211C7.73045 402.179 10.1024 403.812 14.0118 405.069C22.2698 407.728 31.56 408.168 41.6849 406.325C42.6512 406.158 43.6396 406.388 44.4083 406.974C52.798 413.34 66.2173 413.738 76.3201 407.896C76.8473 407.581 77.4622 407.435 78.0552 407.435C78.5164 407.435 78.9776 407.519 79.4169 407.707C88.0043 411.371 98.1292 412.062 107.178 409.613C110.362 408.754 114.426 407.079 115.831 404.022C117.61 400.148 114.667 395.353 111.592 392.442C104.476 385.658 94.5932 383.543 83.7655 386.454C82.2721 386.852 80.6907 386.244 79.922 384.946C75.9029 378.183 68.0402 373.723 59.892 373.576C59.7383 373.576 59.6065 373.576 59.4527 373.576C51.5901 373.576 43.5297 377.575 37.2923 384.632C36.3918 385.637 34.9643 386.014 33.6465 385.595C25.081 382.873 14.8244 385.826 9.26784 392.61C7.02763 395.332 6.17109 398.18 6.93978 400.19L6.98371 400.211Z" fill="#FFDC7A"/>
</g>
<g clip-path="url(#clip1_173_116)">
<path d="M380.617 366.321C386.529 360.174 394.04 356.756 401.516 356.907C409.115 357.058 416.469 360.927 420.799 366.925C430.553 364.814 439.473 367.109 446.097 373.491C449.888 377.143 453.052 382.972 450.583 388.45C449.036 391.884 445.576 394.363 440.307 395.804C432.396 397.965 423.598 397.496 415.965 394.548C411.584 396.826 406.75 397.965 401.986 397.965C396.509 397.965 391.154 396.457 386.807 393.476C378.339 394.866 370.463 394.397 363.369 392.085C358.674 390.561 355.701 388.199 354.519 385.1C353.25 381.75 354.206 377.746 357.162 374.111C362.534 367.494 372.149 364.362 380.617 366.321ZM359.509 383.341C360.1 384.916 361.978 386.222 365.073 387.227C371.61 389.355 378.965 389.706 386.981 388.232C387.746 388.098 388.528 388.283 389.137 388.752C395.779 393.844 406.402 394.162 414.4 389.489C414.818 389.237 415.304 389.12 415.774 389.12C416.139 389.12 416.504 389.187 416.852 389.338C423.65 392.269 431.666 392.822 438.829 390.862C441.35 390.176 444.567 388.835 445.68 386.39C447.088 383.291 444.758 379.455 442.324 377.126C436.691 371.699 428.866 370.007 420.295 372.335C419.112 372.654 417.86 372.168 417.252 371.129C414.07 365.718 407.845 362.15 401.395 362.033C401.273 362.033 401.169 362.033 401.047 362.033C394.822 362.033 388.441 365.233 383.503 370.878C382.79 371.682 381.66 371.983 380.617 371.648C373.836 369.471 365.716 371.833 361.317 377.26C359.544 379.438 358.866 381.716 359.474 383.324L359.509 383.341Z" fill="#FFDC7A"/>
</g>
<path d="M334.119 30.155C334.46 29.0918 335.22 28.864 335.866 28.864C336.511 28.864 337.271 29.0918 337.575 30.155L338.638 33.6103C339.398 36.0405 341.638 37.7112 344.183 37.7112H348.664C349.727 37.7112 350.183 38.3947 350.373 38.9262C350.563 39.4958 350.601 40.2932 349.765 40.9387L345.816 43.9384C343.879 45.4192 343.081 47.9633 343.803 50.2795L345.094 54.4942C345.398 55.5194 344.904 56.1649 344.411 56.5067C343.917 56.8484 343.157 57.1142 342.284 56.4687L339.398 54.2284C337.309 52.6337 334.422 52.6337 332.334 54.2284L329.409 56.4687C328.536 57.1142 327.776 56.8484 327.283 56.5067C326.789 56.1649 326.257 55.5194 326.599 54.4942L327.89 50.2795C328.612 47.9633 327.814 45.4192 325.877 43.9384L321.928 40.9387C321.092 40.2932 321.13 39.4958 321.32 38.9262C321.51 38.3567 321.966 37.7112 323.029 37.7112H327.511C330.055 37.7112 332.296 36.0405 333.055 33.6103L334.119 30.155Z" fill="#FBAE17"/>
<path d="M401.719 76.4792C402.44 76.4792 404.187 76.7071 404.833 78.7575L406.086 82.8583C406.846 85.2884 409.086 86.9592 411.631 86.9592H416.948C419.036 86.9592 419.796 88.516 420.024 89.1615C420.252 89.807 420.593 91.5156 418.922 92.7687L414.213 96.3379C412.276 97.8188 411.479 100.363 412.2 102.679L413.758 107.691C414.403 109.742 413.112 110.919 412.504 111.298C411.897 111.716 410.377 112.513 408.668 111.222L405.213 108.602C404.187 107.805 402.934 107.425 401.681 107.425C400.427 107.425 399.174 107.805 398.149 108.602L394.693 111.222C392.984 112.513 391.465 111.716 390.857 111.298C390.287 110.881 388.996 109.704 389.604 107.691L391.161 102.679C391.882 100.363 391.085 97.8188 389.148 96.3379L384.477 92.7687C382.806 91.4777 383.147 89.807 383.375 89.1615C383.603 88.478 384.363 86.9592 386.452 86.9592H391.768C394.313 86.9592 396.554 85.2884 397.313 82.8583L398.566 78.7575C399.212 76.7071 400.959 76.4792 401.681 76.4792H401.719Z" fill="#FBAE17"/>
<path d="M349.019 520.428C349.665 518.378 351.412 518.15 352.133 518.15C352.855 518.15 354.602 518.378 355.247 520.428L356.501 524.529C357.26 526.959 359.501 528.63 362.045 528.63H367.362C369.451 528.63 370.211 530.187 370.438 530.832C370.666 531.478 371.008 533.187 369.337 534.44L364.628 538.009C362.691 539.49 361.893 542.034 362.615 544.35L364.172 549.362C364.818 551.412 363.526 552.59 362.919 552.969C362.349 553.387 360.792 554.184 359.083 552.893L355.627 550.273C354.602 549.476 353.348 549.096 352.095 549.096C350.842 549.096 349.589 549.476 348.563 550.273L345.107 552.893C343.398 554.184 341.879 553.387 341.271 552.969C340.702 552.552 339.411 551.412 340.018 549.362L341.575 544.35C342.297 542.034 341.499 539.49 339.562 538.009L334.853 534.44C333.182 533.149 333.524 531.478 333.752 530.832C333.98 530.187 334.739 528.63 336.828 528.63H342.145C344.689 528.63 346.93 526.959 347.69 524.529L348.943 520.428H349.019Z" fill="#FBAE17"/>
<path d="M215.299 57.7937C255.404 57.7937 293.533 69.3368 326.46 91.3218C291.103 95.6884 258.442 111.75 233.149 137.532C204.02 167.263 187.955 206.525 187.955 248.141C187.955 335.321 258.898 406.213 346.057 406.213C347.804 406.213 349.55 406.213 351.335 406.137C314.421 440.082 265.696 459.258 215.299 459.258C104.594 459.258 14.5112 369.191 14.5112 258.507C14.5112 147.822 104.556 57.7937 215.299 57.7937Z" fill="#FBAE17"/>
<path d="M218.642 399.568C218.642 381.38 203.906 366.647 185.715 366.647C167.524 366.647 152.788 381.38 152.788 399.568C152.788 417.756 167.524 432.489 185.715 432.489C203.906 432.489 218.642 417.756 218.642 399.568Z" fill="#FFDC7A"/>
<path d="M149.522 126.255C149.522 112.889 138.698 102.029 125.292 102.029C111.886 102.029 101.062 112.889 101.062 126.255C101.062 139.62 111.924 150.48 125.292 150.48C138.66 150.48 149.522 139.62 149.522 126.255Z" fill="#FFDC7A"/>
<path d="M225.933 96.5235C225.933 87.7143 218.793 80.5378 209.945 80.5378C201.096 80.5378 193.956 87.6763 193.956 96.5235C193.956 105.371 201.096 112.509 209.945 112.509C218.793 112.509 225.933 105.371 225.933 96.5235Z" fill="#FFDC7A"/>
<path d="M152.218 191.603C152.218 184.616 146.56 178.958 139.572 178.958C132.584 178.958 126.925 184.616 126.925 191.603C126.925 198.589 132.584 204.247 139.572 204.247C146.56 204.247 152.218 198.589 152.218 191.603Z" fill="#FFDC7A"/>
<path d="M121.988 349.143C121.988 342.156 116.329 336.499 109.341 336.499C102.353 336.499 96.6948 342.156 96.6948 349.143C96.6948 356.129 102.353 361.787 109.341 361.787C116.329 361.787 121.988 356.129 121.988 349.143Z" fill="#FFDC7A"/>
<path d="M218.642 399.568C218.642 381.38 203.906 366.647 185.715 366.647C167.524 366.647 152.788 381.38 152.788 399.568C152.788 417.756 167.524 432.489 185.715 432.489C203.906 432.489 218.642 417.756 218.642 399.568Z" fill="#FFDC7A"/>
<path d="M149.522 126.255C149.522 112.889 138.698 102.029 125.292 102.029C111.886 102.029 101.062 112.889 101.062 126.255C101.062 139.62 111.924 150.48 125.292 150.48C138.66 150.48 149.522 139.62 149.522 126.255Z" fill="#FFDC7A"/>
<path d="M225.933 96.5235C225.933 87.7143 218.793 80.5378 209.945 80.5378C201.096 80.5378 193.956 87.6763 193.956 96.5235C193.956 105.371 201.096 112.509 209.945 112.509C218.793 112.509 225.933 105.371 225.933 96.5235Z" fill="#FFDC7A"/>
<path d="M152.218 191.603C152.218 184.616 146.56 178.958 139.572 178.958C132.584 178.958 126.925 184.616 126.925 191.603C126.925 198.589 132.584 204.247 139.572 204.247C146.56 204.247 152.218 198.589 152.218 191.603Z" fill="#FFDC7A"/>
<path d="M121.988 349.143C121.988 342.156 116.329 336.499 109.341 336.499C102.353 336.499 96.6948 342.156 96.6948 349.143C96.6948 356.129 102.353 361.787 109.341 361.787C116.329 361.787 121.988 356.129 121.988 349.143Z" fill="#FFDC7A"/>
<g style="mix-blend-mode:multiply">
<path d="M14.5112 258.507C14.5112 369.191 104.594 459.258 215.299 459.258C265.696 459.258 314.459 440.045 351.335 406.137C349.588 406.137 347.804 406.213 346.095 406.213C258.898 406.213 187.955 335.322 187.955 248.141C187.955 206.525 204.02 167.225 233.149 137.532C242.112 128.419 251.986 120.483 262.582 113.915C226.579 131.191 195.969 159.821 177.587 195.324C158.257 232.649 152.978 276.619 162.206 317.096C167.675 341.017 139.496 358.674 120.697 342.954C88.7576 316.222 66.5406 276.391 59.7047 234.889C53.2864 195.969 58.4894 156.366 71.2119 118.889C36.1585 155.037 14.5112 204.323 14.5112 258.545" fill="#FFE1AD"/>
</g>
<g style="mix-blend-mode:multiply">
<path d="M39.9564 318.045C57.1982 367.407 96.9989 408.378 145.876 426.983C194.753 445.589 251.72 441.488 296.23 413.921C263.797 401.391 230.642 388.671 195.893 387.076C172.916 386.013 149.256 389.81 127.229 383.165C91.644 372.457 69.503 337.866 39.9564 318.045Z" fill="#FAD184"/>
</g>
<path d="M67.0344 364.597C85.9093 385.329 106.341 404.77 132.356 416.199C146.712 422.502 162.282 425.957 177.474 429.64C193.766 433.589 209.603 433.855 226.237 432.792C244.58 431.615 262.62 429.033 280.127 423.261C283.393 422.198 284.723 427.248 281.533 428.349C250.695 439.209 215.527 447.904 182.828 441.563C151.459 435.488 120.089 426.147 95.062 405.567C82.3394 395.087 71.022 382.139 62.591 368.052C60.958 365.318 64.8317 362.205 67.0344 364.597Z" fill="#DB7D0E"/>
<path d="M48.7293 344.282C49.5648 343.371 50.856 343.067 52.0333 343.219C52.7549 343.295 53.4765 343.599 54.1221 343.978C54.9576 344.51 55.7172 345.117 56.3248 345.877C56.9325 346.674 57.5401 347.434 58.1478 348.269L60.6543 351.838C60.9961 352.408 61.186 352.977 61.2239 353.623C61.3759 354.268 61.3379 354.914 61.148 355.521C60.8442 356.623 59.9707 357.838 58.9453 358.407C57.8439 358.977 56.4767 359.281 55.2235 358.901C54.8437 358.749 54.4639 358.597 54.0841 358.407C53.3626 357.99 52.7929 357.42 52.3751 356.699C51.6536 355.635 50.932 354.572 50.2104 353.547C49.8306 353.015 49.4888 352.484 49.147 351.952C48.9571 351.686 48.8052 351.421 48.6533 351.117C48.3875 350.509 48.0457 349.94 47.8938 349.294C47.7419 348.687 47.6279 348.041 47.59 347.434C47.514 346.257 47.9697 345.155 48.7293 344.32" fill="#DB7D0E"/>
<path d="M49.9065 160.239C52.3751 155.417 55.0715 150.708 57.9578 146.152C63.8063 137.039 70.5284 128.496 77.972 120.674C92.8593 105.068 111.658 93.3347 131.179 84.4495C134.901 82.7409 138.205 88.2086 134.445 89.9933C115.608 98.9543 99.8092 112.206 85.6815 127.394C78.7696 134.837 72.5032 142.886 67.0724 151.468C64.414 155.645 61.9454 159.973 59.6668 164.378C57.2362 169.086 55.5652 174.364 52.1472 178.503C49.6786 181.503 43.944 179.11 44.2478 175.237C44.7035 169.884 47.4759 164.985 49.9065 160.239Z" fill="white" fill-opacity="0.5"/>
<path d="M36.9559 200.184C37.1078 199.007 37.3737 197.905 37.6015 196.766C37.7534 196.121 38.0573 195.551 38.475 195.096C38.8168 194.564 39.2726 194.146 39.8802 193.805C40.4499 193.425 41.0575 193.235 41.7031 193.235C42.3487 193.083 43.0324 193.121 43.678 193.311C44.8933 193.691 46.0326 194.45 46.6402 195.589C46.7922 195.969 46.982 196.387 47.1339 196.766C47.3618 197.64 47.3618 198.513 47.1339 199.386C46.8681 200.487 46.6402 201.627 46.2984 202.69C46.0326 203.563 45.6528 204.398 45.273 205.272C45.1591 205.5 45.0831 205.765 44.9312 205.993C44.7793 206.221 44.5894 206.487 44.4375 206.715C44.0577 207.284 43.564 207.816 42.9564 208.196C42.6146 208.347 42.3108 208.461 41.969 208.613C41.3993 208.765 40.8676 208.803 40.3359 208.689C39.9562 208.689 39.6144 208.613 39.3105 208.423C38.9687 208.309 38.6649 208.158 38.3991 207.892C37.7534 207.398 37.0698 206.601 36.9179 205.765C36.766 204.854 36.6141 203.943 36.6141 203.032C36.6141 202.082 36.766 201.171 36.9179 200.222" fill="white" fill-opacity="0.5"/>
<path d="M282.634 491.874C283.242 491.874 284.039 492.102 284.381 493.165L285.444 496.62C286.204 499.05 288.444 500.721 290.989 500.721H295.47C296.534 500.721 296.989 501.405 297.179 501.936C297.369 502.506 297.407 503.303 296.572 503.949L292.622 506.948C290.685 508.429 289.888 510.935 290.609 513.289L291.9 517.504C292.242 518.529 291.711 519.175 291.217 519.517C290.723 519.858 289.964 520.124 289.09 519.479L286.166 517.238C284.077 515.644 281.191 515.644 279.102 517.238L276.178 519.479C275.304 520.124 274.545 519.858 274.051 519.517C273.557 519.175 273.026 518.529 273.367 517.504L274.697 513.289C275.418 510.973 274.621 508.429 272.684 506.948L268.734 503.949C267.899 503.303 267.936 502.506 268.126 501.936C268.316 501.367 268.772 500.721 269.835 500.721H274.317C276.861 500.721 279.14 499.05 279.861 496.62L280.925 493.165C281.267 492.102 282.026 491.874 282.634 491.874Z" fill="#FBAE17"/>
<g clip-path="url(#clip2_173_116)">
<path d="M481.9 79.871C474.489 81.6022 473.272 89.6316 474.526 93.2965C475.78 96.9613 485.33 102.063 491.616 99.2081C497.885 96.3536 498.972 86.5746 493.257 82.5598C487.542 78.5451 487.726 78.4898 481.9 79.871Z" fill="#C70134"/>
<path d="M482.159 81.4364C479.946 81.952 479.577 84.3646 479.946 85.4695C480.315 86.5745 483.173 88.1031 485.053 87.2375C486.934 86.3719 487.247 83.4438 485.551 82.2467C483.836 81.0496 483.892 81.0312 482.159 81.4364Z" fill="#FFB6B6"/>
<g style="mix-blend-mode:multiply" opacity="0.4">
<path d="M493.257 82.5598C489.865 80.1841 488.556 79.208 486.841 79.0791C491.248 82.5229 494.529 87.2743 489.846 92.2835C486.528 95.8194 482.675 97.0902 478.6 97.3848C482.269 99.6132 487.616 101.05 491.635 99.208C497.903 96.3535 498.991 86.5745 493.276 82.5598H493.257Z" fill="#C70134"/>
</g>
<path d="M418.166 0.810181C410.773 2.54131 409.538 10.5708 410.792 14.2356C412.064 17.9004 421.595 23.0017 427.882 20.1472C434.15 17.2927 435.238 7.51368 429.523 3.49895C423.808 -0.515786 423.992 -0.552618 418.166 0.810181Z" fill="#C70134"/>
<path d="M418.424 2.35705C416.212 2.8727 415.843 5.28522 416.212 6.3902C416.581 7.49517 419.438 9.02371 421.319 8.15815C423.199 7.31101 423.513 4.38283 421.817 3.16736C420.102 1.97031 420.157 1.95189 418.424 2.35705Z" fill="#FFB6B6"/>
<g style="mix-blend-mode:multiply" opacity="0.4">
<path d="M429.523 3.49898C426.131 1.12328 424.822 0.147224 423.107 0.0183105C427.513 3.46214 430.795 8.21353 426.112 13.2227C422.794 16.7586 418.94 18.0294 414.866 18.324C418.535 20.5524 423.881 21.9889 427.9 20.1472C434.169 17.2927 435.257 7.51371 429.541 3.49898H429.523Z" fill="#C70134"/>
</g>
<path d="M379.174 22.431C371.762 24.1622 370.545 32.1916 371.817 35.8564C373.071 39.5213 382.621 44.641 388.908 41.7681C395.176 38.8951 396.264 29.1161 390.549 25.1198C384.833 21.1051 385.018 21.0682 379.192 22.431H379.174Z" fill="#C70134"/>
<path d="M379.432 23.9779C377.219 24.512 376.851 26.9061 377.219 28.011C377.588 29.116 380.446 30.6446 382.345 29.779C384.225 28.9319 384.539 26.0037 382.842 24.7882C381.128 23.5912 381.183 23.5727 379.45 23.9779H379.432Z" fill="#FFB6B6"/>
<g style="mix-blend-mode:multiply" opacity="0.4">
<path d="M390.53 25.1013C387.138 22.7256 385.829 21.7495 384.115 21.6206C388.521 25.0644 391.802 29.8158 387.12 34.825C383.801 38.3609 379.948 39.6317 375.873 39.9263C379.542 42.1547 384.889 43.5911 388.908 41.7495C395.176 38.8766 396.264 29.0976 390.549 25.1013H390.53Z" fill="#C70134"/>
</g>
<path d="M413.446 31.4368C406.054 33.1679 404.818 41.1974 406.072 44.8806C407.344 48.5454 416.876 53.6467 423.162 50.7922C429.431 47.9377 430.518 38.1587 424.803 34.144C419.088 30.1292 419.272 30.0924 413.446 31.4552V31.4368Z" fill="#C70134"/>
<path d="M413.705 32.9833C411.492 33.4989 411.124 35.9114 411.492 37.0164C411.879 38.1214 414.719 39.6315 416.599 38.7844C418.48 37.9372 418.793 35.0091 417.097 33.7936C415.382 32.5965 415.438 32.5781 413.705 32.9833Z" fill="#FFB6B6"/>
<g style="mix-blend-mode:multiply" opacity="0.4">
<path d="M424.803 34.1066C421.411 31.731 420.102 30.7549 418.387 30.626C422.794 34.0698 426.075 38.8212 421.393 43.8304C418.074 47.3663 414.221 48.6186 410.146 48.9317C413.815 51.1601 419.162 52.5965 423.181 50.7549C429.449 47.9004 430.537 38.1214 424.822 34.1066H424.803Z" fill="#C70134"/>
</g>
</g>
<path d="M111.743 414.482C107.511 408.157 99.5676 409.849 96.5799 412.314C93.5923 414.779 92.1848 425.514 97.0722 430.391C101.953 435.251 111.488 432.821 113.23 426.058C114.973 419.294 115.089 419.447 111.743 414.482Z" fill="#C70134"/>
<path d="M110.369 415.275C109.107 413.387 106.719 413.892 105.815 414.626C104.911 415.361 104.488 418.574 105.961 420.029C107.434 421.483 110.284 420.744 110.807 418.735C111.323 416.709 111.359 416.754 110.369 415.275Z" fill="#FFB6B6"/>
<g style="mix-blend-mode:multiply" opacity="0.4">
<path d="M113.23 426.058C114.258 422.046 114.71 420.477 114.226 418.827C112.557 424.164 109.267 428.91 102.929 426.294C98.4498 424.435 95.9024 421.277 94.1904 417.568C93.3984 421.786 93.9388 427.296 97.0789 430.408C101.96 435.268 111.495 432.839 113.237 426.075L113.23 426.058Z" fill="#C70134"/>
</g>
<path d="M43.4542 413.131C47.3224 406.577 42.3574 400.15 38.8415 398.525C35.3257 396.899 25.04 400.28 22.761 406.798C20.4947 413.302 26.8138 420.844 33.6648 419.485C40.5157 418.126 40.4283 418.298 43.4542 413.131Z" fill="#C70134"/>
<path d="M42.144 412.237C43.2995 410.281 41.8099 408.348 40.7562 407.851C39.7025 407.355 36.6233 408.365 35.95 410.323C35.2768 412.28 37.1775 414.53 39.2147 414.13C41.2647 413.717 41.2398 413.77 42.144 412.237Z" fill="#FFB6B6"/>
<g style="mix-blend-mode:multiply" opacity="0.4">
<path d="M33.6649 419.485C37.726 418.674 39.336 418.402 40.6136 417.251C35.0797 418.058 29.3773 417.148 28.9904 410.302C28.7263 405.46 30.4693 401.796 33.0709 398.647C28.9253 399.76 24.1932 402.633 22.7483 406.812C20.482 413.316 26.8012 420.858 33.6521 419.499L33.6649 419.485Z" fill="#C70134"/>
</g>
<path d="M24.7494 478.276C27.1266 474.248 24.0754 470.299 21.9147 469.3C19.754 468.301 13.433 470.379 12.0324 474.384C10.6397 478.382 14.5231 483.016 18.7333 482.181C22.9436 481.346 22.8899 481.452 24.7494 478.276Z" fill="#C70134"/>
<path d="M23.9442 477.727C24.6543 476.525 23.7388 475.337 23.0913 475.032C22.4438 474.727 20.5514 475.347 20.1377 476.55C19.7239 477.753 20.892 479.136 22.144 478.89C23.4038 478.637 23.3885 478.669 23.9442 477.727Z" fill="#FFB6B6"/>
<g style="mix-blend-mode:multiply" opacity="0.4">
<path d="M18.7334 482.181C21.2291 481.682 22.2185 481.515 23.0037 480.808C19.6029 481.304 16.0984 480.745 15.8607 476.537C15.6984 473.562 16.7695 471.31 18.3683 469.375C15.8206 470.059 12.9126 471.825 12.0246 474.392C10.6319 478.389 14.5153 483.024 18.7255 482.189L18.7334 482.181Z" fill="#C70134"/>
</g>
<g clip-path="url(#clip3_173_116)">
<path d="M284.421 35.2158C276.954 27.531 267.466 23.2594 258.022 23.4479C248.424 23.6363 239.134 28.4733 233.665 35.9696C221.344 33.3312 210.077 36.1999 201.709 44.1778C196.921 48.7426 192.924 56.0295 196.043 62.8766C197.998 67.1692 202.368 70.2682 209.023 72.069C219.016 74.7702 230.129 74.1839 239.771 70.4985C245.305 73.3463 251.411 74.7702 257.429 74.7702C264.347 74.7702 271.112 72.8856 276.602 69.1584C287.298 70.8964 297.247 70.3101 306.208 67.4205C312.138 65.515 315.894 62.5625 317.387 58.6888C318.99 54.5009 317.783 49.4964 314.049 44.9526C307.262 36.6815 295.117 32.7659 284.421 35.2158ZM311.084 56.4901C310.337 58.4584 307.965 60.0917 304.056 61.3481C295.798 64.0074 286.508 64.4471 276.383 62.6044C275.416 62.4369 274.428 62.6672 273.659 63.2535C265.27 69.6191 251.85 70.0169 241.747 64.1749C241.22 63.8608 240.605 63.7142 240.012 63.7142C239.551 63.7142 239.09 63.798 238.651 63.9864C230.063 67.6508 219.938 68.3418 210.89 65.8919C207.705 65.0334 203.642 63.3582 202.236 60.3011C200.457 56.4273 203.4 51.6322 206.475 48.7216C213.591 41.9373 223.474 39.8224 234.302 42.733C235.796 43.1308 237.377 42.5236 238.146 41.2254C242.165 34.462 250.027 30.0019 258.176 29.8553C258.329 29.8553 258.461 29.8553 258.615 29.8553C266.478 29.8553 274.538 33.8547 280.775 40.9113C281.676 41.9164 283.103 42.2933 284.421 41.8745C292.987 39.1524 303.243 42.1048 308.8 48.8892C311.04 51.6113 311.897 54.459 311.128 56.4692L311.084 56.4901Z" fill="#FFDC7A"/>
</g>
<g clip-path="url(#clip4_173_116)">
<path d="M368.949 312.04L339.601 319.729L344.462 338.283L373.81 330.594L368.949 312.04Z" fill="#462300"/>
<path d="M324.998 144.284L295.65 151.974L300.511 170.527L329.859 162.838L324.998 144.284Z" fill="#462300"/>
<path d="M359.497 254.863C344.612 245.943 340.938 234.37 347.803 220.308C355.716 211.942 359.27 199.796 356.137 187.835C351.309 169.408 332.455 158.382 314.029 163.21C295.602 168.038 284.576 186.892 289.404 205.318C292.765 218.145 302.919 227.379 315.005 230.184C324.862 237.571 328.135 251.432 321.725 262.661C313.558 271.044 309.852 283.366 313.034 295.512C317.862 313.938 336.716 324.964 355.142 320.136C373.569 315.309 384.594 296.455 379.767 278.028C376.914 267.141 369.161 258.833 359.497 254.863Z" fill="#57465F"/>
<path d="M382.841 129.13L237.334 167.252C233.858 168.163 230.274 166.066 229.364 162.591C228.453 159.116 230.549 155.532 234.024 154.621L379.532 116.499C383.007 115.589 386.592 117.685 387.502 121.16C388.413 124.635 386.316 128.219 382.841 129.13Z" fill="#A0462D"/>
<path d="M232.204 161.847C231.702 159.931 232.852 157.964 234.769 157.462L380.276 119.339C382.193 118.837 384.16 119.988 384.662 121.904" stroke="white" stroke-width="1.23" stroke-linecap="round" stroke-linejoin="round"/>
<path d="M434.826 327.55L289.319 365.672C285.843 366.583 282.259 364.487 281.349 361.012C280.438 357.536 282.534 353.952 286.009 353.042L431.517 314.92C434.992 314.009 438.577 316.105 439.487 319.58C440.397 323.056 438.301 326.64 434.826 327.55Z" fill="#A0462D"/>
<path d="M284.189 360.268C283.687 358.351 284.837 356.384 286.754 355.882L432.261 317.76C434.178 317.258 436.145 318.408 436.647 320.325" stroke="white" stroke-width="1.23" stroke-linecap="round" stroke-linejoin="round"/>
<path d="M353.512 195.758C353.052 178.771 338.908 165.373 321.921 165.833C304.935 166.293 291.537 180.436 291.997 197.423C292.457 214.41 306.6 227.808 323.587 227.348C340.574 226.888 353.972 212.744 353.512 195.758Z" fill="#57465F"/>
<path d="M365.157 311.172C378.628 300.813 381.15 281.495 370.791 268.025C360.432 254.554 341.114 252.032 327.643 262.391C314.173 272.75 311.651 292.068 322.01 305.538C332.369 319.009 351.687 321.531 365.157 311.172Z" fill="white"/>
<path d="M357.114 257.634L322.766 266.633C336.334 252.443 329.789 230.098 311.81 224.815L346.158 215.816C334.648 233.341 337.906 247.379 357.114 257.634Z" fill="#57465F"/>
<path d="M300.427 284.219C306.626 275.056 313.406 265.001 314.782 253.302C314.895 248.646 313.766 244.339 311.394 240.371C304.458 230.85 293.616 225.399 283.724 220.464C273.829 215.519 264.475 210.85 259.169 202.888C255.407 196.582 254.568 188.955 257.013 182.935C258.14 180.172 261.057 174.682 265.756 173.451C270.455 172.22 275.401 172.405 277.074 177.235C277.755 179.833 274.735 183.424 272.839 185.18C271.058 187.003 270.237 189.661 270.927 192.294C271.974 196.288 276.068 198.683 280.063 197.636C281.125 197.358 282.054 196.855 282.849 196.215C282.981 196.107 283.239 195.866 283.562 195.547C283.648 195.451 283.751 195.374 283.825 195.281C286.53 192.512 293.26 184.481 290.801 175.094C287.246 161.529 277.35 156.768 261.394 160.948C253.047 163.135 246.587 168.948 243.185 177.341C238.991 187.657 240.246 200.455 246.47 210.743L246.621 210.987C254.128 222.358 266.294 228.436 277.042 233.813C286.769 238.68 297.791 241.615 300.053 250.251C302.162 258.299 294.152 266.862 288.059 275.861C281.324 285.806 273.704 297.08 272.737 310.671L272.726 310.958C272.343 322.964 277.524 334.734 286.229 341.683C293.295 347.32 301.79 349.228 310.137 347.041C326.093 342.861 332.384 333.859 328.83 320.293C326.367 310.895 316.564 307.196 312.852 306.12C312.73 306.078 312.611 306.048 312.492 306.017C312.054 305.898 311.711 305.815 311.54 305.773C310.534 305.605 309.469 305.637 308.418 305.913C304.423 306.959 302.029 311.053 303.076 315.048C303.765 317.681 305.784 319.595 308.23 320.311C310.747 320.922 315.136 322.561 315.817 325.158C316.724 330.177 312.507 332.774 307.808 334.006C303.109 335.237 297.878 331.894 295.538 330.027C290.467 325.976 287.446 318.921 287.633 311.58C288.365 302.036 294.217 293.384 300.416 284.222L300.427 284.219Z" fill="#DCAA5A"/>
<path d="M262.124 163.78C276.602 159.987 284.812 163.82 287.957 175.827C290.014 183.678 284.291 190.606 281.732 193.226L281.61 193.369" stroke="white" stroke-width="1.23" stroke-linecap="round" stroke-linejoin="round"/>
<path d="M305.904 314.307C305.269 311.883 306.726 309.391 309.151 308.756C309.762 308.596 310.399 308.577 311.043 308.68C311.043 308.68 311.452 308.782 311.705 308.852L311.879 308.905L311.975 308.941L312.039 308.949C315.553 309.978 323.938 313.21 325.995 321.061" stroke="white" stroke-width="1.23" stroke-linecap="round" stroke-linejoin="round"/>
<path d="M284.712 311.359L284.702 311.509C284.491 319.745 287.939 327.725 293.708 332.32C296.095 334.225 302.314 338.468 308.549 336.834C319.205 334.043 319.197 327.37 318.7 324.625L318.642 324.406" stroke="white" stroke-width="1.23" stroke-linecap="round" stroke-linejoin="round"/>
<path d="M256.638 204.39L256.72 204.517C262.465 213.117 272.148 217.958 282.41 223.079C291.778 227.756 302.384 233.059 308.943 241.988C310.979 245.427 311.932 249.064 311.85 253.083" stroke="white" stroke-width="1.23" stroke-linecap="round" stroke-linejoin="round"/>
<path d="M385.725 261.871C375.83 256.925 364.991 251.486 358.055 241.965C355.673 237.962 354.545 233.656 354.667 229.034C356.043 217.335 362.82 207.268 369.022 198.117C375.221 188.955 381.084 180.299 381.804 170.758C381.991 163.418 378.982 156.359 373.899 152.312C371.563 150.456 366.328 147.102 361.629 148.333C356.93 149.564 352.71 152.151 353.62 157.18C354.301 159.778 358.694 161.428 361.208 162.028C363.653 162.744 365.672 164.658 366.362 167.291C367.408 171.285 365.014 175.38 361.019 176.426C359.957 176.704 358.901 176.722 357.894 176.554C357.726 176.524 357.384 176.441 356.945 176.321C356.823 176.279 356.695 176.263 356.585 176.218C352.87 175.131 343.067 171.432 340.608 162.045C337.054 148.48 343.344 139.478 359.3 135.298C367.647 133.111 376.128 135.01 383.208 140.656C391.925 147.601 397.094 159.374 396.711 171.381L396.7 171.668C395.733 185.258 388.11 196.521 381.379 206.477C375.288 215.488 367.121 223.451 369.384 232.087C371.492 240.135 382.672 243.671 392.395 248.526C403.14 253.891 415.31 259.981 422.817 271.351L422.967 271.596C429.188 281.872 430.444 294.671 426.264 304.994C422.87 313.373 416.402 319.201 408.054 321.388C392.099 325.568 382.202 320.807 378.648 307.241C376.186 297.843 382.916 289.812 385.623 287.055C385.709 286.958 385.798 286.873 385.887 286.789C386.21 286.469 386.468 286.229 386.597 286.109C387.392 285.469 388.336 284.975 389.386 284.7C393.381 283.653 397.475 286.047 398.522 290.042C399.212 292.674 398.39 295.332 396.61 297.156C394.717 298.923 391.694 302.503 392.375 305.101C394.044 309.919 398.994 310.116 403.693 308.884C408.392 307.653 411.312 302.175 412.436 299.401C414.869 293.384 414.042 285.754 410.28 279.448C404.963 271.489 395.62 266.817 385.725 261.871Z" fill="#DCAA5A"/>
<path d="M350.758 157.696L350.815 157.915C351.647 161.09 354.951 162.964 357.701 163.995L357.687 164.036L358.314 164.217C359.073 164.475 359.752 164.667 360.318 164.802L360.411 164.827C361.974 165.282 363.151 166.478 363.553 168.014" stroke="white" stroke-width="1.23" stroke-linecap="round" stroke-linejoin="round"/>
<path d="M387.728 289.107L387.854 288.975L388.455 288.398C388.975 287.978 389.542 287.694 390.142 287.537C392.567 286.901 395.058 288.358 395.693 290.783C396.096 292.318 395.656 293.939 394.517 295.101L394.449 295.168C394.065 295.54 393.595 296.009 393.098 296.558L392.543 297.123L392.575 297.152C390.684 299.399 388.711 302.655 389.543 305.83L389.601 306.05C390.513 308.685 393.778 314.505 404.434 311.713C410.669 310.079 414.009 303.332 415.155 300.502" stroke="white" stroke-width="1.23" stroke-linecap="round" stroke-linejoin="round"/>
<path d="M366.544 232.831C368.61 240.717 377.267 244.704 385.633 248.57C387.458 249.412 389.294 250.251 391.084 251.152C401.504 256.355 413.303 262.258 420.366 272.968L420.492 273.169C426.215 282.626 427.393 294.421 423.548 303.905" stroke="white" stroke-width="1.23" stroke-linecap="round" stroke-linejoin="round"/>
<path d="M360.053 138.123C367.476 136.178 375.054 137.882 381.387 142.935C389.388 149.315 394.145 160.172 393.787 171.284L393.775 171.521" stroke="white" stroke-width="1.23" stroke-linecap="round" stroke-linejoin="round"/>
<path d="M365.038 310.723C378.508 300.364 381.03 281.046 370.671 267.576C360.312 254.105 340.994 251.583 327.524 261.942C314.053 272.301 311.531 291.619 321.89 305.089C332.249 318.56 351.567 321.082 365.038 310.723Z" fill="#57465F"/>
<path d="M296.344 212.31C303.174 223.783 317.006 229.907 330.56 226.355C344.114 222.804 353.166 210.686 353.494 197.337L296.344 212.31Z" fill="#A0462D"/>
<path d="M318.646 300.025C324.878 313.075 339.697 320.333 354.198 316.534C368.7 312.735 378.056 299.142 377.089 284.713L318.646 300.025Z" fill="#A0462D"/>
<path d="M339.894 238.296L328.764 241.212L343.223 296.399L354.353 293.483L339.894 238.296Z" fill="#A0462D"/>
<path d="M346.158 215.816L311.81 224.815C320.886 227.483 327.042 234.495 329.168 242.611L340.182 239.726C338.285 232.672 340.317 224.7 346.146 215.819L346.158 215.816Z" fill="#A0462D"/>
<path d="M323.204 146.667L326.674 159.909" stroke="white" stroke-width="1.23" stroke-linecap="round" stroke-linejoin="round"/>
<path d="M367.506 315.762L370.973 328.993" stroke="white" stroke-width="1.23" stroke-linecap="round" stroke-linejoin="round"/>
<path d="M307.654 178.674C309.361 177.228 311.289 176.019 313.404 175.095" stroke="white" stroke-width="4.91" stroke-linecap="round" stroke-linejoin="round"/>
<path d="M322.813 173.148C333.183 173.17 342.685 180.144 345.437 190.65C348.713 203.154 341.206 215.991 328.703 219.266" stroke="white" stroke-width="4.91" stroke-linecap="round" stroke-linejoin="round"/>
<path d="M331.064 268.024C332.77 266.578 334.699 265.369 336.813 264.445" stroke="white" stroke-width="4.91" stroke-linecap="round" stroke-linejoin="round"/>
<path d="M346.226 262.51C356.595 262.532 366.097 269.506 368.849 280.012C372.125 292.516 364.619 305.352 352.115 308.628" stroke="white" stroke-width="4.91" stroke-linecap="round" stroke-linejoin="round"/>
</g>
<defs>
<clipPath id="clip0_173_116">
<rect width="123.123" height="51.3013" fill="white" transform="matrix(-1 0 0 1 123.123 367.169)"/>
</clipPath>
<clipPath id="clip1_173_116">
<rect width="97.4725" height="41.0411" fill="white" transform="matrix(-1 0 0 1 451.452 356.908)"/>
</clipPath>
<clipPath id="clip2_173_116">
<rect width="125.625" height="100.055" fill="white" transform="translate(371.375)"/>
</clipPath>
<clipPath id="clip3_173_116">
<rect width="123.123" height="51.3013" fill="white" transform="translate(194.945 23.4487)"/>
</clipPath>
<clipPath id="clip4_173_116">
<rect width="163.476" height="218.174" fill="white" transform="translate(227.709 156.276) rotate(-14.6812)"/>
</clipPath>
</defs>
</svg>
