<svg width="497" height="507" viewBox="0 0 497 507" fill="none" xmlns="http://www.w3.org/2000/svg">
<g clip-path="url(#clip0_216_7)">
<path d="M459.901 366.821C451.667 358.348 441.206 353.638 430.793 353.846C420.21 354.054 409.966 359.387 403.936 367.652C390.351 364.743 377.928 367.906 368.701 376.703C363.422 381.736 359.015 389.771 362.454 397.321C364.609 402.054 369.428 405.471 376.766 407.456C387.784 410.435 400.038 409.788 410.669 405.725C416.771 408.865 423.503 410.435 430.139 410.435C437.767 410.435 445.226 408.357 451.28 404.247C463.073 406.163 474.043 405.517 483.924 402.331C490.462 400.23 494.603 396.974 496.25 392.703C498.018 388.085 496.686 382.567 492.569 377.557C485.086 368.437 471.694 364.12 459.901 366.821ZM489.3 390.279C488.476 392.449 485.861 394.25 481.55 395.635C472.445 398.567 462.201 399.052 451.038 397.02C449.972 396.836 448.882 397.09 448.035 397.736C438.784 404.755 423.988 405.194 412.848 398.752C412.267 398.406 411.589 398.244 410.935 398.244C410.426 398.244 409.918 398.336 409.434 398.544C399.965 402.585 388.801 403.347 378.824 400.645C375.313 399.699 370.833 397.852 369.283 394.481C367.321 390.209 370.566 384.922 373.956 381.713C381.803 374.233 392.7 371.901 404.639 375.11C406.285 375.549 408.029 374.879 408.877 373.448C413.308 365.99 421.978 361.072 430.962 360.911C431.132 360.911 431.277 360.911 431.446 360.911C440.116 360.911 449.003 365.321 455.881 373.101C456.874 374.209 458.448 374.625 459.901 374.163C469.345 371.162 480.654 374.417 486.781 381.898C489.251 384.899 490.196 388.039 489.348 390.256L489.3 390.279Z" fill="#FFDC7A"/>
</g>
<g clip-path="url(#clip1_216_7)">
<path d="M78.1035 396.379C71.5852 389.601 63.3032 385.833 55.0595 385.999C46.6816 386.165 38.5721 390.432 33.7984 397.044C23.0433 394.717 13.2084 397.247 5.90407 404.285C1.72471 408.311 -1.76448 414.739 0.957852 420.779C2.66411 424.565 6.47921 427.299 12.2881 428.887C21.0111 431.27 30.7118 430.753 39.1281 427.502C43.9593 430.014 49.2889 431.27 54.5419 431.27C60.5808 431.27 66.4856 429.608 71.2785 426.32C80.6149 427.853 89.2996 427.336 97.1215 424.787C102.298 423.106 105.576 420.502 106.88 417.085C108.279 413.391 107.225 408.976 103.966 404.968C98.0417 397.672 87.44 394.218 78.1035 396.379ZM101.378 415.145C100.726 416.881 98.6552 418.322 95.2427 419.43C88.0343 421.776 79.9248 422.164 71.0868 420.539C70.2432 420.391 69.3805 420.594 68.7095 421.111C61.3861 426.726 49.6723 427.077 40.8535 421.924C40.3934 421.647 39.8566 421.518 39.339 421.518C38.9364 421.518 38.5338 421.591 38.1503 421.758C30.6543 424.99 21.8163 425.6 13.9177 423.438C11.1379 422.681 7.59115 421.204 6.36418 418.507C4.8113 415.09 7.38027 410.86 10.0643 408.293C16.2758 402.308 24.9029 400.443 34.3544 403.01C35.6581 403.361 37.0384 402.825 37.7094 401.68C41.2178 395.714 48.0811 391.78 55.1937 391.651C55.3279 391.651 55.4429 391.651 55.5771 391.651C62.4405 391.651 69.4764 395.179 74.9211 401.403C75.7071 402.29 76.9532 402.622 78.1035 402.253C85.5803 399.852 94.5334 402.456 99.3837 408.44C101.339 410.842 102.087 413.354 101.416 415.127L101.378 415.145Z" fill="#FFDC7A"/>
</g>
<path d="M72.8296 418.512C72.1178 416.251 70.1915 416 69.3959 416C68.6003 416 66.674 416.251 65.9622 418.512L64.5803 423.034C63.7428 425.713 61.2722 427.555 58.4666 427.555H52.6041C50.301 427.555 49.4635 429.272 49.2122 429.984C48.961 430.695 48.5841 432.579 50.4266 433.961L55.6191 437.896C57.7547 439.529 58.6341 442.334 57.8384 444.888L56.1216 450.415C55.4097 452.676 56.8335 453.973 57.5034 454.392C58.1316 454.853 59.8484 455.732 61.7328 454.308L65.5434 451.42C66.674 450.54 68.0559 450.122 69.4378 450.122C70.8196 450.122 72.2015 450.54 73.3321 451.42L77.1427 454.308C79.0271 455.732 80.7021 454.853 81.3721 454.392C82.0002 453.932 83.424 452.676 82.754 450.415L81.0371 444.888C80.2415 442.334 81.1208 439.529 83.2565 437.896L88.4489 433.961C90.2914 432.537 89.9146 430.695 89.6633 429.984C89.4121 429.272 88.5746 427.555 86.2715 427.555H80.409C77.6034 427.555 75.1327 425.713 74.2953 423.034L72.9134 418.512H72.8296Z" fill="#FBAE17"/>
<path d="M259.608 12.7244C215.388 12.7244 173.346 25.452 137.04 49.693C176.026 54.5077 212.038 72.2175 239.926 100.645C272.044 133.427 289.757 176.718 289.757 222.604C289.757 318.731 211.535 396.897 115.433 396.897C113.506 396.897 111.58 396.897 109.612 396.813C150.314 434.242 204.04 455.385 259.608 455.385C381.673 455.385 481 356.076 481 234.034C481 111.991 381.715 12.7244 259.608 12.7244Z" fill="#FBAE17"/>
<path d="M255.922 389.57C255.922 369.516 272.17 353.271 292.228 353.271C312.286 353.271 328.533 369.516 328.533 389.57C328.533 409.624 312.286 425.869 292.228 425.869C272.17 425.869 255.922 409.624 255.922 389.57Z" fill="#FFDC7A"/>
<path d="M332.135 88.2102C332.135 73.473 344.069 61.499 358.851 61.499C373.633 61.499 385.567 73.473 385.567 88.2102C385.567 102.947 373.591 114.921 358.851 114.921C344.111 114.921 332.135 102.947 332.135 88.2102Z" fill="#FFDC7A"/>
<path d="M247.883 55.4282C247.883 45.715 255.755 37.8021 265.512 37.8021C275.269 37.8021 283.141 45.6731 283.141 55.4282C283.141 65.1832 275.269 73.0542 265.512 73.0542C255.755 73.0542 247.883 65.1832 247.883 55.4282Z" fill="#FFDC7A"/>
<path d="M329.162 160.264C329.162 152.561 335.401 146.323 343.106 146.323C350.811 146.323 357.05 152.561 357.05 160.264C357.05 167.968 350.811 174.206 343.106 174.206C335.401 174.206 329.162 167.968 329.162 160.264Z" fill="#FFDC7A"/>
<path d="M362.494 333.97C362.494 326.267 368.734 320.029 376.439 320.029C384.144 320.029 390.383 326.267 390.383 333.97C390.383 341.674 384.144 347.912 376.439 347.912C368.734 347.912 362.494 341.674 362.494 333.97Z" fill="#FFDC7A"/>
<path d="M255.922 389.57C255.922 369.516 272.17 353.271 292.228 353.271C312.286 353.271 328.533 369.516 328.533 389.57C328.533 409.624 312.286 425.869 292.228 425.869C272.17 425.869 255.922 409.624 255.922 389.57Z" fill="#FFDC7A"/>
<path d="M332.135 88.2102C332.135 73.473 344.069 61.499 358.851 61.499C373.633 61.499 385.567 73.473 385.567 88.2102C385.567 102.947 373.591 114.921 358.851 114.921C344.111 114.921 332.135 102.947 332.135 88.2102Z" fill="#FFDC7A"/>
<path d="M247.883 55.4282C247.883 45.715 255.755 37.8021 265.512 37.8021C275.269 37.8021 283.141 45.6731 283.141 55.4282C283.141 65.1832 275.269 73.0542 265.512 73.0542C255.755 73.0542 247.883 65.1832 247.883 55.4282Z" fill="#FFDC7A"/>
<path d="M329.162 160.264C329.162 152.561 335.401 146.323 343.106 146.323C350.811 146.323 357.05 152.561 357.05 160.264C357.05 167.968 350.811 174.206 343.106 174.206C335.401 174.206 329.162 167.968 329.162 160.264Z" fill="#FFDC7A"/>
<path d="M362.494 333.97C362.494 326.267 368.734 320.029 376.439 320.029C384.144 320.029 390.383 326.267 390.383 333.97C390.383 341.674 384.144 347.912 376.439 347.912C368.734 347.912 362.494 341.674 362.494 333.97Z" fill="#FFDC7A"/>
<g style="mix-blend-mode:multiply">
<path d="M481 234.034C481 356.076 381.673 455.385 259.608 455.385C204.04 455.385 150.272 434.2 109.612 396.813C111.538 396.813 113.506 396.897 115.391 396.897C211.535 396.897 289.757 318.731 289.757 222.604C289.757 176.718 272.044 133.385 239.926 100.645C230.044 90.5971 219.157 81.8469 207.473 74.6039C247.171 93.6534 280.922 125.221 301.189 164.367C322.504 205.522 328.324 254.004 318.149 298.635C312.119 325.011 343.19 344.479 363.918 327.146C399.134 297.672 423.631 253.753 431.169 207.992C438.246 165.079 432.509 121.411 418.481 80.0885C457.131 119.946 481 174.289 481 234.076" fill="#FFE1AD"/>
</g>
<g style="mix-blend-mode:multiply">
<path d="M452.944 299.682C433.932 354.109 390.048 399.284 336.155 419.798C282.262 440.313 219.45 435.792 170.372 405.396C206.133 391.58 242.69 377.555 281.006 375.796C306.34 374.624 332.428 378.811 356.715 371.484C395.952 359.677 420.365 321.536 452.944 299.682Z" fill="#FAD184"/>
</g>
<path d="M423.087 351.01C402.275 373.869 379.747 395.305 351.062 407.907C335.234 414.857 318.065 418.667 301.315 422.728C283.351 427.082 265.889 427.375 247.548 426.203C227.322 424.905 207.432 422.058 188.127 415.695C184.526 414.522 183.061 420.091 186.578 421.305C220.58 433.279 259.356 442.866 295.411 435.874C329.999 429.176 364.588 418.876 392.183 396.185C406.211 384.629 418.69 370.353 427.986 354.82C429.787 351.805 425.516 348.372 423.087 351.01Z" fill="#DB7D0E"/>
<path d="M443.27 328.611C442.349 327.606 440.925 327.271 439.627 327.439C438.832 327.522 438.036 327.857 437.324 328.276C436.403 328.862 435.565 329.532 434.895 330.369C434.225 331.249 433.555 332.086 432.885 333.007L430.122 336.943C429.745 337.571 429.535 338.199 429.493 338.91C429.326 339.622 429.368 340.334 429.577 341.004C429.912 342.218 430.875 343.558 432.006 344.186C433.22 344.814 434.728 345.148 436.11 344.73C436.528 344.562 436.947 344.395 437.366 344.186C438.162 343.725 438.79 343.097 439.25 342.302C440.046 341.129 440.842 339.957 441.637 338.827C442.056 338.24 442.433 337.654 442.81 337.068C443.019 336.775 443.187 336.482 443.354 336.147C443.647 335.477 444.024 334.849 444.192 334.137C444.359 333.468 444.485 332.756 444.527 332.086C444.61 330.788 444.108 329.574 443.27 328.653" fill="#DB7D0E"/>
<path d="M441.972 125.682C439.251 120.365 436.277 115.173 433.095 110.149C426.646 100.101 419.234 90.6811 411.027 82.0565C394.612 64.8492 373.884 51.9123 352.36 42.1154C348.257 40.2313 344.613 46.2602 348.759 48.228C369.529 58.1086 386.949 72.7202 402.526 89.467C410.148 97.673 417.057 106.549 423.045 116.011C425.976 120.616 428.698 125.389 431.211 130.246C433.891 135.437 435.733 141.257 439.502 145.82C442.224 149.128 448.547 146.49 448.212 142.22C447.709 136.316 444.652 130.915 441.972 125.682Z" fill="white" fill-opacity="0.5"/>
<path d="M456.252 169.726C456.084 168.428 455.791 167.214 455.54 165.958C455.373 165.246 455.038 164.618 454.577 164.116C454.2 163.529 453.698 163.069 453.028 162.692C452.399 162.273 451.729 162.064 451.018 162.064C450.306 161.897 449.552 161.938 448.84 162.148C447.5 162.566 446.244 163.404 445.574 164.66C445.406 165.078 445.197 165.539 445.03 165.958C444.778 166.921 444.778 167.884 445.03 168.847C445.323 170.061 445.574 171.317 445.951 172.489C446.244 173.452 446.663 174.373 447.081 175.336C447.207 175.587 447.291 175.88 447.458 176.131C447.626 176.383 447.835 176.676 448.003 176.927C448.421 177.555 448.966 178.141 449.636 178.56C450.013 178.727 450.348 178.853 450.724 179.02C451.353 179.188 451.939 179.23 452.525 179.104C452.944 179.104 453.321 179.02 453.656 178.811C454.033 178.685 454.368 178.518 454.661 178.225C455.373 177.68 456.126 176.801 456.294 175.88C456.461 174.875 456.629 173.871 456.629 172.866C456.629 171.819 456.461 170.814 456.294 169.768" fill="white" fill-opacity="0.5"/>
<g clip-path="url(#clip2_216_7)">
<path d="M150.649 88.0669C158.821 89.9757 160.163 98.8291 158.78 102.87C157.398 106.911 146.868 112.536 139.936 109.388C133.025 106.241 131.825 95.4583 138.127 91.0316C144.429 86.6049 144.225 86.544 150.649 88.0669Z" fill="#C70134"/>
<path d="M150.365 89.7929C152.804 90.3615 153.21 93.0216 152.804 94.2399C152.397 95.4583 149.247 97.1437 147.173 96.1893C145.1 95.2349 144.754 92.0063 146.624 90.6864C148.515 89.3665 148.454 89.3462 150.365 89.7929Z" fill="#FFB6B6"/>
<g style="mix-blend-mode:multiply" opacity="0.4">
<path d="M138.127 91.0316C141.867 88.4122 143.311 87.3359 145.201 87.1938C140.343 90.991 136.724 96.23 141.888 101.753C145.547 105.652 149.795 107.053 154.288 107.378C150.243 109.835 144.347 111.419 139.916 109.388C133.004 106.241 131.805 95.4583 138.107 91.0316H138.127Z" fill="#C70134"/>
</g>
<path d="M220.924 0.893287C229.075 2.80205 230.437 11.6555 229.055 15.6964C227.652 19.7373 217.143 25.362 210.211 22.2146C203.299 19.0672 202.1 8.28467 208.401 3.85796C214.703 -0.568745 214.5 -0.609357 220.924 0.893287Z" fill="#C70134"/>
<path d="M220.639 2.59896C223.078 3.16753 223.485 5.82762 223.078 7.04598C222.672 8.26434 219.521 9.94974 217.447 8.99535C215.374 8.06128 215.028 4.83262 216.899 3.49243C218.789 2.17254 218.728 2.15223 220.639 2.59896Z" fill="#FFB6B6"/>
<g style="mix-blend-mode:multiply" opacity="0.4">
<path d="M208.401 3.85798C212.142 1.2385 213.585 0.162284 215.476 0.0201416C210.617 3.81737 206.999 9.05631 212.162 14.5795C215.821 18.4783 220.07 19.8794 224.562 20.2043C220.517 22.6613 214.622 24.2452 210.19 22.2146C203.279 19.0672 202.079 8.28469 208.381 3.85798H208.401Z" fill="#C70134"/>
</g>
<path d="M263.917 24.7327C272.089 26.6415 273.431 35.4949 272.028 39.5358C270.646 43.5767 260.116 49.2217 253.184 46.054C246.272 42.8863 245.073 32.1038 251.375 27.6974C257.677 23.2707 257.473 23.2301 263.897 24.7327H263.917Z" fill="#C70134"/>
<path d="M263.633 26.4384C266.072 27.0273 266.479 29.667 266.072 30.8854C265.665 32.1038 262.515 33.7892 260.421 32.8348C258.347 31.9007 258.002 28.672 259.872 27.3318C261.762 26.012 261.701 25.9916 263.612 26.4384H263.633Z" fill="#FFB6B6"/>
<g style="mix-blend-mode:multiply" opacity="0.4">
<path d="M251.395 27.6771C255.136 25.0576 256.579 23.9814 258.469 23.8392C253.611 27.6365 249.993 32.8754 255.156 38.3986C258.815 42.2974 263.064 43.6985 267.556 44.0234C263.511 46.4804 257.616 48.0643 253.184 46.0337C246.272 42.866 245.073 32.0835 251.375 27.6771H251.395Z" fill="#C70134"/>
</g>
<path d="M226.128 34.6627C234.279 36.5714 235.641 45.4248 234.259 49.486C232.856 53.5269 222.347 59.1517 215.415 56.0043C208.503 52.8568 207.304 42.0743 213.605 37.6476C219.907 33.2209 219.704 33.1803 226.128 34.683V34.6627Z" fill="#C70134"/>
<path d="M225.843 36.3678C228.282 36.9364 228.689 39.5965 228.282 40.8148C227.855 42.0332 224.725 43.6983 222.651 42.7642C220.578 41.8301 220.232 38.6015 222.103 37.2613C223.993 35.9414 223.932 35.9211 225.843 36.3678Z" fill="#FFB6B6"/>
<g style="mix-blend-mode:multiply" opacity="0.4">
<path d="M213.605 37.6065C217.346 34.987 218.789 33.9108 220.68 33.7687C215.821 37.5659 212.203 42.8048 217.366 48.3281C221.025 52.2268 225.274 53.6076 229.766 53.9528C225.721 56.4099 219.826 57.9937 215.394 55.9631C208.483 52.8157 207.283 42.0332 213.585 37.6065H213.605Z" fill="#C70134"/>
</g>
</g>
<path d="M449.087 404.525C444.822 397.298 450.296 390.212 454.173 388.42C458.049 386.628 469.391 390.356 471.903 397.542C474.402 404.713 467.435 413.029 459.881 411.531C452.327 410.033 452.423 410.222 449.087 404.525Z" fill="#C70134"/>
<path d="M450.531 403.539C449.257 401.383 450.9 399.251 452.062 398.703C453.223 398.156 456.619 399.27 457.361 401.428C458.103 403.586 456.008 406.067 453.761 405.626C451.501 405.171 451.528 405.229 450.531 403.539Z" fill="#FFB6B6"/>
<g style="mix-blend-mode:multiply" opacity="0.4">
<path d="M459.881 411.531C455.403 410.637 453.628 410.336 452.219 409.068C458.321 409.957 464.608 408.954 465.035 401.406C465.326 396.067 463.404 392.027 460.536 388.554C465.107 389.782 470.324 392.95 471.918 397.557C474.416 404.729 467.449 413.044 459.895 411.546L459.881 411.531Z" fill="#C70134"/>
</g>
<path d="M469.711 476.355C467.09 471.914 470.454 467.559 472.837 466.458C475.219 465.356 482.189 467.647 483.733 472.064C485.269 476.471 480.987 481.581 476.344 480.661C471.702 479.74 471.761 479.856 469.711 476.355Z" fill="#C70134"/>
<path d="M470.599 475.749C469.816 474.424 470.825 473.114 471.539 472.778C472.253 472.441 474.34 473.126 474.796 474.452C475.252 475.779 473.964 477.303 472.584 477.032C471.195 476.752 471.212 476.788 470.599 475.749Z" fill="#FFB6B6"/>
<g style="mix-blend-mode:multiply" opacity="0.4">
<path d="M476.344 480.66C473.593 480.11 472.502 479.926 471.636 479.146C475.386 479.693 479.25 479.077 479.512 474.438C479.691 471.157 478.51 468.674 476.747 466.54C479.556 467.294 482.762 469.241 483.742 472.072C485.277 476.48 480.995 481.59 476.353 480.669L476.344 480.66Z" fill="#C70134"/>
</g>
<g clip-path="url(#clip3_216_7)">
<path d="M154.1 89.9743C162.334 81.501 172.795 76.7911 183.208 76.9988C193.791 77.2066 204.035 82.54 210.065 90.8055C223.65 87.8964 236.073 91.0595 245.3 99.856C250.579 104.889 254.986 112.924 251.547 120.474C249.392 125.207 244.573 128.624 237.235 130.609C226.217 133.588 213.963 132.941 203.332 128.878C197.23 132.018 190.498 133.588 183.862 133.588C176.234 133.588 168.775 131.51 162.721 127.4C150.928 129.316 139.958 128.67 130.077 125.484C123.539 123.383 119.398 120.127 117.751 115.856C115.983 111.238 117.315 105.72 121.432 100.71C128.915 91.5905 142.307 87.273 154.1 89.9743ZM124.701 113.432C125.525 115.602 128.14 117.403 132.451 118.788C141.556 121.72 151.8 122.205 162.963 120.173C164.029 119.989 165.119 120.243 165.966 120.889C175.217 127.908 190.013 128.347 201.153 121.905C201.734 121.559 202.412 121.397 203.066 121.397C203.575 121.397 204.083 121.489 204.567 121.697C214.036 125.738 225.2 126.5 235.177 123.798C238.688 122.852 243.168 121.005 244.718 117.634C246.68 113.362 243.435 108.075 240.045 104.866C232.198 97.3856 221.301 95.0537 209.362 98.2629C207.716 98.7016 205.972 98.032 205.124 96.6006C200.693 89.1431 192.023 84.2254 183.039 84.0638C182.869 84.0638 182.724 84.0638 182.555 84.0638C173.885 84.0638 164.998 88.4736 158.12 96.2543C157.127 97.3625 155.553 97.7781 154.1 97.3163C144.656 94.3149 133.347 97.5703 127.22 105.051C124.75 108.052 123.805 111.192 124.653 113.409L124.701 113.432Z" fill="#FFDC7A"/>
</g>
<g clip-path="url(#clip4_216_7)">
<path d="M287.602 201.553L271.234 235.052C257.833 243.926 249.991 259.355 236.947 268.739C223.212 278.623 205.243 280.656 188.374 279.331C183.367 278.939 178.328 278.25 173.392 277.169C173.25 255.755 191.027 250.455 191.582 250.292C171.067 252.574 166.975 268.358 166.171 275.263C164.146 274.637 162.15 273.93 160.193 273.136C160.043 273.073 159.894 273.015 159.744 272.949C154.226 270.667 149.048 267.693 144.433 263.862C142.59 262.332 140.854 260.636 139.266 258.816C139.153 258.692 139.045 258.566 138.94 258.443C137.328 256.568 135.863 254.556 134.569 252.448C136.05 242.929 142.85 237.904 143.082 237.736C138.672 240.003 134.574 246.074 132.739 249.169C131.879 247.462 131.127 245.708 130.498 243.918C137.438 229.814 151.699 226.164 151.699 226.164C139.027 227.458 130.801 234.52 128.668 236.553C128.292 233.981 128.184 231.386 128.381 228.804C128.397 228.57 128.416 228.339 128.439 228.105C128.647 225.959 129.065 223.824 129.717 221.728C131.929 214.624 136.618 208.487 142.569 203.977C142.811 203.791 143.053 203.612 143.297 203.436C145.685 201.703 148.267 200.23 150.963 199.055C160.761 194.787 171.909 194.22 182.412 196.184C189.628 197.535 196.657 200.036 203.986 200.451C214.077 201.014 223.922 197.59 233.416 194.12C242.909 190.651 252.65 187.041 262.753 187.22C263.161 187.228 263.566 187.241 263.973 187.267H263.976C263.976 187.267 263.979 187.265 263.984 187.267C264.98 187.32 265.982 187.423 266.979 187.572C266.982 187.57 266.987 187.572 266.99 187.572C275.715 188.848 284.136 193.575 287.604 201.55L287.602 201.553Z" fill="#242241"/>
<path d="M297.426 214.65C293.837 204.871 287.257 195.787 279.076 195.461L247.422 285.102C254.009 274.95 264.554 271.566 274.256 267.89C283.957 264.214 294.413 258.671 298.867 246.639C302.544 236.711 301.076 224.592 297.426 214.647V214.65Z" fill="#242241"/>
<path d="M249.526 254.412C249.526 254.412 247.535 246.318 234.775 248.022C220.551 249.923 191.592 286.546 166.662 293.24C124.694 304.512 116.926 309.248 118.031 313.515C118.767 316.36 141.722 324.683 176.048 314.501C191.59 309.892 207.986 303.603 221.913 297.242C248.479 285.11 249.523 254.412 249.523 254.412H249.526Z" fill="#75ACF2"/>
<path d="M76.0074 363.771L35.6646 386.965C33.5161 388.201 33.4293 391.277 35.5121 392.618C38.2181 394.359 42.2679 395.534 47.1724 392.537C56.337 386.939 64.7732 393.468 69.6961 390.972C74.6216 388.477 74.6847 383.534 75.3237 379.695C76.2099 374.37 93.4505 365.827 93.4505 365.827L76.0048 363.771H76.0074Z" fill="#242241"/>
<path d="M161.979 457.036C161.979 457.036 176.463 473.183 169.758 494.255C168.924 496.877 165.079 506.038 168.23 506.84C172.54 507.936 177.994 503.243 180.703 500.116C183.351 497.061 184.815 496.703 184.939 490.869C185.194 478.952 193.594 475.689 190.291 470.53C186.985 465.371 180.776 465.987 177.444 453.891C176.761 451.407 173.792 427.747 173.792 427.747L161.976 457.033L161.979 457.036Z" fill="#242241"/>
<path d="M260.194 361.045C221.229 387.788 187.23 371.425 164.23 352.943C159.294 348.983 154.865 344.921 151.008 341.169C147.802 338.053 144.988 335.15 142.598 332.689C124.026 313.579 115.277 307.16 131.366 300.127C155.239 289.688 217.585 339.657 242.898 343.065C262.038 345.644 260.194 361.045 260.194 361.045Z" fill="#FF6576"/>
<path d="M125.281 304.036C78.1954 357.4 63.7266 370.834 63.7266 370.834C63.7266 370.834 72.0549 382.088 84.9696 379.174C84.9696 379.174 90.7971 370.566 106.281 362.393C166.265 330.738 143.055 330.181 145.909 322.582C148.225 316.405 133.701 294.497 125.281 304.036Z" fill="#FF6576"/>
<path opacity="0.5" d="M209.372 341.406L164.23 352.943C159.294 348.983 154.865 344.921 151.008 341.169C151.008 341.169 167.367 344.887 183.732 339.486C195.095 335.734 209.375 341.406 209.375 341.406H209.372Z" fill="#E64260"/>
<path d="M233.857 333.044C216.722 336.746 148.099 342.82 125.428 370.973C108.506 391.99 152.496 395.211 160.406 393.394C201.499 383.957 230.042 387.078 246.93 382.064C270.379 375.104 268.702 347.351 259.095 325.477C259.095 325.477 252.734 328.966 233.855 333.044H233.857Z" fill="#FF6576"/>
<path d="M122.228 382.082C139.863 437.281 161.695 469.833 161.695 469.833C161.695 469.833 180.519 472.473 184.271 461.885C184.271 461.885 176.729 440.802 174.87 421.166C172.369 394.748 166.447 393.31 174.084 390.715C180.329 388.593 118.357 369.961 122.23 382.082H122.228Z" fill="#FF6576"/>
<path d="M257.478 320.786C264.878 295.496 283.454 264.751 277.866 260.157C272.278 255.563 268.862 254.735 263.934 250.873C257.846 246.098 257.646 245.104 244.597 247.084C231.559 249.061 233.055 249.571 233.055 249.571C233.055 249.571 216.967 274.072 214.592 280.501C210.937 290.393 215.736 294.442 215.736 294.442C215.736 294.442 219.005 313.6 218.31 321.535C218.108 323.849 217.298 331.593 217.298 331.593L263.589 338.758C263.589 338.758 255.45 327.701 257.475 320.786H257.478Z" fill="#FABBA5"/>
<path d="M272.278 294.615C272.278 294.615 260.405 316.894 258.793 320.46C258.611 320.859 258.574 321.351 258.645 321.922C259.206 326.45 266.611 335.705 263.589 338.76C262.703 339.657 258.937 339.646 253.857 339.142C253.857 339.142 253.854 339.142 253.849 339.142L253.828 339.136C253.807 339.136 253.78 339.131 253.744 339.128C252.889 339.042 251.992 338.942 251.069 338.829C250.843 338.802 250.606 338.774 250.359 338.745C235.783 336.912 235.477 339.486 235.477 339.486C235.477 339.486 209.298 336.226 208.772 328.498C209.167 327.827 218.537 321.54 217.458 315.319V315.314C215.754 305.443 215.736 294.776 215.739 294.45C215.739 294.444 215.739 294.442 215.739 294.442C215.739 294.442 215.736 294.442 215.728 294.434C215.591 294.345 214.04 293.274 212.896 291.197C211.339 288.381 210.534 283.711 215.031 277.125C219.823 270.109 226.268 254.004 232.706 248.638C233.865 247.67 244.703 247.002 244.703 247.002C244.703 247.002 227.901 271.958 230.147 276.914C232.359 281.797 248.224 271.387 257.825 262.266C258.993 261.156 266.863 254.903 269.107 254.212C269.22 254.178 274.371 256.96 279.975 261.13C282.397 262.931 285.498 270.015 272.278 294.618V294.615Z" fill="#75ACF2"/>
<path d="M275.662 327.499C275.662 327.499 272.57 299.448 266.216 292.241C259.863 285.034 280.396 282.888 287.344 287.642C294.289 292.399 298.652 328.059 286.581 343.456L275.662 327.499Z" fill="#FABBA5"/>
<path d="M253.076 207.159C253.076 207.159 253.218 199.547 261.996 196.631C270.774 193.712 275.273 194.135 280.904 198.579C286.531 203.023 294.441 207.151 295.84 214.143C298.007 224.976 291.646 236.826 280.204 242.219C268.762 247.612 263.324 239.266 258.435 238.975C253.546 238.683 253.078 207.159 253.078 207.159H253.076Z" fill="#242241"/>
<path d="M262.311 256.96C262.311 256.96 252.652 261.382 243.601 254.441C243.601 254.441 246.033 249.479 247.422 244.339C247.987 242.24 249.825 236.348 249.986 234.034C250.264 233.845 250.58 233.666 250.914 233.498H250.919C256.26 230.821 267.81 230.731 267.923 230.731C267.852 230.797 265.598 232.835 263.971 236.666C263.634 237.455 263.324 238.322 263.063 239.266C262.779 240.287 262.561 241.396 262.43 242.59C261.593 250.31 262.311 256.96 262.311 256.96Z" fill="#FABBA5"/>
<path d="M263.063 239.266C257.888 243.476 248.374 241.591 248.2 241.604C248.765 239.506 249.825 236.348 249.986 234.034C249.999 233.879 250.001 233.739 249.996 233.618C250.296 233.563 250.601 233.524 250.914 233.497H250.919C255.626 233.098 261.801 235.732 263.968 236.669C263.631 237.457 263.321 238.325 263.061 239.269L263.063 239.266Z" fill="#E58F78"/>
<path d="M260.894 239.537C249.065 239.482 242.128 233.487 240.787 231.589C239.446 229.69 240.634 228.076 241.302 221.983C241.763 217.784 243.414 214.781 245.218 212.965C246.031 212.144 246.875 211.568 247.656 211.229C247.9 211.124 248.113 211.019 248.303 210.914C250.065 209.938 249.71 208.915 251.566 206.283C252 205.668 252.794 205.063 253.778 204.49C254.214 204.238 254.69 203.988 255.187 203.748C258.866 201.976 263.771 200.677 263.771 200.677C282.474 201.684 283.944 218.636 281.185 223.945C278.424 229.251 272.722 239.59 260.894 239.535V239.537Z" fill="#FABBA5"/>
<path d="M270.855 218.547C270.855 218.547 271.978 214.316 264.815 211.374C260.557 209.623 259.842 211.697 262.067 212.97C264.294 214.245 266.366 212.759 270.853 218.547H270.855Z" fill="#752D4B"/>
<path d="M254.79 207.598C254.12 206.83 254.117 205.331 253.78 204.493C254.217 204.24 254.693 203.99 255.19 203.751C255.437 203.951 255.674 204.238 255.895 204.637C257.415 207.385 255.908 208.881 254.79 207.598Z" fill="#752D4B"/>
<path d="M253.799 212.533C254.914 212.194 251.103 211.739 250.491 210.748C249.928 209.841 250.12 208.4 249.352 207.685C249.155 207.501 248.847 207.721 248.95 207.969C249.126 208.403 249.305 209.028 249.289 209.78C249.26 211.255 250.748 213.456 253.799 212.531V212.533Z" fill="#752D4B"/>
<path d="M258.309 217.224C258.701 216.501 259.95 217.353 260.66 217.766C260.831 217.866 261.002 217.974 261.167 218.084C261.688 218.428 262.19 218.799 262.748 219.081C263.229 219.325 263.745 219.488 264.273 219.577C265.854 219.84 267.555 219.422 268.788 218.389C268.717 218.465 266.337 221.526 262.511 220.75C259.732 220.185 258.022 217.75 258.306 217.227L258.309 217.224Z" fill="#752D4B"/>
<g opacity="0.2">
<path d="M267.268 226.572C266.829 225.141 265.622 223.866 264.131 223.259C263.313 222.925 262.498 222.591 261.68 222.257C260.073 221.602 258.354 220.926 256.868 221.273C256.442 221.373 256.068 221.578 255.832 221.904C255.245 222.717 255.818 223.658 256.447 224.447C258.135 226.566 260.492 228.283 262.998 229.217C263.397 229.367 263.808 229.493 264.22 229.593C266.351 230.103 267.886 228.575 267.268 226.572Z" fill="#ED4C62"/>
</g>
<g opacity="0.2">
<path d="M248.986 215.036C248.558 215.552 248.082 215.502 247.685 215.384C246.62 215.068 245.77 214.3 245.328 213.254C245.289 213.162 245.255 213.067 245.223 212.967C246.036 212.147 246.88 211.571 247.661 211.232C247.906 211.127 248.119 211.021 248.308 210.916C248.35 210.977 248.389 211.042 248.421 211.111C248.579 211.445 248.739 211.779 248.9 212.113C249.213 212.767 249.533 213.48 249.334 214.337C249.276 214.584 249.163 214.829 248.992 215.036H248.986Z" fill="#ED4C62"/>
</g>
<path d="M255.671 209.228C256.337 210.659 255.853 212.276 254.806 213.396C253.528 214.768 251.59 215.252 249.836 215.67C249.013 215.865 247.874 216.141 247.787 217.161C247.69 218.302 248.85 219.669 249.52 220.466C249.665 220.637 249.946 220.432 249.802 220.258C249.241 219.593 248.542 218.747 248.292 217.9C247.782 216.157 249.649 216.091 250.74 215.81C251.963 215.497 253.183 215.092 254.222 214.353C255.863 213.188 256.894 211.029 255.995 209.099C255.9 208.897 255.574 209.023 255.669 209.228H255.671Z" fill="#E58F78"/>
<path d="M258.088 333.554C258.088 333.554 244.408 333.793 233.944 332.636C222.016 331.319 221.787 330.951 216.946 333.438C211.008 336.489 208.833 340.68 209.369 341.403C209.856 342.06 212.165 339.786 213.096 339.178C215.368 337.698 217.477 337.204 217.477 337.204C217.477 337.204 215.281 339.231 214.29 340.901C213.514 342.21 211.523 346.94 211.831 347.203C212.933 348.15 214.589 345.005 216.507 342.583C217.866 340.869 222.534 338.834 222.534 338.834C222.534 338.834 219.857 341.461 218.852 343.08C217.735 344.882 216.68 349.722 217.188 350.059C218.061 350.64 219.305 347.953 221.09 345.665C222.523 343.832 226.549 342.173 226.549 342.173C226.549 342.173 225.264 344.479 224.935 346.096C224.609 347.713 224.688 350.882 225.264 350.721C226.329 350.422 226.72 349.167 227.457 346.567C227.875 345.087 231.062 343.27 233.66 343.733C234.155 343.822 238.286 345.644 242.896 343.065C247.506 340.485 258.088 333.551 258.088 333.551V333.554Z" fill="#FABBA5"/>
<g opacity="0.2">
<path d="M242.367 226.816C243.706 227.208 244.821 227.973 245.641 229.104C245.907 229.467 245.336 229.874 245.071 229.509C244.366 228.538 243.406 227.842 242.249 227.505C241.82 227.379 241.933 226.69 242.365 226.816H242.367Z" fill="#FF6576"/>
</g>
<g opacity="0.2">
<path d="M249.255 217.356C249.978 218.131 250.554 219.004 250.985 219.972C251.167 220.382 250.538 220.69 250.357 220.277C249.949 219.362 249.412 218.549 248.731 217.816C248.424 217.487 248.95 217.024 249.257 217.356H249.255Z" fill="#FF6576"/>
</g>
<path d="M270.839 203.612C270.839 203.612 275.415 206.528 274.376 212.428C273.34 218.329 273.674 227.513 274.405 228.901C275.136 230.29 269.227 234.252 269.227 234.252C269.227 234.252 268.473 238.52 263.011 239.435C263.011 239.435 269.575 241.743 274.114 239.661C278.652 237.581 285.413 222.412 285.413 215.807C285.413 209.204 278.947 202.247 276.409 201.516C273.869 200.785 270.842 203.609 270.842 203.609L270.839 203.612Z" fill="#242241"/>
<path d="M270.616 226.193C270.616 226.193 276.735 224.132 277.808 228.099C278.881 232.067 273.419 233.526 271.344 234.102C269.122 234.718 268.494 234.242 266.982 232.283C265.47 230.324 270.619 226.193 270.619 226.193H270.616Z" fill="#FABBA5"/>
<path d="M267.5 231.867C267.316 234.052 269.732 234.334 271.284 233.931C272.517 233.611 273.827 233.079 274.937 232.456C276.507 231.575 278.353 229.924 277.482 227.907C276.846 226.432 275.244 225.938 273.759 226.135C273.527 226.167 273.459 225.809 273.69 225.78C275.276 225.567 276.948 226.064 277.722 227.576C278.642 229.377 277.509 231.107 276.041 232.185C274.477 233.334 272.041 234.452 270.053 234.497C268.507 234.531 266.998 233.505 267.137 231.844C267.155 231.612 267.518 231.633 267.5 231.867Z" fill="#E58F78"/>
<path d="M275.265 227.91C274.721 227.713 274.171 227.718 273.619 227.928C273.183 228.328 272.883 228.799 272.712 229.343C272.607 229.453 272.528 229.595 272.402 229.695C271.636 230.308 269.598 229.564 269.299 230.808C269.243 231.034 268.899 230.918 268.954 230.692C269.086 230.153 269.399 229.853 269.932 229.698C271.089 229.361 271.742 230.05 272.567 228.662C273.248 227.516 274.037 227.205 275.381 227.566C275.607 227.626 275.492 227.97 275.265 227.91Z" fill="#E58F78"/>
<path d="M270.84 203.612C270.84 203.612 266.061 200.304 259.177 202.213C258.517 202.397 257.878 202.542 257.323 202.823C252.889 205.063 266.995 191.311 276.407 201.519C285.816 211.726 270.84 203.612 270.84 203.612Z" fill="#242241"/>
<path d="M269.106 254.209C269.106 254.209 281.516 260.559 286.221 265.6C290.928 270.64 291.975 282.938 295.351 295.031C298.728 307.123 300.114 333.949 288.091 347.577C276.067 361.205 245.557 349.081 242.896 343.065C242.896 343.065 246.173 335.949 243.388 330.199L262.267 303.758L269.104 254.209H269.106Z" fill="#75ACF2"/>
<path d="M243.764 330.756C245.578 324.843 252.642 325.09 257.609 325.127C264.078 325.174 271.155 322.739 277.143 326.234C277.343 326.35 277.193 326.681 276.99 326.563C271.457 323.334 265.078 325.314 259.1 325.477C254.025 325.616 246.062 324.493 244.124 330.814C244.056 331.035 243.698 330.977 243.766 330.756H243.764Z" fill="#4B83DB"/>
<path d="M268.983 324.354C270.987 322.813 273.143 321.527 275.447 320.489C275.66 320.391 275.783 320.733 275.573 320.828C273.296 321.856 271.173 323.129 269.193 324.651C269.009 324.793 268.801 324.496 268.986 324.354H268.983Z" fill="#4B83DB"/>
<path d="M268.872 324.362C269.656 322.261 269.149 320.007 268.744 317.88C268.341 315.779 268.018 313.665 267.792 311.541C267.353 307.415 267.266 303.266 267.492 299.125C267.505 298.891 267.863 298.954 267.85 299.183C267.597 303.808 267.744 308.446 268.333 313.042C268.607 315.185 269.046 317.294 269.398 319.424C269.682 321.141 269.822 322.855 269.201 324.514C269.12 324.733 268.791 324.58 268.872 324.362Z" fill="#4B83DB"/>
<path d="M246.428 302.112C241.102 304.434 234.865 303.726 230.184 300.287C229.997 300.148 230.231 299.872 230.418 300.011C234.996 303.374 241.097 304.042 246.301 301.773C246.517 301.678 246.641 302.02 246.428 302.112Z" fill="#4B83DB"/>
<path opacity="0.5" d="M267.581 307.481C267.318 304.002 268.281 317.065 262.548 320.494C256.818 323.925 250.254 325.695 250.254 325.695C250.254 325.695 261.475 324.683 269.038 324.438C270.984 324.375 268.034 313.437 267.581 307.481Z" fill="#4B83DB"/>
<path d="M287.396 268.011C284.054 267.769 280.446 267.522 277.314 268.963C273.898 270.535 271.689 274.18 270.103 277.437C266.924 283.969 266.114 291.513 267.8 298.573C267.684 298.599 267.565 298.625 267.45 298.654C267.46 297.534 267.471 296.414 267.481 295.296C267.481 295.065 267.844 295.028 267.842 295.262C267.831 296.382 267.821 297.502 267.81 298.62C267.81 298.807 267.51 298.917 267.46 298.701C265.68 291.242 266.627 283.254 270.198 276.451C271.81 273.38 273.932 270.122 277.188 268.626C280.378 267.162 284.046 267.409 287.454 267.656C287.688 267.672 287.628 268.032 287.396 268.014V268.011Z" fill="#4B83DB"/>
<path d="M280.222 267.483C277.522 262.687 273.722 258.666 269.067 255.724C268.873 255.6 269.022 255.269 269.22 255.395C273.929 258.374 277.785 262.418 280.52 267.275C280.633 267.477 280.338 267.688 280.222 267.483Z" fill="#4B83DB"/>
<path d="M221.876 264.206C219.765 269.37 216.417 273.927 214.048 278.97C212.885 281.445 211.81 284.156 211.857 286.932C211.91 290.045 213.39 293.222 216.472 294.3C216.693 294.376 216.541 294.705 216.32 294.628C210.7 292.662 210.963 285.741 212.707 281.171C215.008 275.145 219.107 270.012 221.542 264.054C221.632 263.838 221.961 263.991 221.871 264.206H221.876Z" fill="#4B83DB"/>
<path d="M249.594 354.823C249.781 357.845 249.862 361.218 248.282 363.919C246.609 366.774 243.438 367.56 240.345 367.663C237.329 367.76 234.297 367.513 231.28 367.481C227.904 367.447 224.527 367.494 221.151 367.621C214.676 367.865 208.102 368.215 201.748 369.548C195.624 370.834 190.13 373.626 184.387 375.993C178.386 378.464 172.119 379.508 165.805 380.836C163.196 381.383 159.98 381.783 157.671 383.189C155.965 384.231 155.988 385.7 156.798 387.341C157.169 388.093 157.535 388.422 157.051 389.234C156.625 389.95 156.259 389.855 155.662 390.27C155.005 390.728 154.721 391.433 154.692 392.219C154.655 393.247 155.036 394.27 155.42 395.203C156.096 396.839 156.74 398.429 157.185 400.146C158.702 406.034 158.771 412.242 159.552 418.25C161.135 430.445 164.193 442.787 171.904 452.645C172.219 453.05 172.774 452.477 172.464 452.077C165.277 442.89 162.2 431.378 160.588 420.012C159.794 414.403 159.573 408.708 158.621 403.126C158.126 400.217 157.243 397.551 156.13 394.832C155.841 394.128 155.436 393.205 155.497 392.429C155.612 390.928 156.443 390.912 157.34 390.423C157.866 390.136 158.229 389.702 158.266 389.087C158.308 388.38 157.863 387.699 157.566 387.094C157.209 386.368 156.74 385.595 157.151 384.738C157.569 383.865 158.86 383.465 159.699 383.2C162.673 382.251 165.753 381.641 168.811 381.041C174.83 379.863 180.595 378.504 186.246 376.066C192.145 373.521 197.83 370.978 204.21 369.89C210.795 368.767 217.566 368.481 224.235 368.325C227.917 368.239 231.604 368.249 235.286 368.354C238.126 368.436 241.066 368.725 243.853 368.018C249.975 366.461 250.725 360.19 250.391 354.808C250.359 354.298 249.562 354.308 249.594 354.823Z" fill="#E64260"/>
<path d="M241.97 346.254C242.562 348.358 244.061 349.83 245.773 351.1C248.187 352.891 250.875 354.271 253.688 355.312C254.17 355.491 254.419 354.734 253.938 354.555C251.556 353.674 249.289 352.544 247.182 351.121C245.302 349.849 243.39 348.366 242.749 346.088C242.609 345.597 241.828 345.757 241.968 346.254H241.97Z" fill="#E64260"/>
<path d="M162.71 388.014C165.158 390.452 168.309 391.806 171.761 391.924C172.274 391.943 172.258 391.143 171.746 391.128C168.506 391.017 165.566 389.734 163.27 387.446C162.905 387.083 162.347 387.651 162.71 388.014Z" fill="#E64260"/>
<path d="M167.191 393.063C168.601 392.892 169.984 392.605 171.341 392.192C171.83 392.043 171.614 391.277 171.12 391.427C169.829 391.819 168.516 392.103 167.173 392.269C166.668 392.329 166.678 393.129 167.188 393.065L167.191 393.063Z" fill="#E64260"/>
<path d="M251.808 225.98C251.75 225.983 251.69 225.964 251.629 225.946C250.567 225.691 249.512 224.476 249.105 223.487C248.645 222.399 247.167 222.549 247.167 222.549H247.159C247.064 222.083 246.806 221.81 246.493 221.66C245.681 221.279 244.458 221.676 244.379 221.705C244.371 221.702 244.369 221.707 244.369 221.707C244.369 221.707 244.358 221.718 244.35 221.734C244.332 221.762 244.303 221.81 244.269 221.881C244.248 221.915 244.232 221.954 244.203 221.999C243.724 222.938 242.544 225.856 245.731 227.242C248.797 228.583 250.964 226.974 251.698 226.282C251.748 226.235 251.79 226.201 251.821 226.164C251.824 226.156 251.832 226.154 251.832 226.146C251.834 226.096 251.824 226.046 251.813 226.004L251.805 225.977L251.808 225.98Z" fill="#FF6576"/>
<path d="M251.845 226.159C251.845 226.159 251.834 226.161 251.824 226.167C251.779 226.156 251.732 226.156 251.677 226.151C248.75 225.88 245.981 224.334 244.271 221.881C244.253 221.86 244.245 221.844 244.227 221.823C244.216 221.802 244.211 221.789 244.219 221.768C244.216 221.765 244.219 221.765 244.219 221.76C244.24 221.752 244.258 221.739 244.274 221.715H244.29C244.29 221.715 244.292 221.718 244.292 221.715C244.311 221.715 244.329 221.718 244.35 221.734C244.358 221.736 244.366 221.744 244.366 221.755C246.036 224.171 248.755 225.717 251.637 225.988C251.695 225.996 251.761 225.996 251.816 226.004C251.826 226.048 251.837 226.096 251.834 226.143C251.834 226.143 251.842 226.146 251.845 226.159Z" fill="#F13A56"/>
<path d="M244.398 221.252C244.361 221.505 244.153 221.686 243.906 221.718C243.806 221.731 243.843 221.881 243.94 221.87C244.263 221.831 244.505 221.576 244.553 221.26C244.568 221.16 244.411 221.158 244.398 221.255V221.252Z" fill="#F13A56"/>
<path d="M251.879 226.727C251.879 226.827 251.721 226.827 251.729 226.719C251.732 226.577 251.729 226.427 251.7 226.282C251.7 226.235 251.692 226.188 251.679 226.151C251.669 226.085 251.661 226.033 251.64 225.991C251.648 225.964 251.64 225.951 251.632 225.946C251.621 225.88 251.611 225.825 251.592 225.775C251.558 225.688 251.713 225.646 251.745 225.746C251.771 225.83 251.792 225.904 251.811 225.98C251.813 225.996 251.819 226.006 251.819 226.006C251.829 226.051 251.84 226.098 251.837 226.146C251.837 226.146 251.845 226.148 251.848 226.161C251.876 226.348 251.884 226.537 251.882 226.729L251.879 226.727Z" fill="#F13A56"/>
<path d="M247.724 225.693L247.653 225.57C247.048 225.202 246.433 224.826 245.957 224.302C245.775 224.105 245.61 223.882 245.376 223.756C245.139 223.629 244.802 223.64 244.65 223.858C244.503 224.071 244.592 224.363 244.713 224.592C245.11 225.331 245.802 225.875 246.546 226.264C246.822 226.409 247.153 226.537 247.437 226.409C247.695 226.293 247.829 225.959 247.724 225.696V225.693Z" fill="#FF8091"/>
<path d="M167.152 192.237C172.085 190.959 177.213 191.169 182.12 192.484C186.541 193.667 190.654 195.666 195.148 196.654C202.443 198.256 209.911 198.011 217.174 196.378C231.123 193.244 244.4 185.311 259.093 186.539C268.299 187.309 277.359 191.432 282.823 199.071C282.994 199.307 283.391 199.081 283.218 198.839C278.789 192.65 272.041 188.677 264.689 186.96C257.202 185.209 249.683 186.024 242.341 188.035C235.249 189.978 228.443 192.821 221.372 194.83C213.514 197.065 205.388 198.035 197.286 196.61C192.037 195.687 187.337 193.407 182.238 192.04C177.258 190.707 172.035 190.496 167.028 191.793C166.744 191.866 166.865 192.308 167.149 192.234L167.152 192.237Z" fill="#242241"/>
<path d="M124.61 304.202C121.841 301.665 120.39 301.299 119.138 302.667C117.886 304.031 118.299 304.844 121.068 307.384C123.837 309.921 127.061 312.448 128.313 311.081C129.565 309.716 127.379 306.742 124.61 304.205V304.202Z" fill="#FFAF9B"/>
<path d="M123.458 309.684C120.879 305.88 119.385 304.944 117.852 305.985C116.319 307.023 116.642 308.07 119.219 311.875C121.799 315.679 124.863 319.639 126.399 318.601C127.934 317.562 126.038 313.492 123.458 309.687V309.684Z" fill="#FFAF9B"/>
<path d="M119.835 310.86C116.619 307.912 115.012 307.405 113.757 308.769C112.506 310.134 113.021 311.041 116.237 313.989C119.453 316.936 123.161 319.908 124.416 318.543C125.667 317.178 123.051 313.81 119.835 310.86Z" fill="#FFAF9B"/>
<path d="M117.226 313.555C114.914 311.436 113.694 311.141 112.627 312.306C111.559 313.471 111.901 314.154 114.212 316.271C116.524 318.39 119.217 320.494 120.287 319.329C121.355 318.164 119.54 315.674 117.229 313.555H117.226Z" fill="#FFAF9B"/>
<path d="M123.664 309.813C122.499 308.396 121.197 307.126 119.758 305.985C119.553 305.822 119.829 305.519 120.035 305.682C121.502 306.847 122.817 308.146 124.008 309.592C124.174 309.795 123.829 310.016 123.664 309.813Z" fill="#FB8671"/>
<path d="M124.374 318.13C124.679 316.232 121.802 313.623 120.655 312.432C119.522 311.254 118.22 310.242 117.189 308.967C117.024 308.761 117.371 308.543 117.534 308.746C119.035 310.605 120.987 312.064 122.522 313.91C123.501 315.085 125.042 316.544 124.773 318.212C124.731 318.472 124.332 318.388 124.374 318.13Z" fill="#FB8671"/>
<path d="M120.39 317.691C118.323 315.569 116.24 313.471 113.936 311.604C113.731 311.438 114.007 311.136 114.212 311.301C116.516 313.168 118.596 315.269 120.666 317.389C120.85 317.575 120.574 317.88 120.39 317.691Z" fill="#FB8671"/>
<g opacity="0.5">
<path d="M75.8655 374.307C83.4733 371.654 88.2042 364.894 93.4137 359.172C96.3696 355.928 99.5936 353.138 103.417 350.953C107.399 348.678 111.662 346.948 115.693 344.766C119.577 342.665 123.093 340.107 125.909 336.675C128.855 333.083 131.064 328.982 133.57 325.09C134.588 323.51 136.752 319.082 139.048 319.981C140.376 320.502 140.857 322.311 141.969 323.142C142.845 323.796 143.786 323.694 144.615 323.018C145.185 322.55 145.509 321.766 146.093 321.341C147.202 320.531 147.799 322.169 148.399 322.923C151.115 326.323 155.831 327.201 159.791 328.301C165.597 329.91 171.125 332.35 176.261 335.497C176.705 335.768 177.11 335.071 176.669 334.803C172.38 332.176 167.814 330.025 163.036 328.443C158.779 327.033 153.556 326.534 150.058 323.491C149.23 322.771 148.741 321.893 148.118 321.017C147.823 320.602 147.5 320.215 146.968 320.134C145.709 319.939 145.043 321.509 144.294 322.221C142.556 323.875 141.467 321.143 140.447 320.063C139.571 319.137 138.427 318.695 137.223 319.311C135.576 320.152 134.435 322.324 133.457 323.794C132.131 325.792 130.911 327.856 129.646 329.891C127.001 334.148 124.1 338.192 119.998 341.161C112.682 346.457 103.551 348.634 96.7272 354.705C89.7426 360.921 84.9065 370.297 75.6499 373.529C75.1634 373.7 75.3737 374.478 75.8629 374.305L75.8655 374.307Z" fill="#E64260"/>
</g>
<g opacity="0.5">
<path d="M146.285 336.191C147.208 334.435 147.926 332.602 148.43 330.683C148.562 330.181 147.786 329.968 147.655 330.47C147.168 332.324 146.484 334.091 145.59 335.787C145.348 336.244 146.045 336.652 146.285 336.194V336.191Z" fill="#E64260"/>
</g>
</g>
<defs>
<clipPath id="clip0_216_7">
<rect width="135.758" height="56.5657" fill="white" transform="translate(361.242 353.846)"/>
</clipPath>
<clipPath id="clip1_216_7">
<rect width="107.475" height="45.2525" fill="white" transform="translate(0 386)"/>
</clipPath>
<clipPath id="clip2_216_7">
<rect width="138.516" height="110.323" fill="white" transform="matrix(-1 0 0 1 272.516 0)"/>
</clipPath>
<clipPath id="clip3_216_7">
<rect width="135.758" height="56.5657" fill="white" transform="matrix(-1 0 0 1 252.758 76.9999)"/>
</clipPath>
<clipPath id="clip4_216_7">
<rect width="267" height="321" fill="white" transform="translate(34 186)"/>
</clipPath>
</defs>
</svg>