<svg width="360" height="74" viewBox="0 0 360 74" fill="none" xmlns="http://www.w3.org/2000/svg">
<g clip-path="url(#clip0_56_9952)">
<path opacity="0.1" d="M222.577 65.745C222.362 70.5198 218.333 74.2065 213.575 73.9907C208.817 73.7749 205.144 69.7318 205.359 64.9571C205.574 60.1823 209.603 56.4956 214.361 56.7114C219.119 56.9272 222.792 60.9703 222.577 65.745Z" fill="white"/>
<path d="M215.613 57.3024C215.576 58.2217 214.968 58.944 214.258 58.9065C213.547 58.8784 213.015 58.0998 213.052 57.1805C213.089 56.2611 213.697 55.5388 214.407 55.5763C215.118 55.6045 215.651 56.3831 215.613 57.3024Z" fill="#162B1D"/>
<path d="M212.268 57.1471L212.141 59.9866L216.259 60.1728L216.386 57.3333L212.268 57.1471Z" fill="#122417"/>
<path d="M218.539 64.3944C218.427 66.9366 214.529 69.4037 213.79 69.3756C213.052 69.3381 209.388 66.5332 209.5 63.9911C209.612 61.4489 211.706 60.0605 214.202 60.1731C216.698 60.2857 218.651 61.8616 218.539 64.4038V64.3944Z" fill="#EACD00"/>
<path d="M213.257 63.1467C213.22 63.9159 212.566 64.5163 211.799 64.4788C211.033 64.4412 210.434 63.7846 210.472 63.0154C210.509 62.2462 211.164 61.6458 211.93 61.6833C212.697 61.7208 213.295 62.3775 213.257 63.1467Z" fill="white"/>
<path d="M212.865 65.8953C212.846 66.2893 212.51 66.5989 212.117 66.5801C211.725 66.5613 211.416 66.2236 211.435 65.8296C211.454 65.4357 211.79 65.1261 212.183 65.1449C212.575 65.1636 212.884 65.5013 212.865 65.8953Z" fill="white"/>
<path opacity="0.16" d="M212.837 60.9141C215.641 61.0454 217.847 62.809 217.716 65.6701C217.698 66.0266 217.614 66.3924 217.483 66.7395C218.072 66.0172 218.502 65.2011 218.539 64.3849C218.651 61.8428 216.698 60.2668 214.202 60.1542C212.93 60.098 211.762 60.4357 210.911 61.1111C211.51 60.9516 212.164 60.8766 212.837 60.9141Z" fill="black"/>
<path d="M211.501 59.9292L211.498 59.9947C211.485 60.2846 211.709 60.5301 211.998 60.5432L216.33 60.7391C216.619 60.7522 216.864 60.5278 216.877 60.238L216.88 60.1724C216.893 59.8825 216.669 59.637 216.381 59.6239L212.048 59.428C211.759 59.4149 211.514 59.6393 211.501 59.9292Z" fill="#162B1D"/>
<path opacity="0.1" d="M177.138 62.2085C176.269 66.9082 171.763 70.0039 167.09 69.1315C162.406 68.2591 159.322 63.7376 160.191 59.0472C161.06 54.3474 165.566 51.2518 170.24 52.1242C174.923 52.9966 178.008 57.5181 177.138 62.2085Z" fill="white"/>
<path d="M171.408 52.8747C171.24 53.7752 170.539 54.4038 169.847 54.2724C169.156 54.1411 168.726 53.3062 168.894 52.3963C169.062 51.4957 169.763 50.8672 170.455 50.9986C171.147 51.1299 171.577 51.9648 171.408 52.8747Z" fill="#162B1D"/>
<path d="M168.12 52.2614L167.601 55.0557L171.654 55.8131L172.172 53.0188L168.12 52.2614Z" fill="#122417"/>
<path d="M173.325 60.3043C172.857 62.809 168.66 64.7133 167.931 64.5726C167.202 64.4318 163.968 61.1392 164.426 58.6439C164.893 56.1393 167.155 55.0511 169.614 55.5108C172.072 55.9704 173.792 57.7997 173.325 60.3043Z" fill="#00CFEA"/>
<path d="M168.267 58.3437C168.127 59.1035 167.398 59.6101 166.641 59.46C165.884 59.3193 165.379 58.5876 165.529 57.8277C165.669 57.0679 166.398 56.5613 167.155 56.7114C167.912 56.8521 168.417 57.5838 168.267 58.3437Z" fill="white"/>
<path d="M167.501 61.0079C167.426 61.3925 167.052 61.6551 166.669 61.5801C166.286 61.505 166.024 61.1298 166.099 60.7452C166.174 60.3606 166.548 60.0979 166.931 60.173C167.314 60.248 167.576 60.6233 167.501 61.0079Z" fill="white"/>
<path opacity="0.16" d="M168.155 56.0737C170.922 56.5896 172.857 58.6534 172.334 61.4676C172.268 61.8241 172.137 62.1618 171.95 62.4995C172.633 61.8616 173.175 61.1205 173.325 60.3138C173.792 57.8091 172.072 55.9799 169.614 55.5202C168.361 55.2857 167.164 55.4545 166.22 56.008C166.837 55.933 167.492 55.9517 168.155 56.0737Z" fill="black"/>
<path d="M166.971 54.9699L166.983 54.9053C167.036 54.6194 167.309 54.4318 167.593 54.4851L171.857 55.282C172.142 55.3353 172.329 55.6088 172.276 55.8946L172.264 55.9592C172.211 56.2451 171.939 56.4327 171.654 56.3795L167.39 55.5825C167.105 55.5293 166.918 55.2558 166.971 54.9699Z" fill="#162B1D"/>
<path opacity="0.1" d="M269.044 63.5218C269.493 68.2778 266.006 72.4991 261.276 72.94C256.537 73.3903 252.331 69.8913 251.891 65.1352C251.443 60.3792 254.929 56.1579 259.659 55.717C264.399 55.2667 268.605 58.7657 269.044 63.5124V63.5218Z" fill="white"/>
<path d="M260.987 56.1297C261.071 57.049 260.575 57.837 259.865 57.912C259.164 57.9777 258.519 57.2929 258.435 56.3736C258.351 55.4543 258.846 54.6663 259.557 54.5913C260.258 54.5256 260.903 55.2104 260.987 56.1297Z" fill="#162B1D"/>
<path d="M261.763 56.0372L257.659 56.425L257.924 59.2549L262.028 58.867L261.763 56.0372Z" fill="#122417"/>
<path d="M264.866 62.743C265.1 65.2758 261.585 68.2683 260.846 68.3339C260.108 68.3996 256.098 66.1295 255.855 63.5967C255.621 61.0639 257.5 59.3941 259.986 59.1596C262.473 58.9251 264.632 60.2102 264.866 62.743Z" fill="#3AD900"/>
<path d="M259.463 62.2459C259.538 63.0151 258.968 63.6999 258.201 63.775C257.435 63.85 256.752 63.2778 256.677 62.5086C256.603 61.7394 257.173 61.0546 257.939 60.9795C258.706 60.9045 259.388 61.4767 259.463 62.2459Z" fill="white"/>
<path d="M259.454 65.0131C259.491 65.4071 259.201 65.7542 258.809 65.7917C258.416 65.8292 258.07 65.5384 258.033 65.1444C257.995 64.7504 258.285 64.4033 258.678 64.3658C259.07 64.3283 259.416 64.6191 259.454 65.0131Z" fill="white"/>
<path opacity="0.16" d="M258.734 60.0976C261.529 59.8349 263.959 61.2795 264.221 64.1313C264.258 64.4877 264.221 64.8536 264.137 65.2288C264.623 64.4315 264.941 63.5684 264.857 62.7523C264.623 60.2195 262.464 58.9344 259.977 59.1689C258.706 59.2908 257.603 59.7786 256.846 60.576C257.416 60.3321 258.052 60.1726 258.725 60.1069L258.734 60.0976Z" fill="black"/>
<path d="M262.087 58.3026L257.769 58.7108C257.481 58.738 257.27 58.9942 257.297 59.283L257.303 59.3484C257.33 59.6372 257.585 59.8493 257.873 59.8221L262.191 59.414C262.479 59.3868 262.69 59.1306 262.663 58.8418L262.657 58.7764C262.63 58.4876 262.375 58.2754 262.087 58.3026Z" fill="#162B1D"/>
<path opacity="0.1" d="M19.4718 5.07056C16.8264 9.0386 11.4702 10.108 7.51613 7.44388C3.56208 4.78913 2.49645 -0.586022 5.15118 -4.55407C7.79656 -8.52212 13.1528 -9.59152 17.1068 -6.92739C21.0608 -4.27265 22.1265 1.10251 19.4718 5.07056Z" fill="white"/>
<path d="M16.7142 1.81558C15.3027 3.92625 10.6944 4.02006 10.0774 3.59792C9.46047 3.18517 7.7779 -1.12058 9.18939 -3.24063C10.6009 -5.35129 13.106 -5.45448 15.1812 -4.06613C17.2564 -2.6684 18.1164 -0.304458 16.7049 1.80621L16.7142 1.81558Z" fill="#3AD900"/>
<path d="M11.0869 0.14589C10.8719 0.474215 10.4232 0.558641 10.0961 0.342884C9.7689 0.127127 9.68477 -0.323149 9.89977 -0.651474C10.1148 -0.9798 10.5634 -1.06423 10.8906 -0.848469C11.2178 -0.632712 11.3019 -0.182436 11.0869 0.14589Z" fill="white"/>
<path opacity="0.16" d="M13.6295 -4.12252C15.9664 -2.55594 16.9385 0.108186 15.3494 2.49089C15.1531 2.79107 14.8914 3.05373 14.5923 3.28825C15.471 2.97869 16.2562 2.50965 16.7142 1.82486C18.1257 -0.285807 17.2657 -2.65913 15.1905 -4.04748C14.1342 -4.76041 12.9658 -5.07936 11.8815 -4.93865C12.4797 -4.76041 13.0686 -4.48837 13.6295 -4.10376V-4.12252Z" fill="black"/>
<path opacity="0.1" d="M361.287 33.8974C363.446 38.1563 361.754 43.3626 357.519 45.5295C353.276 47.6965 348.088 45.9986 345.928 41.7491C343.769 37.4903 345.461 32.284 349.695 30.117C353.939 27.9501 359.127 29.648 361.287 33.8974Z" fill="white"/>
<path d="M351.079 30.0139C351.49 30.83 351.322 31.7587 350.696 32.0777C350.069 32.3966 349.219 31.9933 348.798 31.1771C348.387 30.361 348.555 29.4323 349.181 29.1134C349.808 28.7944 350.658 29.1978 351.079 30.0139Z" fill="#162B1D"/>
<path d="M351.769 29.6359L348.095 31.5127L349.38 34.0457L353.054 32.1689L351.769 29.6359Z" fill="#122417"/>
<path d="M357.108 34.7232C358.258 36.9933 356.08 41.0645 355.416 41.4022C354.753 41.7399 350.191 41.1114 349.041 38.8413C347.891 36.5712 349.022 34.3292 351.257 33.1941C353.481 32.059 355.958 32.453 357.108 34.7232Z" fill="#F540FF"/>
<path d="M351.911 36.2615C352.257 36.9557 351.986 37.7906 351.303 38.1471C350.612 38.4941 349.78 38.2221 349.424 37.5373C349.079 36.8431 349.35 36.0083 350.032 35.6518C350.714 35.2953 351.556 35.5767 351.911 36.2615Z" fill="white"/>
<path d="M352.911 38.8413C353.089 39.1977 352.948 39.6292 352.603 39.8075C352.247 39.9857 351.817 39.845 351.64 39.4979C351.462 39.1508 351.602 38.7099 351.948 38.5317C352.294 38.3535 352.733 38.4942 352.911 38.8413Z" fill="white"/>
<path opacity="0.2" d="M350.443 34.5261C352.948 33.2503 355.734 33.7005 357.033 36.2521C357.192 36.5711 357.295 36.9275 357.351 37.3028C357.51 36.3834 357.482 35.4641 357.117 34.7324C355.968 32.4623 353.491 32.0683 351.266 33.2034C350.135 33.785 349.284 34.648 348.873 35.6611C349.312 35.2296 349.845 34.845 350.453 34.5354L350.443 34.5261Z" fill="black"/>
<path d="M349.028 33.5898L352.894 31.6151C353.152 31.4832 353.466 31.5857 353.598 31.8449L353.627 31.9034C353.759 32.1626 353.656 32.478 353.398 32.6099L349.533 34.5846C349.275 34.7165 348.96 34.6139 348.829 34.3548L348.799 34.2963C348.668 34.0371 348.77 33.7217 349.028 33.5898Z" fill="#162B1D"/>
<path opacity="0.1" d="M93.1591 41.1019C91.2335 45.4639 86.1391 47.4433 81.7924 45.5015C77.4458 43.569 75.4734 38.4565 77.4084 34.0945C79.334 29.7325 84.4284 27.7531 88.7751 29.6949C93.1311 31.6274 95.0941 36.7399 93.1591 41.1019Z" fill="white"/>
<path d="M89.7285 30.6986C89.3546 31.5429 88.532 31.9838 87.887 31.7023C87.242 31.4115 87.0176 30.5016 87.3916 29.6573C87.7655 28.8131 88.5881 28.3722 89.233 28.6536C89.878 28.9444 90.1024 29.8543 89.7285 30.6986Z" fill="#162B1D"/>
<path d="M86.671 29.3493L85.5231 31.9478L89.2916 33.6244L90.4396 31.026L86.671 29.3493Z" fill="#122417"/>
<path d="M89.8874 38.3721C88.8592 40.6986 84.3349 41.5803 83.6525 41.2708C82.9702 40.9706 80.5865 37.0119 81.6147 34.6855C82.643 32.3591 85.0921 31.8244 87.3822 32.8375C89.6631 33.8506 90.9157 36.0363 89.8874 38.3627V38.3721Z" fill="#F540FF"/>
<path d="M85.4193 35.2859C85.1108 35.9894 84.2789 36.3084 83.5778 35.9988C82.8767 35.6892 82.5589 34.8544 82.8674 34.1508C83.1759 33.4472 84.0078 33.1283 84.7089 33.4379C85.4099 33.7474 85.7278 34.5823 85.4193 35.2859Z" fill="white"/>
<path d="M84.0545 37.6966C83.8956 38.0625 83.4749 38.222 83.1104 38.0625C82.7458 37.903 82.5869 37.4809 82.7458 37.115C82.9047 36.7492 83.3253 36.5897 83.6899 36.7492C84.0545 36.9087 84.2134 37.3308 84.0545 37.6966Z" fill="white"/>
<path opacity="0.2" d="M85.8305 33.0532C88.4011 34.1976 89.8126 36.646 88.6535 39.2632C88.5039 39.5915 88.2983 39.8917 88.0459 40.1732C88.8591 39.7135 89.5509 39.1131 89.8874 38.3627C90.9156 36.0363 89.663 33.8505 87.3822 32.8374C86.2138 32.3215 85.0079 32.2089 83.9703 32.5279C84.5873 32.5935 85.2136 32.7718 85.8399 33.0438L85.8305 33.0532Z" fill="black"/>
<path d="M84.9623 31.6648L84.9358 31.7248C84.8186 31.9901 84.9379 32.3004 85.2022 32.418L89.1673 34.1821C89.4316 34.2997 89.7408 34.18 89.858 33.9148L89.8845 33.8548C90.0017 33.5895 89.8824 33.2792 89.6181 33.1616L85.653 31.3975C85.3887 31.2799 85.0795 31.3996 84.9623 31.6648Z" fill="#162B1D"/>
<path opacity="0.1" d="M317.259 53.2498C318.549 57.8463 315.885 62.6211 311.305 63.925C306.725 65.2196 301.967 62.5461 300.667 57.9495C299.368 53.3529 302.041 48.5782 306.622 47.2742C311.202 45.9797 315.96 48.6532 317.259 53.2498Z" fill="white"/>
<path d="M308.005 47.4338C308.258 48.3156 307.902 49.188 307.22 49.385C306.538 49.582 305.79 49.0191 305.537 48.1279C305.285 47.2368 305.64 46.3737 306.323 46.1768C307.005 45.9798 307.753 46.5426 308.005 47.4338Z" fill="#162B1D"/>
<path d="M308.751 47.2155L304.783 48.3384L305.552 51.074L309.52 49.9511L308.751 47.2155Z" fill="#122417"/>
<path d="M313.006 53.2402C313.698 55.6886 310.772 59.2627 310.052 59.469C309.342 59.6754 304.986 58.1557 304.294 55.7074C303.602 53.259 305.154 51.2797 307.556 50.5949C309.959 49.9101 312.314 50.7919 312.997 53.2402H313.006Z" fill="#FF6E0D"/>
<path d="M307.603 53.7282C307.809 54.4693 307.379 55.2479 306.64 55.4543C305.902 55.6607 305.126 55.2291 304.921 54.4881C304.715 53.747 305.145 52.9684 305.883 52.762C306.622 52.5556 307.398 52.9871 307.603 53.7282Z" fill="white"/>
<path d="M308.089 56.4579C308.192 56.8426 307.977 57.2366 307.594 57.3397C307.211 57.4429 306.818 57.2272 306.715 56.8426C306.612 56.458 306.827 56.064 307.21 55.9608C307.594 55.8576 307.986 56.0733 308.089 56.4579Z" fill="white"/>
<path opacity="0.2" d="M306.5 51.7394C309.202 50.9702 311.847 51.9646 312.623 54.7131C312.716 55.0602 312.754 55.426 312.735 55.8013C313.072 54.9289 313.221 54.0189 313.006 53.231C312.314 50.7826 309.968 49.9008 307.566 50.5856C306.341 50.9327 305.341 51.6175 304.743 52.5274C305.257 52.1897 305.855 51.9177 306.51 51.73L306.5 51.7394Z" fill="black"/>
<path d="M309.474 49.3795L305.299 50.561C305.021 50.6398 304.859 50.93 304.938 51.2092L304.956 51.2724C305.034 51.5516 305.323 51.7142 305.601 51.6354L309.776 50.4539C310.054 50.3752 310.216 50.085 310.138 49.8057L310.12 49.7425C310.041 49.4633 309.752 49.3008 309.474 49.3795Z" fill="#162B1D"/>
<path opacity="0.1" d="M55.8809 25.0046C53.7402 29.2728 48.5523 30.9801 44.3085 28.8319C40.0553 26.6837 38.354 21.4774 40.4946 17.2186C42.6353 12.9503 47.8232 11.243 52.067 13.3912C56.3202 15.5394 58.0215 20.7457 55.8809 25.0046Z" fill="white"/>
<path d="M52.9738 14.4419C52.5625 15.2674 51.7118 15.6708 51.0856 15.3518C50.4499 15.0329 50.2817 14.1042 50.693 13.2881C51.1042 12.4626 51.9549 12.0592 52.5812 12.3781C53.2168 12.6971 53.3851 13.6258 52.9738 14.4419Z" fill="#162B1D"/>
<path d="M49.9945 12.9276L48.7188 15.4653L52.3992 17.3286L53.675 14.7909L49.9945 12.9276Z" fill="#122417"/>
<path d="M52.7495 22.1151C51.609 24.3852 47.0474 25.0418 46.3837 24.7041C45.72 24.3664 43.5327 20.2952 44.6731 18.0251C45.8135 15.7549 48.2906 15.3422 50.5247 16.4772C52.7588 17.6123 53.8992 19.8449 52.7588 22.1244L52.7495 22.1151Z" fill="#FF6E0D"/>
<path d="M48.4402 18.8039C48.0943 19.4981 47.253 19.7702 46.5613 19.4231C45.8696 19.076 45.5985 18.2317 45.9444 17.5375C46.2902 16.8434 47.1315 16.5713 47.8232 16.9184C48.515 17.2655 48.7861 18.1098 48.4402 18.8039Z" fill="white"/>
<path d="M46.9633 21.149C46.7857 21.5055 46.3557 21.6462 46.0005 21.468C45.6453 21.2898 45.5051 20.8582 45.6827 20.5018C45.8603 20.1453 46.2903 20.0046 46.6455 20.1828C47.0007 20.3611 47.1409 20.7926 46.9633 21.149Z" fill="white"/>
<path opacity="0.2" d="M48.9637 16.5994C51.4782 17.8658 52.7588 20.3892 51.4782 22.9501C51.3193 23.2691 51.0949 23.5692 50.8239 23.8319C51.6558 23.4191 52.3849 22.8563 52.7495 22.1152C53.8899 19.8451 52.7495 17.6031 50.5154 16.468C49.375 15.8958 48.1785 15.7176 47.1222 15.9896C47.7298 16.0928 48.3561 16.2898 48.9637 16.5994Z" fill="black"/>
<path d="M48.1242 15.2182L48.1537 15.1596C48.2842 14.9 48.5981 14.7962 48.8568 14.9272L52.7292 16.8877C52.988 17.0187 53.0914 17.3337 52.9608 17.5933L52.9314 17.6519C52.8008 17.9116 52.4869 18.0153 52.2282 17.8843L48.3558 15.9239C48.0971 15.7929 47.9937 15.4779 48.1242 15.2182Z" fill="#162B1D"/>
<path opacity="0.1" d="M134.345 53.2873C133.092 57.8933 128.362 60.6137 123.763 59.3566C119.164 58.0996 116.463 53.353 117.715 48.7377C118.968 44.1317 123.698 41.4113 128.297 42.6683C132.896 43.9254 135.597 48.672 134.345 53.2873Z" fill="white"/>
<path d="M129.391 43.522C129.148 44.4132 128.4 44.9761 127.717 44.7884C127.035 44.6008 126.68 43.7284 126.923 42.8466C127.166 41.9555 127.914 41.3926 128.596 41.5802C129.278 41.7679 129.634 42.6403 129.391 43.522Z" fill="#162B1D"/>
<path d="M126.175 42.6476L125.431 45.3901L129.409 46.4769L130.153 43.7343L126.175 42.6476Z" fill="#122417"/>
<path d="M130.699 51.0829C130.036 53.5407 125.689 55.0885 124.978 54.8915C124.259 54.6945 121.305 51.1486 121.969 48.6909C122.632 46.2331 124.978 45.3326 127.39 45.9986C129.802 46.6552 131.372 48.6252 130.699 51.0829Z" fill="#FF123A"/>
<path d="M125.82 48.7097C125.614 49.4602 124.848 49.9011 124.109 49.6947C123.361 49.4883 122.922 48.7191 123.128 47.978C123.333 47.2369 124.1 46.7867 124.838 46.993C125.586 47.1994 126.025 47.9686 125.82 48.7097Z" fill="white"/>
<path d="M124.838 51.2987C124.735 51.6833 124.343 51.9084 123.96 51.8052C123.576 51.702 123.352 51.308 123.455 50.9234C123.558 50.5388 123.95 50.3137 124.333 50.4169C124.717 50.5201 124.941 50.914 124.838 51.2987Z" fill="white"/>
<path opacity="0.3" d="M125.894 46.4395C128.605 47.1805 130.372 49.3944 129.624 52.1523C129.531 52.4994 129.372 52.8277 129.157 53.1467C129.895 52.5745 130.484 51.8709 130.699 51.0829C131.363 48.6252 129.802 46.6646 127.39 45.9986C126.166 45.6609 124.95 45.7359 123.969 46.2049C124.586 46.1768 125.24 46.2518 125.894 46.4301V46.4395Z" fill="black"/>
<path d="M124.811 45.2522L124.828 45.1888C124.904 44.9082 125.191 44.7435 125.471 44.8199L129.656 45.9633C129.935 46.0397 130.099 46.3276 130.023 46.6082L130.006 46.6716C129.93 46.9522 129.643 47.1168 129.363 47.0404L125.178 45.897C124.899 45.8206 124.735 45.5328 124.811 45.2522Z" fill="#162B1D"/>
<path d="M-2.6167 -24.8353C28.0435 18.316 306.902 150.265 440.947 -53.7373" stroke="#122417" stroke-miterlimit="10"/>
<path opacity="0.1" d="M185.486 41.13C183.121 45.2763 177.858 46.7209 173.726 44.3476C169.595 41.9743 168.155 36.6929 170.52 32.5466C172.885 28.4003 178.148 26.9557 182.28 29.329C186.411 31.7024 187.851 36.9837 185.486 41.13Z" fill="white"/>
<path d="M183.13 30.436C182.672 31.2334 181.812 31.5992 181.195 31.2427C180.578 30.8863 180.457 29.9576 180.905 29.1602C181.354 28.3628 182.223 27.997 182.84 28.3535C183.457 28.7099 183.579 29.6386 183.13 30.436Z" fill="#162B1D"/>
<path d="M180.225 28.7515L178.819 31.2192L182.398 33.272L183.804 30.8043L180.225 28.7515Z" fill="#122417"/>
<path d="M182.513 38.0812C181.251 40.295 176.662 40.6984 176.017 40.3326C175.372 39.9667 173.399 35.7829 174.652 33.5784C175.904 31.374 178.4 31.0925 180.569 32.3308C182.738 33.5784 183.766 35.8767 182.504 38.0812H182.513Z" fill="#EACD00"/>
<path d="M178.381 34.5541C177.998 35.2296 177.148 35.4547 176.475 35.0795C175.802 34.6949 175.577 33.8412 175.951 33.1658C176.325 32.4904 177.185 32.2652 177.858 32.6405C178.531 33.0251 178.755 33.8787 178.381 34.5541Z" fill="white"/>
<path d="M176.783 36.8149C176.587 37.1619 176.147 37.2745 175.811 37.0775C175.465 36.8805 175.353 36.4396 175.549 36.1019C175.745 35.7548 176.185 35.6423 176.521 35.8393C176.867 36.0363 176.979 36.4772 176.783 36.8149Z" fill="white"/>
<path opacity="0.16" d="M179.017 32.3777C181.457 33.7754 182.607 36.3645 181.195 38.8504C181.018 39.16 180.775 39.4414 180.494 39.6947C181.345 39.3194 182.102 38.7941 182.504 38.0812C183.766 35.8673 182.738 33.5784 180.569 32.3308C179.466 31.6929 178.279 31.4584 177.204 31.6741C177.811 31.8055 178.419 32.04 179.008 32.3777H179.017Z" fill="black"/>
<path d="M178.284 30.8924L178.252 30.9494C178.108 31.2013 178.195 31.5222 178.446 31.6662L182.212 33.826C182.463 33.97 182.783 33.8825 182.926 33.6306L182.959 33.5736C183.102 33.3217 183.015 33.0008 182.764 32.8569L178.998 30.697C178.747 30.553 178.428 30.6405 178.284 30.8924Z" fill="#162B1D"/>
<path opacity="0.1" d="M147.974 21.2804C144.992 25.0045 139.57 25.5955 135.859 22.603C132.148 19.6106 131.559 14.1698 134.541 10.4456C137.523 6.72147 142.945 6.13049 146.656 9.12294C150.367 12.1154 150.956 17.5562 147.974 21.2804Z" fill="white"/>
<path d="M147.319 10.3425C146.749 11.0554 145.833 11.2806 145.282 10.8397C144.73 10.3988 144.749 9.45132 145.328 8.73839C145.898 8.02545 146.815 7.80032 147.366 8.24121C147.918 8.6821 147.899 9.62956 147.319 10.3425Z" fill="#162B1D"/>
<path d="M144.708 8.23033L142.933 10.4458L146.146 13.0374L147.921 10.822L144.708 8.23033Z" fill="#122417"/>
<path d="M145.506 17.8002C143.917 19.7796 139.318 19.47 138.738 19.001C138.159 18.5319 136.859 14.0948 138.448 12.1155C140.038 10.1362 142.543 10.2487 144.487 11.8153C146.431 13.3913 147.086 15.8209 145.497 17.8002H145.506Z" fill="#00CFEA"/>
<path d="M141.982 13.6634C141.496 14.2637 140.617 14.3669 140.019 13.8791C139.421 13.3913 139.318 12.5096 139.804 11.9092C140.29 11.3088 141.169 11.2056 141.767 11.6934C142.365 12.1812 142.468 13.063 141.982 13.6634Z" fill="white"/>
<path d="M140.047 15.652C139.804 15.9615 139.355 16.0084 139.047 15.7645C138.738 15.5206 138.692 15.0704 138.935 14.7608C139.178 14.4512 139.626 14.4043 139.935 14.6482C140.243 14.8921 140.29 15.3424 140.047 15.652Z" fill="white"/>
<path opacity="0.16" d="M142.954 11.6184C145.141 13.382 145.88 16.1211 144.094 18.3537C143.87 18.6352 143.59 18.8791 143.272 19.0761C144.179 18.8415 145.001 18.4476 145.515 17.8003C147.104 15.8209 146.45 13.382 144.506 11.8154C143.515 11.018 142.374 10.5959 141.29 10.6334C141.87 10.8585 142.431 11.1869 142.963 11.609L142.954 11.6184Z" fill="black"/>
<path d="M142.462 10.0196L142.421 10.0708C142.24 10.2969 142.275 10.6276 142.501 10.8093L145.881 13.5361C146.107 13.7179 146.436 13.6819 146.617 13.4558L146.658 13.4046C146.84 13.1784 146.804 12.8478 146.578 12.666L143.198 9.93922C142.972 9.75746 142.643 9.79344 142.462 10.0196Z" fill="#162B1D"/>
<path opacity="0.1" d="M224.839 53.794C223.11 58.2498 218.118 60.4543 213.687 58.7189C209.247 56.9834 207.051 51.9741 208.78 47.5277C210.509 43.0718 215.501 40.8673 219.932 42.6028C224.372 44.3382 226.568 49.3475 224.839 53.794Z" fill="white"/>
<path d="M220.932 43.5689C220.595 44.4225 219.801 44.9103 219.137 44.6571C218.483 44.4038 218.212 43.4938 218.548 42.6402C218.885 41.7866 219.679 41.2988 220.343 41.552C220.997 41.8053 221.268 42.7152 220.932 43.5689Z" fill="#162B1D"/>
<path d="M217.818 42.3558L216.792 45.0049L220.634 46.5043L221.66 43.8552L217.818 42.3558Z" fill="#122417"/>
<path d="M221.446 51.2235C220.53 53.5968 216.043 54.685 215.351 54.4129C214.66 54.1409 212.089 50.3042 213.005 47.9309C213.921 45.5575 216.352 44.9103 218.679 45.8202C221.007 46.7301 222.362 48.8502 221.437 51.2235H221.446Z" fill="#3AD900"/>
<path d="M216.838 48.353C216.557 49.0754 215.753 49.4318 215.034 49.1504C214.314 48.869 213.959 48.0622 214.239 47.3399C214.519 46.6176 215.323 46.2611 216.043 46.5426C216.763 46.824 217.118 47.6307 216.838 48.353Z" fill="white"/>
<path d="M215.594 50.8202C215.454 51.1861 215.034 51.3737 214.669 51.2236C214.304 51.0829 214.118 50.6608 214.267 50.2949C214.407 49.9291 214.828 49.7414 215.193 49.8915C215.557 50.0322 215.744 50.4544 215.594 50.8202Z" fill="white"/>
<path opacity="0.16" d="M217.146 46.1015C219.763 47.124 221.287 49.5067 220.249 52.1802C220.119 52.5179 219.922 52.8275 219.689 53.1183C220.483 52.6211 221.147 51.9926 221.446 51.2234C222.362 48.8501 221.016 46.73 218.688 45.8201C217.501 45.3605 216.295 45.3042 215.267 45.67C215.884 45.7075 216.52 45.8482 217.155 46.1015H217.146Z" fill="black"/>
<path d="M216.191 44.8058L216.215 44.7446C216.32 44.4736 216.622 44.34 216.893 44.4454L220.935 46.023C221.205 46.1284 221.338 46.4319 221.233 46.703L221.209 46.7642C221.104 47.0352 220.802 47.1688 220.532 47.0634L216.489 45.4858C216.219 45.3804 216.086 45.0768 216.191 44.8058Z" fill="#162B1D"/>
<path opacity="0.1" d="M342.32 60.3605C342.61 65.1259 339.002 69.2346 334.253 69.5254C329.505 69.8162 325.41 66.1953 325.121 61.4299C324.831 56.6645 328.439 52.5557 333.188 52.2649C337.936 51.9741 342.03 55.5951 342.32 60.3605Z" fill="white"/>
<path d="M334.496 52.7152C334.552 53.6345 334.029 54.4131 333.318 54.46C332.617 54.5069 331.991 53.794 331.935 52.8747C331.879 51.9554 332.402 51.1768 333.113 51.1299C333.814 51.083 334.44 51.7959 334.496 52.7152Z" fill="#162B1D"/>
<path d="M335.28 52.6423L331.166 52.8977L331.34 55.7346L335.455 55.4792L335.28 52.6423Z" fill="#122417"/>
<path d="M338.161 59.4505C338.319 61.9927 334.702 64.8632 333.963 64.9101C333.225 64.957 329.28 62.5555 329.131 60.0133C328.972 57.4712 330.907 55.8671 333.403 55.7076C335.898 55.5575 338.011 56.9083 338.17 59.4505H338.161Z" fill="#FF123A"/>
<path d="M332.786 58.7844C332.833 59.5536 332.244 60.2197 331.477 60.2666C330.711 60.3135 330.047 59.7225 330 58.9533C329.953 58.1841 330.542 57.518 331.309 57.4711C332.075 57.4242 332.739 58.0152 332.786 58.7844Z" fill="white"/>
<path d="M332.683 61.5519C332.711 61.9459 332.412 62.2836 332.019 62.3117C331.627 62.3399 331.29 62.0397 331.262 61.6457C331.234 61.2517 331.533 60.914 331.926 60.8859C332.318 60.8577 332.655 61.1579 332.683 61.5519Z" fill="white"/>
<path opacity="0.3" d="M332.122 56.6081C334.926 56.4299 337.31 57.959 337.478 60.8201C337.497 61.1766 337.459 61.5424 337.357 61.9082C337.871 61.1296 338.207 60.276 338.16 59.4505C338.002 56.9083 335.889 55.5575 333.393 55.7076C332.122 55.7826 331 56.2423 330.224 57.0115C330.804 56.7864 331.44 56.6457 332.122 56.6081Z" fill="black"/>
<path d="M335.532 54.9146L331.203 55.1834C330.914 55.2013 330.695 55.4506 330.713 55.7401L330.717 55.8057C330.735 56.0953 330.983 56.3155 331.272 56.2976L335.601 56.0288C335.889 56.0109 336.109 55.7616 336.091 55.4721L336.087 55.4065C336.069 55.1169 335.82 54.8967 335.532 54.9146Z" fill="#162B1D"/>
<path opacity="0.1" d="M257.521 64.5075C261.047 61.2982 261.312 55.8284 258.114 52.2904C254.917 48.7523 249.466 48.4858 245.941 51.695C242.415 54.9043 242.149 60.374 245.347 63.9121C248.545 67.4501 253.996 67.7167 257.521 64.5075Z" fill="white"/>
<path d="M254.518 50.398C254.34 51.2986 253.639 51.9271 252.947 51.7864C252.256 51.6551 251.835 50.8108 252.003 49.9102C252.172 49.0097 252.882 48.3812 253.574 48.5219C254.265 48.6532 254.686 49.4975 254.518 50.398Z" fill="#162B1D"/>
<path d="M251.236 49.7613L250.701 52.5525L254.749 53.3341L255.284 50.5429L251.236 49.7613Z" fill="#122417"/>
<path d="M256.397 57.8369C255.92 60.3322 251.704 62.2177 250.975 62.077C250.246 61.9363 247.03 58.6249 247.507 56.1202C247.984 53.6249 250.255 52.5462 252.714 53.0246C255.172 53.503 256.874 55.3416 256.397 57.8369Z" fill="#FF123A"/>
<path d="M251.349 55.8481C251.199 56.6079 250.47 57.1051 249.713 56.955C248.956 56.8049 248.461 56.0732 248.61 55.3133C248.76 54.5535 249.489 54.0563 250.246 54.2064C251.003 54.3565 251.499 55.0882 251.349 55.8481Z" fill="white"/>
<path d="M250.573 58.503C250.498 58.8876 250.124 59.1408 249.741 59.0752C249.358 59.0001 249.106 58.6249 249.171 58.2403C249.246 57.8557 249.62 57.6024 250.003 57.6681C250.386 57.7431 250.639 58.1183 250.573 58.503Z" fill="white"/>
<path opacity="0.3" d="M251.256 53.5781C254.013 54.1128 255.939 56.1859 255.397 58.9907C255.331 59.3472 255.191 59.6849 255.013 60.0133C255.705 59.3847 256.247 58.6437 256.397 57.8369C256.873 55.3417 255.163 53.4936 252.714 53.0246C251.461 52.7807 250.265 52.9496 249.321 53.4936C249.938 53.4186 250.592 53.4467 251.256 53.5781Z" fill="black"/>
<path d="M250.087 52.4077L250.075 52.4722C250.02 52.7571 250.206 53.0325 250.49 53.0873L254.749 53.9096C255.033 53.9644 255.308 53.7779 255.362 53.493L255.375 53.4285C255.429 53.1436 255.243 52.8682 254.959 52.8134L250.7 51.9911C250.416 51.9363 250.142 52.1228 250.087 52.4077Z" fill="#162B1D"/>
<path opacity="0.1" d="M300.73 65.9006C302.82 61.6091 301.048 56.4297 296.772 54.332C292.496 52.2342 287.334 54.0126 285.244 58.3041C283.154 62.5955 284.926 67.775 289.202 69.8727C293.479 71.9705 298.64 70.1921 300.73 65.9006Z" fill="white"/>
<path d="M295.348 54.2444C295.227 55.1544 294.554 55.8204 293.853 55.7266C293.152 55.6328 292.684 54.8167 292.806 53.9067C292.927 52.9968 293.6 52.3308 294.301 52.4246C295.003 52.5184 295.47 53.3345 295.348 54.2444Z" fill="#162B1D"/>
<path d="M292.031 53.7881L291.651 56.6047L295.736 57.1605L296.116 54.3439L292.031 53.7881Z" fill="#122417"/>
<path d="M297.638 61.571C297.302 64.0944 293.198 66.2051 292.46 66.1019C291.721 65.9987 288.328 62.8749 288.674 60.3515C289.011 57.8281 291.217 56.6274 293.694 56.9651C296.171 57.3028 297.975 59.0476 297.638 61.571Z" fill="#EACD00"/>
<path d="M292.488 59.8543C292.385 60.6235 291.684 61.1582 290.917 61.0551C290.151 60.9519 289.618 60.2483 289.721 59.4791C289.824 58.7099 290.525 58.1752 291.291 58.2784C292.058 58.3816 292.591 59.0851 292.488 59.8543Z" fill="white"/>
<path d="M291.852 62.5558C291.796 62.9498 291.441 63.2218 291.048 63.1656C290.656 63.1093 290.385 62.7528 290.441 62.3588C290.497 61.9648 290.852 61.6928 291.245 61.7491C291.637 61.8054 291.908 62.1618 291.852 62.5558Z" fill="white"/>
<path opacity="0.16" d="M292.264 57.5935C295.049 57.9687 297.087 59.9387 296.704 62.7716C296.657 63.1281 296.535 63.4752 296.377 63.8129C297.031 63.1469 297.526 62.3776 297.638 61.5615C297.975 59.0381 296.171 57.2933 293.694 56.9556C292.432 56.7867 291.245 57.0119 290.329 57.6122C290.936 57.509 291.591 57.4997 292.264 57.5841V57.5935Z" fill="black"/>
<path d="M291.028 56.5605L291.036 56.4954C291.075 56.2073 291.338 56.0064 291.625 56.0454L295.923 56.6301C296.211 56.6692 296.411 56.9331 296.372 57.2213L296.363 57.2863C296.324 57.5745 296.061 57.7754 295.774 57.7363L291.476 57.1516C291.189 57.1126 290.989 56.8487 291.028 56.5605Z" fill="#162B1D"/>
<path d="M471.617 4.32001C440.947 47.4713 193.085 110.923 85.5875 -53.7373" stroke="#122417" stroke-miterlimit="10"/>
</g>
<defs>
<clipPath id="clip0_56_9952">
<rect width="475" height="128" fill="white" transform="translate(-3 -54)"/>
</clipPath>
</defs>
</svg>
