<svg width="178" height="178" viewBox="0 0 178 178" fill="none" xmlns="http://www.w3.org/2000/svg">
<g clip-path="url(#clip0_170_35)">
<path d="M14.3758 113.421C16.4565 111.28 19.1003 110.09 21.7318 110.142C24.4062 110.195 26.9949 111.542 28.5188 113.631C31.952 112.896 35.0915 113.695 37.4232 115.918C38.7573 117.19 39.8711 119.221 39.0021 121.129C38.4574 122.325 37.2396 123.188 35.3853 123.69C32.6007 124.443 29.5041 124.279 26.8174 123.253C25.2752 124.046 23.5739 124.443 21.8971 124.443C19.9693 124.443 18.0844 123.918 16.5544 122.879C13.5741 123.363 10.8018 123.2 8.30485 122.395C6.65248 121.864 5.60598 121.041 5.18983 119.962C4.74308 118.795 5.07968 117.4 6.12005 116.134C8.01109 113.83 11.3954 112.738 14.3758 113.421ZM6.94624 119.349C7.15431 119.898 7.81526 120.353 8.90459 120.703C11.2057 121.444 13.7944 121.566 16.6156 121.053C16.8849 121.006 17.1603 121.07 17.3745 121.234C19.7123 123.008 23.4515 123.118 26.2667 121.491C26.4135 121.403 26.5849 121.362 26.7501 121.362C26.8786 121.362 27.0072 121.385 27.1296 121.438C29.5224 122.459 32.3437 122.652 34.8651 121.969C35.7524 121.73 36.8846 121.263 37.2763 120.411C37.772 119.332 36.9519 117.996 36.0952 117.185C34.1123 115.294 31.3584 114.705 28.3413 115.516C27.9251 115.627 27.4845 115.457 27.2703 115.096C26.1504 113.211 23.9595 111.968 21.689 111.927C21.6462 111.927 21.6094 111.927 21.5666 111.927C19.3757 111.927 17.1297 113.042 15.3916 115.008C15.1407 115.288 14.7429 115.393 14.3758 115.277C11.989 114.518 9.13103 115.341 7.5827 117.231C6.95847 117.99 6.7198 118.783 6.93399 119.343L6.94624 119.349Z" fill="#94C5C9"/>
</g>
<path d="M146.241 33.3108C146.442 33.3108 146.929 33.3743 147.109 33.9456L147.458 35.0883C147.67 35.7655 148.294 36.231 149.003 36.231H150.485C151.067 36.231 151.278 36.6648 151.342 36.8447C151.405 37.0245 151.5 37.5006 151.035 37.8498L149.723 38.8444C149.183 39.257 148.961 39.9659 149.162 40.6113L149.596 42.0079C149.776 42.5793 149.416 42.9072 149.246 43.013C149.077 43.1294 148.654 43.3516 148.178 42.9919L147.215 42.2618C146.929 42.0396 146.58 41.9338 146.23 41.9338C145.881 41.9338 145.532 42.0396 145.246 42.2618L144.283 42.9919C143.807 43.3516 143.384 43.1294 143.214 43.013C143.056 42.8967 142.696 42.5687 142.865 42.0079L143.299 40.6113C143.5 39.9659 143.278 39.257 142.738 38.8444L141.437 37.8498C140.971 37.4901 141.066 37.0245 141.13 36.8447C141.193 36.6542 141.405 36.231 141.987 36.231H143.468C144.177 36.231 144.802 35.7655 145.013 35.0883L145.363 33.9456C145.543 33.3743 146.029 33.3108 146.23 33.3108H146.241Z" fill="#FBAE17"/>
<path d="M131.556 157.016C131.736 156.445 132.223 156.381 132.424 156.381C132.625 156.381 133.112 156.445 133.292 157.016L133.641 158.159C133.853 158.836 134.477 159.301 135.186 159.301H136.668C137.25 159.301 137.461 159.735 137.525 159.915C137.588 160.095 137.683 160.571 137.218 160.92L135.906 161.915C135.366 162.327 135.144 163.036 135.345 163.682L135.779 165.078C135.959 165.65 135.599 165.978 135.429 166.083C135.271 166.2 134.837 166.422 134.361 166.062L133.398 165.332C133.112 165.11 132.763 165.004 132.413 165.004C132.064 165.004 131.715 165.11 131.429 165.332L130.466 166.062C129.99 166.422 129.567 166.2 129.397 166.083C129.239 165.967 128.879 165.65 129.048 165.078L129.482 163.682C129.683 163.036 129.461 162.327 128.921 161.915L127.609 160.92C127.143 160.56 127.239 160.095 127.302 159.915C127.366 159.735 127.577 159.301 128.159 159.301H129.641C130.35 159.301 130.974 158.836 131.186 158.159L131.535 157.016H131.556Z" fill="#FBAE17"/>
<path d="M94.2957 28.1039C105.471 28.1039 116.095 31.3203 125.27 37.4464C115.418 38.6632 106.317 43.1387 99.2694 50.3228C91.1527 58.6073 86.6763 69.5474 86.6763 81.1436C86.6763 105.436 106.444 125.19 130.731 125.19C131.218 125.19 131.704 125.19 132.202 125.169C121.916 134.628 108.338 139.971 94.2957 139.971C63.448 139.971 38.3466 114.874 38.3466 84.032C38.3466 53.1901 63.4374 28.1039 94.2957 28.1039Z" fill="#FBAE17"/>
<path d="M95.2268 123.339C95.2268 118.27 91.1208 114.165 86.0519 114.165C80.9829 114.165 76.8769 118.27 76.8769 123.339C76.8769 128.407 80.9829 132.512 86.0519 132.512C91.1208 132.512 95.2268 128.407 95.2268 123.339Z" fill="#FFDC7A"/>
<path d="M75.9668 47.1804C75.9668 43.4561 72.9508 40.4301 69.2152 40.4301C65.4797 40.4301 62.4637 43.4561 62.4637 47.1804C62.4637 50.9047 65.4902 53.9307 69.2152 53.9307C72.9402 53.9307 75.9668 50.9047 75.9668 47.1804Z" fill="#FFDC7A"/>
<path d="M97.2587 38.8959C97.2587 36.4412 95.2692 34.4415 92.8035 34.4415C90.3378 34.4415 88.3483 36.4306 88.3483 38.8959C88.3483 41.3611 90.3378 43.3503 92.8035 43.3503C95.2692 43.3503 97.2587 41.3611 97.2587 38.8959Z" fill="#FFDC7A"/>
<path d="M76.7183 65.3894C76.7183 63.4426 75.1415 61.8661 73.1943 61.8661C71.2472 61.8661 69.6704 63.4426 69.6704 65.3894C69.6704 67.3362 71.2472 68.9127 73.1943 68.9127C75.1415 68.9127 76.7183 67.3362 76.7183 65.3894Z" fill="#FFDC7A"/>
<path d="M68.2947 109.288C68.2947 107.341 66.7179 105.764 64.7707 105.764C62.8236 105.764 61.2468 107.341 61.2468 109.288C61.2468 111.234 62.8236 112.811 64.7707 112.811C66.7179 112.811 68.2947 111.234 68.2947 109.288Z" fill="#FFDC7A"/>
<path d="M95.2268 123.339C95.2268 118.27 91.1208 114.165 86.0519 114.165C80.9829 114.165 76.8769 118.27 76.8769 123.339C76.8769 128.407 80.9829 132.512 86.0519 132.512C91.1208 132.512 95.2268 128.407 95.2268 123.339Z" fill="#FFDC7A"/>
<path d="M75.9668 47.1804C75.9668 43.4561 72.9508 40.4301 69.2152 40.4301C65.4797 40.4301 62.4637 43.4561 62.4637 47.1804C62.4637 50.9047 65.4902 53.9307 69.2152 53.9307C72.9402 53.9307 75.9668 50.9047 75.9668 47.1804Z" fill="#FFDC7A"/>
<path d="M97.2587 38.8959C97.2587 36.4412 95.2692 34.4415 92.8035 34.4415C90.3378 34.4415 88.3483 36.4306 88.3483 38.8959C88.3483 41.3611 90.3378 43.3503 92.8035 43.3503C95.2692 43.3503 97.2587 41.3611 97.2587 38.8959Z" fill="#FFDC7A"/>
<path d="M76.7183 65.3894C76.7183 63.4426 75.1415 61.8661 73.1943 61.8661C71.2472 61.8661 69.6704 63.4426 69.6704 65.3894C69.6704 67.3362 71.2472 68.9127 73.1943 68.9127C75.1415 68.9127 76.7183 67.3362 76.7183 65.3894Z" fill="#FFDC7A"/>
<path d="M68.2947 109.288C68.2947 107.341 66.7179 105.764 64.7707 105.764C62.8236 105.764 61.2468 107.341 61.2468 109.288C61.2468 111.234 62.8236 112.811 64.7707 112.811C66.7179 112.811 68.2947 111.234 68.2947 109.288Z" fill="#FFDC7A"/>
<g style="mix-blend-mode:multiply">
<path d="M38.3466 84.0321C38.3466 114.874 63.448 139.971 94.2957 139.971C108.338 139.971 121.926 134.617 132.202 125.169C131.715 125.169 131.218 125.19 130.741 125.19C106.444 125.19 86.6763 105.436 86.6763 81.1437C86.6763 69.5475 91.1527 58.5967 99.2694 50.3229C101.767 47.7835 104.518 45.5722 107.471 43.7418C97.4386 48.5559 88.9092 56.5336 83.7873 66.4263C78.4009 76.8268 76.93 89.079 79.5015 100.358C81.0253 107.023 73.1732 111.943 67.9349 107.563C59.0351 100.114 52.8444 89.0155 50.9396 77.4511C49.1512 66.6061 50.601 55.5707 54.1461 45.1279C44.3785 55.2004 38.3466 68.9338 38.3466 84.0427" fill="#FFE1AD"/>
</g>
<g style="mix-blend-mode:multiply">
<path d="M45.4367 100.622C50.2411 114.377 61.3315 125.793 74.951 130.978C88.5705 136.162 104.444 135.019 116.847 127.338C107.809 123.846 98.5709 120.302 88.888 119.858C82.4857 119.561 75.8928 120.619 69.7551 118.768C59.8394 115.784 53.6698 106.145 45.4367 100.622Z" fill="#FAD184"/>
</g>
<path d="M52.982 113.594C58.2414 119.371 63.9348 124.788 71.1837 127.973C75.1838 129.729 79.5226 130.692 83.7556 131.718C88.2954 132.818 92.7083 132.893 97.3434 132.596C102.455 132.268 107.481 131.549 112.36 129.941C113.27 129.644 113.64 131.052 112.751 131.358C104.158 134.384 94.3591 136.807 85.2477 135.04C76.5066 133.348 67.7656 130.745 60.7918 125.01C57.2467 122.09 54.0931 118.482 51.7439 114.557C51.2888 113.795 52.3682 112.927 52.982 113.594Z" fill="#DB7D0E"/>
<path d="M47.8813 107.933C48.1141 107.679 48.4739 107.595 48.802 107.637C49.003 107.658 49.2041 107.743 49.384 107.849C49.6168 107.997 49.8285 108.166 49.9978 108.378C50.1671 108.6 50.3364 108.812 50.5057 109.044L51.2042 110.039C51.2994 110.198 51.3523 110.356 51.3629 110.536C51.4052 110.716 51.3947 110.896 51.3418 111.065C51.2571 111.372 51.0137 111.711 50.728 111.869C50.4211 112.028 50.0401 112.113 49.6909 112.007C49.5851 111.965 49.4793 111.922 49.3734 111.869C49.1724 111.753 49.0136 111.594 48.8972 111.393C48.6962 111.097 48.4951 110.801 48.294 110.515C48.1882 110.367 48.093 110.219 47.9977 110.071C47.9448 109.997 47.9025 109.922 47.8601 109.838C47.7861 109.669 47.6908 109.51 47.6485 109.33C47.6062 109.161 47.5744 108.981 47.5638 108.812C47.5427 108.484 47.6697 108.177 47.8813 107.944" fill="#DB7D0E"/>
<path d="M48.2093 56.6501C48.8972 55.3064 49.6485 53.9944 50.4528 52.7247C52.0825 50.1854 53.9556 47.8048 56.0297 45.6253C60.178 41.2767 65.4163 38.0073 70.8557 35.5315C71.8927 35.0554 72.8134 36.579 71.7657 37.0763C66.5169 39.5733 62.1146 43.2658 58.178 47.498C56.252 49.5718 54.5059 51.8148 52.9926 54.206C52.2518 55.3698 51.564 56.576 50.929 57.8033C50.2517 59.1153 49.7861 60.586 48.8337 61.7393C48.1458 62.5751 46.5479 61.9085 46.6326 60.8293C46.7596 59.3375 47.5321 57.9726 48.2093 56.6501Z" fill="white" fill-opacity="0.5"/>
<path d="M44.6007 67.7806C44.643 67.4526 44.7171 67.1457 44.7806 66.8283C44.8229 66.6485 44.9076 66.4898 45.024 66.3628C45.1192 66.2147 45.2462 66.0983 45.4155 66.0031C45.5743 65.8973 45.7436 65.8444 45.9235 65.8444C46.1034 65.802 46.2939 65.8126 46.4738 65.8655C46.8124 65.9713 47.1299 66.1829 47.2992 66.5003C47.3415 66.6061 47.3944 66.7225 47.4368 66.8283C47.5002 67.0717 47.5002 67.315 47.4368 67.5584C47.3627 67.8652 47.2992 68.1826 47.2039 68.4789C47.1299 68.7222 47.024 68.955 46.9182 69.1984C46.8865 69.2618 46.8653 69.3359 46.823 69.3994C46.7806 69.4629 46.7277 69.5369 46.6854 69.6004C46.5796 69.7591 46.442 69.9072 46.2727 70.013C46.1775 70.0554 46.0928 70.0871 45.9975 70.1294C45.8388 70.1718 45.6907 70.1823 45.5425 70.1506C45.4367 70.1506 45.3414 70.1294 45.2568 70.0765C45.1615 70.0448 45.0769 70.0025 45.0028 69.9284C44.8229 69.7909 44.6324 69.5687 44.5901 69.3359C44.5478 69.082 44.5054 68.828 44.5054 68.5741C44.5054 68.3096 44.5478 68.0557 44.5901 67.7912" fill="white" fill-opacity="0.5"/>
<path d="M113.058 149.059C113.228 149.059 113.45 149.123 113.545 149.419L113.841 150.382C114.053 151.059 114.677 151.525 115.386 151.525H116.635C116.931 151.525 117.058 151.715 117.111 151.863C117.164 152.022 117.175 152.244 116.942 152.424L115.841 153.26C115.302 153.672 115.079 154.371 115.281 155.027L115.64 156.201C115.736 156.487 115.587 156.667 115.45 156.762C115.312 156.857 115.101 156.931 114.857 156.751L114.042 156.127C113.46 155.683 112.656 155.683 112.074 156.127L111.259 156.751C111.016 156.931 110.804 156.857 110.667 156.762C110.529 156.667 110.381 156.487 110.476 156.201L110.847 155.027C111.048 154.381 110.825 153.672 110.286 153.26L109.185 152.424C108.952 152.244 108.963 152.022 109.016 151.863C109.069 151.704 109.196 151.525 109.492 151.525H110.741C111.45 151.525 112.085 151.059 112.286 150.382L112.582 149.419C112.677 149.123 112.889 149.059 113.058 149.059Z" fill="#FBAE17"/>
<g clip-path="url(#clip1_170_35)">
<path d="M155.685 64.0619C152.289 57.7206 146.591 53.7441 140.813 53.6832C140.768 53.6832 140.72 53.6832 140.675 53.6832C136.633 53.6832 130.916 55.5033 125.621 63.6742C120.325 55.5033 114.608 53.6832 110.566 53.6832C110.521 53.6832 110.473 53.6832 110.429 53.6832C104.651 53.7441 98.9523 57.7206 95.5564 64.0619C92.1637 70.4032 90.6097 80.3814 96.439 89.3758C101.776 97.614 111.103 104.92 124.956 111.713L125.621 112.04L126.286 111.713C140.138 104.92 149.466 97.614 154.802 89.3758C160.629 80.3814 159.078 70.4032 155.685 64.0619ZM138.376 85.7101C138.376 86.4759 137.756 87.0975 136.992 87.0975H129.778V94.3264C129.778 95.0922 129.157 95.7139 128.393 95.7139H122.852C122.087 95.7139 121.467 95.0922 121.467 94.3264V87.0975H114.253C113.489 87.0975 112.868 86.4759 112.868 85.7101V80.1571C112.868 79.3912 113.489 78.7696 114.253 78.7696H121.467V71.5407C121.467 70.7749 122.087 70.1533 122.852 70.1533H128.393C129.157 70.1533 129.778 70.7749 129.778 71.5407V77.6096L129.79 78.7696H136.992C137.756 78.7696 138.376 79.3912 138.376 80.1571V85.7101Z" fill="url(#paint0_linear_170_35)"/>
<path d="M124.543 111.05C120.46 108.454 117.131 104.836 114.01 101.132C110.589 97.0693 107.33 92.8172 104.951 88.0652C104.587 87.3379 104.238 86.5913 103.915 85.8318C102.08 81.5413 100.97 76.7958 101.478 72.1592C102.259 65.004 106.809 58.2429 112.53 54.0357C112.609 53.978 112.689 53.9235 112.769 53.8659C111.992 53.7377 111.254 53.6832 110.566 53.6832C110.521 53.6832 110.473 53.6832 110.429 53.6832C104.651 53.7441 98.9523 57.7206 95.5564 64.0619C92.1637 70.4032 90.6097 80.3814 96.439 89.3758C101.776 97.614 111.103 104.92 124.956 111.713L125.621 112.04L125.95 111.876C125.47 111.617 125 111.341 124.543 111.05Z" fill="url(#paint1_linear_170_35)"/>
<path opacity="0.3" d="M124.543 111.05C120.46 108.454 117.131 104.836 114.01 101.132C110.589 97.0693 107.33 92.8172 104.951 88.0652C104.587 87.3379 104.238 86.5913 103.915 85.8318C102.08 81.5413 100.97 76.7958 101.478 72.1592C102.259 65.004 106.809 58.2429 112.53 54.0357C112.609 53.978 112.689 53.9235 112.769 53.8659C111.992 53.7377 111.254 53.6832 110.566 53.6832C110.521 53.6832 110.473 53.6832 110.429 53.6832C104.651 53.7441 98.9523 57.7206 95.5564 64.0619C92.1637 70.4032 90.6097 80.3814 96.439 89.3758C101.776 97.614 111.103 104.92 124.956 111.713L125.621 112.04L125.95 111.876C125.47 111.617 125 111.341 124.543 111.05Z" fill="white"/>
</g>
<g clip-path="url(#clip2_170_35)">
<path d="M168.584 34.2558C166.518 34.7382 166.179 36.9756 166.529 37.9968C166.878 39.018 169.539 40.4395 171.291 39.644C173.037 38.8486 173.341 36.1238 171.748 35.0051C170.156 33.8864 170.207 33.871 168.584 34.2558Z" fill="#C70134"/>
<path d="M168.655 34.6921C168.039 34.8358 167.936 35.508 168.039 35.8159C168.142 36.1238 168.938 36.5497 169.462 36.3085C169.986 36.0674 170.073 35.2514 169.601 34.9179C169.123 34.5843 169.138 34.5792 168.655 34.6921Z" fill="#FFB6B6"/>
<g style="mix-blend-mode:multiply" opacity="0.4">
<path d="M171.748 35.005C170.803 34.3431 170.438 34.0711 169.96 34.0352C171.188 34.9948 172.103 36.3187 170.798 37.7145C169.873 38.6998 168.799 39.0539 167.664 39.136C168.686 39.7569 170.176 40.1572 171.296 39.644C173.043 38.8486 173.346 36.1237 171.753 35.005H171.748Z" fill="#C70134"/>
</g>
<path d="M150.824 12.2259C148.764 12.7082 148.42 14.9456 148.769 15.9668C149.124 16.988 151.78 18.4095 153.531 17.6141C155.278 16.8187 155.581 14.0938 153.989 12.9751C152.396 11.8564 152.448 11.8461 150.824 12.2259Z" fill="#C70134"/>
<path d="M150.896 12.6569C150.28 12.8006 150.177 13.4729 150.28 13.7807C150.382 14.0886 151.179 14.5146 151.703 14.2734C152.227 14.0373 152.314 13.2214 151.841 12.8827C151.364 12.5492 151.379 12.544 150.896 12.6569Z" fill="#FFB6B6"/>
<g style="mix-blend-mode:multiply" opacity="0.4">
<path d="M153.989 12.9751C153.043 12.3131 152.679 12.0412 152.201 12.0052C153.429 12.9649 154.343 14.2888 153.038 15.6846C152.114 16.6699 151.04 17.024 149.905 17.1061C150.927 17.727 152.417 18.1273 153.537 17.6141C155.283 16.8187 155.586 14.0938 153.994 12.9751H153.989Z" fill="#C70134"/>
</g>
<path d="M139.959 18.2505C137.894 18.7329 137.555 20.9703 137.909 21.9915C138.258 23.0127 140.92 24.4393 142.671 23.6387C144.418 22.8382 144.721 20.1133 143.129 18.9997C141.536 17.881 141.587 17.8708 139.964 18.2505H139.959Z" fill="#C70134"/>
<path d="M140.031 18.6813C139.414 18.8302 139.312 19.4973 139.414 19.8052C139.517 20.1131 140.313 20.539 140.842 20.2978C141.366 20.0617 141.454 19.2458 140.981 18.9071C140.503 18.5736 140.519 18.5684 140.036 18.6813H140.031Z" fill="#FFB6B6"/>
<g style="mix-blend-mode:multiply" opacity="0.4">
<path d="M143.123 18.9944C142.178 18.3324 141.813 18.0605 141.336 18.0245C142.563 18.9842 143.478 20.3081 142.173 21.7039C141.248 22.6892 140.175 23.0433 139.039 23.1254C140.062 23.7463 141.551 24.1466 142.671 23.6334C144.418 22.8329 144.721 20.108 143.129 18.9944H143.123Z" fill="#C70134"/>
</g>
<path d="M149.509 20.7599C147.449 21.2423 147.105 23.4797 147.454 24.506C147.809 25.5272 150.465 26.9487 152.216 26.1533C153.963 25.3579 154.266 22.633 152.674 21.5143C151.081 20.3956 151.132 20.3853 149.509 20.765V20.7599Z" fill="#C70134"/>
<path d="M149.581 21.1907C148.965 21.3344 148.862 22.0067 148.965 22.3146C149.072 22.6225 149.864 23.0433 150.388 22.8072C150.912 22.5711 150.999 21.7552 150.526 21.4165C150.048 21.083 150.064 21.0778 149.581 21.1907Z" fill="#FFB6B6"/>
<g style="mix-blend-mode:multiply" opacity="0.4">
<path d="M152.674 21.5038C151.728 20.8418 151.364 20.5699 150.886 20.5339C152.114 21.4936 153.028 22.8175 151.723 24.2133C150.798 25.1986 149.725 25.5475 148.589 25.6348C149.612 26.2557 151.102 26.656 152.221 26.1428C153.968 25.3474 154.271 22.6225 152.679 21.5038H152.674Z" fill="#C70134"/>
</g>
</g>
<path d="M36.1368 123.326C34.9574 121.563 32.7441 122.035 31.9116 122.722C31.0791 123.409 30.687 126.4 32.0488 127.759C33.4089 129.113 36.0657 128.436 36.5512 126.552C37.0367 124.667 37.0692 124.71 36.1368 123.326Z" fill="#C70134"/>
<path d="M35.7541 123.547C35.4023 123.021 34.737 123.162 34.4851 123.366C34.2332 123.571 34.1153 124.466 34.5257 124.872C34.9361 125.277 35.7305 125.071 35.876 124.511C36.0198 123.947 36.03 123.959 35.7541 123.547Z" fill="#FFB6B6"/>
<g style="mix-blend-mode:multiply" opacity="0.4">
<path d="M36.5514 126.552C36.8377 125.434 36.9637 124.997 36.8289 124.537C36.3637 126.024 35.447 127.346 33.6809 126.617C32.4329 126.099 31.723 125.219 31.246 124.186C31.0253 125.361 31.1759 126.897 32.0509 127.764C33.4109 129.118 36.0677 128.441 36.5533 126.556L36.5514 126.552Z" fill="#C70134"/>
</g>
<path d="M17.1083 122.95C18.1862 121.123 16.8027 119.332 15.823 118.88C14.8433 118.427 11.9773 119.369 11.3422 121.185C10.7107 122.997 12.4715 125.099 14.3805 124.72C16.2895 124.341 16.2652 124.389 17.1083 122.95Z" fill="#C70134"/>
<path d="M16.7431 122.7C17.0651 122.155 16.65 121.617 16.3564 121.478C16.0628 121.34 15.2048 121.621 15.0172 122.167C14.8296 122.712 15.3592 123.339 15.9269 123.228C16.4981 123.113 16.4912 123.128 16.7431 122.7Z" fill="#FFB6B6"/>
<g style="mix-blend-mode:multiply" opacity="0.4">
<path d="M14.3804 124.72C15.512 124.494 15.9606 124.418 16.3166 124.098C14.7746 124.323 13.1856 124.069 13.0778 122.161C13.0042 120.812 13.4899 119.791 14.2149 118.914C13.0597 119.224 11.7411 120.025 11.3385 121.189C10.707 123.001 12.4678 125.103 14.3768 124.724L14.3804 124.72Z" fill="#C70134"/>
</g>
<path d="M11.8964 141.102C12.5588 139.98 11.7086 138.879 11.1065 138.601C10.5045 138.323 8.74313 138.902 8.35286 140.018C7.96477 141.131 9.04687 142.423 10.22 142.19C11.3932 141.957 11.3782 141.987 11.8964 141.102Z" fill="#C70134"/>
<path d="M11.6719 140.949C11.8698 140.614 11.6147 140.283 11.4343 140.198C11.2538 140.113 10.7265 140.286 10.6112 140.621C10.496 140.956 10.8214 141.342 11.1703 141.273C11.5213 141.202 11.5171 141.211 11.6719 140.949Z" fill="#FFB6B6"/>
<g style="mix-blend-mode:multiply" opacity="0.4">
<path d="M10.22 142.19C10.9154 142.051 11.1911 142.005 11.4099 141.808C10.4622 141.946 9.48575 141.79 9.4195 140.618C9.37427 139.788 9.67275 139.161 10.1183 138.622C9.40834 138.812 8.59802 139.304 8.35059 140.02C7.9625 141.134 9.04461 142.425 10.2178 142.192L10.22 142.19Z" fill="#C70134"/>
</g>
<g clip-path="url(#clip3_170_35)">
<path d="M84.253 17.6443C82.1723 15.503 79.5285 14.3127 76.8969 14.3652C74.2226 14.4177 71.6339 15.7655 70.11 17.8543C66.6768 17.1192 63.5373 17.9185 61.2056 20.1415C59.8715 21.4135 58.7577 23.444 59.6267 25.3519C60.1714 26.548 61.3892 27.4116 63.2435 27.9133C66.0281 28.666 69.1247 28.5026 71.8113 27.4757C73.3535 28.2693 75.0549 28.666 76.7317 28.666C78.6595 28.666 80.5444 28.1409 82.0744 27.1023C85.0547 27.5866 87.827 27.4232 90.3239 26.618C91.9763 26.0871 93.0228 25.2644 93.4389 24.185C93.8857 23.018 93.5491 21.6235 92.5087 20.3574C90.6177 18.0527 87.2334 16.9616 84.253 17.6443ZM91.6825 23.5723C91.4745 24.1208 90.8135 24.5759 89.7242 24.926C87.4231 25.667 84.8344 25.7895 82.0132 25.2761C81.7439 25.2294 81.4685 25.2936 81.2543 25.4569C78.9165 27.2307 75.1773 27.3415 72.3621 25.7137C72.2153 25.6261 72.0439 25.5853 71.8787 25.5853C71.7501 25.5853 71.6216 25.6086 71.4992 25.6612C69.1064 26.6822 66.2851 26.8748 63.7637 26.1921C62.8763 25.9529 61.7442 25.4861 61.3525 24.6342C60.8568 23.5548 61.6768 22.2187 62.5336 21.4077C64.5165 19.5172 67.2704 18.9279 70.2875 19.7389C70.7036 19.8498 71.1443 19.6806 71.3585 19.3188C72.4784 17.4342 74.6693 16.1914 76.9398 16.1506C76.9826 16.1506 77.0193 16.1506 77.0622 16.1506C79.2531 16.1506 81.4991 17.265 83.2371 19.2313C83.488 19.5114 83.8858 19.6164 84.253 19.4997C86.6398 18.7412 89.4978 19.5639 91.0461 21.4543C91.6703 22.2128 91.909 23.0064 91.6948 23.5665L91.6825 23.5723Z" fill="#94C5C9"/>
</g>
<g clip-path="url(#clip4_170_35)">
<path d="M142.067 108.662C139.986 106.521 137.342 105.331 134.71 105.383C132.036 105.436 129.447 106.784 127.923 108.873C124.49 108.137 121.351 108.937 119.019 111.16C117.685 112.432 116.571 114.462 117.44 116.37C117.985 117.566 119.203 118.43 121.057 118.932C123.842 119.684 126.938 119.521 129.625 118.494C131.167 119.287 132.868 119.684 134.545 119.684C136.473 119.684 138.358 119.159 139.888 118.121C142.868 118.605 145.641 118.441 148.137 117.636C149.79 117.105 150.836 116.283 151.252 115.203C151.699 114.036 151.363 112.642 150.322 111.376C148.431 109.071 145.047 107.98 142.067 108.662ZM149.496 114.591C149.288 115.139 148.627 115.594 147.538 115.944C145.237 116.685 142.648 116.808 139.827 116.294C139.557 116.248 139.282 116.312 139.068 116.475C136.73 118.249 132.991 118.36 130.176 116.732C130.029 116.644 129.857 116.603 129.692 116.603C129.564 116.603 129.435 116.627 129.313 116.679C126.92 117.7 124.099 117.893 121.577 117.21C120.69 116.971 119.558 116.504 119.166 115.652C118.67 114.573 119.49 113.237 120.347 112.426C122.33 110.535 125.084 109.946 128.101 110.757C128.517 110.868 128.958 110.699 129.172 110.337C130.292 108.452 132.483 107.21 134.753 107.169C134.796 107.169 134.833 107.169 134.876 107.169C137.067 107.169 139.313 108.283 141.051 110.25C141.302 110.53 141.699 110.635 142.067 110.518C144.453 109.759 147.311 110.582 148.86 112.473C149.484 113.231 149.722 114.025 149.508 114.585L149.496 114.591Z" fill="#94C5C9"/>
</g>
<defs>
<linearGradient id="paint0_linear_170_35" x1="163.238" y1="113.901" x2="109.951" y2="60.7247" gradientUnits="userSpaceOnUse">
<stop stop-color="#14B0B6"/>
<stop offset="0.82" stop-color="#86CDD3"/>
</linearGradient>
<linearGradient id="paint1_linear_170_35" x1="97.1425" y1="64.7797" x2="126.686" y2="94.2587" gradientUnits="userSpaceOnUse">
<stop stop-color="#14B0B6"/>
<stop offset="0.7" stop-color="#76C9CF"/>
<stop offset="0.82" stop-color="#86CDD3"/>
</linearGradient>
<clipPath id="clip0_170_35">
<rect width="34.308" height="14.295" fill="white" transform="matrix(-1 0 0 1 39.308 110.142)"/>
</clipPath>
<clipPath id="clip1_170_35">
<rect width="66.1721" height="58.3565" fill="white" transform="translate(92.5347 53.6832)"/>
</clipPath>
<clipPath id="clip2_170_35">
<rect width="35.0051" height="27.8801" fill="white" transform="translate(137.786 12)"/>
</clipPath>
<clipPath id="clip3_170_35">
<rect width="34.308" height="14.295" fill="white" transform="translate(59.3209 14.3656)"/>
</clipPath>
<clipPath id="clip4_170_35">
<rect width="34.308" height="14.295" fill="white" transform="translate(117.134 105.384)"/>
</clipPath>
</defs>
</svg>
