<svg width="177" height="178" viewBox="0 0 177 178" fill="none" xmlns="http://www.w3.org/2000/svg">
<g clip-path="url(#clip0_170_34)">
<path d="M117.371 132.985C119.451 130.845 122.093 129.655 124.723 129.707C127.396 129.76 129.984 131.107 131.507 133.195C134.938 132.46 138.076 133.259 140.407 135.481C141.74 136.752 142.854 138.782 141.985 140.689C141.441 141.884 140.223 142.747 138.37 143.249C135.587 144.001 132.492 143.838 129.806 142.811C128.265 143.605 126.564 144.001 124.888 144.001C122.962 144.001 121.078 143.476 119.548 142.438C116.57 142.922 113.799 142.759 111.303 141.954C109.651 141.423 108.605 140.601 108.189 139.522C107.743 138.356 108.079 136.962 109.119 135.697C111.009 133.393 114.392 132.303 117.371 132.985ZM109.945 138.91C110.153 139.458 110.814 139.913 111.902 140.263C114.202 141.004 116.79 141.126 119.61 140.613C119.879 140.566 120.154 140.63 120.368 140.794C122.705 142.566 126.442 142.677 129.256 141.05C129.403 140.963 129.574 140.922 129.739 140.922C129.868 140.922 129.996 140.945 130.118 140.998C132.51 142.018 135.33 142.211 137.85 141.528C138.737 141.289 139.869 140.823 140.26 139.971C140.756 138.892 139.936 137.557 139.08 136.746C137.098 134.857 134.345 134.268 131.329 135.078C130.914 135.189 130.473 135.02 130.259 134.659C129.14 132.775 126.95 131.533 124.68 131.492C124.638 131.492 124.601 131.492 124.558 131.492C122.368 131.492 120.123 132.606 118.386 134.571C118.135 134.851 117.738 134.956 117.371 134.839C114.985 134.081 112.129 134.903 110.581 136.793C109.957 137.551 109.719 138.344 109.933 138.904L109.945 138.91Z" fill="#94C5C9"/>
</g>
<path d="M118.841 65.3575C119.042 65.3575 119.528 65.421 119.708 65.9921L120.057 67.1342C120.269 67.811 120.893 68.2763 121.601 68.2763H123.082C123.664 68.2763 123.875 68.7099 123.939 68.8897C124.002 69.0694 124.097 69.5453 123.632 69.8943L122.321 70.8884C121.781 71.3008 121.559 72.0094 121.76 72.6544L122.194 74.0504C122.373 74.6214 122.014 74.9493 121.845 75.055C121.675 75.1713 121.252 75.3934 120.776 75.0339L119.814 74.3042C119.528 74.0821 119.179 73.9763 118.83 73.9763C118.481 73.9763 118.132 74.0821 117.846 74.3042L116.884 75.0339C116.408 75.3934 115.985 75.1713 115.816 75.055C115.657 74.9387 115.297 74.6109 115.467 74.0504L115.9 72.6544C116.101 72.0094 115.879 71.3008 115.34 70.8884L114.039 69.8943C113.573 69.5348 113.668 69.0694 113.732 68.8897C113.795 68.6993 114.007 68.2763 114.589 68.2763H116.069C116.778 68.2763 117.402 67.811 117.614 67.1342L117.963 65.9921C118.143 65.421 118.629 65.3575 118.83 65.3575H118.841Z" fill="#FBAE17"/>
<path d="M66.6478 38.1367C66.3393 39.3609 66.689 40.6923 66.332 41.906C65.8266 43.6223 64.1227 44.6314 62.7293 45.7419C61.2358 46.9202 59.8947 48.5521 59.8102 50.4586C59.7453 51.719 60.2264 53.099 59.5343 54.1572C59.214 54.6472 58.6818 54.9838 58.3657 55.4828C57.9568 56.1183 58.0472 56.465 58.3649 56.6635C58.7529 56.9299 59.5024 56.945 60.0058 56.9619C61.2149 57.0272 62.4275 57.0952 63.6241 57.1618C67.3116 57.3604 71.0054 57.5582 74.6929 57.7567C77.2822 57.8936 79.8589 58.0318 82.4426 58.1756C91.8584 58.6849 101.018 61.6531 108.702 67.0984C114.896 71.4867 120.184 77.5156 119.114 84.9922C116.714 101.814 101.613 92.9083 101.613 92.9083L99.5005 95.5346C99.64 95.6297 99.7663 95.7199 99.9057 95.815C111.949 104.248 128.832 94.9382 127.772 80.2409C126.996 69.436 117.712 58.8232 109.228 46.389C102.918 37.1301 99.9346 25.8905 99.1145 14.7874C98.9365 12.3101 99.8182 6.32539 97.3058 4.89213C97.2056 4.84007 97.1123 4.79356 97.005 4.76437C95.7923 4.30811 94.3278 5.07605 93.4488 6.09812C92.5042 7.21582 91.942 8.63535 90.9368 9.68715C88.9925 11.7298 85.6503 12.1686 84.1222 14.5346C83.0581 16.1611 83.1316 18.3374 82.0055 19.914C80.4392 22.1295 77.0858 22.4622 75.5265 24.6833C74.1776 26.6285 74.6454 29.3673 73.436 31.4077C71.795 34.1965 67.4454 34.9834 66.6527 38.1236L66.6478 38.1367Z" fill="#B3742A"/>
<path d="M73.4307 31.4146C71.7931 34.2061 67.4373 34.9937 66.6474 38.1304C66.3423 39.3574 66.6858 40.6894 66.3316 41.8997C65.8262 43.616 64.1223 44.6251 62.7254 45.7328C61.2327 46.9174 59.8909 48.543 59.8035 50.453C59.7387 51.7134 60.2232 53.0962 59.5311 54.1544C59.2046 54.6451 58.6786 54.981 58.3625 55.48C57.9536 56.1155 58.0413 56.4656 58.3583 56.6579C58.3962 56.6884 58.4426 56.7085 58.4986 56.7308C58.9049 56.9321 59.5525 56.9394 60.0054 56.9557C61.2173 57.0174 62.4299 57.0855 63.623 57.1493C67.3106 57.3478 71.0015 57.5492 74.6918 57.7442C77.2845 57.8838 79.8516 58.02 82.4387 58.1665C91.8546 58.6758 101.014 61.6441 108.699 67.0893C114.892 71.4777 120.183 77.5031 119.11 84.9831C116.71 101.799 101.609 92.8993 101.609 92.8993L99.4938 95.529C99.6333 95.6241 99.7659 95.7136 99.8991 95.8094C111.946 104.245 128.828 94.9354 127.762 80.2388C126.993 69.4332 117.705 58.8177 109.221 46.3834C102.911 37.1245 99.9342 25.8842 99.1079 14.7818C98.9333 12.3073 99.8116 6.31981 97.3026 4.88932C97.1996 4.84072 97.1091 4.79075 96.9991 4.76503C95.787 4.315 94.319 5.08017 93.4428 6.09877C92.5017 7.21924 91.9298 8.63669 90.928 9.69126C88.9837 11.7339 85.6416 12.1727 84.1127 14.5324C83.0487 16.159 83.1222 18.3353 81.9995 19.9146C80.4333 22.1301 77.0798 22.4628 75.5205 24.6839C74.1717 26.6291 74.6366 29.3715 73.43 31.4083L73.4307 31.4146Z" fill="#B3742A"/>
<path d="M101.008 93.6539L101.607 92.909C101.607 92.909 104.993 94.9023 108.813 95.2188C105.81 95.5254 102.754 94.4363 101.008 93.6539Z" fill="#CD8623"/>
<path d="M125.701 80.2583C124.931 69.4527 115.643 58.8372 107.16 46.403C100.85 37.1441 97.8726 25.9038 97.0463 14.8014C96.8717 12.3269 97.75 6.33938 95.241 4.90889C95.2078 4.89362 95.1809 4.87766 95.1512 4.86516C95.7626 4.62081 96.4112 4.54912 96.9996 4.77135C97.1069 4.80053 97.2002 4.84705 97.3031 4.89564C99.8156 6.3289 98.9338 12.3136 99.1084 14.7881C99.9313 25.8878 102.912 37.1309 109.222 46.3898C117.706 58.824 126.993 69.4395 127.763 80.2451C128.575 91.4501 118.948 99.5251 108.993 98.9871C118.172 98.3987 126.455 90.6868 125.701 80.2583Z" fill="#CD8623"/>
<g style="mix-blend-mode:multiply" opacity="0.31">
<path d="M58.4963 56.7405C58.9027 56.9418 59.5503 56.9492 60.0032 56.9654C61.2151 57.0272 62.4276 57.0952 63.6208 57.159C67.3083 57.3576 70.9993 57.5589 74.6896 57.754C77.2823 57.8936 79.8494 58.0297 82.4365 58.1762C91.8523 58.6855 101.012 61.6538 108.696 67.099C114.889 71.4874 120.181 77.5128 119.107 84.9928C116.707 101.809 101.607 92.909 101.607 92.909L100.587 94.1771C102.8 95.615 104.814 97.1665 107.652 97.4179C110.969 97.7174 114.464 96.6998 117.004 94.5092C121.653 90.5104 123.114 83.5935 121.548 77.6773C119.98 71.7645 115.802 66.8283 110.886 63.2047C103.768 57.9589 95.0276 55.1621 86.2111 54.3246C77.4009 53.4863 68.4819 54.5352 59.8236 56.4328C59.3826 56.5289 58.9388 56.6285 58.4922 56.7315L58.4963 56.7405Z" fill="#B3742A"/>
</g>
<path d="M66.648 38.1367C66.3395 39.3608 66.6892 40.6922 66.3322 41.906C65.8268 43.6222 64.1229 44.6313 62.7295 45.7418C61.236 46.9202 59.8949 48.552 59.8104 50.4586C59.7455 51.719 60.2266 53.0989 59.5345 54.1572C59.2142 54.6471 58.682 54.9837 58.3659 55.4827C57.957 56.1182 58.0474 56.4649 58.3651 56.6634C59.5242 56.6142 60.6252 55.9591 61.57 55.2296C62.3034 54.6782 62.9907 54.0498 63.4053 53.2306C64.0773 51.8936 63.8634 50.2663 64.4753 48.8981C65.6051 46.4057 68.9682 45.7783 70.5809 43.5545C71.8826 41.7597 71.794 39.2631 72.9735 37.387C74.5718 34.8492 78.0689 33.9986 79.6071 31.4295C80.8686 29.3456 80.5335 26.5479 81.8848 24.5076C83.3388 22.3046 86.3963 21.5626 87.7841 19.3005C88.2923 18.471 88.5268 17.5012 89.035 16.6716C90.2561 14.6521 92.712 13.8314 94.5215 12.3308C96.0235 11.0852 97.3853 9.05333 97.6066 7.06854C97.6874 6.25466 97.4997 5.37889 97.0025 4.76778C95.7897 4.31151 94.3252 5.07946 93.4462 6.10152C92.5016 7.21922 91.9394 8.63875 90.9342 9.69055C88.9899 11.7332 85.6477 12.172 84.1196 14.538C83.0555 16.1645 83.129 18.3408 82.0029 19.9174C80.4366 22.1329 77.0832 22.4656 75.5239 24.6867C74.1751 26.6319 74.6428 29.3707 73.4334 31.4111C71.7924 34.1999 67.4429 34.9868 66.6501 38.127L66.648 38.1367Z" fill="#9C5A22"/>
<path d="M99.6381 92.5236L85.375 81.0501C85.6182 81.0232 85.8615 80.9963 86.1047 80.9695L84.5412 82.9132C84.1231 83.4329 83.313 82.7869 83.7338 82.2637L85.2974 80.32C85.473 80.1017 85.8098 80.0645 86.0272 80.2394L100.29 91.7128C100.808 92.1292 100.159 92.9427 99.6381 92.5236Z" fill="#B3742A"/>
<path d="M77.9362 80.5275L80.4272 82.5314L76.4556 87.4686L73.9646 85.4648L77.9362 80.5275Z" fill="#331000"/>
<path d="M102.416 90.2216C103.531 91.118 103.634 92.8333 102.65 94.0564L96.8781 101.232L92.8483 97.9902L98.6204 90.8147C99.6042 89.5917 101.302 89.3251 102.416 90.2216Z" fill="#431700"/>
<path d="M62.852 74.3913L100.086 104.343L78.4724 131.213L41.2379 101.26L62.852 74.3913Z" fill="#5B2C0E"/>
<path d="M61.897 70.9581L103.644 104.54L101.562 107.129L59.815 73.5463L61.897 70.9581Z" fill="#431700"/>
<path d="M32.2721 101.513L80.1434 140.021L82.5262 131.712C82.7776 130.841 82.4793 129.905 81.7755 129.339L42.3536 97.6269C41.6498 97.0607 40.6749 96.9727 39.8749 97.402L32.2686 101.51L32.2721 101.513Z" fill="#431700"/>
<path d="M38.2375 106.311L78.6151 138.792L81.8894 129.43L46.6802 101.107L38.2375 106.311Z" fill="#601E01"/>
<path d="M52.3294 100.852L76.4911 120.288L83.1837 119.549L90.748 110.145L90.0365 103.449L65.8748 84.0134L59.1822 84.7531L51.6179 94.1564L52.3294 100.852ZM76.8713 118.996L53.5135 100.207L52.9114 94.5406L59.8262 85.9446L65.4897 85.3186L88.8475 104.108L89.4496 109.774L82.5348 118.37L76.8713 118.996Z" fill="#C87924"/>
<path d="M55.712 99.042L77.914 116.902C79.4296 116.734 80.2717 116.641 81.7873 116.474L87.7016 109.121C87.5405 107.605 87.4509 106.763 87.2898 105.246L65.0878 87.3865C63.5722 87.554 62.7301 87.6471 61.2145 87.8146L55.3002 95.1668C55.4613 96.6832 55.5509 97.5256 55.712 99.042Z" fill="#C87924"/>
<path d="M44.7481 111.549L72.1046 133.555L76.2139 124.865L52.3558 105.673L44.7481 111.549Z" fill="#431700"/>
<path d="M64.4354 70.7344L92.8857 93.6203C93.2411 93.9062 93.765 93.8483 94.0521 93.4914C94.3391 93.1345 94.2834 92.6104 93.9281 92.3245L65.4778 69.4386C65.1224 69.1527 64.5985 69.2106 64.3114 69.5675C64.0243 69.9244 64.08 70.4485 64.4354 70.7344Z" fill="#1B0000"/>
<path d="M129.306 151.635C129.485 151.063 129.972 151 130.173 151C130.374 151 130.86 151.063 131.04 151.635L131.389 152.777C131.601 153.453 132.225 153.919 132.934 153.919H134.414C134.996 153.919 135.208 154.352 135.271 154.532C135.335 154.712 135.43 155.188 134.964 155.537L133.653 156.531C133.113 156.943 132.891 157.652 133.092 158.297L133.526 159.693C133.706 160.264 133.346 160.592 133.177 160.697C133.018 160.814 132.584 161.036 132.109 160.676L131.146 159.947C130.86 159.725 130.511 159.619 130.162 159.619C129.813 159.619 129.464 159.725 129.179 159.947L128.216 160.676C127.74 161.036 127.317 160.814 127.148 160.697C126.989 160.581 126.63 160.264 126.799 159.693L127.232 158.297C127.433 157.652 127.211 156.943 126.672 156.531L125.36 155.537C124.895 155.177 124.99 154.712 125.054 154.532C125.117 154.352 125.329 153.919 125.91 153.919H127.391C128.1 153.919 128.724 153.453 128.935 152.777L129.284 151.635H129.306Z" fill="#FBAE17"/>
<path d="M66.9212 60.153C78.0907 60.153 88.7101 63.3678 97.8805 69.4909C88.0332 70.707 78.9368 75.1803 71.8924 82.3609C63.7798 90.6413 59.3056 101.576 59.3056 113.166C59.3056 137.447 79.0638 157.191 103.338 157.191C103.825 157.191 104.311 157.191 104.809 157.17C94.5276 166.624 80.9571 171.965 66.9212 171.965C36.0887 171.965 10.9997 146.88 10.9997 116.054C10.9997 85.2268 36.0782 60.153 66.9212 60.153Z" fill="#FBAE17"/>
<path d="M67.8518 155.341C67.8518 150.275 63.7479 146.172 58.6814 146.172C53.6149 146.172 49.511 150.275 49.511 155.341C49.511 160.406 53.6149 164.509 58.6814 164.509C63.7479 164.509 67.8518 160.406 67.8518 155.341Z" fill="#FFDC7A"/>
<path d="M48.6016 79.2201C48.6016 75.4977 45.5871 72.4731 41.8533 72.4731C38.1196 72.4731 35.1051 75.4977 35.1051 79.2201C35.1051 82.9426 38.1302 85.9671 41.8533 85.9671C45.5765 85.9671 48.6016 82.9426 48.6016 79.2201Z" fill="#FFDC7A"/>
<path d="M69.8828 70.9396C69.8828 68.4861 67.8943 66.4874 65.4298 66.4874C62.9653 66.4874 60.9768 68.4756 60.9768 70.9396C60.9768 73.4036 62.9653 75.3918 65.4298 75.3918C67.8943 75.3918 69.8828 73.4036 69.8828 70.9396Z" fill="#FFDC7A"/>
<path d="M49.3523 97.4201C49.3523 95.4743 47.7763 93.8986 45.8301 93.8986C43.8839 93.8986 42.3079 95.4743 42.3079 97.4201C42.3079 99.3659 43.8839 100.942 45.8301 100.942C47.7763 100.942 49.3523 99.3659 49.3523 97.4201Z" fill="#FFDC7A"/>
<path d="M40.9331 141.297C40.9331 139.351 39.3571 137.775 37.4109 137.775C35.4647 137.775 33.8887 139.351 33.8887 141.297C33.8887 143.243 35.4647 144.818 37.4109 144.818C39.3571 144.818 40.9331 143.243 40.9331 141.297Z" fill="#FFDC7A"/>
<path d="M67.8518 155.341C67.8518 150.275 63.7479 146.172 58.6814 146.172C53.6149 146.172 49.511 150.275 49.511 155.341C49.511 160.406 53.6149 164.509 58.6814 164.509C63.7479 164.509 67.8518 160.406 67.8518 155.341Z" fill="#FFDC7A"/>
<path d="M48.6016 79.2201C48.6016 75.4977 45.5871 72.4731 41.8533 72.4731C38.1196 72.4731 35.1051 75.4977 35.1051 79.2201C35.1051 82.9426 38.1302 85.9671 41.8533 85.9671C45.5765 85.9671 48.6016 82.9426 48.6016 79.2201Z" fill="#FFDC7A"/>
<path d="M69.8828 70.9396C69.8828 68.4861 67.8943 66.4874 65.4298 66.4874C62.9653 66.4874 60.9768 68.4756 60.9768 70.9396C60.9768 73.4036 62.9653 75.3918 65.4298 75.3918C67.8943 75.3918 69.8828 73.4036 69.8828 70.9396Z" fill="#FFDC7A"/>
<path d="M49.3523 97.4201C49.3523 95.4743 47.7763 93.8986 45.8301 93.8986C43.8839 93.8986 42.3079 95.4743 42.3079 97.4201C42.3079 99.3659 43.8839 100.942 45.8301 100.942C47.7763 100.942 49.3523 99.3659 49.3523 97.4201Z" fill="#FFDC7A"/>
<path d="M40.9331 141.297C40.9331 139.351 39.3571 137.775 37.4109 137.775C35.4647 137.775 33.8887 139.351 33.8887 141.297C33.8887 143.243 35.4647 144.818 37.4109 144.818C39.3571 144.818 40.9331 143.243 40.9331 141.297Z" fill="#FFDC7A"/>
<g style="mix-blend-mode:multiply">
<path d="M10.9997 116.054C10.9997 146.88 36.0887 171.965 66.9212 171.965C80.9571 171.965 94.5382 166.614 104.809 157.17C104.322 157.17 103.825 157.191 103.349 157.191C79.0638 157.191 59.3056 137.447 59.3056 113.167C59.3056 101.576 63.7798 90.6309 71.8924 82.3611C74.3887 79.8231 77.1387 77.6128 80.0898 75.7833C70.0626 80.595 61.5374 88.5688 56.418 98.4566C51.0343 108.852 49.564 121.098 52.1343 132.371C53.6574 139.034 45.8092 143.951 40.5735 139.573C31.6781 132.128 25.4904 121.035 23.5865 109.476C21.799 98.6364 23.2481 87.6064 26.7914 77.1687C17.0287 87.2363 10.9997 100.963 10.9997 116.064" fill="#FFE1AD"/>
</g>
<g style="mix-blend-mode:multiply">
<path d="M18.0862 132.636C22.8882 146.384 33.9731 157.794 47.5859 162.976C61.1987 168.158 77.0645 167.016 89.4609 159.338C80.428 155.848 71.1942 152.306 61.5161 151.861C55.1169 151.565 48.5273 152.623 42.3925 150.772C32.4817 147.79 26.3152 138.156 18.0862 132.636Z" fill="#FAD184"/>
</g>
<path d="M25.6281 145.601C30.8849 151.375 36.5754 156.789 43.8208 159.972C47.819 161.728 52.1556 162.69 56.3865 163.716C60.9241 164.816 65.3348 164.89 69.9676 164.594C75.0763 164.266 80.1005 163.547 84.9766 161.939C85.8862 161.643 86.2564 163.05 85.3679 163.356C76.7793 166.381 66.9848 168.803 57.8779 167.037C49.1411 165.345 40.4044 162.743 33.434 157.011C29.8907 154.093 26.7387 150.486 24.3905 146.563C23.9357 145.802 25.0146 144.934 25.6281 145.601Z" fill="#DB7D0E"/>
<path d="M20.5296 139.943C20.7623 139.689 21.122 139.605 21.4499 139.647C21.6508 139.668 21.8518 139.753 22.0316 139.858C22.2643 140.007 22.4758 140.176 22.6451 140.387C22.8143 140.609 22.9836 140.821 23.1528 141.053L23.8509 142.048C23.9461 142.206 23.999 142.365 24.0095 142.545C24.0518 142.724 24.0413 142.904 23.9884 143.073C23.9038 143.38 23.6605 143.718 23.3749 143.877C23.0682 144.036 22.6874 144.12 22.3383 144.015C22.2326 143.972 22.1268 143.93 22.021 143.877C21.8201 143.761 21.6614 143.602 21.5451 143.401C21.3441 143.105 21.1431 142.809 20.9422 142.523C20.8364 142.375 20.7412 142.227 20.646 142.079C20.5931 142.005 20.5508 141.931 20.5085 141.847C20.4345 141.677 20.3393 141.519 20.2969 141.339C20.2546 141.17 20.2229 140.99 20.2123 140.821C20.1912 140.493 20.3181 140.186 20.5296 139.954" fill="#DB7D0E"/>
<path d="M20.8577 88.6851C21.5452 87.3421 22.2962 86.0308 23.1 84.7617C24.7289 82.2237 26.6011 79.8443 28.6742 77.6658C32.8204 73.3194 38.0561 70.0516 43.4928 67.577C44.5294 67.1011 45.4496 68.624 44.4024 69.121C39.1562 71.6167 34.7561 75.3075 30.8214 79.5376C28.8963 81.6103 27.1511 83.8523 25.6385 86.2423C24.8981 87.4055 24.2106 88.6111 23.576 89.8378C22.8991 91.1492 22.4337 92.6191 21.4817 93.7718C20.7942 94.6073 19.1971 93.941 19.2817 92.8623C19.4086 91.3712 20.1807 90.007 20.8577 88.6851Z" fill="white" fill-opacity="0.5"/>
<path d="M17.2508 99.81C17.2931 99.4822 17.3671 99.1755 17.4306 98.8582C17.4729 98.6785 17.5575 98.5198 17.6739 98.3929C17.7691 98.2449 17.896 98.1285 18.0652 98.0334C18.2239 97.9276 18.3931 97.8747 18.5729 97.8747C18.7527 97.8324 18.9431 97.843 19.1229 97.8959C19.4614 98.0016 19.7787 98.2131 19.948 98.5304C19.9903 98.6362 20.0432 98.7525 20.0855 98.8582C20.1489 99.1015 20.1489 99.3447 20.0855 99.5879C20.0114 99.8946 19.948 100.212 19.8528 100.508C19.7787 100.751 19.673 100.984 19.5672 101.227C19.5354 101.291 19.5143 101.365 19.472 101.428C19.4297 101.491 19.3768 101.565 19.3345 101.629C19.2287 101.788 19.0912 101.936 18.922 102.041C18.8268 102.084 18.7422 102.115 18.647 102.158C18.4883 102.2 18.3402 102.211 18.1921 102.179C18.0864 102.179 17.9912 102.158 17.9066 102.105C17.8114 102.073 17.7267 102.031 17.6527 101.957C17.4729 101.819 17.2825 101.597 17.2402 101.365C17.1979 101.111 17.1556 100.857 17.1556 100.603C17.1556 100.339 17.1979 100.085 17.2402 99.8206" fill="white" fill-opacity="0.5"/>
<path d="M103.072 143C103.241 143 103.463 143.063 103.558 143.36L103.855 144.322C104.066 144.999 104.69 145.464 105.399 145.464H106.647C106.943 145.464 107.07 145.654 107.123 145.802C107.176 145.961 107.186 146.183 106.954 146.363L105.854 147.198C105.314 147.611 105.092 148.309 105.293 148.964L105.653 150.138C105.748 150.424 105.6 150.604 105.462 150.699C105.325 150.794 105.113 150.868 104.87 150.688L104.056 150.064C103.474 149.62 102.67 149.62 102.088 150.064L101.274 150.688C101.03 150.868 100.819 150.794 100.681 150.699C100.544 150.604 100.396 150.424 100.491 150.138L100.861 148.964C101.062 148.319 100.84 147.611 100.301 147.198L99.2006 146.363C98.9679 146.183 98.9785 145.961 99.0314 145.802C99.0843 145.644 99.2112 145.464 99.5074 145.464H100.755C101.464 145.464 102.099 144.999 102.3 144.322L102.596 143.36C102.691 143.063 102.903 143 103.072 143Z" fill="#FBAE17"/>
<g clip-path="url(#clip1_170_34)">
<path d="M141.172 66.302C139.108 66.7841 138.769 69.0204 139.118 70.0411C139.467 71.0618 142.127 72.4826 143.878 71.6875C145.624 70.8925 145.927 68.169 144.335 67.0508C142.743 65.9327 142.795 65.9173 141.172 66.302Z" fill="#C70134"/>
<path d="M141.244 66.7379C140.628 66.8816 140.525 67.5535 140.628 67.8612C140.731 68.169 141.527 68.5947 142.05 68.3536C142.574 68.1125 142.661 67.297 142.189 66.9636C141.711 66.6302 141.727 66.6251 141.244 66.7379Z" fill="#FFB6B6"/>
<g style="mix-blend-mode:multiply" opacity="0.4">
<path d="M144.335 67.0508C143.39 66.3892 143.026 66.1173 142.548 66.0814C143.776 67.0406 144.69 68.3639 143.385 69.759C142.461 70.7438 141.388 71.0977 140.253 71.1797C141.275 71.8004 142.764 72.2004 143.883 71.6875C145.629 70.8925 145.932 68.169 144.34 67.0508H144.335Z" fill="#C70134"/>
</g>
<path d="M123.421 44.2828C121.362 44.7649 121.018 47.0012 121.367 48.0219C121.722 49.0426 124.376 50.4633 126.127 49.6683C127.873 48.8733 128.176 46.1497 126.584 45.0316C124.993 43.9135 125.044 43.9032 123.421 44.2828Z" fill="#C70134"/>
<path d="M123.493 44.7137C122.877 44.8573 122.774 45.5292 122.877 45.8369C122.98 46.1447 123.776 46.5704 124.299 46.3293C124.823 46.0934 124.91 45.2779 124.438 44.9393C123.96 44.6059 123.976 44.6008 123.493 44.7137Z" fill="#FFB6B6"/>
<g style="mix-blend-mode:multiply" opacity="0.4">
<path d="M126.584 45.0317C125.639 44.37 125.275 44.0982 124.797 44.0623C126.025 45.0214 126.939 46.3447 125.634 47.7398C124.71 48.7246 123.637 49.0785 122.502 49.1606C123.524 49.7812 125.013 50.1813 126.132 49.6684C127.878 48.8733 128.181 46.1498 126.589 45.0317H126.584Z" fill="#C70134"/>
</g>
<path d="M112.562 50.3045C110.497 50.7866 110.159 53.0229 110.513 54.0436C110.862 55.0643 113.522 56.4902 115.273 55.69C117.018 54.8899 117.321 52.1663 115.73 51.0533C114.138 49.9352 114.189 49.9249 112.567 50.3045H112.562Z" fill="#C70134"/>
<path d="M112.634 50.7351C112.017 50.8839 111.915 51.5507 112.017 51.8584C112.12 52.1662 112.916 52.5919 113.445 52.3508C113.969 52.1149 114.056 51.2993 113.583 50.9608C113.106 50.6274 113.121 50.6223 112.639 50.7351H112.634Z" fill="#FFB6B6"/>
<g style="mix-blend-mode:multiply" opacity="0.4">
<path d="M115.724 51.048C114.78 50.3864 114.415 50.1145 113.938 50.0786C115.165 51.0378 116.079 52.3611 114.774 53.7562C113.85 54.741 112.777 55.0949 111.642 55.1769C112.664 55.7976 114.153 56.1976 115.273 55.6847C117.018 54.8846 117.321 52.161 115.73 51.048H115.724Z" fill="#C70134"/>
</g>
<path d="M122.107 52.8124C120.048 53.2946 119.704 55.5308 120.053 56.5567C120.407 57.5774 123.062 58.9981 124.813 58.2031C126.559 57.4081 126.862 54.6845 125.27 53.5664C123.678 52.4483 123.729 52.438 122.107 52.8175V52.8124Z" fill="#C70134"/>
<path d="M122.179 53.2433C121.563 53.3869 121.46 54.0588 121.563 54.3666C121.67 54.6743 122.461 55.0949 122.985 54.859C123.509 54.623 123.596 53.8075 123.123 53.469C122.646 53.1356 122.661 53.1305 122.179 53.2433Z" fill="#FFB6B6"/>
<g style="mix-blend-mode:multiply" opacity="0.4">
<path d="M125.27 53.5562C124.325 52.8945 123.96 52.6227 123.483 52.5868C124.71 53.5459 125.624 54.8692 124.32 56.2644C123.396 57.2491 122.323 57.5979 121.188 57.6851C122.21 58.3057 123.699 58.7058 124.818 58.1929C126.564 57.3979 126.867 54.6743 125.275 53.5562H125.27Z" fill="#C70134"/>
</g>
</g>
<path d="M154.646 114.115C153.467 112.353 151.255 112.825 150.423 113.511C149.591 114.198 149.199 117.188 150.56 118.546C151.919 119.899 154.575 119.223 155.06 117.339C155.546 115.455 155.578 115.498 154.646 114.115Z" fill="#C70134"/>
<path d="M154.264 114.336C153.912 113.81 153.247 113.951 152.995 114.155C152.744 114.36 152.626 115.255 153.036 115.66C153.446 116.065 154.24 115.859 154.386 115.3C154.529 114.735 154.539 114.748 154.264 114.336Z" fill="#FFB6B6"/>
<g style="mix-blend-mode:multiply" opacity="0.4">
<path d="M155.06 117.339C155.346 116.222 155.472 115.785 155.338 115.325C154.873 116.812 153.956 118.134 152.191 117.405C150.944 116.887 150.234 116.008 149.758 114.975C149.537 116.15 149.687 117.684 150.562 118.551C151.921 119.904 154.577 119.228 155.062 117.344L155.06 117.339Z" fill="#C70134"/>
</g>
<path d="M26.9699 29.4543C28.0472 27.6288 26.6644 25.8389 25.6852 25.3863C24.706 24.9336 21.8413 25.8753 21.2066 27.6904C20.5754 29.5019 22.3353 31.6024 24.2434 31.2239C26.1515 30.8455 26.1271 30.8932 26.9699 29.4543Z" fill="#C70134"/>
<path d="M26.6051 29.2054C26.9269 28.6607 26.512 28.1223 26.2185 27.9839C25.9251 27.8456 25.0675 28.1269 24.88 28.6721C24.6925 29.2174 25.2218 29.8438 25.7892 29.7326C26.3602 29.6176 26.3532 29.6323 26.6051 29.2054Z" fill="#FFB6B6"/>
<g style="mix-blend-mode:multiply" opacity="0.4">
<path d="M24.2433 31.2241C25.3744 30.998 25.8228 30.9222 26.1786 30.6018C24.6374 30.8265 23.0492 30.5732 22.9414 28.6664C22.8679 27.3179 23.3533 26.2975 24.0779 25.4203C22.9233 25.7304 21.6054 26.5306 21.2029 27.6943C20.5718 29.5058 22.3317 31.6063 24.2398 31.2278L24.2433 31.2241Z" fill="#C70134"/>
</g>
<path d="M158.284 149.352C158.946 148.23 158.096 147.13 157.494 146.852C156.892 146.574 155.132 147.152 154.742 148.268C154.354 149.381 155.435 150.672 156.608 150.439C157.781 150.207 157.766 150.236 158.284 149.352Z" fill="#C70134"/>
<path d="M158.059 149.199C158.257 148.864 158.002 148.533 157.822 148.448C157.641 148.363 157.114 148.536 156.999 148.871C156.884 149.206 157.209 149.591 157.558 149.523C157.909 149.452 157.904 149.461 158.059 149.199Z" fill="#FFB6B6"/>
<g style="mix-blend-mode:multiply" opacity="0.4">
<path d="M156.608 150.439C157.303 150.3 157.579 150.254 157.797 150.057C156.85 150.195 155.874 150.039 155.808 148.867C155.763 148.038 156.061 147.411 156.506 146.872C155.797 147.063 154.987 147.555 154.74 148.27C154.352 149.383 155.433 150.674 156.606 150.441L156.608 150.439Z" fill="#C70134"/>
</g>
<g clip-path="url(#clip2_170_34)">
<path d="M56.8833 49.6988C54.8036 47.5585 52.1611 46.3689 49.5309 46.4213C46.8578 46.4738 44.2704 47.821 42.7473 49.9088C39.3157 49.174 36.1778 49.9729 33.8473 52.1948C32.5138 53.4662 31.4005 55.4956 32.2691 57.4026C32.8135 58.5982 34.0308 59.4613 35.8842 59.9628C38.6673 60.7151 41.7625 60.5518 44.4478 59.5254C45.9892 60.3185 47.6897 60.7151 49.3657 60.7151C51.2925 60.7151 53.1765 60.1902 54.7057 59.1522C57.6846 59.6362 60.4555 59.4729 62.9512 58.6681C64.6028 58.1375 65.6487 57.3152 66.0647 56.2363C66.5112 55.0699 66.1748 53.6761 65.1349 52.4106C63.2448 50.107 59.8622 49.0165 56.8833 49.6988ZM64.3092 55.6239C64.1012 56.1721 63.4406 56.627 62.3518 56.9769C60.0518 57.7176 57.4644 57.84 54.6445 57.3268C54.3754 57.2802 54.1001 57.3443 53.8861 57.5076C51.5494 59.2805 47.812 59.3913 44.9983 57.7642C44.8515 57.6767 44.6802 57.6359 44.515 57.6359C44.3866 57.6359 44.2581 57.6592 44.1358 57.7117C41.7441 58.7323 38.9242 58.9247 36.4041 58.2424C35.5172 58.0033 34.3855 57.5368 33.9941 56.6853C33.4986 55.6064 34.3183 54.271 35.1746 53.4603C37.1565 51.5708 39.9091 50.9818 42.9247 51.7924C43.3406 51.9032 43.781 51.7341 43.9951 51.3726C45.1145 49.4889 47.3043 48.2467 49.5737 48.2059C49.6165 48.2059 49.6532 48.2059 49.696 48.2059C51.8858 48.2059 54.1307 49.3198 55.8679 51.2851C56.1187 51.565 56.5163 51.67 56.8833 51.5533C59.2689 50.7952 62.1254 51.6175 63.673 53.507C64.2969 54.2651 64.5355 55.0583 64.3214 55.6181L64.3092 55.6239Z" fill="#94C5C9"/>
</g>
<defs>
<clipPath id="clip0_170_34">
<rect width="34.291" height="14.2879" fill="white" transform="matrix(-1 0 0 1 142.291 129.708)"/>
</clipPath>
<clipPath id="clip1_170_34">
<rect width="34.9878" height="27.8664" fill="white" transform="translate(110.39 44.0571)"/>
</clipPath>
<clipPath id="clip2_170_34">
<rect width="34.291" height="14.2879" fill="white" transform="translate(31.9634 46.4216)"/>
</clipPath>
</defs>
</svg>
