<svg width="171" height="263" viewBox="0 0 171 263" fill="none" xmlns="http://www.w3.org/2000/svg">
<g clip-path="url(#clip0_93_1163)">
<path d="M135.221 188.095H131.743V198.694H135.221V188.095Z" fill="#FBAE17"/>
<path d="M133.36 171.739C127.938 171.739 123.542 176.083 123.542 181.442C123.542 186.801 127.938 191.146 133.36 191.146C138.782 191.146 143.177 186.801 143.177 181.442C143.177 176.083 138.782 171.739 133.36 171.739ZM133.36 186.512C130.526 186.512 128.23 184.243 128.23 181.442C128.23 178.642 130.526 176.372 133.36 176.372C136.193 176.372 138.489 178.642 138.489 181.442C138.489 184.243 136.193 186.512 133.36 186.512Z" fill="#FBAE17"/>
<path d="M116.717 195.866V202.749H139.066C141.257 202.749 143.035 204.507 143.035 206.672V212.312H150V204.237C150 199.614 146.207 195.864 141.53 195.864H116.717V195.866Z" fill="#FBAE17"/>
<path d="M79.1158 132.651H50.3815L19.1044 150.667H110.393L79.1158 132.651Z" fill="#F58A1F"/>
<path d="M79.1158 124.88H50.3815V132.651H79.1158V124.88Z" fill="#A14423"/>
<path d="M41.0445 109.733V117.78C41.0445 121.701 44.2602 124.88 48.2275 124.88H81.272C85.2393 124.88 88.455 121.701 88.455 117.78V109.733H41.0445Z" fill="#F58A1F"/>
<path d="M94.3906 107.366C94.3906 108.673 93.318 109.733 91.9963 109.733H37.5032C36.1793 109.733 35.1089 108.673 35.1089 107.366C35.1089 106.06 36.1815 105 37.5032 105H91.9963C93.3201 105 94.3906 106.06 94.3906 107.366Z" fill="#FDD83F"/>
<path d="M76.9618 235.923H52.5378V248.244H76.9618V235.923Z" fill="#CA5827"/>
<path d="M83.9045 248.244H45.5929V257.118H83.9045V248.244Z" fill="#A14423"/>
<path d="M64.7519 150.667V240.086C33.4114 240.086 8 214.97 8 183.992C8 171.508 12.1267 159.982 19.1044 150.667H64.7519Z" fill="#FBAE17"/>
<path d="M121.499 183.992C121.499 214.97 96.0946 240.086 64.7519 240.086V150.667H110.393C117.371 159.982 121.499 171.51 121.499 183.992Z" fill="#F58A1F"/>
<path d="M31.1482 166.74C31.1482 169.502 28.8827 171.739 26.0908 171.739C23.2989 171.739 21.0334 169.5 21.0334 166.74C21.0334 163.981 23.2989 161.742 26.0908 161.742C28.8827 161.742 31.1482 163.981 31.1482 166.74Z" fill="white"/>
<path d="M113.746 150.665C113.746 151.719 112.881 152.574 111.813 152.574H16.9722C15.9061 152.574 15.041 151.719 15.041 150.665C15.041 149.609 15.9061 148.756 16.9722 148.756H111.813C112.879 148.756 113.746 149.611 113.746 150.665Z" fill="#FDD83F"/>
<g filter="url(#filter0_d_93_1163)">
<path d="M90.5872 259.558C90.5872 260.905 89.4818 261.998 88.1164 261.998H41.1799C39.8167 261.998 38.7091 260.905 38.7091 259.558C38.7091 258.211 39.8146 257.116 41.1799 257.116H88.1186C89.4818 257.116 90.5894 258.209 90.5894 259.558H90.5872Z" fill="#FDD83F"/>
</g>
<path d="M29.903 180.738C29.903 183.068 27.9914 184.955 25.6364 184.955C23.2814 184.955 21.3698 183.068 21.3698 180.738C21.3698 178.409 23.2814 176.524 25.6364 176.524C27.9914 176.524 29.903 178.411 29.903 180.738Z" fill="#D82426"/>
<path d="M21.4769 180.658C23.7205 181.377 24.9461 183.757 24.2186 185.97C23.4889 188.183 21.0837 189.397 18.8422 188.678C16.603 187.957 15.3753 185.579 16.1049 183.364C16.8324 181.151 19.2377 179.939 21.4791 180.658H21.4769Z" fill="#D82426"/>
<path d="M18.8007 188.555C20.1858 186.67 22.8532 186.253 24.7582 187.62C26.6654 188.989 27.087 191.627 25.7019 193.51C24.3169 195.393 21.6495 195.81 19.7445 194.441C17.8351 193.072 17.4135 190.436 18.8007 188.553V188.555Z" fill="#D82426"/>
<path d="M25.5665 193.51C24.1836 191.625 24.6053 188.989 26.5102 187.62C28.4152 186.253 31.0848 186.67 32.4699 188.555C33.8549 190.438 33.4333 193.074 31.5261 194.443C29.619 195.812 26.9515 195.395 25.5665 193.512V193.51Z" fill="#D82426"/>
<path d="M32.4284 188.68C30.187 189.401 27.7795 188.188 27.052 185.972C26.3246 183.757 27.5523 181.38 29.7915 180.661C32.033 179.942 34.4404 181.153 35.1679 183.368C35.8954 185.581 34.6698 187.961 32.4284 188.68Z" fill="#D82426"/>
<path d="M29.6343 186.428C29.6343 188.613 27.8429 190.381 25.6364 190.381C23.43 190.381 21.6364 188.613 21.6364 186.428C21.6364 184.243 23.4278 182.477 25.6364 182.477C27.8451 182.477 29.6343 184.245 29.6343 186.428Z" fill="#FDE134"/>
<path d="M55.9807 180.738C55.9807 183.068 54.0692 184.955 51.7142 184.955C49.3591 184.955 47.4476 183.068 47.4476 180.738C47.4476 178.409 49.3591 176.524 51.7142 176.524C54.0692 176.524 55.9807 178.411 55.9807 180.738Z" fill="#D82426"/>
<path d="M47.5546 180.658C49.7982 181.377 51.0238 183.757 50.2941 185.97C49.5645 188.183 47.1592 189.397 44.9178 188.678C42.6786 187.957 41.4508 185.579 42.1805 183.364C42.908 181.151 45.3132 179.939 47.5546 180.658Z" fill="#D82426"/>
<path d="M44.8785 188.555C46.2635 186.67 48.9309 186.253 50.8359 187.62C52.7409 188.989 53.1647 191.627 51.7797 193.51C50.3946 195.393 47.7272 195.81 45.8222 194.441C43.9151 193.072 43.4913 190.436 44.8785 188.553V188.555Z" fill="#D82426"/>
<path d="M51.6464 193.51C50.2614 191.625 50.683 188.989 52.5902 187.62C54.4952 186.253 57.1648 186.67 58.5498 188.555C59.9349 190.438 59.5132 193.074 57.6061 194.443C55.6989 195.812 53.0315 195.395 51.6464 193.512V193.51Z" fill="#D82426"/>
<path d="M58.5061 188.68C56.2647 189.401 53.8573 188.188 53.1298 185.972C52.4001 183.757 53.6301 181.38 55.8693 180.661C58.1107 179.942 60.5182 181.153 61.2456 183.368C61.9731 185.581 60.7475 187.961 58.5061 188.68Z" fill="#D82426"/>
<path d="M55.712 186.428C55.712 188.613 53.9206 190.381 51.712 190.381C49.5033 190.381 47.7119 188.613 47.7119 186.428C47.7119 184.243 49.5033 182.477 51.712 182.477C53.9206 182.477 55.712 184.245 55.712 186.428Z" fill="#FDE134"/>
<path d="M82.0585 180.738C82.0585 183.068 80.1469 184.955 77.7919 184.955C75.4369 184.955 73.5254 183.068 73.5254 180.738C73.5254 178.409 75.4369 176.524 77.7919 176.524C80.1469 176.524 82.0585 178.411 82.0585 180.738Z" fill="#D82426"/>
<path d="M73.6324 180.658C75.876 181.377 77.1016 183.757 76.3741 185.97C75.6444 188.183 73.2392 189.397 70.9978 188.678C68.7585 187.957 67.5308 185.579 68.2604 183.364C68.9879 181.151 71.3932 179.939 73.6346 180.658H73.6324Z" fill="#D82426"/>
<path d="M70.9562 188.555C72.3413 186.67 75.0087 186.253 76.9137 187.62C78.8187 188.989 79.2425 191.627 77.8574 193.51C76.4724 195.393 73.805 195.81 71.9 194.441C69.9928 193.072 69.5712 190.436 70.9562 188.553V188.555Z" fill="#D82426"/>
<path d="M77.7242 193.51C76.3391 191.625 76.7608 188.989 78.6679 187.62C80.5729 186.253 83.2425 186.67 84.6276 188.555C86.0126 190.438 85.591 193.074 83.6838 194.443C81.7767 195.812 79.1092 195.395 77.7242 193.512V193.51Z" fill="#D82426"/>
<path d="M84.5839 188.68C82.3425 189.401 79.935 188.188 79.2076 185.972C78.4779 183.757 79.7078 181.38 81.9471 180.661C84.1885 179.942 86.5959 181.153 87.3234 183.368C88.0509 185.581 86.8253 187.961 84.5839 188.68Z" fill="#D82426"/>
<path d="M81.7897 186.428C81.7897 188.613 79.9984 190.381 77.7919 190.381C75.5854 190.381 73.7919 188.613 73.7919 186.428C73.7919 184.243 75.5833 182.477 77.7919 182.477C80.0005 182.477 81.7897 184.245 81.7897 186.428Z" fill="#FDE134"/>
<path d="M108.136 180.738C108.136 183.068 106.225 184.955 103.872 184.955C101.519 184.955 99.6053 183.068 99.6053 180.738C99.6053 178.409 101.517 176.524 103.872 176.524C106.227 176.524 108.136 178.411 108.136 180.738Z" fill="#D82426"/>
<path d="M99.7101 180.658C101.954 181.377 103.179 183.757 102.452 185.97C101.722 188.183 99.3169 189.397 97.0755 188.678C94.8363 187.957 93.6085 185.579 94.3382 183.364C95.0656 181.151 97.4709 179.939 99.7123 180.658H99.7101Z" fill="#D82426"/>
<path d="M97.034 188.555C98.4191 186.67 101.086 186.253 102.991 187.62C104.896 188.989 105.32 191.627 103.935 193.51C102.55 195.393 99.8827 195.81 97.9778 194.441C96.0706 193.072 95.649 190.436 97.034 188.553V188.555Z" fill="#D82426"/>
<path d="M103.8 193.51C102.417 191.625 102.836 188.989 104.744 187.62C106.648 186.253 109.318 186.67 110.703 188.555C112.088 190.438 111.664 193.074 109.759 194.443C107.852 195.812 105.185 195.395 103.8 193.512V193.51Z" fill="#D82426"/>
<path d="M110.662 188.68C108.42 189.401 106.013 188.188 105.285 185.972C104.556 183.757 105.786 181.38 108.025 180.661C110.266 179.942 112.674 181.153 113.401 183.368C114.129 185.581 112.901 187.961 110.662 188.68Z" fill="#D82426"/>
<path d="M107.868 186.428C107.868 188.613 106.076 190.381 103.87 190.381C101.663 190.381 99.8696 188.613 99.8696 186.428C99.8696 184.243 101.661 182.477 103.87 182.477C106.078 182.477 107.868 184.245 107.868 186.428Z" fill="#FDE134"/>
</g>
<g clip-path="url(#clip1_93_1163)">
<path d="M113.188 234C113.188 234 112.893 244.274 126.003 259.204H137.737V234H113.188Z" fill="#FDDD3C"/>
<path d="M124.305 240.381C124.305 241.509 123.352 242.423 122.174 242.423C120.996 242.423 120.044 241.509 120.044 240.381C120.044 239.254 120.997 238.34 122.174 238.34C123.351 238.34 124.305 239.254 124.305 240.381Z" fill="white"/>
<path d="M168.894 234H137.737V259.205H149.47C151.715 256.622 153.705 254.108 155.623 251.179C166.204 254.35 175.24 242.875 168.894 234ZM156.897 249.153C160.4 243.291 161.629 238.802 162.058 236.28H167.544C171.171 243.059 164.812 251 156.897 249.153Z" fill="#E88024"/>
<path d="M137.737 256.635H108V258.331H137.737V256.635Z" fill="#FFC514"/>
<path d="M167.475 256.635H137.737V258.331H167.475V256.635Z" fill="#EE4823"/>
<path d="M137.737 261.773V258.332H108C108 258.332 114.393 261.773 128.937 261.773H137.737Z" fill="#FDDD3C"/>
<path d="M137.737 261.773V258.332H167.475C167.475 258.332 161.082 261.773 146.538 261.773H137.737Z" fill="#FFC514"/>
<path d="M141.376 247.912H131.346V256.635H141.376V247.912Z" fill="#B85027"/>
<path d="M136.49 247.912H128.328V256.635H136.49V247.912Z" fill="#D96827"/>
<path d="M139.326 239.189H130.223V247.912H139.326V239.189Z" fill="#F69348"/>
<path d="M142.547 239.189H134.449V247.912H142.547V239.189Z" fill="#9E4623"/>
<path d="M136.49 247.912V249.909L141.376 254.694V247.912H136.49Z" fill="#763517"/>
<path d="M137.737 260.545V263H122.735C122.03 263 121.454 262.453 121.454 261.772C121.454 261.091 122.024 260.544 122.735 260.544H137.737V260.545Z" fill="#FDDD3C"/>
<path d="M154.02 261.772C154.02 262.453 153.445 263 152.74 263H137.738V260.545H152.74C153.445 260.545 154.02 261.096 154.02 261.773V261.772Z" fill="#FFC514"/>
</g>
<g clip-path="url(#clip2_93_1163)">
<path d="M75.7303 90.0168C76.9571 88.0674 78.8157 84.8855 78.6585 85.1561C96.8568 89.59 111.471 70.5383 103.135 54.2779L90.5236 54.2772C91.1015 50.7269 89.6393 48.8057 89.6393 48.8057L106.238 48.8066C120.83 70.0996 100.058 97.6217 75.7317 90.0182L75.7303 90.0168Z" fill="#F6901E"/>
<path d="M36.6037 54.4629C36.6037 54.4629 26.4338 45.4377 20.659 43.2698L14.1604 43.2709L28.964 72.1336L36.6051 54.4643L36.6037 54.4629Z" fill="#E33326"/>
<path d="M66.6108 33.8041C67.329 33.049 67.7724 32.0276 67.7723 30.9027C67.7708 28.5693 65.8794 26.6778 63.546 26.6763C61.2126 26.6748 59.3199 28.5675 59.3215 30.9008C59.3215 32.0257 59.765 33.0472 60.4805 33.8024L66.6122 33.8027L66.6108 33.8041Z" fill="#E33326"/>
<path d="M66.2971 33.8035L60.4807 33.8032L60.4808 36.3197L66.2972 36.32L66.2971 33.8035Z" fill="#E33326"/>
<path d="M62.6824 39.9567L62.684 101.385L47.3662 101.385C35.4298 95.7581 27.2305 84.1106 27.2313 70.6501C27.232 57.2236 35.3862 45.5982 47.2654 39.9559L62.6824 39.9567Z" fill="#EE4523"/>
<path d="M80.1623 101.387L47.3657 101.386L47.3658 104.281L80.1625 104.283L80.1623 101.387Z" fill="#AC2124"/>
<path d="M79.2371 39.959C76.6401 37.0871 70.725 35.0793 63.8382 35.0775C56.9514 35.0786 51.0352 37.0844 48.4399 39.9575L79.2371 39.959Z" fill="#FBBB1F"/>
<path d="M99.865 70.654C99.8657 84.1159 91.6676 95.7625 79.7332 101.386L62.6869 101.386L62.6824 39.9569L79.8279 39.9577C91.7076 45.6012 99.8644 57.2289 99.865 70.654Z" fill="#E33326"/>
<path d="M49.7199 53.2338C49.72 55.2484 48.0851 56.8832 46.0705 56.8831C44.0531 56.883 42.4195 55.2494 42.4208 53.2334C42.4193 51.2174 44.0541 49.5825 46.0701 49.584C48.0848 49.5841 49.7198 51.2191 49.7199 53.2338Z" fill="white"/>
</g>
<defs>
<filter id="filter0_d_93_1163" x="28.7091" y="251.116" width="71.8802" height="24.8818" filterUnits="userSpaceOnUse" color-interpolation-filters="sRGB">
<feFlood flood-opacity="0" result="BackgroundImageFix"/>
<feColorMatrix in="SourceAlpha" type="matrix" values="0 0 0 0 0 0 0 0 0 0 0 0 0 0 0 0 0 0 127 0" result="hardAlpha"/>
<feOffset dy="4"/>
<feGaussianBlur stdDeviation="5"/>
<feComposite in2="hardAlpha" operator="out"/>
<feColorMatrix type="matrix" values="0 0 0 0 0 0 0 0 0 0 0 0 0 0 0 0 0 0 0.25 0"/>
<feBlend mode="normal" in2="BackgroundImageFix" result="effect1_dropShadow_93_1163"/>
<feBlend mode="normal" in="SourceGraphic" in2="effect1_dropShadow_93_1163" result="shape"/>
</filter>
<clipPath id="clip0_93_1163">
<rect width="142" height="157" fill="white" transform="translate(8 105)"/>
</clipPath>
<clipPath id="clip1_93_1163">
<rect width="63" height="29" fill="white" transform="translate(108 234)"/>
</clipPath>
<clipPath id="clip2_93_1163">
<rect width="91.0854" height="80.9648" fill="white" transform="translate(57.4314) rotate(45)"/>
</clipPath>
</defs>
</svg>
