<svg width="265" height="256" viewBox="0 0 265 256" fill="none" xmlns="http://www.w3.org/2000/svg">
<g clip-path="url(#clip0_254_7)">
<path d="M121.214 256C178.407 256 224.771 209.592 224.771 152.346C224.771 95.0992 178.407 48.6917 121.214 48.6917C64.022 48.6917 17.6584 95.0992 17.6584 152.346C17.6584 209.592 64.022 256 121.214 256Z" fill="#665FAF"/>
<path d="M177.88 130.924C168.466 132.382 159.051 133.84 149.638 135.297C148.209 148.635 146.832 162.082 145.511 175.642C147.152 182.531 148.92 188.502 150.598 193.554C155.367 207.909 160.219 217.33 161.925 234.904C162.433 240.146 162.449 243.92 162.555 247.407C169.444 244.401 175.94 240.669 181.952 236.303C180.989 228.162 180.148 219.773 179.458 211.145C177.106 181.763 176.912 154.823 177.88 130.924Z" fill="url(#paint0_linear_254_7)"/>
<path d="M167.505 199.576C167.214 187.889 160.374 181.761 156.938 174.41C153.309 166.646 151.917 154.175 161.699 133.431C154.339 134.57 146.979 135.712 139.619 136.851C141.44 161.803 146.312 180.659 150.598 193.556C155.367 207.911 160.219 217.332 161.925 234.906C162.433 240.148 162.449 243.922 162.555 247.409C166.437 245.716 170.196 243.79 173.811 241.653C170.71 230.38 165.159 227.06 164.955 215.99C164.808 207.939 167.697 207.281 167.507 199.576H167.505Z" fill="#665FAF"/>
<path style="mix-blend-mode:multiply" opacity="0.3" d="M167.505 199.576C167.214 187.889 160.374 181.761 156.938 174.41C153.309 166.646 151.917 154.175 161.699 133.431C154.339 134.57 146.979 135.712 139.619 136.851C141.44 161.803 146.312 180.659 150.598 193.556C155.367 207.911 160.219 217.332 161.925 234.906C162.433 240.148 162.449 243.922 162.555 247.409C166.437 245.716 170.196 243.79 173.811 241.653C170.71 230.38 165.159 227.06 164.955 215.99C164.808 207.939 167.697 207.281 167.507 199.576H167.505Z" fill="url(#paint1_linear_254_7)"/>
<path d="M145.511 175.644C142.963 164.946 140.726 152.028 139.619 136.851C142.959 136.335 146.298 135.816 149.638 135.299C149.848 133.341 150.058 131.384 150.27 129.431C135.927 127.981 126.785 130.111 121.02 132.849C121.299 133.288 121.589 133.755 121.89 134.26C136.545 158.833 130.7 188.005 127.97 201.627C124.086 221.007 122.687 218.094 119.748 229.94C117.458 239.173 118.989 248.016 121.845 255.996C127.536 255.963 133.118 255.47 138.557 254.552C139.407 243.769 140.3 232.924 141.244 222.017C142.592 206.42 144.017 190.963 145.511 175.645V175.644Z" fill="url(#paint2_linear_254_7)"/>
<path d="M145.511 175.644C146.834 162.084 148.209 148.635 149.638 135.299C146.298 135.816 142.959 136.335 139.619 136.851C140.726 152.03 142.963 164.947 145.511 175.644Z" fill="url(#paint3_linear_254_7)"/>
<path d="M256.755 50.44C256.755 50.44 254.462 42.7311 255.793 42.0887C257.122 41.4463 257.811 40.7587 257.811 40.7587C257.811 40.7587 263.312 32.7295 262.945 35.252C262.578 37.7765 261.204 40.6212 261.204 40.6212C261.204 40.6212 264.55 40.9885 264.963 43.1908C265.375 45.3931 262.625 48.56 260.517 49.9352L259.783 53.3771L255.381 52.5048L256.759 50.44H256.755Z" fill="url(#paint4_linear_254_7)"/>
<path d="M261.618 51.391C259.349 50.5973 257.079 49.8036 254.81 49.01C254.454 49.8763 249.147 62.1961 235.665 64.6813C226.382 66.3924 218.57 61.4024 213.573 58.2218C198.563 48.6701 200.168 36.4603 186.205 31.5214C182.327 30.1502 170.912 26.8359 167.666 29.272C159.927 35.0734 170.255 65.7185 187.065 82.7631C190.459 86.203 209.142 105.147 231.283 98.9098C249.159 93.8727 262.299 74.3901 261.62 51.391H261.618Z" fill="url(#paint5_linear_254_7)"/>
<path d="M189.756 90.9278C188.81 104.452 187.882 104.658 185.707 123.754C182.164 154.882 183.642 163.015 177.391 166.76C173.326 169.192 171.858 166.255 151.106 164.198C137.197 162.817 130.094 162.175 123.05 164.563C113.456 167.811 110.245 173.268 106.288 171.494C104.267 170.587 103.185 168.3 102.543 164.628C101.984 161.418 101.76 157.137 101.548 151.794C101.222 143.655 101.054 136.714 100.967 131.186C100.859 124.728 100.853 120.186 100.82 117.874C100.694 109.774 99.7817 102.462 98.3038 95.3186C96.19 85.1009 92.9182 75.227 89.1616 63.8954C86.4707 55.7779 83.6896 48.7054 81.1773 42.8628C85.9212 37.2383 91.189 32.488 95.982 30.0893C98.3843 29.5352 100.885 29.0127 103.478 28.5274C115.262 26.335 128.973 24.9755 144.18 25.6002C160.533 26.2741 174.59 29.0814 185.726 32.2051C187.232 40.6311 188.737 49.065 190.243 57.491C190.59 65.9445 190.704 77.3959 189.754 90.9278H189.756Z" fill="url(#paint6_linear_254_7)"/>
<path style="mix-blend-mode:multiply" opacity="0.3" d="M169.328 156.538C159.124 152.179 159.183 143.159 149.652 139.395C136.051 134.024 121.026 146.503 118.679 143.042C116.237 139.441 134.184 128.4 131.797 117.51C129.899 108.856 117.372 110.391 110.663 98.5443C104.298 87.307 110.469 76.9184 104.834 73.0129C102.812 71.6121 99.2479 71.0601 92.4864 74.0364C97.2008 88.7726 100.581 101.766 100.824 117.874C100.889 122.164 100.846 134.154 101.552 151.794C102.011 163.227 102.494 169.787 106.288 171.49C110.245 173.264 113.456 167.811 123.05 164.561C130.096 162.174 137.195 162.817 151.106 164.196C171.854 166.255 173.324 169.19 177.391 166.758C180.039 165.174 181.297 162.791 182.141 158.216C177.982 158.666 173.57 158.347 169.326 156.536L169.328 156.538Z" fill="url(#paint7_linear_254_7)"/>
<path d="M123.803 25.9106C123.803 25.9106 143.183 79.3938 147.171 73.0326C151.159 66.6713 159.74 30.2484 158.278 26.7338C156.818 23.2192 132.392 22.8164 123.803 25.9106Z" fill="#EFEFEF"/>
<path d="M134.047 25.4627C134.047 25.4627 139.585 34.095 142.975 35.3169C143.424 35.3268 143.874 35.2777 144.327 35.2619C146.885 33.8867 150.431 27.6453 151.348 25.9833C150.576 25.5118 149.923 24.8851 149.521 24.0443C148.278 21.4452 150.013 17.9384 151.996 15.0682C150.406 11.6597 143.905 10.6578 142.315 7.25122C142.094 12.2019 141.332 16.0957 140.667 18.7557C139.905 21.8027 139.432 22.6711 138.847 23.2879C138.2 23.9716 137.324 24.7928 134.045 25.4627H134.047Z" fill="url(#paint8_linear_254_7)"/>
<path d="M151.795 8.37885C152.722 6.09014 151.925 2.74056 149.715 1.07658C147.813 -0.35362 145.507 -0.0157154 144.127 0.18467C140.127 0.770109 135.664 3.69731 134.912 7.72466C134.467 10.1116 137.821 13.9307 138.372 14.6321C138.998 15.4238 139.782 15.5436 140.61 16.0465C141.76 16.7459 143.564 17.8618 146.527 19.7438C146.51 18.96 146.539 17.9757 146.708 16.8736C146.773 16.4493 147.046 14.7853 147.727 13.2863C149.093 10.2786 150.92 10.5458 151.797 8.37885H151.795Z" fill="url(#paint9_linear_254_7)"/>
<path d="M142.688 18.5199C142.688 18.5199 146.353 22.0287 151.344 20.345C155.813 18.8362 153.762 8.45354 150.282 7.06066C149.12 6.59703 147.101 6.81313 145.64 7.67557C144.779 8.18636 144.565 8.65785 143.14 9.46332C141.825 10.2059 141.385 10.1568 141.053 10.6283C140.639 11.2196 140.541 12.4259 142.227 15.1723C141.126 14.524 139.996 14.4651 139.35 15.0093C139.248 15.0957 138.991 15.3924 138.9 15.7617C138.575 17.0976 140.035 18.3019 142.688 18.5199Z" fill="url(#paint10_linear_254_7)"/>
<path d="M140.686 10.0743C140.949 10.1804 140.496 11.1764 140.755 12.3493C141.256 14.6242 144.251 16.7184 146.631 16.3295C148.039 16.0996 148.196 15.1704 150.402 14.3256C151.766 13.803 152.983 13.6694 153.762 13.6341C155.132 15.911 155.114 18.5494 153.772 20.1309C152.325 21.8322 149.86 21.6907 148.83 21.6318C148.141 21.5925 145.933 21.4687 144.376 19.8873C142.753 18.239 143.528 16.7793 141.909 15.803C141.093 15.3098 140.176 15.247 139.016 14.1822C138.702 13.8934 138.471 13.6243 138.325 13.4416C139.167 11.8837 140.308 9.91909 140.688 10.0704L140.686 10.0743Z" fill="url(#paint11_linear_254_7)"/>
<path d="M152.355 14.9896C152.355 14.9896 151.509 15.7656 149.787 16.1212C149.703 16.1389 149.619 16.186 149.621 16.2332C149.625 16.4041 150.906 16.8363 151.833 16.2882C152.492 15.8972 152.867 15.0761 152.724 14.9287C152.663 14.8678 152.506 14.9189 152.355 14.9896Z" fill="url(#paint12_linear_254_7)"/>
<path d="M123.803 25.9105C123.803 25.9105 119.813 24.109 116.851 26.5451C116.009 32.7393 117.905 52.5009 120.327 53.9468C122.749 55.3927 127.083 56.5498 127.083 56.5498C127.083 56.5498 124.098 61.4652 125.735 63.8757C127.371 66.2862 147.356 76.7927 146.995 74.6709C146.633 72.5492 123.803 25.9105 123.803 25.9105Z" fill="url(#paint13_linear_254_7)"/>
<path d="M146.667 73.7594C146.667 73.7594 157.699 30.5921 157.583 26.0029C157.583 26.0029 161.942 24.0167 165.049 29.655C168.156 35.2933 167.289 52.3555 165.99 53.8014C164.69 55.2473 159.055 56.7424 159.055 56.7424C159.055 56.7424 162.233 61.7442 160.211 66.3039C158.19 70.8636 145.362 78.9223 146.669 73.7594H146.667Z" fill="url(#paint14_linear_254_7)"/>
<path d="M142.8 35.0792C142.8 35.0792 137.473 31.1304 137.393 32.5803C137.313 34.0301 137.629 35.8846 138.192 36.3679C138.755 36.8512 136.834 40.3167 138.041 40.0751C139.248 39.8334 142.8 37.254 142.8 37.254V35.0772V35.0792Z" fill="url(#paint15_linear_254_7)"/>
<path d="M143.47 35.0792C143.47 35.0792 149.254 31.1304 149.334 32.5803C149.415 34.0301 149.328 35.8846 148.765 36.3679C148.202 36.8512 149.782 40.3167 148.575 40.0751C147.367 39.8334 143.472 37.254 143.472 37.254V35.0772L143.47 35.0792Z" fill="url(#paint16_linear_254_7)"/>
<path d="M144.563 35.0655C144.496 35.0242 142.445 34.6097 142.445 35.1598C142.445 35.7098 142.363 37.6449 142.792 37.698C143.222 37.751 144.298 37.9809 144.563 37.3227C144.828 36.6646 144.993 35.3346 144.563 35.0655Z" fill="url(#paint17_linear_254_7)"/>
<path d="M109.497 158.511C109.497 158.511 113.269 162.915 120.5 162.287C120.5 162.287 115.784 165.434 115.156 172.986C114.528 180.537 101.953 171.726 109.497 158.511Z" fill="url(#paint18_linear_254_7)"/>
<path d="M98.3039 95.3185C95.9388 99.171 94.3372 103.295 94.6297 109.426C94.9673 116.536 97.7975 123.826 100.967 131.188C105.321 141.301 110.304 151.544 110.349 161.658C110.355 162.642 110.312 164.542 109.093 165.434C107.794 166.387 105.446 165.978 102.543 164.628C95.3971 161.326 84.8849 152.362 78.2804 144.038C60.2196 121.255 56.6279 84.5213 71.3677 57.1903C73.9703 52.3595 77.4109 47.3381 81.1773 42.8667C85.9212 37.2422 91.1891 32.4919 95.982 30.0931C98.6944 28.7337 101.254 28.1247 103.478 28.5313C103.896 28.6138 104.298 28.7278 104.689 28.8732C113.162 32.1107 113.923 52.1846 112.233 64.7401C109.945 81.7356 102.759 88.0418 98.3039 95.3205V95.3185Z" fill="url(#paint19_linear_254_7)"/>
<path d="M89.5855 11.0388C88.7357 12.5417 90.4943 14.186 91.6581 20.8459C92.19 23.891 92.3353 26.4842 92.3627 28.3348C92.5158 29.9929 92.6199 31.5351 92.663 32.9044C92.6964 33.9083 92.6944 34.696 92.6572 35.5408C92.5904 37.1046 92.4059 38.6723 92.1135 40.1968C92.0939 40.297 92.1547 40.3952 92.2528 40.4227C92.2587 40.4227 92.2646 40.4267 92.2705 40.4267C92.3765 40.4483 92.4805 40.3776 92.5001 40.2715C92.7985 38.7273 92.983 37.1419 93.0517 35.5585C93.089 34.7039 93.0909 33.9063 93.0575 32.8926C93.034 32.1716 92.9928 31.3995 92.9398 30.5921C93.4285 32.6745 93.7739 35.0025 93.4226 38.2126C92.3588 47.9568 100.484 53.2356 106.294 52.7445C112.993 52.1767 116.832 46.3125 118.005 44.4049C122.741 36.7117 122.369 25.2151 116.009 17.5886C107.68 7.59689 91.668 7.35918 89.5855 11.0427V11.0388Z" fill="url(#paint20_linear_254_7)"/>
<path d="M167.071 89.3306C166.441 93.2047 163.856 106.312 153.819 111.774C137.283 120.769 108.257 104.228 104.838 82.5901C102.223 66.0525 114.824 48.2516 121.786 49.2692C130.526 50.5481 126.579 80.9399 143.793 89.7097C151.674 93.7233 160.822 91.5957 167.071 89.3325V89.3306Z" fill="white"/>
<path d="M107.597 17.9757C107.177 16.9561 105.336 12.8128 101.05 10.6184C92.9182 6.45552 81.4659 12.1056 75.3717 19.0209C68.9949 26.2583 72.5434 30.2424 66.3766 38.1596C59.6799 46.7605 53.8683 44.126 44.1451 52.8506C40.3217 56.2827 30.0136 65.5318 30.8183 77.7927C31.5131 88.3876 40.2884 97.9589 49.8958 100.853C66.3432 105.807 84.2333 90.8884 91.9604 78.2917C99.3716 66.2096 93.0811 64.2922 102.902 41.5347C106.453 33.3052 110.74 25.5982 107.597 17.9757Z" fill="url(#paint21_linear_254_7)"/>
<path d="M98.7572 28.7631C100.047 32.2502 100.995 36.5427 98.9103 39.1379C97.6404 40.7194 95.7287 41.4757 93.8465 42.181C89.397 43.847 87.5227 42.7881 86.5551 43.9766C84.4255 46.5954 88.5217 57.8562 96.9142 59.6676C105.267 61.471 113.868 53.049 112.999 49.0255C112.215 45.395 103.784 45.6327 102.755 41.0416C102.237 38.7293 103.864 36.3915 105.242 34.8355L106.227 35.0261L98.7572 28.7631Z" fill="url(#paint22_linear_254_7)"/>
<path d="M86.5532 43.9766C87.5208 42.7861 89.3951 43.845 93.8446 42.1791C95.7268 41.4738 97.6385 40.7174 98.9084 39.136C100.995 36.5388 100.045 32.2462 98.7553 28.7611L106.225 35.0241L105.24 34.8336C104.147 36.0673 102.914 37.7981 102.704 39.6133C102.078 39.9571 101.54 40.3501 101.146 40.743C102.006 43.2497 102.168 45.3538 102.174 46.7054C102.184 48.8114 102.19 50.3752 101.146 51.7445C100.007 53.2376 98.2842 53.6246 96.7788 53.9625C93.4344 54.713 90.4491 54.0391 88.5139 53.3574C86.1253 49.6405 85.3579 45.4461 86.5532 43.9747V43.9766Z" fill="url(#paint23_linear_254_7)"/>
<path d="M101.631 33.9455C101.631 33.9455 103.342 38.0397 107.527 36.7824C112.683 35.2323 109.095 21.4608 107.607 21.0678C105.88 20.6121 105.285 23.2073 101.672 23.4725C100.151 23.5845 98.3608 22.1307 98.243 24.3251C98.1096 26.822 100.017 30.5842 100.017 30.5842C100.017 30.5842 98.4844 29.9496 98.6689 31.2227C98.9103 32.8886 100.404 33.5153 101.631 33.9475V33.9455Z" fill="url(#paint24_linear_254_7)"/>
<path d="M105.256 16.6751C107.399 17.842 109.289 20.8006 108.655 22.775C107.742 25.6099 102.186 24.6453 101.093 28.1049C100.614 29.6215 101.195 31.3464 100.74 31.4545C100.363 31.5448 99.2597 30.4663 98.7435 29.541C95.8956 24.4351 94.8613 24.1797 94.7965 22.4882C94.667 19.0483 100.853 14.2803 105.256 16.6751Z" fill="url(#paint25_linear_254_7)"/>
<path d="M180.125 94.238C179.793 93.1614 178.934 90.9552 176.804 89.5662C172.408 86.6999 165.45 89.191 165.085 91.521C164.845 93.0435 167.31 95.2379 169.642 95.4305C171.74 95.6053 172.629 94.069 175.503 93.6918C177.391 93.4443 179.02 93.8431 180.125 94.236V94.238Z" fill="url(#paint26_linear_254_7)"/>
<path d="M19.8154 121.683C18.6633 122.598 16.8145 123.848 14.3081 124.628C9.79977 126.028 7.88025 124.437 4.736 126.343C2.28458 127.828 0 130.885 0 130.885C0.019627 130.887 4.15504 131.859 7.92146 131.743C10.7929 131.655 12.9224 130.952 14.4553 130.431C17.8625 129.276 21.3915 128.079 21.7565 125.683C21.8252 125.231 21.9332 123.742 19.8154 121.683Z" fill="url(#paint27_linear_254_7)"/>
<path d="M81.2519 57.9721C79.4835 50.1021 80.877 45.949 78.5532 44.8764C74.9575 43.2183 67.88 51.4242 65.7878 53.8858C54.1529 67.5729 52.3943 79.3033 47.4915 89.6546C43.2501 98.613 34.8242 110.4 16.206 120.997C17.943 123.887 19.68 126.777 21.417 129.667C40.6888 128.378 49.9233 121.816 54.7888 116.21C64.5042 105.014 63.2206 90.2165 76.2941 83.7491C81.7975 81.0262 86.0959 81.6333 87.8211 77.8594C89.927 73.2525 83.8701 69.6239 81.2499 57.9741L81.2519 57.9721Z" fill="white"/>
<path opacity="0.7" d="M103.16 10.9583C100.822 6.263 94.7121 6.03511 92.8063 5.99189C89.5679 5.9192 82.6493 5.76203 74.6572 11.2333C66.9104 16.5357 66.9203 21.2762 61.411 23.7437C55.8016 26.2544 53.2618 22.3783 46.567 25.3801C45.7937 25.7279 40.783 27.9734 39.1382 31.6353C36.5926 37.305 44.3845 41.7607 54.4669 48.7132C57.8251 51.0295 58.9478 51.3792 60.512 51.0373C64.563 50.1513 69.5777 44.5543 80.3844 32.5586C84.0919 28.4429 88.9202 24.4214 93.2833 19.6868C95.5404 17.237 98.7808 13.6124 101.162 13.0898C103.313 12.6184 103.591 14.9503 103.88 14.7244C104.135 14.5259 104.004 12.6557 103.158 10.9544L103.16 10.9583Z" fill="#F4F7FA"/>
<path d="M97.9349 20.2134C99.77 18.7066 103.425 16.5161 108.086 17.8638C108.569 18.0033 108.902 17.3943 108.516 17.0721L102.023 11.6892C100.48 10.4102 97.9506 10.5949 97.2774 12.0349L96.7651 19.6122C96.7219 20.2429 97.4481 20.6161 97.9368 20.2154L97.9349 20.2134Z" fill="white"/>
<path d="M150.598 193.556C148.92 188.504 147.152 182.531 145.511 175.644C144.017 190.959 142.594 206.418 141.244 222.015C140.3 232.922 139.407 243.767 138.557 254.55C146.942 253.136 154.983 250.711 162.553 247.409C162.447 243.922 162.431 240.15 161.923 234.907C160.217 217.33 155.365 207.91 150.596 193.556H150.598Z" fill="#665FAF"/>
<path d="M98.8927 43.6171C83.5914 43.1633 81.9074 43.0533 75.5797 45.1868C71.0616 46.7094 68.9556 52.2985 67.5895 63.6537C83.1832 54.1865 101.474 48.725 121.036 48.6916C117.529 46.1966 110.816 43.9708 98.8927 43.6171Z" fill="white"/>
<path d="M60.8614 165.719C62.5474 194.702 70.3098 204.821 65.0243 220.206C66.8359 215.968 67.8938 211.929 68.5081 208.104C69.354 207.658 70.2686 207.352 71.2304 207.22C74.8476 206.727 79.0753 208.662 79.5718 211.255C80.2843 214.97 72.5434 216.699 67.2009 224.942C63.6131 230.478 64.2883 233.453 62.9949 238.079C78.8476 248.886 97.8524 255.403 118.345 255.961C118.141 250.434 118.329 245.093 117.962 237.995C117.24 224.06 115.277 220.927 112.451 203.246C106.71 167.361 103.841 149.419 112.944 138.839C114.219 137.358 116.647 134.928 121.022 132.851C116.115 125.168 114.372 127.221 111.313 120.575C98.3176 92.354 130.215 56.3004 121.786 49.2692C121.554 49.0767 121.303 48.8842 121.034 48.6936C101.472 48.727 83.1812 54.1885 67.5876 63.6557C66.1313 75.7495 65.511 94.3854 63.7034 121.618C61.2559 158.481 60.2922 155.945 60.8614 165.719Z" fill="white"/>
<path d="M112.944 138.837C103.841 149.417 106.71 167.359 112.451 203.244C115.279 220.925 117.24 224.058 117.962 237.993C118.329 245.091 118.141 250.432 118.345 255.959C119.299 255.984 120.255 255.998 121.214 255.998C121.424 255.998 121.634 255.996 121.844 255.994C118.989 248.014 117.46 239.174 119.748 229.938C122.686 218.09 124.086 221.005 127.97 201.625C130.7 188.003 136.545 158.831 121.89 134.258C121.589 133.753 121.299 133.286 121.02 132.848C116.645 134.926 114.217 137.354 112.942 138.836L112.944 138.837Z" fill="white"/>
<path d="M64.1627 222.481C64.4826 221.707 64.7691 220.95 65.0243 220.204C64.7534 220.836 64.4669 221.473 64.1627 222.115C63.5208 223.463 61.0989 228.406 56.9281 233.61C57.0675 233.72 57.2068 233.832 57.3462 233.942C60.2314 230.337 62.5493 226.38 64.1627 222.481Z" fill="#665FAF"/>
<g style="mix-blend-mode:multiply" opacity="0.5">
<path d="M64.1627 222.481C64.4826 221.707 64.7691 220.95 65.0243 220.204C64.7534 220.836 64.4669 221.473 64.1627 222.115C63.5208 223.463 61.0989 228.406 56.9281 233.61C57.0675 233.72 57.2068 233.832 57.3462 233.942C60.2314 230.337 62.5493 226.38 64.1627 222.481Z" fill="#D8DEE8"/>
</g>
<path d="M79.5718 211.253C79.0753 208.66 74.8476 206.725 71.2303 207.218C70.2706 207.35 69.354 207.656 68.5081 208.102C67.8937 211.927 66.8339 215.966 65.0243 220.204C64.7672 220.948 64.4826 221.707 64.1627 222.481C62.5513 226.38 60.2314 230.337 57.3462 233.942C59.1794 235.382 61.0635 236.761 62.9948 238.077C64.2863 233.451 63.6131 230.476 67.2009 224.94C72.5434 216.699 80.2843 214.968 79.5718 211.253Z" fill="white"/>
<g style="mix-blend-mode:multiply" opacity="0.5">
<path d="M79.5718 211.253C79.0753 208.66 74.8476 206.725 71.2303 207.218C70.2706 207.35 69.354 207.656 68.5081 208.102C67.8937 211.927 66.8339 215.966 65.0243 220.204C64.7672 220.948 64.4826 221.707 64.1627 222.481C62.5513 226.38 60.2314 230.337 57.3462 233.942C59.1794 235.382 61.0635 236.761 62.9948 238.077C64.2863 233.451 63.6131 230.476 67.2009 224.94C72.5434 216.699 80.2843 214.968 79.5718 211.253Z" fill="#D8DEE8"/>
</g>
</g>
<defs>
<linearGradient id="paint0_linear_254_7" x1="103.316" y1="-251.183" x2="143.929" y2="29.8414" gradientUnits="userSpaceOnUse">
<stop stop-color="#444B8C"/>
<stop offset="1" stop-color="#3E4177"/>
</linearGradient>
<linearGradient id="paint1_linear_254_7" x1="191.708" y1="268.251" x2="150.199" y2="159.438" gradientUnits="userSpaceOnUse">
<stop stop-color="#444B8C"/>
<stop offset="1" stop-color="#3E4177"/>
</linearGradient>
<linearGradient id="paint2_linear_254_7" x1="-18.8542" y1="-375.434" x2="55.9214" y2="-101.525" gradientUnits="userSpaceOnUse">
<stop stop-color="#444B8C"/>
<stop offset="1" stop-color="#3E4177"/>
</linearGradient>
<linearGradient id="paint3_linear_254_7" x1="1.40379" y1="-380.965" x2="76.1795" y2="-107.055" gradientUnits="userSpaceOnUse">
<stop stop-color="#444B8C"/>
<stop offset="1" stop-color="#3E4177"/>
</linearGradient>
<linearGradient id="paint4_linear_254_7" x1="256.227" y1="44.5267" x2="270.729" y2="43.2208" gradientUnits="userSpaceOnUse">
<stop stop-color="#FFC444"/>
<stop offset="1" stop-color="#F36F56"/>
</linearGradient>
<linearGradient id="paint5_linear_254_7" x1="181.876" y1="65.6734" x2="314.45" y2="53.7356" gradientUnits="userSpaceOnUse">
<stop stop-color="#444B8C"/>
<stop offset="1" stop-color="#3E4177"/>
</linearGradient>
<linearGradient id="paint6_linear_254_7" x1="117.283" y1="-33.0478" x2="162.749" y2="189.17" gradientUnits="userSpaceOnUse">
<stop stop-color="#444B8C"/>
<stop offset="1" stop-color="#3E4177"/>
</linearGradient>
<linearGradient id="paint7_linear_254_7" x1="120.898" y1="154.882" x2="193.163" y2="-11.934" gradientUnits="userSpaceOnUse">
<stop stop-color="#444B8C"/>
<stop offset="1" stop-color="#3E4177"/>
</linearGradient>
<linearGradient id="paint8_linear_254_7" x1="142.043" y1="46.3283" x2="143.942" y2="-4.22954" gradientUnits="userSpaceOnUse">
<stop stop-color="#FFC444"/>
<stop offset="1" stop-color="#F36F56"/>
</linearGradient>
<linearGradient id="paint9_linear_254_7" x1="140.573" y1="34.0421" x2="144.181" y2="1.75626" gradientUnits="userSpaceOnUse">
<stop stop-color="#444B8C"/>
<stop offset="1" stop-color="#26264F"/>
</linearGradient>
<linearGradient id="paint10_linear_254_7" x1="144.941" y1="10.3233" x2="158.519" y2="52.2768" gradientUnits="userSpaceOnUse">
<stop stop-color="#FFC444"/>
<stop offset="1" stop-color="#F36F56"/>
</linearGradient>
<linearGradient id="paint11_linear_254_7" x1="144.457" y1="34.4895" x2="148.068" y2="2.17209" gradientUnits="userSpaceOnUse">
<stop stop-color="#444B8C"/>
<stop offset="1" stop-color="#26264F"/>
</linearGradient>
<linearGradient id="paint12_linear_254_7" x1="150.952" y1="13.8481" x2="151.794" y2="19.3429" gradientUnits="userSpaceOnUse">
<stop stop-color="#FFC444"/>
<stop offset="1" stop-color="#F36F56"/>
</linearGradient>
<linearGradient id="paint13_linear_254_7" x1="116.647" y1="50.11" x2="146.998" y2="50.11" gradientUnits="userSpaceOnUse">
<stop stop-color="#AA80F9"/>
<stop offset="1" stop-color="#6165D7"/>
</linearGradient>
<linearGradient id="paint14_linear_254_7" x1="146.575" y1="50.5442" x2="167.171" y2="50.5442" gradientUnits="userSpaceOnUse">
<stop stop-color="#AA80F9"/>
<stop offset="1" stop-color="#6165D7"/>
</linearGradient>
<linearGradient id="paint15_linear_254_7" x1="137.381" y1="36.1754" x2="142.8" y2="36.1754" gradientUnits="userSpaceOnUse">
<stop stop-color="#444B8C"/>
<stop offset="1" stop-color="#26264F"/>
</linearGradient>
<linearGradient id="paint16_linear_254_7" x1="149.358" y1="36.1754" x2="143.47" y2="36.1754" gradientUnits="userSpaceOnUse">
<stop stop-color="#444B8C"/>
<stop offset="1" stop-color="#26264F"/>
</linearGradient>
<linearGradient id="paint17_linear_254_7" x1="142.439" y1="36.3287" x2="144.828" y2="36.3287" gradientUnits="userSpaceOnUse">
<stop stop-color="#444B8C"/>
<stop offset="1" stop-color="#26264F"/>
</linearGradient>
<linearGradient id="paint18_linear_254_7" x1="108.74" y1="174.71" x2="120.499" y2="147.564" gradientUnits="userSpaceOnUse">
<stop stop-color="#FFC444"/>
<stop offset="1" stop-color="#F36F56"/>
</linearGradient>
<linearGradient id="paint19_linear_254_7" x1="67.5915" y1="-22.8812" x2="113.058" y2="199.337" gradientUnits="userSpaceOnUse">
<stop stop-color="#444B8C"/>
<stop offset="1" stop-color="#3E4177"/>
</linearGradient>
<linearGradient id="paint20_linear_254_7" x1="-455.535" y1="386.755" x2="194.944" y2="-28.5213" gradientUnits="userSpaceOnUse">
<stop stop-color="#311944"/>
<stop offset="1" stop-color="#893976"/>
</linearGradient>
<linearGradient id="paint21_linear_254_7" x1="-451.219" y1="393.521" x2="199.261" y2="-21.7555" gradientUnits="userSpaceOnUse">
<stop stop-color="#311944"/>
<stop offset="1" stop-color="#893976"/>
</linearGradient>
<linearGradient id="paint22_linear_254_7" x1="85.9977" y1="44.3401" x2="113.057" y2="44.3401" gradientUnits="userSpaceOnUse">
<stop stop-color="#FFC444"/>
<stop offset="1" stop-color="#F36F56"/>
</linearGradient>
<linearGradient id="paint23_linear_254_7" x1="96.9967" y1="64.1704" x2="95.278" y2="18.4551" gradientUnits="userSpaceOnUse">
<stop stop-color="#FFC444"/>
<stop offset="1" stop-color="#F36F56"/>
</linearGradient>
<linearGradient id="paint24_linear_254_7" x1="105.376" y1="29.711" x2="113.986" y2="43.0695" gradientUnits="userSpaceOnUse">
<stop stop-color="#FFC444"/>
<stop offset="1" stop-color="#F36F56"/>
</linearGradient>
<linearGradient id="paint25_linear_254_7" x1="2.96135" y1="120.301" x2="113.016" y2="11.0841" gradientUnits="userSpaceOnUse">
<stop stop-color="#311944"/>
<stop offset="1" stop-color="#893976"/>
</linearGradient>
<linearGradient id="paint26_linear_254_7" x1="176.494" y1="89.0928" x2="163.168" y2="101.137" gradientUnits="userSpaceOnUse">
<stop stop-color="#FFC444"/>
<stop offset="1" stop-color="#F36F56"/>
</linearGradient>
<linearGradient id="paint27_linear_254_7" x1="14.2491" y1="119.704" x2="4.46011" y2="143.956" gradientUnits="userSpaceOnUse">
<stop stop-color="#FFC444"/>
<stop offset="1" stop-color="#F36F56"/>
</linearGradient>
<clipPath id="clip0_254_7">
<rect width="265" height="256" fill="white"/>
</clipPath>
</defs>
</svg>
