<svg width="295" height="308" viewBox="0 0 295 308" fill="none" xmlns="http://www.w3.org/2000/svg">
<g clip-path="url(#clip0_261_177)">
<path d="M44.5912 285.781C55.3622 293.842 67.6494 300.01 80.9503 303.775L78.1534 263.079L44.5912 285.776V285.781Z" fill="#665FAF"/>
<path d="M141.123 289.897C140.793 292.756 140.449 295.61 140.078 298.464C139.965 299.343 139.847 300.231 139.585 301.066C139.304 301.958 138.865 302.765 138.426 303.559C138.168 304.019 137.901 304.47 137.634 304.921C139.494 304.474 141.331 303.983 143.151 303.446L142.739 297.359L141.128 289.893L141.123 289.897Z" fill="#665FAF"/>
<path d="M222.997 196.917C222.997 135.566 173.079 85.8339 111.498 85.8339C49.9179 85.8339 0 135.566 0 196.917C0 226.481 11.5992 253.349 30.5029 273.251L41.6858 243.696L63.16 223.514L66.7895 224.826C68.3328 220.092 70.8355 215.953 72.7227 211.268C75.1801 205.159 76.9994 198.698 78.5834 192.313C78.7327 191.709 78.9092 191.051 79.3482 190.695C79.7465 190.37 80.2533 190.384 80.724 190.406C80.8734 190.415 81.0227 190.424 81.1721 190.433C82.7289 182.417 84.0142 174.341 85.0143 166.239C85.1863 164.864 84.4894 164.972 85.58 164.075C85.9059 163.804 89.3499 163.529 89.3454 163.57C88.7027 172.664 88.0556 181.758 87.4129 190.848C91.4498 191.173 95.4822 191.61 99.4964 192.147C100.537 182.971 101.578 173.796 102.619 164.62C102.624 164.58 105.959 165.477 106.231 165.797C107.14 166.879 106.475 166.645 106.394 168.025C105.887 176.361 105.678 184.721 105.755 193.071C106.009 193.112 106.267 193.148 106.52 193.193C107.063 193.274 108.376 207.878 108.588 209.339C109.29 214.231 109.747 218.568 111.376 223.235C111.933 224.826 112.1 228.321 111.942 231.716L116.626 231.765L107.33 278.35L95.2016 306.81C100.524 307.585 105.964 307.995 111.503 307.995C112.485 307.995 113.458 307.982 114.436 307.959C114.843 306.999 115.25 306.034 115.662 305.074C116.345 303.464 117.042 301.814 117.282 300.037C117.594 297.738 117.119 295.466 116.685 293.261C115.513 287.341 114.589 281.322 113.924 275.235C113.485 271.204 113.168 266.966 114.277 263.016C115.169 259.833 116.911 257.105 118.043 254.03C118.549 252.659 118.97 251.153 119.884 250.179C120.948 249.048 121.6 249.737 122.591 250.03C123.777 250.378 125.066 250.829 126.546 250.928C130.108 251.167 133.665 251.491 137.209 251.897C138.562 252.055 143.015 251.672 143.938 252.83C144.644 253.723 144.232 257.06 143.938 259.368L165.738 253.254L163.756 295.055C199.002 276.393 223.006 239.444 223.006 196.908L222.997 196.917Z" fill="#665FAF"/>
<path d="M143.929 259.377C143.834 260.112 143.757 260.748 143.73 261.163C143.096 270.753 142.228 280.339 141.123 289.902L142.734 297.368L143.146 303.455C150.342 301.336 157.23 298.514 163.742 295.069L165.725 253.268L143.925 259.382L143.929 259.377Z" fill="#4E4E4E"/>
<path d="M139.58 301.07C139.843 300.231 139.96 299.343 140.073 298.468C140.444 295.614 140.793 292.76 141.119 289.902L135.063 261.866L143.925 259.382C144.214 257.073 144.631 253.732 143.925 252.844C143.001 251.681 138.548 252.068 137.195 251.911C133.651 251.5 130.094 251.176 126.533 250.941C125.053 250.842 123.763 250.391 122.577 250.044C121.586 249.751 120.934 249.061 119.871 250.193C118.952 251.171 118.531 252.677 118.029 254.043C116.898 257.114 115.155 259.846 114.264 263.029C113.155 266.979 113.472 271.217 113.911 275.248C114.576 281.335 115.499 287.354 116.671 293.274C117.106 295.475 117.581 297.751 117.269 300.051C117.029 301.827 116.332 303.478 115.648 305.087C115.241 306.048 114.834 307.013 114.422 307.973C122.392 307.77 130.153 306.724 137.625 304.934C137.887 304.479 138.159 304.032 138.417 303.572C138.861 302.783 139.295 301.976 139.576 301.079L139.58 301.07Z" fill="#4E4E4E"/>
<path d="M141.123 289.897C142.223 280.339 143.097 270.753 143.73 261.158C143.757 260.743 143.839 260.108 143.929 259.373L135.068 261.857L141.123 289.893V289.897Z" fill="#4E4E4E"/>
<path d="M116.622 231.77L111.937 231.72C112.1 228.325 111.928 224.831 111.372 223.239C109.743 218.573 109.285 214.235 108.584 209.343C108.376 207.882 107.059 193.278 106.516 193.197C106.262 193.157 106.004 193.116 105.751 193.075C105.669 184.721 105.882 176.366 106.389 168.029C106.475 166.649 107.136 166.879 106.226 165.802C105.955 165.477 102.619 164.584 102.615 164.625C101.574 173.8 100.533 182.976 99.492 192.151C95.4777 191.61 91.4453 191.177 87.4085 190.853C88.0511 181.758 88.6983 172.664 89.3409 163.574C89.3409 163.534 85.9014 163.809 85.5756 164.079C84.4849 164.977 85.1773 164.868 85.0099 166.244C84.0097 174.35 82.7244 182.421 81.1676 190.438C81.0182 190.429 80.8689 190.42 80.7196 190.411C80.2489 190.388 79.7375 190.375 79.3438 190.699C78.9048 191.056 78.7283 191.714 78.5789 192.318C76.9949 198.702 75.1802 205.164 72.7182 211.273C70.831 215.958 68.3329 220.097 66.7851 224.831L63.1555 223.519L41.6813 243.7L30.4984 273.255C31.0777 273.864 31.666 274.468 32.2544 275.063L37.5901 265.996L54.0408 246.045L60.5442 261.871L47.8181 273.526L40.1154 282.259C41.5727 283.472 43.0616 284.649 44.5822 285.79L78.1445 263.092L80.9413 303.789C85.5711 305.101 90.3275 306.115 95.1881 306.823L107.317 278.364L116.612 231.779L116.622 231.77Z" fill="#6F6357"/>
<path d="M40.1244 282.255L47.827 273.521L60.5531 261.866L54.0498 246.04L37.599 265.992L32.2633 275.059C34.766 277.579 37.3909 279.978 40.1289 282.255H40.1244Z" fill="#6F6357"/>
<path d="M115.603 124.709C115.499 124.618 115.404 124.524 115.314 124.42C114.947 124.005 114.743 123.369 115.069 122.905C116.137 121.39 118.599 124.213 118.205 121.584C118.097 120.867 115.237 117.445 115.513 117.066C116.938 115.118 120.242 114.37 121.858 116.255C122.948 117.526 123.338 119.397 123.6 120.953C124.012 123.369 124.048 125.849 124.55 128.252C124.596 128.473 124.645 128.712 124.541 128.92C124.442 129.118 124.225 129.24 124.021 129.348C122.541 130.133 120.301 131.544 118.726 130.205C118.504 130.015 118.4 129.74 118.296 129.474C118.006 128.712 117.721 127.955 117.432 127.193C117.21 126.611 116.983 126.016 116.558 125.547C116.277 125.236 115.92 124.993 115.603 124.713V124.709Z" fill="#EACDA4"/>
<path d="M130.95 149.254C130.615 148.186 130.235 147.045 129.882 145.742C129.456 144.168 125.768 126.629 125.741 126.634C125.152 126.774 116.445 129.01 116.332 128.406C117.251 133.271 118.174 138.14 119.092 143.005C120.699 151.5 119.712 158.475 112.173 163.227C109.181 165.112 105.896 166.446 102.759 168.07C102.262 168.327 101.746 168.611 101.429 169.089C100.899 169.887 101.094 170.955 101.32 171.893C102.773 177.881 104.814 183.72 107.412 189.292C108.634 192.047 110.661 194.685 112.191 197.291C112.499 197.819 112.924 198.414 113.521 198.391C114.141 198.369 114.517 197.701 114.77 197.124C118.59 188.409 122.414 179.693 126.234 170.978C129.289 164.007 133.412 157.086 130.954 149.259L130.95 149.254Z" fill="#A7CEB9"/>
<path d="M76.9858 123.311C77.0944 123.23 77.2031 123.144 77.2981 123.049C77.7009 122.666 77.9543 122.053 77.6692 121.561C76.7324 119.961 74.0442 122.571 74.6551 119.983C74.8226 119.275 77.9634 116.11 77.719 115.705C76.4609 113.644 73.2295 112.625 71.4645 114.365C70.2698 115.542 69.7267 117.373 69.333 118.906C68.722 121.282 68.4776 123.748 67.7761 126.097C67.7128 126.314 67.6449 126.548 67.7309 126.765C67.8123 126.972 68.0205 127.107 68.2106 127.233C69.6181 128.14 71.7316 129.731 73.4151 128.528C73.6504 128.361 73.7817 128.095 73.9039 127.838C74.2569 127.103 74.6053 126.368 74.9583 125.637C75.2254 125.074 75.5059 124.501 75.9676 124.068C76.2753 123.78 76.6509 123.568 76.9858 123.315V123.311Z" fill="#EACDA4"/>
<path d="M59.6299 146.495C60.0554 145.458 60.5306 144.353 60.9876 143.082C61.5398 141.553 66.69 124.379 66.7216 124.388C67.2964 124.573 75.7865 127.531 75.9494 126.94C74.6234 131.715 73.2974 136.486 71.9759 141.26C69.6633 149.593 70.057 156.626 77.1759 161.987C79.9999 164.115 83.1588 165.716 86.1503 167.596C86.6255 167.894 87.1187 168.223 87.3903 168.719C87.8474 169.557 87.5668 170.608 87.2636 171.523C85.313 177.367 82.7877 183.016 79.7329 188.355C78.2847 190.997 76.0445 193.459 74.3021 195.925C73.9491 196.425 73.4784 196.98 72.8811 196.908C72.2656 196.836 71.9488 196.137 71.7451 195.542C68.6677 186.538 65.5948 177.534 62.5173 168.529C60.0554 161.329 56.5344 154.088 59.639 146.491L59.6299 146.495Z" fill="#A7CEB9"/>
<path d="M93.7172 164.048C91.7621 163.795 89.7572 163.611 87.8383 164.066C85.2632 164.679 83.0638 166.397 81.2535 168.354C76.9858 172.975 74.5148 178.972 72.4013 184.919C69.8127 192.196 67.6177 199.618 65.8346 207.134C63.6306 216.413 62.0421 225.994 63.0333 235.476C63.1011 236.139 63.1962 236.833 63.5944 237.361C64.0606 237.978 64.848 238.245 65.5902 238.443C68.5862 239.236 71.6954 239.493 74.7818 239.737C86.4173 240.652 98.0618 241.446 109.715 242.118C110.39 242.158 111.118 242.181 111.689 241.815C112.462 241.32 112.684 240.305 112.834 239.39C114.096 231.59 114.698 223.681 114.621 215.777C114.558 209.307 114.046 202.855 113.53 196.407C113.132 191.421 112.738 186.429 112.34 181.443C112.087 178.273 111.82 175.031 110.512 172.146C107.548 165.585 99.9445 164.85 93.7081 164.043L93.7172 164.048Z" fill="#A7CEB9"/>
<path d="M108.104 131.21C105.751 129.925 103.108 129.127 100.46 128.604C98.2202 128.162 95.9166 127.892 93.6448 128.171C89.979 128.627 86.5214 130.561 84.2314 133.451C81.5477 136.828 80.5566 141.211 79.7963 145.449C79.2306 148.601 78.7509 151.779 78.6785 154.985C78.6422 156.523 78.6332 158.146 78.8821 159.665C79.1039 161.013 79.9004 161.302 81.1132 161.915C86.9061 164.85 93.4864 165.815 99.9083 166.167C102.017 166.284 104.266 166.528 106.199 165.648C108.493 164.602 110.973 163.895 113.331 162.988C113.834 162.794 114.35 162.591 114.721 162.208C115.155 161.757 115.332 161.126 115.49 160.517C116.694 155.828 117.581 150.981 117.133 146.161C116.685 141.342 114.775 136.508 111.127 133.307C110.2 132.491 109.181 131.801 108.1 131.21H108.104Z" fill="#1A1A1A"/>
<path d="M111.132 150.49C111.489 149.642 111.535 148.673 111.48 147.748C111.408 146.536 110.498 143.997 109.018 145.142C108.942 145.201 108.874 145.287 108.81 145.377C108.779 145.197 108.742 145.021 108.715 144.84C108.407 142.897 108.62 140.873 107.932 139.015C107.471 137.771 106.633 136.679 105.783 135.629C105.226 134.939 104.651 134.245 103.9 133.744C101.022 131.823 97.2337 131.53 93.9435 132.423C91.8029 133.005 89.7754 134.402 88.4765 136.201C88.1824 136.612 84.8922 141.608 85.9874 141.846C84.1862 141.45 83.1227 142.437 82.652 144.187C82.4076 145.084 82.2583 146.044 82.4348 146.941C82.6022 147.794 83.1272 148.574 83.8513 148.813C83.3942 150.287 83.1589 151.802 83.4576 153.452C83.9328 156.081 85.3991 158.619 87.8837 160.03C89.1327 160.743 90.5085 161.838 90.9883 163.25C91.2462 164.016 91.2915 164.837 91.3051 165.644C91.3186 166.244 91.3232 166.875 91.6218 167.402C92.1423 168.313 93.3144 168.566 94.3553 168.728C95.618 168.926 97.0979 169.062 97.9985 168.155C98.7995 167.353 98.7905 166.063 99.2747 165.035C100.207 163.051 102.936 162.077 104.696 160.95C106.742 159.638 108.403 157.74 109.313 155.481C109.833 154.187 110.001 152.992 109.978 151.833C110.471 151.558 110.883 151.062 111.127 150.49H111.132Z" fill="#EACDA4"/>
<path d="M89.0874 138.681C89.0784 138.817 89.0784 138.961 89.1553 139.069C89.3137 139.29 89.6531 139.2 89.9065 139.096C94.215 137.329 99.08 137.865 103.705 138.438C104.972 138.596 106.461 138.907 106.968 140.079C107.376 138.578 107.783 137.076 108.19 135.579C108.303 135.16 108.416 134.691 108.217 134.303C108.077 134.028 107.801 133.848 107.538 133.686C103.972 131.512 99.7408 130.57 95.5591 130.502C93.5995 130.471 91.0742 130.786 89.8568 132.563C88.7932 134.109 89.187 136.918 89.0919 138.686L89.0874 138.681Z" fill="#1A1A1A"/>
<path d="M109.037 148.804C109.032 149.182 109.014 149.561 108.991 149.94C108.742 153.601 107.353 157.37 104.443 159.62C104.941 159.232 106.647 159.976 107.195 160.058C108.493 160.256 109.838 160.265 111.145 160.134C111.367 160.112 111.598 160.08 111.775 159.945C111.978 159.787 112.064 159.526 112.141 159.282C113.114 156.094 114.101 152.848 114.128 149.512C114.16 145.832 113.028 142.252 111.879 138.758C111.444 137.441 110.955 136.048 109.847 135.205C108.724 134.353 107.149 134.204 105.783 134.227C106.498 134.213 107.308 136.395 107.466 136.927C107.797 138.046 107.914 139.268 108.113 140.413C108.598 143.186 109.077 145.986 109.037 148.804Z" fill="#1A1A1A"/>
<path d="M85.924 144.457C85.8199 144.822 85.7294 145.188 85.6434 145.562C84.8378 149.146 85.1003 153.15 87.2545 156.126C86.8834 155.616 85.0369 155.846 84.4939 155.77C83.1905 155.594 81.8961 155.22 80.6833 154.728C80.4751 154.642 80.2624 154.548 80.1311 154.367C79.9818 154.16 79.9727 153.885 79.9682 153.628C79.9411 150.291 79.9184 146.905 80.8371 143.7C81.8554 140.16 83.9553 137.049 86.0552 134.019C86.8427 132.879 87.7116 131.679 89.0105 131.188C90.3274 130.687 91.8842 130.989 93.1831 131.395C92.4997 131.183 91.1013 133.045 90.8026 133.51C90.169 134.493 89.7119 135.624 89.1915 136.67C87.9379 139.191 86.6798 141.743 85.9194 144.457H85.924Z" fill="#1A1A1A"/>
<path d="M147.147 88.9178H148.428C153.895 88.9178 158.33 84.4992 158.33 79.0526C158.33 73.606 153.899 69.1874 148.428 69.1874H146.016C151.483 69.1874 155.918 64.7688 155.918 59.3221C155.918 53.8755 151.116 49.4569 145.644 49.4569H126.184C120.283 46.8102 118.368 42.1572 118.147 37.0577C117.975 33.1441 118.798 28.969 119.568 25.2357C120.572 20.3662 121.097 15.2713 119.522 10.519C117.947 5.76672 113.902 1.39319 108.43 0.243453C106.715 -0.117251 104.846 -0.139794 103.262 0.541033C100.705 1.64118 99.4964 4.33293 99.433 6.8353C99.3697 9.33768 100.207 11.7814 100.659 14.2523C101.307 17.7872 101.148 21.4844 99.7724 24.8524C97.1068 31.3857 90.3817 35.8404 84.1454 40.0967C80.647 42.4863 77.3026 45.1149 74.1573 47.9329C72.881 49.0737 72.4692 49.9799 71.8311 51.6166C71.6319 52.1306 71.0074 54.6195 70.238 54.6195H42.4596V115.741H55.7469C61.1415 115.741 68.6043 114.154 72.605 118.473C73.5101 119.451 74.2568 120.601 75.3475 121.368C78.8232 123.82 85.3854 122.603 89.3589 122.599C105.651 122.567 121.944 122.562 138.236 122.562H143.97C147.83 122.562 150.958 119.447 150.958 115.601C150.958 111.755 147.83 108.639 143.97 108.639H147.147C152.614 108.639 157.049 104.221 157.049 98.7741C157.049 93.3274 152.614 88.9088 147.147 88.9088V88.9178Z" fill="#7AB8DD"/>
<path d="M58.4578 47.428H36.7799C35.6627 47.428 34.757 48.3303 34.757 49.4434V122.197C34.757 123.31 35.6627 124.213 36.7799 124.213H58.4578C59.575 124.213 60.4808 123.31 60.4808 122.197V49.4434C60.4808 48.3303 59.575 47.428 58.4578 47.428Z" fill="#3C5D84"/>
<path d="M187.109 160.806C187.588 159.156 188.063 157.506 188.462 155.837C188.054 154.863 187.643 153.89 187.226 152.916C187.57 151.441 187.878 149.953 188.249 148.484C188.702 148.474 190.63 148.592 190.706 149.038C190.869 149.994 190.725 150.706 191.363 151.482C192.417 150.337 193.119 149.142 193.653 147.654C194.119 146.355 194.322 144.818 196.047 145.702C196.508 145.941 196.875 146.437 197.137 146.942C197.798 148.217 198.088 149.588 197.929 151.035C197.803 152.176 197.445 153.204 197.617 154.367C197.644 154.557 197.753 154.67 197.662 154.931C197.45 155.562 196.363 156.509 195.956 156.933C195.553 157.357 194.829 158.259 194.743 158.448C193.911 160.238 193.282 161.55 192.413 163.146C190.643 162.362 188.851 161.627 187.095 160.811L187.109 160.806Z" fill="#EACDB0"/>
<path d="M176.446 178.449C178.166 176.339 179.148 173.417 180.338 170.901C182.452 166.433 184.66 162.691 187.353 158.664C188.127 158.831 197.957 162.88 197.993 162.772C195.748 169.932 193.499 177.087 191.254 184.247C190.453 186.804 189.611 189.432 187.919 191.515C183.004 197.557 174.02 199.762 166.748 201.615C158.602 203.694 150.084 204.762 141.671 204.271C139.793 204.163 138.222 203.621 136.611 202.99C132.479 201.376 131.344 197.26 131.678 192.976C131.887 190.339 133.163 187.678 135.435 186.317C137.363 185.162 139.716 185.054 141.965 184.937C152.085 184.419 162.163 183.161 172.092 181.168C173.993 180.784 175.365 179.779 176.446 178.449Z" fill="#CE8D95"/>
<path d="M120.206 158.574C119.432 157.591 118.916 156.419 118.717 155.184C118.559 154.183 118.455 153.001 119.201 152.307C119.753 151.798 120.613 151.748 121.324 151.991C121.98 152.217 122.541 152.663 123.098 153.051C124.474 151.414 124.021 147.929 125.044 145.9C125.75 144.507 126.881 143.335 128.017 142.207C128.764 141.468 129.533 140.724 130.488 140.228C134.149 138.321 138.684 138.406 142.49 139.818C150.546 142.807 150.283 151.676 151.51 158.709C152.487 164.309 152.392 169.896 146.242 172.574C144.667 173.259 142.893 174.378 142.151 175.965C141.748 176.826 141.594 177.773 141.476 178.71C141.386 179.409 141.3 180.14 140.879 180.717C140.15 181.718 138.72 181.88 137.467 181.952C135.942 182.042 134.168 182.029 133.208 180.879C131.982 179.405 132.398 177.02 131.425 175.365C130.619 173.999 129.357 173.192 128.325 172.065C127.266 170.91 126.316 169.612 125.252 168.444C123.849 166.902 122.469 165.153 122.663 162.975C122.731 162.208 122.939 161.356 122.509 160.716C122.297 160.4 121.966 160.197 121.659 159.976C121.107 159.58 120.618 159.106 120.201 158.574H120.206Z" fill="#EACDB0"/>
<path d="M118.681 141.95C120.115 139.741 122.084 137.843 124.347 136.427C126.13 135.313 128.022 134.294 130.095 133.938C133.946 133.275 143.676 137.225 145.278 132.586C145.875 130.854 148.672 130.358 149.853 131.769C150.206 132.189 150.41 132.712 150.768 133.122C151.13 133.537 151.75 133.83 152.252 133.582C152.913 133.257 152.904 132.283 153.492 131.851C154.225 131.314 155.325 132.031 155.542 132.892C155.669 133.388 155.425 133.952 155.542 134.403C155.633 134.75 155.895 134.88 156.008 135.205C156.271 135.94 156.547 136.562 156.072 137.315C155.882 137.617 155.61 137.865 155.456 138.185C155.162 138.799 155.357 139.507 155.384 140.178C155.447 141.657 154.682 143.028 153.709 144.214C154.23 145.652 154.601 147.167 154.497 148.605C154.325 150.999 152.519 153.718 151.569 155.914C151.098 155.238 150.976 154.395 150.763 153.601C150.32 151.924 149.428 150.364 148.215 149.119C147.618 148.506 146.944 147.969 146.391 147.32C146.296 147.343 146.197 147.37 146.106 147.392C145.522 147.555 144.93 147.717 144.323 147.672C142.273 147.528 140.232 147.717 138.109 147.663C135.919 147.609 133.67 147.622 131.611 148.362C129.551 149.101 127.678 150.72 127.216 152.857C127.008 153.817 127.031 154.954 126.266 155.576C123.605 157.74 122.446 152.641 120.26 153.556C118.663 154.223 119.817 156.798 120.496 157.794C121.098 158.678 121.93 159.39 122.523 160.283C123.111 161.176 123.428 162.384 122.881 163.304C122.754 163.52 122.55 163.728 122.297 163.737C121.998 163.75 121.767 163.489 121.586 163.25C119.038 159.9 116.902 156.094 116.318 151.933C115.812 148.326 116.785 144.863 118.685 141.941L118.681 141.95Z" fill="#3A3029"/>
<path d="M167.617 247.086C167.223 242.091 166.648 237.099 166.295 232.086C165.947 227.09 165.471 222.103 164.829 217.143C163.458 206.561 161.186 196.119 154.61 187.534C153.171 185.659 151.623 183.643 149.577 182.381C148.188 181.524 146.016 181.357 144.898 180.144C144.092 179.27 144.097 177.583 144.355 176.474C140.363 176.406 136.023 176.465 131.896 176.249C128.66 176.077 129.302 177.728 128.062 179.883C126.732 182.196 123.401 183.341 121.523 185.081C119.78 186.696 118.518 188.828 117.432 191.01C115.644 194.608 114.264 198.45 113.436 202.431C112.639 206.268 112.358 210.204 112.132 214.127C111.358 227.712 111.263 241.347 111.852 254.945C111.956 257.33 111.716 260.694 112.598 262.921C113.494 265.194 116.038 264.873 118.305 265.212C123.596 266.005 128.936 266.406 134.281 266.42C144.966 266.447 155.651 264.919 165.951 261.848C166.53 261.677 167.141 261.474 167.526 260.978C167.947 260.432 167.992 259.661 168.015 258.953C168.128 254.981 167.929 251.032 167.621 247.091L167.617 247.086Z" fill="#CE8D95"/>
<path opacity="0.16" d="M149.939 152.947C149.568 152.749 149.193 152.654 148.822 152.641C147.6 152.6 146.464 153.479 145.916 154.656C145.002 156.613 145.477 157.961 146.034 158.732C146.966 160.022 148.758 160.585 150.252 160.107C150.962 159.882 152.148 159.232 152.324 157.357C152.501 155.477 151.274 153.655 149.939 152.947Z" fill="#29ABE2"/>
<path opacity="0.16" d="M138.766 152.627C138.277 152.397 137.774 152.284 137.281 152.266C135.643 152.212 134.091 153.227 133.321 154.593C132.036 156.879 132.651 158.448 133.389 159.341C134.625 160.833 137.023 161.464 139.033 160.892C139.983 160.621 141.567 159.859 141.838 157.699C142.11 155.54 140.526 153.443 138.766 152.623V152.627Z" fill="#29ABE2"/>
<path d="M138.906 152.244C136.571 151.139 134.009 152.406 132.9 154.354C131.796 156.302 131.837 158.2 133.018 159.62C134.131 160.959 136.095 161.658 137.96 161.514C138.363 161.482 138.761 161.415 139.141 161.302C140.897 160.793 141.997 159.508 142.214 157.772C142.508 155.418 140.798 153.141 138.897 152.239L138.906 152.244ZM141.838 157.704C141.567 159.864 139.983 160.626 139.033 160.896C137.023 161.469 134.625 160.838 133.389 159.345C132.651 158.452 132.031 156.883 133.321 154.597C134.091 153.231 135.643 152.217 137.281 152.271C137.774 152.289 138.277 152.402 138.766 152.632C140.526 153.457 142.11 155.549 141.838 157.708V157.704Z" fill="#333333"/>
<path d="M150.039 152.618C148.278 151.676 146.391 152.776 145.604 154.453C144.816 156.121 144.875 157.745 145.767 158.971C146.608 160.125 148.07 160.747 149.46 160.639C149.758 160.617 150.057 160.558 150.342 160.468C151.659 160.04 152.474 158.93 152.614 157.424C152.809 155.377 151.483 153.394 150.039 152.618ZM152.324 157.357C152.148 159.233 150.962 159.882 150.252 160.107C148.758 160.585 146.966 160.022 146.034 158.732C145.477 157.966 145.002 156.617 145.916 154.656C146.464 153.484 147.604 152.6 148.822 152.641C149.193 152.654 149.568 152.749 149.939 152.947C151.274 153.655 152.501 155.477 152.324 157.357Z" fill="#333333"/>
<path d="M145.192 156.496C144.875 155.936 144.278 155.702 143.708 155.765C143.192 155.824 142.314 156.216 142.164 156.811C142.142 156.901 142.223 156.992 142.309 156.992C142.726 156.992 143.029 156.599 143.4 156.45C143.88 156.257 144.423 156.306 144.744 156.811C144.952 157.14 145.382 156.834 145.192 156.496Z" fill="black"/>
<path d="M280.631 234.583H282.278C289.302 234.583 294.995 228.911 294.995 221.914C294.995 214.916 289.302 209.244 282.278 209.244H279.178C286.202 209.244 291.895 203.572 291.895 196.574C291.895 189.577 285.727 183.905 278.699 183.905H253.699C246.118 180.505 243.661 174.531 243.376 167.98C243.154 162.952 244.213 157.591 245.2 152.794C246.49 146.536 247.164 139.993 245.145 133.889C243.122 127.784 237.927 122.166 230.899 120.687C228.699 120.222 226.292 120.191 224.26 121.066C220.978 122.481 219.422 125.935 219.34 129.15C219.259 132.365 220.336 135.503 220.915 138.681C221.748 143.222 221.544 147.97 219.775 152.298C216.349 160.693 207.709 166.415 199.703 171.88C195.205 174.95 190.915 178.327 186.873 181.948C185.235 183.418 184.705 184.576 183.882 186.682C183.624 187.34 182.827 190.537 181.836 190.537H146.151V269.053H163.218C170.146 269.053 179.732 267.015 184.873 272.561C186.036 273.819 186.995 275.293 188.398 276.281C192.865 279.432 201.292 277.868 206.397 277.859C227.328 277.818 248.255 277.814 269.186 277.814H276.549C281.509 277.814 285.528 273.81 285.528 268.868C285.528 263.927 281.509 259.923 276.549 259.923H280.627C287.65 259.923 293.344 254.251 293.344 247.253C293.344 240.255 287.65 234.583 280.627 234.583H280.631Z" fill="#7AB8DD"/>
<path d="M167.277 181.285H138.277C137.159 181.285 136.254 182.187 136.254 183.3V277.904C136.254 279.017 137.159 279.919 138.277 279.919H167.277C168.394 279.919 169.3 279.017 169.3 277.904V183.3C169.3 182.187 168.394 181.285 167.277 181.285Z" fill="#3C5D84"/>
<path d="M148.193 213.536L152.714 211.823L154.261 209.483L158.013 208.058C158.013 208.058 159.131 210.105 158.837 210.218C158.158 210.479 157.583 211.12 157.398 211.787C158.778 212.26 161.439 212.021 162.602 211.147C163.711 210.313 165.01 211.201 164.779 212.576C164.684 213.158 164.358 213.672 164.014 214.15C163.105 215.421 162.023 216.553 160.941 217.684C160.597 218.045 160.217 218.428 159.728 218.528C159.412 218.591 159.086 218.532 158.773 218.474C156.85 218.108 154.895 217.504 152.981 217.779C151.655 217.969 150.297 218.379 148.971 218.636L148.197 213.532L148.193 213.536Z" fill="#EACDB0"/>
<path d="M127.868 211.291C129.818 212.887 133.547 212.229 135.856 212.085C137.204 211.999 149.478 209.686 149.799 210.267C150.831 212.071 151.483 214.1 151.691 216.165C151.962 218.834 151.745 218.933 149.433 219.912C145.568 221.548 141.264 222.558 137.191 223.537C132.217 224.732 127.451 226.679 122.478 227.892C118.518 228.857 110.105 231.247 108.154 226.017C107.566 224.439 107.665 222.694 107.819 221.016C108.299 215.795 109.254 210.619 110.666 205.565C111.331 203.184 112.128 200.776 113.657 198.829C117.165 194.365 126.243 194.234 127.7 200.731C128.529 204.411 124.686 207.977 127.565 211.016C127.66 211.115 127.759 211.205 127.863 211.291H127.868Z" fill="#CE8D95"/>
</g>
<defs>
<clipPath id="clip0_261_177">
<rect width="295" height="308" fill="white"/>
</clipPath>
</defs>
</svg>
