<svg width="224" height="218" viewBox="0 0 224 218" fill="none" xmlns="http://www.w3.org/2000/svg">
<g clip-path="url(#clip0_256_83)">
<path d="M115.569 0.692995C58.2865 -0.996872 8.66741 40.5125 1.17085 94.9772C-7.0256 154.527 38.0862 208.108 93.5952 216.69C162.638 227.364 229.606 165.613 223.593 98.6207C219.062 48.1486 173.799 2.40947 115.569 0.692995Z" fill="#665FAF"/>
<path d="M71.3846 136.696C102.673 136.696 128.037 111.366 128.037 80.1189C128.037 48.8721 102.673 23.5416 71.3846 23.5416C40.0963 23.5416 14.7321 48.8721 14.7321 80.1189C14.7321 111.366 40.0963 136.696 71.3846 136.696Z" fill="white"/>
<path d="M104.772 81.5081C104.772 81.5081 105.957 79.2477 108.884 78.537C111.808 77.8278 115.455 75.1917 117.142 74.6735C117.549 74.5483 117.73 74.3832 117.734 74.2196C117.743 73.8838 115.742 73.8157 114.037 74.1123C111.013 74.6391 109.496 76.1928 108.969 75.6684C108.379 75.0813 109.948 72.8138 109.509 72.471C109.169 72.2057 108.056 73.519 106.769 74.4473C105.856 75.1064 102.891 80.7575 102.891 80.7575L104.772 81.5074V81.5081Z" fill="#BFC8D6"/>
<path d="M107.289 79.841C108.931 89.0465 106.143 98.2597 99.8355 103.779C99.5746 104.008 99.3065 104.232 99.0322 104.448C87.3371 113.68 72.0462 105.045 70.1973 103.96C69.7192 103.681 67.4213 102.291 64.8059 99.7477C61.8598 96.8876 58.5116 92.5616 56.9167 86.7203C56.2646 84.3291 54.2754 77.0389 57.6659 74.0341C61.1552 70.9401 68.3351 74.1625 71.2522 75.4704C83.5869 81.0041 85.7304 90.3865 91.8617 90.161C94.6087 90.0601 98.5972 88.0117 103.233 78.1535C104.587 78.7163 105.937 79.2798 107.289 79.8418V79.841Z" fill="#BFC8D6"/>
<g style="mix-blend-mode:multiply" opacity="0.3">
<path d="M99.8355 103.779C99.5745 104.008 99.3065 104.232 99.0322 104.448C87.3371 113.68 72.0461 105.045 70.1973 103.96C69.7192 103.681 67.4212 102.291 64.8058 99.7476C64.867 96.7726 64.9697 92.8254 64.9697 92.8254C64.9697 92.8254 70.4191 91.0189 74.3903 97.1052C75.8254 99.3038 77.4469 101.402 79.7402 102.688C82.053 103.988 83.5304 103.426 85.9428 102.543C88.1623 101.731 90.9047 102.999 93.0576 103.444C95.2851 103.905 97.5955 104.377 99.8355 103.779Z" fill="#BFC8D6"/>
</g>
<path d="M71.8721 76.4433C71.8721 76.4433 70.2192 78.2342 72.4889 83.4298C75.9076 91.2577 72.2256 97.9772 71.1213 110.76C69.9096 124.782 71.2224 124.758 75.1733 133.126C75.2422 133.273 75.4131 133.688 75.3433 134.216C74.4381 141.058 28.4171 145.596 19.3962 129.675C17.099 125.62 21.0577 102.451 25.3856 89.7063C27.9344 82.2017 31.7277 76.0144 35.7186 70.991C37.3527 69.8169 41.7511 68.6241 56.3774 70.5464C57.6275 71.0051 68.5663 73.4229 71.8729 76.4418L71.8721 76.4433Z" fill="#BFC8D6"/>
<path d="M51.0746 59.6518C51.0746 59.6518 48.1834 68.714 47.2476 69.8043C46.3118 70.8946 51.0056 73.7452 54.6038 72.46C57.9081 71.2797 54.6015 66.25 54.6015 66.25L51.0754 59.651L51.0746 59.6518Z" fill="#BFC8D6"/>
<path d="M60.6159 58.6977C63.5182 56.8983 64.2635 48.6681 61.1395 46.8209C59.5156 45.8605 57.2247 46.8499 56.8093 47.0299C54.6516 47.9621 54.6305 49.3866 52.5919 51.0828C49.2782 53.8395 46.4991 52.4321 45.568 54.4601C44.3712 57.0673 48.0548 61.3644 48.2382 61.575C48.5039 61.8786 48.5964 61.9655 49.8684 63.1552C50.7109 63.9426 52.0308 65.1965 54.1869 67.2958C54.3107 66.636 54.5082 65.8165 54.8444 64.9218C54.9737 64.5774 55.4949 63.232 57.4904 60.8823C58.7444 59.4053 60.1966 58.9576 60.6159 58.6977Z" fill="#BFC8D6"/>
<path d="M51.1788 65.5942C51.1788 65.5942 53.639 69.1797 58.1276 68.6475C62.1466 68.1701 62.2548 59.1071 59.5767 57.328C58.6832 56.7347 56.948 56.5609 55.5694 57.0266C54.7551 57.3021 54.4933 57.6598 53.1547 58.0841C51.9195 58.4754 51.5582 58.3557 51.1969 58.693C50.7454 59.1157 50.4507 60.1089 51.3818 62.7067C50.5707 61.9694 49.6317 61.7205 48.9938 62.0634C48.8919 62.1182 48.6254 62.3209 48.4843 62.6144C47.9757 63.6757 48.989 64.9429 51.1788 65.5934V65.5942Z" fill="#BFC8D6"/>
<g style="mix-blend-mode:multiply" opacity="0.3">
<path d="M25.3857 89.7071C27.4211 83.7123 30.2567 78.5715 33.347 74.1797C34.7342 75.8719 33.8933 85.0859 35.0273 86.6568C44.6345 99.9691 47.6026 101.449 45.7443 107.717C43.8994 113.942 29.8593 120.886 33.5892 130.598C35.0054 134.285 37.2093 137.306 39.7557 139.771C30.7238 138.501 22.6512 135.42 19.3955 129.676C17.0983 125.621 21.057 102.452 25.3849 89.7071H25.3857Z" fill="#BFC8D6"/>
</g>
<path d="M48.9381 118.609L52.0872 116.905C52.0872 116.905 54.9737 115.536 56.8414 115.495C58.7091 115.453 56.5671 117.305 55.2112 117.708C53.8553 118.11 57.6204 119.555 60.1449 117.909C62.6693 116.263 61.1042 121.083 57.9747 122.011C54.8444 122.94 50.5494 121.653 49.2531 122.037C47.9568 122.421 47.2122 119.542 48.9381 118.608V118.609Z" fill="#BFC8D6"/>
<path d="M32.8744 71.9623C31.7763 72.5822 30.7418 73.3281 29.7064 74.0482C28.6398 74.7902 27.6805 75.6418 26.7368 76.5318C24.308 78.822 21.7193 80.9478 19.3813 83.3335C14.6389 88.1714 9.77963 93.9415 8.06714 100.624C7.23715 103.863 7.49265 107.107 9.4967 109.899C19.5788 123.945 50.5299 124.609 50.0753 123.081C49.6207 121.553 49.1889 117.383 49.1889 117.383C49.1889 117.383 25.37 108.529 26.6302 105.483C27.8905 102.436 42.8319 94.1607 41.0677 87.6689C40.244 84.639 40.7526 81.3736 40.8999 78.2975C40.9956 76.2985 41.4627 74.0819 40.6617 72.1627C39.7204 69.9069 37.4334 70.2983 35.485 70.8438C34.5594 71.1029 33.6981 71.4974 32.8736 71.9631L32.8744 71.9623Z" fill="#BFC8D6"/>
<path d="M58.586 61.9608C58.586 61.9608 87.2634 62.0281 84.1284 62.731C80.9934 63.4339 59.6002 63.3423 59.6002 63.3423C59.6002 63.3423 56.5569 63.066 58.586 61.9608Z" fill="#BFC8D6"/>
<g style="mix-blend-mode:multiply" opacity="0.4">
<path d="M61.3981 63.2609H59.0931L61.3088 63.9332L61.3981 63.2609Z" fill="#BFC8D6"/>
</g>
<path d="M184.941 186.857L186 185.716C187.688 183.896 187.51 181.074 185.6 179.418L110.753 114.482L104.123 122.24L178.462 187.14C180.358 188.795 183.259 188.671 184.941 186.857Z" fill="#BFC8D6"/>
<path d="M28.077 41.8859C48.8738 15.5345 86.3738 10.7764 111.804 32.1639C137.702 53.9443 140.351 93.6738 117.786 119.96C95.7514 145.629 58.3869 148.128 34.2545 126.429C10.5398 105.105 7.7536 67.637 28.077 41.8859ZM110.387 113.52C129.177 91.4799 126.941 58.2735 105.348 40.0113C84.0821 22.0255 52.5981 25.8678 35.0508 47.9543C17.8405 69.6173 20.1729 101.229 40.2275 119.168C60.5783 137.373 91.9666 135.125 110.387 113.519V113.52Z" fill="url(#paint0_linear_256_83)"/>
<g style="mix-blend-mode:multiply" opacity="0.3">
<path d="M110.753 114.482L120.297 122.762C119.483 126.617 120.056 129.289 120.991 131.176C124.507 138.28 134.205 136.562 142.179 146.606C146.18 151.647 144.417 152.934 148.459 157.008C155.139 163.743 160.778 161.049 166.656 167.088C172.6 173.196 170.528 179.751 174.731 181.354C176.529 182.041 179.357 181.772 184.036 178.06L185.601 179.418C187.51 181.074 187.689 183.896 186.001 185.716L184.942 186.857C183.259 188.67 180.359 188.795 178.463 187.139L104.124 122.24L110.754 114.481L110.753 114.482Z" fill="#D8DEE8"/>
</g>
<path d="M25.0322 43.5837C45.8289 17.2322 83.329 12.4742 108.759 33.8617C134.657 55.6421 137.307 95.3716 114.742 121.658C92.7065 147.327 55.3421 149.825 31.2097 128.126C7.49499 106.803 4.70797 69.3356 25.0322 43.5837ZM107.342 115.218C126.133 93.1776 123.896 59.9712 102.304 41.7091C81.0373 23.7232 49.5533 27.5655 32.006 49.652C14.7956 71.315 17.128 102.926 37.1826 120.866C57.5334 139.071 88.9218 136.823 107.342 115.217V115.218Z" fill="url(#paint1_linear_256_83)"/>
<path d="M27.4947 45.7266C47.1456 20.885 82.5178 16.4572 106.471 36.6433C130.838 57.1784 133.343 94.5934 112.12 119.376C91.3671 143.611 56.1164 146.027 33.3172 125.564C10.891 105.436 8.26464 70.0336 27.4939 45.7258L27.4947 45.7266ZM107.342 115.219C126.133 93.1783 123.896 59.9719 102.304 41.7098C81.0373 23.7239 49.5533 27.5662 32.006 49.6527C14.7956 71.3157 17.1281 102.927 37.1826 120.867C57.5334 139.072 88.9218 136.824 107.342 115.218V115.219Z" fill="#EAEDF3"/>
<path d="M128.617 199.961C125.553 201.783 122.367 203.389 119.193 205.001C122.466 203.929 136.316 198.825 136.544 206.238C136.552 206.505 136.542 206.759 136.51 207.002C135.86 212.319 126.406 212.226 122.71 212.224C118.2 212.218 113.773 212.289 109.327 212.022C108.814 211.991 108.304 211.957 107.791 211.915C107.2 211.868 106.606 211.814 106.012 211.753C105.273 211.677 104.533 211.59 103.791 211.486L103.446 211.292C102.879 211.379 102.316 211.46 101.753 211.532C101.206 211.607 100.662 211.674 100.12 211.734C98.6787 211.894 97.253 212.011 95.8352 212.075C90.8945 212.316 86.0423 211.976 80.9667 210.921C77.5065 210.2 74.0353 209.033 71.1997 206.861C68.6979 204.941 64.0354 198.87 66.8992 195.575C67.0811 195.363 67.2934 195.166 67.5395 194.979C71.202 192.215 77.7001 197.72 80.4918 199.682C81.1713 200.159 83.9779 202.724 84.9317 202.413C85.8025 202.131 84.7091 201.041 84.3047 200.544C81.2614 196.829 76.8372 194.505 73.8354 190.736C71.2663 187.511 68.5788 180.627 72.3815 177.216C72.8063 176.835 73.2398 176.574 73.6779 176.418C78.2166 174.795 83.3822 184.215 84.9043 186.907C86.6254 189.951 88.0197 193.275 90.0214 196.154C90.8067 197.283 91.875 198.696 92.7661 197.006C93.7928 195.061 93.02 191.598 92.6469 189.597C92.0168 186.211 90.8349 182.981 89.5464 179.797C87.4624 174.633 84.7616 168.582 90.0049 164.345C91.3373 163.265 93.1932 162.387 95.1785 161.841H95.1808C99.2085 160.748 103.776 161.218 105.622 165.106C107.079 168.169 106.304 171.978 105.65 175.139C104.849 179.017 103.693 182.841 103.31 186.794C103.097 189.01 102.854 192.346 104.442 194.192C105.511 195.437 106.63 195.073 107.33 193.701C108.452 191.495 108.128 188.381 108.193 185.999C108.284 182.639 108.436 179.16 109.787 176.03C111.259 172.612 116.49 168.036 120.663 169.211C121.508 169.446 122.309 169.918 123.027 170.684C127.306 175.245 119.247 185.169 116.993 188.967C115.46 191.551 113.327 194.571 112.811 197.603C112.508 199.376 113.281 199.596 114.641 198.584C117.031 196.805 118.819 193.978 120.671 191.69C123.052 188.747 125.536 185.734 128.665 183.546C131.762 181.384 137.673 180.02 139.761 183.451C140.176 184.134 140.441 185.007 140.5 186.099C140.853 192.438 133.276 197.191 128.616 199.96L128.617 199.961Z" fill="url(#paint2_linear_256_83)"/>
<g style="mix-blend-mode:soft-light" opacity="0.5">
<path d="M120.665 169.211C120.32 169.63 119.937 170.06 119.517 170.502C112.952 177.403 112.778 181.718 110.012 193.108C108.226 200.47 106.798 207.617 106.012 211.752C105.273 211.676 104.533 211.589 103.791 211.485L103.446 211.291C102.879 211.378 102.316 211.459 101.753 211.531C102.005 209.022 101.759 204.832 98.0885 202.082C92.56 197.94 94.9778 189.31 96.3619 184.132C97.7437 178.955 96.3619 175.874 93.4229 170.526C91.7895 167.551 93.415 164.024 95.18 161.84H95.1824C99.2101 160.747 103.778 161.217 105.623 165.105C107.08 168.168 106.305 171.977 105.652 175.138C104.851 179.016 103.695 182.84 103.311 186.793C103.099 189.009 102.855 192.345 104.444 194.191C105.512 195.436 106.631 195.072 107.331 193.7C108.454 191.494 108.13 188.38 108.194 185.998C108.285 182.638 108.438 179.159 109.788 176.029C111.261 172.612 116.492 168.035 120.664 169.21L120.665 169.211Z" fill="white"/>
</g>
<g style="mix-blend-mode:soft-light" opacity="0.5">
<path d="M128.617 199.961C125.553 201.783 122.367 203.388 119.193 205.001C122.466 203.929 136.316 198.824 136.544 206.238C136.552 206.505 136.542 206.759 136.51 207.002C135.007 207.145 133.413 207.004 132.153 206.182C128.783 203.982 128.459 206.958 125.219 207.994C121.979 209.029 116.341 207.606 113.296 209.806C111.785 210.898 110.369 211.597 109.327 212.022C108.814 211.99 108.304 211.957 107.791 211.915C108.374 210.036 110.333 204.84 114.677 202.601C120.035 199.839 122.972 198.977 124.701 193.282C126.212 188.302 132.35 183.717 139.764 183.45C140.178 184.134 140.443 185.006 140.503 186.098C140.855 192.438 133.279 197.191 128.618 199.96L128.617 199.961Z" fill="white"/>
</g>
<g style="mix-blend-mode:soft-light" opacity="0.5">
<path d="M100.12 211.734C98.6787 211.894 97.2531 212.011 95.8353 212.075C95.615 211.06 97.2295 209.722 92.7481 208.769C85.431 207.217 81.2473 210.123 78.4321 203.204C76.3144 198 71.0758 194.617 66.9 195.575C67.0819 195.362 67.2943 195.166 67.5404 194.979C71.2028 192.214 77.7009 197.72 80.4926 199.682C81.1721 200.159 83.9787 202.724 84.9325 202.413C85.8033 202.13 84.7099 201.041 84.3055 200.544C81.2622 196.829 76.838 194.505 73.8362 190.736C71.2671 187.51 68.5796 180.627 72.3823 177.215C72.8071 176.835 73.2406 176.573 73.6787 176.418C73.4921 179.687 73.982 185.123 78.5622 188.318C85.431 193.107 86.598 197.12 86.8566 199.708C87.098 202.126 97.8652 204.093 100.12 211.732V211.734Z" fill="white"/>
</g>
<path d="M128.062 81.08L129.525 79.0997C129.525 79.0997 125.246 80.9047 123.496 79.9028C121.746 78.9009 121.03 79.2571 122.03 80.0085C122.709 80.518 124.937 81.2467 126.299 81.6623C126.951 81.8611 127.657 81.6279 128.062 81.08Z" fill="url(#paint3_linear_256_83)"/>
<path d="M125.683 81.5457C125.683 81.5457 114.553 94.0245 124.415 107.877C134.277 121.729 152.6 106.721 152.6 106.721L151.109 95.6C151.109 95.6 133.28 104.285 130.442 93.648C127.354 82.0686 129.136 81.0409 129.136 81.0409L125.684 81.5457H125.683Z" fill="url(#paint4_linear_256_83)"/>
<path d="M159.987 206.011C159.987 206.011 160.179 207.541 160.05 208.054C159.921 208.567 155.465 208.937 153.953 208.759C152.44 208.581 154.853 207.038 155.817 206.749C156.78 206.46 159.987 206.012 159.987 206.012V206.011Z" fill="url(#paint5_linear_256_83)"/>
<path d="M157.744 203.458L158.213 206.529C158.213 206.529 159.411 207.066 159.986 206.535L160.049 203.321L157.744 203.458Z" fill="url(#paint6_linear_256_83)"/>
<path d="M182.86 203.321C182.86 203.321 181.915 204.022 182.167 204.861C182.419 205.7 184.625 209.062 186.197 210.016C187.769 210.97 187.276 208.982 186.818 207.743C186.361 206.505 185.192 203.778 184.735 203.32C184.279 202.863 182.86 203.32 182.86 203.32L182.86 203.321Z" fill="url(#paint7_linear_256_83)"/>
<path d="M181.16 199.948C181.617 201.22 182.056 202.266 182.4 203.038C183.161 204.745 183.577 205.385 184.048 205.94C184.458 206.424 185.43 207.455 185.692 207.284C185.958 207.11 185.246 205.855 183.875 202.181C183.676 201.647 183.048 199.948 183.048 199.948H181.16H181.16Z" fill="url(#paint8_linear_256_83)"/>
<path d="M148.413 146.792C148.087 149.989 147.774 154.952 148.242 160.975C148.852 168.822 150.423 173.789 152.394 182.156C153.598 187.269 155.221 194.796 156.689 204.208C157.03 204.403 158.033 204.915 159.323 204.724C160.045 204.616 160.585 204.33 160.905 204.123C164.758 192.366 163.62 185.08 161.761 180.541C160.969 178.606 160.008 177.08 159.494 174.106C158.814 170.17 159.654 167.971 160.853 158.855C161.707 152.358 161.559 151.354 160.991 150.38C158.719 146.485 151.771 146.561 148.414 146.792H148.413Z" fill="url(#paint9_linear_256_83)"/>
<path d="M161.675 148.159C164.035 160.332 166.351 166.725 168.105 170.341C168.537 171.232 169.979 174.11 171.343 178.234C172.55 181.886 173.053 184.571 173.311 185.754C174.125 189.485 176.136 194.934 181.548 202.079C181.615 202.119 182.537 202.64 183.42 202.175C183.867 201.94 184.088 201.565 184.177 201.39C183.469 194.559 182.657 188.818 181.953 184.387C181.805 183.458 181.153 179.391 180.132 174.02C179.732 171.918 179.147 168.838 178.445 165.674C177.571 161.735 176.231 156.375 174.167 149.953C170.003 149.355 165.84 148.757 161.676 148.159H161.675Z" fill="url(#paint10_linear_256_83)"/>
<path d="M164.963 96.6989C163.085 96.2277 159.858 96.1541 157.222 93.8264C156.428 93.1258 153.616 90.6439 154.663 87.3275C155.283 85.359 157.177 83.3702 159.374 82.8035C161.251 82.319 161.982 83.2269 165.873 83.9822C167.388 84.2758 169.822 84.7477 172.21 84.5513C176.303 84.2147 177.915 82.1092 181.531 80.6651C185.974 78.8907 191.968 78.7021 195.747 80.6158C202.454 84.0135 198.564 92.2007 206.091 96.3271C208.558 97.6788 209.122 96.8805 214.57 99.1989C220.026 101.52 222.753 102.68 223.503 105.252C224.543 108.821 221.683 113.94 217.741 115.949C213.891 117.912 210.216 116.399 208.717 118.438C207.65 119.888 209.174 121.115 208.505 123.698C207.642 127.029 204.012 129.225 203.426 129.579C197.985 132.872 187.667 130.601 181.353 125.291C169.968 115.716 175.178 99.2623 164.963 96.6989H164.963Z" fill="url(#paint11_linear_256_83)"/>
<path style="mix-blend-mode:multiply" opacity="0.3" d="M161.76 180.542C160.968 178.607 160.007 177.08 159.493 174.106C158.813 170.171 159.654 167.972 160.852 158.856C161.706 152.359 161.558 151.355 160.99 150.381C159.755 148.264 157.139 147.324 154.469 146.941C154.504 147.078 154.54 147.215 154.569 147.347C155.97 153.736 150.624 157.634 153.036 164.658C154.225 168.12 156.121 168.913 156.563 172.93C156.977 176.692 155.475 177.476 155.797 180.896C156.276 186.007 159.912 187.245 160.859 191.159C161.473 193.703 160.956 197.422 156.465 202.807C156.54 203.271 156.614 203.736 156.689 204.209C157.03 204.404 158.032 204.916 159.322 204.725C160.045 204.618 160.585 204.331 160.904 204.125C164.757 192.368 163.619 185.082 161.76 180.543V180.542Z" fill="url(#paint12_linear_256_83)"/>
<path d="M143.486 99.0917C143.839 98.5438 144.962 97.0254 149.728 95.9061C152.117 95.3457 156.533 94.3845 162.216 95.5868C170.022 97.2383 174.883 101.916 176.713 103.882C175.214 104.856 171.08 107.829 169.032 113.469C168.395 115.223 166.513 121.222 169.204 126.84C170.755 130.078 173.499 132.509 175.582 134.355C178.708 137.124 180.327 137.549 181.374 140.03C182.516 142.732 181.366 144.049 182.783 145.898C184.305 147.884 186.088 146.961 188.667 148.97C191.309 151.027 190.369 152.72 192.774 154.994C196.268 158.297 200.9 157.224 201.115 158.711C201.301 159.99 198.009 161.724 195.212 162.428C189.673 163.821 184.842 161.482 183.405 160.761C179.428 158.765 180.115 157.474 177.082 155.952C172.004 153.405 168.533 156.24 156.968 156.532C150.705 156.69 147.538 156.726 145.802 154.609C144.218 152.676 145.051 150.556 146.001 141.418C146.001 141.418 146.001 141.418 146.001 141.417C146.307 138.366 146.947 131.976 146.951 128.335C146.953 126.184 146.206 122.668 144.711 115.636C144.623 115.221 143.814 111.422 143.161 106.347C142.573 101.777 142.658 100.375 143.484 99.0917H143.486Z" fill="url(#paint13_linear_256_83)"/>
<g style="mix-blend-mode:multiply" opacity="0.3">
<path d="M192.774 154.994C190.369 152.721 191.31 151.028 188.667 148.971C186.088 146.962 184.305 147.885 182.783 145.899C181.366 144.05 182.515 142.732 181.374 140.031C180.326 137.551 178.708 137.125 175.582 134.356C173.498 132.509 170.755 130.079 169.204 126.841C166.513 121.223 168.395 115.223 169.032 113.469C171.08 107.829 175.214 104.856 176.713 103.883C176.568 103.728 176.398 103.551 176.216 103.365C166.345 104.719 160.589 110.416 159.878 112.103C158.232 116.001 160.837 117.434 160.904 128.679C160.937 134.054 160.356 136.176 162.102 138.42C164.099 140.985 166.401 140.192 169.289 143.546C171.508 146.124 171.153 147.758 173.225 148.844C175.453 150.012 176.872 148.65 179.385 149.186C183.584 150.08 184.481 154.914 187.256 157.559C189.355 159.559 193.236 160.958 200.888 159.457C201.065 159.199 201.151 158.948 201.116 158.713C200.901 157.227 196.269 158.3 192.775 154.996L192.774 154.994Z" fill="url(#paint14_linear_256_83)"/>
</g>
<path d="M159.012 89.4933C159.012 89.4933 159.51 93.4679 160.979 94.3782C162.448 95.2885 164.822 96.4782 165.084 96.8007C165.346 97.1232 155.985 98.1282 151.345 95.7902C152.874 95.4717 153.29 95.355 153.29 95.355C153.704 95.2376 154.478 95.02 155.254 94.5786C155.783 94.278 156.634 93.6918 157.414 92.5835L157.397 90.3825L159.012 89.4926L159.012 89.4933Z" fill="url(#paint15_linear_256_83)"/>
<path d="M159.236 90.9007C159.236 90.9007 158.278 92.2133 156.776 91.6661C155.431 91.1762 156.234 87.7072 157.301 87.3119C157.657 87.1797 158.31 87.2384 158.747 87.5107C159.054 87.7017 159.875 88.72 159.404 89.8604C159.744 89.7618 160.043 89.851 160.118 90.0193C160.213 90.2322 159.925 90.5226 159.86 90.5884C159.635 90.8161 159.362 90.8803 159.237 90.9007H159.236Z" fill="url(#paint16_linear_256_83)"/>
<path d="M166.132 115.598C165.153 117.675 169.652 122.51 174.652 124.807C175.671 125.275 182.987 128.634 186.248 125.404C188.942 122.734 187.203 117.215 186.582 115.244C183.534 105.567 174.172 100.645 170.249 98.8694C167.321 106.181 169.045 109.439 169.724 110.457C170.433 111.52 172.412 113.752 174.513 115.718C175.992 117.101 176.912 117.774 176.789 117.99C176.634 118.259 174.902 117.751 168.171 114.48C167.391 114.606 166.467 114.889 166.132 115.598Z" fill="url(#paint17_linear_256_83)"/>
<path d="M149.487 103.463L161.401 104.578C161.651 104.601 161.861 104.775 161.93 105.016L166.376 120.52C166.493 120.93 166.163 121.331 165.737 121.293L153.726 120.235C153.474 120.213 153.261 120.036 153.193 119.793L148.845 104.233C148.73 103.822 149.064 103.425 149.488 103.464L149.487 103.463Z" fill="url(#paint18_linear_256_83)"/>
<path style="mix-blend-mode:multiply" opacity="0.3" d="M157.416 116.872C156.967 114.422 158.351 112.521 157.024 110.224C155.66 107.861 153.263 108.26 151.542 106.313C150.994 105.693 150.502 104.816 150.26 103.535L149.486 103.462C149.061 103.422 148.728 103.821 148.843 104.232L153.191 119.791C153.259 120.035 153.471 120.212 153.724 120.233L159.823 120.771C158.271 119.38 157.63 118.041 157.415 116.872H157.416Z" fill="url(#paint19_linear_256_83)"/>
<path d="M167.832 115.113C167.832 115.113 163.729 110.921 162.06 110.301C160.39 109.682 161.868 114.103 162.847 114.727C163.825 115.351 164.206 115.589 164.97 115.684L165.733 115.78L166.735 116.314C166.735 116.314 168.022 116.161 167.832 115.113Z" fill="url(#paint20_linear_256_83)"/>
<path d="M183.57 29.9081L135.34 27.3142C131.367 27.1006 128.13 30.0208 128.13 33.8389V60.231C128.13 64.0483 131.368 67.223 135.34 67.3208L151.108 67.709L158.467 76.3932C158.911 76.9168 159.687 77.0021 160.234 76.5873L167.311 68.1074L183.571 68.5074C187.249 68.5982 190.214 65.7155 190.214 62.0696V36.8656C190.214 33.2198 187.249 30.1054 183.571 29.9074L183.57 29.9081Z" fill="url(#paint21_linear_256_83)"/>
<path d="M184.531 29.141L136.3 26.5471C132.327 26.3335 129.09 29.2538 129.09 33.0718V59.4639C129.09 63.2812 132.328 66.4559 136.3 66.5537L152.068 66.9419L159.248 75.414C159.759 76.0167 160.687 76.0237 161.207 75.4288L168.271 67.3403L184.531 67.7403C188.209 67.8311 191.174 64.9484 191.174 61.3025V36.0993C191.174 32.4535 188.209 29.3391 184.531 29.141H184.531Z" fill="url(#paint22_linear_256_83)"/>
<path d="M142.653 47.8475C143.052 47.8671 143.343 47.7946 143.525 47.63C143.707 47.4521 143.806 47.2033 143.822 46.8837L143.879 45.7051L142.961 45.66C142.494 45.6371 142.176 45.7415 142.004 45.9734C141.846 46.1926 141.759 46.482 141.741 46.8415C141.726 47.1478 141.781 47.3908 141.906 47.5705C142.031 47.7368 142.28 47.8292 142.653 47.8475ZM146.23 47.5828C146.197 48.2487 146.474 48.596 147.06 48.6248L147.599 48.6513C147.772 48.6599 147.88 48.772 147.923 48.9877C147.979 49.204 147.996 49.5386 147.974 49.9914C147.95 50.4841 147.899 50.842 147.821 51.0651C147.757 51.2889 147.638 51.3965 147.465 51.388L146.925 51.3615C146.206 51.3262 145.646 51.1852 145.244 50.9385C144.842 50.6918 144.541 50.3165 144.338 49.8126C143.989 50.1292 143.606 50.3239 143.188 50.3969C142.785 50.4571 142.39 50.4778 142.004 50.4588C141.072 50.413 140.374 50.0849 139.91 49.4748C139.459 48.8652 139.261 48.0078 139.315 46.9025C139.339 46.4097 139.43 45.9336 139.586 45.474C139.756 45.0018 139.983 44.5858 140.268 44.226C140.566 43.8669 140.927 43.5843 141.351 43.3782C141.775 43.1721 142.26 43.0824 142.806 43.1093L144.004 43.1682L144.069 41.8498L146.506 41.9696L146.23 47.5828ZM149.193 48.7297C149.093 48.311 149.053 47.9018 149.073 47.5023C149.1 46.9563 149.211 46.4545 149.407 45.9969C149.617 45.54 149.896 45.1466 150.246 44.8167C150.596 44.4868 151.002 44.2331 151.465 44.0556C151.941 43.8788 152.452 43.8038 152.998 43.8306C153.504 43.8555 153.979 43.9656 154.423 44.161C154.868 44.3431 155.336 44.613 155.825 44.9708L154.599 47.1132C154.221 46.9211 153.907 46.7921 153.657 46.7264C153.407 46.6474 153.142 46.601 152.862 46.5873C152.49 46.5689 152.191 46.6677 151.967 46.8837C151.743 47.0996 151.623 47.3607 151.608 47.667C151.587 48.0931 151.718 48.4066 152.002 48.6075C152.287 48.795 152.649 48.8996 153.088 48.9212L155.945 49.0616L155.71 51.7934L147.46 51.3878C147.287 51.3793 147.179 51.2672 147.136 51.0515C147.081 50.8218 147.064 50.4873 147.086 50.0478C147.11 49.5417 147.161 49.1838 147.238 48.974C147.303 48.7502 147.422 48.6426 147.595 48.6511L149.193 48.7297ZM153.988 42.017L151.351 41.8874L151.47 39.4703L154.107 39.6L153.988 42.017ZM159.441 54.0793C160.333 54.1232 160.982 53.9482 161.389 53.5543C161.795 53.1738 162.045 52.6922 162.141 52.1095L161.202 52.0634C160.509 52.0293 159.947 51.9282 159.515 51.7602C159.083 51.5921 158.747 51.3553 158.508 51.0499C158.27 50.7445 158.107 50.3827 158.021 49.9646C157.949 49.5339 157.926 49.0455 157.953 48.4995C157.979 47.9802 158.076 47.491 158.245 47.0321C158.415 46.5599 158.649 46.1575 158.946 45.825C159.256 45.4932 159.629 45.2379 160.064 45.0591C160.514 44.8676 161.026 44.7859 161.598 44.8141C162.051 44.8363 162.474 44.9305 162.866 45.0967C163.272 45.2634 163.62 45.5142 163.91 45.8488C164.201 46.1835 164.42 46.6148 164.568 47.1427C164.729 47.6712 164.791 48.3084 164.754 49.0541L164.614 51.9107C164.58 52.5899 164.435 53.2368 164.178 53.8516C163.921 54.4664 163.567 54.9964 163.118 55.4415C162.669 55.9 162.131 56.254 161.504 56.5036C160.878 56.7531 160.179 56.8589 159.406 56.8209L157.449 56.7247L157.463 53.9821L159.441 54.0793ZM160.38 48.4186C160.364 48.7382 160.42 48.9679 160.546 49.1076C160.687 49.2347 160.95 49.3077 161.336 49.3267L162.315 49.3748L162.343 48.8155C162.368 48.3094 162.298 47.9589 162.134 47.7639C161.984 47.5696 161.735 47.464 161.389 47.447C160.75 47.4155 160.413 47.7394 160.38 48.4186ZM164.996 54.3524L165.256 54.3652C165.748 54.3894 166.172 54.3368 166.525 54.2073C166.891 54.0918 167.186 53.9261 167.41 53.7102C167.648 53.4949 167.821 53.2431 167.928 52.9547C168.048 52.6803 168.116 52.3899 168.131 52.0836L168.407 46.4704L170.944 46.5951L170.668 52.2083C170.635 52.8875 170.476 53.5338 170.192 54.1473C169.922 54.7614 169.555 55.2907 169.093 55.7352C168.643 56.1937 168.112 56.5481 167.499 56.7983C166.899 57.0491 166.253 57.1575 165.561 57.1235L165.061 57.0989L164.996 54.3524ZM179.814 47.8121C180.166 48.2566 180.418 48.6961 180.57 49.1308C180.735 49.5661 180.808 49.9835 180.789 50.3831C180.771 50.7426 180.688 51.0789 180.539 51.392C180.403 51.7057 180.196 51.9759 179.918 52.2025C179.653 52.4298 179.324 52.6072 178.931 52.7347C178.538 52.8489 178.089 52.8935 177.583 52.8686L172.409 52.6143L172.444 49.8727L177.278 50.1103C177.624 50.1274 177.803 50.0094 177.816 49.7563C177.822 49.6232 177.762 49.4867 177.636 49.347L174.638 45.5552L176.707 43.7947L179.814 47.8121Z" fill="white"/>
<path d="M23.4247 207.719C23.0351 208.081 23.0101 208.947 22.9944 209.513C22.9873 209.766 22.9834 209.893 23.0155 209.98C23.2522 210.621 24.4702 210.64 26.388 210.764C29.4196 210.959 30.3311 211.169 30.5395 210.695C30.7347 210.25 30.1578 209.559 30.0928 209.483C29.744 209.074 29.3373 208.937 28.5535 208.706C27.1036 208.279 26.1278 208.054 25.8323 207.985C23.9882 207.558 23.6802 207.481 23.4239 207.718L23.4247 207.719Z" fill="url(#paint23_linear_256_83)"/>
<path d="M25.5494 204.639L25.6678 208.21C25.5737 208.376 24.5266 208.81 23.739 208.307L23.1449 204.76L25.5494 204.639Z" fill="url(#paint24_linear_256_83)"/>
<path d="M49.0094 207.785C48.4858 208.311 48.3189 209.338 48.7225 209.882C49.1191 210.417 49.7743 210.09 51.5746 210.285C53.5042 210.494 53.9846 211.003 55.3178 210.731C55.8562 210.62 56.8132 210.326 56.8155 209.934C56.8171 209.658 56.3468 209.48 54.7809 208.807C52.559 207.852 52.5715 207.81 52.095 207.691C50.8998 207.392 49.6998 207.092 49.0078 207.785H49.0094Z" fill="url(#paint25_linear_256_83)"/>
<path d="M50.4154 204.634L51.2125 208.03C51.1302 208.202 50.1145 208.721 49.2884 208.279L48.0172 204.945L50.4154 204.634Z" fill="url(#paint26_linear_256_83)"/>
<path d="M45.5789 131.263C45.14 142.434 45.2286 155.035 46.2945 168.796C47.3478 182.399 49.1724 194.76 51.2971 205.672C50.0432 205.92 48.7899 206.168 47.5367 206.416C44.56 203.163 40.856 198.121 39.298 191.28C38.3316 187.035 38.8355 184.928 38.3504 179.761C37.5784 171.533 35.3823 167.093 33.2255 160.351C31.288 154.295 29.0865 145.459 28.2635 133.798C34.028 132.955 39.8003 132.109 45.5789 131.263Z" fill="url(#paint27_linear_256_83)"/>
<path style="mix-blend-mode:multiply" opacity="0.3" d="M43.8492 183.468C42.4706 177.804 39.8168 176.265 39.722 170.943C39.6553 167.18 40.9642 166.894 40.8772 163.292C40.7455 157.826 37.6482 154.912 36.0932 151.452C34.4512 147.8 33.8227 141.965 38.2477 132.336C34.9168 132.823 31.589 133.311 28.2628 133.798C29.0849 145.458 31.2872 154.295 33.2247 160.35C35.3815 167.093 37.5776 171.532 38.3496 179.76C38.8347 184.928 38.33 187.034 39.2972 191.279C40.8553 198.121 44.5593 203.162 47.5359 206.415C47.8549 206.352 48.1731 206.289 48.4921 206.226C45.2732 202.191 44.1384 198.626 43.8492 195.747C43.3797 191.064 45.2395 189.18 43.8492 183.468Z" fill="url(#paint28_linear_256_83)"/>
<path d="M33.0773 130.398C31.5913 144.521 30.2252 158.912 28.9971 173.566C28.0754 184.559 27.2548 195.418 26.5283 206.138C25.2641 206.201 24.0007 206.265 22.7373 206.328C21.6455 203.901 20.2199 200.21 19.3531 195.553C18.3005 189.899 18.7809 186.625 18.4909 180.826C18.1657 174.322 17.2816 172.845 16.0072 164.58C13.4224 147.813 12.13 139.432 16.229 134.56C17.5606 132.977 21.6824 129.058 33.0765 130.398H33.0773Z" fill="url(#paint29_linear_256_83)"/>
<path d="M74.598 96.2363C74.598 96.2363 75.6176 94.3703 77.9132 93.7833C80.2104 93.1962 83.1784 91.0023 84.5179 90.5703C84.8408 90.4662 84.9913 90.3276 85.0038 90.1906C85.0297 89.9096 83.4786 89.8517 82.1376 90.0998C79.7605 90.5389 78.505 91.8359 78.1225 91.3984C77.6946 90.9084 79.0285 89.0095 78.704 88.7215C78.4532 88.4984 77.5213 89.6005 76.4766 90.3777C75.736 90.9287 73.1841 95.6179 73.1841 95.6179L74.5987 96.2371L74.598 96.2363Z" fill="url(#paint30_linear_256_83)"/>
<path d="M76.617 94.8626C77.4313 102.397 74.8786 109.786 69.8877 114.138C69.6823 114.317 69.4723 114.491 69.2575 114.661C60.2037 121.812 48.9882 115.104 47.619 114.253C47.264 114.034 45.5578 112.941 43.6211 110.932C41.4266 108.66 38.9241 105.199 37.7446 100.475C37.2579 98.5249 35.7578 92.5145 38.3951 90.0106C41.1288 87.4152 46.6652 90.1226 48.9036 91.216C58.3007 95.8105 59.6747 103.465 64.356 103.288C66.4549 103.208 69.5789 101.552 73.5635 93.4624C74.5839 93.9297 75.6004 94.3969 76.6177 94.8626H76.617Z" fill="url(#paint31_linear_256_83)"/>
<path style="mix-blend-mode:multiply" opacity="0.3" d="M69.8877 114.138C69.6823 114.317 69.4723 114.491 69.2575 114.661C60.2037 121.812 48.9882 115.104 47.619 114.253C47.264 114.034 45.5577 112.941 43.6211 110.932C43.7018 108.571 43.8272 105.416 43.8272 105.416C43.8272 105.416 47.9968 103.966 50.9006 108.843C51.9406 110.59 53.1186 112.248 54.8146 113.263C56.5208 114.286 57.6455 113.846 59.4834 113.154C61.1779 112.517 63.2015 113.517 64.8058 113.868C66.4642 114.231 68.1822 114.604 69.8884 114.138H69.8877Z" fill="url(#paint32_linear_256_83)"/>
<path d="M49.366 92.0269C49.366 92.0269 48.0571 93.514 49.7124 97.7978C52.1702 104.161 49.2476 109.534 48.2005 119.545C47.0845 130.219 48.0485 130.203 50.7916 136.431C50.8386 136.539 50.9554 136.845 50.8951 137.233C50.1137 142.229 16.9862 145.438 10.1464 133.809C8.36805 130.785 10.7326 113.026 13.7203 102.876C15.519 96.7654 18.3319 91.652 21.3524 87.4488C22.6088 86.4595 26.0228 85.4529 37.4146 87.0817C38.3841 87.4684 46.8564 89.5042 49.3667 92.0261L49.366 92.0269Z" fill="url(#paint33_linear_256_83)"/>
<path d="M32.2873 82.0364C32.2873 82.0364 31.3421 86.5761 30.9087 87.1248C30.476 87.6727 32.2528 89.1708 33.9198 88.5282C35.4544 87.9373 34.0233 83.6864 34.0233 83.6864L32.2873 82.0356V82.0364Z" fill="url(#paint34_linear_256_83)"/>
<path d="M35.8753 80.7629C37.1826 79.8808 37.5643 75.8053 36.1629 74.8824C35.4325 74.4011 34.3924 74.8973 34.2043 74.9873C33.2278 75.453 33.2152 76.1645 32.2943 77.0075C30.8036 78.3725 29.5536 77.6767 29.1397 78.6794C28.6099 79.9622 30.2636 82.0646 30.3451 82.1663C30.4635 82.3143 30.505 82.3565 31.0725 82.9349C31.4471 83.3169 32.0333 83.9243 32.9887 84.9379C33.0444 84.6201 33.1337 84.2248 33.2842 83.792C33.3422 83.6253 33.5765 82.9733 34.4716 81.8305C35.0359 81.1097 35.6872 80.8905 35.8753 80.7637V80.7629Z" fill="url(#paint35_linear_256_83)"/>
<path d="M31.6548 84.1161C31.6548 84.1161 32.7434 85.8435 34.7318 85.5884C36.514 85.3598 36.6065 80.9633 35.416 80.0906C35.0179 79.7987 34.2412 79.7133 33.6228 79.9427C33.2576 80.0781 33.14 80.2534 32.5404 80.4608C31.9879 80.6526 31.8264 80.5939 31.665 80.759C31.4628 80.9657 31.3319 81.451 31.7465 82.7166C31.3852 82.3581 30.9667 82.2368 30.6829 82.4035C30.6375 82.4301 30.5191 82.5287 30.4564 82.6712C30.2315 83.1862 30.6829 83.8006 31.6556 84.1153L31.6548 84.1161Z" fill="url(#paint36_linear_256_83)"/>
<path style="mix-blend-mode:multiply" opacity="0.3" d="M13.7195 102.876C15.1537 98.0029 17.2377 93.7732 19.5553 90.1218C20.6517 91.5338 20.1305 99.1292 21.0185 100.41C28.421 111.089 30.6594 112.26 29.2855 117.163C27.939 121.967 17.6367 127.239 20.5083 134.509C21.5828 137.231 23.2138 139.447 25.0768 141.247C18.5372 140.31 12.6395 138.049 10.1456 133.809C8.36726 130.785 10.7318 113.026 13.7195 102.876Z" fill="url(#paint37_linear_256_83)"/>
<path d="M31.6846 125.535L34.0123 124.243C34.0123 124.243 36.1527 123.201 37.5376 123.171C38.9225 123.141 37.3252 124.552 36.3213 124.858C35.3181 125.162 38.0925 126.263 39.968 125.016C41.8506 123.764 40.6515 127.423 38.3394 128.122C36.032 128.818 32.8751 127.843 31.9213 128.131C30.9682 128.42 30.4134 126.241 31.6862 125.535H31.6846Z" fill="url(#paint38_linear_256_83)"/>
<path d="M19.1564 88.2636C18.3138 88.7833 17.5246 89.4087 16.7346 90.0106C15.9226 90.6297 15.1969 91.3396 14.486 92.0793C12.6614 93.9774 10.7201 95.7306 8.98644 97.6882C5.49876 101.626 1.98992 106.269 0.924018 111.576C0.413014 114.12 0.715541 116.652 2.30185 118.819C10.1433 129.531 32.8594 130.066 32.5256 128.917C32.1901 127.765 31.8688 124.603 31.8688 124.603C31.8688 124.603 14.091 117.774 14.9727 115.405C15.8607 113.02 27.0283 106.469 25.6411 101.235C24.9875 98.7675 25.3496 96.0907 25.4381 93.5508C25.4961 91.8914 25.8402 90.0427 25.2038 88.4342C24.4522 86.5354 22.6778 86.8641 21.169 87.3236C20.4535 87.5411 19.7896 87.873 19.1564 88.2636Z" fill="url(#paint39_linear_256_83)"/>
<path d="M74.0173 46.3395C72.1253 43.733 71.1056 40.7298 71.253 37.5739C71.6809 28.3982 81.8109 21.4141 93.879 21.9753C105.947 22.5365 115.384 30.4301 114.956 39.6058C114.528 48.7815 104.398 55.7656 92.3296 55.2044C87.8065 54.9939 83.6535 53.7541 80.2504 51.802C77.9274 52.0877 74.3198 52.5808 72.4161 52.8438C71.8557 52.9212 71.4254 52.3569 71.6488 51.838L74.0173 46.3395Z" fill="url(#paint40_linear_256_83)"/>
<g style="mix-blend-mode:multiply" opacity="0.3">
<path d="M80.9825 41.55C85.9781 39.7208 91.1633 44.313 94.6738 41.4412C98.2116 38.546 94.825 32.3399 98.2774 28.1892C99.9233 26.2105 102.574 25.3613 105.57 25.1609C111.47 28.3982 115.228 33.7402 114.955 39.6058C114.527 48.7815 104.397 55.7656 92.3288 55.2044C87.8058 54.9938 83.6527 53.754 80.2496 51.8019C78.4172 52.0273 75.7846 52.3819 73.8206 52.6504C75.6044 45.2781 78.382 42.501 80.9817 41.5492L80.9825 41.55Z" fill="url(#paint41_linear_256_83)"/>
</g>
<path d="M85.7399 38.8837C85.914 37.8127 85.1858 36.8036 84.1133 36.6297C83.0409 36.4559 82.0304 37.1831 81.8563 38.2541C81.6823 39.3251 82.4105 40.3343 83.4829 40.5081C84.5554 40.682 85.5658 39.9547 85.7399 38.8837Z" fill="white"/>
<path d="M93.335 39.9562C94.1033 39.189 94.1032 37.9451 93.335 37.1778C92.5668 36.4106 91.3212 36.4106 90.553 37.1778C89.7847 37.9451 89.7847 39.189 90.553 39.9562C91.3212 40.7234 92.5668 40.7234 93.335 39.9562Z" fill="white"/>
<path d="M102.005 39.0163C102.254 37.9603 101.599 36.9022 100.542 36.6529C99.4845 36.4037 98.425 37.0577 98.1754 38.1137C97.9258 39.1697 98.5807 40.2278 99.6381 40.477C100.696 40.7263 101.755 40.0723 102.005 39.0163Z" fill="white"/>
</g>
<defs>
<linearGradient id="paint0_linear_256_83" x1="131.168" y1="94.2206" x2="16.4147" y2="65.5501" gradientUnits="userSpaceOnUse">
<stop stop-color="white"/>
<stop offset="1" stop-color="#D8DEE8"/>
</linearGradient>
<linearGradient id="paint1_linear_256_83" x1="17.3673" y1="117.861" x2="90.5031" y2="68.0528" gradientUnits="userSpaceOnUse">
<stop stop-color="white"/>
<stop offset="1" stop-color="#D8DEE8"/>
</linearGradient>
<linearGradient id="paint2_linear_256_83" x1="65.9995" y1="186.779" x2="140.514" y2="186.779" gradientUnits="userSpaceOnUse">
<stop stop-color="#FF9085"/>
<stop offset="1" stop-color="#FB6FBB"/>
</linearGradient>
<linearGradient id="paint3_linear_256_83" x1="125.03" y1="77.0749" x2="126.271" y2="82.4318" gradientUnits="userSpaceOnUse">
<stop stop-color="#FFC444"/>
<stop offset="1" stop-color="#F36F56"/>
</linearGradient>
<linearGradient id="paint4_linear_256_83" x1="137.702" y1="106.77" x2="142.173" y2="129.63" gradientUnits="userSpaceOnUse">
<stop stop-color="#FFC444"/>
<stop offset="1" stop-color="#F36F56"/>
</linearGradient>
<linearGradient id="paint5_linear_256_83" x1="156.129" y1="196.167" x2="157.665" y2="223.852" gradientUnits="userSpaceOnUse">
<stop stop-color="#444B8C"/>
<stop offset="1" stop-color="#26264F"/>
</linearGradient>
<linearGradient id="paint6_linear_256_83" x1="159.037" y1="209.81" x2="158.221" y2="172.432" gradientUnits="userSpaceOnUse">
<stop stop-color="#FFC444"/>
<stop offset="1" stop-color="#F36F56"/>
</linearGradient>
<linearGradient id="paint7_linear_256_83" x1="184.003" y1="194.621" x2="185.539" y2="222.305" gradientUnits="userSpaceOnUse">
<stop stop-color="#444B8C"/>
<stop offset="1" stop-color="#26264F"/>
</linearGradient>
<linearGradient id="paint8_linear_256_83" x1="183.578" y1="209.275" x2="182.763" y2="171.897" gradientUnits="userSpaceOnUse">
<stop stop-color="#FFC444"/>
<stop offset="1" stop-color="#F36F56"/>
</linearGradient>
<linearGradient id="paint9_linear_256_83" x1="147.154" y1="185.517" x2="162.672" y2="164.663" gradientUnits="userSpaceOnUse">
<stop stop-color="#444B8C"/>
<stop offset="1" stop-color="#26264F"/>
</linearGradient>
<linearGradient id="paint10_linear_256_83" x1="158.701" y1="188.102" x2="195.061" y2="154.148" gradientUnits="userSpaceOnUse">
<stop stop-color="#444B8C"/>
<stop offset="1" stop-color="#26264F"/>
</linearGradient>
<linearGradient id="paint11_linear_256_83" x1="201.077" y1="110.561" x2="184.56" y2="100.686" gradientUnits="userSpaceOnUse">
<stop stop-color="#444B8C"/>
<stop offset="1" stop-color="#26264F"/>
</linearGradient>
<linearGradient id="paint12_linear_256_83" x1="149.137" y1="186.992" x2="164.655" y2="166.138" gradientUnits="userSpaceOnUse">
<stop stop-color="#444B8C"/>
<stop offset="1" stop-color="#26264F"/>
</linearGradient>
<linearGradient id="paint13_linear_256_83" x1="151.512" y1="116.473" x2="185.985" y2="161.78" gradientUnits="userSpaceOnUse">
<stop stop-color="#FFC444"/>
<stop offset="1" stop-color="#F36F56"/>
</linearGradient>
<linearGradient id="paint14_linear_256_83" x1="172.502" y1="95.0928" x2="181.376" y2="149.438" gradientUnits="userSpaceOnUse">
<stop stop-color="#FFC444"/>
<stop offset="1" stop-color="#F36F56"/>
</linearGradient>
<linearGradient id="paint15_linear_256_83" x1="162.599" y1="83.4203" x2="153.986" y2="108.813" gradientUnits="userSpaceOnUse">
<stop stop-color="#FFC444"/>
<stop offset="1" stop-color="#F36F56"/>
</linearGradient>
<linearGradient id="paint16_linear_256_83" x1="156.85" y1="90.0459" x2="171.872" y2="80.9896" gradientUnits="userSpaceOnUse">
<stop stop-color="#FFC444"/>
<stop offset="1" stop-color="#F36F56"/>
</linearGradient>
<linearGradient id="paint17_linear_256_83" x1="165.997" y1="112.831" x2="187.709" y2="112.831" gradientUnits="userSpaceOnUse">
<stop stop-color="#FFC444"/>
<stop offset="1" stop-color="#F36F56"/>
</linearGradient>
<linearGradient id="paint18_linear_256_83" x1="153.928" y1="144.648" x2="155.634" y2="129.657" gradientUnits="userSpaceOnUse">
<stop stop-color="#311944"/>
<stop offset="0.56" stop-color="#6F2B60"/>
<stop offset="1" stop-color="#A03976"/>
</linearGradient>
<linearGradient id="paint19_linear_256_83" x1="150.686" y1="144.278" x2="152.392" y2="129.288" gradientUnits="userSpaceOnUse">
<stop stop-color="#311944"/>
<stop offset="0.56" stop-color="#6F2B60"/>
<stop offset="1" stop-color="#A03976"/>
</linearGradient>
<linearGradient id="paint20_linear_256_83" x1="164.351" y1="111.854" x2="170.382" y2="148.788" gradientUnits="userSpaceOnUse">
<stop stop-color="#FFC444"/>
<stop offset="1" stop-color="#F36F56"/>
</linearGradient>
<linearGradient id="paint21_linear_256_83" x1="143.051" y1="22.6603" x2="168.769" y2="64.0649" gradientUnits="userSpaceOnUse">
<stop stop-color="#311944"/>
<stop offset="1" stop-color="#893976"/>
</linearGradient>
<linearGradient id="paint22_linear_256_83" x1="144.011" y1="21.8939" x2="169.729" y2="63.2978" gradientUnits="userSpaceOnUse">
<stop stop-color="#FF9085"/>
<stop offset="1" stop-color="#FB6FBB"/>
</linearGradient>
<linearGradient id="paint23_linear_256_83" x1="30.4626" y1="208.958" x2="22.9902" y2="209.633" gradientUnits="userSpaceOnUse">
<stop stop-color="#444B8C"/>
<stop offset="1" stop-color="#26264F"/>
</linearGradient>
<linearGradient id="paint24_linear_256_83" x1="26.2159" y1="209.213" x2="22.3222" y2="202.396" gradientUnits="userSpaceOnUse">
<stop stop-color="#FFC444"/>
<stop offset="1" stop-color="#F36F56"/>
</linearGradient>
<linearGradient id="paint25_linear_256_83" x1="56.4633" y1="208.214" x2="48.6541" y2="209.922" gradientUnits="userSpaceOnUse">
<stop stop-color="#444B8C"/>
<stop offset="1" stop-color="#26264F"/>
</linearGradient>
<linearGradient id="paint26_linear_256_83" x1="51.6518" y1="209.125" x2="47.1489" y2="202.475" gradientUnits="userSpaceOnUse">
<stop stop-color="#FFC444"/>
<stop offset="1" stop-color="#F36F56"/>
</linearGradient>
<linearGradient id="paint27_linear_256_83" x1="54.9172" y1="194.426" x2="35.5234" y2="143.471" gradientUnits="userSpaceOnUse">
<stop stop-color="#311944"/>
<stop offset="1" stop-color="#893976"/>
</linearGradient>
<linearGradient id="paint28_linear_256_83" x1="51.5301" y1="195.693" x2="32.1426" y2="144.754" gradientUnits="userSpaceOnUse">
<stop stop-color="#311944"/>
<stop offset="1" stop-color="#893976"/>
</linearGradient>
<linearGradient id="paint29_linear_256_83" x1="42.9894" y1="196.803" x2="17.5828" y2="148.76" gradientUnits="userSpaceOnUse">
<stop stop-color="#311944"/>
<stop offset="1" stop-color="#893976"/>
</linearGradient>
<linearGradient id="paint30_linear_256_83" x1="80.984" y1="90.0373" x2="69.3847" y2="103.368" gradientUnits="userSpaceOnUse">
<stop stop-color="#FFC444"/>
<stop offset="1" stop-color="#F36F56"/>
</linearGradient>
<linearGradient id="paint31_linear_256_83" x1="20.3767" y1="6.16851" x2="69.4358" y2="128.833" gradientUnits="userSpaceOnUse">
<stop stop-color="#AA80F9"/>
<stop offset="1" stop-color="#6165D7"/>
</linearGradient>
<linearGradient id="paint32_linear_256_83" x1="55.4976" y1="116.099" x2="57.8764" y2="105.01" gradientUnits="userSpaceOnUse">
<stop stop-color="#AA80F9"/>
<stop offset="1" stop-color="#6165D7"/>
</linearGradient>
<linearGradient id="paint33_linear_256_83" x1="-6.72931" y1="21.9636" x2="41.6792" y2="143.004" gradientUnits="userSpaceOnUse">
<stop stop-color="#AA80F9"/>
<stop offset="1" stop-color="#6165D7"/>
</linearGradient>
<linearGradient id="paint34_linear_256_83" x1="30.7608" y1="90.454" x2="35.3847" y2="80.8111" gradientUnits="userSpaceOnUse">
<stop stop-color="#FFC444"/>
<stop offset="1" stop-color="#F36F56"/>
</linearGradient>
<linearGradient id="paint35_linear_256_83" x1="28.6778" y1="91.9805" x2="34.1479" y2="75.3415" gradientUnits="userSpaceOnUse">
<stop stop-color="#311944"/>
<stop offset="1" stop-color="#6B3976"/>
</linearGradient>
<linearGradient id="paint36_linear_256_83" x1="34.9834" y1="85.8365" x2="26.1713" y2="67.0534" gradientUnits="userSpaceOnUse">
<stop stop-color="#FFC444"/>
<stop offset="1" stop-color="#F36F56"/>
</linearGradient>
<linearGradient id="paint37_linear_256_83" x1="16.0974" y1="135.279" x2="26.4553" y2="93.2322" gradientUnits="userSpaceOnUse">
<stop stop-color="#6165D7"/>
<stop offset="1" stop-color="#AA80F9"/>
</linearGradient>
<linearGradient id="paint38_linear_256_83" x1="37.0672" y1="130.531" x2="34.7775" y2="121.6" gradientUnits="userSpaceOnUse">
<stop stop-color="#FFC444"/>
<stop offset="1" stop-color="#F36F56"/>
</linearGradient>
<linearGradient id="paint39_linear_256_83" x1="-35.9773" y1="40.811" x2="45.9575" y2="144.417" gradientUnits="userSpaceOnUse">
<stop stop-color="#AA80F9"/>
<stop offset="1" stop-color="#6165D7"/>
</linearGradient>
<linearGradient id="paint40_linear_256_83" x1="114.954" y1="39.6085" x2="71.2512" y2="37.5678" gradientUnits="userSpaceOnUse">
<stop stop-color="#FF9085"/>
<stop offset="1" stop-color="#FB6FBB"/>
</linearGradient>
<linearGradient id="paint41_linear_256_83" x1="109.722" y1="27.859" x2="69.5311" y2="76.0248" gradientUnits="userSpaceOnUse">
<stop stop-color="#FF9085"/>
<stop offset="1" stop-color="#FB6FBB"/>
</linearGradient>
<clipPath id="clip0_256_83">
<rect width="223.764" height="217.255" fill="white" transform="translate(0.205322 0.642578)"/>
</clipPath>
</defs>
</svg>
