<svg xmlns="http://www.w3.org/2000/svg" xmlns:xlink="http://www.w3.org/1999/xlink" width="199" height="45" viewBox="0 0 199 45"><defs><style>.a{stroke:#67c81f;fill:url(#a);}.b{fill:url(#d);}.c,.d,.j{fill:none;}.c,.d{stroke:#8f3815;stroke-width:2px;}.e{fill:#ff7e00;}.f{fill:#ffd01c;}.g{fill:#ffff6e;}.h{fill:#ffb000;}.i,.k{stroke:none;}.k{fill:#67c81f;}.l{filter:url(#e);}.m{filter:url(#b);}</style><linearGradient id="a" x1="0.5" x2="0.5" y2="1" gradientUnits="objectBoundingBox"><stop offset="0" stop-color="#67c81f"/><stop offset="1" stop-color="#319a01"/></linearGradient><filter id="b" x="0" y="0" width="199" height="45" filterUnits="userSpaceOnUse"><feOffset dy="3" input="SourceAlpha"/><feGaussianBlur stdDeviation="1.5" result="c"/><feFlood flood-color="#237000"/><feComposite operator="in" in2="c"/><feComposite in="SourceGraphic"/></filter><linearGradient id="d" x1="0.5" x2="0.5" y2="1" gradientUnits="objectBoundingBox"><stop offset="0" stop-color="#79e826"/><stop offset="1" stop-color="#3eb707"/></linearGradient><filter id="e" x="139.5" y="0.5" width="55.998" height="42" filterUnits="userSpaceOnUse"><feOffset dx="-2" dy="2" input="SourceAlpha"/><feGaussianBlur stdDeviation="1" result="f"/><feFlood flood-color="#246108"/><feComposite operator="in" in2="f"/><feComposite in="SourceGraphic"/></filter></defs><g transform="translate(-80.5 -419.5)"><g class="m" transform="matrix(1, 0, 0, 1, 80.5, 419.5)"><g class="a" transform="translate(4.5 1.5)"><rect class="i" width="190" height="36" rx="10"/><rect class="j" x="0.5" y="0.5" width="189" height="35" rx="9.5"/></g></g><g class="l" transform="matrix(1, 0, 0, 1, 80.5, 419.5)"><g class="b" transform="translate(-19489.09 -7358.5)"><path class="i" d="M 19672.49609375 7395.5 L 19635.28515625 7395.5 C 19634.490234375 7392.74560546875 19634.0859375 7389.8876953125 19634.0859375 7386.99853515625 C 19634.0859375 7381.498046875 19635.56640625 7376.107421875 19638.365234375 7371.4091796875 C 19641.0625 7366.88232421875 19644.90234375 7363.11279296875 19649.4765625 7360.50048828125 L 19672.49609375 7360.50048828125 C 19678.333984375 7360.50048828125 19683.083984375 7364.76171875 19683.083984375 7370 L 19683.083984375 7386.00048828125 C 19683.083984375 7391.23876953125 19678.333984375 7395.5 19672.49609375 7395.5 Z"/><path class="k" d="M 19672.49609375 7395 C 19678.05859375 7395 19682.583984375 7390.962890625 19682.583984375 7386.00048828125 L 19682.583984375 7370 C 19682.583984375 7365.03759765625 19678.05859375 7361.00048828125 19672.49609375 7361.00048828125 L 19649.609375 7361.00048828125 C 19645.162109375 7363.5673828125 19641.42578125 7367.25 19638.794921875 7371.6650390625 C 19636.041015625 7376.28564453125 19634.5859375 7381.587890625 19634.5859375 7386.99853515625 C 19634.5859375 7389.71435546875 19634.94921875 7392.40234375 19635.6640625 7395 L 19672.49609375 7395 M 19672.49609375 7396 L 19634.912109375 7396 C 19634.05078125 7393.1513671875 19633.5859375 7390.12890625 19633.5859375 7386.99853515625 C 19633.5859375 7375.41943359375 19639.93359375 7365.322265625 19649.34375 7360.00048828125 L 19672.49609375 7360.00048828125 C 19678.62109375 7360.00048828125 19683.583984375 7364.478515625 19683.583984375 7370 L 19683.583984375 7386.00048828125 C 19683.583984375 7391.521484375 19678.62109375 7396 19672.49609375 7396 Z"/></g></g><g transform="translate(131.633 204.11)"><g transform="translate(107.447 220.966)"><g transform="translate(0 5.333)"><g transform="translate(0 0.236)"><g transform="translate(0 1.198)"><path class="c" d="M129.284,242.245c.1-4.611-4.678-8.455-10.684-8.588s-10.952,3.5-11.054,8.109c0,0-.08,1.773-.1,2.5-.1,4.611,4.678,8.455,10.684,8.588s10.952-3.5,11.054-8.109c.005-.266.064-1.47.064-2.146C129.262,242.48,129.278,242.363,129.284,242.245Z" transform="translate(-107.447 -233.653)"/></g><path class="c" d="M129.284,240c.1-4.611-4.678-8.455-10.684-8.589s-10.952,3.5-11.054,8.109c0,0-.08,1.773-.1,2.5-.1,4.611,4.678,8.455,10.684,8.588s10.952-3.5,11.054-8.109c.005-.266.064-1.47.064-2.146C129.262,240.23,129.278,240.113,129.284,240Z" transform="translate(-107.447 -231.403)"/><path class="c" d="M129.284,240c.1-4.611-4.678-8.455-10.684-8.589s-10.952,3.5-11.054,8.109c0,0-.08,1.773-.1,2.5-.1,4.611,4.678,8.455,10.684,8.588s10.952-3.5,11.054-8.109c.005-.266.064-1.47.064-2.146C129.262,240.23,129.278,240.113,129.284,240Z" transform="translate(-107.447 -231.403)"/><path class="c" d="M129.284,240c.1-4.611-4.678-8.455-10.684-8.589s-10.952,3.5-11.054,8.109c0,0-.08,1.773-.1,2.5-.1,4.611,4.678,8.455,10.684,8.588s10.952-3.5,11.054-8.109c.005-.266.064-1.47.064-2.146C129.262,240.23,129.278,240.113,129.284,240Z" transform="translate(-107.447 -231.403)"/></g><ellipse class="c" cx="8.212" cy="10.659" rx="8.212" ry="10.659" transform="translate(0.207 16.421) rotate(-88.734)"/><g transform="translate(0.38 1.086)"><path class="c" d="M114,233c-3.408,1.3-5.776,3.983-5.846,7.13-.1,4.531,4.587,8.312,10.475,8.439.1,0,.2-.005.295-.005Z" transform="translate(-108.157 -233)"/><path class="c" d="M114,233c-3.408,1.3-5.776,3.983-5.846,7.13-.1,4.531,4.587,8.312,10.475,8.439.1,0,.2-.005.295-.005Z" transform="translate(-108.157 -233)"/><path class="c" d="M114,233c-3.408,1.3-5.776,3.983-5.846,7.13-.1,4.531,4.587,8.312,10.475,8.439.1,0,.2-.005.295-.005Z" transform="translate(-108.157 -233)"/></g><g transform="translate(2.669 1.124)"><path class="c" d="M125.38,245.86s.166-.085.472-.245a10.831,10.831,0,0,0,1.232-.82,6.841,6.841,0,0,0,1.522-1.656,5.216,5.216,0,0,0,.841-2.673l.005-.17-.016-.208c-.011-.138-.021-.282-.032-.421a6.853,6.853,0,0,0-.188-.761,5.47,5.47,0,0,0-.761-1.507,7.46,7.46,0,0,0-2.883-2.279,9.906,9.906,0,0,0-3.89-.889c-.295-.016-.713.005-1.056.016-.332.043-.664.053-1.007.128a9.207,9.207,0,0,0-1.988.564,8.434,8.434,0,0,0-1.784.99,6.34,6.34,0,0,0-1.393,1.411,4.906,4.906,0,0,0-.793,1.736,4.722,4.722,0,0,0-.129.9l.016.522c.005.17.048.293.064.442a5.634,5.634,0,0,0,1.784,3.083,8.6,8.6,0,0,0,2.893,1.736,10.964,10.964,0,0,0,2.856.618,10.431,10.431,0,0,0,2.283-.059,12.2,12.2,0,0,0,1.457-.293c.321-.107.493-.165.493-.165s-.166.08-.482.218a9.072,9.072,0,0,1-1.436.463,10.8,10.8,0,0,1-2.342.277,10.332,10.332,0,0,1-3.06-.41,8.691,8.691,0,0,1-3.274-1.72,6.357,6.357,0,0,1-2.234-3.573c-.032-.192-.08-.4-.091-.575l-.032-.522c-.005-.25.021-.4.032-.607a2.99,2.99,0,0,1,.091-.575,5.6,5.6,0,0,1,.932-2.151,7.587,7.587,0,0,1,1.64-1.693,9.533,9.533,0,0,1,2.042-1.155,10.37,10.37,0,0,1,2.25-.618c.375-.08.782-.091,1.173-.133.391-.011.7-.027,1.125-.005a10.547,10.547,0,0,1,4.313,1.1,8.045,8.045,0,0,1,3.161,2.726,5.935,5.935,0,0,1,.793,1.794,6.254,6.254,0,0,1,.161.948c0,.144.005.282.005.426v.208c0,.117-.011.16-.016.24a5.453,5.453,0,0,1-1.163,2.891A7.2,7.2,0,0,1,127.218,245a8.412,8.412,0,0,1-1.34.692C125.552,245.8,125.38,245.86,125.38,245.86Z" transform="translate(-112.429 -233.07)"/><path class="c" d="M125.853,246.353c2.588-1.054,4.367-3.131,4.421-5.559.08-3.578-3.622-6.56-8.268-6.666s-8.477,2.716-8.557,6.294,3.622,6.56,8.268,6.666a10.4,10.4,0,0,0,4.137-.735" transform="translate(-112.902 -233.563)"/></g><g transform="translate(2.075 1.374)"><path class="c" d="M124.207,246.282l.472-.24a10.7,10.7,0,0,0,1.238-.809,7.167,7.167,0,0,0,1.538-1.651,5.2,5.2,0,0,0,.857-2.684l.005-.176-.016-.208c-.011-.138-.021-.282-.032-.421a5.382,5.382,0,0,0-.188-.772,5.29,5.29,0,0,0-.766-1.523,7.445,7.445,0,0,0-2.9-2.305,9.929,9.929,0,0,0-3.917-.9c-.305-.016-.713.005-1.056.016-.338.043-.67.053-1.018.128a9.357,9.357,0,0,0-2,.57,8.357,8.357,0,0,0-1.8,1,6.6,6.6,0,0,0-1.409,1.427,4.933,4.933,0,0,0-.8,1.757,4.877,4.877,0,0,0-.129.916l.016.522c.005.17.048.3.064.453a5.658,5.658,0,0,0,1.811,3.11,8.568,8.568,0,0,0,2.915,1.736,10.822,10.822,0,0,0,2.867.607,10.417,10.417,0,0,0,2.288-.069,11.488,11.488,0,0,0,1.452-.3c.343-.117.514-.181.514-.181s-.166.08-.488.213a8.72,8.72,0,0,1-1.436.453,10.251,10.251,0,0,1-2.336.261,10.143,10.143,0,0,1-3.049-.426,8.763,8.763,0,0,1-3.252-1.72,6.288,6.288,0,0,1-2.208-3.546,5.693,5.693,0,0,1-.091-.57l-.027-.522a5.407,5.407,0,0,1,.123-1.166,5.529,5.529,0,0,1,.927-2.13,7.558,7.558,0,0,1,1.624-1.677,9.534,9.534,0,0,1,2.031-1.15,10.22,10.22,0,0,1,2.234-.612c.375-.08.777-.091,1.163-.133.386-.011.7-.027,1.125-.005a10.624,10.624,0,0,1,4.292,1.086,8.015,8.015,0,0,1,3.145,2.7,5.851,5.851,0,0,1,.793,1.778,6.229,6.229,0,0,1,.161.937c0,.144.005.282.005.426l.005.208c0,.112-.011.154-.016.24a5.4,5.4,0,0,1-1.147,2.875,7.216,7.216,0,0,1-1.741,1.592,8.3,8.3,0,0,1-1.334.7C124.383,246.218,124.207,246.282,124.207,246.282Z" transform="translate(-111.32 -233.54)"/><path class="c" d="M124.623,246.733c2.588-1.054,4.367-3.131,4.421-5.559.08-3.578-3.622-6.56-8.268-6.666s-8.477,2.716-8.557,6.294,3.622,6.56,8.268,6.666a10.29,10.29,0,0,0,4.137-.735" transform="translate(-111.737 -233.991)"/></g><path class="c" d="M113.989,262.18c-2.668-1.565-2.245-3.323.67-1.539a11.314,11.314,0,0,0,7.25,1.273s-1.624-.053-1.6.974,1.709.953,1.709.953S117.043,264.23,113.989,262.18Z" transform="translate(-109.658 -244.486)"/></g><g transform="translate(4.583 0)"><g transform="translate(1.118 2.687)"><g transform="translate(0 1.198)"><path class="c" d="M132.277,228.969c-5.685-1.917-11.5.075-12.994,4.441,0,0-.611,1.667-.847,2.353-1.49,4.366,1.913,9.462,7.6,11.373s11.5-.075,12.994-4.441c.086-.25.5-1.379.713-2.029.043-.106.1-.213.134-.325C141.365,235.976,137.962,230.881,132.277,228.969Z" transform="translate(-118.087 -228.24)"/></g><path class="c" d="M132.277,226.719c-5.685-1.917-11.5.075-12.994,4.441,0,0-.611,1.667-.847,2.353-1.49,4.366,1.913,9.462,7.6,11.373s11.5-.075,12.994-4.441c.086-.25.5-1.379.713-2.029.043-.106.1-.213.134-.325C141.365,233.726,137.962,228.631,132.277,226.719Z" transform="translate(-118.087 -225.99)"/><path class="c" d="M132.277,226.719c-5.685-1.917-11.5.075-12.994,4.441,0,0-.611,1.667-.847,2.353-1.49,4.366,1.913,9.462,7.6,11.373s11.5-.075,12.994-4.441c.086-.25.5-1.379.713-2.029.043-.106.1-.213.134-.325C141.365,233.726,137.962,228.631,132.277,226.719Z" transform="translate(-118.087 -225.99)"/><path class="c" d="M132.277,226.719c-5.685-1.917-11.5.075-12.994,4.441,0,0-.611,1.667-.847,2.353-1.49,4.366,1.913,9.462,7.6,11.373s11.5-.075,12.994-4.441c.086-.25.5-1.379.713-2.029.043-.106.1-.213.134-.325C141.365,233.726,137.962,228.631,132.277,226.719Z" transform="translate(-118.087 -225.99)"/></g><path class="c" d="M8.192,0c4.537.009,8.225,4.784,8.236,10.667S12.77,21.307,8.233,21.3.008,16.514,0,10.632,3.654-.011,8.192,0Z" transform="matrix(0.321, -0.947, 0.947, 0.321, 0, 15.564)"/><g transform="translate(2.281 2.751)"><path class="c" d="M128.328,226.11c-3.644.224-6.709,2.077-7.727,5.058-1.463,4.292,1.87,9.3,7.443,11.176.1.032.188.053.284.085Z" transform="translate(-120.257 -226.11)"/><path class="c" d="M128.328,226.11c-3.644.224-6.709,2.077-7.727,5.058-1.463,4.292,1.87,9.3,7.443,11.176.1.032.188.053.284.085Z" transform="translate(-120.257 -226.11)"/><path class="c" d="M128.328,226.11c-3.644.224-6.709,2.077-7.727,5.058-1.463,4.292,1.87,9.3,7.443,11.176.1.032.188.053.284.085Z" transform="translate(-120.257 -226.11)"/></g><g transform="translate(4.615 3.835)"><path class="c" d="M135.441,242.1l.52-.091a10.079,10.079,0,0,0,1.42-.415,6.857,6.857,0,0,0,1.95-1.123,5.2,5.2,0,0,0,1.607-2.3l.054-.16.048-.2c.032-.138.064-.272.1-.415a6.137,6.137,0,0,0,.048-.783,5.371,5.371,0,0,0-.273-1.667,7.378,7.378,0,0,0-2.063-3.035A9.951,9.951,0,0,0,135.4,229.9c-.279-.1-.68-.208-1.007-.3-.332-.059-.648-.149-1-.181a9.272,9.272,0,0,0-2.068-.053,8.753,8.753,0,0,0-2,.41,6.6,6.6,0,0,0-1.758.932,4.889,4.889,0,0,0-1.281,1.416,5.432,5.432,0,0,0-.4.82l-.145.5c-.048.165-.043.293-.075.442a5.645,5.645,0,0,0,.772,3.472,8.47,8.47,0,0,0,2.234,2.519,10.97,10.97,0,0,0,2.54,1.443,10.244,10.244,0,0,0,2.2.623,11.82,11.82,0,0,0,1.479.154c.359.011.547,0,.547,0s-.182.027-.525.064a9.02,9.02,0,0,1-1.506.011,10.661,10.661,0,0,1-2.315-.437,10.141,10.141,0,0,1-2.792-1.3,8.685,8.685,0,0,1-2.6-2.614,6.336,6.336,0,0,1-1.056-4.073,5.684,5.684,0,0,1,.086-.575l.129-.506c.07-.24.145-.378.214-.57a3.174,3.174,0,0,1,.263-.522,5.63,5.63,0,0,1,1.538-1.773,7.68,7.68,0,0,1,2.074-1.129,9.475,9.475,0,0,1,2.3-.5,10.648,10.648,0,0,1,2.331.08,11.357,11.357,0,0,1,1.157.224c.375.106.675.186,1.077.33a10.557,10.557,0,0,1,3.783,2.337,8.023,8.023,0,0,1,2.192,3.541,5.952,5.952,0,0,1,.214,1.949,6.21,6.21,0,0,1-.134.948c-.043.138-.086.272-.123.4l-.059.2a2.118,2.118,0,0,1-.091.224,5.448,5.448,0,0,1-1.983,2.407,7.373,7.373,0,0,1-2.149,1,7.894,7.894,0,0,1-1.49.256C135.623,242.094,135.441,242.1,135.441,242.1Z" transform="translate(-124.614 -228.147)"/><path class="c" d="M135.88,242.612c2.786-.234,5.112-1.683,5.894-3.983,1.157-3.392-1.474-7.337-5.878-8.823s-8.905.064-10.063,3.45,1.474,7.337,5.878,8.823a10.355,10.355,0,0,0,4.169.532" transform="translate(-125.053 -228.66)"/></g><g transform="translate(3.977 3.899)"><path class="c" d="M134.2,242.155l.52-.09a10.764,10.764,0,0,0,1.425-.4,6.9,6.9,0,0,0,1.966-1.118,5.225,5.225,0,0,0,1.629-2.305l.059-.165.048-.2c.032-.138.064-.272.1-.415a5.561,5.561,0,0,0-.214-2.476,7.473,7.473,0,0,0-2.068-3.062,9.985,9.985,0,0,0-3.461-2.029c-.284-.106-.686-.208-1.013-.3-.332-.059-.654-.149-1.007-.181a9.368,9.368,0,0,0-2.079-.053,8.621,8.621,0,0,0-2.02.415,6.572,6.572,0,0,0-1.774.942,5.023,5.023,0,0,0-1.3,1.438,4.52,4.52,0,0,0-.4.836l-.145.5a3.716,3.716,0,0,0-.075.447,5.646,5.646,0,0,0,.788,3.5,8.486,8.486,0,0,0,2.256,2.524,10.878,10.878,0,0,0,2.551,1.432,10.271,10.271,0,0,0,2.2.612,10.7,10.7,0,0,0,1.479.144c.348.016.531.005.531.005s-.182.027-.525.059a9.134,9.134,0,0,1-1.506.005,10.931,10.931,0,0,1-5.09-1.757,8.668,8.668,0,0,1-2.583-2.609,6.286,6.286,0,0,1-1.04-4.041c.027-.186.043-.4.086-.57l.129-.506a5.451,5.451,0,0,1,.472-1.076,5.53,5.53,0,0,1,1.527-1.757,7.555,7.555,0,0,1,2.058-1.118,9.594,9.594,0,0,1,2.283-.49,10.5,10.5,0,0,1,2.315.08c.38.037.766.144,1.147.218.37.106.68.186,1.072.33a10.448,10.448,0,0,1,3.762,2.316,7.947,7.947,0,0,1,2.186,3.514,5.864,5.864,0,0,1,.22,1.933,6.228,6.228,0,0,1-.129.942c-.043.138-.08.272-.123.4l-.059.2c-.038.106-.059.144-.091.224a5.486,5.486,0,0,1-1.961,2.4,7.3,7.3,0,0,1-2.138,1,8.62,8.62,0,0,1-1.484.266C134.384,242.144,134.2,242.155,134.2,242.155Z" transform="translate(-123.423 -228.267)"/><path class="c" d="M134.59,242.612c2.786-.234,5.112-1.683,5.894-3.983,1.157-3.392-1.474-7.337-5.878-8.823s-8.905.064-10.063,3.45,1.474,7.337,5.878,8.823a10.355,10.355,0,0,0,4.169.532" transform="translate(-123.816 -228.724)"/></g><path class="c" d="M121.593,252.526c-2.068-2.29-1.136-3.839,1.1-1.267a11.865,11.865,0,0,0,5.717,3.259s-.911-.027-.911.831,1.248,1.161,1.248,1.161S123.886,255.391,121.593,252.526Z" transform="translate(-118.062 -234.494)"/></g></g><g transform="translate(107.447 220.974)"><g transform="translate(0 5.332)"><g transform="translate(0 0.236)"><g transform="translate(0 1.199)"><path class="d" d="M129.266,242.256c.1-4.617-4.674-8.465-10.676-8.6s-10.943,3.5-11.045,8.119c0,0-.08,1.775-.1,2.5-.1,4.617,4.674,8.465,10.676,8.6s10.943-3.5,11.045-8.119c.005-.267.064-1.471.064-2.148C129.244,242.49,129.26,242.373,129.266,242.256Z" transform="translate(-107.447 -233.653)"/></g><path class="d" d="M129.266,240.006c.1-4.617-4.674-8.465-10.676-8.6s-10.943,3.5-11.045,8.119c0,0-.08,1.775-.1,2.5-.1,4.617,4.674,8.465,10.676,8.6s10.943-3.5,11.045-8.119c.005-.267.064-1.471.064-2.148C129.244,240.24,129.26,240.123,129.266,240.006Z" transform="translate(-107.447 -231.403)"/><path class="e" d="M129.266,240.006c.1-4.617-4.674-8.465-10.676-8.6s-10.943,3.5-11.045,8.119c0,0-.08,1.775-.1,2.5-.1,4.617,4.674,8.465,10.676,8.6s10.943-3.5,11.045-8.119c.005-.267.064-1.471.064-2.148C129.244,240.24,129.26,240.123,129.266,240.006Z" transform="translate(-107.447 -231.403)"/></g><ellipse class="f" cx="8.221" cy="10.65" rx="8.221" ry="10.65" transform="translate(0.207 16.44) rotate(-88.734)"/><g transform="translate(0.38 1.087)"><path class="g" d="M114,233c-3.405,1.306-5.771,3.987-5.841,7.138-.1,4.537,4.583,8.322,10.467,8.449.1,0,.2-.005.294-.005Z" transform="translate(-108.157 -233)"/></g><g transform="translate(2.667 1.124)"><path class="g" d="M125.37,245.875s.166-.085.471-.245a10.813,10.813,0,0,0,1.231-.821,6.844,6.844,0,0,0,1.521-1.658,5.23,5.23,0,0,0,.841-2.676l.005-.171-.016-.208c-.011-.139-.021-.283-.032-.421a6.878,6.878,0,0,0-.187-.762,5.48,5.48,0,0,0-.76-1.509,7.458,7.458,0,0,0-2.88-2.282,9.881,9.881,0,0,0-3.887-.89c-.294-.016-.712.005-1.055.016-.332.043-.664.053-1.007.128a9.186,9.186,0,0,0-1.986.565,8.419,8.419,0,0,0-1.783.992,6.341,6.341,0,0,0-1.392,1.413,4.916,4.916,0,0,0-.792,1.738,4.737,4.737,0,0,0-.128.9l.016.522c.005.171.048.293.064.442a5.643,5.643,0,0,0,1.783,3.087,8.593,8.593,0,0,0,2.891,1.738,10.938,10.938,0,0,0,2.854.618,10.4,10.4,0,0,0,2.281-.059,12.184,12.184,0,0,0,1.456-.293c.321-.107.493-.165.493-.165s-.166.08-.482.219a9.049,9.049,0,0,1-1.435.464,10.771,10.771,0,0,1-2.34.277,10.3,10.3,0,0,1-3.057-.41,8.677,8.677,0,0,1-3.271-1.722,6.366,6.366,0,0,1-2.233-3.577c-.032-.192-.08-.405-.091-.576l-.032-.522c-.005-.251.021-.4.032-.608a3,3,0,0,1,.091-.576,5.609,5.609,0,0,1,.932-2.154,7.588,7.588,0,0,1,1.638-1.7,9.52,9.52,0,0,1,2.04-1.157,10.345,10.345,0,0,1,2.249-.618c.375-.08.782-.091,1.172-.133.391-.011.7-.027,1.124-.005a10.521,10.521,0,0,1,4.31,1.1,8.043,8.043,0,0,1,3.159,2.729,5.949,5.949,0,0,1,.792,1.8,6.272,6.272,0,0,1,.161.949c0,.144.005.283.005.426v.208c0,.117-.011.16-.016.24a5.465,5.465,0,0,1-1.162,2.895,7.193,7.193,0,0,1-1.751,1.589,8.406,8.406,0,0,1-1.338.693C125.541,245.811,125.37,245.875,125.37,245.875Z" transform="translate(-112.429 -233.07)"/></g><g transform="translate(2.074 1.375)"><path class="e" d="M124.2,246.3l.471-.24a10.682,10.682,0,0,0,1.237-.81,7.169,7.169,0,0,0,1.537-1.653,5.213,5.213,0,0,0,.857-2.687l.005-.176-.016-.208c-.011-.139-.021-.283-.032-.421a5.4,5.4,0,0,0-.187-.773,5.3,5.3,0,0,0-.766-1.525,7.441,7.441,0,0,0-2.9-2.308,9.9,9.9,0,0,0-3.914-.9c-.305-.016-.712.005-1.055.016-.337.043-.669.053-1.017.128a9.334,9.334,0,0,0-2,.57,8.345,8.345,0,0,0-1.8,1,6.606,6.606,0,0,0-1.408,1.429,4.944,4.944,0,0,0-.8,1.759,4.894,4.894,0,0,0-.128.917l.016.522c.005.171.048.3.064.453a5.667,5.667,0,0,0,1.81,3.113,8.557,8.557,0,0,0,2.912,1.738,10.793,10.793,0,0,0,2.864.608,10.386,10.386,0,0,0,2.286-.069,11.456,11.456,0,0,0,1.451-.3c.343-.117.514-.181.514-.181s-.166.08-.487.213a8.7,8.7,0,0,1-1.435.453,10.221,10.221,0,0,1-2.334.261,10.116,10.116,0,0,1-3.046-.426,8.75,8.75,0,0,1-3.25-1.722,6.3,6.3,0,0,1-2.206-3.55,5.714,5.714,0,0,1-.091-.57l-.027-.522a5.425,5.425,0,0,1,.123-1.167,5.542,5.542,0,0,1,.926-2.132,7.561,7.561,0,0,1,1.622-1.679,9.523,9.523,0,0,1,2.029-1.151,10.2,10.2,0,0,1,2.233-.613c.375-.08.776-.091,1.162-.133.385-.011.7-.027,1.124-.005a10.6,10.6,0,0,1,4.288,1.088,8.013,8.013,0,0,1,3.143,2.7,5.864,5.864,0,0,1,.792,1.781,6.244,6.244,0,0,1,.161.938c0,.144.005.283.005.426l.005.208c0,.112-.011.155-.016.24a5.417,5.417,0,0,1-1.146,2.879,7.216,7.216,0,0,1-1.74,1.594,8.283,8.283,0,0,1-1.333.7C124.373,246.233,124.2,246.3,124.2,246.3Z" transform="translate(-111.32 -233.54)"/></g><path class="h" d="M113.988,262.183c-2.666-1.567-2.243-3.326.669-1.541a11.285,11.285,0,0,0,7.244,1.274s-1.622-.053-1.6.976,1.708.954,1.708.954S117.039,264.235,113.988,262.183Z" transform="translate(-109.66 -244.469)"/></g><g transform="translate(4.573 0)"><g transform="translate(1.124 2.682)"><g transform="translate(0 1.199)"><path class="d" d="M132.266,228.97c-5.68-1.919-11.495.075-12.983,4.446,0,0-.61,1.669-.846,2.356-1.488,4.371,1.911,9.473,7.592,11.387s11.495-.075,12.983-4.446c.086-.251.5-1.381.712-2.031.043-.107.1-.213.134-.325C141.346,235.986,137.946,230.884,132.266,228.97Z" transform="translate(-118.087 -228.24)"/></g><path class="d" d="M132.266,226.72c-5.68-1.919-11.495.075-12.983,4.446,0,0-.61,1.669-.846,2.356-1.488,4.371,1.911,9.473,7.592,11.387s11.495-.075,12.983-4.446c.086-.251.5-1.381.712-2.031.043-.107.1-.213.134-.325C141.346,233.736,137.946,228.634,132.266,226.72Z" transform="translate(-118.087 -225.99)"/><path class="e" d="M132.266,226.72c-5.68-1.919-11.495.075-12.983,4.446,0,0-.61,1.669-.846,2.356-1.488,4.371,1.911,9.473,7.592,11.387s11.495-.075,12.983-4.446c.086-.251.5-1.381.712-2.031.043-.107.1-.213.134-.325C141.346,233.736,137.946,228.634,132.266,226.72Z" transform="translate(-118.087 -225.99)"/></g><path class="f" d="M8.206,0c4.542.006,8.23,4.776,8.238,10.655s-3.668,10.639-8.21,10.633S0,16.509,0,10.631,3.664-.009,8.206,0Z" transform="matrix(0.321, -0.947, 0.947, 0.321, 0, 15.579)"/><g transform="translate(2.286 2.746)"><path class="g" d="M128.322,226.11c-3.641.224-6.7,2.079-7.72,5.064-1.462,4.3,1.868,9.308,7.437,11.19.1.032.187.053.284.085Z" transform="translate(-120.257 -226.11)"/></g><g transform="translate(4.618 3.832)"><path class="g" d="M135.432,242.116l.519-.091a10.069,10.069,0,0,0,1.419-.416,6.848,6.848,0,0,0,1.949-1.125,5.209,5.209,0,0,0,1.606-2.3l.054-.16.048-.2c.032-.139.064-.272.1-.416a6.159,6.159,0,0,0,.048-.784,5.385,5.385,0,0,0-.273-1.669,7.387,7.387,0,0,0-2.061-3.039,9.937,9.937,0,0,0-3.443-2.01c-.278-.1-.68-.208-1.007-.3-.332-.059-.648-.149-1-.181a9.246,9.246,0,0,0-2.067-.053,8.73,8.73,0,0,0-2,.41,6.588,6.588,0,0,0-1.756.933,4.891,4.891,0,0,0-1.28,1.418,5.442,5.442,0,0,0-.4.821l-.145.5c-.048.165-.043.293-.075.442a5.661,5.661,0,0,0,.771,3.476,8.473,8.473,0,0,0,2.233,2.521,10.952,10.952,0,0,0,2.538,1.445,10.218,10.218,0,0,0,2.2.624,11.783,11.783,0,0,0,1.478.155c.359.011.546,0,.546,0s-.182.027-.525.064a9,9,0,0,1-1.5.011,10.635,10.635,0,0,1-2.313-.437,10.123,10.123,0,0,1-2.789-1.306,8.687,8.687,0,0,1-2.6-2.617,6.354,6.354,0,0,1-1.055-4.078,5.7,5.7,0,0,1,.086-.576l.129-.506c.07-.24.145-.379.214-.57a3.18,3.18,0,0,1,.262-.522,5.633,5.633,0,0,1,1.537-1.775,7.669,7.669,0,0,1,2.072-1.13,9.451,9.451,0,0,1,2.3-.5,10.615,10.615,0,0,1,2.329.08,11.326,11.326,0,0,1,1.156.224c.375.107.675.187,1.076.331a10.545,10.545,0,0,1,3.78,2.34,8.035,8.035,0,0,1,2.19,3.545,5.972,5.972,0,0,1,.214,1.951,6.228,6.228,0,0,1-.134.949c-.043.139-.086.272-.123.405l-.059.2a2.122,2.122,0,0,1-.091.224,5.451,5.451,0,0,1-1.981,2.41,7.361,7.361,0,0,1-2.147,1,7.874,7.874,0,0,1-1.488.256C135.614,242.11,135.432,242.116,135.432,242.116Z" transform="translate(-124.614 -228.147)"/></g><g transform="translate(3.98 3.896)"><path class="e" d="M134.188,242.172l.519-.091a10.723,10.723,0,0,0,1.424-.405,6.9,6.9,0,0,0,1.965-1.119,5.231,5.231,0,0,0,1.628-2.308l.059-.165.048-.2c.032-.139.064-.272.1-.416a5.579,5.579,0,0,0-.214-2.479,7.483,7.483,0,0,0-2.067-3.065,9.972,9.972,0,0,0-3.459-2.031c-.284-.107-.685-.208-1.012-.3-.332-.059-.653-.149-1.007-.181a9.343,9.343,0,0,0-2.077-.053,8.6,8.6,0,0,0-2.018.416,6.563,6.563,0,0,0-1.772.944,5.025,5.025,0,0,0-1.3,1.439,4.528,4.528,0,0,0-.4.837l-.145.5a3.717,3.717,0,0,0-.075.448,5.662,5.662,0,0,0,.787,3.508,8.491,8.491,0,0,0,2.254,2.527,10.865,10.865,0,0,0,2.548,1.434,10.25,10.25,0,0,0,2.2.613,10.661,10.661,0,0,0,1.478.144c.348.016.53.005.53.005s-.182.027-.525.059a9.1,9.1,0,0,1-1.5.005,10.908,10.908,0,0,1-5.086-1.759,8.67,8.67,0,0,1-2.581-2.612,6.3,6.3,0,0,1-1.039-4.046c.027-.187.043-.4.086-.57l.128-.506a5.465,5.465,0,0,1,.471-1.077,5.534,5.534,0,0,1,1.526-1.759,7.546,7.546,0,0,1,2.056-1.119A9.567,9.567,0,0,1,130,228.3a10.469,10.469,0,0,1,2.313.08c.38.037.766.144,1.146.219.369.107.68.187,1.071.331a10.435,10.435,0,0,1,3.758,2.319,7.959,7.959,0,0,1,2.184,3.518,5.884,5.884,0,0,1,.219,1.935,6.246,6.246,0,0,1-.128.944c-.043.139-.08.272-.123.405l-.059.2c-.037.107-.059.144-.091.224a5.49,5.49,0,0,1-1.96,2.4,7.284,7.284,0,0,1-2.136,1,8.6,8.6,0,0,1-1.483.267C134.375,242.161,134.188,242.172,134.188,242.172Z" transform="translate(-123.423 -228.267)"/></g><path class="h" d="M121.592,252.529c-2.067-2.292-1.135-3.844,1.1-1.269a11.849,11.849,0,0,0,5.713,3.263s-.91-.027-.91.832,1.247,1.162,1.247,1.162S123.883,255.4,121.592,252.529Z" transform="translate(-118.057 -234.484)"/></g></g></g></g></svg>