<svg xmlns="http://www.w3.org/2000/svg" xmlns:xlink="http://www.w3.org/1999/xlink" width="263" height="64.5" viewBox="0 0 263 64.5"><defs><style>.a{fill:url(#a);}.b{stroke:#5c45cf;fill:url(#d);}.c,.e{fill:none;}.c{stroke:#fff;stroke-linecap:round;stroke-width:12px;}.d{stroke:none;}.f{filter:url(#h);}.g{filter:url(#e);}.h{filter:url(#b);}</style><linearGradient id="a" x1="0.5" x2="0.5" y2="1" gradientUnits="objectBoundingBox"><stop offset="0" stop-color="#5c45cf"/><stop offset="1" stop-color="#4332bc"/></linearGradient><filter id="b" x="0" y="16.5" width="263" height="48" filterUnits="userSpaceOnUse"><feOffset dy="4" input="SourceAlpha"/><feGaussianBlur result="c"/><feFlood flood-color="#2d17b1"/><feComposite operator="in" in2="c"/><feComposite in="SourceGraphic"/></filter><radialGradient id="d" cx="0.5" cy="0.5" r="0.5" gradientUnits="objectBoundingBox"><stop offset="0" stop-color="#2d17b1"/><stop offset="1" stop-color="#4332bc"/></radialGradient><filter id="e" x="36.5" y="0" width="30" height="58" filterUnits="userSpaceOnUse"><feOffset dy="3" input="SourceAlpha"/><feGaussianBlur stdDeviation="3" result="f"/><feFlood flood-opacity="0.38"/><feComposite operator="in" in2="f"/><feComposite in="SourceGraphic"/></filter><filter id="h" x="197.5" y="0" width="30" height="58" filterUnits="userSpaceOnUse"><feOffset dy="3" input="SourceAlpha"/><feGaussianBlur stdDeviation="3" result="i"/><feFlood flood-opacity="0.38"/><feComposite operator="in" in2="i"/><feComposite in="SourceGraphic"/></filter></defs><g transform="translate(-49 -188.5)"><g class="h" transform="matrix(1, 0, 0, 1, 49, 188.5)"><path class="a" d="M10,0H253a10,10,0,0,1,10,10V44a0,0,0,0,1,0,0H0a0,0,0,0,1,0,0V10A10,10,0,0,1,10,0Z" transform="translate(0 16.5)"/></g><g transform="translate(91 200.5)"><g class="b" transform="translate(0 18.5)"><circle class="d" cx="9.5" cy="9.5" r="9.5"/><circle class="e" cx="9.5" cy="9.5" r="9"/></g><g class="g" transform="matrix(1, 0, 0, 1, -42, -12)"><line class="c" y1="28" transform="translate(51.5 12)"/></g></g><g transform="translate(252 200.5)"><g class="b" transform="translate(0 18.5)"><circle class="d" cx="9.5" cy="9.5" r="9.5"/><circle class="e" cx="9.5" cy="9.5" r="9"/></g><g class="f" transform="matrix(1, 0, 0, 1, -203, -12)"><line class="c" y1="28" transform="translate(212.5 12)"/></g></g></g></svg>