<svg xmlns="http://www.w3.org/2000/svg" width="152.093" height="105.694" viewBox="0 0 152.093 105.694">
  <g id="Group_13767" data-name="Group 13767" transform="translate(27.174 27.174)">
    <path id="Path_32081" data-name="Path 32081" d="M526.816,163.426v-2.744a5.987,5.987,0,0,1-5.988-5.987H436.349a5.987,5.987,0,0,1-5.988,5.987v2.744a1.33,1.33,0,1,1,0,2.66v2.328a1.331,1.331,0,1,1,0,2.661V173.4a1.33,1.33,0,1,1,0,2.66v2.328a1.33,1.33,0,1,1,0,2.66v2.329a1.33,1.33,0,1,1,0,2.661v2.329a1.33,1.33,0,1,1,0,2.661v2.328a1.33,1.33,0,1,1,0,2.66v2.744a5.987,5.987,0,0,1,5.988,5.987h84.479a5.987,5.987,0,0,1,5.988-5.987V196.02a1.33,1.33,0,1,1,0-2.66v-2.328a1.33,1.33,0,1,1,0-2.661v-2.329a1.33,1.33,0,1,1,0-2.661v-2.329a1.33,1.33,0,1,1,0-2.66v-2.328a1.33,1.33,0,1,1,0-2.66v-2.328a1.331,1.331,0,0,1,0-2.661v-2.328a1.33,1.33,0,1,1,0-2.66Z" transform="translate(-429.716 -154.05)" fill="#898679"/>
    <g id="Group_13766" data-name="Group 13766" transform="translate(0 0)">
      <path id="Path_32082" data-name="Path 32082" d="M524.816,161.426v-2.744a5.987,5.987,0,0,1-5.988-5.987H434.349a5.987,5.987,0,0,1-5.988,5.987v2.744a1.33,1.33,0,1,1,0,2.66v2.328a1.331,1.331,0,1,1,0,2.661V171.4a1.33,1.33,0,1,1,0,2.66v2.328a1.33,1.33,0,1,1,0,2.66v2.329a1.33,1.33,0,1,1,0,2.661v2.329a1.33,1.33,0,1,1,0,2.661v2.328a1.33,1.33,0,1,1,0,2.66v2.744a5.987,5.987,0,0,1,5.988,5.987h84.479a5.987,5.987,0,0,1,5.988-5.987V194.02a1.33,1.33,0,1,1,0-2.66v-2.328a1.33,1.33,0,1,1,0-2.661v-2.329a1.33,1.33,0,1,1,0-2.661v-2.329a1.33,1.33,0,1,1,0-2.66v-2.328a1.33,1.33,0,1,1,0-2.66v-2.328a1.331,1.331,0,0,1,0-2.661v-2.328a1.33,1.33,0,1,1,0-2.66Z" transform="translate(-428.361 -152.695)" fill="#76cebd"/>
      <g id="Group_13759" data-name="Group 13759" transform="translate(6.076 4.034)">
        <path id="Path_32083" data-name="Path 32083" d="M531.5,207.19H447.2V165.2h84.3Zm-83.429-.875h82.554V166.077H448.073Z" transform="translate(-447.199 -165.202)" fill="#41bfa7"/>
      </g>
      <rect id="Rectangle_1466" data-name="Rectangle 1466" width="72.181" height="9.096" transform="translate(12.137 34.08)" fill="#41bfa7"/>
      <g id="Group_13765" data-name="Group 13765" transform="translate(16.828 34.536)">
        <text id="_1_milion" data-name="1 milion" transform="translate(31.529 7)" fill="#c3ead9" font-size="7" font-family="BebasNeue-Regular, Bebas Neue"><tspan x="-9" y="0">1 milion</tspan></text>
        <g id="Group_13764" data-name="Group 13764" transform="translate(0 2.307)">
          <g id="Group_13762" data-name="Group 13762">
            <path id="Path_32086" data-name="Path 32086" d="M517.661,266.914l.58,1.175,1.3.189-.938.914.221,1.292-1.16-.61-1.16.61.221-1.292-.939-.914,1.3-.189Z" transform="translate(-504.412 -266.914)" fill="#c3ead9"/>
            <path id="Path_32087" data-name="Path 32087" d="M500.034,266.914l.58,1.175,1.3.189-.939.914.222,1.292-1.159-.61-1.16.61.221-1.292-.939-.914,1.3-.189Z" transform="translate(-492.47 -266.914)" fill="#c3ead9"/>
            <path id="Path_32088" data-name="Path 32088" d="M482.407,266.914l.58,1.175,1.3.189-.939.914.222,1.292-1.159-.61-1.16.61.221-1.292-.938-.914,1.3-.189Z" transform="translate(-480.529 -266.914)" fill="#c3ead9"/>
          </g>
          <g id="Group_13763" data-name="Group 13763" transform="translate(47.673)">
            <path id="Path_32089" data-name="Path 32089" d="M665.455,266.914l.581,1.175,1.3.189-.939.914.222,1.292-1.161-.61-1.159.61.221-1.292-.939-.914,1.3-.189Z" transform="translate(-652.206 -266.914)" fill="#c3ead9"/>
            <path id="Path_32090" data-name="Path 32090" d="M647.83,266.914l.581,1.175,1.3.189-.938.914.222,1.292-1.161-.61-1.159.61.22-1.292-.938-.914,1.3-.189Z" transform="translate(-640.267 -266.914)" fill="#c3ead9"/>
            <path id="Path_32091" data-name="Path 32091" d="M630.2,266.914l.58,1.175,1.3.189-.939.914.222,1.292-1.16-.61-1.16.61.221-1.292-.939-.914,1.3-.189Z" transform="translate(-628.324 -266.914)" fill="#c3ead9"/>
          </g>
        </g>
      </g>
    </g>
    <text id="_1_میلیون_تومان" data-name="1 میلیون تومان" transform="translate(48.678 21.206)" fill="#e3e9fd" font-size="14" font-family="YekanBakhFaNum-Heavy, Yekan Bakh FaNum" font-weight="800"><tspan x="-36" y="0">1 </tspan><tspan y="0">میلیون تومان</tspan></text>
  </g>
</svg>
