<svg xmlns="http://www.w3.org/2000/svg" xmlns:xlink="http://www.w3.org/1999/xlink" width="90" height="90" viewBox="0 0 90 90"><defs><style>.a{fill:rgba(210,210,210,0.5);}.b{fill:url(#a);}.c{fill:none;stroke:#154900;stroke-linecap:round;stroke-linejoin:round;stroke-width:2px;}.d,.i{fill:#1d801b;}.e,.f{fill:#5cae39;}.e,.h,.i,.j{opacity:0.5;}.g,.h,.l{fill:#b2d180;}.g{opacity:0.3;}.j,.m{fill:#154900;}.k{opacity:0.2;}.n{filter:url(#b);}</style><radialGradient id="a" cx="0.5" cy="0.5" r="0.5" gradientUnits="objectBoundingBox"><stop offset="0" stop-color="#d2d2d2"/><stop offset="0.724" stop-color="#d2d2d2"/><stop offset="1" stop-color="#fff"/></radialGradient><filter id="b" x="3.5" y="3.5" width="83" height="83" filterUnits="userSpaceOnUse"><feOffset input="SourceAlpha"/><feGaussianBlur stdDeviation="1.5" result="c"/><feFlood flood-color="#515151"/><feComposite operator="in" in2="c"/><feComposite in="SourceGraphic"/></filter></defs><g transform="translate(-82 -357)"><g transform="translate(-142 -63)"><circle class="a" cx="45" cy="45" r="45" transform="translate(224 420)"/><g class="n" transform="matrix(1, 0, 0, 1, 224, 420)"><circle class="b" cx="37" cy="37" r="37" transform="translate(8 8)"/></g></g><g transform="translate(30 -87)"><g transform="translate(85 467)"><g transform="translate(0 0.818)"><g transform="translate(2.763)"><path class="c" d="M299.263,1163.595l-.056.057c-.193-1.964-.852-3.085-1.632-2.561a41.443,41.443,0,0,0-4.679,4.148c-1.64,1.661-1.463,4.6.394,6.521l1.568,1.62-.675-.131-.82-.156-.788-.147.482.655h0l2.966,3.992h0l.482.655,1.383-1.235c.33-.294.788-.671,1.021-.834v-1.35a3.881,3.881,0,0,0,.354-1.8v-5.179l10.555,8.926,1.5,4.271S313.8,1165.894,299.263,1163.595Z" transform="translate(-291.773 -1160.963)"/><path class="c" d="M299.263,1163.595l-.056.057c-.193-1.964-.852-3.085-1.632-2.561a41.443,41.443,0,0,0-4.679,4.148c-1.64,1.661-1.463,4.6.394,6.521l1.568,1.62-.675-.131-.82-.156-.788-.147.482.655h0l2.966,3.992h0l.482.655,1.383-1.235c.33-.294.788-.671,1.021-.834v-1.35a3.881,3.881,0,0,0,.354-1.8v-5.179l10.555,8.926,1.5,4.271S313.8,1165.894,299.263,1163.595Z" transform="translate(-291.773 -1160.963)"/><path class="c" d="M299.263,1163.595l-.056.057c-.193-1.964-.852-3.085-1.632-2.561a41.443,41.443,0,0,0-4.679,4.148c-1.64,1.661-1.463,4.6.394,6.521l1.568,1.62-.675-.131-.82-.156-.788-.147.482.655h0l2.966,3.992h0l.482.655,1.383-1.235c.33-.294.788-.671,1.021-.834v-1.35a3.881,3.881,0,0,0,.354-1.8v-5.179l10.555,8.926,1.5,4.271S313.8,1165.894,299.263,1163.595Z" transform="translate(-291.773 -1160.963)"/></g><g transform="translate(10.817 3.178)"><path class="c" d="M302.53,1166.985s-1.093-1.137-.619-1.735,1.64-.392,2.1-.253a9.7,9.7,0,0,1,4.285,2.438.973.973,0,0,1-1.029,1.636A16.9,16.9,0,0,0,302.53,1166.985Z" transform="translate(-301.792 -1164.847)"/><path class="c" d="M302.53,1166.985s-1.093-1.137-.619-1.735,1.64-.392,2.1-.253a9.7,9.7,0,0,1,4.285,2.438.973.973,0,0,1-1.029,1.636A16.9,16.9,0,0,0,302.53,1166.985Z" transform="translate(-301.792 -1164.847)"/></g><path class="c" d="M304.554,1166.439c-.41-.2-.82-.655-.555-.99s.916-.221,1.174-.147a5.457,5.457,0,0,1,2.4,1.366.545.545,0,0,1-.579.916C306.765,1167.38,304.964,1166.636,304.554,1166.439Z" transform="translate(-291.391 -1161.737)"/><g transform="translate(0 1.736)"><path class="c" d="M310.647,1181.432s-.008-14.842-14.285-15.512v-1.137c0-1.8-1.029-2.242-2.291-.974l-4.783,4.786a3.283,3.283,0,0,0-.016,4.606l4.807,4.876c1.254,1.268,2.275.834,2.275-.966v-1.6C309.361,1175.591,310.647,1181.432,310.647,1181.432Z" transform="translate(-288.336 -1163.084)"/><path class="c" d="M310.647,1181.432s-.008-14.842-14.285-15.512v-1.137c0-1.8-1.029-2.242-2.291-.974l-4.783,4.786a3.283,3.283,0,0,0-.016,4.606l4.807,4.876c1.254,1.268,2.275.834,2.275-.966v-1.6C309.361,1175.591,310.647,1181.432,310.647,1181.432Z" transform="translate(-288.336 -1163.084)"/><path class="c" d="M310.647,1181.432s-.008-14.842-14.285-15.512v-1.137c0-1.8-1.029-2.242-2.291-.974l-4.783,4.786a3.283,3.283,0,0,0-.016,4.606l4.807,4.876c1.254,1.268,2.275.834,2.275-.966v-1.6C309.361,1175.591,310.647,1181.432,310.647,1181.432Z" transform="translate(-288.336 -1163.084)"/></g></g><g transform="translate(2.763)"><path class="c" d="M299.263,1162.595l-.056.057c-.193-1.964-.852-3.085-1.632-2.561a41.472,41.472,0,0,0-4.679,4.148c-1.64,1.661-1.463,4.6.394,6.521l1.568,1.62-.675-.131-.82-.156-.788-.147.482.655h0l2.966,3.993h0l.482.655,1.383-1.236c.33-.295.788-.671,1.021-.834v-1.35a3.882,3.882,0,0,0,.354-1.8v-5.179l10.555,8.926,1.5,4.271S313.8,1164.894,299.263,1162.595Z" transform="translate(-291.773 -1159.963)"/><path class="c" d="M299.263,1162.595l-.056.057c-.193-1.964-.852-3.085-1.632-2.561a41.472,41.472,0,0,0-4.679,4.148c-1.64,1.661-1.463,4.6.394,6.521l1.568,1.62-.675-.131-.82-.156-.788-.147.482.655h0l2.966,3.993h0l.482.655,1.383-1.236c.33-.295.788-.671,1.021-.834v-1.35a3.882,3.882,0,0,0,.354-1.8v-5.179l10.555,8.926,1.5,4.271S313.8,1164.894,299.263,1162.595Z" transform="translate(-291.773 -1159.963)"/><path class="c" d="M299.263,1162.595l-.056.057c-.193-1.964-.852-3.085-1.632-2.561a41.472,41.472,0,0,0-4.679,4.148c-1.64,1.661-1.463,4.6.394,6.521l1.568,1.62-.675-.131-.82-.156-.788-.147.482.655h0l2.966,3.993h0l.482.655,1.383-1.236c.33-.295.788-.671,1.021-.834v-1.35a3.882,3.882,0,0,0,.354-1.8v-5.179l10.555,8.926,1.5,4.271S313.8,1164.894,299.263,1162.595Z" transform="translate(-291.773 -1159.963)"/></g><g transform="translate(10.817 3.178)"><path class="c" d="M302.53,1165.985s-1.093-1.137-.619-1.735,1.64-.393,2.1-.254a9.7,9.7,0,0,1,4.285,2.438.973.973,0,0,1-1.029,1.637A16.892,16.892,0,0,0,302.53,1165.985Z" transform="translate(-301.792 -1163.847)"/><path class="c" d="M302.53,1165.985s-1.093-1.137-.619-1.735,1.64-.393,2.1-.254a9.7,9.7,0,0,1,4.285,2.438.973.973,0,0,1-1.029,1.637A16.892,16.892,0,0,0,302.53,1165.985Z" transform="translate(-301.792 -1163.847)"/></g><path class="c" d="M304.554,1165.44c-.41-.2-.82-.655-.555-.99s.916-.221,1.174-.147a5.462,5.462,0,0,1,2.4,1.367.545.545,0,0,1-.579.916C306.765,1166.381,304.964,1165.636,304.554,1165.44Z" transform="translate(-291.391 -1160.737)"/><g transform="translate(0 1.736)"><path class="c" d="M310.647,1180.432s-.008-14.842-14.285-15.513v-1.137c0-1.8-1.029-2.242-2.291-.973l-4.783,4.786a3.283,3.283,0,0,0-.016,4.606l4.807,4.876c1.254,1.268,2.275.834,2.275-.966v-1.6C309.361,1174.591,310.647,1180.432,310.647,1180.432Z" transform="translate(-288.336 -1162.085)"/><path class="c" d="M310.647,1180.432s-.008-14.842-14.285-15.513v-1.137c0-1.8-1.029-2.242-2.291-.973l-4.783,4.786a3.283,3.283,0,0,0-.016,4.606l4.807,4.876c1.254,1.268,2.275.834,2.275-.966v-1.6C309.361,1174.591,310.647,1180.432,310.647,1180.432Z" transform="translate(-288.336 -1162.085)"/><path class="c" d="M310.647,1180.432s-.008-14.842-14.285-15.513v-1.137c0-1.8-1.029-2.242-2.291-.973l-4.783,4.786a3.283,3.283,0,0,0-.016,4.606l4.807,4.876c1.254,1.268,2.275.834,2.275-.966v-1.6C309.361,1174.591,310.647,1180.432,310.647,1180.432Z" transform="translate(-288.336 -1162.085)"/></g><g transform="translate(2.763)"><path class="d" d="M299.263,1162.595l-.056.057c-.193-1.964-.852-3.085-1.632-2.561a41.472,41.472,0,0,0-4.679,4.148c-1.64,1.661-1.463,4.6.394,6.521l1.568,1.62-.675-.131-.82-.156-.788-.147.482.655h0l2.966,3.993h0l.482.655,1.383-1.236c.33-.295.788-.671,1.021-.834v-1.35a3.882,3.882,0,0,0,.354-1.8v-5.179l10.555,8.926,1.5,4.271S313.8,1164.894,299.263,1162.595Z" transform="translate(-291.773 -1159.963)"/></g><g transform="translate(10.817 3.178)"><path class="e" d="M302.53,1165.985s-1.093-1.137-.619-1.735,1.64-.393,2.1-.254a9.7,9.7,0,0,1,4.285,2.438.973.973,0,0,1-1.029,1.637A16.892,16.892,0,0,0,302.53,1165.985Z" transform="translate(-301.792 -1163.847)"/></g><path class="f" d="M304.554,1165.44c-.41-.2-.82-.655-.555-.99s.916-.221,1.174-.147a5.462,5.462,0,0,1,2.4,1.367.545.545,0,0,1-.579.916C306.765,1166.381,304.964,1165.636,304.554,1165.44Z" transform="translate(-291.391 -1160.737)"/><g transform="translate(0 1.736)"><path class="f" d="M310.647,1180.432s-.008-14.842-14.285-15.513v-1.137c0-1.8-1.029-2.242-2.291-.973l-4.783,4.786a3.283,3.283,0,0,0-.016,4.606l4.807,4.876c1.254,1.268,2.275.834,2.275-.966v-1.6C309.361,1174.591,310.647,1180.432,310.647,1180.432Z" transform="translate(-288.336 -1162.085)"/></g><g transform="translate(7.953 4.563)"><path class="g" d="M298.23,1165.557l.016-.017c14.349.622,14.349,15.521,14.349,15.521a2.8,2.8,0,0,0-.177-.483c-.571-3.976-3.079-13.14-13.336-14.064C298.994,1165.875,298.769,1165.917,298.23,1165.557Z" transform="translate(-298.23 -1165.54)"/></g><g transform="translate(7.945 4.563)"><path class="g" d="M298.236,1165.54a14.959,14.959,0,0,1,7.613,2.234,5.959,5.959,0,0,1,.651,1.055,4.5,4.5,0,0,1,.3.737,13.722,13.722,0,0,0-7.725-3.044c-.08-.638-.313-.6-.852-.957Z" transform="translate(-298.22 -1165.54)"/></g><g transform="translate(1.177 1.758)"><path class="h" d="M296.585,1163.1c0-1.424-1.278-1.293-2.854.286l-2.789,2.8c-1.576,1.579-1.511,1.653.145.164l1.7-1.53c1.656-1.489,3.183-1.906,3.4-.925S296.577,1164.516,296.585,1163.1Z" transform="translate(-289.801 -1162.112)"/></g><g transform="translate(15.229 8.58)"><path class="i" d="M308.582,1170.45a6.067,6.067,0,0,1,1.021,3.731c-.289,1.841-1.72,2.806-2.323,2.667l7.09,5.105C314.362,1181.953,313.51,1173.952,308.582,1170.45Z" transform="translate(-307.28 -1170.45)"/></g><g transform="translate(7.953 0.511)"><path class="j" d="M298.23,1163.96c0,.45.273.573.6.278l1.1-.99a2.089,2.089,0,0,0,.6-1.358v-.834c0-.45-.289-.605-.651-.336l-1,.736a1.807,1.807,0,0,0-.651,1.3v1.2Z" transform="translate(-298.23 -1160.587)"/></g><g transform="translate(8.026 14.201)"><path class="j" d="M298.336,1179.586c0,.45.257.548.555.229l1.182-1.26a2.023,2.023,0,0,0,.555-.916c0-.18-.362-.319-.8-.319h-.7a.814.814,0,0,0-.8.818Z" transform="translate(-298.32 -1177.32)"/></g><g transform="translate(19.039 9.194)"><path class="j" d="M313.451,1171.2s.474,1.865-1.431.867c0,0,2.918,2.929,3.272,10.022A18.641,18.641,0,0,0,313.451,1171.2Z" transform="translate(-312.02 -1171.2)"/></g><g transform="translate(0.598 2.526)"><g class="k" transform="translate(0 0)"><path class="l" d="M299.466,1165.488a18.132,18.132,0,0,0-3.055-.393c-.185-2.275-1.648-2.733-3.417-.965l-2.492,2.5a4.93,4.93,0,0,0-.024,6.905l.032.033c.257.025.506.041.772.041A8.25,8.25,0,0,0,299.466,1165.488Z" transform="translate(-289.08 -1163.05)"/></g></g><path class="m" d="M316.769,1183.984a7.759,7.759,0,0,1-2.54,6.5s.86-3.845-3.079-7.871l3.77,2.152Z" transform="translate(-292.81 -1164.081)"/></g><g transform="translate(85 484.6)"><g transform="translate(1.527 5.498)"><g transform="translate(0.003)"><g transform="translate(0)"><path class="c" d="M303.991,1178.414l.056-.057c.193,1.964.852,3.084,1.632,2.561a41.4,41.4,0,0,0,4.679-4.148c1.64-1.661,1.463-4.6-.394-6.521l-1.568-1.62.675.131.82.155.788.147-.482-.655h0l-2.966-3.992h0l-.482-.655L305.366,1165c-.33.294-.788.671-1.021.835v1.35a3.882,3.882,0,0,0-.354,1.8v5.179l-10.555-8.926-1.5-4.271S289.457,1176.115,303.991,1178.414Z" transform="translate(-291.773 -1160.963)"/><path class="c" d="M303.991,1178.414l.056-.057c.193,1.964.852,3.084,1.632,2.561a41.4,41.4,0,0,0,4.679-4.148c1.64-1.661,1.463-4.6-.394-6.521l-1.568-1.62.675.131.82.155.788.147-.482-.655h0l-2.966-3.992h0l-.482-.655L305.366,1165c-.33.294-.788.671-1.021.835v1.35a3.882,3.882,0,0,0-.354,1.8v5.179l-10.555-8.926-1.5-4.271S289.457,1176.115,303.991,1178.414Z" transform="translate(-291.773 -1160.963)"/><path class="c" d="M303.991,1178.414l.056-.057c.193,1.964.852,3.084,1.632,2.561a41.4,41.4,0,0,0,4.679-4.148c1.64-1.661,1.463-4.6-.394-6.521l-1.568-1.62.675.131.82.155.788.147-.482-.655h0l-2.966-3.992h0l-.482-.655L305.366,1165c-.33.294-.788.671-1.021.835v1.35a3.882,3.882,0,0,0-.354,1.8v5.179l-10.555-8.926-1.5-4.271S289.457,1176.115,303.991,1178.414Z" transform="translate(-291.773 -1160.963)"/><g transform="translate(4.776 12.576)"><path class="c" d="M307.931,1167.04s1.093,1.137.619,1.734-1.64.392-2.1.253a9.7,9.7,0,0,1-4.285-2.438.973.973,0,0,1,1.029-1.636A16.9,16.9,0,0,0,307.931,1167.04Z" transform="translate(-301.792 -1164.847)"/><path class="c" d="M307.931,1167.04s1.093,1.137.619,1.734-1.64.392-2.1.253a9.7,9.7,0,0,1-4.285-2.438.973.973,0,0,1,1.029-1.636A16.9,16.9,0,0,0,307.931,1167.04Z" transform="translate(-301.792 -1164.847)"/></g><path class="c" d="M307.149,1166.426c.41.2.82.654.555.99s-.916.221-1.174.147a5.462,5.462,0,0,1-2.4-1.366.545.545,0,0,1,.579-.916C304.938,1165.485,306.739,1166.23,307.149,1166.426Z" transform="translate(-297.841 -1151.045)"/><g transform="translate(0.16 0)"><path class="c" d="M288.336,1163.084s.008,14.842,14.285,15.512v1.137c0,1.8,1.029,2.242,2.291.974l4.783-4.786a3.283,3.283,0,0,0,.016-4.606l-4.807-4.876c-1.254-1.268-2.275-.835-2.275.965v1.6C289.622,1168.926,288.336,1163.084,288.336,1163.084Z" transform="translate(-288.336 -1163.084)"/><path class="c" d="M288.336,1163.084s.008,14.842,14.285,15.512v1.137c0,1.8,1.029,2.242,2.291.974l4.783-4.786a3.283,3.283,0,0,0,.016-4.606l-4.807-4.876c-1.254-1.268-2.275-.835-2.275.965v1.6C289.622,1168.926,288.336,1163.084,288.336,1163.084Z" transform="translate(-288.336 -1163.084)"/><path class="c" d="M288.336,1163.084s.008,14.842,14.285,15.512v1.137c0,1.8,1.029,2.242,2.291.974l4.783-4.786a3.283,3.283,0,0,0,.016-4.606l-4.807-4.876c-1.254-1.268-2.275-.835-2.275.965v1.6C289.622,1168.926,288.336,1163.084,288.336,1163.084Z" transform="translate(-288.336 -1163.084)"/></g><g transform="translate(0 0.818)"><g transform="translate(0 0)"><path class="c" d="M303.991,1177.414l.056-.057c.193,1.964.852,3.085,1.632,2.561a41.457,41.457,0,0,0,4.679-4.148c1.64-1.661,1.463-4.6-.394-6.521l-1.568-1.62.675.131.82.155.788.147-.482-.654h0l-2.966-3.993h0l-.482-.655L305.366,1164c-.33.295-.788.671-1.021.835v1.35a3.882,3.882,0,0,0-.354,1.8v5.179l-10.555-8.926-1.5-4.271S289.457,1175.115,303.991,1177.414Z" transform="translate(-291.773 -1159.963)"/><path class="c" d="M303.991,1177.414l.056-.057c.193,1.964.852,3.085,1.632,2.561a41.457,41.457,0,0,0,4.679-4.148c1.64-1.661,1.463-4.6-.394-6.521l-1.568-1.62.675.131.82.155.788.147-.482-.654h0l-2.966-3.993h0l-.482-.655L305.366,1164c-.33.295-.788.671-1.021.835v1.35a3.882,3.882,0,0,0-.354,1.8v5.179l-10.555-8.926-1.5-4.271S289.457,1175.115,303.991,1177.414Z" transform="translate(-291.773 -1159.963)"/><path class="c" d="M303.991,1177.414l.056-.057c.193,1.964.852,3.085,1.632,2.561a41.457,41.457,0,0,0,4.679-4.148c1.64-1.661,1.463-4.6-.394-6.521l-1.568-1.62.675.131.82.155.788.147-.482-.654h0l-2.966-3.993h0l-.482-.655L305.366,1164c-.33.295-.788.671-1.021.835v1.35a3.882,3.882,0,0,0-.354,1.8v5.179l-10.555-8.926-1.5-4.271S289.457,1175.115,303.991,1177.414Z" transform="translate(-291.773 -1159.963)"/></g><g transform="translate(4.776 12.576)"><path class="c" d="M307.931,1166.04s1.093,1.137.619,1.735-1.64.393-2.1.254a9.7,9.7,0,0,1-4.285-2.438.973.973,0,0,1,1.029-1.636A16.892,16.892,0,0,0,307.931,1166.04Z" transform="translate(-301.792 -1163.847)"/><path class="c" d="M307.931,1166.04s1.093,1.137.619,1.735-1.64.393-2.1.254a9.7,9.7,0,0,1-4.285-2.438.973.973,0,0,1,1.029-1.636A16.892,16.892,0,0,0,307.931,1166.04Z" transform="translate(-301.792 -1163.847)"/></g><path class="c" d="M307.149,1165.427c.41.2.82.654.555.99s-.916.221-1.174.147a5.462,5.462,0,0,1-2.4-1.367.545.545,0,0,1,.579-.916C304.938,1164.486,306.739,1165.23,307.149,1165.427Z" transform="translate(-297.841 -1150.045)"/><g transform="translate(0.16)"><path class="c" d="M288.336,1162.084s.008,14.842,14.285,15.513v1.137c0,1.8,1.029,2.242,2.291.974l4.783-4.786a3.283,3.283,0,0,0,.016-4.606l-4.807-4.876c-1.254-1.268-2.275-.835-2.275.965v1.6C289.622,1167.926,288.336,1162.084,288.336,1162.084Z" transform="translate(-288.336 -1162.084)"/><path class="c" d="M288.336,1162.084s.008,14.842,14.285,15.513v1.137c0,1.8,1.029,2.242,2.291.974l4.783-4.786a3.283,3.283,0,0,0,.016-4.606l-4.807-4.876c-1.254-1.268-2.275-.835-2.275.965v1.6C289.622,1167.926,288.336,1162.084,288.336,1162.084Z" transform="translate(-288.336 -1162.084)"/><path class="c" d="M288.336,1162.084s.008,14.842,14.285,15.513v1.137c0,1.8,1.029,2.242,2.291.974l4.783-4.786a3.283,3.283,0,0,0,.016-4.606l-4.807-4.876c-1.254-1.268-2.275-.835-2.275.965v1.6C289.622,1167.926,288.336,1162.084,288.336,1162.084Z" transform="translate(-288.336 -1162.084)"/></g></g><g transform="translate(0 0.818)"><g transform="translate(0 0)"><path class="d" d="M303.991,1177.414l.056-.057c.193,1.964.852,3.085,1.632,2.561a41.457,41.457,0,0,0,4.679-4.148c1.64-1.661,1.463-4.6-.394-6.521l-1.568-1.62.675.131.82.155.788.147-.482-.654h0l-2.966-3.993h0l-.482-.655L305.366,1164c-.33.295-.788.671-1.021.835v1.35a3.882,3.882,0,0,0-.354,1.8v5.179l-10.555-8.926-1.5-4.271S289.457,1175.115,303.991,1177.414Z" transform="translate(-291.773 -1159.963)"/></g><g transform="translate(4.776 12.576)"><path class="e" d="M307.931,1166.04s1.093,1.137.619,1.735-1.64.393-2.1.254a9.7,9.7,0,0,1-4.285-2.438.973.973,0,0,1,1.029-1.636A16.892,16.892,0,0,0,307.931,1166.04Z" transform="translate(-301.792 -1163.847)"/></g><path class="f" d="M307.149,1165.427c.41.2.82.654.555.99s-.916.221-1.174.147a5.462,5.462,0,0,1-2.4-1.367.545.545,0,0,1,.579-.916C304.938,1164.486,306.739,1165.23,307.149,1165.427Z" transform="translate(-297.841 -1150.045)"/><g transform="translate(0.16)"><path class="f" d="M288.336,1162.084s.008,14.842,14.285,15.513v1.137c0,1.8,1.029,2.242,2.291.974l4.783-4.786a3.283,3.283,0,0,0,.016-4.606l-4.807-4.876c-1.254-1.268-2.275-.835-2.275.965v1.6C289.622,1167.926,288.336,1162.084,288.336,1162.084Z" transform="translate(-288.336 -1162.084)"/></g></g><g transform="translate(0.152 0.818)"><path class="g" d="M312.6,1181.044l-.016.016c-14.349-.622-14.349-15.521-14.349-15.521a2.79,2.79,0,0,0,.177.483c.571,3.976,3.079,13.14,13.336,14.064C311.832,1180.725,312.057,1180.684,312.6,1181.044Z" transform="translate(-298.23 -1165.54)"/></g><g transform="translate(5.941 12.311)"><path class="g" d="M306.788,1169.568a14.959,14.959,0,0,1-7.613-2.234,5.946,5.946,0,0,1-.651-1.055,4.513,4.513,0,0,1-.3-.736,13.724,13.724,0,0,0,7.725,3.044c.08.638.314.6.852.957Z" transform="translate(-298.22 -1165.54)"/></g><g transform="translate(14.509 13.837)"><path class="h" d="M289.8,1166.431c0,1.424,1.278,1.293,2.854-.287l2.789-2.8c1.576-1.579,1.511-1.653-.145-.164l-1.7,1.53c-1.656,1.489-3.183,1.906-3.4.924S289.809,1165.015,289.8,1166.431Z" transform="translate(-289.801 -1162.112)"/></g></g><g transform="translate(0.152 0.818)"><path class="i" d="M313.068,1181.953a6.067,6.067,0,0,1-1.021-3.731c.289-1.841,1.72-2.806,2.323-2.667l-7.09-5.105C307.288,1170.45,308.14,1178.452,313.068,1181.953Z" transform="translate(-307.28 -1170.45)"/></g></g><g transform="translate(12.213 16.58)"><path class="j" d="M300.537,1161.026c0-.45-.273-.573-.6-.278l-1.1.99a2.089,2.089,0,0,0-.6,1.358v.835c0,.45.289.605.651.336l1-.737a1.806,1.806,0,0,0,.651-1.3v-1.2Z" transform="translate(-298.23 -1160.587)"/></g><g transform="translate(12.14 4.019)"><path class="j" d="M300.611,1177.736c0-.45-.257-.548-.555-.229l-1.182,1.26a2.022,2.022,0,0,0-.555.916c0,.18.362.319.8.319h.7a.813.813,0,0,0,.8-.818Z" transform="translate(-298.32 -1177.32)"/></g><g transform="translate(0 0.818)"><path class="j" d="M314.023,1182.09s-.474-1.865,1.431-.867c0,0-2.918-2.929-3.272-10.022A18.641,18.641,0,0,0,314.023,1182.09Z" transform="translate(-312.02 -1171.2)"/></g></g><g transform="translate(13.016 13.32)"><g class="k"><path class="l" d="M289.08,1171.167a18.105,18.105,0,0,0,3.055.393c.185,2.274,1.648,2.733,3.416.965l2.492-2.5a4.93,4.93,0,0,0,.024-6.905l-.032-.033c-.257-.025-.506-.041-.772-.041A8.25,8.25,0,0,0,289.08,1171.167Z" transform="translate(-289.08 -1163.05)"/></g></g><path class="m" d="M311.191,1189.106a7.759,7.759,0,0,1,2.54-6.5s-.86,3.845,3.079,7.871l-3.77-2.152Z" transform="translate(-311.15 -1182.61)"/></g></g></g></svg>