<svg width="94" height="94" viewBox="0 0 94 94" fill="none" xmlns="http://www.w3.org/2000/svg">
<path d="M77.1617 78.871C75.3801 78.4518 74.8173 79.4028 74.6698 81.2815C74.3709 85.0777 72.3525 86.4595 68.7348 85.3338C66.9648 84.7827 66.2195 85.2368 65.6024 86.9214C64.139 90.9272 62.3457 91.556 58.6621 89.4444C57.3656 88.6992 56.4107 88.606 55.6888 90.1004C55.5219 90.4459 55.2579 90.7409 55.0211 91.0514C53.0881 93.5745 51.2094 93.7802 48.7679 91.7424C46.5243 89.8714 46.5243 89.8714 44.3584 91.7268C41.9945 93.753 39.9955 93.5434 38.0857 91.0786C36.2187 88.6642 36.2187 88.6642 33.6297 89.9335C30.8388 91.2998 28.8126 90.5507 27.6598 87.4998C26.4254 84.2237 26.3245 84.8525 23.8287 85.5007C20.7428 86.3004 18.8136 84.8642 18.375 81.5143C18.0296 78.8865 18.0296 78.8865 15.3513 78.8904C12.0868 78.8943 10.4993 77.0932 10.8797 73.821C11.1941 71.1194 11.1941 71.1194 8.69044 70.51C5.34062 69.6949 4.12569 67.4552 5.58129 64.2451C6.41195 62.4169 6.03155 61.5552 4.28483 60.6702C0.771993 58.8963 0.32561 56.8352 2.71667 53.695C3.83069 52.2316 3.6793 51.366 2.26252 50.2248C-0.76512 47.7872 -0.757356 45.3534 2.30522 42.8925C3.76858 41.7164 3.74917 40.8275 2.67397 39.4107C0.348899 36.3481 0.787518 34.256 4.1645 32.5481C5.94227 31.6475 6.4857 30.8285 5.558 28.8528C4.05582 25.6427 5.37944 23.2866 8.94663 22.6461C10.8641 22.3007 11.3416 21.5593 10.9728 19.6534C10.2819 16.0862 12.0014 14.1338 15.5997 14.3162C17.424 14.4094 18.2702 14.0096 18.4022 11.9756C18.6623 8.06686 20.6923 6.70054 24.4342 7.85337C26.1343 8.37739 26.8408 7.9116 27.423 6.32791C28.9524 2.20178 30.6331 1.59624 34.4759 3.77381C35.8655 4.5579 36.5913 4.25125 37.453 2.9975C40.0343 -0.759887 41.684 -0.926797 45.0532 2.17071C46.109 3.14111 46.9746 3.30801 47.9489 2.18235C48.1585 1.93781 48.3953 1.71267 48.6398 1.50307C51.0697 -0.624045 53.0726 -0.4183 55.0405 2.1552C56.8183 4.48027 56.8183 4.48026 59.5238 3.18769C62.2564 1.87959 64.1351 2.63651 65.3889 5.55159C66.5572 8.26482 66.5572 8.2648 69.3209 7.61658C72.3097 6.91401 74.2234 8.31528 74.6775 11.5409C75.054 14.2425 75.054 14.2425 77.8061 14.2657C81.0278 14.289 82.5882 16.1328 82.1768 19.4283C81.8546 22.0134 81.8546 22.0134 84.463 22.6733C87.6886 23.4884 88.9501 25.763 87.5217 28.8217C86.6212 30.7509 87.0326 31.6165 88.8609 32.5364C92.2689 34.2482 92.7308 36.3598 90.4096 39.3835C89.2413 40.9051 89.3888 41.8095 90.8715 42.9973C93.7983 45.3418 93.7788 47.826 90.8482 50.2093C89.4819 51.3194 89.1869 52.1734 90.3359 53.6795C92.7541 56.843 92.3155 58.8924 88.8259 60.6663C87.118 61.5358 86.6212 62.3509 87.479 64.2219C88.9773 67.4979 87.7391 69.8851 84.2185 70.4945C82.1768 70.8477 81.742 71.6357 82.1108 73.6075C82.7901 77.1476 81.0511 78.9486 77.1617 78.871ZM76.9056 75.7152C78.0856 75.7657 79.4131 76.0607 79.0715 73.8599C78.4194 69.66 79.2345 68.5654 83.4887 67.4979C84.7541 67.1796 85.1539 66.7216 84.6299 65.363C83.0307 61.1787 83.4422 60.1656 87.4324 57.9453C88.4533 57.3786 88.8298 56.9206 88.0612 55.7639C85.4101 51.7658 85.5227 50.9468 88.9657 47.7484C89.8584 46.9216 90.0874 46.2734 89.0045 45.4815C85.7245 43.0905 85.3558 40.6683 87.9564 37.4583C88.7056 36.5344 88.6978 35.894 87.479 35.2263C83.3529 32.975 83.0462 32.1521 84.6455 27.6767C85.1074 26.3919 84.6959 25.9765 83.5431 25.6738C79.1569 24.5364 78.5125 23.601 79.0404 19.176C79.1763 18.0387 79.0404 17.4099 77.6159 17.3866C72.857 17.2973 72.3641 16.8315 71.5645 12.0416C71.3665 10.8616 71.0599 10.4074 69.7013 10.749C65.3112 11.8553 64.3214 11.3157 62.6873 7.10809C62.1982 5.85045 61.6625 5.58263 60.4165 6.24639C56.5505 8.30751 55.355 8.01252 52.8863 4.4104C52.0672 3.21487 51.4734 3.12558 50.3904 4.12703C47.2618 7.01881 45.8916 7.00718 42.635 4.08822C41.5248 3.09453 40.9426 3.26145 40.1469 4.45698C37.8218 7.95817 36.4089 8.30363 32.7718 6.32014C31.5375 5.64862 30.8854 5.6952 30.3497 7.14692C28.8398 11.2459 27.6753 11.8708 23.5065 10.7879C22.1634 10.4385 21.6821 10.718 21.4686 12.0804C20.7273 16.7927 20.2304 17.2274 15.394 17.3866C14.1674 17.4293 13.8724 17.8485 13.9888 19.0168C14.4585 23.7912 14.0043 24.4511 9.47452 25.6776C8.29452 25.9998 7.95682 26.454 8.42261 27.7116C10.0179 32.0202 9.62979 33.0527 5.7055 35.1604C4.55267 35.7814 4.25378 36.286 5.07668 37.4816C7.65017 41.2195 7.51044 42.3646 4.18003 45.3495C3.19411 46.2307 3.04272 46.7819 4.11016 47.7484C7.53373 50.842 7.65017 51.8668 5.13102 55.597C4.3974 56.6799 4.38187 57.2816 5.66668 57.9608C9.63755 60.0685 10.0374 61.136 8.45755 65.3786C7.95294 66.7294 8.34498 67.1874 9.62202 67.4979C13.8336 68.5227 14.6254 69.6483 14.0276 73.8754C13.818 75.362 14.2722 75.8783 15.7433 75.7424C19.1591 75.4241 21.3716 76.8409 21.4725 80.8195C21.5075 82.2829 22.0392 82.7914 23.6462 82.3372C27.5239 81.2426 28.9756 82.0267 30.2682 85.7725C30.8 87.3135 31.4172 87.6007 32.8999 86.77C36.3429 84.8448 37.9344 85.2368 40.0071 88.4857C40.9387 89.9413 41.6063 90.0694 42.8756 88.8312C45.5889 86.1917 47.4559 86.2072 50.2118 88.8389C51.4695 90.0422 52.1488 89.9646 53.0803 88.4702C55.0483 85.3144 56.9076 84.8292 60.0284 86.6769C61.6703 87.6512 62.3108 87.2979 62.8658 85.5628C63.9488 82.182 65.6528 81.3397 69.0803 82.213C71.3704 82.7953 71.3704 82.7953 71.6421 80.4081C72.0536 76.9612 73.4238 75.7075 76.9056 75.7152Z" fill="#8A1538"/>
<path d="M68.9716 45.4038C74.5728 50.5431 75.9469 56.1481 73.0396 61.6716C70.3729 66.7409 64.7058 69.295 59.1202 67.9481C52.9795 66.4692 49.8199 61.7803 49.6336 53.8579C49.0668 53.6949 48.6049 53.9783 48.2478 54.3276C45.9887 56.544 43.7762 58.8108 41.5016 61.0156C40.6787 61.8152 41.49 62.0986 41.8548 62.5294C45.3133 66.6594 49.618 69.6599 54.4428 71.9733C55.0251 72.2528 55.5724 72.5983 56.1313 72.9166C58.2623 74.1237 58.371 74.838 56.6748 76.5575C55.584 77.6638 54.4545 78.7273 53.3948 79.8607C52.5603 80.7535 51.7413 80.8777 50.6505 80.2838C45.096 77.2601 39.4288 74.3954 35.4114 69.264C34.604 68.2315 34.0567 68.3984 33.2105 69.2795C31.1339 71.4454 30.9553 71.4454 28.7816 69.198C27.9626 68.3518 27.4464 68.216 26.7127 69.2019C26.2935 69.7647 25.7307 70.2266 25.2183 70.7196C22.6448 73.1883 19.722 73.2154 17.1563 70.77C16.0811 69.7453 15.0175 68.7011 14.0083 67.6143C11.823 65.2582 11.8501 62.3431 14.0355 59.9753C14.2528 59.7385 14.4896 59.5134 14.7186 59.2844C16.64 57.3514 16.6827 57.3126 14.8584 55.3446C13.7055 54.1025 14.1791 53.2175 15.1844 52.2238C20.0481 47.399 24.8768 42.5353 29.7404 37.7105C30.4895 36.9691 31.0446 36.154 31.4561 35.1797C34.2741 28.5305 37.1309 21.8969 39.9723 15.2555C41.2377 12.2939 41.9169 12.1463 44.145 14.3705C46.7961 17.0216 49.4628 19.6572 52.079 22.3433C52.7505 23.0342 53.2163 23.2283 54.1634 22.6655C55.8752 21.6524 57.7927 21.2991 59.7529 21.994C63.1104 23.1856 64.3137 26.8654 62.4312 30.5606C61.8606 31.6785 61.9382 32.2608 62.8543 33.1225C65.5325 35.6494 68.0905 38.3044 70.6951 40.9128C72.7834 43.0089 72.6592 43.7153 70.0158 44.9109C69.6742 45.0545 69.3443 45.2253 68.9716 45.4038ZM42.5419 17.1614C40.275 22.4636 38.0664 27.467 35.9975 32.5286C34.5225 36.1346 32.9854 39.6591 29.7404 42.0812C28.8709 42.7333 29.0805 43.2107 29.7676 43.8861C33.5405 47.6008 37.3056 51.3271 40.9892 55.1311C41.8742 56.0472 42.3556 55.9307 43.0853 55.0651C45.1076 52.6585 47.4831 50.7255 50.569 49.8327C51.3997 49.5921 51.7723 48.9206 52.2536 48.3189C55.0872 44.7711 58.7902 43.1331 63.2929 43.564C64.5311 43.6804 65.5364 43.3893 66.6272 42.9856C67.78 42.5586 67.6092 42.1821 66.8601 41.4485C63.3123 37.9628 59.815 34.4306 56.2982 30.9138C51.7878 26.4034 47.2735 21.893 42.5419 17.1614ZM26.7089 45.2641C26.4566 45.4621 26.2508 45.594 26.08 45.7648C23.5687 48.2684 21.0844 50.8031 18.5381 53.2718C17.7812 54.0054 18.3091 54.3509 18.7632 54.805C22.5517 58.5896 26.3518 62.3586 30.1091 66.1742C30.7884 66.8613 31.1921 67.0165 31.9413 66.2363C34.2159 63.8608 36.5526 61.5435 38.9165 59.2572C39.6074 58.5857 39.7277 58.1782 38.9669 57.4329C35.1436 53.6872 31.3784 49.8793 27.59 46.0986C27.3222 45.8269 27.0388 45.5746 26.7089 45.2641ZM62.0003 46.5877C56.9154 46.6149 52.7776 50.7604 52.7582 55.8492C52.7388 61.0195 56.9465 65.2194 62.1129 65.1883C67.2715 65.1573 71.4248 60.9069 71.3549 55.7327C71.2928 50.6595 67.093 46.5605 62.0003 46.5877ZM53.5928 74.8884C48.0887 72.6254 43.4308 69.1669 39.588 64.641C38.7069 63.6046 38.276 64.2878 37.6433 64.8739C36.898 65.5609 36.5332 65.9802 37.457 66.9855C40.8806 70.7273 44.7854 73.7317 49.3191 76.0451C51.1707 76.9845 52.405 77.2601 53.5928 74.8884ZM25.5366 66.0539C25.1485 65.6386 24.8962 65.3552 24.6322 65.0874C23.5881 64.0355 22.54 62.9913 21.4959 61.9472C18.7865 59.2417 18.2742 59.2883 16.0345 62.4207C15.3474 63.3834 15.3009 64.3809 16.0966 65.2465C17.2688 66.5236 18.4993 67.7579 19.788 68.9224C20.51 69.5784 21.492 69.7259 22.2838 69.0893C23.4056 68.1732 24.4148 67.1097 25.5366 66.0539ZM55.1881 25.5961C56.4651 26.7994 57.6219 27.8008 58.666 28.911C59.5394 29.8387 59.846 29.237 60.0323 28.4801C60.3157 27.3195 60.3662 26.0929 59.3065 25.2855C58.0644 24.3345 56.7951 24.8197 55.1881 25.5961Z" fill="#8A1538"/>
<path d="M64.8837 22.1298C64.3053 21.4816 63.727 20.8877 63.2146 20.2433C62.6945 19.5912 63.4553 19.3506 63.7386 19.0556C65.3417 17.3904 67.0457 15.8183 68.61 14.1182C69.4252 13.2332 69.9181 13.6407 70.4111 14.3161C70.8109 14.8673 72.084 15.1662 70.9623 16.2375C69.1961 17.9222 67.4999 19.6766 65.7687 21.3962C65.5436 21.6174 65.2835 21.7999 64.8837 22.1298Z" fill="#8A1538"/>
<path d="M60.0505 13.4545C60.0505 14.2929 59.9573 15.1468 60.0699 15.9697C60.2679 17.4331 59.7361 17.9105 58.2727 17.7941C57.3256 17.7203 56.8792 17.5806 56.9142 16.5054C56.9879 14.3783 57.0151 12.2395 56.9064 10.1163C56.8365 8.71891 57.6788 8.95958 58.5017 8.94017C59.379 8.92077 60.198 8.81983 60.0699 10.1629C59.969 11.2497 60.0505 12.356 60.0505 13.4545Z" fill="#8A1538"/>
<path d="M71.7541 28.0376C70.8497 28.0376 69.9414 27.991 69.0409 28.0492C67.8997 28.123 67.1389 28.0881 67.1505 26.5005C67.1622 24.9828 67.7988 24.8586 69.002 24.9052C70.9351 24.9789 72.8797 25.0061 74.8128 24.8974C76.1636 24.8236 76.0471 25.6077 76.0316 26.4772C76.0161 27.304 76.2412 28.2006 74.8516 28.0609C73.8307 27.9522 72.7905 28.0376 71.7541 28.0376Z" fill="#8A1538"/>
<path d="M56.0513 58.515H60.1213L60.0003 57.096H56.1833L56.0513 58.515ZM58.0643 55.127L59.1533 57.624L59.0873 58.097L60.0113 60H62.1233L58.0643 51.816L54.0163 60H56.1173L57.0743 58.02L56.9863 57.613L58.0643 55.127ZM62.6552 52.3V60H64.5692V52.3H62.6552ZM65.4052 60C66.2485 60 66.9782 59.8423 67.5942 59.527C68.2102 59.2117 68.6869 58.768 69.0242 58.196C69.3615 57.6167 69.5302 56.9347 69.5302 56.15C69.5302 55.358 69.3615 54.676 69.0242 54.104C68.6869 53.532 68.2102 53.0883 67.5942 52.773C66.9782 52.4577 66.2485 52.3 65.4052 52.3H63.8872V53.95H65.3392C65.6325 53.95 65.9149 53.9867 66.1862 54.06C66.4649 54.1333 66.7069 54.2543 66.9122 54.423C67.1249 54.5917 67.2935 54.819 67.4182 55.105C67.5429 55.3837 67.6052 55.732 67.6052 56.15C67.6052 56.568 67.5429 56.92 67.4182 57.206C67.2935 57.4847 67.1249 57.7083 66.9122 57.877C66.7069 58.0457 66.4649 58.1667 66.1862 58.24C65.9149 58.3133 65.6325 58.35 65.3392 58.35H63.8872V60H65.4052Z" fill="#8A1538"/>
</svg>
